<svg width="20" height="20" viewBox="0 0 20 20" fill="none" xmlns="http://www.w3.org/2000/svg">
<g id="Icon/Solid/calendar">
<path id="Icon" d="M5 4.52083H5.52083V4V3C5.52083 2.73536 5.73536 2.52083 6 2.52083C6.26464 2.52083 6.47917 2.73536 6.47917 3V4V4.52083H7H13H13.5208V4V3C13.5208 2.73536 13.7354 2.52083 14 2.52083C14.2646 2.52083 14.4792 2.73536 14.4792 3V4V4.52083H15H16C16.8169 4.52083 17.4792 5.18308 17.4792 6V16C17.4792 16.8169 16.8169 17.4792 16 17.4792H4C3.18308 17.4792 2.52083 16.8169 2.52083 16V6C2.52083 5.18308 3.18308 4.52083 4 4.52083H5ZM6 6.47917C5.16007 6.47917 4.47917 7.16007 4.47917 8C4.47917 8.83993 5.16007 9.52083 6 9.52083H14C14.8399 9.52083 15.5208 8.83993 15.5208 8C15.5208 7.16007 14.8399 6.47917 14 6.47917H6Z" fill="#CED5E5" stroke="#CED5E5" stroke-width="1.04167"/>
</g>
</svg>
