<svg width="33" height="33" viewBox="0 0 33 33" fill="none" xmlns="http://www.w3.org/2000/svg">
<g id="car-line">
<path id="Vector" d="M25.8327 27.1556H7.16602V28.4889C7.16602 29.2253 6.56906 29.8223 5.83268 29.8223H4.49935C3.76298 29.8223 3.16602 29.2253 3.16602 28.4889V15.1556L6.47335 7.43848C6.89356 6.45799 7.85767 5.82227 8.9244 5.82227H24.0743C25.1411 5.82227 26.1051 6.45799 26.5253 7.43848L29.8327 15.1556V28.4889C29.8327 29.2253 29.2357 29.8223 28.4993 29.8223H27.166C26.4296 29.8223 25.8327 29.2253 25.8327 28.4889V27.1556ZM27.166 17.8223H5.83268V24.4889H27.166V17.8223ZM6.06727 15.1556H26.9315L24.0743 8.48893H8.9244L6.06727 15.1556ZM9.16602 23.1556C8.06144 23.1556 7.16602 22.2601 7.16602 21.1556C7.16602 20.0511 8.06144 19.1556 9.16602 19.1556C10.2706 19.1556 11.166 20.0511 11.166 21.1556C11.166 22.2601 10.2706 23.1556 9.16602 23.1556ZM23.8327 23.1556C22.7281 23.1556 21.8327 22.2601 21.8327 21.1556C21.8327 20.0511 22.7281 19.1556 23.8327 19.1556C24.9372 19.1556 25.8327 20.0511 25.8327 21.1556C25.8327 22.2601 24.9372 23.1556 23.8327 23.1556Z" fill="#BBBCC0"/>
</g>
</svg>
