<svg width="20" height="20" viewBox="0 0 20 20" fill="none" xmlns="http://www.w3.org/2000/svg">
<path fill-rule="evenodd" clip-rule="evenodd" d="M10 18C14.4183 18 18 14.4183 18 10C18 5.58172 14.4183 2 10 2C5.58172 2 2 5.58172 2 10C2 14.4183 5.58172 18 10 18ZM11.0413 5.99577C11.0413 5.42047 10.575 4.9541 9.99967 4.9541C9.42438 4.9541 8.95801 5.42047 8.95801 5.99577V9.99577C8.95801 10.272 9.06775 10.537 9.2631 10.7323L12.0915 13.5608C12.4983 13.9676 13.1579 13.9676 13.5647 13.5608C13.9715 13.154 13.9715 12.4944 13.5647 12.0876L11.0413 9.5643V5.99577Z" fill="#CED5E5"/>
</svg>
