<svg width="22" height="20" viewBox="0 0 22 20" fill="none" xmlns="http://www.w3.org/2000/svg">
<path id="Vector" d="M19.4578 3.08059C18.9691 2.57609 18.3889 2.17589 17.7503 1.90284C17.1117 1.6298 16.4272 1.48926 15.7359 1.48926C15.0446 1.48926 14.3601 1.6298 13.7215 1.90284C13.0829 2.17589 12.5026 2.57609 12.0139 3.08059L10.9997 4.12711L9.98554 3.08059C8.99842 2.06201 7.6596 1.48979 6.26361 1.48979C4.86761 1.48979 3.52879 2.06201 2.54168 3.08059C1.55456 4.09916 1 5.48064 1 6.92113C1 8.36161 1.55456 9.74309 2.54168 10.7617L3.55588 11.8082L9.49172 17.9332C10.3168 18.7846 11.6827 18.7846 12.5078 17.9332L18.4436 11.8082L19.4578 10.7617C19.9467 10.2574 20.3346 9.65868 20.5992 8.99971C20.8638 8.34074 21 7.63443 21 6.92113C21 6.20782 20.8638 5.50151 20.5992 4.84254C20.3346 4.18357 19.9467 3.58485 19.4578 3.08059Z" stroke="#B2B2B2" stroke-width="1.5" stroke-linecap="round" stroke-linejoin="round"/>
</svg>
