<svg width="24" height="25" viewBox="0 0 24 25" fill="none" xmlns="http://www.w3.org/2000/svg">
<g id="icon / jam-icons / outline &#38; logos / instagram">
<path id="Vector" d="M16.017 2.49121H7.947C6.37015 2.49306 4.85844 3.12035 3.74353 4.23545C2.62862 5.35054 2.00159 6.86236 2 8.43921L2 16.5092C2.00185 18.0861 2.62914 19.5978 3.74424 20.7127C4.85933 21.8276 6.37115 22.4546 7.948 22.4562H16.018C17.5948 22.4544 19.1066 21.8271 20.2215 20.712C21.3364 19.5969 21.9634 18.0851 21.965 16.5082V8.43821C21.9631 6.86136 21.3359 5.34965 20.2208 4.23474C19.1057 3.11983 17.5938 2.4928 16.017 2.49121V2.49121ZM19.957 16.5082C19.957 17.0256 19.8551 17.538 19.6571 18.016C19.4591 18.494 19.1689 18.9284 18.803 19.2942C18.4371 19.6601 18.0028 19.9503 17.5248 20.1483C17.0468 20.3463 16.5344 20.4482 16.017 20.4482H7.947C6.90222 20.4479 5.90032 20.0327 5.16165 19.2939C4.42297 18.555 4.008 17.553 4.008 16.5082V8.43821C4.00827 7.39343 4.42349 6.39153 5.16235 5.65286C5.90122 4.91418 6.90322 4.49921 7.948 4.49921H16.018C17.0628 4.49948 18.0647 4.9147 18.8034 5.65356C19.542 6.39243 19.957 7.39443 19.957 8.43921V16.5092V16.5082Z" fill="#B2B2B2"/>
<path id="Vector_2" d="M11.9823 7.31006C10.6137 7.31218 9.30184 7.85684 8.33421 8.82466C7.36658 9.79249 6.82216 11.1045 6.82031 12.4731C6.8219 13.842 7.36634 15.1544 8.33421 16.1225C9.30209 17.0905 10.6144 17.6352 11.9833 17.6371C13.3524 17.6355 14.665 17.0909 15.6331 16.1228C16.6012 15.1547 17.1457 13.8421 17.1473 12.4731C17.1452 11.1041 16.6003 9.79194 15.632 8.82425C14.6637 7.85656 13.3512 7.31238 11.9823 7.31106V7.31006ZM11.9823 15.6291C11.1456 15.6291 10.3431 15.2967 9.75139 14.705C9.15971 14.1133 8.82731 13.3108 8.82731 12.4741C8.82731 11.6373 9.15971 10.8348 9.75139 10.2431C10.3431 9.65146 11.1456 9.31906 11.9823 9.31906C12.8191 9.31906 13.6216 9.65146 14.2132 10.2431C14.8049 10.8348 15.1373 11.6373 15.1373 12.4741C15.1373 13.3108 14.8049 14.1133 14.2132 14.705C13.6216 15.2967 12.8191 15.6291 11.9823 15.6291Z" fill="#B2B2B2"/>
<path id="Vector_3" d="M17.1559 8.5863C17.8391 8.5863 18.3929 8.03248 18.3929 7.3493C18.3929 6.66613 17.8391 6.1123 17.1559 6.1123C16.4728 6.1123 15.9189 6.66613 15.9189 7.3493C15.9189 8.03248 16.4728 8.5863 17.1559 8.5863Z" fill="#B2B2B2"/>
</g>
</svg>
