<svg width="24" height="25" viewBox="0 0 24 25" fill="none" xmlns="http://www.w3.org/2000/svg">
<g id="icon / jam-icons / outline &#38; logos / linkedin">
<path id="Vector" d="M21.959 14.2101V21.5891H17.681V14.7041C17.681 12.9741 17.062 11.7941 15.514 11.7941C14.332 11.7941 13.628 12.5901 13.319 13.3591C13.206 13.6341 13.177 14.0171 13.177 14.4021V21.5891H8.897C8.897 21.5891 8.955 9.92909 8.897 8.72009H13.177V10.5441L13.149 10.5861H13.177V10.5441C13.745 9.66909 14.76 8.41809 17.033 8.41809C19.848 8.41809 21.959 10.2581 21.959 14.2101ZM4.421 2.51709C2.958 2.51709 2 3.47709 2 4.74009C2 5.97509 2.93 6.96409 4.365 6.96409H4.393C5.886 6.96409 6.813 5.97509 6.813 4.74009C6.787 3.47709 5.887 2.51709 4.422 2.51709H4.421ZM2.254 21.5891H6.532V8.72009H2.254V21.5891Z" fill="#B2B2B2"/>
</g>
</svg>
