<svg width="20" height="21" viewBox="0 0 20 21" fill="none" xmlns="http://www.w3.org/2000/svg">
<g id="Icon/Solid/lock-open">
<path id="Icon" d="M10 2.06445C7.23858 2.06445 5 4.30303 5 7.06445V9.06445C3.89543 9.06445 3 9.95988 3 11.0645V16.0645C3 17.169 3.89543 18.0645 5 18.0645H15C16.1046 18.0645 17 17.169 17 16.0645V11.0645C17 9.95988 16.1046 9.06445 15 9.06445H7V7.06445C7 5.4076 8.34315 4.06445 10 4.06445C11.3965 4.06445 12.5725 5.01958 12.9055 6.31371C13.0432 6.84856 13.5884 7.17055 14.1232 7.03289C14.6581 6.89523 14.9801 6.35005 14.8424 5.81519C14.2874 3.65888 12.3312 2.06445 10 2.06445Z" fill="#B2B2B2"/>
</g>
</svg>
