<svg width="16" height="16" viewBox="0 0 16 16" fill="none" xmlns="http://www.w3.org/2000/svg">
<g id="fluent:luggage-28-regular">
<path id="Vector" d="M5.19795 5.1999C5.09882 5.29903 5.04314 5.43348 5.04314 5.57366C5.04314 5.71385 5.09882 5.84829 5.19795 5.94742C5.29708 6.04654 5.43152 6.10223 5.57171 6.10223H10.4289C10.569 6.10223 10.7035 6.04654 10.8026 5.94742C10.9017 5.84829 10.9574 5.71385 10.9574 5.57366C10.9574 5.43348 10.9017 5.29903 10.8026 5.1999C10.7035 5.10078 10.569 5.04509 10.4289 5.04509H5.57171C5.43152 5.04509 5.29708 5.10078 5.19795 5.1999ZM5.57171 0.759375C5.43152 0.759375 5.29708 0.815064 5.19795 0.91419C5.09882 1.01332 5.04314 1.14776 5.04314 1.28795C5.04314 1.42813 5.09882 1.56258 5.19795 1.6617C5.29708 1.76083 5.43152 1.81652 5.57171 1.81652H5.61456V2.18795H4.85742C4.30047 2.18795 3.76632 2.4092 3.3725 2.80302C2.97867 3.19685 2.75742 3.73099 2.75742 4.28795V12.0022C2.75742 12.0022 2.75742 12.0022 2.75742 12.0022C2.7573 12.5073 2.9392 12.9955 3.26979 13.3773C3.5814 13.7372 4.00543 13.9799 4.47171 14.067V14.4308C4.47171 14.571 4.5274 14.7054 4.62652 14.8046C4.72565 14.9037 4.86009 14.9594 5.00028 14.9594C5.14046 14.9594 5.27491 14.9037 5.37404 14.8046C5.47316 14.7054 5.52885 14.571 5.52885 14.4308V14.1022H10.4717V14.4308C10.4717 14.571 10.5274 14.7054 10.6265 14.8046C10.7256 14.9037 10.8601 14.9594 11.0003 14.9594C11.1405 14.9594 11.2749 14.9037 11.374 14.8046C11.4732 14.7054 11.5289 14.571 11.5289 14.4308V14.067C11.9951 13.9798 12.419 13.7371 12.7306 13.3772C13.0612 12.9954 13.2431 12.5073 13.2431 12.0022V4.28795C13.2431 3.73099 13.0219 3.19685 12.6281 2.80302C12.2342 2.4092 11.7001 2.18795 11.1431 2.18795H10.386V1.81652H10.4289C10.569 1.81652 10.7035 1.76083 10.8026 1.6617C10.9017 1.56258 10.9574 1.42813 10.9574 1.28795C10.9574 1.14776 10.9017 1.01332 10.8026 0.91419C10.7035 0.815064 10.569 0.759375 10.4289 0.759375H5.57171ZM9.32885 1.81652V2.18795H6.67171V1.81652H9.32885ZM4.85742 3.24509H11.1431C11.4197 3.24509 11.685 3.35496 11.8805 3.55054C12.0761 3.74611 12.186 4.01136 12.186 4.28795V12.0022C12.186 12.2788 12.0761 12.5441 11.8805 12.7396C11.685 12.9352 11.4197 13.0451 11.1431 13.0451H4.85742C4.58084 13.0451 4.31558 12.9352 4.12001 12.7396C3.92444 12.5441 3.81456 12.2788 3.81456 12.0022V4.28795C3.81456 4.01136 3.92444 3.74611 4.12001 3.55054C4.31558 3.35496 4.58084 3.24509 4.85742 3.24509Z" fill="#E5EAFA" stroke="#E5EAFA" stroke-width="0.2"/>
</g>
</svg>
