<svg width="48" height="48" viewBox="0 0 48 48" fill="none" xmlns="http://www.w3.org/2000/svg">
<rect width="48" height="48" rx="24" fill="#2F4456"/>
<path d="M33.7097 20.7097C34.9597 19.4597 34.3897 17.9997 33.7097 17.2897L30.7097 14.2897C29.4497 13.0397 27.9997 13.6097 27.2897 14.2897L25.5897 15.9997H22.9997C21.0997 15.9997 19.9997 16.9997 19.4397 18.1497L14.9997 22.5897V26.5897L14.2897 27.2897C13.0397 28.5497 13.6097 29.9997 14.2897 30.7097L17.2897 33.7097C17.8297 34.2497 18.4097 34.4497 18.9597 34.4497C19.6697 34.4497 20.3197 34.0997 20.7097 33.7097L23.4097 30.9997H26.9997C28.6997 30.9997 29.5597 29.9397 29.8697 28.8997C30.9997 28.5997 31.6197 27.7397 31.8697 26.8997C33.4197 26.4997 33.9997 25.0297 33.9997 23.9997V20.9997H33.4097L33.7097 20.7097ZM31.9997 23.9997C31.9997 24.4497 31.8097 24.9997 30.9997 24.9997H29.9997V25.9997C29.9997 26.4497 29.8097 26.9997 28.9997 26.9997H27.9997V27.9997C27.9997 28.4497 27.8097 28.9997 26.9997 28.9997H22.5897L19.3097 32.2797C18.9997 32.5697 18.8197 32.3997 18.7097 32.2897L15.7197 29.3097C15.4297 28.9997 15.5997 28.8197 15.7097 28.7097L16.9997 27.4097V23.4097L18.9997 21.4097V22.9997C18.9997 24.2097 19.7997 25.9997 21.9997 25.9997C24.1997 25.9997 24.9997 24.2097 24.9997 22.9997H31.9997V23.9997ZM32.2897 19.2897L30.5897 20.9997H22.9997V22.9997C22.9997 23.4497 22.8097 23.9997 21.9997 23.9997C21.1897 23.9997 20.9997 23.4497 20.9997 22.9997V19.9997C20.9997 19.5397 21.1697 17.9997 22.9997 17.9997H26.4097L28.6897 15.7197C28.9997 15.4297 29.1797 15.5997 29.2897 15.7097L32.2797 18.6897C32.5697 18.9997 32.3997 19.1797 32.2897 19.2897Z" fill="white"/>
</svg>
