<svg width="20" height="20" viewBox="0 0 20 20" fill="none" xmlns="http://www.w3.org/2000/svg">
<path d="M12.9734 15.2083H13.3412L13.4642 14.8618C13.6228 14.4152 13.9157 14.0285 14.3027 13.7549C14.6896 13.4812 15.1518 13.334 15.6257 13.3333C16.0456 13.3335 16.4574 13.4489 16.8162 13.6672C17.1751 13.8855 17.4671 14.1984 17.6602 14.5715C17.8534 14.9446 17.9402 15.3636 17.9113 15.7828C17.8824 16.2019 17.7388 16.605 17.4962 16.9481C17.2537 17.2911 16.9215 17.5609 16.536 17.7279C16.1504 17.8949 15.7264 17.9527 15.3103 17.8949C14.8941 17.8372 14.5018 17.6662 14.1763 17.4006C13.8508 17.135 13.6045 16.785 13.4645 16.3889L13.3417 16.0417H12.9734H5.625C4.68569 16.0417 3.78486 15.6685 3.12066 15.0043C2.45647 14.3401 2.08333 13.4393 2.08333 12.5C2.08333 11.5607 2.45647 10.6599 3.12066 9.99566C3.78485 9.33147 4.68569 8.95833 5.625 8.95833H13.125C13.6775 8.95833 14.2074 8.73884 14.5981 8.34814C14.9888 7.95744 15.2083 7.42753 15.2083 6.875C15.2083 6.32247 14.9888 5.79256 14.5981 5.40186C14.2074 5.01116 13.6775 4.79167 13.125 4.79167H5.625C5.51449 4.79167 5.40851 4.74777 5.33037 4.66963C5.25223 4.59149 5.20833 4.48551 5.20833 4.375C5.20833 4.26449 5.25223 4.15851 5.33037 4.08037C5.40851 4.00223 5.51449 3.95833 5.625 3.95833H13.125C13.8986 3.95833 14.6404 4.26562 15.1874 4.81261C15.7344 5.35959 16.0417 6.10145 16.0417 6.875C16.0417 7.64855 15.7344 8.39041 15.1874 8.9374C14.6404 9.48438 13.8986 9.79167 13.125 9.79167H5.625C4.90671 9.79167 4.21783 10.077 3.70992 10.5849C3.20201 11.0928 2.91667 11.7817 2.91667 12.5C2.91667 13.2183 3.20201 13.9072 3.70992 14.4151C4.21783 14.923 4.90671 15.2083 5.625 15.2083H12.9734ZM14.8148 16.8376C15.0546 16.9978 15.3366 17.0833 15.625 17.0833C16.0118 17.0833 16.3827 16.9297 16.6562 16.6562C16.9297 16.3827 17.0833 16.0118 17.0833 15.625C17.0833 15.3366 16.9978 15.0546 16.8376 14.8148C16.6773 14.575 16.4496 14.3881 16.1831 14.2777C15.9166 14.1673 15.6234 14.1384 15.3405 14.1947C15.0576 14.251 14.7978 14.3899 14.5938 14.5938C14.3899 14.7978 14.251 15.0576 14.1947 15.3405C14.1384 15.6234 14.1673 15.9166 14.2777 16.1831C14.3881 16.4496 14.575 16.6773 14.8148 16.8376Z" fill="#223544" stroke="#CED5E5" stroke-width="1.04167"/>
</svg>
