<svg width="21" height="20" viewBox="0 0 21 20" fill="none" xmlns="http://www.w3.org/2000/svg">
<path d="M3 4.16667C3 3.24619 3.74619 2.5 4.66667 2.5H7.39937C7.75806 2.5 8.07651 2.72953 8.18994 3.06981L9.43811 6.81434C9.56926 7.20777 9.39115 7.63776 9.02022 7.82322L7.13917 8.76375C8.05771 10.801 9.69898 12.4423 11.7363 13.3608L12.6768 11.4798C12.8622 11.1088 13.2922 10.9307 13.6857 11.0619L17.4302 12.3101C17.7705 12.4235 18 12.7419 18 13.1006V15.8333C18 16.7538 17.2538 17.5 16.3333 17.5H15.5C8.59644 17.5 3 11.9036 3 5V4.16667Z" stroke="#FDC65C" stroke-width="2" stroke-linecap="round" stroke-linejoin="round"/>
</svg>
