<svg width="25" height="25" viewBox="0 0 25 25" fill="none" xmlns="http://www.w3.org/2000/svg">
<g id="Icon/Outline/phone">
<path id="Icon" d="M3.5 5.06445C3.5 3.95988 4.39543 3.06445 5.5 3.06445H8.77924C9.20967 3.06445 9.59181 3.33988 9.72792 3.74823L11.2257 8.24166C11.3831 8.71378 11.1694 9.22976 10.7243 9.45232L8.46701 10.581C9.56925 13.0257 11.5388 14.9952 13.9835 16.0974L15.1121 13.8402C15.3347 13.3951 15.8507 13.1813 16.3228 13.3387L20.8162 14.8365C21.2246 14.9726 21.5 15.3548 21.5 15.7852V19.0645C21.5 20.169 20.6046 21.0645 19.5 21.0645H18.5C10.2157 21.0645 3.5 14.3487 3.5 6.06445V5.06445Z" stroke="#3C3C3C" stroke-width="2" stroke-linecap="round" stroke-linejoin="round"/>
</g>
</svg>
