<svg width="24" height="25" viewBox="0 0 24 25" fill="none" xmlns="http://www.w3.org/2000/svg">
<g id="icon / jam-icons / outline &#38; logos / pinterest">
<path id="Vector" d="M10.6695 15.5884C10.1635 18.3144 9.54754 20.9284 7.71954 22.2934C7.15654 18.1734 8.54854 15.0784 9.19454 11.7934C8.09254 9.8834 9.32754 6.0384 11.6515 6.9854C14.5115 8.1514 9.17454 14.0874 12.7575 14.8294C16.4985 15.6034 18.0265 8.1464 15.7065 5.7204C12.3545 2.2194 5.94954 5.6414 6.73754 10.6544C6.92954 11.8804 8.15854 12.2524 7.22854 13.9444C5.08354 13.4534 4.44354 11.7114 4.52654 9.3884C4.65854 5.5884 7.84354 2.9264 11.0375 2.5584C15.0775 2.0924 18.8685 4.0854 19.3915 7.9984C19.9815 12.4144 17.5685 17.1984 13.2495 16.8534C12.0785 16.7604 11.5865 16.1634 10.6695 15.5884Z" fill="#B2B2B2"/>
</g>
</svg>
