<svg width="32" height="33" viewBox="0 0 32 33" fill="none" xmlns="http://www.w3.org/2000/svg">
<g id="service-line">
<path id="Vector" d="M4.21419 6.44759C7.44612 3.21566 12.5956 3.06992 16.0004 6.01039C19.4031 3.06992 24.5526 3.21566 27.7844 6.44759C31.0105 9.67374 31.1615 14.8106 28.2373 18.2155L17.8849 28.6037C16.8908 29.5977 15.3072 29.6429 14.2596 28.7391L14.1137 28.6037L3.76123 18.2155C0.837059 14.8106 0.988045 9.67374 4.21419 6.44759ZM6.0998 8.3332C3.8236 10.6094 3.75858 14.2594 5.90471 16.6142L6.0998 16.8185L15.9993 26.7179L23.0695 19.6459L18.3563 14.9329L16.9421 16.3471C15.38 17.9091 12.8474 17.9091 11.2853 16.3471C9.72316 14.785 9.72316 12.2523 11.2853 10.6902L14.0868 7.8869C11.8032 6.05876 8.4937 6.1425 6.30415 8.1381L6.0998 8.3332ZM17.4135 12.1044C17.9342 11.5837 18.7784 11.5837 19.2991 12.1044L24.9551 17.7603L25.8988 16.8185C28.2419 14.4754 28.2419 10.6764 25.8988 8.3332C23.6226 6.057 19.9725 5.99198 17.6179 8.1381L17.4135 8.3332L13.1709 12.5758C12.6874 13.0594 12.6528 13.8218 13.0673 14.3451L13.1709 14.4615C13.6544 14.945 14.4168 14.9795 14.9401 14.5651L15.0565 14.4615L17.4135 12.1044Z" fill="#BBBCC0"/>
</g>
</svg>
