<svg width="24" height="25" viewBox="0 0 24 25" fill="none" xmlns="http://www.w3.org/2000/svg">
<g id="shield-user-line 1" clip-path="url(#clip0_1176_2515)">
<path id="Vector" d="M3.40211 2.48124L11.7152 0.633878C12.1439 0.538626 12.5882 0.538626 13.0168 0.633878L21.3299 2.48124C21.8291 2.59216 22.1842 3.03486 22.1842 3.54617V14.4408C22.1842 16.6293 21.0905 18.673 19.2695 19.8869L12.9207 24.1195C12.5848 24.3434 12.1472 24.3434 11.8113 24.1195L5.46254 19.8869C3.64161 18.673 2.54785 16.6293 2.54785 14.4408V3.54617C2.54785 3.03486 2.90298 2.59216 3.40211 2.48124ZM5.1212 4.33426C4.89244 4.3851 4.72967 4.588 4.72967 4.82235V14.4408C4.72967 15.8998 5.45883 17.2622 6.6728 18.0715L11.8113 21.4972C12.1472 21.7212 12.5848 21.7212 12.9207 21.4972L18.0593 18.0715C19.2732 17.2622 20.0024 15.8998 20.0024 14.4408V4.82235C20.0024 4.588 19.8396 4.3851 19.6109 4.33426L13.0168 2.86892C12.5882 2.77367 12.1439 2.77367 11.7152 2.86892L5.1212 4.33426ZM12.366 11.3983C10.8598 11.3983 9.63876 10.1773 9.63876 8.67108C9.63876 7.16485 10.8598 5.9438 12.366 5.9438C13.8723 5.9438 15.0933 7.16485 15.0933 8.67108C15.0933 10.1773 13.8723 11.3983 12.366 11.3983ZM8.04522 16.8529C7.74732 16.8529 7.5135 16.5929 7.57973 16.3024C8.07765 14.1188 10.0315 12.4893 12.366 12.4893C14.7005 12.4893 16.6544 14.1188 17.1523 16.3024C17.2185 16.5929 16.9847 16.8529 16.6868 16.8529H8.04522Z" fill="#CECFD2"/>
</g>
<defs>
<clipPath id="clip0_1176_2515">
<rect width="24" height="24" fill="white" transform="translate(0 0.489258)"/>
</clipPath>
</defs>
</svg>
