<svg width="25" height="26" viewBox="0 0 25 26" fill="none" xmlns="http://www.w3.org/2000/svg">
<path id="Vector" d="M24.8085 15.5638C23.7586 20.7336 19.5333 24.7503 14.257 25.4893L14.2573 22.9459C18.1429 22.2602 21.2584 19.3416 22.2311 15.563L24.8085 15.5638ZM2.76687 15.563C3.72905 19.3006 6.7875 22.1965 10.6142 22.9227V25.4709C5.39719 24.6859 1.23105 20.6922 0.189483 15.5638L2.76687 15.563ZM20.0356 11.7942V14.3064H16.2673C14.943 14.3064 13.8579 15.3313 13.762 16.6311L13.7551 16.8186V20.5869H11.2429V16.8186C11.2429 15.4942 10.2181 14.4092 8.91819 14.3133L8.73069 14.3064H4.96238V11.7942H20.0356ZM12.499 0.489258C19.0124 0.489258 24.3678 5.44663 24.9981 11.7941L22.4702 11.7942C21.852 6.83725 17.6235 3.00147 12.499 3.00147C7.37457 3.00147 3.14601 6.83725 2.52791 11.7942L0 11.7941C0.630276 5.44663 5.98572 0.489258 12.499 0.489258Z" fill="#CECFD2"/>
</svg>
