<svg width="32" height="33" viewBox="0 0 32 33" fill="none" xmlns="http://www.w3.org/2000/svg">
<g id="ArrowDown">
<path id="Vector" d="M6.29292 13.5337L15.2929 4.53371C15.3858 4.44074 15.4961 4.36697 15.6175 4.31665C15.7389 4.26633 15.869 4.24043 16.0004 4.24043C16.1318 4.24043 16.262 4.26633 16.3834 4.31665C16.5048 4.36697 16.615 4.44074 16.7079 4.53371L25.7079 13.5337C25.8956 13.7214 26.001 13.9758 26.001 14.2412C26.001 14.5066 25.8956 14.7611 25.7079 14.9487C25.5203 15.1364 25.2658 15.2418 25.0004 15.2418C24.7351 15.2418 24.4806 15.1364 24.2929 14.9487L17.0004 7.65496L17.0004 27.2412C17.0004 27.5064 16.8951 27.7608 16.7075 27.9483C16.52 28.1359 16.2656 28.2412 16.0004 28.2412C15.7352 28.2412 15.4808 28.1359 15.2933 27.9483C15.1058 27.7608 15.0004 27.5064 15.0004 27.2412L15.0004 7.65496L7.70792 14.9487C7.52028 15.1364 7.26578 15.2418 7.00042 15.2418C6.73505 15.2418 6.48056 15.1364 6.29292 14.9487C6.10528 14.7611 5.99986 14.5066 5.99986 14.2412C5.99986 13.9758 6.10528 13.7214 6.29292 13.5337Z" fill="white"/>
</g>
</svg>
