<svg width="20" height="22" viewBox="0 0 20 22" fill="none" xmlns="http://www.w3.org/2000/svg">
<path fill-rule="evenodd" clip-rule="evenodd" d="M10 1C14.9675 1 19 4.62714 19 9.09524C19 11.21 17.7188 13.5728 16.0946 15.6152C13.8515 18.4352 11.0472 20.6457 11.0472 20.6457C10.4479 21.1181 9.55212 21.1181 8.95283 20.6457C8.95283 20.6457 6.14853 18.4352 3.90542 15.6152C2.28118 13.5728 1 11.21 1 9.09524C1 4.62714 5.03253 1 10 1ZM10 5.7619C7.95488 5.7619 6.29412 7.25571 6.29412 9.09524C6.29412 10.9348 7.95488 12.4286 10 12.4286C12.0451 12.4286 13.7059 10.9348 13.7059 9.09524C13.7059 7.25571 12.0451 5.7619 10 5.7619Z" stroke="black" stroke-opacity="0.41" stroke-width="1.6"/>
</svg>
