<svg width="18" height="18" viewBox="0 0 18 18" fill="none" xmlns="http://www.w3.org/2000/svg">
<path fill-rule="evenodd" clip-rule="evenodd" d="M10.5432 1.90177L10.9612 1.48386C11.2865 1.15848 11.5672 0.877781 11.8173 0.665477C12.0812 0.441398 12.3679 0.242713 12.7205 0.128166C13.2464 -0.042722 13.813 -0.0427219 14.3389 0.128166C14.6914 0.242713 14.9782 0.441399 15.2421 0.665477C15.4922 0.877785 15.7729 1.15849 16.0982 1.48387L16.5161 1.90176C16.8415 2.22712 17.1222 2.50781 17.3345 2.75789C17.5586 3.02184 17.7573 3.30856 17.8718 3.6611C18.0427 4.18704 18.0427 4.75358 17.8718 5.27952C17.7573 5.63206 17.5586 5.91878 17.3345 6.18273C17.1222 6.43281 16.8415 6.71349 16.5161 7.03885L16.5161 7.03886L16.0982 7.45675L16.0982 7.45676L16.0981 7.45686C15.7728 7.7822 15.4922 8.06286 15.2421 8.27515C14.9782 8.49922 14.6914 8.69791 14.3389 8.81246C13.813 8.98334 13.2464 8.98334 12.7205 8.81246C12.3679 8.69791 12.0812 8.49922 11.8173 8.27515C11.5672 8.06284 11.2865 7.78214 10.9612 7.45676L10.5432 7.03885C10.2179 6.71349 9.93716 6.43281 9.72486 6.18273C9.50078 5.91878 9.30209 5.63206 9.18754 5.27952C9.01666 4.75358 9.01666 4.18704 9.18754 3.6611C9.30209 3.30856 9.50078 3.02184 9.72486 2.75789C9.93715 2.50781 10.2178 2.22714 10.5432 1.9018L10.5432 1.90179L10.5432 1.90177ZM11.0557 3.88771C10.9017 4.06909 10.8628 4.15451 10.8479 4.20058C10.7909 4.37589 10.7909 4.56473 10.8479 4.74005C10.8628 4.78611 10.9017 4.87154 11.0557 5.05291C11.2163 5.24208 11.4456 5.47234 11.8015 5.8282L12.1718 6.19853C12.5277 6.55439 12.7579 6.78369 12.9471 6.94428C13.1285 7.09826 13.2139 7.13717 13.26 7.15214C13.4353 7.2091 13.6241 7.2091 13.7994 7.15214C13.8455 7.13717 13.9309 7.09826 14.1123 6.94428C14.3015 6.78369 14.5317 6.55439 14.8876 6.19853L15.2579 5.8282C15.6138 5.47234 15.8431 5.24208 16.0037 5.05291C16.1576 4.87154 16.1965 4.78611 16.2115 4.74005C16.2685 4.56473 16.2685 4.37589 16.2115 4.20058C16.1965 4.15451 16.1576 4.06909 16.0037 3.88771C15.8431 3.69854 15.6138 3.46829 15.2579 3.11242L14.8876 2.74209C14.5317 2.38623 14.3015 2.15694 14.1123 1.99634C13.9309 1.84237 13.8455 1.80346 13.7994 1.78849C13.6241 1.73152 13.4353 1.73152 13.26 1.78849C13.2139 1.80346 13.1285 1.84237 12.9471 1.99634C12.7579 2.15694 12.5277 2.38623 12.1718 2.74209L11.8015 3.11242C11.4456 3.46829 11.2163 3.69854 11.0557 3.88771ZM4.22348 10.144H3.63246C3.17233 10.144 2.77537 10.144 2.44841 10.1707C2.10332 10.1989 1.76009 10.2612 1.42981 10.4295C0.937079 10.6805 0.536476 11.0811 0.285418 11.5739C0.117131 11.9041 0.0548807 12.2474 0.0266857 12.5925C-2.71114e-05 12.9194 -1.423e-05 13.3164 7.02536e-07 13.7765V13.7765V14.3675V14.3676C-1.423e-05 14.8277 -2.71114e-05 15.2246 0.0266857 15.5516C0.0548807 15.8967 0.117131 16.2399 0.285418 16.5702C0.536476 17.0629 0.937079 17.4635 1.42981 17.7146C1.76009 17.8829 2.10332 17.9451 2.44841 17.9733C2.77538 18 3.17234 18 3.63248 18H4.22346C4.68361 18 5.08057 18 5.40753 17.9733C5.75262 17.9451 6.09586 17.8829 6.42614 17.7146C6.91887 17.4635 7.31947 17.0629 7.57053 16.5702C7.73882 16.2399 7.80107 15.8967 7.82926 15.5516C7.85597 15.2246 7.85596 14.8277 7.85594 14.3675V13.7765C7.85596 13.3164 7.85597 12.9194 7.82926 12.5925C7.80107 12.2474 7.73882 11.9041 7.57053 11.5739C7.31947 11.0811 6.91887 10.6805 6.42614 10.4295C6.09586 10.2612 5.75262 10.1989 5.40753 10.1707C5.08058 10.144 4.68362 10.144 4.22348 10.144ZM2.22237 11.985C2.26553 11.963 2.35344 11.9301 2.59057 11.9107C2.83789 11.8905 3.16285 11.8898 3.66611 11.8898H4.18984C4.6931 11.8898 5.01805 11.8905 5.26537 11.9107C5.5025 11.9301 5.59042 11.963 5.63358 11.985C5.79782 12.0686 5.93136 12.2022 6.01504 12.3664C6.03703 12.4096 6.06992 12.4975 6.08929 12.7346C6.1095 12.9819 6.11018 13.3069 6.11018 13.8102V14.3339C6.11018 14.8371 6.1095 15.1621 6.08929 15.4094C6.06992 15.6466 6.03703 15.7345 6.01504 15.7776C5.93136 15.9419 5.79782 16.0754 5.63358 16.1591C5.59042 16.1811 5.5025 16.214 5.26537 16.2333C5.01805 16.2535 4.6931 16.2542 4.18984 16.2542H3.66611C3.16285 16.2542 2.83789 16.2535 2.59057 16.2333C2.35344 16.214 2.26553 16.1811 2.22237 16.1591C2.05813 16.0754 1.92459 15.9419 1.84091 15.7776C1.81892 15.7345 1.78603 15.6466 1.76665 15.4094C1.74645 15.1621 1.74577 14.8371 1.74577 14.3339V13.8102C1.74577 13.3069 1.74645 12.9819 1.76665 12.7346C1.78603 12.4975 1.81892 12.4096 1.84091 12.3664C1.92459 12.2022 2.05813 12.0686 2.22237 11.985ZM13.8252 10.144H13.2342C12.774 10.144 12.3771 10.144 12.0501 10.1707C11.705 10.1989 11.3618 10.2612 11.0315 10.4295C10.5388 10.6805 10.1382 11.0811 9.88713 11.5739C9.71884 11.9041 9.65659 12.2474 9.62839 12.5925C9.60168 12.9194 9.60169 13.3164 9.60171 13.7765V14.3675C9.60169 14.8277 9.60168 15.2246 9.62839 15.5516C9.65659 15.8967 9.71884 16.2399 9.88713 16.5702C10.1382 17.0629 10.5388 17.4635 11.0315 17.7146C11.3618 17.8829 11.705 17.9451 12.0501 17.9733C12.3771 18 12.774 18 13.2342 18H13.8252C14.2853 18 14.6823 18 15.0092 17.9733C15.3543 17.9451 15.6976 17.8829 16.0278 17.7146C16.5206 17.4635 16.9212 17.0629 17.1722 16.5702C17.3405 16.2399 17.4028 15.8967 17.431 15.5516C17.4577 15.2247 17.4577 14.8277 17.4577 14.3677V14.3676V14.3676V14.3675V13.7765V13.7764V13.7764V13.7764C17.4577 13.3163 17.4577 12.9194 17.431 12.5925C17.4028 12.2474 17.3405 11.9041 17.1722 11.5739C16.9212 11.0811 16.5206 10.6805 16.0278 10.4295C15.6976 10.2612 15.3543 10.1989 15.0092 10.1707C14.6823 10.144 14.2853 10.144 13.8252 10.144ZM11.8241 11.985C11.8672 11.963 11.9552 11.9301 12.1923 11.9107C12.4396 11.8905 12.7646 11.8898 13.2678 11.8898H13.7915C14.2948 11.8898 14.6198 11.8905 14.8671 11.9107C15.1042 11.9301 15.1921 11.963 15.2353 11.985C15.3995 12.0686 15.5331 12.2022 15.6167 12.3664C15.6387 12.4096 15.6716 12.4975 15.691 12.7346C15.7112 12.9819 15.7119 13.3069 15.7119 13.8102V14.3339C15.7119 14.8371 15.7112 15.1621 15.691 15.4094C15.6716 15.6466 15.6387 15.7345 15.6167 15.7776C15.5331 15.9419 15.3995 16.0754 15.2353 16.1591C15.1921 16.1811 15.1042 16.214 14.8671 16.2333C14.6198 16.2535 14.2948 16.2542 13.7915 16.2542H13.2678C12.7646 16.2542 12.4396 16.2535 12.1923 16.2333C11.9552 16.214 11.8672 16.1811 11.8241 16.1591C11.6598 16.0754 11.5263 15.9419 11.4426 15.7776C11.4206 15.7345 11.3877 15.6466 11.3684 15.4094C11.3482 15.1621 11.3475 14.8371 11.3475 14.3339V13.8102C11.3475 13.3069 11.3482 12.9819 11.3684 12.7346C11.3877 12.4975 11.4206 12.4096 11.4426 12.3664C11.5263 12.2022 11.6598 12.0686 11.8241 11.985ZM4.22348 0.54234H3.63246H3.63246C3.17232 0.542325 2.77537 0.542311 2.44841 0.569025C2.10332 0.59722 1.76009 0.65947 1.42981 0.827757C0.937079 1.07882 0.536476 1.47942 0.285418 1.97215C0.117131 2.30243 0.0548807 2.64566 0.0266857 2.99075C-2.71114e-05 3.3177 -1.423e-05 3.71465 7.02536e-07 4.17477V4.1748V4.76582V4.76586C-1.423e-05 5.22598 -2.71114e-05 5.62292 0.0266857 5.94987C0.0548807 6.29496 0.117131 6.6382 0.285418 6.96848C0.536476 7.46121 0.937079 7.86181 1.42981 8.11287C1.76009 8.28116 2.10332 8.34341 2.44841 8.3716C2.77538 8.39831 3.17234 8.3983 3.63248 8.39828H4.22346C4.68361 8.3983 5.08057 8.39831 5.40753 8.3716C5.75262 8.34341 6.09586 8.28116 6.42614 8.11287C6.91887 7.86181 7.31947 7.46121 7.57053 6.96848C7.73882 6.6382 7.80107 6.29496 7.82926 5.94987C7.85597 5.62291 7.85596 5.22595 7.85594 4.7658V4.17482C7.85596 3.71468 7.85597 3.31771 7.82926 2.99075C7.80107 2.64566 7.73882 2.30243 7.57053 1.97215C7.31947 1.47942 6.91887 1.07882 6.42614 0.827757C6.09586 0.65947 5.75262 0.59722 5.40753 0.569025C5.08058 0.542311 4.68362 0.542325 4.22349 0.54234H4.22348ZM2.22237 2.38324C2.26553 2.36125 2.35344 2.32837 2.59057 2.30899C2.83789 2.28879 3.16285 2.28811 3.66611 2.28811H4.18984C4.6931 2.28811 5.01805 2.28879 5.26537 2.30899C5.5025 2.32837 5.59042 2.36125 5.63358 2.38324C5.79782 2.46693 5.93136 2.60047 6.01504 2.76471C6.03703 2.80787 6.06992 2.89578 6.08929 3.13291C6.1095 3.38023 6.11018 3.70518 6.11018 4.20845V4.73218C6.11018 5.23544 6.1095 5.56039 6.08929 5.80771C6.06992 6.04484 6.03703 6.13276 6.01504 6.17592C5.93136 6.34016 5.79782 6.47369 5.63358 6.55738C5.59042 6.57937 5.5025 6.61226 5.26537 6.63163C5.01805 6.65184 4.6931 6.65252 4.18984 6.65252H3.66611C3.16285 6.65252 2.83789 6.65184 2.59057 6.63163C2.35344 6.61226 2.26553 6.57937 2.22237 6.55738C2.05813 6.47369 1.92459 6.34016 1.84091 6.17592C1.81892 6.13276 1.78603 6.04484 1.76665 5.80771C1.74645 5.56039 1.74577 5.23544 1.74577 4.73218V4.20845C1.74577 3.70518 1.74645 3.38023 1.76665 3.13291C1.78603 2.89578 1.81892 2.80787 1.84091 2.76471C1.92459 2.60047 2.05813 2.46693 2.22237 2.38324Z" fill="black" fill-opacity="0.41"/>
</svg>
