<svg width="120" height="120" viewBox="0 0 120 120" fill="none" xmlns="http://www.w3.org/2000/svg">
<g clip-path="url(#clip0_857_7394)">
<rect width="120" height="120" rx="60" fill="#E0E0E0"/>
<path d="M36 44C36 64 45.0362 78 60 78C74.9638 78 84 64 84 44C84 30.7701 74.5771 21 60 21C45.4229 21 36 30.7701 36 44Z" fill="#1A1A1A" fill-opacity="0.25"/>
<path d="M10 134C10 122.835 10 117.253 11.3779 112.711C14.4803 102.484 21.9403 96.1535 32.7109 91.3779C40.4063 87.9658 48.8355 87 60 87C71.1645 87 79.5937 87.9658 87.2891 91.3779C98.0597 96.1535 105.52 102.484 108.622 112.711C110 117.253 110 122.835 110 134H10Z" fill="#1A1A1A" fill-opacity="0.25"/>
</g>
<defs>
<clipPath id="clip0_857_7394">
<rect width="120" height="120" rx="60" fill="white"/>
</clipPath>
</defs>
</svg>
