<svg width="407" height="152" viewBox="0 0 407 152" fill="none" xmlns="http://www.w3.org/2000/svg">
<rect width="407" height="152" rx="10" fill="#242424"/>
<mask id="mask0_1467_135" style="mask-type:alpha" maskUnits="userSpaceOnUse" x="0" y="0" width="407" height="152">
<rect width="407" height="152" rx="10" fill="#242424"/>
</mask>
<g mask="url(#mask0_1467_135)">
<path d="M286 49C286 42.5652 287.267 36.1935 289.73 30.2485C292.192 24.3036 295.802 18.9018 300.352 14.3518C304.902 9.8017 310.304 6.19238 316.249 3.7299C322.193 1.26743 328.565 0 335 0L335 49L286 49Z" fill="white" fill-opacity="0.12"/>
<path d="M384.5 151C378 151 371.563 149.655 365.557 147.042C359.552 144.428 354.095 140.598 349.498 135.77C344.902 130.941 341.256 125.208 338.768 118.9C336.28 112.591 335 105.829 335 99L384.5 99V151Z" fill="#2E2544"/>
<path d="M286 151C286 144.171 287.28 137.409 289.768 131.1C292.256 124.792 295.902 119.059 300.498 114.23C305.095 109.402 310.552 105.572 316.557 102.958C322.563 100.345 329 99 335.5 99L335.5 151H286Z" fill="#4C3F1B"/>
<path d="M384 98.5C384 91.9996 382.733 85.5628 380.27 79.5572C377.808 73.5516 374.198 68.0947 369.648 63.4982C365.098 58.9017 359.696 55.2556 353.751 52.768C347.807 50.2804 341.435 49 335 49L335 98.5H384Z" fill="#2E2E47"/>
<path d="M286 49C286 55.4348 287.267 61.8065 289.73 67.7515C292.192 73.6964 295.802 79.0982 300.352 83.6482C304.902 88.1983 310.304 91.8076 316.249 94.2701C322.193 96.7326 328.565 98 335 98L335 49L286 49Z" fill="#626262"/>
</g>
</svg>
