<svg width="32" height="58" viewBox="0 0 32 58" fill="none" xmlns="http://www.w3.org/2000/svg">
<path fill-rule="evenodd" clip-rule="evenodd" d="M8.46863 11.6688C9.09347 11.044 10.1065 11.044 10.7314 11.6688L16 16.9375L21.2686 11.6688C21.8935 11.044 22.9065 11.044 23.5314 11.6688C24.1562 12.2937 24.1562 13.3067 23.5314 13.9316L17.1314 20.3316C16.5065 20.9564 15.4935 20.9564 14.8686 20.3316L8.46863 13.9316C7.84379 13.3067 7.84379 12.2937 8.46863 11.6688Z" fill="#EC5C29"/>
<path fill-rule="evenodd" clip-rule="evenodd" d="M8.46863 24.4696C9.09347 23.8448 10.1065 23.8448 10.7314 24.4696L16 29.7382L21.2686 24.4696C21.8935 23.8448 22.9065 23.8448 23.5314 24.4696C24.1562 25.0944 24.1562 26.1075 23.5314 26.7323L17.1314 33.1323C16.5065 33.7572 15.4935 33.7572 14.8686 33.1323L8.46863 26.7323C7.84379 26.1075 7.84379 25.0944 8.46863 24.4696Z" fill="#EC5C29"/>
<path fill-rule="evenodd" clip-rule="evenodd" d="M8.46863 37.2684C9.09347 36.6436 10.1065 36.6436 10.7314 37.2684L16 42.5371L21.2686 37.2684C21.8935 36.6436 22.9065 36.6436 23.5314 37.2684C24.1562 37.8933 24.1562 38.9063 23.5314 39.5312L17.1314 45.9312C16.5065 46.556 15.4935 46.556 14.8686 45.9312L8.46863 39.5312C7.84379 38.9063 7.84379 37.8933 8.46863 37.2684Z" fill="#EC5C29"/>
</svg>
