<svg width="209" height="16" viewBox="0 0 209 16" fill="none" xmlns="http://www.w3.org/2000/svg">
<path id="Line 78" d="M208.207 8.70711C208.598 8.31658 208.598 7.68342 208.207 7.29289L201.843 0.928932C201.453 0.538408 200.819 0.538408 200.429 0.928932C200.038 1.31946 200.038 1.95262 200.429 2.34315L206.086 8L200.429 13.6569C200.038 14.0474 200.038 14.6805 200.429 15.0711C200.819 15.4616 201.453 15.4616 201.843 15.0711L208.207 8.70711ZM0.5 9H4.48077V7H0.5V9ZM12.4423 9H20.4038V7H12.4423V9ZM28.3654 9H36.3269V7H28.3654V9ZM44.2885 9H52.25V7H44.2885V9ZM60.2115 9H68.1731V7H60.2115V9ZM76.1346 9H84.0962V7H76.1346V9ZM92.0577 9H100.019V7H92.0577V9ZM107.981 9H115.942V7H107.981V9ZM123.904 9H131.865V7H123.904V9ZM139.827 9H147.788V7H139.827V9ZM155.75 9H163.712V7H155.75V9ZM171.673 9H179.635V7H171.673V9ZM187.596 9H195.558V7H187.596V9ZM203.519 9H207.5V7H203.519V9Z" fill="#828282"/>
</svg>
