<svg width="26" height="24" viewBox="0 0 26 24" fill="none" xmlns="http://www.w3.org/2000/svg">
<path d="M22.1 20.7999H3.9V22.0999C3.9 22.8179 3.31796 23.3999 2.6 23.3999H1.3C0.582036 23.3999 0 22.8179 0 22.0999V9.09988L3.22465 1.57569C3.63436 0.619705 4.57436 -0.00012207 5.61443 -0.00012207H20.3856C21.4257 -0.00012207 22.3656 0.619705 22.7754 1.57569L26 9.09988V22.0999C26 22.8179 25.418 23.3999 24.7 23.3999H23.4C22.682 23.3999 22.1 22.8179 22.1 22.0999V20.7999ZM23.4 11.6999H2.6V18.1999H23.4V11.6999ZM2.82872 9.09988H23.1713L20.3856 2.59988H5.61443L2.82872 9.09988ZM5.85 16.8999C4.77304 16.8999 3.9 16.0268 3.9 14.9499C3.9 13.873 4.77304 12.9999 5.85 12.9999C6.92696 12.9999 7.8 13.873 7.8 14.9499C7.8 16.0268 6.92696 16.8999 5.85 16.8999ZM20.15 16.8999C19.0731 16.8999 18.2 16.0268 18.2 14.9499C18.2 13.873 19.0731 12.9999 20.15 12.9999C21.2269 12.9999 22.1 13.873 22.1 14.9499C22.1 16.0268 21.2269 16.8999 20.15 16.8999Z" fill="#CED5E5"/>
</svg>
