<svg width="41" height="27" viewBox="0 0 41 27" fill="none" xmlns="http://www.w3.org/2000/svg">
<g clip-path="url(#clip0_163_457)">
<path d="M36.4878 0.43457H4.32474C2.4044 0.43457 0.847656 1.99131 0.847656 3.91165V22.1663C0.847656 24.0867 2.4044 25.6434 4.32474 25.6434H36.4878C38.4081 25.6434 39.9648 24.0867 39.9648 22.1663V3.91165C39.9648 1.99131 38.4081 0.43457 36.4878 0.43457Z" fill="white" stroke="#D3D3D4" stroke-width="0.869271"/>
<path fill-rule="evenodd" clip-rule="evenodd" d="M37.7917 15.7815H35.9923C35.8132 15.7815 35.6942 15.7876 35.5933 15.8554C35.489 15.9224 35.449 16.0206 35.449 16.151C35.449 16.3075 35.5368 16.4118 35.6646 16.4578C35.7689 16.4943 35.8811 16.5048 36.0453 16.5048L36.5799 16.5187C37.1198 16.5326 37.4805 16.6247 37.7004 16.8508C37.7404 16.882 37.7639 16.9168 37.7917 16.9525V15.7815ZM37.7917 18.4945C37.5518 18.844 37.085 19.0213 36.453 19.0213H34.5458V18.1381H36.4443C36.633 18.1381 36.7642 18.1138 36.8442 18.0364C36.8813 18.0023 36.9108 17.9607 36.9308 17.9144C36.9509 17.8682 36.9611 17.8182 36.9607 17.7678C36.9627 17.7163 36.9529 17.6649 36.9319 17.6177C36.911 17.5706 36.8795 17.5288 36.8399 17.4958C36.7686 17.4332 36.6643 17.4045 36.4921 17.4045C35.5655 17.3732 34.4094 17.4332 34.4094 16.131C34.4094 15.5338 34.7901 14.9053 35.8263 14.9053H37.7908V14.0865H35.9654C35.4134 14.0865 35.0135 14.2177 34.7293 14.4229V14.0865H32.0284C31.5964 14.0865 31.0896 14.1934 30.8497 14.4229V14.0865H26.0253V14.4229C25.6402 14.1464 24.9926 14.0865 24.6935 14.0865H21.5103V14.4229C21.206 14.1299 20.5306 14.0865 20.1194 14.0865H16.5572L15.7418 14.9653L14.9786 14.0873H9.65863V19.8297H14.8786L15.7183 18.9361L16.5093 19.8297L19.7274 19.8323V18.4806H20.0438C20.4706 18.4867 20.9739 18.4702 21.419 18.2781V19.828H24.0729V18.3329H24.2007C24.3641 18.3329 24.3806 18.3389 24.3806 18.5015V19.8289H32.4431C32.956 19.8289 33.4906 19.6985 33.787 19.4612V19.8289H36.3444C36.8764 19.8289 37.3962 19.755 37.7917 19.5646V18.4945ZM33.8539 16.8508C34.0469 17.0489 34.1495 17.2984 34.1495 17.7226C34.1495 18.6075 33.5949 19.0213 32.5987 19.0213H30.6767V18.1381H32.5917C32.7786 18.1381 32.9116 18.1138 32.9942 18.0364C33.0313 18.0022 33.0608 17.9607 33.081 17.9144C33.1012 17.8682 33.1116 17.8183 33.1116 17.7678C33.1125 17.7164 33.1021 17.6654 33.0812 17.6184C33.0604 17.5714 33.0295 17.5296 32.9907 17.4958C32.9151 17.4332 32.8108 17.4045 32.6395 17.4045C31.7164 17.3732 30.5602 17.4332 30.5602 16.131C30.5602 15.5338 30.9366 14.9053 31.9711 14.9053H33.9504V15.7815H32.1397C31.9598 15.7815 31.8433 15.7885 31.7442 15.8554C31.6355 15.9224 31.5964 16.0206 31.5964 16.1519C31.5964 16.3075 31.6877 16.4126 31.812 16.4587C31.9163 16.4943 32.0276 16.5048 32.1962 16.5048L32.7265 16.5196C33.2628 16.5326 33.6305 16.6247 33.8548 16.8499L33.8539 16.8508ZM24.9482 16.5961C24.8161 16.6743 24.6527 16.6812 24.4606 16.6812H23.261V15.7563H24.4771C24.6527 15.7563 24.8283 15.7607 24.9482 15.8311C25.076 15.8972 25.1525 16.0249 25.1525 16.2014C25.1562 16.2793 25.1393 16.3569 25.1034 16.4262C25.0675 16.4955 25.014 16.5541 24.9482 16.5961ZM25.5437 17.1089C25.7636 17.1889 25.9435 17.3341 26.0279 17.454C26.1669 17.6548 26.1869 17.8426 26.1913 18.2051V19.0213H25.2003V18.5058C25.2003 18.2581 25.2238 17.8921 25.0404 17.7009C24.8961 17.5531 24.6761 17.5184 24.3163 17.5184H23.2618V19.0213H22.27V14.9053H24.5484C25.0482 14.9053 25.4124 14.9271 25.7367 15.0992C26.0479 15.2869 26.2434 15.5442 26.2434 16.0136C26.2434 16.6708 25.8036 17.0055 25.5437 17.1089ZM26.7911 14.9053H30.0856V15.7572H27.7734V16.5048H30.0291V17.3445H27.7742V18.1634L30.0856 18.1668V19.0213H26.7911V14.9053ZM20.1316 16.8047H18.8564V15.7563H20.1429C20.4993 15.7563 20.747 15.9015 20.747 16.2605C20.747 16.6169 20.5106 16.8047 20.1316 16.8047ZM17.8732 18.6467L16.3572 16.9698L17.8732 15.3469V18.6467ZM13.9589 18.1634H11.5328V17.3445H13.6999V16.5048H11.5328V15.7572H14.0076L15.0864 16.9559L13.9589 18.1634ZM21.8067 16.2614C21.8067 17.4045 20.9505 17.6409 20.0873 17.6409H18.8564V19.0213H16.9379L15.7218 17.6583L14.4587 19.0213H10.5496V14.9053H14.5196L15.734 16.2544L16.9892 14.9053H20.1429C20.9261 14.9053 21.8067 15.1218 21.8067 16.2614ZM6.18676 10.1113L5.51047 8.47011L4.83939 10.1113H6.18676ZM21.0687 9.4576C20.9339 9.54018 20.7731 9.54279 20.5819 9.54279H19.3823V8.62832H20.5975C20.7696 8.62832 20.9487 8.63527 21.0652 8.7022C21.1938 8.76218 21.273 8.88997 21.273 9.06643C21.273 9.24637 21.1973 9.39067 21.0695 9.4576H21.0687ZM29.624 10.1113L28.9408 8.47011L28.261 10.1113H29.624ZM13.6781 11.8881H12.6663L12.6628 8.66309L11.2311 11.8881H10.3645L8.93018 8.66048V11.8881H6.92216L6.54316 10.9693H4.48733L4.10485 11.8881H3.03217L4.80027 7.77035H6.26673L7.94529 11.669V7.77035H9.55605L10.8478 10.5633L12.0352 7.77122H13.6781V11.889H13.679L13.6781 11.8881ZM17.7116 11.8881H14.4135V7.77035H17.7116V8.62832H15.4019V9.36981H17.6568V10.2139H15.4019V11.0362H17.7116V11.8881ZM22.3604 8.87954C22.3604 9.53584 21.9206 9.87485 21.665 9.97656C21.8806 10.0591 22.0649 10.2034 22.1527 10.3243C22.2917 10.5285 22.3161 10.7111 22.3161 11.0788V11.8872H21.3208L21.3173 11.3691C21.3173 11.1214 21.3408 10.765 21.1608 10.5668C21.0174 10.4216 20.7975 10.3903 20.4419 10.3903H19.3814V11.8881H18.3957V7.77035H20.6653C21.1695 7.77035 21.5416 7.78426 21.8606 7.96767C22.1735 8.15196 22.3604 8.41969 22.3604 8.87954ZM23.9399 11.8872H22.9324V7.77122H23.9399V11.889V11.8872ZM35.6237 11.8872H34.2251L32.3544 8.79783V11.8881H30.3438L29.9604 10.9693H27.909L27.5369 11.8881H26.3817C25.9018 11.8881 25.2951 11.782 24.9508 11.4326C24.6031 11.0831 24.4232 10.6094 24.4232 9.86094C24.4232 9.24985 24.531 8.69177 24.9552 8.25105C25.2742 7.92247 25.774 7.77035 26.4547 7.77035H27.41V8.65266H26.4747C26.1139 8.65266 25.9105 8.70655 25.7149 8.89605C25.5463 9.06991 25.4315 9.39762 25.4315 9.82965C25.4315 10.2704 25.5185 10.5885 25.7028 10.7963C25.8549 10.9597 26.1304 11.0084 26.3904 11.0084H26.8337L28.2245 7.77035H29.704L31.3747 11.6647V7.77122H32.8786L34.6128 10.6398V7.77122H35.6237V11.889V11.8872ZM3.02087 12.6974H4.70726L5.088 11.7829H5.93989L6.31802 12.6974H9.63689V11.9985L9.93245 12.7009H11.6553L11.9509 11.988V12.6974H20.1977L20.1942 11.1961H20.3541C20.4654 11.2005 20.4984 11.2109 20.4984 11.3943V12.6982H24.7631V12.3479C25.1073 12.5322 25.6428 12.6974 26.3469 12.6974H28.1411L28.5244 11.7829H29.3763L29.7518 12.6974H33.2098V11.8281L33.7331 12.6974H36.5043V6.9541H33.7618V7.63213L33.3776 6.9541H30.5637V7.63213L30.2117 6.9541H26.4103C25.774 6.9541 25.2151 7.04277 24.7631 7.28964V6.9541H22.1405V7.28964C21.8536 7.03494 21.4616 6.9541 21.0252 6.9541H11.4441L10.8008 8.43708L10.1402 6.9541H7.12296V7.63213L6.79003 6.9541H4.21699L3.02087 9.68448V12.6965V12.6974Z" fill="#0072CE"/>
</g>
<defs>
<clipPath id="clip0_163_457">
<rect width="39.9865" height="26.0781" fill="white" transform="translate(0.412964)"/>
</clipPath>
</defs>
</svg>
