<svg width="41" height="27" viewBox="0 0 41 27" fill="none" xmlns="http://www.w3.org/2000/svg">
<g clip-path="url(#clip0_163_463)">
<path d="M36.9565 0.43457H4.79349C2.87315 0.43457 1.31641 1.99131 1.31641 3.91165V22.1663C1.31641 24.0867 2.87315 25.6434 4.79349 25.6434H36.9565C38.8769 25.6434 40.4336 24.0867 40.4336 22.1663V3.91165C40.4336 1.99131 38.8769 0.43457 36.9565 0.43457Z" fill="white" stroke="#D3D3D4" stroke-width="0.869271"/>
<path d="M10.2351 8.45895C9.84913 8.91619 9.23108 9.27607 8.61389 9.22391C8.53653 8.60673 8.8399 7.9513 9.19283 7.54622C9.57878 7.07681 10.2533 6.74214 10.801 6.71606C10.8644 7.35932 10.6141 7.98955 10.2342 8.45895M10.794 9.34648C9.90041 9.29519 9.13459 9.855 8.71038 9.855C8.27922 9.855 7.62988 9.37256 6.92316 9.3856C6.00347 9.39776 5.14811 9.91933 4.6787 10.7486C3.71381 12.408 4.42749 14.8646 5.36021 16.2146C5.81658 16.8839 6.36335 17.6167 7.08311 17.5906C7.76549 17.5646 8.03496 17.1473 8.85816 17.1473C9.68831 17.1473 9.92562 17.5906 10.6462 17.5785C11.3921 17.5654 11.8615 16.9091 12.3179 16.2398C12.8394 15.4818 13.0515 14.742 13.0646 14.7038C13.0515 14.6908 11.6233 14.144 11.6111 12.4976C11.5981 11.1215 12.736 10.4652 12.7873 10.427C12.144 9.47513 11.1417 9.37256 10.794 9.34648ZM15.9575 7.48189V17.5072H17.5135V14.0797H19.6693C21.6364 14.0797 23.0186 12.7297 23.0186 10.7747C23.0186 8.81883 21.6625 7.48189 19.7197 7.48189H15.9584H15.9575ZM17.5135 8.79362H19.3085C20.6585 8.79362 21.4304 9.51425 21.4304 10.7808C21.4304 12.0473 20.6585 12.774 19.3024 12.774H17.5144V8.79362H17.5135ZM25.8611 17.5846C26.839 17.5846 27.7457 17.0891 28.1568 16.305H28.189V17.5072H29.6303V12.5176C29.6303 11.0702 28.4724 10.1375 26.6912 10.1375C25.0379 10.1375 23.8166 11.0833 23.7714 12.382H25.1735C25.2891 11.7648 25.8611 11.3597 26.646 11.3597C27.5979 11.3597 28.1316 11.803 28.1316 12.6202V13.173L26.1897 13.2886C24.3816 13.3981 23.4045 14.1379 23.4045 15.4236C23.4045 16.7231 24.4146 17.5846 25.8611 17.5846ZM26.2792 16.3945C25.4499 16.3945 24.9232 15.9964 24.9232 15.3853C24.9232 14.7551 25.4308 14.3882 26.4009 14.3309L28.1308 14.2213V14.7864C28.1308 15.7261 27.3345 16.3945 26.2792 16.3945ZM31.5531 20.2341C33.07 20.2341 33.7845 19.6552 34.4078 17.8992L37.1408 10.234H35.5587L33.7263 16.1572H33.6941L31.8617 10.234H30.2344L32.8709 17.5333L32.7292 17.9766C32.4919 18.7294 32.1059 19.0189 31.4175 19.0189C31.2958 19.0189 31.0576 19.0058 30.9611 18.9928V20.1958C31.0506 20.2219 31.4366 20.2341 31.5522 20.2341H31.5531Z" fill="black"/>
</g>
<defs>
<clipPath id="clip0_163_463">
<rect width="39.9865" height="26.0781" fill="white" transform="translate(0.881714)"/>
</clipPath>
</defs>
</svg>
