<svg width="40" height="27" viewBox="0 0 40 27" fill="none" xmlns="http://www.w3.org/2000/svg">
<g clip-path="url(#clip0_163_467)">
<path d="M36.0815 0.43457H3.91849C1.99815 0.43457 0.441406 1.99131 0.441406 3.91165V22.1663C0.441406 24.0867 1.99815 25.6434 3.91849 25.6434H36.0815C38.0019 25.6434 39.5586 24.0867 39.5586 22.1663V3.91165C39.5586 1.99131 38.0019 0.43457 36.0815 0.43457Z" fill="white" stroke="#D3D3D4" stroke-width="0.869271"/>
<path d="M19.0586 13.7786V17.826H17.7747V7.83195H21.1805C21.5869 7.8236 21.9909 7.8958 22.3693 8.0444C22.7476 8.193 23.0928 8.41505 23.3849 8.69774C23.6801 8.96316 23.915 9.28867 24.074 9.65241C24.2329 10.0161 24.3121 10.4097 24.3064 10.8066C24.3237 11.615 23.9873 12.3887 23.3849 12.9276C22.7895 13.4961 22.0549 13.7795 21.1805 13.7795H19.0594L19.0586 13.7786ZM19.0586 9.06197V12.5512H21.2118C21.6899 12.5651 22.1506 12.3774 22.4826 12.034C22.6459 11.8752 22.7756 11.6853 22.8642 11.4756C22.9528 11.2658 22.9985 11.0404 22.9985 10.8127C22.9985 10.585 22.9528 10.3596 22.8642 10.1498C22.7756 9.94001 22.6459 9.75013 22.4826 9.59135C22.3205 9.41796 22.1233 9.28101 21.9042 9.18959C21.6851 9.09817 21.4491 9.05438 21.2118 9.0611H19.0586V9.06197ZM27.2645 10.764C28.2146 10.764 28.963 11.0178 29.5124 11.5255C30.0618 12.0323 30.3365 12.7277 30.3356 13.6117V17.826H29.1073V16.8776H29.0517C28.5197 17.6591 27.813 18.0494 26.9307 18.0494C26.177 18.0494 25.5468 17.826 25.0392 17.38C24.7957 17.175 24.6011 16.9182 24.4695 16.6285C24.3379 16.3387 24.2727 16.0231 24.2785 15.7049C24.2785 14.9973 24.5463 14.4349 25.0809 14.0168C25.6155 13.5987 26.33 13.3892 27.2228 13.3883C27.9851 13.3883 28.6136 13.5274 29.1065 13.8064V13.5135C29.1079 13.2967 29.061 13.0822 28.9693 12.8857C28.8776 12.6892 28.7433 12.5156 28.5762 12.3774C28.2372 12.0705 27.7939 11.9036 27.3366 11.9088C26.6195 11.9088 26.0519 12.2113 25.6346 12.8163L24.5037 12.1035C25.1252 11.2108 26.0458 10.7649 27.2654 10.7649L27.2645 10.764ZM25.6042 15.7328C25.6024 16.0639 25.7606 16.376 26.0301 16.5699C26.3135 16.7933 26.6664 16.9115 27.0272 16.9054C27.5692 16.9046 28.0887 16.6889 28.4719 16.3056C28.8978 15.9057 29.1099 15.4355 29.1099 14.8965C28.7101 14.5775 28.1511 14.4184 27.4349 14.4184C26.9133 14.4184 26.4787 14.5436 26.131 14.7948C25.7789 15.0504 25.6042 15.3598 25.6042 15.7336V15.7328ZM37.3854 10.9874L33.0982 20.8406H31.7725L33.3633 17.3931L30.5442 10.9874H31.9403L33.9779 15.9005H34.0057L35.9876 10.9874H37.3854Z" fill="#5F6368"/>
<path d="M13.8709 12.9069C13.8709 12.5158 13.8378 12.1246 13.7718 11.7395H8.3562V13.9509H11.4578C11.3943 14.3041 11.26 14.6407 11.0629 14.9405C10.8659 15.2403 10.6102 15.4972 10.3112 15.6956V17.1307H12.1627C13.2459 16.1311 13.8709 14.6533 13.8709 12.9061V12.9069Z" fill="#4285F4"/>
<path d="M8.357 18.5179C9.90604 18.5179 11.2108 18.0085 12.1618 17.1314L10.3111 15.6963C9.79564 16.0457 9.13239 16.2448 8.357 16.2448C6.85925 16.2448 5.5875 15.2355 5.13287 13.8743H3.22656V15.3538C3.70446 16.3048 4.43729 17.1044 5.34324 17.6631C6.24919 18.2219 7.29261 18.5178 8.357 18.5179Z" fill="#34A853"/>
<path d="M5.13289 13.8743C4.89267 13.1615 4.89267 12.3896 5.13289 11.6768V10.1973H3.22658C2.82459 10.9973 2.61523 11.8802 2.61523 12.7755C2.61523 13.6708 2.82459 14.5538 3.22658 15.3538L5.13289 13.8743Z" fill="#FBBC04"/>
<path d="M8.357 9.30635C9.1756 9.29321 9.96651 9.60264 10.5589 10.1678L12.1983 8.52922C11.1589 7.55307 9.78194 7.01724 8.35613 7.03408C7.29188 7.03435 6.24865 7.33037 5.34287 7.8891C4.43709 8.44783 3.70439 9.24728 3.22656 10.1982L5.13287 11.6769C5.5875 10.3164 6.85925 9.30635 8.357 9.30635Z" fill="#EA4335"/>
</g>
<defs>
<clipPath id="clip0_163_467">
<rect width="39.9865" height="26.0781" fill="white" transform="translate(0.00671387)"/>
</clipPath>
</defs>
</svg>
