<svg width="41" height="27" viewBox="0 0 41 27" fill="none" xmlns="http://www.w3.org/2000/svg">
<g clip-path="url(#clip0_163_441)">
<mask id="mask0_163_441" style="mask-type:luminance" maskUnits="userSpaceOnUse" x="0" y="-1" width="42" height="28">
<path d="M37.4536 0H4.4213C2.50096 0 0.944214 1.55674 0.944214 3.47708V22.601C0.944214 24.5214 2.50096 26.0781 4.4213 26.0781H37.4536C39.3739 26.0781 40.9307 24.5214 40.9307 22.601V3.47708C40.9307 1.55674 39.3739 0 37.4536 0Z" fill="white" stroke="#DADBD2" stroke-width="1.73854"/>
</mask>
<g mask="url(#mask0_163_441)">
<path d="M37.4536 0H4.4213C2.50096 0 0.944214 1.55674 0.944214 3.47708V22.601C0.944214 24.5214 2.50096 26.0781 4.4213 26.0781H37.4536C39.3739 26.0781 40.9307 24.5214 40.9307 22.601V3.47708C40.9307 1.55674 39.3739 0 37.4536 0Z" fill="white" stroke="#DADBD2" stroke-width="1.73854"/>
</g>
<path fill-rule="evenodd" clip-rule="evenodd" d="M33.5919 10.6873V10.8725C33.5773 10.9288 33.5889 10.9862 33.5852 11.0428V11.2104C33.5878 11.6757 33.5142 12.132 33.4146 12.5846C33.3116 13.0528 33.1655 13.5083 32.9795 13.9505C32.7961 14.3884 32.5753 14.8073 32.318 15.2078C32.0946 15.5555 31.8469 15.8849 31.5739 16.1953C31.1376 16.6907 30.6482 17.128 30.1066 17.5079C29.7041 17.7904 29.2773 18.0312 28.8314 18.2389C28.2351 18.5162 27.6127 18.7127 26.9668 18.8396C26.6608 18.8996 26.3514 18.9352 26.0402 18.9639C25.7142 18.9934 25.3865 18.9987 25.0596 18.9847C24.339 18.9552 23.6314 18.8352 22.9412 18.6205C22.158 18.3771 21.4295 18.0225 20.7506 17.5652C20.6203 17.4774 20.4933 17.3853 20.3708 17.2879C20.3525 17.2723 20.3317 17.2592 20.3204 17.2358C20.3108 17.1923 20.343 17.1715 20.3708 17.1497C20.5985 16.9706 20.815 16.7785 21.0184 16.5734C21.5756 16.0127 22.0519 15.3912 22.4309 14.6966C22.8673 13.8969 23.1637 13.0494 23.3159 12.1532C23.3706 11.8289 23.4045 11.5029 23.4202 11.1744C23.4271 11.0196 23.4303 10.8658 23.4297 10.7119C23.4274 10.3199 23.3936 9.92956 23.3341 9.54099C23.2437 8.95015 23.0885 8.37669 22.8708 7.8201C22.6329 7.21161 22.3205 6.64223 21.9461 6.1065C21.6132 5.63014 21.2255 5.20246 20.8048 4.80347C20.6668 4.67308 20.5197 4.55225 20.3728 4.43229C20.3476 4.41212 20.3154 4.39647 20.3102 4.35883C20.3189 4.32841 20.3441 4.31363 20.3667 4.29625C21.2368 3.63212 22.1991 3.15402 23.2579 2.87064C23.7229 2.74634 24.1958 2.65941 24.6754 2.62377C25.0276 2.59769 25.3821 2.6003 25.7359 2.61073C25.9237 2.61682 26.1114 2.62342 26.2983 2.64289C26.7749 2.69383 27.2428 2.78719 27.7026 2.92193C28.8055 3.24443 29.7976 3.77468 30.677 4.51096C31.4507 5.15856 32.0861 5.92265 32.579 6.80235C33.0695 7.67823 33.3848 8.61391 33.5326 9.60593C33.5691 9.85454 33.5899 10.104 33.5899 10.3561V10.5239C33.5943 10.5769 33.5816 10.6308 33.5969 10.683" fill="#0096E0"/>
<path fill-rule="evenodd" clip-rule="evenodd" d="M7.02905 10.8593V10.7138C7.04018 10.6608 7.04018 10.608 7.02905 10.5551V10.5153C7.04331 10.4891 7.03236 10.4608 7.03583 10.4336V10.3601C7.0354 9.87678 7.1152 9.4039 7.22273 8.93536C7.37659 8.26602 7.61494 7.62624 7.93379 7.01775C8.23152 6.44838 8.59096 5.92073 9.01256 5.43481C9.21709 5.19923 9.43589 4.97757 9.66399 4.76634C10.0928 4.36821 10.5637 4.02485 11.069 3.72843C11.7314 3.33986 12.4346 3.0504 13.1784 2.85916C13.5774 2.75571 13.9824 2.68009 14.3927 2.64271C14.7943 2.6062 15.1968 2.61228 15.5993 2.61837C15.9192 2.62358 16.2347 2.65488 16.5494 2.7053C16.9327 2.76615 17.31 2.85307 17.6803 2.96782C18.1654 3.1182 18.6339 3.31118 19.0824 3.54849C19.4962 3.76668 19.8883 4.01876 20.2586 4.30389C20.2794 4.31953 20.3029 4.33431 20.3055 4.36473C20.3064 4.40037 20.2812 4.42037 20.2568 4.43949C19.9395 4.6881 19.6518 4.96844 19.3745 5.25921C19.1198 5.52608 18.8912 5.81555 18.6791 6.11762C18.2393 6.74262 17.8942 7.41544 17.6438 8.13694C17.4778 8.61556 17.3587 9.1053 17.2848 9.60574C17.2465 9.86687 17.2213 10.1299 17.2092 10.3942C17.2022 10.5506 17.1996 10.7071 17.1996 10.8631C17.2005 11.3247 17.2457 11.782 17.3257 12.2366C17.4204 12.7752 17.5699 13.298 17.7733 13.8053C18.0219 14.4259 18.3401 15.0101 18.733 15.5525C18.9477 15.8481 19.1807 16.1271 19.4302 16.3931C19.6849 16.6652 19.9604 16.912 20.2464 17.1476C20.2733 17.1702 20.3064 17.1876 20.3107 17.2276C20.3064 17.2624 20.2803 17.2806 20.256 17.2989C19.8717 17.591 19.4658 17.85 19.0364 18.0717C18.6374 18.2785 18.2253 18.455 17.7968 18.5932C17.2735 18.7619 16.738 18.8775 16.1913 18.9421C15.7705 18.9917 15.3481 19.0076 14.9265 18.9908C14.205 18.9621 13.4974 18.8448 12.807 18.6301C12.3112 18.4753 11.8337 18.278 11.3756 18.0346C10.8697 17.766 10.3981 17.4479 9.95867 17.081C9.77873 16.9307 9.60488 16.7733 9.43884 16.6095C9.19519 16.3688 8.96822 16.1123 8.7569 15.8428C8.37529 15.3561 8.05366 14.8328 7.7894 14.2747C7.58686 13.847 7.42605 13.4037 7.30087 12.9473C7.19656 12.564 7.12093 12.1745 7.07226 11.7799C7.04965 11.596 7.04357 11.4113 7.04096 11.2264V11.0339C7.03748 10.9762 7.04879 10.9183 7.03401 10.8613" fill="#D31D00"/>
<path fill-rule="evenodd" clip-rule="evenodd" d="M20.305 4.36469C20.3083 4.36191 20.3116 4.36182 20.3151 4.36452C20.5959 4.59722 20.8688 4.8367 21.1235 5.09731C21.6494 5.63574 22.091 6.23519 22.4518 6.8941C22.7995 7.52762 23.055 8.19591 23.2228 8.89733C23.3019 9.22418 23.3575 9.55519 23.394 9.88969C23.4375 10.2756 23.4558 10.6625 23.4427 11.0493C23.4306 11.3944 23.3975 11.7378 23.3445 12.0785C23.2463 12.7079 23.075 13.3155 22.8316 13.9031C22.543 14.6011 22.1658 15.2479 21.6955 15.8416C21.5034 16.0841 21.3008 16.3162 21.0835 16.5361C20.8575 16.7656 20.6185 16.9821 20.3646 17.1803C20.3472 17.1942 20.3299 17.2081 20.322 17.2298C20.3177 17.2281 20.3125 17.2272 20.3081 17.2255C20.1777 17.1142 20.0439 17.0047 19.9161 16.8899C18.7278 15.8233 17.9133 14.5229 17.4778 12.9886C17.3483 12.5305 17.2639 12.0629 17.2179 11.5882C17.1683 11.0849 17.1631 10.5799 17.21 10.0766C17.3691 8.37194 17.9976 6.85854 19.099 5.5416C19.4441 5.12869 19.8292 4.75578 20.2499 4.41937C20.2706 4.40285 20.289 4.3846 20.309 4.36721" fill="#6B68BE"/>
<path fill-rule="evenodd" clip-rule="evenodd" d="M11.8503 21.1795C12.0308 20.9268 12.2689 20.8427 12.5524 20.8591C12.8349 20.8756 13.0535 21.0013 13.2096 21.2416C13.3374 21.0541 13.503 20.9289 13.7212 20.8821C13.9127 20.841 14.1042 20.8451 14.2911 20.9064C14.598 21.0072 14.8031 21.2759 14.8257 21.603C14.8412 21.8276 14.8314 22.0525 14.8327 22.2773C14.8344 22.5265 14.8321 22.7757 14.8342 23.0249C14.8342 23.0703 14.8229 23.0852 14.7751 23.0838C14.6534 23.0804 14.5317 23.0804 14.41 23.0838C14.3613 23.0854 14.3517 23.0686 14.3526 23.0242C14.3543 22.6539 14.3535 22.2834 14.3535 21.913C14.3526 21.7981 14.3474 21.6835 14.3056 21.5746C14.2474 21.4242 14.1387 21.3338 13.9779 21.3112C13.5928 21.2565 13.3451 21.4747 13.3399 21.878C13.3355 22.2379 13.339 22.5969 13.339 22.9559C13.339 23.0837 13.339 23.0837 13.213 23.0837C13.1156 23.0837 13.0174 23.0811 12.9209 23.0854C12.8696 23.088 12.8592 23.0715 12.8592 23.0228C12.8609 22.6499 12.86 22.2779 12.86 21.9049C12.86 21.8189 12.8566 21.7337 12.8348 21.6494C12.7783 21.4347 12.6558 21.3286 12.4358 21.3051C12.1255 21.2721 11.8873 21.4642 11.8595 21.7737C11.8395 21.9962 11.8534 22.2188 11.8508 22.4413C11.8482 22.6377 11.8491 22.8342 11.8508 23.0298C11.8508 23.0706 11.8439 23.088 11.7969 23.0863C11.6709 23.0828 11.5448 23.0837 11.4188 23.0863C11.3805 23.0872 11.3701 23.075 11.3701 23.0376C11.371 22.3457 11.371 21.6537 11.3701 20.9609C11.3701 20.9279 11.3766 20.914 11.4136 20.9148C11.544 20.9166 11.6745 20.9166 11.8051 20.9148C11.8369 20.9148 11.8473 20.9235 11.846 20.9557C11.8442 21.0252 11.8456 21.0948 11.8456 21.1835M21.4839 20.861C21.8334 20.8653 22.1046 20.9131 22.3558 21.0487C22.4079 21.0765 22.4166 21.1 22.3853 21.1513C22.3329 21.2373 22.2862 21.3277 22.2417 21.419C22.2217 21.4595 22.206 21.466 22.1634 21.4438C21.9357 21.3253 21.6931 21.2679 21.435 21.2891C21.3572 21.2955 21.2824 21.3149 21.2168 21.3595C21.1476 21.4064 21.1113 21.4728 21.1203 21.5568C21.129 21.6372 21.1872 21.6764 21.2576 21.7011C21.395 21.7492 21.5393 21.7567 21.681 21.7785C21.8348 21.8016 21.9848 21.8344 22.1265 21.9002C22.5872 22.1134 22.5507 22.6717 22.249 22.9137C22.0978 23.0348 21.9227 23.0971 21.7344 23.1226C21.3801 23.1704 21.0379 23.1308 20.7148 22.9696C20.6557 22.9401 20.574 22.9157 20.5531 22.8627C20.5314 22.8071 20.6061 22.7523 20.6365 22.6958C20.6656 22.6417 20.7026 22.5915 20.7309 22.5367C20.7509 22.4982 20.7665 22.4959 20.803 22.5202C21.0907 22.712 21.4069 22.7554 21.7416 22.6906C21.8094 22.6776 21.872 22.6502 21.9219 22.5998C22.017 22.5041 21.999 22.3711 21.8806 22.3068C21.7656 22.2442 21.6363 22.2343 21.5094 22.2162C21.346 22.1928 21.1808 22.1719 21.0269 22.1071C20.786 22.0059 20.6279 21.8423 20.6245 21.5656C20.621 21.2787 20.7601 21.0808 21.0156 20.9614C21.1851 20.8823 21.3666 20.8591 21.485 20.8619M23.3223 21.9163C23.3223 21.7446 23.3206 21.5725 23.3232 21.4009C23.3241 21.3565 23.3102 21.3452 23.2676 21.3463C23.1546 21.3489 23.0416 21.3454 22.9291 21.348C22.8926 21.348 22.8787 21.3402 22.8795 21.3011C22.8821 21.1883 22.8821 21.0759 22.8795 20.9638C22.8787 20.9247 22.8917 20.916 22.9282 20.9168C23.0386 20.9186 23.1499 20.9151 23.2603 20.9186C23.3081 20.9203 23.3242 20.9099 23.3233 20.8583C23.3198 20.6797 23.325 20.501 23.3207 20.3224C23.3191 20.2645 23.3375 20.2541 23.3904 20.2564C23.5008 20.2607 23.6118 20.2612 23.7222 20.2559C23.7839 20.2533 23.8048 20.2655 23.8028 20.3324C23.7967 20.5063 23.8031 20.681 23.7993 20.8549C23.7979 20.909 23.8158 20.9192 23.8656 20.9186C24.0821 20.916 24.2994 20.9186 24.5158 20.9163C24.5597 20.9163 24.5784 20.9229 24.5767 20.9727C24.5723 21.0804 24.5732 21.1882 24.5758 21.296C24.5776 21.3377 24.5645 21.3482 24.5245 21.3473C24.3055 21.3456 24.0859 21.349 23.8668 21.3454C23.8094 21.3445 23.7981 21.3619 23.799 21.4154C23.8016 21.717 23.7998 22.0195 23.8007 22.3212C23.8016 22.6167 23.9363 22.7282 24.2301 22.6802C24.3223 22.665 24.41 22.635 24.4918 22.5909C24.5248 22.5726 24.5378 22.5735 24.55 22.6135C24.5822 22.7187 24.6169 22.823 24.6561 22.9256C24.6717 22.9673 24.6569 22.9847 24.6239 23.0029C24.4153 23.1159 24.1927 23.1568 23.958 23.1359C23.9033 23.1307 23.8479 23.122 23.7946 23.1081C23.5225 23.036 23.3669 22.8412 23.3346 22.537C23.3311 22.5019 23.3242 22.4666 23.3242 22.4318C23.3233 22.2597 23.3237 22.0876 23.3237 21.9155H23.322L23.3223 21.9163ZM25.7528 21.1792C25.851 21.0371 25.9614 20.9387 26.111 20.8937C26.2839 20.8421 26.4561 20.8596 26.6273 20.9074C26.6542 20.9152 26.6664 20.9256 26.6551 20.9578C26.6134 21.0804 26.5725 21.2034 26.5343 21.3272C26.523 21.362 26.5065 21.3625 26.4769 21.3516C26.4039 21.3246 26.3274 21.3155 26.2492 21.3137C25.9628 21.3076 25.7919 21.458 25.7659 21.744C25.7606 21.8031 25.758 21.8628 25.758 21.9222C25.7572 22.2903 25.7572 22.6584 25.7589 23.0261C25.7589 23.0728 25.7519 23.0922 25.6989 23.0901C25.5798 23.0858 25.4599 23.0875 25.3408 23.0901C25.2999 23.091 25.2843 23.0827 25.2843 23.0371C25.286 22.3471 25.2856 21.6576 25.2847 20.9675C25.2847 20.9328 25.2895 20.9171 25.3303 20.918C25.4563 20.9206 25.5823 20.9206 25.7084 20.918C25.7492 20.9171 25.7553 20.9333 25.7536 20.9675C25.7519 21.0313 25.7536 21.0953 25.7536 21.1801M16.4002 22.6953C16.0143 22.6957 15.7406 22.411 15.7396 22.006C15.7379 21.5978 16.0111 21.3071 16.3976 21.3053C16.7784 21.3041 17.0548 21.5964 17.0557 21.9999C17.0558 22.4055 16.7838 22.6941 16.4002 22.6948M17.5042 22.3291C17.5042 21.8797 17.5033 21.4301 17.5051 20.9806C17.5051 20.9276 17.4894 20.9155 17.439 20.9163C17.3217 20.9207 17.2043 20.9207 17.0871 20.9163C17.0341 20.9146 17.0246 20.9328 17.028 20.9798C17.0324 21.0406 17.0289 21.102 17.0289 21.1776C16.8904 21.0238 16.7881 20.9514 16.6351 20.9064C16.3622 20.8273 16.0953 20.8505 15.8441 20.9812C15.479 21.1715 15.2956 21.4862 15.2573 21.8878C15.1982 22.5137 15.5911 23.07 16.224 23.1361C16.5259 23.1674 16.7942 23.0944 17.0022 22.8588C17.0074 22.8518 17.0118 22.8379 17.0292 22.8458C17.0292 22.9101 17.0309 22.9761 17.0283 23.0413C17.0265 23.0783 17.0379 23.09 17.0761 23.0895C17.1995 23.0869 17.3238 23.086 17.4473 23.0895C17.4951 23.0912 17.5055 23.0756 17.5055 23.0304C17.5038 22.7972 17.5046 22.5636 17.5046 22.3298M19.5874 21.8108H19.0711C18.9033 21.8108 18.7355 21.8097 18.5678 21.8117C18.5243 21.8125 18.5087 21.803 18.5191 21.7573C18.6199 21.3218 18.9615 21.2358 19.2562 21.3079C19.4544 21.3563 19.6144 21.5626 19.6344 21.7723C19.6382 21.8166 19.6145 21.8114 19.5877 21.8114M20.0955 21.6802C19.9999 21.2898 19.78 21.0013 19.3775 20.9015C18.9655 20.799 18.5799 20.8768 18.2953 21.2084C17.9615 21.597 17.931 22.0502 18.1158 22.5116C18.2645 22.8828 18.5652 23.081 18.959 23.1297C19.3302 23.1766 19.6757 23.1036 19.9804 22.875C20.0161 22.848 20.0213 22.8298 19.9937 22.7915C19.9329 22.7081 19.876 22.6211 19.8216 22.5332C19.7986 22.4958 19.7834 22.4932 19.7473 22.5193C19.5786 22.6427 19.3883 22.7062 19.1796 22.7162C18.8502 22.7328 18.6012 22.5598 18.5202 22.259C18.5069 22.2089 18.5037 22.182 18.5741 22.1834C18.8201 22.1886 19.0658 22.1851 19.3113 22.1851C19.5639 22.1851 19.8163 22.1842 20.0684 22.186C20.109 22.186 20.124 22.1782 20.1275 22.133C20.1403 21.9796 20.1318 21.8278 20.0953 21.6796" fill="#110F0D"/>
<mask id="mask1_163_441" style="mask-type:luminance" maskUnits="userSpaceOnUse" x="26" y="20" width="4" height="4">
<path d="M29.2468 23.1498H26.8854V20.8579H29.2468V23.1498Z" fill="#110F0D"/>
</mask>
<g mask="url(#mask1_163_441)">
<path fill-rule="evenodd" clip-rule="evenodd" d="M28.0634 22.7014C27.6678 22.7007 27.3807 22.4093 27.3789 22.0064C27.377 21.6014 27.6671 21.3058 28.0649 21.3058C28.4639 21.3061 28.7542 21.6007 28.7536 22.0041C28.7529 22.4077 28.4619 22.7013 28.0634 22.7008M29.2136 21.7309C29.0873 21.2035 28.6344 20.8584 28.0668 20.8579C27.1136 20.8556 26.6315 21.7985 27.0202 22.5431C27.2454 22.9748 27.6291 23.1563 28.108 23.1496C28.858 23.1391 29.3876 22.4583 29.2136 21.7315" fill="#110F0D"/>
</g>
</g>
<defs>
<clipPath id="clip0_163_441">
<rect width="39.9865" height="26.0781" fill="white" transform="translate(0.944214)"/>
</clipPath>
</defs>
</svg>
