<svg width="41" height="27" viewBox="0 0 41 27" fill="none" xmlns="http://www.w3.org/2000/svg">
<g clip-path="url(#clip0_163_422)">
<mask id="mask0_163_422" style="mask-type:luminance" maskUnits="userSpaceOnUse" x="-1" y="-1" width="43" height="28">
<path d="M36.9848 0H3.95255C2.03221 0 0.475464 1.55674 0.475464 3.47708V22.601C0.475464 24.5214 2.03221 26.0781 3.95255 26.0781H36.9848C38.9052 26.0781 40.4619 24.5214 40.4619 22.601V3.47708C40.4619 1.55674 38.9052 0 36.9848 0Z" fill="white" stroke="#DADBD2" stroke-width="1.73854"/>
</mask>
<g mask="url(#mask0_163_422)">
<path d="M36.9848 0H3.95255C2.03221 0 0.475464 1.55674 0.475464 3.47708V22.601C0.475464 24.5214 2.03221 26.0781 3.95255 26.0781H36.9848C38.9052 26.0781 40.4619 24.5214 40.4619 22.601V3.47708C40.4619 1.55674 38.9052 0 36.9848 0Z" fill="white" stroke="#DADBD2" stroke-width="1.73854"/>
</g>
<mask id="mask1_163_422" style="mask-type:luminance" maskUnits="userSpaceOnUse" x="7" y="2" width="14" height="17">
<path d="M7.42969 18.8667V2.67725H20.6237V18.8665H7.42969V18.8667Z" fill="#ED0006"/>
</mask>
<g mask="url(#mask1_163_422)">
<path fill-rule="evenodd" clip-rule="evenodd" d="M20.6238 17.1308C17.6602 19.5042 13.2331 19.4491 10.3299 16.9328C7.8577 14.7897 6.92358 12.0531 7.69166 8.89043C8.46532 5.70543 10.5716 3.68263 13.7818 2.91089C16.2086 2.32761 18.4619 2.85004 20.4844 4.31303C20.5218 4.33997 20.5557 4.37127 20.5913 4.40082C20.5487 4.45298 20.5131 4.51296 20.4618 4.55555C19.6403 5.23532 18.9727 6.04114 18.4729 6.97821C17.6584 8.50552 17.3654 10.1293 17.5888 11.8435C17.7097 12.778 17.993 13.6638 18.4303 14.5C18.9692 15.5318 19.7177 16.3959 20.6226 17.1296" fill="#ED0006"/>
</g>
<mask id="mask2_163_422" style="mask-type:luminance" maskUnits="userSpaceOnUse" x="20" y="2" width="14" height="17">
<path d="M33.8139 2.68115V18.8822H20.6254V2.68124L33.8139 2.68115Z" fill="#F9A000"/>
</mask>
<g mask="url(#mask2_163_422)">
<path fill-rule="evenodd" clip-rule="evenodd" d="M20.6251 4.40963C21.1719 4.01628 21.7311 3.64006 22.3602 3.38876C25.5 2.13475 28.408 2.53426 31.0073 4.69301C32.6427 6.05081 33.5356 7.84299 33.7668 9.94549C34.1354 13.2922 32.323 16.585 29.2484 18.0225C26.3189 19.3925 23.4955 19.1108 20.8304 17.2836C20.7695 17.2419 20.7156 17.188 20.6591 17.1393C20.6974 17.0959 20.7321 17.0507 20.773 17.0098C21.1607 16.6221 21.584 16.2648 21.93 15.8441C23.0227 14.515 23.6172 12.9772 23.725 11.2665C23.7789 10.4077 23.7024 9.55406 23.4703 8.71695C23.0886 7.34255 22.415 6.13948 21.404 5.12591C21.1545 4.87617 20.885 4.64781 20.6251 4.40963Z" fill="#F9A000"/>
</g>
<path fill-rule="evenodd" clip-rule="evenodd" d="M20.6252 4.40976C20.8851 4.64759 21.1545 4.87604 21.403 5.12517C22.4139 6.13787 23.0878 7.34163 23.4681 8.71482C23.7002 9.55236 23.7774 10.4056 23.7234 11.2648C23.616 12.9756 23.0213 14.5133 21.9285 15.8428C21.5826 16.2637 21.159 16.6217 20.7715 17.0091C20.731 17.0497 20.6959 17.0956 20.6582 17.139L20.6237 17.1308C19.7188 16.3962 18.9708 15.5322 18.4314 14.5003C17.9946 13.665 17.7112 12.7792 17.5899 11.8438C17.3671 10.1296 17.6593 8.50585 18.474 6.97854C18.9738 6.0406 19.6414 5.23565 20.4626 4.55501C20.5135 4.51242 20.5489 4.45157 20.5916 4.39941C20.6034 4.39941 20.6145 4.40289 20.6252 4.40724" fill="#FF5E00"/>
<path fill-rule="evenodd" clip-rule="evenodd" d="M10.6297 21.0894C10.907 20.729 11.266 20.6595 11.6689 20.7617C11.9654 20.8369 12.1857 21.0378 12.2058 21.333C12.2412 21.8526 12.2156 22.3762 12.2156 22.908H11.7636V22.6255C11.7636 22.3204 11.7653 22.0152 11.7629 21.7093C11.7601 21.3546 11.5997 21.1668 11.2996 21.1607C10.9862 21.1555 10.7763 21.3537 10.7643 21.6953C10.7515 22.0639 10.7599 22.4334 10.7584 22.8019C10.7584 22.835 10.7529 22.868 10.7492 22.9097H10.2867C10.2867 22.7967 10.288 22.6889 10.2865 22.582C10.2816 22.243 10.2891 21.9022 10.2657 21.5641C10.2487 21.3172 10.0959 21.1877 9.8606 21.1668C9.6059 21.1442 9.39701 21.2651 9.32808 21.4911C9.29835 21.5884 9.29001 21.6953 9.2887 21.7971C9.28436 22.1648 9.28696 22.5325 9.28696 22.9097H8.81799V20.7843H9.27436C9.28062 20.8498 9.28653 20.9114 9.29548 21.0077C9.48585 20.7834 9.71569 20.7065 9.98481 20.723C10.2537 20.7395 10.4594 20.8603 10.6298 21.0893M31.4254 22.5314C31.8044 22.5384 32.0827 22.2619 32.0945 21.8655C32.1065 21.4674 31.8261 21.1623 31.4462 21.1597C31.0707 21.1562 30.7927 21.4405 30.7854 21.836C30.7782 22.228 31.0504 22.5236 31.4252 22.5305M32.5422 22.9061H32.0725L32.0581 22.6966C31.8136 22.9191 31.54 23.0121 31.2254 22.9626C30.9168 22.9139 30.6702 22.7661 30.4952 22.5079C30.1848 22.0498 30.2492 21.3874 30.6382 21.0119C31.0224 20.6407 31.5483 20.626 32.0586 20.985V19.894L32.548 19.9419L32.5419 22.9043M13.1458 21.8438C13.1458 22.2454 13.4101 22.5262 13.79 22.5288C14.1742 22.5314 14.4515 22.2402 14.448 21.8369C14.4445 21.444 14.1655 21.1545 13.7908 21.1571C13.4118 21.1597 13.1432 21.4448 13.1441 21.8429M14.4089 20.9798L14.4254 20.7807H14.88V22.9013H14.4245L14.4089 22.7118C13.8369 23.0777 13.2919 23.0352 12.9207 22.6033C12.5547 22.1767 12.5643 21.4672 12.9424 21.0586C13.3266 20.6425 13.8691 20.6101 14.4071 20.9786M27.0672 22.5277C27.4445 22.5285 27.7192 22.2443 27.7226 21.8488C27.7261 21.455 27.454 21.162 27.0785 21.156C26.6969 21.1499 26.4135 21.4437 26.4144 21.8456C26.4152 22.2393 26.6891 22.5262 27.0663 22.5271M27.6844 20.9876L27.7061 20.7764H28.1521V22.8986H27.7044L27.6835 22.6887C27.4253 22.9359 27.1367 23.0127 26.8082 22.9507C26.5451 22.9006 26.3309 22.7742 26.167 22.5656C25.8158 22.1179 25.8549 21.4207 26.2501 21.0244C26.6367 20.6369 27.2011 20.6167 27.6842 20.987M21.2455 21.6438C21.2394 21.3422 21.0369 21.1419 20.7413 21.1361C20.4171 21.1297 20.192 21.3288 20.1763 21.6438H21.2455ZM20.1694 22.0741C20.2441 22.4001 20.5006 22.587 20.8537 22.5383C21.0441 22.5118 21.2272 22.4309 21.4466 22.3644L21.6561 22.6661C21.2995 22.9516 20.9042 23.0259 20.4765 22.9355C19.8654 22.806 19.5255 22.1775 19.6959 21.5111C19.8471 20.92 20.4208 20.5897 21.0163 20.7514C21.497 20.8818 21.8407 21.426 21.7656 21.9223C21.7477 22.0397 21.6717 22.0205 21.5996 22.0205C21.1874 22.0221 20.7746 22.0205 20.3623 22.0223C20.2998 22.0223 20.2372 22.0344 20.1746 22.0411L20.1685 22.075L20.1694 22.0741ZM15.352 22.677L15.5415 22.3662C15.7591 22.4297 15.9536 22.5088 16.1552 22.5375C16.3048 22.5584 16.4691 22.5314 16.6151 22.4879C16.6829 22.468 16.7605 22.361 16.765 22.2889C16.7684 22.2333 16.6745 22.1441 16.6059 22.1185C16.483 22.073 16.3451 22.0663 16.2147 22.0391C16.0904 22.0131 15.9626 21.9922 15.8435 21.9487C15.601 21.8609 15.4398 21.6966 15.4303 21.4268C15.4205 21.1452 15.5457 20.9279 15.8082 20.8203C16.2853 20.6256 16.7479 20.6986 17.2165 20.9293C17.1443 21.0648 17.0806 21.184 17.0322 21.2736C16.7862 21.2249 16.5619 21.1762 16.3359 21.1377C16.275 21.1273 16.2078 21.1407 16.1464 21.156C16.0261 21.1855 15.9056 21.2533 15.936 21.3846C15.9531 21.4585 16.0673 21.5384 16.153 21.5625C16.386 21.6286 16.6358 21.6425 16.864 21.7207C17.2144 21.8416 17.3613 22.1606 17.2257 22.4822C17.177 22.5978 17.0831 22.7112 16.9801 22.7847C16.5724 23.0759 15.7466 23.0164 15.3502 22.6756M18.018 20.1278H18.4961V20.7624H19.2558V21.1937H18.517C18.517 21.5765 18.5065 21.9421 18.5222 22.3072C18.5291 22.462 18.663 22.5324 18.8117 22.5185C18.9477 22.506 19.0808 22.4637 19.2341 22.4305C19.2732 22.5409 19.3167 22.6631 19.3593 22.7822C19.0942 22.9995 18.5743 23.0334 18.3031 22.8543C18.1235 22.7361 18.045 22.5571 18.0368 22.3536C18.0244 22.0433 18.0285 21.7316 18.0258 21.4209C18.025 21.3531 18.0258 21.2853 18.0258 21.2013H17.5999V20.769H18.0215V20.1274L18.018 20.1278ZM25.6858 20.9771L25.4716 21.3336C24.9428 21.0894 24.6093 21.1111 24.3876 21.3971C24.1901 21.6522 24.2007 22.0732 24.4106 22.313C24.6436 22.579 24.9986 22.5929 25.4642 22.3429L25.6832 22.6984C25.2703 23.0783 24.4902 23.0548 24.082 22.6593C23.6636 22.2536 23.6422 21.5043 24.036 21.0697C24.4289 20.6368 25.2025 20.5855 25.6858 20.9767M30.0148 21.2036C29.9731 21.1949 29.9514 21.1897 29.9291 21.1853C29.4762 21.0958 29.2627 21.2651 29.2589 21.7208C29.2563 22.0551 29.2589 22.3893 29.258 22.7238C29.258 22.7796 29.2533 22.8359 29.2505 22.9011H28.795V20.7756H29.2345L29.2594 20.9964C29.5106 20.6927 29.8076 20.6669 30.1533 20.7726L30.0135 21.2044M22.6945 22.9055H22.2594V20.7776H22.7001L22.722 20.9923C22.9668 20.6959 23.2644 20.6672 23.6132 20.7741L23.475 21.1948C22.8648 21.1105 22.7135 21.2442 22.7127 21.8534C22.7127 22.1872 22.7109 22.521 22.7096 22.8556C22.7096 22.8661 22.7034 22.8765 22.6936 22.9061" fill="black"/>
</g>
<defs>
<clipPath id="clip0_163_422">
<rect width="39.9865" height="26.0781" fill="white" transform="translate(0.475464)"/>
</clipPath>
</defs>
</svg>
