<svg width="41" height="27" viewBox="0 0 41 27" fill="none" xmlns="http://www.w3.org/2000/svg">
<g clip-path="url(#clip0_163_477)">
<mask id="mask0_163_477" style="mask-type:luminance" maskUnits="userSpaceOnUse" x="-1" y="-1" width="43" height="28">
<path d="M36.9848 0H3.95255C2.03221 0 0.475464 1.55674 0.475464 3.47708V22.601C0.475464 24.5214 2.03221 26.0781 3.95255 26.0781H36.9848C38.9052 26.0781 40.4619 24.5214 40.4619 22.601V3.47708C40.4619 1.55674 38.9052 0 36.9848 0Z" fill="white" stroke="#DADBD2" stroke-width="1.73854"/>
</mask>
<g mask="url(#mask0_163_477)">
<path d="M36.9848 0H3.95255C2.03221 0 0.475464 1.55674 0.475464 3.47708V22.601C0.475464 24.5214 2.03221 26.0781 3.95255 26.0781H36.9848C38.9052 26.0781 40.4619 24.5214 40.4619 22.601V3.47708C40.4619 1.55674 38.9052 0 36.9848 0Z" fill="white" stroke="#DADBD2" stroke-width="1.73854"/>
</g>
<path fill-rule="evenodd" clip-rule="evenodd" d="M7.44176 9.52124H4.81917C4.64184 9.52124 4.48884 9.65163 4.45755 9.82375L3.39704 16.3694C3.37966 16.4997 3.48397 16.6214 3.61436 16.6214H4.8748C5.05735 16.6214 5.21382 16.4997 5.23989 16.3259L5.51806 14.5526C5.55283 14.3874 5.7093 14.257 5.88316 14.257H6.71766C8.4475 14.257 9.44717 13.4399 9.70795 11.8318C9.82095 11.1277 9.71664 10.58 9.37762 10.1888C9.00384 9.7629 8.34319 9.53689 7.46523 9.53689M7.77817 11.9274C7.63039 12.8488 6.90889 12.8488 6.21348 12.8488H5.81361L6.09178 11.145C6.10917 11.0407 6.20131 10.9712 6.3091 10.9712H6.48295C6.96105 10.9712 7.40438 10.9712 7.63908 11.2381C7.77556 11.3945 7.81989 11.6275 7.76947 11.9482M15.3061 11.9222H14.036C13.9265 11.9222 13.8326 11.9987 13.8161 12.1047L13.7622 12.4481L13.6718 12.3229C13.4023 11.9404 12.8026 11.8152 12.1941 11.8152C10.8119 11.8152 9.62102 12.8323 9.39501 14.2666C9.27331 14.9863 9.44717 15.6661 9.86442 16.1494C10.2469 16.5841 10.7945 16.7666 11.4465 16.7666C12.5678 16.7666 13.185 16.0625 13.185 16.0625L13.1329 16.4015C13.1155 16.5319 13.2111 16.6449 13.3502 16.6449H14.4802C14.6628 16.6449 14.8193 16.5232 14.8453 16.3494L15.5234 12.1682C15.5494 12.0378 15.4451 11.9248 15.3147 11.9248M13.5501 14.2892C13.4284 14.9846 12.8547 15.454 12.1332 15.454C11.7681 15.454 11.4813 15.3375 11.29 15.1237C11.1075 14.9064 11.0379 14.6021 11.0988 14.2675C11.2118 13.5807 11.7855 13.0939 12.507 13.0939C12.8634 13.0939 13.1503 13.2069 13.3415 13.4243C13.5327 13.6416 13.611 13.9545 13.5588 14.2848M21.9994 11.9117C22.182 11.9117 22.2863 12.1117 22.182 12.2421L17.9834 18.1357C17.9139 18.2313 17.8035 18.2922 17.6861 18.2922H16.417C16.2431 18.2922 16.1388 18.1009 16.2414 17.9619L17.5514 16.1668L16.1605 12.1942C16.1127 12.0552 16.217 11.9091 16.3657 11.9091H17.6087C17.7696 11.9091 17.913 12.0134 17.9565 12.1612L18.6953 14.5604L20.4339 12.0656C20.5034 11.97 20.6164 11.9091 20.7381 11.9091H21.9986" fill="#003087"/>
<path fill-rule="evenodd" clip-rule="evenodd" d="M26.1537 9.52124H23.5285C23.3511 9.52124 23.1982 9.65163 23.1721 9.82375L22.1116 16.3694C22.0855 16.4997 22.1898 16.6128 22.3254 16.6128H23.671C23.7971 16.6128 23.9057 16.5258 23.9231 16.4041L24.2239 14.5526C24.2526 14.3874 24.4064 14.257 24.5838 14.257H25.4157C27.1455 14.257 28.1452 13.4399 28.406 11.8318C28.5276 11.1277 28.4146 10.58 28.0669 10.1888C27.7018 9.7629 27.0412 9.53689 26.1632 9.53689M26.4675 11.9274C26.3197 12.8488 25.6069 12.8488 24.9115 12.8488H24.5203L24.7985 11.145C24.8159 11.0494 24.9115 10.9712 25.0158 10.9712H25.1983C25.6764 10.9712 26.1198 10.9712 26.3458 11.2381C26.4849 11.3945 26.5283 11.6292 26.4762 11.9509M34.0128 11.9248H32.7523C32.648 11.9248 32.5524 12.0004 32.535 12.1073L32.4828 12.4498L32.3959 12.3238C32.1264 11.9413 31.5179 11.8161 30.9181 11.8161C29.5273 11.8161 28.3451 12.8332 28.1104 14.2675C27.9887 14.989 28.1626 15.667 28.5798 16.152C28.9623 16.5867 29.5099 16.7692 30.1619 16.7692C31.2815 16.7692 31.9004 16.0712 31.9004 16.0712L31.8483 16.4102C31.8274 16.5406 31.9265 16.6536 32.0656 16.6536H33.1956C33.3782 16.6536 33.5294 16.5232 33.5555 16.3581L34.2335 12.1682C34.2596 12.0378 34.1466 11.9248 34.0162 11.9248M32.269 14.2979C32.1473 14.9994 31.5736 15.4688 30.8521 15.4688C30.487 15.4688 30.194 15.3532 30.0054 15.1385C29.8159 14.9212 29.7446 14.6169 29.8072 14.2779C29.9202 13.5912 30.4939 13.1044 31.2111 13.1044C31.5675 13.1044 31.8578 13.2174 32.0491 13.4347C32.2455 13.652 32.3185 13.965 32.2664 14.2953M35.4966 9.7403C35.5166 9.64468 35.6044 9.56644 35.7139 9.56644H36.9257C37.0561 9.56644 37.1604 9.68466 37.143 9.81505L36.0721 16.3424C36.039 16.5163 35.8895 16.638 35.707 16.638H34.6291C34.4935 16.638 34.3944 16.5223 34.4117 16.3946L35.4853 9.73073" fill="#009CDE"/>
</g>
<defs>
<clipPath id="clip0_163_477">
<rect width="39.9865" height="26.0781" fill="white" transform="translate(0.475464)"/>
</clipPath>
</defs>
</svg>
