<svg width="40" height="27" viewBox="0 0 40 27" fill="none" xmlns="http://www.w3.org/2000/svg">
<g clip-path="url(#clip0_163_414)">
<mask id="mask0_163_414" style="mask-type:luminance" maskUnits="userSpaceOnUse" x="-1" y="-1" width="42" height="28">
<path d="M36.5162 0H3.48392C1.56358 0 0.00683594 1.55674 0.00683594 3.47708V22.601C0.00683594 24.5214 1.56358 26.0781 3.48392 26.0781H36.5162C38.4366 26.0781 39.9933 24.5214 39.9933 22.601V3.47708C39.9933 1.55674 38.4366 0 36.5162 0Z" fill="white" stroke="#DADBD2" stroke-width="1.73854"/>
</mask>
<g mask="url(#mask0_163_414)">
<path d="M36.5162 0H3.48392C1.56358 0 0.00683594 1.55674 0.00683594 3.47708V22.601C0.00683594 24.5214 1.56358 26.0781 3.48392 26.0781H36.5162C38.4366 26.0781 39.9933 24.5214 39.9933 22.601V3.47708C39.9933 1.55674 38.4366 0 36.5162 0Z" fill="white" stroke="#DADBD2" stroke-width="1.73854"/>
</g>
<path fill-rule="evenodd" clip-rule="evenodd" d="M14.9261 8.02335C14.9174 8.04942 14.9105 8.06681 14.9026 8.08593L10.5476 18.4389C10.4989 18.5554 10.4494 18.671 10.4016 18.7884C10.3903 18.8171 10.3755 18.8293 10.3425 18.8293H7.46343C7.42692 18.8293 7.41475 18.8206 7.40605 18.7858L6.01 13.3963C5.72662 12.3097 5.44498 11.2231 5.16073 10.1278C5.13465 10.0409 5.10857 9.96269 5.0738 9.87576C4.98687 9.63237 4.8304 9.44982 4.61309 9.31943C4.37838 9.18034 4.12629 9.07603 3.87421 8.97172C3.21443 8.71007 2.51901 8.51014 1.8149 8.35367L1.74536 8.33454V8.31194C1.76449 8.23197 1.78622 8.15026 1.80186 8.06681C1.80882 8.0303 1.8236 8.02161 1.85837 8.02161C3.43001 8.02161 5.00078 8.02421 6.57155 8.02161C7.20004 8.02161 7.74681 8.4319 7.87894 9.12297C8.08148 10.1817 8.2788 11.2414 8.47873 12.3002L9.01594 15.134L9.06115 15.3756L9.08722 15.32C10.0434 12.906 11.0031 10.4921 11.9593 8.0755C11.9767 8.03552 11.9941 8.02161 12.0375 8.02161C12.9789 8.02335 13.9195 8.02161 14.8601 8.02161H14.9235L14.9261 8.02335ZM36.3945 18.4659L36.4727 18.8162V18.8249L35.5374 18.8266H33.9319C33.9014 18.8266 33.878 18.8284 33.871 18.7867C33.765 18.2799 33.6572 17.7731 33.5529 17.2654C33.5442 17.222 33.5268 17.2107 33.492 17.2107H29.9967C29.9558 17.2107 29.9376 17.2194 29.9228 17.2541C29.7428 17.7583 29.5594 18.2625 29.3777 18.7667C29.363 18.8014 29.3456 18.8188 29.2995 18.8188H26.4153L26.4327 18.7667L27.554 16.0893C28.5711 13.6727 29.5881 11.2562 30.6008 8.83959C30.8094 8.33541 31.2667 7.98771 31.8612 7.9964C32.4558 8.00509 33.0487 7.9964 33.6433 7.9964H34.1674C34.1996 7.9964 34.2109 8.00509 34.2196 8.03552C34.2909 8.38931 34.3656 8.73962 34.4395 9.09342L34.9089 11.3274L35.4131 13.7388L35.926 16.1571L36.4041 18.4346L36.3945 18.4659ZM26.537 15.0105C26.6013 15.8103 26.4266 16.5492 25.9667 17.215C25.6329 17.6966 25.1913 18.0582 24.6767 18.3338C24.1604 18.6119 23.6075 18.7858 23.0321 18.8901C22.6861 18.9509 22.3384 18.9857 21.9872 19.0031C21.9698 19.0031 21.9524 19.0118 21.935 19.0118H21.4726C21.3683 19.0031 21.2614 19.0031 21.1562 18.9944C20.3356 18.9423 19.5306 18.8119 18.7544 18.525C18.697 18.5076 18.6414 18.4815 18.5849 18.4555C18.5588 18.4468 18.5501 18.4381 18.5562 18.4033L18.9039 16.7865L19.0517 16.0824L19.1038 16.1084C19.4602 16.2797 19.8253 16.4388 20.2165 16.55C20.5816 16.6587 20.9641 16.7308 21.3465 16.75C21.5986 16.7621 21.8507 16.7673 22.1028 16.7569C22.4592 16.7395 22.7982 16.6587 23.1112 16.4753C23.3024 16.3623 23.4676 16.2145 23.5458 15.9972C23.6588 15.6695 23.5893 15.38 23.3459 15.1305C23.1694 14.948 22.9599 14.8089 22.7374 14.6872C22.4505 14.5307 22.1567 14.3829 21.8681 14.2352C21.4117 13.9952 20.9771 13.7266 20.599 13.3772C20.2513 13.0608 19.9731 12.6948 19.8166 12.2471C19.6949 11.9081 19.6636 11.5561 19.6915 11.1953C19.7306 10.6955 19.8792 10.2304 20.1435 9.80013C20.4338 9.33073 20.8232 8.9639 21.2866 8.67008C21.8081 8.33976 22.3819 8.1294 22.9816 8.00074C23.3607 7.92251 23.7414 7.87905 24.1265 7.86514C24.1473 7.86514 24.1673 7.85992 24.1873 7.85645H24.6515C24.7358 7.8634 24.8167 7.87035 24.8949 7.87383C25.6225 7.91729 26.3205 8.07811 26.9986 8.31977C27.0333 8.3302 27.0481 8.3415 27.0394 8.38062C26.8795 9.11776 26.7221 9.85403 26.5639 10.5886L26.5552 10.6216L26.3901 10.5434C25.8859 10.3347 25.3643 10.1957 24.8254 10.1418C24.4803 10.107 24.1352 10.0983 23.7909 10.1418C23.4719 10.1852 23.1677 10.2721 22.913 10.479C22.7478 10.6094 22.6348 10.7746 22.6087 10.9919C22.5879 11.1484 22.6322 11.2918 22.7217 11.4222C22.82 11.57 22.9564 11.683 23.0981 11.7812C23.3702 11.9724 23.6666 12.1202 23.9604 12.2767C24.3777 12.494 24.7976 12.7131 25.1861 12.9895C25.5512 13.2433 25.8815 13.5389 26.1249 13.9196C26.3509 14.2586 26.4813 14.6324 26.5161 15.041L26.537 15.0105ZM18.9369 8.02682C18.9152 8.1294 18.8935 8.22936 18.8735 8.32933C18.6683 9.28292 18.4649 10.2365 18.2589 11.1892L17.6365 14.0882L17.0367 16.8986L16.6368 18.7884C16.6368 18.8145 16.6281 18.8293 16.5934 18.8293H13.8204L13.8726 18.5945L14.5071 15.6477L15.1243 12.7965L15.7154 10.0409L16.1327 8.07637C16.1414 8.0416 16.15 8.03291 16.1848 8.03291H18.8969C18.9143 8.03291 18.923 8.03291 18.9404 8.0416L18.9369 8.02682ZM30.7442 15.0001H33.0756L32.229 10.9563H32.2168L30.7442 14.9984V15.0001Z" fill="url(#paint0_linear_163_414)"/>
</g>
<defs>
<linearGradient id="paint0_linear_163_414" x1="2.78267" y1="12.8554" x2="36.4727" y2="12.8554" gradientUnits="userSpaceOnUse">
<stop stop-color="#10155F"/>
<stop offset="1" stop-color="#00229B"/>
</linearGradient>
<clipPath id="clip0_163_414">
<rect width="39.9865" height="26.0781" fill="white" transform="translate(0.00683594)"/>
</clipPath>
</defs>
</svg>
