<svg width="50" height="50" viewBox="0 0 50 50" fill="none" xmlns="http://www.w3.org/2000/svg">
<circle cx="25" cy="25" r="25" fill="#EC5C29"/>
<g clip-path="url(#clip0_10223_5073)">
<path d="M21.125 24.375C21.125 25.2701 21.4806 26.1286 22.1135 26.7615C22.7464 27.3944 23.6049 27.75 24.5 27.75C25.3951 27.75 26.2536 27.3944 26.8865 26.7615C27.5194 26.1286 27.875 25.2701 27.875 24.375C27.875 23.4799 27.5194 22.6214 26.8865 21.9885C26.2536 21.3556 25.3951 21 24.5 21C23.6049 21 22.7464 21.3556 22.1135 21.9885C21.4806 22.6214 21.125 23.4799 21.125 24.375Z" stroke="white" stroke-width="1.4" stroke-linecap="round" stroke-linejoin="round"/>
<path d="M30.8641 30.7393L26.0908 35.5127C25.6689 35.9341 25.0969 36.1709 24.5006 36.1709C23.9042 36.1709 23.3323 35.9341 22.9104 35.5127L18.1359 30.7393C16.8773 29.4806 16.0201 27.8769 15.6729 26.1311C15.3257 24.3853 15.5039 22.5757 16.1851 20.9312C16.8663 19.2867 18.0199 17.8811 19.4999 16.8922C20.98 15.9033 22.72 15.3755 24.5 15.3755C26.28 15.3755 28.0201 15.9033 29.5001 16.8922C30.9801 17.8811 32.1337 19.2867 32.8149 20.9312C33.4961 22.5757 33.6743 24.3853 33.3271 26.1311C32.9799 27.8769 32.1228 29.4806 30.8641 30.7393Z" stroke="white" stroke-width="1.4" stroke-linecap="round" stroke-linejoin="round"/>
</g>
<defs>
<clipPath id="clip0_10223_5073">
<rect width="27" height="27" fill="white" transform="translate(11 12)"/>
</clipPath>
</defs>
</svg>
