<svg width="315" height="58" viewBox="0 0 315 58" fill="none" xmlns="http://www.w3.org/2000/svg">
<rect width="315" height="58" rx="8" fill="#11202D"/>
<path d="M108.358 30.0314C108.374 28.7865 108.705 27.5659 109.319 26.4832C109.934 25.4004 110.812 24.4907 111.873 23.8387C111.199 22.8764 110.31 22.0845 109.277 21.5259C108.244 20.9672 107.094 20.6572 105.92 20.6205C103.416 20.3576 100.987 22.1192 99.7112 22.1192C98.4102 22.1192 96.4452 20.6466 94.3292 20.6901C92.9605 20.7344 91.6266 21.1324 90.4574 21.8454C89.2883 22.5584 88.3238 23.5621 87.6579 24.7587C84.7733 29.7528 86.9249 37.0925 89.6881 41.1294C91.0705 43.1061 92.6862 45.3142 94.8003 45.2359C96.8691 45.1501 97.6418 43.9167 100.139 43.9167C102.613 43.9167 103.338 45.2359 105.495 45.1861C107.715 45.1501 109.113 43.2006 110.447 41.2051C111.441 39.7966 112.205 38.2399 112.712 36.5927C111.422 36.0472 110.322 35.1342 109.548 33.9674C108.773 32.8006 108.36 31.4317 108.358 30.0314Z" fill="white"/>
<path d="M104.283 17.966C105.493 16.513 106.089 14.6454 105.945 12.7598C104.096 12.954 102.388 13.8378 101.161 15.2351C100.561 15.9177 100.102 16.7118 99.809 17.572C99.5163 18.4323 99.396 19.3418 99.455 20.2485C100.38 20.258 101.295 20.0576 102.131 19.6622C102.967 19.2668 103.703 18.6869 104.283 17.966Z" fill="white"/>
<path d="M129.642 13.3699C130.172 13.3347 130.703 13.4088 131.198 13.5867C131.693 13.7647 132.139 14.0421 132.504 14.3989C132.87 14.7558 133.145 15.1832 133.31 15.6503C133.475 16.1175 133.526 16.6127 133.459 17.1003C133.459 19.4987 132.058 20.8773 129.642 20.8773H126.712V13.3699H129.642ZM127.972 19.8156H129.501C129.88 19.8366 130.258 19.7791 130.61 19.6475C130.961 19.5159 131.277 19.3134 131.533 19.0547C131.789 18.7961 131.98 18.4878 132.091 18.1524C132.203 17.8169 132.232 17.4627 132.176 17.1156C132.228 16.7698 132.196 16.4178 132.083 16.0848C131.97 15.7518 131.778 15.446 131.523 15.1894C131.267 14.9328 130.953 14.7318 130.604 14.6006C130.254 14.4695 129.878 14.4115 129.501 14.4308H127.972V19.8156Z" fill="white"/>
<path d="M134.882 18.042C134.844 17.6697 134.89 17.294 135.017 16.9391C135.145 16.5842 135.351 16.2579 135.623 15.9812C135.895 15.7044 136.226 15.4832 136.596 15.3319C136.965 15.1806 137.365 15.1024 137.769 15.1024C138.173 15.1024 138.573 15.1806 138.942 15.3319C139.312 15.4832 139.643 15.7044 139.915 15.9812C140.187 16.2579 140.393 16.5842 140.521 16.9391C140.648 17.294 140.694 17.6697 140.656 18.042C140.695 18.4147 140.65 18.7909 140.522 19.1464C140.395 19.5018 140.189 19.8287 139.917 20.1061C139.645 20.3834 139.314 20.605 138.944 20.7567C138.574 20.9083 138.174 20.9867 137.769 20.9867C137.364 20.9867 136.964 20.9083 136.594 20.7567C136.224 20.605 135.893 20.3834 135.621 20.1061C135.349 19.8287 135.143 19.5018 135.016 19.1464C134.888 18.7909 134.843 18.4147 134.882 18.042ZM139.413 18.042C139.413 16.8139 138.817 16.0957 137.771 16.0957C136.721 16.0957 136.13 16.8139 136.13 18.042C136.13 19.2799 136.721 19.9926 137.771 19.9926C138.817 19.9926 139.413 19.275 139.413 18.042Z" fill="white"/>
<path d="M148.331 20.8772H147.078L145.812 16.7046H145.717L144.457 20.8772H143.216L141.528 15.2117H142.754L143.85 19.5348H143.94L145.199 15.2117H146.358L147.617 19.5348H147.712L148.803 15.2117H150.012L148.331 20.8772Z" fill="white"/>
<path d="M151.431 15.2117H152.594V16.1117H152.684C152.837 15.7884 153.096 15.5175 153.423 15.3365C153.75 15.1556 154.131 15.0737 154.511 15.1023C154.809 15.0816 155.108 15.1232 155.386 15.2239C155.664 15.3247 155.914 15.4821 156.118 15.6845C156.321 15.8869 156.473 16.129 156.562 16.393C156.65 16.657 156.673 16.9361 156.63 17.2095V20.8772H155.422V17.4903C155.422 16.5799 154.994 16.1271 154.101 16.1271C153.898 16.1183 153.697 16.1502 153.509 16.2204C153.321 16.2907 153.152 16.3977 153.013 16.534C152.874 16.6704 152.769 16.8329 152.705 17.0105C152.64 17.1881 152.618 17.3765 152.639 17.5628V20.8772H151.431L151.431 15.2117Z" fill="white"/>
<path d="M158.555 13H159.763V20.8772H158.555V13Z" fill="white"/>
<path d="M161.442 18.042C161.404 17.6697 161.45 17.294 161.578 16.9391C161.705 16.5842 161.912 16.2578 162.183 15.9811C162.455 15.7043 162.787 15.4831 163.156 15.3318C163.526 15.1805 163.925 15.1023 164.33 15.1023C164.734 15.1023 165.133 15.1805 165.503 15.3318C165.873 15.4831 166.204 15.7043 166.476 15.9811C166.748 16.2578 166.954 16.5842 167.082 16.9391C167.209 17.294 167.255 17.6697 167.217 18.042C167.256 18.4147 167.211 18.7909 167.083 19.1464C166.956 19.5019 166.75 19.8287 166.478 20.1061C166.206 20.3834 165.874 20.605 165.504 20.7566C165.134 20.9083 164.734 20.9866 164.33 20.9866C163.925 20.9866 163.525 20.9083 163.155 20.7566C162.785 20.605 162.453 20.3834 162.181 20.1061C161.91 19.8287 161.703 19.5019 161.576 19.1464C161.449 18.7909 161.403 18.4147 161.442 18.042ZM165.974 18.042C165.974 16.8139 165.377 16.0957 164.331 16.0957C163.281 16.0957 162.69 16.8139 162.69 18.042C162.69 19.2799 163.281 19.9926 164.331 19.9926C165.377 19.9926 165.974 19.275 165.974 18.042Z" fill="white"/>
<path d="M168.489 19.275C168.489 18.2552 169.309 17.6673 170.766 17.5837L172.424 17.4952V17.0062C172.424 16.4078 171.996 16.0699 171.171 16.0699C170.496 16.0699 170.029 16.2991 169.895 16.6997H168.725C168.849 15.7265 169.838 15.1023 171.226 15.1023C172.761 15.1023 173.627 15.8094 173.627 17.0062V20.8772H172.464V20.0811H172.368C172.174 20.3667 171.902 20.5995 171.579 20.7558C171.255 20.912 170.893 20.9862 170.529 20.9706C170.272 20.9953 170.013 20.97 169.767 20.8961C169.521 20.8223 169.295 20.7016 169.103 20.5418C168.91 20.3821 168.756 20.1868 168.651 19.9686C168.545 19.7504 168.49 19.5141 168.489 19.275ZM172.424 18.7909V18.3172L170.929 18.4057C170.086 18.4579 169.703 18.7233 169.703 19.2228C169.703 19.7327 170.181 20.0294 170.839 20.0294C171.031 20.0475 171.226 20.0295 171.411 19.9765C171.596 19.9236 171.767 19.8367 171.915 19.7212C172.063 19.6056 172.184 19.4637 172.272 19.3039C172.359 19.1441 172.411 18.9696 172.424 18.7909Z" fill="white"/>
<path d="M175.214 18.042C175.214 16.2518 176.209 15.1177 177.756 15.1177C178.138 15.1014 178.518 15.1862 178.85 15.3622C179.183 15.5382 179.454 15.7982 179.633 16.1117H179.723V13H180.931V20.8772H179.773V19.9821H179.678C179.485 20.2935 179.205 20.5502 178.866 20.7245C178.527 20.8987 178.143 20.9838 177.756 20.9706C176.198 20.9707 175.214 19.8365 175.214 18.042ZM176.462 18.042C176.462 19.2437 177.074 19.9668 178.098 19.9668C179.116 19.9668 179.746 19.2333 179.746 18.0469C179.746 16.8661 179.11 16.1222 178.098 16.1222C177.081 16.1222 176.462 16.8502 176.462 18.042Z" fill="white"/>
<path d="M185.93 18.042C185.891 17.6697 185.937 17.294 186.065 16.9391C186.192 16.5842 186.399 16.2579 186.67 15.9812C186.942 15.7044 187.274 15.4832 187.643 15.3319C188.013 15.1806 188.412 15.1024 188.817 15.1024C189.221 15.1024 189.62 15.1806 189.99 15.3319C190.36 15.4832 190.691 15.7044 190.963 15.9812C191.234 16.2579 191.441 16.5842 191.568 16.9391C191.696 17.294 191.742 17.6697 191.703 18.042C191.743 18.4147 191.697 18.7909 191.57 19.1464C191.443 19.5018 191.237 19.8287 190.965 20.1061C190.693 20.3834 190.361 20.605 189.991 20.7567C189.621 20.9083 189.221 20.9867 188.817 20.9867C188.412 20.9867 188.012 20.9083 187.642 20.7567C187.272 20.605 186.94 20.3834 186.668 20.1061C186.397 19.8287 186.19 19.5018 186.063 19.1464C185.936 18.7909 185.89 18.4147 185.93 18.042ZM190.461 18.042C190.461 16.8139 189.865 16.0957 188.819 16.0957C187.768 16.0957 187.178 16.8139 187.178 18.042C187.178 19.2799 187.768 19.9926 188.819 19.9926C189.865 19.9926 190.461 19.275 190.461 18.042Z" fill="white"/>
<path d="M193.324 15.2117H194.487V16.1117H194.578C194.731 15.7884 194.989 15.5175 195.317 15.3365C195.644 15.1556 196.024 15.0737 196.405 15.1023C196.702 15.0816 197.002 15.1232 197.28 15.2239C197.558 15.3247 197.808 15.4821 198.011 15.6845C198.215 15.8869 198.367 16.129 198.455 16.393C198.544 16.657 198.567 16.9361 198.523 17.2095V20.8772H197.315V17.4903C197.315 16.5799 196.888 16.1271 195.994 16.1271C195.792 16.1183 195.59 16.1502 195.403 16.2204C195.215 16.2907 195.046 16.3977 194.907 16.534C194.768 16.6704 194.663 16.8329 194.598 17.0105C194.534 17.1881 194.511 17.3765 194.533 17.5628V20.8772H193.324V15.2117Z" fill="white"/>
<path d="M205.35 13.8011V15.2375H206.676V16.1793H205.35V19.0926C205.35 19.686 205.614 19.9459 206.216 19.9459C206.37 19.9454 206.523 19.9368 206.676 19.9201V20.8514C206.459 20.8874 206.24 20.9065 206.019 20.9086C204.676 20.9086 204.141 20.4711 204.141 19.3788V16.1792H203.169V15.2374H204.141V13.8011H205.35Z" fill="white"/>
<path d="M208.327 13H209.524V16.1221H209.62C209.78 15.7959 210.046 15.5234 210.38 15.3417C210.714 15.1601 211.1 15.0782 211.486 15.1072C211.783 15.0923 212.079 15.1381 212.354 15.2413C212.629 15.3445 212.876 15.5027 213.077 15.7044C213.278 15.9061 213.429 16.1465 213.519 16.4084C213.608 16.6703 213.634 16.9472 213.594 17.2194V20.8772H212.385V17.4952C212.385 16.5903 211.93 16.132 211.076 16.132C210.868 16.1162 210.66 16.1426 210.464 16.2094C210.269 16.2761 210.091 16.3816 209.945 16.5184C209.798 16.6552 209.685 16.8201 209.614 17.0014C209.543 17.1828 209.516 17.3762 209.535 17.5683V20.8772H208.327L208.327 13Z" fill="white"/>
<path d="M220.639 19.3475C220.475 19.8653 220.119 20.3132 219.634 20.6128C219.149 20.9125 218.566 21.0448 217.986 20.9866C217.583 20.9964 217.182 20.9249 216.812 20.7771C216.441 20.6292 216.11 20.4085 215.841 20.1303C215.572 19.852 215.372 19.5229 215.254 19.1658C215.136 18.8087 215.103 18.4322 215.159 18.0623C215.105 17.6913 215.138 17.3139 215.255 16.9557C215.373 16.5975 215.572 16.2669 215.84 15.9863C216.108 15.7056 216.437 15.4814 216.807 15.3289C217.176 15.1764 217.577 15.0991 217.981 15.1023C219.684 15.1023 220.712 16.1793 220.712 17.9584V18.3486H216.389V18.4112C216.37 18.6192 216.399 18.8284 216.472 19.0256C216.546 19.2229 216.663 19.4037 216.816 19.5565C216.97 19.7093 217.156 19.8308 217.363 19.913C217.571 19.9953 217.794 20.0366 218.02 20.0343C218.308 20.0664 218.601 20.0183 218.861 19.896C219.12 19.7736 219.334 19.5827 219.476 19.3475L220.639 19.3475ZM216.389 17.5216H219.481C219.496 17.3315 219.468 17.1405 219.399 16.9609C219.33 16.7814 219.221 16.6172 219.079 16.479C218.937 16.3408 218.765 16.2315 218.575 16.1583C218.385 16.0851 218.18 16.0496 217.974 16.054C217.765 16.0515 217.558 16.0878 217.364 16.1607C217.171 16.2337 216.995 16.3417 216.847 16.4785C216.7 16.6152 216.583 16.778 216.504 16.9572C216.426 17.1363 216.386 17.3283 216.389 17.5216Z" fill="white"/>
<path d="M133.413 36.8675H126.981L125.436 41.1651H122.712L128.804 25.2651H131.635L137.728 41.1651H134.957L133.413 36.8675ZM127.647 34.8844H132.746L130.232 27.9097H130.162L127.647 34.8844Z" fill="white"/>
<path d="M150.885 35.3695C150.885 38.9719 148.839 41.2864 145.751 41.2864C144.969 41.3249 144.191 41.1551 143.506 40.7964C142.821 40.4378 142.258 39.9047 141.88 39.2582H141.821V45H139.296V29.5727H141.741V31.5008H141.787C142.182 30.8575 142.755 30.3271 143.445 29.9663C144.135 29.6054 144.916 29.4275 145.704 29.4514C148.827 29.4515 150.885 31.7772 150.885 35.3695ZM148.29 35.3695C148.29 33.0226 147.002 31.4796 145.038 31.4796C143.109 31.4796 141.811 33.0551 141.811 35.3695C141.811 37.7053 143.109 39.2695 145.038 39.2695C147.002 39.2695 148.29 37.7378 148.29 35.3695Z" fill="white"/>
<path d="M164.427 35.3695C164.427 38.9719 162.38 41.2864 159.292 41.2864C158.51 41.3249 157.732 41.1551 157.047 40.7964C156.363 40.4378 155.799 39.9047 155.421 39.2582H155.363V45H152.837V29.5727H155.282V31.5008H155.328C155.724 30.8575 156.297 30.3272 156.986 29.9663C157.676 29.6054 158.457 29.4275 159.246 29.4515C162.368 29.4515 164.427 31.7772 164.427 35.3695ZM161.831 35.3695C161.831 33.0226 160.544 31.4796 158.58 31.4796C156.65 31.4796 155.352 33.0551 155.352 35.3695C155.352 37.7053 156.65 39.2695 158.58 39.2695C160.544 39.2695 161.831 37.7378 161.831 35.3695Z" fill="white"/>
<path d="M173.376 36.735C173.563 38.3117 175.189 39.347 177.41 39.347C179.539 39.347 181.07 38.3116 181.07 36.8899C181.07 35.6558 180.147 34.9169 177.96 34.4104L175.773 33.914C172.674 33.2088 171.236 31.8434 171.236 29.6277C171.236 26.8843 173.773 25 177.376 25C180.942 25 183.386 26.8843 183.468 29.6277H180.919C180.766 28.0409 179.374 27.0832 177.34 27.0832C175.306 27.0832 173.914 28.0522 173.914 29.4626C173.914 30.5867 174.803 31.2482 176.978 31.7546L178.837 32.1847C182.299 32.9562 183.738 34.2666 183.738 36.5923C183.738 39.567 181.223 41.43 177.223 41.43C173.481 41.43 170.954 39.6107 170.791 36.7348L173.376 36.735Z" fill="white"/>
<path d="M189.188 26.8294V29.5727H191.528V31.4571H189.188V37.8478C189.188 38.8406 189.656 39.3032 190.685 39.3032C190.963 39.2987 191.24 39.2803 191.516 39.2482V41.1213C191.053 41.2027 190.583 41.2395 190.113 41.2313C187.622 41.2313 186.651 40.3498 186.651 38.1016V31.4571H184.862V29.5727H186.651V26.8294H189.188Z" fill="white"/>
<path d="M192.883 35.3695C192.883 31.7222 195.162 29.4302 198.718 29.4302C202.285 29.4302 204.554 31.7221 204.554 35.3695C204.554 39.0269 202.297 41.3089 198.718 41.3089C195.14 41.3089 192.883 39.0269 192.883 35.3695ZM201.981 35.3695C201.981 32.8675 200.764 31.3908 198.718 31.3908C196.671 31.3908 195.456 32.8788 195.456 35.3695C195.456 37.8816 196.671 39.347 198.718 39.347C200.764 39.347 201.981 37.8816 201.981 35.3695Z" fill="white"/>
<path d="M206.636 29.5727H209.045V31.5458H209.103C209.266 30.9296 209.649 30.385 210.188 30.0036C210.727 29.6222 211.389 29.4272 212.062 29.4514C212.354 29.4505 212.644 29.4802 212.928 29.5402V31.7659C212.56 31.6601 212.177 31.6115 211.793 31.6221C211.426 31.6081 211.06 31.669 210.721 31.8008C210.381 31.9325 210.076 32.1319 209.826 32.3853C209.576 32.6387 209.387 32.94 209.273 33.2687C209.158 33.5973 209.12 33.9454 209.161 34.2892V41.1651H206.636L206.636 29.5727Z" fill="white"/>
<path d="M224.571 37.7603C224.232 39.8647 222.056 41.3089 219.274 41.3089C215.695 41.3089 213.473 39.0494 213.473 35.4245C213.473 31.7884 215.707 29.4302 219.167 29.4302C222.571 29.4302 224.712 31.6334 224.712 35.1482V35.9635H216.022V36.1072C215.982 36.5339 216.039 36.9637 216.189 37.3681C216.338 37.7725 216.578 38.1422 216.891 38.4528C217.204 38.7633 217.583 39.0076 218.004 39.1693C218.425 39.331 218.878 39.4065 219.332 39.3908C219.929 39.4434 220.528 39.3132 221.04 39.0194C221.552 38.7257 221.949 38.284 222.173 37.7603L224.571 37.7603ZM216.034 34.3004H222.185C222.208 33.9168 222.146 33.533 222.004 33.1729C221.862 32.8128 221.642 32.4844 221.359 32.2081C221.075 31.9318 220.734 31.7137 220.357 31.5675C219.98 31.4213 219.575 31.35 219.167 31.3583C218.756 31.356 218.349 31.4304 217.968 31.5773C217.587 31.7243 217.242 31.9407 216.95 32.2143C216.659 32.4878 216.428 32.813 216.271 33.171C216.114 33.5291 216.033 33.9129 216.034 34.3004Z" fill="white"/>
</svg>
