<svg width="143" height="20" viewBox="0 0 143 20" fill="none" xmlns="http://www.w3.org/2000/svg">
<path d="M3 4.16667C3 3.24619 3.74619 2.5 4.66667 2.5H7.39937C7.75806 2.5 8.07651 2.72953 8.18994 3.06981L9.43811 6.81434C9.56926 7.20777 9.39115 7.63776 9.02022 7.82322L7.13917 8.76375C8.05771 10.801 9.69898 12.4423 11.7363 13.3608L12.6768 11.4798C12.8622 11.1088 13.2922 10.9307 13.6857 11.0619L17.4302 12.3101C17.7705 12.4235 18 12.7419 18 13.1006V15.8333C18 16.7538 17.2538 17.5 16.3333 17.5H15.5C8.59644 17.5 3 11.9036 3 5V4.16667Z" stroke="#E1E1E1" stroke-width="2" stroke-linecap="round" stroke-linejoin="round"/>
<path d="M32.508 11.056H35.124V11.872H32.508V14.5H31.692V11.872H29.076V11.056H31.692V8.428H32.508V11.056ZM39.7633 11.608V7.444H39.7393L36.9073 11.608H39.7633ZM40.7233 11.608H41.8753V12.508H40.7233V14.5H39.7633V12.508H36.0313V11.524L39.9073 5.992H40.7233V11.608ZM46.4313 11.608V7.444H46.4073L43.5753 11.608H46.4313ZM47.3913 11.608H48.5433V12.508H47.3913V14.5H46.4313V12.508H42.6993V11.524L46.5753 5.992H47.3913V11.608ZM54.8191 16.864C54.5311 16.416 54.2711 15.968 54.0391 15.52C53.8071 15.08 53.6071 14.632 53.4391 14.176C53.2791 13.72 53.1551 13.252 53.0671 12.772C52.9791 12.292 52.9351 11.788 52.9351 11.26C52.9351 10.316 53.0911 9.364 53.4031 8.404C53.7231 7.444 54.1951 6.552 54.8191 5.728H55.5991C55.0231 6.64 54.6151 7.544 54.3751 8.44C54.1351 9.336 54.0151 10.276 54.0151 11.26C54.0151 12.268 54.1351 13.224 54.3751 14.128C54.6231 15.032 55.0311 15.944 55.5991 16.864H54.8191ZM57.0606 10.312C57.0606 10.632 57.0686 10.992 57.0846 11.392C57.1086 11.784 57.1726 12.156 57.2766 12.508C57.3886 12.852 57.5646 13.144 57.8046 13.384C58.0446 13.624 58.3806 13.744 58.8126 13.744C59.2446 13.744 59.5806 13.624 59.8206 13.384C60.0606 13.144 60.2326 12.852 60.3366 12.508C60.4486 12.156 60.5126 11.784 60.5286 11.392C60.5526 10.992 60.5646 10.632 60.5646 10.312C60.5646 10.104 60.5606 9.876 60.5526 9.628C60.5526 9.372 60.5326 9.12 60.4926 8.872C60.4606 8.616 60.4086 8.368 60.3366 8.128C60.2726 7.888 60.1726 7.68 60.0366 7.504C59.9086 7.32 59.7446 7.172 59.5446 7.06C59.3446 6.948 59.1006 6.892 58.8126 6.892C58.5246 6.892 58.2806 6.948 58.0806 7.06C57.8806 7.172 57.7126 7.32 57.5766 7.504C57.4486 7.68 57.3486 7.888 57.2766 8.128C57.2126 8.368 57.1606 8.616 57.1206 8.872C57.0886 9.12 57.0686 9.372 57.0606 9.628C57.0606 9.876 57.0606 10.104 57.0606 10.312ZM55.9806 10.324C55.9806 10.012 55.9886 9.688 56.0046 9.352C56.0206 9.016 56.0606 8.688 56.1246 8.368C56.1886 8.048 56.2806 7.744 56.4006 7.456C56.5206 7.168 56.6846 6.916 56.8926 6.7C57.1006 6.484 57.3606 6.312 57.6726 6.184C57.9926 6.056 58.3726 5.992 58.8126 5.992C59.2526 5.992 59.6286 6.056 59.9406 6.184C60.2606 6.312 60.5246 6.484 60.7326 6.7C60.9406 6.916 61.1046 7.168 61.2246 7.456C61.3446 7.744 61.4366 8.048 61.5006 8.368C61.5646 8.688 61.6046 9.016 61.6206 9.352C61.6366 9.688 61.6446 10.012 61.6446 10.324C61.6446 10.636 61.6366 10.96 61.6206 11.296C61.6046 11.632 61.5646 11.96 61.5006 12.28C61.4366 12.6 61.3446 12.904 61.2246 13.192C61.1046 13.472 60.9406 13.72 60.7326 13.936C60.5246 14.152 60.2646 14.324 59.9526 14.452C59.6406 14.572 59.2606 14.632 58.8126 14.632C58.3726 14.632 57.9926 14.572 57.6726 14.452C57.3606 14.324 57.1006 14.152 56.8926 13.936C56.6846 13.72 56.5206 13.472 56.4006 13.192C56.2806 12.904 56.1886 12.6 56.1246 12.28C56.0606 11.96 56.0206 11.632 56.0046 11.296C55.9886 10.96 55.9806 10.636 55.9806 10.324ZM62.0365 16.864C62.6045 15.96 63.0085 15.06 63.2485 14.164C63.4885 13.26 63.6085 12.32 63.6085 11.344C63.6085 10.336 63.4845 9.38 63.2365 8.476C62.9965 7.564 62.5965 6.648 62.0365 5.728H62.8045C63.0925 6.176 63.3525 6.624 63.5845 7.072C63.8165 7.512 64.0125 7.964 64.1725 8.428C64.3405 8.884 64.4685 9.352 64.5565 9.832C64.6445 10.312 64.6885 10.816 64.6885 11.344C64.6885 12.288 64.5285 13.24 64.2085 14.2C63.8965 15.152 63.4285 16.04 62.8045 16.864H62.0365ZM69.1178 9.004C69.0938 8.572 69.1378 8.172 69.2498 7.804C69.3618 7.436 69.5338 7.12 69.7658 6.856C70.0058 6.584 70.3018 6.372 70.6538 6.22C71.0058 6.068 71.4058 5.992 71.8538 5.992C72.2218 5.992 72.5658 6.048 72.8858 6.16C73.2138 6.264 73.4978 6.42 73.7378 6.628C73.9778 6.828 74.1658 7.08 74.3018 7.384C74.4458 7.688 74.5178 8.04 74.5178 8.44C74.5178 8.816 74.4578 9.148 74.3378 9.436C74.2258 9.724 74.0738 9.984 73.8818 10.216C73.6898 10.44 73.4698 10.644 73.2218 10.828C72.9738 11.012 72.7178 11.188 72.4538 11.356C72.1898 11.516 71.9258 11.676 71.6618 11.836C71.3978 11.988 71.1538 12.152 70.9298 12.328C70.7138 12.504 70.5258 12.696 70.3658 12.904C70.2138 13.104 70.1138 13.336 70.0658 13.6H74.4338V14.5H68.8778C68.9178 13.996 69.0058 13.568 69.1418 13.216C69.2858 12.856 69.4658 12.544 69.6818 12.28C69.8978 12.016 70.1418 11.784 70.4138 11.584C70.6858 11.384 70.9698 11.196 71.2658 11.02C71.6258 10.796 71.9418 10.592 72.2138 10.408C72.4858 10.216 72.7098 10.024 72.8858 9.832C73.0698 9.64 73.2058 9.432 73.2938 9.208C73.3898 8.984 73.4378 8.724 73.4378 8.428C73.4378 8.196 73.3938 7.988 73.3058 7.804C73.2178 7.612 73.0978 7.448 72.9458 7.312C72.8018 7.176 72.6298 7.072 72.4298 7C72.2298 6.928 72.0178 6.892 71.7938 6.892C71.4978 6.892 71.2418 6.956 71.0258 7.084C70.8178 7.204 70.6458 7.364 70.5098 7.564C70.3738 7.764 70.2738 7.992 70.2098 8.248C70.1538 8.496 70.1298 8.748 70.1378 9.004H69.1178ZM76.8418 10.312C76.8418 10.632 76.8498 10.992 76.8658 11.392C76.8898 11.784 76.9538 12.156 77.0578 12.508C77.1698 12.852 77.3458 13.144 77.5858 13.384C77.8258 13.624 78.1618 13.744 78.5938 13.744C79.0258 13.744 79.3618 13.624 79.6018 13.384C79.8418 13.144 80.0138 12.852 80.1178 12.508C80.2298 12.156 80.2938 11.784 80.3098 11.392C80.3338 10.992 80.3458 10.632 80.3458 10.312C80.3458 10.104 80.3418 9.876 80.3338 9.628C80.3338 9.372 80.3138 9.12 80.2738 8.872C80.2418 8.616 80.1898 8.368 80.1178 8.128C80.0538 7.888 79.9538 7.68 79.8178 7.504C79.6898 7.32 79.5258 7.172 79.3258 7.06C79.1258 6.948 78.8818 6.892 78.5938 6.892C78.3058 6.892 78.0618 6.948 77.8618 7.06C77.6618 7.172 77.4938 7.32 77.3578 7.504C77.2298 7.68 77.1298 7.888 77.0578 8.128C76.9938 8.368 76.9418 8.616 76.9018 8.872C76.8698 9.12 76.8498 9.372 76.8418 9.628C76.8418 9.876 76.8418 10.104 76.8418 10.312ZM75.7618 10.324C75.7618 10.012 75.7698 9.688 75.7858 9.352C75.8018 9.016 75.8418 8.688 75.9058 8.368C75.9698 8.048 76.0618 7.744 76.1818 7.456C76.3018 7.168 76.4658 6.916 76.6738 6.7C76.8818 6.484 77.1418 6.312 77.4538 6.184C77.7738 6.056 78.1538 5.992 78.5938 5.992C79.0338 5.992 79.4098 6.056 79.7218 6.184C80.0418 6.312 80.3058 6.484 80.5138 6.7C80.7218 6.916 80.8858 7.168 81.0058 7.456C81.1258 7.744 81.2178 8.048 81.2818 8.368C81.3458 8.688 81.3858 9.016 81.4018 9.352C81.4178 9.688 81.4258 10.012 81.4258 10.324C81.4258 10.636 81.4178 10.96 81.4018 11.296C81.3858 11.632 81.3458 11.96 81.2818 12.28C81.2178 12.6 81.1258 12.904 81.0058 13.192C80.8858 13.472 80.7218 13.72 80.5138 13.936C80.3058 14.152 80.0458 14.324 79.7338 14.452C79.4218 14.572 79.0418 14.632 78.5938 14.632C78.1538 14.632 77.7738 14.572 77.4538 14.452C77.1418 14.324 76.8818 14.152 76.6738 13.936C76.4658 13.72 76.3018 13.472 76.1818 13.192C76.0618 12.904 75.9698 12.6 75.9058 12.28C75.8418 11.96 75.8018 11.632 75.7858 11.296C75.7698 10.96 75.7618 10.636 75.7618 10.324ZM88.0338 7.012C87.6018 7.436 87.1978 7.94 86.8218 8.524C86.4458 9.108 86.1098 9.732 85.8138 10.396C85.5258 11.06 85.2898 11.744 85.1058 12.448C84.9218 13.152 84.8098 13.836 84.7698 14.5H83.6298C83.6778 13.78 83.7938 13.08 83.9778 12.4C84.1698 11.712 84.4138 11.056 84.7098 10.432C85.0058 9.8 85.3458 9.204 85.7298 8.644C86.1218 8.084 86.5418 7.568 86.9898 7.096H82.5258V6.136H88.0338V7.012ZM96.2056 14.5H95.1856V8.404H92.9776V7.588C93.2656 7.588 93.5456 7.568 93.8176 7.528C94.0896 7.48 94.3336 7.396 94.5496 7.276C94.7736 7.156 94.9616 6.992 95.1136 6.784C95.2656 6.576 95.3696 6.312 95.4256 5.992H96.2056V14.5ZM102.874 14.5H101.854V8.404H99.6456V7.588C99.9336 7.588 100.214 7.568 100.486 7.528C100.758 7.48 101.002 7.396 101.218 7.276C101.442 7.156 101.63 6.992 101.782 6.784C101.934 6.576 102.038 6.312 102.094 5.992H102.874V14.5ZM105.798 9.004C105.774 8.572 105.818 8.172 105.93 7.804C106.042 7.436 106.214 7.12 106.446 6.856C106.686 6.584 106.982 6.372 107.334 6.22C107.686 6.068 108.086 5.992 108.534 5.992C108.902 5.992 109.246 6.048 109.566 6.16C109.894 6.264 110.178 6.42 110.418 6.628C110.658 6.828 110.846 7.08 110.982 7.384C111.126 7.688 111.198 8.04 111.198 8.44C111.198 8.816 111.138 9.148 111.018 9.436C110.906 9.724 110.754 9.984 110.562 10.216C110.37 10.44 110.15 10.644 109.902 10.828C109.654 11.012 109.398 11.188 109.134 11.356C108.87 11.516 108.606 11.676 108.342 11.836C108.078 11.988 107.834 12.152 107.61 12.328C107.394 12.504 107.206 12.696 107.046 12.904C106.894 13.104 106.794 13.336 106.746 13.6H111.114V14.5H105.558C105.598 13.996 105.686 13.568 105.822 13.216C105.966 12.856 106.146 12.544 106.362 12.28C106.578 12.016 106.822 11.784 107.094 11.584C107.366 11.384 107.65 11.196 107.946 11.02C108.306 10.796 108.622 10.592 108.894 10.408C109.166 10.216 109.39 10.024 109.566 9.832C109.75 9.64 109.886 9.432 109.974 9.208C110.07 8.984 110.118 8.724 110.118 8.428C110.118 8.196 110.074 7.988 109.986 7.804C109.898 7.612 109.778 7.448 109.626 7.312C109.482 7.176 109.31 7.072 109.11 7C108.91 6.928 108.698 6.892 108.474 6.892C108.178 6.892 107.922 6.956 107.706 7.084C107.498 7.204 107.326 7.364 107.19 7.564C107.054 7.764 106.954 7.992 106.89 8.248C106.834 8.496 106.81 8.748 106.818 9.004H105.798ZM117.137 8.2C117.137 8.432 117.177 8.636 117.257 8.812C117.337 8.98 117.445 9.12 117.581 9.232C117.717 9.344 117.877 9.428 118.061 9.484C118.245 9.54 118.441 9.568 118.649 9.568C119.057 9.568 119.393 9.448 119.657 9.208C119.921 8.968 120.053 8.632 120.053 8.2C120.053 7.768 119.917 7.444 119.645 7.228C119.381 7.004 119.041 6.892 118.625 6.892C118.425 6.892 118.233 6.92 118.049 6.976C117.865 7.032 117.705 7.116 117.569 7.228C117.441 7.34 117.337 7.476 117.257 7.636C117.177 7.796 117.137 7.984 117.137 8.2ZM116.057 8.164C116.057 7.812 116.125 7.504 116.261 7.24C116.397 6.968 116.581 6.74 116.813 6.556C117.045 6.372 117.309 6.232 117.605 6.136C117.909 6.04 118.225 5.992 118.553 5.992C119.017 5.992 119.413 6.056 119.741 6.184C120.069 6.304 120.333 6.468 120.533 6.676C120.741 6.876 120.893 7.108 120.989 7.372C121.085 7.628 121.133 7.892 121.133 8.164C121.133 8.548 121.025 8.9 120.809 9.22C120.601 9.532 120.317 9.768 119.957 9.928C120.469 10.088 120.849 10.352 121.097 10.72C121.345 11.08 121.469 11.524 121.469 12.052C121.469 12.468 121.393 12.836 121.241 13.156C121.097 13.476 120.897 13.748 120.641 13.972C120.393 14.188 120.097 14.352 119.753 14.464C119.409 14.576 119.041 14.632 118.649 14.632C118.241 14.632 117.861 14.58 117.509 14.476C117.157 14.372 116.849 14.212 116.585 13.996C116.329 13.78 116.125 13.512 115.973 13.192C115.829 12.864 115.757 12.484 115.757 12.052C115.757 11.548 115.885 11.112 116.141 10.744C116.397 10.368 116.765 10.096 117.245 9.928C116.885 9.784 116.597 9.552 116.381 9.232C116.165 8.904 116.057 8.548 116.057 8.164ZM116.837 12.1C116.837 12.612 117.005 13.016 117.341 13.312C117.685 13.6 118.121 13.744 118.649 13.744C118.905 13.744 119.137 13.704 119.345 13.624C119.561 13.536 119.745 13.42 119.897 13.276C120.057 13.124 120.177 12.948 120.257 12.748C120.345 12.548 120.389 12.328 120.389 12.088C120.389 11.856 120.341 11.644 120.245 11.452C120.157 11.252 120.033 11.08 119.873 10.936C119.713 10.792 119.525 10.68 119.309 10.6C119.101 10.512 118.877 10.468 118.637 10.468C118.389 10.468 118.153 10.508 117.929 10.588C117.713 10.66 117.521 10.768 117.353 10.912C117.193 11.056 117.065 11.228 116.969 11.428C116.881 11.628 116.837 11.852 116.837 12.1ZM126.217 14.5H125.197V8.404H122.989V7.588C123.277 7.588 123.557 7.568 123.829 7.528C124.101 7.48 124.345 7.396 124.561 7.276C124.785 7.156 124.973 6.992 125.125 6.784C125.277 6.576 125.381 6.312 125.437 5.992H126.217V14.5ZM130.197 10.312C130.197 10.632 130.205 10.992 130.221 11.392C130.245 11.784 130.309 12.156 130.413 12.508C130.525 12.852 130.701 13.144 130.941 13.384C131.181 13.624 131.517 13.744 131.949 13.744C132.381 13.744 132.717 13.624 132.957 13.384C133.197 13.144 133.369 12.852 133.473 12.508C133.585 12.156 133.649 11.784 133.665 11.392C133.689 10.992 133.701 10.632 133.701 10.312C133.701 10.104 133.697 9.876 133.689 9.628C133.689 9.372 133.669 9.12 133.629 8.872C133.597 8.616 133.545 8.368 133.473 8.128C133.409 7.888 133.309 7.68 133.173 7.504C133.045 7.32 132.881 7.172 132.681 7.06C132.481 6.948 132.237 6.892 131.949 6.892C131.661 6.892 131.417 6.948 131.217 7.06C131.017 7.172 130.849 7.32 130.713 7.504C130.585 7.68 130.485 7.888 130.413 8.128C130.349 8.368 130.297 8.616 130.257 8.872C130.225 9.12 130.205 9.372 130.197 9.628C130.197 9.876 130.197 10.104 130.197 10.312ZM129.117 10.324C129.117 10.012 129.125 9.688 129.141 9.352C129.157 9.016 129.197 8.688 129.261 8.368C129.325 8.048 129.417 7.744 129.537 7.456C129.657 7.168 129.821 6.916 130.029 6.7C130.237 6.484 130.497 6.312 130.809 6.184C131.129 6.056 131.509 5.992 131.949 5.992C132.389 5.992 132.765 6.056 133.077 6.184C133.397 6.312 133.661 6.484 133.869 6.7C134.077 6.916 134.241 7.168 134.361 7.456C134.481 7.744 134.573 8.048 134.637 8.368C134.701 8.688 134.741 9.016 134.757 9.352C134.773 9.688 134.781 10.012 134.781 10.324C134.781 10.636 134.773 10.96 134.757 11.296C134.741 11.632 134.701 11.96 134.637 12.28C134.573 12.6 134.481 12.904 134.361 13.192C134.241 13.472 134.077 13.72 133.869 13.936C133.661 14.152 133.401 14.324 133.089 14.452C132.777 14.572 132.397 14.632 131.949 14.632C131.509 14.632 131.129 14.572 130.809 14.452C130.497 14.324 130.237 14.152 130.029 13.936C129.821 13.72 129.657 13.472 129.537 13.192C129.417 12.904 129.325 12.6 129.261 12.28C129.197 11.96 129.157 11.632 129.141 11.296C129.125 10.96 129.117 10.636 129.117 10.324ZM139.553 14.5H138.533V8.404H136.325V7.588C136.613 7.588 136.893 7.568 137.165 7.528C137.437 7.48 137.681 7.396 137.897 7.276C138.121 7.156 138.309 6.992 138.461 6.784C138.613 6.576 138.717 6.312 138.773 5.992H139.553V14.5Z" fill="#E1E1E1"/>
</svg>
