<svg width="20" height="20" viewBox="0 0 20 20" fill="none" xmlns="http://www.w3.org/2000/svg">
<path fill-rule="evenodd" clip-rule="evenodd" d="M10 18C14.4183 18 18 14.4183 18 10C18 5.58172 14.4183 2 10 2C5.58172 2 2 5.58172 2 10C2 14.4183 5.58172 18 10 18ZM10.6 6C10.6 5.66863 10.3314 5.4 10 5.4C9.66863 5.4 9.4 5.66863 9.4 6V10C9.4 10.1591 9.46321 10.3117 9.57574 10.4243L12.4042 13.2527C12.6385 13.487 13.0184 13.487 13.2527 13.2527C13.487 13.0184 13.487 12.6385 13.2527 12.4042L10.6 9.75147V6Z" fill="#B2B2B2"/>
</svg>
