<svg width="149" height="20" viewBox="0 0 149 20" fill="none" xmlns="http://www.w3.org/2000/svg">
<path d="M3 6.66667L9.5755 11.0503C10.1353 11.4236 10.8647 11.4236 11.4245 11.0503L18 6.66667M4.66667 15.8333H16.3333C17.2538 15.8333 18 15.0871 18 14.1667V5.83334C18 4.91286 17.2538 4.16667 16.3333 4.16667H4.66667C3.74619 4.16667 3 4.91286 3 5.83334V14.1667C3 15.0871 3.74619 15.8333 4.66667 15.8333Z" stroke="#E1E1E1" stroke-width="2" stroke-linecap="round" stroke-linejoin="round"/>
<path d="M29.304 5.932H30.324V9.136H30.348C30.516 8.792 30.78 8.544 31.14 8.392C31.5 8.232 31.896 8.152 32.328 8.152C32.808 8.152 33.224 8.24 33.576 8.416C33.936 8.592 34.232 8.832 34.464 9.136C34.704 9.432 34.884 9.776 35.004 10.168C35.124 10.56 35.184 10.976 35.184 11.416C35.184 11.856 35.124 12.272 35.004 12.664C34.892 13.056 34.716 13.4 34.476 13.696C34.244 13.984 33.948 14.212 33.588 14.38C33.236 14.548 32.824 14.632 32.352 14.632C32.2 14.632 32.028 14.616 31.836 14.584C31.652 14.552 31.468 14.5 31.284 14.428C31.1 14.356 30.924 14.26 30.756 14.14C30.596 14.012 30.46 13.856 30.348 13.672H30.324V14.5H29.304V5.932ZM34.104 11.344C34.104 11.056 34.064 10.776 33.984 10.504C33.912 10.224 33.796 9.976 33.636 9.76C33.484 9.544 33.284 9.372 33.036 9.244C32.796 9.116 32.512 9.052 32.184 9.052C31.84 9.052 31.548 9.12 31.308 9.256C31.068 9.392 30.872 9.572 30.72 9.796C30.568 10.012 30.456 10.26 30.384 10.54C30.32 10.82 30.288 11.104 30.288 11.392C30.288 11.696 30.324 11.992 30.396 12.28C30.468 12.56 30.58 12.808 30.732 13.024C30.892 13.24 31.096 13.416 31.344 13.552C31.592 13.68 31.892 13.744 32.244 13.744C32.596 13.744 32.888 13.676 33.12 13.54C33.36 13.404 33.552 13.224 33.696 13C33.84 12.776 33.944 12.52 34.008 12.232C34.072 11.944 34.104 11.648 34.104 11.344ZM37.1253 11.404C37.1253 11.78 37.1733 12.116 37.2693 12.412C37.3733 12.7 37.5133 12.944 37.6893 13.144C37.8653 13.336 38.0693 13.484 38.3013 13.588C38.5413 13.692 38.7933 13.744 39.0573 13.744C39.3213 13.744 39.5693 13.692 39.8013 13.588C40.0413 13.484 40.2493 13.336 40.4253 13.144C40.6013 12.944 40.7373 12.7 40.8333 12.412C40.9373 12.116 40.9893 11.78 40.9893 11.404C40.9893 11.028 40.9373 10.696 40.8333 10.408C40.7373 10.112 40.6013 9.864 40.4253 9.664C40.2493 9.464 40.0413 9.312 39.8013 9.208C39.5693 9.104 39.3213 9.052 39.0573 9.052C38.7933 9.052 38.5413 9.104 38.3013 9.208C38.0693 9.312 37.8653 9.464 37.6893 9.664C37.5133 9.864 37.3733 10.112 37.2693 10.408C37.1733 10.696 37.1253 11.028 37.1253 11.404ZM36.0453 11.404C36.0453 10.948 36.1093 10.524 36.2373 10.132C36.3653 9.732 36.5573 9.388 36.8133 9.1C37.0693 8.804 37.3853 8.572 37.7613 8.404C38.1373 8.236 38.5693 8.152 39.0573 8.152C39.5533 8.152 39.9853 8.236 40.3533 8.404C40.7293 8.572 41.0453 8.804 41.3013 9.1C41.5573 9.388 41.7493 9.732 41.8773 10.132C42.0053 10.524 42.0693 10.948 42.0693 11.404C42.0693 11.86 42.0053 12.284 41.8773 12.676C41.7493 13.068 41.5573 13.412 41.3013 13.708C41.0453 13.996 40.7293 14.224 40.3533 14.392C39.9853 14.552 39.5533 14.632 39.0573 14.632C38.5693 14.632 38.1373 14.552 37.7613 14.392C37.3853 14.224 37.0693 13.996 36.8133 13.708C36.5573 13.412 36.3653 13.068 36.2373 12.676C36.1093 12.284 36.0453 11.86 36.0453 11.404ZM44.0159 11.404C44.0159 11.78 44.0639 12.116 44.1599 12.412C44.2639 12.7 44.4039 12.944 44.5799 13.144C44.7559 13.336 44.9599 13.484 45.1919 13.588C45.4319 13.692 45.6839 13.744 45.9479 13.744C46.2119 13.744 46.4599 13.692 46.6919 13.588C46.9319 13.484 47.1399 13.336 47.3159 13.144C47.4919 12.944 47.6279 12.7 47.7239 12.412C47.8279 12.116 47.8799 11.78 47.8799 11.404C47.8799 11.028 47.8279 10.696 47.7239 10.408C47.6279 10.112 47.4919 9.864 47.3159 9.664C47.1399 9.464 46.9319 9.312 46.6919 9.208C46.4599 9.104 46.2119 9.052 45.9479 9.052C45.6839 9.052 45.4319 9.104 45.1919 9.208C44.9599 9.312 44.7559 9.464 44.5799 9.664C44.4039 9.864 44.2639 10.112 44.1599 10.408C44.0639 10.696 44.0159 11.028 44.0159 11.404ZM42.9359 11.404C42.9359 10.948 42.9999 10.524 43.1279 10.132C43.2559 9.732 43.4479 9.388 43.7039 9.1C43.9599 8.804 44.2759 8.572 44.6519 8.404C45.0279 8.236 45.4599 8.152 45.9479 8.152C46.4439 8.152 46.8759 8.236 47.2439 8.404C47.6199 8.572 47.9359 8.804 48.1919 9.1C48.4479 9.388 48.6399 9.732 48.7679 10.132C48.8959 10.524 48.9599 10.948 48.9599 11.404C48.9599 11.86 48.8959 12.284 48.7679 12.676C48.6399 13.068 48.4479 13.412 48.1919 13.708C47.9359 13.996 47.6199 14.224 47.2439 14.392C46.8759 14.552 46.4439 14.632 45.9479 14.632C45.4599 14.632 45.0279 14.552 44.6519 14.392C44.2759 14.224 43.9599 13.996 43.7039 13.708C43.4479 13.412 43.2559 13.068 43.1279 12.676C42.9999 12.284 42.9359 11.86 42.9359 11.404ZM50.2225 5.932H51.2425V11.008L54.0745 8.296H55.4425L52.9825 10.552L55.6225 14.5H54.3265L52.2025 11.26L51.2425 12.148V14.5H50.2225V5.932ZM57.4652 7.18H56.4452V5.932H57.4652V7.18ZM56.4452 8.296H57.4652V14.5H56.4452V8.296ZM59.0453 8.296H60.0053V9.28H60.0293C60.4533 8.528 61.1253 8.152 62.0453 8.152C62.4533 8.152 62.7933 8.208 63.0653 8.32C63.3373 8.432 63.5573 8.588 63.7253 8.788C63.8933 8.988 64.0093 9.228 64.0733 9.508C64.1453 9.78 64.1813 10.084 64.1813 10.42V14.5H63.1613V10.3C63.1613 9.916 63.0493 9.612 62.8253 9.388C62.6013 9.164 62.2933 9.052 61.9013 9.052C61.5893 9.052 61.3173 9.1 61.0853 9.196C60.8613 9.292 60.6733 9.428 60.5213 9.604C60.3693 9.78 60.2533 9.988 60.1733 10.228C60.1013 10.46 60.0653 10.716 60.0653 10.996V14.5H59.0453V8.296ZM71.0653 13.972C71.0653 14.988 70.8333 15.748 70.3693 16.252C69.9053 16.756 69.1773 17.008 68.1853 17.008C67.8973 17.008 67.6013 16.976 67.2973 16.912C67.0013 16.848 66.7293 16.744 66.4813 16.6C66.2413 16.456 66.0413 16.268 65.8813 16.036C65.7213 15.804 65.6333 15.52 65.6173 15.184H66.6373C66.6453 15.368 66.7013 15.524 66.8053 15.652C66.9173 15.78 67.0493 15.884 67.2013 15.964C67.3613 16.044 67.5333 16.1 67.7173 16.132C67.9013 16.172 68.0773 16.192 68.2453 16.192C68.5813 16.192 68.8653 16.132 69.0973 16.012C69.3293 15.9 69.5213 15.74 69.6733 15.532C69.8253 15.332 69.9333 15.088 69.9973 14.8C70.0693 14.512 70.1053 14.196 70.1053 13.852V13.444H70.0813C69.9053 13.828 69.6373 14.112 69.2773 14.296C68.9253 14.472 68.5493 14.56 68.1493 14.56C67.6853 14.56 67.2813 14.476 66.9373 14.308C66.5933 14.14 66.3053 13.916 66.0733 13.636C65.8413 13.348 65.6653 13.016 65.5453 12.64C65.4333 12.256 65.3773 11.852 65.3773 11.428C65.3773 11.06 65.4253 10.684 65.5213 10.3C65.6173 9.908 65.7773 9.556 66.0013 9.244C66.2253 8.924 66.5213 8.664 66.8893 8.464C67.2573 8.256 67.7093 8.152 68.2453 8.152C68.6373 8.152 68.9973 8.24 69.3253 8.416C69.6533 8.584 69.9093 8.84 70.0933 9.184H70.1053V8.296H71.0653V13.972ZM68.2093 13.672C68.5453 13.672 68.8293 13.604 69.0613 13.468C69.3013 13.324 69.4933 13.14 69.6373 12.916C69.7813 12.684 69.8853 12.424 69.9493 12.136C70.0213 11.848 70.0573 11.56 70.0573 11.272C70.0573 11 70.0253 10.732 69.9613 10.468C69.8973 10.204 69.7933 9.968 69.6493 9.76C69.5133 9.544 69.3333 9.372 69.1093 9.244C68.8853 9.116 68.6133 9.052 68.2933 9.052C67.9653 9.052 67.6853 9.116 67.4533 9.244C67.2213 9.364 67.0293 9.528 66.8773 9.736C66.7333 9.944 66.6253 10.184 66.5533 10.456C66.4893 10.728 66.4573 11.012 66.4573 11.308C66.4573 11.588 66.4853 11.868 66.5413 12.148C66.5973 12.428 66.6933 12.684 66.8293 12.916C66.9653 13.14 67.1453 13.324 67.3693 13.468C67.5933 13.604 67.8733 13.672 68.2093 13.672ZM78.2439 11.26C78.2119 11.364 78.1799 11.472 78.1479 11.584C78.1239 11.688 78.1119 11.784 78.1119 11.872C78.1119 12.12 78.2079 12.244 78.3999 12.244C78.5839 12.244 78.7719 12.16 78.9639 11.992C79.1639 11.824 79.3439 11.608 79.5039 11.344C79.6639 11.08 79.7959 10.784 79.8999 10.456C80.0039 10.128 80.0559 9.804 80.0559 9.484C80.0559 9.012 79.9639 8.584 79.7799 8.2C79.6039 7.816 79.3639 7.492 79.0599 7.228C78.7559 6.956 78.4079 6.748 78.0159 6.604C77.6319 6.46 77.2279 6.388 76.8039 6.388C76.2919 6.388 75.8119 6.492 75.3639 6.7C74.9239 6.9 74.5399 7.176 74.2119 7.528C73.8839 7.88 73.6239 8.288 73.4319 8.752C73.2479 9.216 73.1559 9.712 73.1559 10.24C73.1559 10.776 73.2519 11.276 73.4439 11.74C73.6439 12.204 73.9119 12.608 74.2479 12.952C74.5919 13.288 74.9879 13.556 75.4359 13.756C75.8839 13.948 76.3599 14.044 76.8639 14.044C77.4399 14.044 77.9919 13.912 78.5199 13.648C79.0559 13.384 79.4959 13.032 79.8399 12.592H80.5959C80.4039 12.928 80.1719 13.228 79.8999 13.492C79.6279 13.748 79.3279 13.968 78.9999 14.152C78.6799 14.328 78.3359 14.46 77.9679 14.548C77.5999 14.644 77.2239 14.692 76.8399 14.692C76.2079 14.692 75.6159 14.576 75.0639 14.344C74.5199 14.112 74.0439 13.796 73.6359 13.396C73.2359 12.988 72.9199 12.512 72.6879 11.968C72.4559 11.416 72.3399 10.82 72.3399 10.18C72.3399 9.564 72.4559 8.988 72.6879 8.452C72.9279 7.908 73.2479 7.436 73.6479 7.036C74.0559 6.628 74.5279 6.308 75.0639 6.076C75.6079 5.844 76.1839 5.728 76.7919 5.728C77.3439 5.728 77.8679 5.82 78.3639 6.004C78.8599 6.188 79.2919 6.444 79.6599 6.772C80.0359 7.092 80.3319 7.48 80.5479 7.936C80.7639 8.384 80.8719 8.88 80.8719 9.424C80.8719 9.944 80.7759 10.42 80.5839 10.852C80.3999 11.276 80.1679 11.64 79.8879 11.944C79.6079 12.248 79.3039 12.484 78.9759 12.652C78.6479 12.82 78.3439 12.904 78.0639 12.904C77.8559 12.904 77.6799 12.84 77.5359 12.712C77.3919 12.584 77.3119 12.388 77.2959 12.124H77.2599C77.0759 12.332 76.8559 12.52 76.5999 12.688C76.3439 12.848 76.0679 12.928 75.7719 12.928C75.5159 12.928 75.2799 12.88 75.0639 12.784C74.8559 12.68 74.6759 12.544 74.5239 12.376C74.3799 12.208 74.2639 12.008 74.1759 11.776C74.0959 11.544 74.0559 11.296 74.0559 11.032C74.0559 10.616 74.1239 10.204 74.2599 9.796C74.3959 9.388 74.5839 9.024 74.8239 8.704C75.0719 8.384 75.3679 8.124 75.7119 7.924C76.0639 7.724 76.4519 7.624 76.8759 7.624C77.1559 7.624 77.4159 7.7 77.6559 7.852C77.8959 7.996 78.0839 8.248 78.2199 8.608L78.4959 7.852H79.2519L78.2439 11.26ZM76.8759 8.44C76.5959 8.44 76.3359 8.524 76.0959 8.692C75.8639 8.852 75.6639 9.056 75.4959 9.304C75.3279 9.552 75.1959 9.824 75.0999 10.12C75.0039 10.408 74.9559 10.684 74.9559 10.948C74.9559 11.284 75.0519 11.564 75.2439 11.788C75.4359 12.004 75.6839 12.112 75.9879 12.112C76.2519 12.112 76.4959 12.028 76.7199 11.86C76.9439 11.684 77.1399 11.468 77.3079 11.212C77.4759 10.948 77.6079 10.668 77.7039 10.372C77.7999 10.076 77.8479 9.804 77.8479 9.556C77.8479 9.412 77.8199 9.272 77.7639 9.136C77.7159 9 77.6439 8.884 77.5479 8.788C77.4599 8.684 77.3559 8.6 77.2359 8.536C77.1239 8.472 77.0039 8.44 76.8759 8.44ZM82.1656 8.296H83.1256V9.604H83.1496C83.3976 9.1 83.7016 8.728 84.0616 8.488C84.4216 8.248 84.8776 8.136 85.4296 8.152V9.232C85.0216 9.232 84.6736 9.288 84.3856 9.4C84.0976 9.512 83.8656 9.676 83.6896 9.892C83.5136 10.108 83.3856 10.372 83.3056 10.684C83.2256 10.988 83.1856 11.34 83.1856 11.74V14.5H82.1656V8.296ZM86.7308 11.404C86.7308 11.78 86.7788 12.116 86.8748 12.412C86.9788 12.7 87.1188 12.944 87.2948 13.144C87.4708 13.336 87.6748 13.484 87.9068 13.588C88.1468 13.692 88.3988 13.744 88.6628 13.744C88.9268 13.744 89.1748 13.692 89.4068 13.588C89.6468 13.484 89.8548 13.336 90.0308 13.144C90.2068 12.944 90.3428 12.7 90.4388 12.412C90.5428 12.116 90.5948 11.78 90.5948 11.404C90.5948 11.028 90.5428 10.696 90.4388 10.408C90.3428 10.112 90.2068 9.864 90.0308 9.664C89.8548 9.464 89.6468 9.312 89.4068 9.208C89.1748 9.104 88.9268 9.052 88.6628 9.052C88.3988 9.052 88.1468 9.104 87.9068 9.208C87.6748 9.312 87.4708 9.464 87.2948 9.664C87.1188 9.864 86.9788 10.112 86.8748 10.408C86.7788 10.696 86.7308 11.028 86.7308 11.404ZM85.6508 11.404C85.6508 10.948 85.7148 10.524 85.8428 10.132C85.9708 9.732 86.1628 9.388 86.4188 9.1C86.6748 8.804 86.9908 8.572 87.3668 8.404C87.7428 8.236 88.1748 8.152 88.6628 8.152C89.1588 8.152 89.5908 8.236 89.9588 8.404C90.3348 8.572 90.6508 8.804 90.9068 9.1C91.1628 9.388 91.3548 9.732 91.4828 10.132C91.6108 10.524 91.6748 10.948 91.6748 11.404C91.6748 11.86 91.6108 12.284 91.4828 12.676C91.3548 13.068 91.1628 13.412 90.9068 13.708C90.6508 13.996 90.3348 14.224 89.9588 14.392C89.5908 14.552 89.1588 14.632 88.6628 14.632C88.1748 14.632 87.7428 14.552 87.3668 14.392C86.9908 14.224 86.6748 13.996 86.4188 13.708C86.1628 13.412 85.9708 13.068 85.8428 12.676C85.7148 12.284 85.6508 11.86 85.6508 11.404ZM92.9374 5.932H93.9574V14.5H92.9374V5.932ZM96.2815 11.452C96.2815 11.74 96.3175 12.024 96.3895 12.304C96.4695 12.576 96.5855 12.82 96.7375 13.036C96.8975 13.252 97.0975 13.424 97.3375 13.552C97.5855 13.68 97.8735 13.744 98.2015 13.744C98.5455 13.744 98.8375 13.676 99.0775 13.54C99.3175 13.404 99.5135 13.228 99.6655 13.012C99.8175 12.788 99.9255 12.536 99.9895 12.256C100.062 11.976 100.098 11.692 100.098 11.404C100.098 11.1 100.062 10.808 99.9895 10.528C99.9175 10.24 99.8015 9.988 99.6415 9.772C99.4895 9.556 99.2895 9.384 99.0415 9.256C98.7935 9.12 98.4935 9.052 98.1415 9.052C97.7975 9.052 97.5055 9.12 97.2655 9.256C97.0255 9.392 96.8335 9.572 96.6895 9.796C96.5455 10.02 96.4415 10.276 96.3775 10.564C96.3135 10.852 96.2815 11.148 96.2815 11.452ZM101.082 14.5H100.062V13.66H100.038C99.8695 14.004 99.6055 14.252 99.2455 14.404C98.8855 14.556 98.4895 14.632 98.0575 14.632C97.5775 14.632 97.1575 14.544 96.7975 14.368C96.4455 14.192 96.1495 13.956 95.9095 13.66C95.6775 13.364 95.5015 13.02 95.3815 12.628C95.2615 12.236 95.2015 11.82 95.2015 11.38C95.2015 10.94 95.2575 10.524 95.3695 10.132C95.4895 9.74 95.6655 9.4 95.8975 9.112C96.1375 8.816 96.4335 8.584 96.7855 8.416C97.1455 8.24 97.5615 8.152 98.0335 8.152C98.1935 8.152 98.3655 8.168 98.5495 8.2C98.7335 8.232 98.9175 8.288 99.1015 8.368C99.2855 8.44 99.4575 8.54 99.6175 8.668C99.7855 8.788 99.9255 8.94 100.038 9.124H100.062V5.932H101.082V14.5ZM102.615 8.296H103.575V9.604H103.599C103.847 9.1 104.151 8.728 104.511 8.488C104.871 8.248 105.327 8.136 105.879 8.152V9.232C105.471 9.232 105.123 9.288 104.835 9.4C104.547 9.512 104.315 9.676 104.139 9.892C103.963 10.108 103.835 10.372 103.755 10.684C103.675 10.988 103.635 11.34 103.635 11.74V14.5H102.615V8.296ZM107.727 7.18H106.707V5.932H107.727V7.18ZM106.707 8.296H107.727V14.5H106.707V8.296ZM112.103 14.5H111.011L108.707 8.296H109.847L111.587 13.468H111.611L113.303 8.296H114.371L112.103 14.5ZM119.615 10.804C119.599 10.564 119.543 10.336 119.447 10.12C119.359 9.904 119.235 9.72 119.075 9.568C118.923 9.408 118.739 9.284 118.523 9.196C118.315 9.1 118.083 9.052 117.827 9.052C117.563 9.052 117.323 9.1 117.107 9.196C116.899 9.284 116.719 9.408 116.567 9.568C116.415 9.728 116.295 9.916 116.207 10.132C116.119 10.34 116.067 10.564 116.051 10.804H119.615ZM120.599 12.532C120.463 13.228 120.163 13.752 119.699 14.104C119.235 14.456 118.651 14.632 117.947 14.632C117.451 14.632 117.019 14.552 116.651 14.392C116.291 14.232 115.987 14.008 115.739 13.72C115.491 13.432 115.303 13.088 115.175 12.688C115.055 12.288 114.987 11.852 114.971 11.38C114.971 10.908 115.043 10.476 115.187 10.084C115.331 9.692 115.531 9.352 115.787 9.064C116.051 8.776 116.359 8.552 116.711 8.392C117.071 8.232 117.463 8.152 117.887 8.152C118.439 8.152 118.895 8.268 119.255 8.5C119.623 8.724 119.915 9.012 120.131 9.364C120.355 9.716 120.507 10.1 120.587 10.516C120.675 10.932 120.711 11.328 120.695 11.704H116.051C116.043 11.976 116.075 12.236 116.147 12.484C116.219 12.724 116.335 12.94 116.495 13.132C116.655 13.316 116.859 13.464 117.107 13.576C117.355 13.688 117.647 13.744 117.983 13.744C118.415 13.744 118.767 13.644 119.039 13.444C119.319 13.244 119.503 12.94 119.591 12.532H120.599ZM121.98 13.168H123.312V14.5H121.98V13.168ZM129.304 10.288C129.224 9.896 129.056 9.592 128.8 9.376C128.544 9.16 128.2 9.052 127.768 9.052C127.4 9.052 127.092 9.12 126.844 9.256C126.596 9.392 126.396 9.572 126.244 9.796C126.1 10.02 125.996 10.28 125.932 10.576C125.868 10.864 125.836 11.164 125.836 11.476C125.836 11.764 125.868 12.044 125.932 12.316C126.004 12.588 126.112 12.832 126.256 13.048C126.4 13.256 126.588 13.424 126.82 13.552C127.052 13.68 127.328 13.744 127.648 13.744C128.152 13.744 128.544 13.612 128.824 13.348C129.112 13.084 129.288 12.712 129.352 12.232H130.396C130.284 13 129.996 13.592 129.532 14.008C129.076 14.424 128.452 14.632 127.66 14.632C127.188 14.632 126.768 14.556 126.4 14.404C126.04 14.252 125.736 14.036 125.488 13.756C125.248 13.476 125.064 13.144 124.936 12.76C124.816 12.368 124.756 11.94 124.756 11.476C124.756 11.012 124.816 10.58 124.936 10.18C125.056 9.772 125.236 9.42 125.476 9.124C125.724 8.82 126.032 8.584 126.4 8.416C126.768 8.24 127.196 8.152 127.684 8.152C128.036 8.152 128.364 8.196 128.668 8.284C128.98 8.364 129.252 8.492 129.484 8.668C129.724 8.844 129.92 9.068 130.072 9.34C130.224 9.604 130.32 9.92 130.36 10.288H129.304ZM132.282 11.404C132.282 11.78 132.33 12.116 132.426 12.412C132.53 12.7 132.67 12.944 132.846 13.144C133.022 13.336 133.226 13.484 133.458 13.588C133.698 13.692 133.95 13.744 134.214 13.744C134.478 13.744 134.726 13.692 134.958 13.588C135.198 13.484 135.406 13.336 135.582 13.144C135.758 12.944 135.894 12.7 135.99 12.412C136.094 12.116 136.146 11.78 136.146 11.404C136.146 11.028 136.094 10.696 135.99 10.408C135.894 10.112 135.758 9.864 135.582 9.664C135.406 9.464 135.198 9.312 134.958 9.208C134.726 9.104 134.478 9.052 134.214 9.052C133.95 9.052 133.698 9.104 133.458 9.208C133.226 9.312 133.022 9.464 132.846 9.664C132.67 9.864 132.53 10.112 132.426 10.408C132.33 10.696 132.282 11.028 132.282 11.404ZM131.202 11.404C131.202 10.948 131.266 10.524 131.394 10.132C131.522 9.732 131.714 9.388 131.97 9.1C132.226 8.804 132.542 8.572 132.918 8.404C133.294 8.236 133.726 8.152 134.214 8.152C134.71 8.152 135.142 8.236 135.51 8.404C135.886 8.572 136.202 8.804 136.458 9.1C136.714 9.388 136.906 9.732 137.034 10.132C137.162 10.524 137.226 10.948 137.226 11.404C137.226 11.86 137.162 12.284 137.034 12.676C136.906 13.068 136.714 13.412 136.458 13.708C136.202 13.996 135.886 14.224 135.51 14.392C135.142 14.552 134.71 14.632 134.214 14.632C133.726 14.632 133.294 14.552 132.918 14.392C132.542 14.224 132.226 13.996 131.97 13.708C131.714 13.412 131.522 13.068 131.394 12.676C131.266 12.284 131.202 11.86 131.202 11.404ZM138.428 8.296H139.388V9.208H139.412C139.876 8.504 140.544 8.152 141.416 8.152C141.8 8.152 142.148 8.232 142.46 8.392C142.772 8.552 142.992 8.824 143.12 9.208C143.328 8.872 143.6 8.612 143.936 8.428C144.28 8.244 144.656 8.152 145.064 8.152C145.376 8.152 145.656 8.188 145.904 8.26C146.16 8.324 146.376 8.428 146.552 8.572C146.736 8.716 146.876 8.904 146.972 9.136C147.076 9.36 147.128 9.632 147.128 9.952V14.5H146.108V10.432C146.108 10.24 146.092 10.06 146.06 9.892C146.028 9.724 145.968 9.58 145.88 9.46C145.792 9.332 145.668 9.232 145.508 9.16C145.356 9.088 145.156 9.052 144.908 9.052C144.404 9.052 144.008 9.196 143.72 9.484C143.432 9.772 143.288 10.156 143.288 10.636V14.5H142.268V10.432C142.268 10.232 142.248 10.048 142.208 9.88C142.176 9.712 142.116 9.568 142.028 9.448C141.94 9.32 141.82 9.224 141.668 9.16C141.524 9.088 141.336 9.052 141.104 9.052C140.808 9.052 140.552 9.112 140.336 9.232C140.128 9.352 139.956 9.496 139.82 9.664C139.692 9.832 139.596 10.008 139.532 10.192C139.476 10.368 139.448 10.516 139.448 10.636V14.5H138.428V8.296Z" fill="#E1E1E1"/>
<a href="mailto:booking@roldrive.com">
<rect fill="black" fill-opacity="0" y="-3.024" width="119.396" height="14.316"/>
</a>
</svg>
