<svg width="315" height="58" viewBox="0 0 315 58" fill="none" xmlns="http://www.w3.org/2000/svg">
<rect width="315" height="58" rx="8" fill="#11202D"/>
<path d="M86.4609 13.9606C86.0751 14.4337 85.8803 15.0402 85.9164 15.6558V42.3408C85.8802 42.9565 86.075 43.563 86.4609 44.036L86.548 44.123L101.125 29.1747V28.822L86.548 13.873L86.4609 13.9606Z" fill="url(#paint0_linear_2_35939)"/>
<path d="M105.986 34.1592L101.127 29.1743V28.8216L105.987 23.8379L106.096 23.902L111.853 27.2564C113.498 28.2144 113.498 29.782 111.853 30.7407L106.096 34.0951L105.986 34.1592Z" fill="url(#paint1_linear_2_35939)"/>
<path d="M106.097 34.0965L101.127 29L86.4629 44.0376C86.798 44.3406 87.2258 44.5139 87.6724 44.5275C88.119 44.541 88.5561 44.3939 88.9081 44.1117L106.097 34.0965Z" fill="url(#paint2_linear_2_35939)"/>
<path d="M106.097 23.9025L88.9081 13.8873C88.5561 13.6051 88.119 13.458 87.6724 13.4716C87.2258 13.4851 86.798 13.6584 86.4629 13.9614L101.127 28.9992L106.097 23.9025Z" fill="url(#paint3_linear_2_35939)"/>
<path opacity="0.2" d="M105.987 33.9844L88.9081 43.9355C88.5697 44.1996 88.1567 44.3438 87.7314 44.3461C87.3061 44.3484 86.8917 44.2088 86.5505 43.9484L86.4629 44.0383L86.55 44.1253L86.5505 44.1247C86.8916 44.3853 87.3061 44.5249 87.7314 44.5226C88.1567 44.5203 88.5697 44.3761 88.9081 44.1118L106.097 34.0966L105.987 33.9844Z" fill="#223544"/>
<path opacity="0.12" d="M86.4609 43.8612C86.0751 43.3881 85.8803 42.7816 85.9164 42.166V42.3423C85.8803 42.9579 86.0751 43.5644 86.4609 44.0374L86.5486 43.9475L86.4609 43.8612Z" fill="#223544"/>
<path opacity="0.12" d="M111.854 30.5653L105.987 33.9838L106.097 34.096L111.854 30.7416C112.193 30.5909 112.486 30.3498 112.703 30.0435C112.919 29.7372 113.052 29.3769 113.087 29C113.015 29.3413 112.865 29.6605 112.651 29.9322C112.437 30.2039 112.164 30.4207 111.854 30.5653Z" fill="#223544"/>
<path opacity="0.25" d="M88.9062 14.0629L111.852 27.4319C112.162 27.5765 112.435 27.7934 112.649 28.0652C112.863 28.3371 113.013 28.6564 113.085 28.9978C113.051 28.6208 112.918 28.2603 112.701 27.9538C112.484 27.6474 112.191 27.4063 111.852 27.2556L88.9062 13.8866C87.2617 12.9285 85.9165 13.7243 85.9165 15.6559V15.8321C85.9165 13.9007 87.2617 13.1049 88.9062 14.0629Z" fill="white"/>
<path d="M130.896 16.7215C130.919 17.1896 130.846 17.6576 130.681 18.0969C130.517 18.5363 130.263 18.9377 129.937 19.2769C129.571 19.6529 129.129 19.9482 128.64 20.1434C128.152 20.3386 127.627 20.4292 127.1 20.4094C126.57 20.4142 126.045 20.3138 125.554 20.1143C125.064 19.9147 124.619 19.62 124.245 19.2475C123.871 18.875 123.576 18.4322 123.378 17.9451C123.179 17.4581 123.081 16.9365 123.088 16.4112C123.081 15.8858 123.179 15.3643 123.378 14.8772C123.577 14.3901 123.871 13.9472 124.245 13.5747C124.619 13.2022 125.064 12.9074 125.554 12.7078C126.045 12.5082 126.57 12.4077 127.1 12.4123C127.645 12.4106 128.184 12.5198 128.685 12.7331C129.15 12.92 129.564 13.213 129.893 13.5885L129.214 14.2619C128.955 13.9601 128.63 13.7212 128.264 13.5637C127.897 13.4062 127.499 13.3343 127.1 13.3536C126.698 13.3515 126.3 13.4298 125.93 13.5839C125.56 13.7379 125.224 13.9644 124.944 14.2499C124.664 14.5354 124.445 14.8739 124.301 15.2453C124.156 15.6167 124.088 16.0132 124.101 16.4112C124.092 17.0072 124.261 17.5927 124.587 18.0933C124.914 18.594 125.383 18.9872 125.935 19.2232C126.488 19.4591 127.098 19.5272 127.689 19.4188C128.281 19.3103 128.826 19.0303 129.257 18.6141C129.653 18.1908 129.883 17.6405 129.904 17.0634H127.1V16.1439H130.842C130.877 16.3344 130.895 16.5277 130.896 16.7215Z" fill="white"/>
<path d="M136.828 13.5243H133.311V15.9514H136.483V16.871H133.311V19.2981H136.828V20.2387H132.32V12.5836H136.828V13.5243Z" fill="white"/>
<path d="M141.012 20.2387H140.019V13.5243H137.863V12.5836H143.169V13.5243H141.012V20.2387Z" fill="white"/>
<path d="M147.009 20.2387V12.5836H148V20.2387H147.009Z" fill="white"/>
<path d="M152.402 20.2387H151.409V13.5243H149.252V12.5836H154.559V13.5243H152.402V20.2387Z" fill="white"/>
<path d="M164.604 19.2494C163.852 19.9923 162.834 20.4095 161.773 20.4095C160.712 20.4095 159.694 19.9923 158.942 19.2494C158.57 18.8761 158.278 18.4324 158.082 17.9448C157.887 17.4573 157.793 16.9357 157.805 16.4112C157.793 15.8866 157.887 15.3651 158.082 14.8775C158.278 14.3899 158.57 13.9463 158.942 13.5729C159.313 13.2045 159.755 12.9124 160.24 12.7132C160.726 12.5141 161.246 12.4118 161.772 12.4123C162.297 12.4127 162.817 12.5159 163.302 12.7159C163.788 12.9159 164.228 13.2088 164.599 13.5779C164.971 13.9502 165.264 14.3929 165.46 14.8796C165.657 15.3663 165.752 15.8871 165.742 16.4112C165.753 16.9357 165.659 17.4571 165.463 17.9447C165.268 18.4322 164.976 18.8759 164.604 19.2494ZM159.675 18.6085C160.231 19.1594 160.986 19.4688 161.772 19.4688C162.559 19.4688 163.313 19.1594 163.87 18.6085C164.156 18.3187 164.379 17.9746 164.526 17.597C164.674 17.2193 164.743 16.8159 164.729 16.4112C164.743 16.0064 164.674 15.603 164.526 15.2254C164.379 14.8477 164.156 14.5036 163.87 14.2139C163.313 13.663 162.559 13.3536 161.772 13.3536C160.986 13.3536 160.231 13.663 159.675 14.2139C159.39 14.5038 159.167 14.848 159.019 15.2256C158.872 15.6033 158.803 16.0065 158.818 16.4112C158.803 16.8158 158.872 17.2191 159.019 17.5967C159.167 17.9743 159.39 18.3185 159.675 18.6085Z" fill="white"/>
<path d="M167.134 20.2387V12.5836H168.342L172.095 18.5387H172.138L172.095 17.0634V12.5836H173.088V20.2387H172.052L168.126 13.9952H168.083L168.126 15.4705V20.2387H167.134Z" fill="white"/>
<path d="M130.896 16.7215C130.919 17.1896 130.846 17.6576 130.681 18.0969C130.517 18.5363 130.263 18.9377 129.937 19.2769C129.571 19.6529 129.129 19.9482 128.64 20.1434C128.152 20.3386 127.627 20.4292 127.1 20.4094C126.57 20.4142 126.045 20.3138 125.554 20.1143C125.064 19.9147 124.619 19.62 124.245 19.2475C123.871 18.875 123.576 18.4322 123.378 17.9451C123.179 17.4581 123.081 16.9365 123.088 16.4112C123.081 15.8858 123.179 15.3643 123.378 14.8772C123.577 14.3901 123.871 13.9472 124.245 13.5747C124.619 13.2022 125.064 12.9074 125.554 12.7078C126.045 12.5082 126.57 12.4077 127.1 12.4123C127.645 12.4106 128.184 12.5198 128.685 12.7331C129.15 12.92 129.564 13.213 129.893 13.5885L129.214 14.2619C128.955 13.9601 128.63 13.7212 128.264 13.5637C127.897 13.4062 127.499 13.3343 127.1 13.3536C126.698 13.3515 126.3 13.4298 125.93 13.5839C125.56 13.7379 125.224 13.9644 124.944 14.2499C124.664 14.5354 124.445 14.8739 124.301 15.2453C124.156 15.6167 124.088 16.0132 124.101 16.4112C124.092 17.0072 124.261 17.5927 124.587 18.0933C124.914 18.594 125.383 18.9872 125.935 19.2232C126.488 19.4591 127.098 19.5272 127.689 19.4188C128.281 19.3103 128.826 19.0303 129.257 18.6141C129.653 18.1908 129.883 17.6405 129.904 17.0634H127.1V16.1439H130.842C130.877 16.3344 130.895 16.5277 130.896 16.7215Z" stroke="white" stroke-width="0.258807" stroke-miterlimit="10"/>
<path d="M136.828 13.5243H133.311V15.9514H136.483V16.871H133.311V19.2981H136.828V20.2387H132.32V12.5836H136.828V13.5243Z" stroke="white" stroke-width="0.258807" stroke-miterlimit="10"/>
<path d="M141.012 20.2387H140.019V13.5243H137.863V12.5836H143.169V13.5243H141.012V20.2387Z" stroke="white" stroke-width="0.258807" stroke-miterlimit="10"/>
<path d="M147.009 20.2387V12.5836H148V20.2387H147.009Z" stroke="white" stroke-width="0.258807" stroke-miterlimit="10"/>
<path d="M152.402 20.2387H151.409V13.5243H149.252V12.5836H154.559V13.5243H152.402V20.2387Z" stroke="white" stroke-width="0.258807" stroke-miterlimit="10"/>
<path d="M164.604 19.2494C163.852 19.9923 162.834 20.4095 161.773 20.4095C160.712 20.4095 159.694 19.9923 158.942 19.2494C158.57 18.8761 158.278 18.4324 158.082 17.9448C157.887 17.4573 157.793 16.9357 157.805 16.4112C157.793 15.8866 157.887 15.3651 158.082 14.8775C158.278 14.3899 158.57 13.9463 158.942 13.5729C159.313 13.2045 159.755 12.9124 160.24 12.7132C160.726 12.5141 161.246 12.4118 161.772 12.4123C162.297 12.4127 162.817 12.5159 163.302 12.7159C163.788 12.9159 164.228 13.2088 164.599 13.5779C164.971 13.9502 165.264 14.3929 165.46 14.8796C165.657 15.3663 165.752 15.8871 165.742 16.4112C165.753 16.9357 165.659 17.4571 165.463 17.9447C165.268 18.4322 164.976 18.8759 164.604 19.2494ZM159.675 18.6085C160.231 19.1594 160.986 19.4688 161.772 19.4688C162.559 19.4688 163.313 19.1594 163.87 18.6085C164.156 18.3187 164.379 17.9746 164.526 17.597C164.674 17.2193 164.743 16.8159 164.729 16.4112C164.743 16.0064 164.674 15.603 164.526 15.2254C164.379 14.8477 164.156 14.5036 163.87 14.2139C163.313 13.663 162.559 13.3536 161.772 13.3536C160.986 13.3536 160.231 13.663 159.675 14.2139C159.39 14.5038 159.167 14.848 159.019 15.2256C158.872 15.6033 158.803 16.0065 158.818 16.4112C158.803 16.8158 158.872 17.2191 159.019 17.5967C159.167 17.9743 159.39 18.3185 159.675 18.6085Z" stroke="white" stroke-width="0.258807" stroke-miterlimit="10"/>
<path d="M167.134 20.2387V12.5836H168.342L172.095 18.5387H172.138L172.095 17.0634V12.5836H173.088V20.2387H172.052L168.126 13.9952H168.083L168.126 15.4705V20.2387H167.134Z" stroke="white" stroke-width="0.258807" stroke-miterlimit="10"/>
<path d="M155.687 31.1136C154.676 31.1174 153.688 31.4135 152.849 31.9647C152.01 32.5158 151.357 33.2972 150.973 34.2103C150.589 35.1233 150.49 36.1271 150.69 37.0948C150.889 38.0624 151.378 38.9507 152.095 39.6474C152.811 40.344 153.723 40.8179 154.715 41.0091C155.707 41.2003 156.735 41.1003 157.669 40.7216C158.603 40.343 159.401 39.7028 159.962 38.8817C160.524 38.0607 160.823 37.0957 160.823 36.1086C160.833 35.4483 160.707 34.7929 160.452 34.1813C160.197 33.5696 159.819 33.0143 159.34 32.5482C158.861 32.0822 158.29 31.7151 157.663 31.4686C157.035 31.2221 156.363 31.1014 155.687 31.1136ZM155.687 39.1359C155.064 39.1792 154.442 39.0386 153.903 38.7322C153.363 38.4258 152.93 37.9679 152.661 37.418C152.391 36.8682 152.298 36.252 152.392 35.6496C152.487 35.0471 152.765 34.4864 153.19 34.0404C153.616 33.5944 154.169 33.2837 154.778 33.1489C155.387 33.0141 156.023 33.0613 156.604 33.2845C157.185 33.5077 157.684 33.8964 158.035 34.4001C158.387 34.9038 158.575 35.4991 158.575 36.1086C158.594 36.4936 158.534 36.8784 158.398 37.2404C158.262 37.6024 158.053 37.9342 157.784 38.2163C157.515 38.4984 157.191 38.725 156.831 38.883C156.471 39.0409 156.082 39.1269 155.687 39.1359ZM144.481 31.1136C143.47 31.1174 142.483 31.4135 141.644 31.9646C140.805 32.5157 140.152 33.2971 139.767 34.2102C139.383 35.1232 139.284 36.127 139.484 37.0947C139.684 38.0624 140.173 38.9507 140.889 39.6473C141.605 40.344 142.517 40.8179 143.509 41.0091C144.501 41.2003 145.529 41.1003 146.463 40.7216C147.397 40.343 148.195 39.7028 148.757 38.8817C149.318 38.0607 149.618 37.0957 149.618 36.1086C149.628 35.4484 149.502 34.7929 149.247 34.1813C148.992 33.5696 148.614 33.0143 148.134 32.5483C147.655 32.0823 147.085 31.7151 146.457 31.4686C145.83 31.2222 145.158 31.1014 144.481 31.1136ZM144.481 39.1359C143.858 39.1792 143.237 39.0386 142.697 38.7322C142.157 38.4258 141.725 37.9679 141.455 37.418C141.186 36.8682 141.092 36.252 141.187 35.6496C141.281 35.0471 141.559 34.4864 141.985 34.0404C142.41 33.5944 142.963 33.2837 143.572 33.1489C144.181 33.0141 144.818 33.0613 145.399 33.2845C145.98 33.5077 146.478 33.8964 146.83 34.4001C147.181 34.9038 147.369 35.4991 147.369 36.1086C147.388 36.4936 147.328 36.8784 147.192 37.2404C147.057 37.6024 146.848 37.9342 146.579 38.2163C146.31 38.4984 145.986 38.7251 145.625 38.883C145.265 39.0409 144.876 39.1269 144.481 39.1359ZM131.152 32.6463V34.7653H136.347C136.272 35.7592 135.855 36.6993 135.164 37.4331C134.644 37.9511 134.017 38.3567 133.326 38.624C132.635 38.8912 131.894 39.014 131.152 38.9845C129.633 38.9644 128.184 38.3616 127.118 37.3064C126.051 36.2512 125.453 34.8285 125.453 33.3462C125.453 31.8639 126.051 30.4413 127.118 29.3861C128.184 28.3309 129.633 27.728 131.152 27.7079C132.61 27.6893 134.017 28.2333 135.067 29.2215L136.599 27.7268C135.882 27.0345 135.031 26.4888 134.096 26.1217C133.161 25.7545 132.16 25.5734 131.152 25.5888C130.098 25.5738 129.052 25.7634 128.075 26.1466C127.097 26.5297 126.207 27.0987 125.457 27.8205C124.707 28.5424 124.111 29.4026 123.704 30.3512C123.297 31.2998 123.088 32.3179 123.088 33.3462C123.088 34.3746 123.297 35.3926 123.704 36.3412C124.111 37.2899 124.707 38.1501 125.457 38.8719C126.207 39.5937 127.097 40.1628 128.075 40.5459C129.052 40.929 130.098 41.1186 131.152 41.1036C132.181 41.1453 133.208 40.9729 134.163 40.5977C135.119 40.2226 135.982 39.6534 136.695 38.9278C137.962 37.5787 138.637 35.7994 138.576 33.9707C138.581 33.5266 138.542 33.083 138.459 32.6463H131.152ZM185.665 34.2922C185.357 33.3875 184.772 32.5971 183.988 32.0284C183.205 31.4597 182.26 31.1403 181.284 31.1136C180.627 31.1176 179.977 31.2517 179.374 31.5078C178.771 31.7638 178.228 32.1366 177.777 32.6035C177.325 33.0704 176.976 33.6217 176.749 34.2242C176.523 34.8266 176.424 35.4677 176.458 36.1086C176.443 36.7653 176.564 37.4182 176.813 38.0283C177.063 38.6383 177.436 39.1931 177.91 39.6593C178.384 40.1256 178.949 40.4938 179.572 40.7419C180.195 40.9901 180.863 41.1131 181.536 41.1036C182.379 41.1082 183.21 40.9083 183.955 40.5219C184.699 40.1356 185.333 39.5748 185.801 38.89L184.056 37.7548C183.795 38.1784 183.425 38.5285 182.983 38.7706C182.542 39.0127 182.043 39.1386 181.536 39.1359C181.015 39.1554 180.5 39.0215 180.057 38.7516C179.615 38.4817 179.266 38.0882 179.055 37.6223L185.898 34.8599L185.665 34.2922ZM178.687 35.9573C178.663 35.5938 178.713 35.2292 178.835 34.8849C178.957 34.5406 179.148 34.2235 179.397 33.9522C179.647 33.6808 179.949 33.4607 180.286 33.3047C180.623 33.1487 180.989 33.0599 181.362 33.0436C181.75 33.0186 182.137 33.1058 182.475 33.2942C182.813 33.4827 183.086 33.764 183.261 34.1031L178.687 35.9573ZM173.124 40.8009H175.372V26.1187H173.124V40.8009ZM169.441 32.2299H169.363C169.022 31.8674 168.604 31.5803 168.14 31.3878C167.675 31.1953 167.174 31.1018 166.669 31.1136C165.35 31.1685 164.103 31.7187 163.189 32.6494C162.275 33.5802 161.765 34.8195 161.765 36.1086C161.765 37.3978 162.275 38.6371 163.189 39.5679C164.103 40.4986 165.35 41.0488 166.669 41.1036C167.176 41.1168 167.679 41.0221 168.144 40.826C168.61 40.63 169.026 40.3373 169.363 39.9684H169.441V40.6874C169.441 42.5985 168.394 43.6201 166.708 43.6201C166.146 43.6069 165.6 43.4308 165.141 43.114C164.682 42.7973 164.33 42.3543 164.13 41.8415L162.172 42.6363C162.541 43.5132 163.17 44.2626 163.978 44.7884C164.786 45.3143 165.737 45.5926 166.708 45.5878C169.344 45.5878 171.573 44.0742 171.573 40.3847V31.4163H169.441V32.2299ZM166.863 39.1359C166.086 39.0716 165.362 38.7248 164.834 38.1642C164.306 37.6035 164.014 36.87 164.014 36.1086C164.014 35.3473 164.306 34.6137 164.834 34.0531C165.362 33.4925 166.086 33.1457 166.863 33.0814C167.25 33.0998 167.629 33.194 167.977 33.3584C168.326 33.5229 168.637 33.7541 168.892 34.0383C169.147 34.3226 169.341 34.6541 169.462 35.013C169.583 35.3719 169.628 35.751 169.596 36.1275C169.626 36.5017 169.579 36.878 169.457 37.2339C169.334 37.5898 169.14 37.918 168.885 38.1989C168.63 38.4798 168.319 38.7075 167.972 38.8685C167.624 39.0295 167.247 39.1204 166.863 39.1359ZM196.197 26.1189H190.818V40.8009H193.062V35.2383H196.197C196.832 35.2723 197.468 35.1796 198.065 34.9658C198.662 34.752 199.208 34.4216 199.67 33.9949C200.131 33.5681 200.499 33.054 200.751 32.4838C201.002 31.9136 201.132 31.2994 201.132 30.6786C201.132 30.0579 201.002 29.4437 200.751 28.8735C200.499 28.3033 200.131 27.7891 199.67 27.3624C199.208 26.9357 198.662 26.6053 198.065 26.3915C197.468 26.1777 196.832 26.085 196.197 26.1189ZM196.255 33.1951H193.062V28.1623H196.255C196.598 28.1554 196.939 28.2153 197.258 28.3387C197.577 28.462 197.868 28.6463 198.113 28.8806C198.358 29.115 198.553 29.3947 198.686 29.7035C198.819 30.0122 198.887 30.3438 198.887 30.6787C198.887 31.0136 198.819 31.3452 198.686 31.6539C198.553 31.9627 198.358 32.2424 198.113 32.4768C197.868 32.7111 197.577 32.8954 197.258 33.0187C196.939 33.1421 196.598 33.202 196.255 33.1951ZM210.13 31.0866C209.31 31.0399 208.495 31.2278 207.783 31.627C207.072 32.0263 206.495 32.6197 206.124 33.3344L208.117 34.1466C208.315 33.7919 208.614 33.5011 208.978 33.3099C209.343 33.1186 209.756 33.0352 210.168 33.0699C210.738 33.0156 211.306 33.184 211.749 33.538C212.191 33.8921 212.472 34.403 212.529 34.9587V35.1099C211.808 34.736 211.004 34.5414 210.188 34.5432C208.04 34.5432 205.853 35.6954 205.853 37.8487C205.874 38.3025 205.988 38.7476 206.189 39.1576C206.389 39.5676 206.672 39.934 207.02 40.2353C207.369 40.5365 207.775 40.7664 208.216 40.9113C208.657 41.0562 209.124 41.1131 209.588 41.0786C210.153 41.1111 210.717 40.9951 211.221 40.7426C211.724 40.4901 212.15 40.1105 212.452 39.6431H212.529V40.7765H214.697V35.1477C214.697 32.541 212.703 31.0866 210.13 31.0866ZM209.859 39.1331C209.123 39.1331 208.098 38.7743 208.098 37.8864C208.098 36.7532 209.375 36.3187 210.478 36.3187C211.195 36.3001 211.903 36.4697 212.529 36.8098C212.447 37.4467 212.131 38.0328 211.64 38.4599C211.149 38.887 210.516 39.1261 209.859 39.1331ZM222.592 31.4077L220.018 37.7731H219.941L217.27 31.4077H214.851L218.857 40.3042L216.574 45.253H218.915L225.088 31.4077H222.592ZM202.37 40.8009H204.615V26.1189H202.37V40.8009Z" fill="white"/>
<defs>
<linearGradient id="paint0_linear_2_35939" x1="99.8326" y1="15.3744" x2="79.5895" y2="35.1149" gradientUnits="userSpaceOnUse">
<stop stop-color="#00A0FF"/>
<stop offset="0.00657" stop-color="#00A1FF"/>
<stop offset="0.2601" stop-color="#00BEFF"/>
<stop offset="0.5122" stop-color="#00D2FF"/>
<stop offset="0.7604" stop-color="#00DFFF"/>
<stop offset="1" stop-color="#00E3FF"/>
</linearGradient>
<linearGradient id="paint1_linear_2_35939" x1="113.995" y1="28.9985" x2="85.5237" y2="28.9985" gradientUnits="userSpaceOnUse">
<stop stop-color="#FFE000"/>
<stop offset="0.4087" stop-color="#FFBD00"/>
<stop offset="0.7754" stop-color="#FFA500"/>
<stop offset="1" stop-color="#FF9C00"/>
</linearGradient>
<linearGradient id="paint2_linear_2_35939" x1="103.396" y1="31.7692" x2="75.9452" y2="58.5389" gradientUnits="userSpaceOnUse">
<stop stop-color="#FF3A44"/>
<stop offset="1" stop-color="#C31162"/>
</linearGradient>
<linearGradient id="paint3_linear_2_35939" x1="82.7705" y1="5.07874" x2="95.0286" y2="17.0325" gradientUnits="userSpaceOnUse">
<stop stop-color="#32A071"/>
<stop offset="0.0685" stop-color="#2DA771"/>
<stop offset="0.4762" stop-color="#15CF74"/>
<stop offset="0.8009" stop-color="#06E775"/>
<stop offset="1" stop-color="#00F076"/>
</linearGradient>
</defs>
</svg>
