<svg width="315" height="11" viewBox="0 0 315 11" fill="none" xmlns="http://www.w3.org/2000/svg">
<path opacity="0.6" d="M0.5 5H144.5" stroke="#B2B2B2" stroke-linecap="round" stroke-dasharray="4 4"/>
<path d="M155.048 10.196C154.469 10.196 153.951 10.1027 153.494 9.916C153.046 9.72 152.663 9.454 152.346 9.118C152.038 8.782 151.8 8.38067 151.632 7.914C151.473 7.44733 151.394 6.934 151.394 6.374C151.394 5.82333 151.473 5.31467 151.632 4.848C151.8 4.38133 152.038 3.98 152.346 3.644C152.663 3.308 153.046 3.04667 153.494 2.86C153.951 2.664 154.469 2.566 155.048 2.566C155.626 2.566 156.14 2.664 156.588 2.86C157.045 3.04667 157.428 3.308 157.736 3.644C158.053 3.98 158.291 4.38133 158.45 4.848C158.618 5.31467 158.702 5.82333 158.702 6.374C158.702 6.934 158.618 7.44733 158.45 7.914C158.291 8.38067 158.053 8.782 157.736 9.118C157.428 9.454 157.045 9.72 156.588 9.916C156.14 10.1027 155.626 10.196 155.048 10.196ZM155.048 8.936C155.402 8.936 155.71 8.86133 155.972 8.712C156.233 8.56267 156.448 8.36667 156.616 8.124C156.784 7.88133 156.905 7.61067 156.98 7.312C157.064 7.004 157.106 6.69133 157.106 6.374C157.106 6.066 157.064 5.758 156.98 5.45C156.905 5.142 156.784 4.87133 156.616 4.638C156.448 4.39533 156.233 4.19933 155.972 4.05C155.71 3.90067 155.402 3.826 155.048 3.826C154.693 3.826 154.385 3.90067 154.124 4.05C153.862 4.19933 153.648 4.39533 153.48 4.638C153.312 4.87133 153.186 5.142 153.102 5.45C153.027 5.758 152.99 6.066 152.99 6.374C152.99 6.69133 153.027 7.004 153.102 7.312C153.186 7.61067 153.312 7.88133 153.48 8.124C153.648 8.36667 153.862 8.56267 154.124 8.712C154.385 8.86133 154.693 8.936 155.048 8.936ZM160.028 2.762H161.526V4.162H161.554C161.601 3.966 161.69 3.77467 161.82 3.588C161.96 3.40133 162.124 3.23333 162.31 3.084C162.506 2.92533 162.721 2.79933 162.954 2.706C163.188 2.61267 163.426 2.566 163.668 2.566C163.855 2.566 163.981 2.57067 164.046 2.58C164.121 2.58933 164.196 2.59867 164.27 2.608V4.148C164.158 4.12933 164.042 4.11533 163.92 4.106C163.808 4.08733 163.696 4.078 163.584 4.078C163.314 4.078 163.057 4.134 162.814 4.246C162.581 4.34867 162.376 4.50733 162.198 4.722C162.021 4.92733 161.881 5.184 161.778 5.492C161.676 5.8 161.624 6.15467 161.624 6.556V10H160.028V2.762Z" fill="#828282"/>
<path opacity="0.6" d="M170.5 5H314.5" stroke="#B2B2B2" stroke-linecap="round" stroke-dasharray="4 4"/>
</svg>
