<svg width="15" height="122" viewBox="0 0 15 122" fill="none" xmlns="http://www.w3.org/2000/svg">
<path opacity="0.6" d="M7.82104 50L7.82104 0.500001" stroke="#828282" stroke-linecap="round" stroke-dasharray="4 4"/>
<path d="M5.36869 66.196C4.79003 66.196 4.27203 66.1027 3.81469 65.916C3.36669 65.72 2.98403 65.454 2.66669 65.118C2.35869 64.782 2.12069 64.3807 1.95269 63.914C1.79403 63.4473 1.71469 62.934 1.71469 62.374C1.71469 61.8233 1.79403 61.3147 1.95269 60.848C2.12069 60.3813 2.35869 59.98 2.66669 59.644C2.98403 59.308 3.36669 59.0467 3.81469 58.86C4.27203 58.664 4.79003 58.566 5.36869 58.566C5.94736 58.566 6.46069 58.664 6.90869 58.86C7.36603 59.0467 7.74869 59.308 8.05669 59.644C8.37403 59.98 8.61203 60.3813 8.77069 60.848C8.93869 61.3147 9.02269 61.8233 9.02269 62.374C9.02269 62.934 8.93869 63.4473 8.77069 63.914C8.61203 64.3807 8.37403 64.782 8.05669 65.118C7.74869 65.454 7.36603 65.72 6.90869 65.916C6.46069 66.1027 5.94736 66.196 5.36869 66.196ZM5.36869 64.936C5.72336 64.936 6.03136 64.8613 6.29269 64.712C6.55403 64.5627 6.76869 64.3667 6.93669 64.124C7.10469 63.8813 7.22603 63.6107 7.30069 63.312C7.38469 63.004 7.42669 62.6913 7.42669 62.374C7.42669 62.066 7.38469 61.758 7.30069 61.45C7.22603 61.142 7.10469 60.8713 6.93669 60.638C6.76869 60.3953 6.55403 60.1993 6.29269 60.05C6.03136 59.9007 5.72336 59.826 5.36869 59.826C5.01403 59.826 4.70603 59.9007 4.44469 60.05C4.18336 60.1993 3.96869 60.3953 3.80069 60.638C3.63269 60.8713 3.50669 61.142 3.42269 61.45C3.34803 61.758 3.31069 62.066 3.31069 62.374C3.31069 62.6913 3.34803 63.004 3.42269 63.312C3.50669 63.6107 3.63269 63.8813 3.80069 64.124C3.96869 64.3667 4.18336 64.5627 4.44469 64.712C4.70603 64.8613 5.01403 64.936 5.36869 64.936ZM10.3495 58.762H11.8475V60.162H11.8755C11.9222 59.966 12.0109 59.7747 12.1415 59.588C12.2815 59.4013 12.4449 59.2333 12.6315 59.084C12.8275 58.9253 13.0422 58.7993 13.2755 58.706C13.5089 58.6127 13.7469 58.566 13.9895 58.566C14.1762 58.566 14.3022 58.5707 14.3675 58.58C14.4422 58.5893 14.5169 58.5987 14.5915 58.608V60.148C14.4795 60.1293 14.3629 60.1153 14.2415 60.106C14.1295 60.0873 14.0175 60.078 13.9055 60.078C13.6349 60.078 13.3782 60.134 13.1355 60.246C12.9022 60.3487 12.6969 60.5073 12.5195 60.722C12.3422 60.9273 12.2022 61.184 12.0995 61.492C11.9969 61.8 11.9455 62.1547 11.9455 62.556V66H10.3495V58.762Z" fill="#828282"/>
<path opacity="0.6" d="M7.82104 121.5L7.82104 72" stroke="#828282" stroke-linecap="round" stroke-dasharray="4 4"/>
</svg>
