<svg width="308" height="54" viewBox="0 0 308 54" fill="none" xmlns="http://www.w3.org/2000/svg">
<rect x="0.5" y="0.5" width="307" height="53" rx="5.5" fill="white" stroke="#CCCCCC"/>
<path d="M109.68 33V21.8H111.28V31.608H117.344V33H109.68ZM122.479 33.096C121.625 33.096 120.868 32.9093 120.207 32.536C119.545 32.1627 119.023 31.6507 118.639 31C118.255 30.3387 118.063 29.592 118.063 28.76C118.063 27.9173 118.255 27.1707 118.639 26.52C119.023 25.8693 119.545 25.3627 120.207 25C120.868 24.6267 121.625 24.44 122.479 24.44C123.321 24.44 124.073 24.6267 124.735 25C125.407 25.3627 125.929 25.8693 126.303 26.52C126.687 27.16 126.879 27.9067 126.879 28.76C126.879 29.6027 126.687 30.3493 126.303 31C125.929 31.6507 125.407 32.1627 124.735 32.536C124.073 32.9093 123.321 33.096 122.479 33.096ZM122.479 31.752C123.023 31.752 123.508 31.6293 123.935 31.384C124.372 31.1387 124.713 30.792 124.959 30.344C125.204 29.8853 125.327 29.3573 125.327 28.76C125.327 28.152 125.204 27.6293 124.959 27.192C124.713 26.744 124.372 26.3973 123.935 26.152C123.508 25.9067 123.023 25.784 122.479 25.784C121.935 25.784 121.449 25.9067 121.023 26.152C120.596 26.3973 120.255 26.744 119.999 27.192C119.743 27.6293 119.615 28.152 119.615 28.76C119.615 29.3573 119.743 29.8853 119.999 30.344C120.255 30.792 120.596 31.1387 121.023 31.384C121.449 31.6293 121.935 31.752 122.479 31.752ZM132.715 36.2C131.936 36.2 131.179 36.088 130.443 35.864C129.718 35.6507 129.126 35.3413 128.667 34.936L129.403 33.752C129.798 34.0933 130.283 34.36 130.859 34.552C131.435 34.7547 132.038 34.856 132.667 34.856C133.67 34.856 134.406 34.6213 134.875 34.152C135.344 33.6827 135.579 32.968 135.579 32.008V30.216L135.739 28.536L135.659 26.84V24.52H137.115V31.848C137.115 33.3413 136.742 34.44 135.995 35.144C135.248 35.848 134.155 36.2 132.715 36.2ZM132.523 32.648C131.702 32.648 130.966 32.4773 130.315 32.136C129.675 31.784 129.163 31.2987 128.779 30.68C128.406 30.0613 128.219 29.3467 128.219 28.536C128.219 27.7147 128.406 27 128.779 26.392C129.163 25.7733 129.675 25.2933 130.315 24.952C130.966 24.6107 131.702 24.44 132.523 24.44C133.248 24.44 133.91 24.5893 134.507 24.888C135.104 25.176 135.579 25.624 135.931 26.232C136.294 26.84 136.475 27.608 136.475 28.536C136.475 29.4533 136.294 30.216 135.931 30.824C135.579 31.432 135.104 31.8907 134.507 32.2C133.91 32.4987 133.248 32.648 132.523 32.648ZM132.699 31.304C133.264 31.304 133.766 31.1867 134.203 30.952C134.64 30.7173 134.982 30.392 135.227 29.976C135.483 29.56 135.611 29.08 135.611 28.536C135.611 27.992 135.483 27.512 135.227 27.096C134.982 26.68 134.64 26.36 134.203 26.136C133.766 25.9013 133.264 25.784 132.699 25.784C132.134 25.784 131.627 25.9013 131.179 26.136C130.742 26.36 130.395 26.68 130.139 27.096C129.894 27.512 129.771 27.992 129.771 28.536C129.771 29.08 129.894 29.56 130.139 29.976C130.395 30.392 130.742 30.7173 131.179 30.952C131.627 31.1867 132.134 31.304 132.699 31.304ZM140.05 33V24.52H141.586V33H140.05ZM140.818 22.888C140.519 22.888 140.268 22.792 140.066 22.6C139.874 22.408 139.778 22.1733 139.778 21.896C139.778 21.608 139.874 21.368 140.066 21.176C140.268 20.984 140.519 20.888 140.818 20.888C141.116 20.888 141.362 20.984 141.554 21.176C141.756 21.3573 141.858 21.5867 141.858 21.864C141.858 22.152 141.762 22.3973 141.57 22.6C141.378 22.792 141.127 22.888 140.818 22.888ZM149.047 24.44C149.74 24.44 150.348 24.5733 150.871 24.84C151.404 25.1067 151.82 25.512 152.119 26.056C152.417 26.6 152.567 27.288 152.567 28.12V33H151.031V28.296C151.031 27.4747 150.828 26.856 150.423 26.44C150.028 26.024 149.468 25.816 148.743 25.816C148.199 25.816 147.724 25.9227 147.319 26.136C146.913 26.3493 146.599 26.664 146.375 27.08C146.161 27.496 146.055 28.0133 146.055 28.632V33H144.519V24.52H145.991V26.808L145.751 26.2C146.028 25.6453 146.455 25.2133 147.031 24.904C147.607 24.5947 148.279 24.44 149.047 24.44ZM161.498 33L158.346 24.52H159.802L162.602 32.2H161.914L164.826 24.52H166.122L168.97 32.2H168.298L171.162 24.52H172.538L169.37 33H167.898L165.226 25.992H165.674L162.97 33H161.498ZM174.097 33V24.52H175.633V33H174.097ZM174.865 22.888C174.566 22.888 174.315 22.792 174.113 22.6C173.921 22.408 173.825 22.1733 173.825 21.896C173.825 21.608 173.921 21.368 174.113 21.176C174.315 20.984 174.566 20.888 174.865 20.888C175.163 20.888 175.409 20.984 175.601 21.176C175.803 21.3573 175.905 21.5867 175.905 21.864C175.905 22.152 175.809 22.3973 175.617 22.6C175.425 22.792 175.174 22.888 174.865 22.888ZM181.477 33.096C180.624 33.096 179.963 32.8667 179.493 32.408C179.024 31.9493 178.789 31.2933 178.789 30.44V22.664H180.325V30.376C180.325 30.8347 180.437 31.1867 180.661 31.432C180.896 31.6773 181.227 31.8 181.653 31.8C182.133 31.8 182.533 31.6667 182.853 31.4L183.333 32.504C183.099 32.7067 182.816 32.856 182.485 32.952C182.165 33.048 181.829 33.096 181.477 33.096ZM177.349 25.784V24.52H182.757V25.784H177.349ZM189.718 24.44C190.412 24.44 191.02 24.5733 191.542 24.84C192.076 25.1067 192.492 25.512 192.79 26.056C193.089 26.6 193.238 27.288 193.238 28.12V33H191.702V28.296C191.702 27.4747 191.5 26.856 191.094 26.44C190.7 26.024 190.14 25.816 189.414 25.816C188.87 25.816 188.396 25.9227 187.99 26.136C187.585 26.3493 187.27 26.664 187.046 27.08C186.833 27.496 186.726 28.0133 186.726 28.632V33H185.19V21.128H186.726V26.808L186.422 26.2C186.7 25.6453 187.126 25.2133 187.702 24.904C188.278 24.5947 188.95 24.44 189.718 24.44ZM202.058 26.632H207.818V27.992H202.058V26.632ZM202.202 31.608H208.73V33H200.602V21.8H208.506V23.192H202.202V31.608ZM221.705 24.44C222.387 24.44 222.99 24.5733 223.513 24.84C224.035 25.1067 224.441 25.512 224.729 26.056C225.027 26.6 225.177 27.288 225.177 28.12V33H223.641V28.296C223.641 27.4747 223.449 26.856 223.065 26.44C222.681 26.024 222.142 25.816 221.449 25.816C220.937 25.816 220.489 25.9227 220.105 26.136C219.721 26.3493 219.422 26.664 219.209 27.08C219.006 27.496 218.905 28.0133 218.905 28.632V33H217.369V28.296C217.369 27.4747 217.177 26.856 216.793 26.44C216.419 26.024 215.881 25.816 215.177 25.816C214.675 25.816 214.233 25.9227 213.849 26.136C213.465 26.3493 213.166 26.664 212.953 27.08C212.739 27.496 212.633 28.0133 212.633 28.632V33H211.097V24.52H212.569V26.776L212.329 26.2C212.595 25.6453 213.006 25.2133 213.561 24.904C214.115 24.5947 214.761 24.44 215.497 24.44C216.307 24.44 217.006 24.6427 217.593 25.048C218.179 25.4427 218.563 26.0453 218.745 26.856L218.121 26.6C218.377 25.9493 218.825 25.4267 219.465 25.032C220.105 24.6373 220.851 24.44 221.705 24.44ZM233.267 33V31.208L233.187 30.872V27.816C233.187 27.1653 232.995 26.664 232.611 26.312C232.238 25.9493 231.672 25.768 230.915 25.768C230.414 25.768 229.923 25.8533 229.443 26.024C228.963 26.184 228.558 26.4027 228.227 26.68L227.587 25.528C228.024 25.176 228.547 24.9093 229.155 24.728C229.774 24.536 230.419 24.44 231.091 24.44C232.254 24.44 233.15 24.7227 233.779 25.288C234.408 25.8533 234.723 26.7173 234.723 27.88V33H233.267ZM230.483 33.096C229.854 33.096 229.299 32.9893 228.819 32.776C228.35 32.5627 227.987 32.2693 227.731 31.896C227.475 31.512 227.347 31.08 227.347 30.6C227.347 30.1413 227.454 29.7253 227.667 29.352C227.891 28.9787 228.248 28.68 228.739 28.456C229.24 28.232 229.912 28.12 230.755 28.12H233.443V29.224H230.819C230.051 29.224 229.534 29.352 229.267 29.608C229 29.864 228.867 30.1733 228.867 30.536C228.867 30.952 229.032 31.288 229.363 31.544C229.694 31.7893 230.152 31.912 230.739 31.912C231.315 31.912 231.816 31.784 232.243 31.528C232.68 31.272 232.995 30.8987 233.187 30.408L233.491 31.464C233.288 31.9653 232.931 32.3653 232.419 32.664C231.907 32.952 231.262 33.096 230.483 33.096ZM237.565 33V24.52H239.101V33H237.565ZM238.333 22.888C238.035 22.888 237.784 22.792 237.581 22.6C237.389 22.408 237.293 22.1733 237.293 21.896C237.293 21.608 237.389 21.368 237.581 21.176C237.784 20.984 238.035 20.888 238.333 20.888C238.632 20.888 238.877 20.984 239.069 21.176C239.272 21.3573 239.373 21.5867 239.373 21.864C239.373 22.152 239.277 22.3973 239.085 22.6C238.893 22.792 238.643 22.888 238.333 22.888ZM242.034 33V21.128H243.57V33H242.034Z" fill="#797979"/>
<path d="M65.5778 18C64.1608 18 63 19.158 63 20.5714V33.4286C63 34.842 64.1608 36 65.5778 36H89.4222C90.8392 36 92 34.842 92 33.4286V20.5714C92 19.158 90.8392 18 89.4222 18H65.5778ZM65.5778 19.2857H89.4222C89.4884 19.2857 89.5504 19.2966 89.6135 19.3056L78.1243 29.0791C77.8275 29.3314 77.1725 29.3314 76.8757 29.0791L65.3865 19.3056C65.4496 19.2966 65.5116 19.2857 65.5778 19.2857ZM64.3694 20.1295L72.858 27.3516L64.3795 33.9107C64.3228 33.7641 64.2889 33.598 64.2889 33.4286V20.5714C64.2889 20.4134 64.3199 20.2679 64.3694 20.1295ZM90.6306 20.1295C90.6801 20.2679 90.7111 20.4134 90.7111 20.5714V33.4286C90.7111 33.598 90.6772 33.7641 90.6205 33.9107L82.142 27.3516L90.6306 20.1295ZM73.8649 28.2054L76.0399 30.0536C76.8758 30.7641 78.1242 30.7641 78.9601 30.0536L81.1351 28.2054L89.5431 34.7043C89.5024 34.7078 89.4641 34.7142 89.4222 34.7142H65.5778C65.5359 34.7142 65.4977 34.7078 65.4569 34.7043L73.8649 28.2054Z" fill="#797979"/>
</svg>
