<svg width="208" height="64" viewBox="0 0 208 64" fill="none" xmlns="http://www.w3.org/2000/svg">
<g filter="url(#filter0_d_3887_4247)">
<rect x="8" y="6" width="192" height="48" rx="5" fill="white"/>
<path d="M9 11C9 8.79086 10.7909 7 13 7H59V53H13C10.7909 53 9 51.2091 9 49V11Z" fill="white"/>
<path d="M43.75 23H29.75C28.7835 23 28 23.7835 28 24.75V35.25C28 36.2165 28.7835 37 29.75 37H43.75C44.7165 37 45.5 36.2165 45.5 35.25V24.75C45.5 23.7835 44.7165 23 43.75 23Z" stroke="black" stroke-linecap="round" stroke-linejoin="round"/>
<path d="M45.5 25.625L37.6512 30.6125C37.3811 30.7817 37.0688 30.8715 36.75 30.8715C36.4312 30.8715 36.1189 30.7817 35.8488 30.6125L28 25.625" stroke="black" stroke-linecap="round" stroke-linejoin="round"/>
<path d="M64.016 34.072C63.384 34.072 62.8 33.968 62.264 33.76C61.728 33.544 61.264 33.244 60.872 32.86C60.48 32.476 60.172 32.024 59.948 31.504C59.732 30.984 59.624 30.416 59.624 29.8C59.624 29.184 59.732 28.616 59.948 28.096C60.172 27.576 60.48 27.124 60.872 26.74C61.272 26.356 61.74 26.06 62.276 25.852C62.812 25.636 63.396 25.528 64.028 25.528C64.636 25.528 65.208 25.632 65.744 25.84C66.28 26.04 66.732 26.344 67.1 26.752L66.536 27.316C66.192 26.964 65.812 26.712 65.396 26.56C64.98 26.4 64.532 26.32 64.052 26.32C63.548 26.32 63.08 26.408 62.648 26.584C62.216 26.752 61.84 26.996 61.52 27.316C61.2 27.628 60.948 27.996 60.764 28.42C60.588 28.836 60.5 29.296 60.5 29.8C60.5 30.304 60.588 30.768 60.764 31.192C60.948 31.608 61.2 31.976 61.52 32.296C61.84 32.608 62.216 32.852 62.648 33.028C63.08 33.196 63.548 33.28 64.052 33.28C64.532 33.28 64.98 33.2 65.396 33.04C65.812 32.88 66.192 32.624 66.536 32.272L67.1 32.836C66.732 33.244 66.28 33.552 65.744 33.76C65.208 33.968 64.632 34.072 64.016 34.072ZM71.0998 34.06C70.4918 34.06 69.9438 33.924 69.4558 33.652C68.9758 33.372 68.5958 32.992 68.3158 32.512C68.0358 32.024 67.8958 31.468 67.8958 30.844C67.8958 30.212 68.0358 29.656 68.3158 29.176C68.5958 28.696 68.9758 28.32 69.4558 28.048C69.9358 27.776 70.4838 27.64 71.0998 27.64C71.7238 27.64 72.2758 27.776 72.7558 28.048C73.2438 28.32 73.6238 28.696 73.8958 29.176C74.1758 29.656 74.3158 30.212 74.3158 30.844C74.3158 31.468 74.1758 32.024 73.8958 32.512C73.6238 32.992 73.2438 33.372 72.7558 33.652C72.2678 33.924 71.7158 34.06 71.0998 34.06ZM71.0998 33.304C71.5558 33.304 71.9598 33.204 72.3118 33.004C72.6638 32.796 72.9398 32.508 73.1398 32.14C73.3478 31.764 73.4518 31.332 73.4518 30.844C73.4518 30.348 73.3478 29.916 73.1398 29.548C72.9398 29.18 72.6638 28.896 72.3118 28.696C71.9598 28.488 71.5598 28.384 71.1118 28.384C70.6638 28.384 70.2638 28.488 69.9118 28.696C69.5598 28.896 69.2798 29.18 69.0718 29.548C68.8638 29.916 68.7598 30.348 68.7598 30.844C68.7598 31.332 68.8638 31.764 69.0718 32.14C69.2798 32.508 69.5598 32.796 69.9118 33.004C70.2638 33.204 70.6598 33.304 71.0998 33.304ZM79.2712 27.64C79.7832 27.64 80.2312 27.74 80.6152 27.94C81.0072 28.132 81.3112 28.428 81.5272 28.828C81.7512 29.228 81.8632 29.732 81.8632 30.34V34H81.0112V30.424C81.0112 29.76 80.8432 29.26 80.5072 28.924C80.1792 28.58 79.7152 28.408 79.1152 28.408C78.6672 28.408 78.2752 28.5 77.9392 28.684C77.6112 28.86 77.3552 29.12 77.1712 29.464C76.9952 29.8 76.9072 30.208 76.9072 30.688V34H76.0552V27.7H76.8712V29.428L76.7392 29.104C76.9392 28.648 77.2592 28.292 77.6992 28.036C78.1392 27.772 78.6632 27.64 79.2712 27.64ZM86.1566 34.06C85.5646 34.06 85.1086 33.9 84.7886 33.58C84.4686 33.26 84.3086 32.808 84.3086 32.224V26.308H85.1606V32.176C85.1606 32.544 85.2526 32.828 85.4366 33.028C85.6286 33.228 85.9006 33.328 86.2526 33.328C86.6286 33.328 86.9406 33.22 87.1886 33.004L87.4886 33.616C87.3206 33.768 87.1166 33.88 86.8766 33.952C86.6446 34.024 86.4046 34.06 86.1566 34.06ZM83.1806 28.408V27.7H87.0806V28.408H83.1806ZM89.0396 34V27.7H89.8916V34H89.0396ZM89.4716 26.308C89.2956 26.308 89.1476 26.248 89.0276 26.128C88.9076 26.008 88.8476 25.864 88.8476 25.696C88.8476 25.528 88.9076 25.388 89.0276 25.276C89.1476 25.156 89.2956 25.096 89.4716 25.096C89.6476 25.096 89.7956 25.152 89.9156 25.264C90.0356 25.376 90.0956 25.516 90.0956 25.684C90.0956 25.86 90.0356 26.008 89.9156 26.128C89.8036 26.248 89.6556 26.308 89.4716 26.308ZM95.4782 27.64C95.9902 27.64 96.4382 27.74 96.8222 27.94C97.2142 28.132 97.5182 28.428 97.7342 28.828C97.9582 29.228 98.0702 29.732 98.0702 30.34V34H97.2182V30.424C97.2182 29.76 97.0502 29.26 96.7142 28.924C96.3862 28.58 95.9222 28.408 95.3222 28.408C94.8742 28.408 94.4822 28.5 94.1462 28.684C93.8182 28.86 93.5622 29.12 93.3782 29.464C93.2022 29.8 93.1142 30.208 93.1142 30.688V34H92.2622V27.7H93.0782V29.428L92.9462 29.104C93.1462 28.648 93.4662 28.292 93.9062 28.036C94.3462 27.772 94.8702 27.64 95.4782 27.64ZM102.976 34.06C102.44 34.06 101.972 33.96 101.572 33.76C101.172 33.56 100.86 33.26 100.636 32.86C100.42 32.46 100.312 31.96 100.312 31.36V27.7H101.164V31.264C101.164 31.936 101.328 32.444 101.656 32.788C101.992 33.124 102.46 33.292 103.06 33.292C103.5 33.292 103.88 33.204 104.2 33.028C104.528 32.844 104.776 32.58 104.944 32.236C105.12 31.892 105.208 31.48 105.208 31V27.7H106.06V34H105.244V32.272L105.376 32.584C105.176 33.048 104.864 33.412 104.44 33.676C104.024 33.932 103.536 34.06 102.976 34.06ZM111.11 34.06C110.454 34.06 109.878 33.924 109.382 33.652C108.886 33.372 108.498 32.992 108.218 32.512C107.938 32.024 107.798 31.468 107.798 30.844C107.798 30.22 107.93 29.668 108.194 29.188C108.466 28.708 108.834 28.332 109.298 28.06C109.77 27.78 110.298 27.64 110.882 27.64C111.474 27.64 111.998 27.776 112.454 28.048C112.918 28.312 113.282 28.688 113.546 29.176C113.81 29.656 113.942 30.212 113.942 30.844C113.942 30.884 113.938 30.928 113.93 30.976C113.93 31.016 113.93 31.06 113.93 31.108H108.446V30.472H113.474L113.138 30.724C113.138 30.268 113.038 29.864 112.838 29.512C112.646 29.152 112.382 28.872 112.046 28.672C111.71 28.472 111.322 28.372 110.882 28.372C110.45 28.372 110.062 28.472 109.718 28.672C109.374 28.872 109.106 29.152 108.914 29.512C108.722 29.872 108.626 30.284 108.626 30.748V30.88C108.626 31.36 108.73 31.784 108.938 32.152C109.154 32.512 109.45 32.796 109.826 33.004C110.21 33.204 110.646 33.304 111.134 33.304C111.518 33.304 111.874 33.236 112.202 33.1C112.538 32.964 112.826 32.756 113.066 32.476L113.546 33.028C113.266 33.364 112.914 33.62 112.49 33.796C112.074 33.972 111.614 34.06 111.11 34.06ZM120.101 34L117.725 27.7H118.541L120.701 33.544H120.329L122.549 27.7H123.281L125.477 33.544H125.105L127.301 27.7H128.081L125.693 34H124.889L122.777 28.504H123.029L120.905 34H120.101ZM129.364 34V27.7H130.216V34H129.364ZM129.796 26.308C129.62 26.308 129.472 26.248 129.352 26.128C129.232 26.008 129.172 25.864 129.172 25.696C129.172 25.528 129.232 25.388 129.352 25.276C129.472 25.156 129.62 25.096 129.796 25.096C129.972 25.096 130.12 25.152 130.24 25.264C130.36 25.376 130.42 25.516 130.42 25.684C130.42 25.86 130.36 26.008 130.24 26.128C130.128 26.248 129.98 26.308 129.796 26.308ZM134.578 34.06C133.986 34.06 133.53 33.9 133.21 33.58C132.89 33.26 132.73 32.808 132.73 32.224V26.308H133.582V32.176C133.582 32.544 133.674 32.828 133.858 33.028C134.05 33.228 134.322 33.328 134.674 33.328C135.05 33.328 135.362 33.22 135.61 33.004L135.91 33.616C135.742 33.768 135.538 33.88 135.298 33.952C135.066 34.024 134.826 34.06 134.578 34.06ZM131.602 28.408V27.7H135.502V28.408H131.602ZM140.677 27.64C141.189 27.64 141.637 27.74 142.021 27.94C142.413 28.132 142.717 28.428 142.933 28.828C143.157 29.228 143.269 29.732 143.269 30.34V34H142.417V30.424C142.417 29.76 142.249 29.26 141.913 28.924C141.585 28.58 141.121 28.408 140.521 28.408C140.073 28.408 139.681 28.5 139.345 28.684C139.017 28.86 138.761 29.12 138.577 29.464C138.401 29.8 138.313 30.208 138.313 30.688V34H137.461V25.096H138.313V29.428L138.145 29.104C138.345 28.648 138.665 28.292 139.105 28.036C139.545 27.772 140.069 27.64 140.677 27.64ZM149.683 29.356H154.123V30.112H149.683V29.356ZM149.779 33.232H154.831V34H148.891V25.6H154.651V26.368H149.779V33.232ZM164.611 27.64C165.123 27.64 165.567 27.74 165.943 27.94C166.327 28.132 166.623 28.428 166.831 28.828C167.047 29.228 167.155 29.732 167.155 30.34V34H166.303V30.424C166.303 29.76 166.143 29.26 165.823 28.924C165.511 28.58 165.067 28.408 164.491 28.408C164.059 28.408 163.683 28.5 163.363 28.684C163.051 28.86 162.807 29.12 162.631 29.464C162.463 29.8 162.379 30.208 162.379 30.688V34H161.527V30.424C161.527 29.76 161.367 29.26 161.047 28.924C160.727 28.58 160.279 28.408 159.703 28.408C159.279 28.408 158.907 28.5 158.587 28.684C158.267 28.86 158.019 29.12 157.843 29.464C157.675 29.8 157.591 30.208 157.591 30.688V34H156.739V27.7H157.555V29.404L157.423 29.104C157.615 28.648 157.923 28.292 158.347 28.036C158.779 27.772 159.287 27.64 159.871 27.64C160.487 27.64 161.011 27.796 161.443 28.108C161.875 28.412 162.155 28.872 162.283 29.488L161.947 29.356C162.131 28.844 162.455 28.432 162.919 28.12C163.391 27.8 163.955 27.64 164.611 27.64ZM173.413 34V32.608L173.377 32.38V30.052C173.377 29.516 173.225 29.104 172.921 28.816C172.625 28.528 172.181 28.384 171.589 28.384C171.181 28.384 170.793 28.452 170.425 28.588C170.057 28.724 169.745 28.904 169.489 29.128L169.105 28.492C169.425 28.22 169.809 28.012 170.257 27.868C170.705 27.716 171.177 27.64 171.673 27.64C172.489 27.64 173.117 27.844 173.557 28.252C174.005 28.652 174.229 29.264 174.229 30.088V34H173.413ZM171.241 34.06C170.769 34.06 170.357 33.984 170.005 33.832C169.661 33.672 169.397 33.456 169.213 33.184C169.029 32.904 168.937 32.584 168.937 32.224C168.937 31.896 169.013 31.6 169.165 31.336C169.325 31.064 169.581 30.848 169.933 30.688C170.293 30.52 170.773 30.436 171.373 30.436H173.545V31.072H171.397C170.789 31.072 170.365 31.18 170.125 31.396C169.893 31.612 169.777 31.88 169.777 32.2C169.777 32.56 169.917 32.848 170.197 33.064C170.477 33.28 170.869 33.388 171.373 33.388C171.853 33.388 172.265 33.28 172.609 33.064C172.961 32.84 173.217 32.52 173.377 32.104L173.569 32.692C173.409 33.108 173.129 33.44 172.729 33.688C172.337 33.936 171.841 34.06 171.241 34.06ZM176.543 34V27.7H177.395V34H176.543ZM176.975 26.308C176.799 26.308 176.651 26.248 176.531 26.128C176.411 26.008 176.351 25.864 176.351 25.696C176.351 25.528 176.411 25.388 176.531 25.276C176.651 25.156 176.799 25.096 176.975 25.096C177.151 25.096 177.299 25.152 177.419 25.264C177.539 25.376 177.599 25.516 177.599 25.684C177.599 25.86 177.539 26.008 177.419 26.128C177.307 26.248 177.159 26.308 176.975 26.308ZM179.766 34V25.096H180.618V34H179.766Z" fill="#362C2C"/>
</g>
<defs>
<filter id="filter0_d_3887_4247" x="0.3" y="0.3" width="207.4" height="63.4" filterUnits="userSpaceOnUse" color-interpolation-filters="sRGB">
<feFlood flood-opacity="0" result="BackgroundImageFix"/>
<feColorMatrix in="SourceAlpha" type="matrix" values="0 0 0 0 0 0 0 0 0 0 0 0 0 0 0 0 0 0 127 0" result="hardAlpha"/>
<feOffset dy="2"/>
<feGaussianBlur stdDeviation="3.85"/>
<feComposite in2="hardAlpha" operator="out"/>
<feColorMatrix type="matrix" values="0 0 0 0 0 0 0 0 0 0 0 0 0 0 0 0 0 0 0.25 0"/>
<feBlend mode="normal" in2="BackgroundImageFix" result="effect1_dropShadow_3887_4247"/>
<feBlend mode="normal" in="SourceGraphic" in2="effect1_dropShadow_3887_4247" result="shape"/>
</filter>
</defs>
</svg>
