<svg width="308" height="54" viewBox="0 0 308 54" fill="none" xmlns="http://www.w3.org/2000/svg">
<rect x="0.5" y="0.5" width="307" height="53" rx="5.5" fill="white" stroke="#CCCCCC"/>
<path d="M103.944 32.128C103.091 32.128 102.275 32 101.496 31.744C100.717 31.4773 100.104 31.136 99.656 30.72L100.248 29.472C100.675 29.8453 101.219 30.1547 101.88 30.4C102.541 30.6453 103.229 30.768 103.944 30.768C104.595 30.768 105.123 30.6933 105.528 30.544C105.933 30.3947 106.232 30.192 106.424 29.936C106.616 29.6693 106.712 29.3707 106.712 29.04C106.712 28.656 106.584 28.3467 106.328 28.112C106.083 27.8773 105.757 27.6907 105.352 27.552C104.957 27.4027 104.52 27.2747 104.04 27.168C103.56 27.0613 103.075 26.9387 102.584 26.8C102.104 26.6507 101.661 26.464 101.256 26.24C100.861 26.016 100.541 25.7173 100.296 25.344C100.051 24.96 99.928 24.4693 99.928 23.872C99.928 23.296 100.077 22.768 100.376 22.288C100.685 21.7973 101.155 21.408 101.784 21.12C102.424 20.8213 103.235 20.672 104.216 20.672C104.867 20.672 105.512 20.7573 106.152 20.928C106.792 21.0987 107.347 21.344 107.816 21.664L107.288 22.944C106.808 22.624 106.301 22.3947 105.768 22.256C105.235 22.1067 104.717 22.032 104.216 22.032C103.587 22.032 103.069 22.112 102.664 22.272C102.259 22.432 101.96 22.6453 101.768 22.912C101.587 23.1787 101.496 23.4773 101.496 23.808C101.496 24.2027 101.619 24.5173 101.864 24.752C102.12 24.9867 102.445 25.1733 102.84 25.312C103.245 25.4507 103.688 25.5787 104.168 25.696C104.648 25.8027 105.128 25.9253 105.608 26.064C106.099 26.2027 106.541 26.384 106.936 26.608C107.341 26.832 107.667 27.1307 107.912 27.504C108.157 27.8773 108.28 28.3573 108.28 28.944C108.28 29.5093 108.125 30.0373 107.816 30.528C107.507 31.008 107.027 31.3973 106.376 31.696C105.736 31.984 104.925 32.128 103.944 32.128ZM110.394 32V23.52H111.93V32H110.394ZM111.162 21.888C110.863 21.888 110.612 21.792 110.41 21.6C110.218 21.408 110.122 21.1733 110.122 20.896C110.122 20.608 110.218 20.368 110.41 20.176C110.612 19.984 110.863 19.888 111.162 19.888C111.46 19.888 111.706 19.984 111.898 20.176C112.1 20.3573 112.202 20.5867 112.202 20.864C112.202 21.152 112.106 21.3973 111.914 21.6C111.722 21.792 111.471 21.888 111.162 21.888ZM118.574 35.2C117.796 35.2 117.038 35.088 116.302 34.864C115.577 34.6507 114.985 34.3413 114.526 33.936L115.262 32.752C115.657 33.0933 116.142 33.36 116.718 33.552C117.294 33.7547 117.897 33.856 118.526 33.856C119.529 33.856 120.265 33.6213 120.734 33.152C121.204 32.6827 121.438 31.968 121.438 31.008V29.216L121.598 27.536L121.518 25.84V23.52H122.974V30.848C122.974 32.3413 122.601 33.44 121.854 34.144C121.108 34.848 120.014 35.2 118.574 35.2ZM118.382 31.648C117.561 31.648 116.825 31.4773 116.174 31.136C115.534 30.784 115.022 30.2987 114.638 29.68C114.265 29.0613 114.078 28.3467 114.078 27.536C114.078 26.7147 114.265 26 114.638 25.392C115.022 24.7733 115.534 24.2933 116.174 23.952C116.825 23.6107 117.561 23.44 118.382 23.44C119.108 23.44 119.769 23.5893 120.366 23.888C120.964 24.176 121.438 24.624 121.79 25.232C122.153 25.84 122.334 26.608 122.334 27.536C122.334 28.4533 122.153 29.216 121.79 29.824C121.438 30.432 120.964 30.8907 120.366 31.2C119.769 31.4987 119.108 31.648 118.382 31.648ZM118.558 30.304C119.124 30.304 119.625 30.1867 120.062 29.952C120.5 29.7173 120.841 29.392 121.086 28.976C121.342 28.56 121.47 28.08 121.47 27.536C121.47 26.992 121.342 26.512 121.086 26.096C120.841 25.68 120.5 25.36 120.062 25.136C119.625 24.9013 119.124 24.784 118.558 24.784C117.993 24.784 117.486 24.9013 117.038 25.136C116.601 25.36 116.254 25.68 115.998 26.096C115.753 26.512 115.63 26.992 115.63 27.536C115.63 28.08 115.753 28.56 115.998 28.976C116.254 29.392 116.601 29.7173 117.038 29.952C117.486 30.1867 117.993 30.304 118.558 30.304ZM130.437 23.44C131.13 23.44 131.738 23.5733 132.261 23.84C132.794 24.1067 133.21 24.512 133.509 25.056C133.808 25.6 133.957 26.288 133.957 27.12V32H132.421V27.296C132.421 26.4747 132.218 25.856 131.813 25.44C131.418 25.024 130.858 24.816 130.133 24.816C129.589 24.816 129.114 24.9227 128.709 25.136C128.304 25.3493 127.989 25.664 127.765 26.08C127.552 26.496 127.445 27.0133 127.445 27.632V32H125.909V23.52H127.381V25.808L127.141 25.2C127.418 24.6453 127.845 24.2133 128.421 23.904C128.997 23.5947 129.669 23.44 130.437 23.44ZM141.097 32V23.52H142.633V32H141.097ZM141.865 21.888C141.566 21.888 141.315 21.792 141.113 21.6C140.921 21.408 140.825 21.1733 140.825 20.896C140.825 20.608 140.921 20.368 141.113 20.176C141.315 19.984 141.566 19.888 141.865 19.888C142.163 19.888 142.409 19.984 142.601 20.176C142.803 20.3573 142.905 20.5867 142.905 20.864C142.905 21.152 142.809 21.3973 142.617 21.6C142.425 21.792 142.174 21.888 141.865 21.888ZM150.093 23.44C150.787 23.44 151.395 23.5733 151.917 23.84C152.451 24.1067 152.867 24.512 153.165 25.056C153.464 25.6 153.613 26.288 153.613 27.12V32H152.077V27.296C152.077 26.4747 151.875 25.856 151.469 25.44C151.075 25.024 150.515 24.816 149.789 24.816C149.245 24.816 148.771 24.9227 148.365 25.136C147.96 25.3493 147.645 25.664 147.421 26.08C147.208 26.496 147.101 27.0133 147.101 27.632V32H145.565V23.52H147.037V25.808L146.797 25.2C147.075 24.6453 147.501 24.2133 148.077 23.904C148.653 23.5947 149.325 23.44 150.093 23.44ZM162.545 32L159.393 23.52H160.849L163.649 31.2H162.961L165.873 23.52H167.169L170.017 31.2H169.345L172.209 23.52H173.585L170.417 32H168.945L166.273 24.992H166.721L164.017 32H162.545ZM175.144 32V23.52H176.68V32H175.144ZM175.912 21.888C175.613 21.888 175.362 21.792 175.16 21.6C174.968 21.408 174.872 21.1733 174.872 20.896C174.872 20.608 174.968 20.368 175.16 20.176C175.362 19.984 175.613 19.888 175.912 19.888C176.21 19.888 176.456 19.984 176.648 20.176C176.85 20.3573 176.952 20.5867 176.952 20.864C176.952 21.152 176.856 21.3973 176.664 21.6C176.472 21.792 176.221 21.888 175.912 21.888ZM182.524 32.096C181.671 32.096 181.01 31.8667 180.54 31.408C180.071 30.9493 179.836 30.2933 179.836 29.44V21.664H181.372V29.376C181.372 29.8347 181.484 30.1867 181.708 30.432C181.943 30.6773 182.274 30.8 182.7 30.8C183.18 30.8 183.58 30.6667 183.9 30.4L184.38 31.504C184.146 31.7067 183.863 31.856 183.532 31.952C183.212 32.048 182.876 32.096 182.524 32.096ZM178.396 24.784V23.52H183.804V24.784H178.396ZM190.765 23.44C191.459 23.44 192.067 23.5733 192.589 23.84C193.123 24.1067 193.539 24.512 193.837 25.056C194.136 25.6 194.285 26.288 194.285 27.12V32H192.749V27.296C192.749 26.4747 192.547 25.856 192.141 25.44C191.747 25.024 191.187 24.816 190.461 24.816C189.917 24.816 189.443 24.9227 189.037 25.136C188.632 25.3493 188.317 25.664 188.093 26.08C187.88 26.496 187.773 27.0133 187.773 27.632V32H186.237V20.128H187.773V25.808L187.469 25.2C187.747 24.6453 188.173 24.2133 188.749 23.904C189.325 23.5947 189.997 23.44 190.765 23.44ZM203.105 25.632H208.865V26.992H203.105V25.632ZM203.249 30.608H209.777V32H201.649V20.8H209.553V22.192H203.249V30.608ZM222.752 23.44C223.434 23.44 224.037 23.5733 224.56 23.84C225.082 24.1067 225.488 24.512 225.776 25.056C226.074 25.6 226.224 26.288 226.224 27.12V32H224.688V27.296C224.688 26.4747 224.496 25.856 224.112 25.44C223.728 25.024 223.189 24.816 222.496 24.816C221.984 24.816 221.536 24.9227 221.152 25.136C220.768 25.3493 220.469 25.664 220.256 26.08C220.053 26.496 219.952 27.0133 219.952 27.632V32H218.416V27.296C218.416 26.4747 218.224 25.856 217.84 25.44C217.466 25.024 216.928 24.816 216.224 24.816C215.722 24.816 215.28 24.9227 214.896 25.136C214.512 25.3493 214.213 25.664 214 26.08C213.786 26.496 213.68 27.0133 213.68 27.632V32H212.144V23.52H213.616V25.776L213.376 25.2C213.642 24.6453 214.053 24.2133 214.608 23.904C215.162 23.5947 215.808 23.44 216.544 23.44C217.354 23.44 218.053 23.6427 218.64 24.048C219.226 24.4427 219.61 25.0453 219.792 25.856L219.168 25.6C219.424 24.9493 219.872 24.4267 220.512 24.032C221.152 23.6373 221.898 23.44 222.752 23.44ZM234.314 32V30.208L234.234 29.872V26.816C234.234 26.1653 234.042 25.664 233.658 25.312C233.284 24.9493 232.719 24.768 231.962 24.768C231.46 24.768 230.97 24.8533 230.49 25.024C230.01 25.184 229.604 25.4027 229.274 25.68L228.634 24.528C229.071 24.176 229.594 23.9093 230.202 23.728C230.82 23.536 231.466 23.44 232.138 23.44C233.3 23.44 234.196 23.7227 234.826 24.288C235.455 24.8533 235.77 25.7173 235.77 26.88V32H234.314ZM231.53 32.096C230.9 32.096 230.346 31.9893 229.866 31.776C229.396 31.5627 229.034 31.2693 228.778 30.896C228.522 30.512 228.394 30.08 228.394 29.6C228.394 29.1413 228.5 28.7253 228.714 28.352C228.938 27.9787 229.295 27.68 229.786 27.456C230.287 27.232 230.959 27.12 231.802 27.12H234.49V28.224H231.866C231.098 28.224 230.58 28.352 230.314 28.608C230.047 28.864 229.914 29.1733 229.914 29.536C229.914 29.952 230.079 30.288 230.41 30.544C230.74 30.7893 231.199 30.912 231.786 30.912C232.362 30.912 232.863 30.784 233.29 30.528C233.727 30.272 234.042 29.8987 234.234 29.408L234.538 30.464C234.335 30.9653 233.978 31.3653 233.466 31.664C232.954 31.952 232.308 32.096 231.53 32.096ZM238.612 32V23.52H240.148V32H238.612ZM239.38 21.888C239.082 21.888 238.831 21.792 238.628 21.6C238.436 21.408 238.34 21.1733 238.34 20.896C238.34 20.608 238.436 20.368 238.628 20.176C238.831 19.984 239.082 19.888 239.38 19.888C239.679 19.888 239.924 19.984 240.116 20.176C240.319 20.3573 240.42 20.5867 240.42 20.864C240.42 21.152 240.324 21.3973 240.132 21.6C239.94 21.792 239.69 21.888 239.38 21.888ZM243.081 32V20.128H244.617V32H243.081Z" fill="#797979"/>
<path d="M60 20.8571L70.0824 27.6205C70.9408 28.1963 72.0592 28.1963 72.9176 27.6205L83 20.8571M62.5556 35H80.4444C81.8558 35 83 33.8487 83 32.4286V19.5714C83 18.1513 81.8558 17 80.4444 17H62.5556C61.1442 17 60 18.1513 60 19.5714V32.4286C60 33.8487 61.1442 35 62.5556 35Z" stroke="#797979" stroke-width="1.2" stroke-linecap="round" stroke-linejoin="round"/>
</svg>
