<svg width="212" height="64" viewBox="0 0 212 64" fill="none" xmlns="http://www.w3.org/2000/svg">
<g filter="url(#filter0_d_3887_4118)">
<rect x="8" y="6" width="196" height="48" rx="5" fill="white"/>
<path d="M9 11C9 8.79086 10.7909 7 13 7H59V53H13C10.7909 53 9 51.2091 9 49V11Z" fill="white"/>
<path d="M44.8055 28.0415H44V28H35V32H40.6515C39.827 34.3285 37.6115 36 35 36C31.6865 36 29 33.3135 29 30C29 26.6865 31.6865 24 35 24C36.5295 24 37.921 24.577 38.9805 25.5195L41.809 22.691C40.023 21.0265 37.634 20 35 20C29.4775 20 25 24.4775 25 30C25 35.5225 29.4775 40 35 40C40.5225 40 45 35.5225 45 30C45 29.3295 44.931 28.675 44.8055 28.0415Z" fill="#FFC107"/>
<path d="M26.1523 25.3455L29.4378 27.755C30.3268 25.554 32.4798 24 34.9993 24C36.5288 24 37.9203 24.577 38.9798 25.5195L41.8083 22.691C40.0223 21.0265 37.6333 20 34.9993 20C31.1583 20 27.8273 22.1685 26.1523 25.3455Z" fill="#FF3D00"/>
<path d="M35.0002 40.0003C37.5832 40.0003 39.9302 39.0118 41.7047 37.4043L38.6097 34.7853C37.5719 35.5745 36.3039 36.0014 35.0002 36.0003C32.3992 36.0003 30.1907 34.3418 29.3587 32.0273L26.0977 34.5398C27.7527 37.7783 31.1137 40.0003 35.0002 40.0003Z" fill="#4CAF50"/>
<path d="M44.8055 28.0415H44V28H35V32H40.6515C40.2571 33.1082 39.5467 34.0766 38.608 34.7855L38.6095 34.7845L41.7045 37.4035C41.4855 37.6025 45 35 45 30C45 29.3295 44.931 28.675 44.8055 28.0415Z" fill="#1976D2"/>
<path d="M60.016 34.072C59.384 34.072 58.8 33.968 58.264 33.76C57.728 33.544 57.264 33.244 56.872 32.86C56.48 32.476 56.172 32.024 55.948 31.504C55.732 30.984 55.624 30.416 55.624 29.8C55.624 29.184 55.732 28.616 55.948 28.096C56.172 27.576 56.48 27.124 56.872 26.74C57.272 26.356 57.74 26.06 58.276 25.852C58.812 25.636 59.396 25.528 60.028 25.528C60.636 25.528 61.208 25.632 61.744 25.84C62.28 26.04 62.732 26.344 63.1 26.752L62.536 27.316C62.192 26.964 61.812 26.712 61.396 26.56C60.98 26.4 60.532 26.32 60.052 26.32C59.548 26.32 59.08 26.408 58.648 26.584C58.216 26.752 57.84 26.996 57.52 27.316C57.2 27.628 56.948 27.996 56.764 28.42C56.588 28.836 56.5 29.296 56.5 29.8C56.5 30.304 56.588 30.768 56.764 31.192C56.948 31.608 57.2 31.976 57.52 32.296C57.84 32.608 58.216 32.852 58.648 33.028C59.08 33.196 59.548 33.28 60.052 33.28C60.532 33.28 60.98 33.2 61.396 33.04C61.812 32.88 62.192 32.624 62.536 32.272L63.1 32.836C62.732 33.244 62.28 33.552 61.744 33.76C61.208 33.968 60.632 34.072 60.016 34.072ZM67.0998 34.06C66.4918 34.06 65.9438 33.924 65.4558 33.652C64.9758 33.372 64.5958 32.992 64.3158 32.512C64.0358 32.024 63.8958 31.468 63.8958 30.844C63.8958 30.212 64.0358 29.656 64.3158 29.176C64.5958 28.696 64.9758 28.32 65.4558 28.048C65.9358 27.776 66.4838 27.64 67.0998 27.64C67.7238 27.64 68.2758 27.776 68.7558 28.048C69.2438 28.32 69.6238 28.696 69.8958 29.176C70.1758 29.656 70.3158 30.212 70.3158 30.844C70.3158 31.468 70.1758 32.024 69.8958 32.512C69.6238 32.992 69.2438 33.372 68.7558 33.652C68.2678 33.924 67.7158 34.06 67.0998 34.06ZM67.0998 33.304C67.5558 33.304 67.9598 33.204 68.3118 33.004C68.6638 32.796 68.9398 32.508 69.1398 32.14C69.3478 31.764 69.4518 31.332 69.4518 30.844C69.4518 30.348 69.3478 29.916 69.1398 29.548C68.9398 29.18 68.6638 28.896 68.3118 28.696C67.9598 28.488 67.5598 28.384 67.1118 28.384C66.6638 28.384 66.2638 28.488 65.9118 28.696C65.5598 28.896 65.2798 29.18 65.0718 29.548C64.8638 29.916 64.7598 30.348 64.7598 30.844C64.7598 31.332 64.8638 31.764 65.0718 32.14C65.2798 32.508 65.5598 32.796 65.9118 33.004C66.2638 33.204 66.6598 33.304 67.0998 33.304ZM75.2712 27.64C75.7832 27.64 76.2312 27.74 76.6152 27.94C77.0072 28.132 77.3112 28.428 77.5272 28.828C77.7512 29.228 77.8632 29.732 77.8632 30.34V34H77.0112V30.424C77.0112 29.76 76.8432 29.26 76.5072 28.924C76.1792 28.58 75.7152 28.408 75.1152 28.408C74.6672 28.408 74.2752 28.5 73.9392 28.684C73.6112 28.86 73.3552 29.12 73.1712 29.464C72.9952 29.8 72.9072 30.208 72.9072 30.688V34H72.0552V27.7H72.8712V29.428L72.7392 29.104C72.9392 28.648 73.2592 28.292 73.6992 28.036C74.1392 27.772 74.6632 27.64 75.2712 27.64ZM82.1566 34.06C81.5646 34.06 81.1086 33.9 80.7886 33.58C80.4686 33.26 80.3086 32.808 80.3086 32.224V26.308H81.1606V32.176C81.1606 32.544 81.2526 32.828 81.4366 33.028C81.6286 33.228 81.9006 33.328 82.2526 33.328C82.6286 33.328 82.9406 33.22 83.1886 33.004L83.4886 33.616C83.3206 33.768 83.1166 33.88 82.8766 33.952C82.6446 34.024 82.4046 34.06 82.1566 34.06ZM79.1806 28.408V27.7H83.0806V28.408H79.1806ZM85.0396 34V27.7H85.8916V34H85.0396ZM85.4716 26.308C85.2956 26.308 85.1476 26.248 85.0276 26.128C84.9076 26.008 84.8476 25.864 84.8476 25.696C84.8476 25.528 84.9076 25.388 85.0276 25.276C85.1476 25.156 85.2956 25.096 85.4716 25.096C85.6476 25.096 85.7956 25.152 85.9156 25.264C86.0356 25.376 86.0956 25.516 86.0956 25.684C86.0956 25.86 86.0356 26.008 85.9156 26.128C85.8036 26.248 85.6556 26.308 85.4716 26.308ZM91.4782 27.64C91.9902 27.64 92.4382 27.74 92.8222 27.94C93.2142 28.132 93.5182 28.428 93.7342 28.828C93.9582 29.228 94.0702 29.732 94.0702 30.34V34H93.2182V30.424C93.2182 29.76 93.0502 29.26 92.7142 28.924C92.3862 28.58 91.9222 28.408 91.3222 28.408C90.8742 28.408 90.4822 28.5 90.1462 28.684C89.8182 28.86 89.5622 29.12 89.3782 29.464C89.2022 29.8 89.1142 30.208 89.1142 30.688V34H88.2622V27.7H89.0782V29.428L88.9462 29.104C89.1462 28.648 89.4662 28.292 89.9062 28.036C90.3462 27.772 90.8702 27.64 91.4782 27.64ZM98.9756 34.06C98.4396 34.06 97.9716 33.96 97.5716 33.76C97.1716 33.56 96.8596 33.26 96.6356 32.86C96.4196 32.46 96.3116 31.96 96.3116 31.36V27.7H97.1636V31.264C97.1636 31.936 97.3276 32.444 97.6556 32.788C97.9916 33.124 98.4596 33.292 99.0596 33.292C99.4996 33.292 99.8796 33.204 100.2 33.028C100.528 32.844 100.776 32.58 100.944 32.236C101.12 31.892 101.208 31.48 101.208 31V27.7H102.06V34H101.244V32.272L101.376 32.584C101.176 33.048 100.864 33.412 100.44 33.676C100.024 33.932 99.5356 34.06 98.9756 34.06ZM107.11 34.06C106.454 34.06 105.878 33.924 105.382 33.652C104.886 33.372 104.498 32.992 104.218 32.512C103.938 32.024 103.798 31.468 103.798 30.844C103.798 30.22 103.93 29.668 104.194 29.188C104.466 28.708 104.834 28.332 105.298 28.06C105.77 27.78 106.298 27.64 106.882 27.64C107.474 27.64 107.998 27.776 108.454 28.048C108.918 28.312 109.282 28.688 109.546 29.176C109.81 29.656 109.942 30.212 109.942 30.844C109.942 30.884 109.938 30.928 109.93 30.976C109.93 31.016 109.93 31.06 109.93 31.108H104.446V30.472H109.474L109.138 30.724C109.138 30.268 109.038 29.864 108.838 29.512C108.646 29.152 108.382 28.872 108.046 28.672C107.71 28.472 107.322 28.372 106.882 28.372C106.45 28.372 106.062 28.472 105.718 28.672C105.374 28.872 105.106 29.152 104.914 29.512C104.722 29.872 104.626 30.284 104.626 30.748V30.88C104.626 31.36 104.73 31.784 104.938 32.152C105.154 32.512 105.45 32.796 105.826 33.004C106.21 33.204 106.646 33.304 107.134 33.304C107.518 33.304 107.874 33.236 108.202 33.1C108.538 32.964 108.826 32.756 109.066 32.476L109.546 33.028C109.266 33.364 108.914 33.62 108.49 33.796C108.074 33.972 107.614 34.06 107.11 34.06ZM116.101 34L113.725 27.7H114.541L116.701 33.544H116.329L118.549 27.7H119.281L121.477 33.544H121.105L123.301 27.7H124.081L121.693 34H120.889L118.777 28.504H119.029L116.905 34H116.101ZM125.364 34V27.7H126.216V34H125.364ZM125.796 26.308C125.62 26.308 125.472 26.248 125.352 26.128C125.232 26.008 125.172 25.864 125.172 25.696C125.172 25.528 125.232 25.388 125.352 25.276C125.472 25.156 125.62 25.096 125.796 25.096C125.972 25.096 126.12 25.152 126.24 25.264C126.36 25.376 126.42 25.516 126.42 25.684C126.42 25.86 126.36 26.008 126.24 26.128C126.128 26.248 125.98 26.308 125.796 26.308ZM130.578 34.06C129.986 34.06 129.53 33.9 129.21 33.58C128.89 33.26 128.73 32.808 128.73 32.224V26.308H129.582V32.176C129.582 32.544 129.674 32.828 129.858 33.028C130.05 33.228 130.322 33.328 130.674 33.328C131.05 33.328 131.362 33.22 131.61 33.004L131.91 33.616C131.742 33.768 131.538 33.88 131.298 33.952C131.066 34.024 130.826 34.06 130.578 34.06ZM127.602 28.408V27.7H131.502V28.408H127.602ZM136.677 27.64C137.189 27.64 137.637 27.74 138.021 27.94C138.413 28.132 138.717 28.428 138.933 28.828C139.157 29.228 139.269 29.732 139.269 30.34V34H138.417V30.424C138.417 29.76 138.249 29.26 137.913 28.924C137.585 28.58 137.121 28.408 136.521 28.408C136.073 28.408 135.681 28.5 135.345 28.684C135.017 28.86 134.761 29.12 134.577 29.464C134.401 29.8 134.313 30.208 134.313 30.688V34H133.461V25.096H134.313V29.428L134.145 29.104C134.345 28.648 134.665 28.292 135.105 28.036C135.545 27.772 136.069 27.64 136.677 27.64ZM148.575 34.072C147.935 34.072 147.343 33.968 146.799 33.76C146.263 33.544 145.795 33.244 145.395 32.86C145.003 32.476 144.695 32.024 144.471 31.504C144.255 30.984 144.147 30.416 144.147 29.8C144.147 29.184 144.255 28.616 144.471 28.096C144.695 27.576 145.007 27.124 145.407 26.74C145.807 26.356 146.275 26.06 146.811 25.852C147.355 25.636 147.947 25.528 148.587 25.528C149.227 25.528 149.811 25.628 150.339 25.828C150.875 26.028 151.331 26.332 151.707 26.74L151.155 27.304C150.803 26.952 150.415 26.7 149.991 26.548C149.567 26.396 149.111 26.32 148.623 26.32C148.103 26.32 147.623 26.408 147.183 26.584C146.751 26.752 146.371 26.996 146.043 27.316C145.723 27.628 145.471 27.996 145.287 28.42C145.111 28.836 145.023 29.296 145.023 29.8C145.023 30.296 145.111 30.756 145.287 31.18C145.471 31.604 145.723 31.976 146.043 32.296C146.371 32.608 146.751 32.852 147.183 33.028C147.623 33.196 148.099 33.28 148.611 33.28C149.091 33.28 149.543 33.208 149.967 33.064C150.399 32.92 150.795 32.676 151.155 32.332L151.659 33.004C151.259 33.356 150.791 33.624 150.255 33.808C149.719 33.984 149.159 34.072 148.575 34.072ZM150.807 32.896V29.8H151.659V33.004L150.807 32.896ZM156.561 34.06C155.953 34.06 155.405 33.924 154.917 33.652C154.437 33.372 154.057 32.992 153.777 32.512C153.497 32.024 153.357 31.468 153.357 30.844C153.357 30.212 153.497 29.656 153.777 29.176C154.057 28.696 154.437 28.32 154.917 28.048C155.397 27.776 155.945 27.64 156.561 27.64C157.185 27.64 157.737 27.776 158.217 28.048C158.705 28.32 159.085 28.696 159.357 29.176C159.637 29.656 159.777 30.212 159.777 30.844C159.777 31.468 159.637 32.024 159.357 32.512C159.085 32.992 158.705 33.372 158.217 33.652C157.729 33.924 157.177 34.06 156.561 34.06ZM156.561 33.304C157.017 33.304 157.421 33.204 157.773 33.004C158.125 32.796 158.401 32.508 158.601 32.14C158.809 31.764 158.913 31.332 158.913 30.844C158.913 30.348 158.809 29.916 158.601 29.548C158.401 29.18 158.125 28.896 157.773 28.696C157.421 28.488 157.021 28.384 156.573 28.384C156.125 28.384 155.725 28.488 155.373 28.696C155.021 28.896 154.741 29.18 154.533 29.548C154.325 29.916 154.221 30.348 154.221 30.844C154.221 31.332 154.325 31.764 154.533 32.14C154.741 32.508 155.021 32.796 155.373 33.004C155.725 33.204 156.121 33.304 156.561 33.304ZM164.084 34.06C163.476 34.06 162.928 33.924 162.44 33.652C161.96 33.372 161.58 32.992 161.3 32.512C161.02 32.024 160.88 31.468 160.88 30.844C160.88 30.212 161.02 29.656 161.3 29.176C161.58 28.696 161.96 28.32 162.44 28.048C162.92 27.776 163.468 27.64 164.084 27.64C164.708 27.64 165.26 27.776 165.74 28.048C166.228 28.32 166.608 28.696 166.88 29.176C167.16 29.656 167.3 30.212 167.3 30.844C167.3 31.468 167.16 32.024 166.88 32.512C166.608 32.992 166.228 33.372 165.74 33.652C165.252 33.924 164.7 34.06 164.084 34.06ZM164.084 33.304C164.54 33.304 164.944 33.204 165.296 33.004C165.648 32.796 165.924 32.508 166.124 32.14C166.332 31.764 166.436 31.332 166.436 30.844C166.436 30.348 166.332 29.916 166.124 29.548C165.924 29.18 165.648 28.896 165.296 28.696C164.944 28.488 164.544 28.384 164.096 28.384C163.648 28.384 163.248 28.488 162.896 28.696C162.544 28.896 162.264 29.18 162.056 29.548C161.848 29.916 161.744 30.348 161.744 30.844C161.744 31.332 161.848 31.764 162.056 32.14C162.264 32.508 162.544 32.796 162.896 33.004C163.248 33.204 163.644 33.304 164.084 33.304ZM171.728 36.388C171.152 36.388 170.6 36.304 170.072 36.136C169.544 35.968 169.116 35.728 168.788 35.416L169.22 34.768C169.516 35.032 169.88 35.24 170.312 35.392C170.752 35.552 171.216 35.632 171.704 35.632C172.504 35.632 173.092 35.444 173.468 35.068C173.844 34.7 174.032 34.124 174.032 33.34V31.768L174.152 30.688L174.068 29.608V27.7H174.884V33.232C174.884 34.32 174.616 35.116 174.08 35.62C173.552 36.132 172.768 36.388 171.728 36.388ZM171.572 33.76C170.972 33.76 170.432 33.632 169.952 33.376C169.472 33.112 169.092 32.748 168.812 32.284C168.54 31.82 168.404 31.288 168.404 30.688C168.404 30.088 168.54 29.56 168.812 29.104C169.092 28.64 169.472 28.28 169.952 28.024C170.432 27.768 170.972 27.64 171.572 27.64C172.132 27.64 172.636 27.756 173.084 27.988C173.532 28.22 173.888 28.564 174.152 29.02C174.416 29.476 174.548 30.032 174.548 30.688C174.548 31.344 174.416 31.9 174.152 32.356C173.888 32.812 173.532 33.16 173.084 33.4C172.636 33.64 172.132 33.76 171.572 33.76ZM171.656 33.004C172.12 33.004 172.532 32.908 172.892 32.716C173.252 32.516 173.536 32.244 173.744 31.9C173.952 31.548 174.056 31.144 174.056 30.688C174.056 30.232 173.952 29.832 173.744 29.488C173.536 29.144 173.252 28.876 172.892 28.684C172.532 28.484 172.12 28.384 171.656 28.384C171.2 28.384 170.788 28.484 170.42 28.684C170.06 28.876 169.776 29.144 169.568 29.488C169.368 29.832 169.268 30.232 169.268 30.688C169.268 31.144 169.368 31.548 169.568 31.9C169.776 32.244 170.06 32.516 170.42 32.716C170.788 32.908 171.2 33.004 171.656 33.004ZM177.254 34V25.096H178.106V34H177.254ZM183.153 34.06C182.497 34.06 181.921 33.924 181.425 33.652C180.929 33.372 180.541 32.992 180.261 32.512C179.981 32.024 179.841 31.468 179.841 30.844C179.841 30.22 179.973 29.668 180.237 29.188C180.509 28.708 180.877 28.332 181.341 28.06C181.813 27.78 182.341 27.64 182.925 27.64C183.517 27.64 184.041 27.776 184.497 28.048C184.961 28.312 185.325 28.688 185.589 29.176C185.853 29.656 185.985 30.212 185.985 30.844C185.985 30.884 185.981 30.928 185.973 30.976C185.973 31.016 185.973 31.06 185.973 31.108H180.489V30.472H185.517L185.181 30.724C185.181 30.268 185.081 29.864 184.881 29.512C184.689 29.152 184.425 28.872 184.089 28.672C183.753 28.472 183.365 28.372 182.925 28.372C182.493 28.372 182.105 28.472 181.761 28.672C181.417 28.872 181.149 29.152 180.957 29.512C180.765 29.872 180.669 30.284 180.669 30.748V30.88C180.669 31.36 180.773 31.784 180.981 32.152C181.197 32.512 181.493 32.796 181.869 33.004C182.253 33.204 182.689 33.304 183.177 33.304C183.561 33.304 183.917 33.236 184.245 33.1C184.581 32.964 184.869 32.756 185.109 32.476L185.589 33.028C185.309 33.364 184.957 33.62 184.533 33.796C184.117 33.972 183.657 34.06 183.153 34.06Z" fill="black"/>
</g>
<defs>
<filter id="filter0_d_3887_4118" x="0.3" y="0.3" width="211.4" height="63.4" filterUnits="userSpaceOnUse" color-interpolation-filters="sRGB">
<feFlood flood-opacity="0" result="BackgroundImageFix"/>
<feColorMatrix in="SourceAlpha" type="matrix" values="0 0 0 0 0 0 0 0 0 0 0 0 0 0 0 0 0 0 127 0" result="hardAlpha"/>
<feOffset dy="2"/>
<feGaussianBlur stdDeviation="3.85"/>
<feComposite in2="hardAlpha" operator="out"/>
<feColorMatrix type="matrix" values="0 0 0 0 0 0 0 0 0 0 0 0 0 0 0 0 0 0 0.25 0"/>
<feBlend mode="normal" in2="BackgroundImageFix" result="effect1_dropShadow_3887_4118"/>
<feBlend mode="normal" in="SourceGraphic" in2="effect1_dropShadow_3887_4118" result="shape"/>
</filter>
</defs>
</svg>
