<svg width="22" height="22" viewBox="0 0 22 22" fill="none" xmlns="http://www.w3.org/2000/svg">
<path d="M6.20962 15.7904C12.7855 22.3663 17.9001 21.6356 20.0921 19.4437C21.3026 18.2331 21.3026 16.2703 20.0921 15.0597L18.6091 13.5768C17.814 12.7817 16.5249 12.7817 15.7298 13.5768C14.8209 14.4856 13.4675 14.8 12.3734 14.1254C11.6327 13.6688 10.7478 13.022 9.86289 12.1371C8.97797 11.2522 8.33122 10.3673 7.87456 9.62658C7.20003 8.5325 7.51437 7.17908 8.42322 6.27024C9.21833 5.47512 9.21833 4.186 8.42322 3.39089L6.94027 1.90794C5.72968 0.697353 3.76693 0.697353 2.55634 1.90794C0.364377 4.09991 -0.366276 9.21449 6.20962 15.7904Z" stroke="#797979" stroke-linejoin="round"/>
</svg>
