<svg width="214" height="64" viewBox="0 0 214 64" fill="none" xmlns="http://www.w3.org/2000/svg">
<g filter="url(#filter0_d_4049_5598)">
<rect x="8" y="6" width="198" height="48" rx="5" fill="white"/>
<path d="M9 11C9 8.79086 10.7909 7 13 7H59V53H13C10.7909 53 9 51.2091 9 49V11Z" fill="white"/>
<path d="M42.04 37.506C39.2574 36.7928 36.7176 35.3448 34.6864 33.3136C32.6552 31.2824 31.2072 28.7426 30.494 25.96C29.949 23.819 31.79 22 34 22L35 22C35.552 22 35.995 22.449 36.05 22.998C36.1397 23.9085 36.3548 24.8023 36.689 25.654L35.169 27.174C36.3553 29.6489 38.3511 31.6447 40.826 32.831L42.346 31.311C43.1977 31.6456 44.0914 31.8609 45.002 31.951C45.552 32.005 46 32.448 46 33L46 34C46 36.21 44.181 38.051 42.04 37.506Z" stroke="black" stroke-linecap="round" stroke-linejoin="round"/>
<path d="M63.016 34.072C62.384 34.072 61.8 33.968 61.264 33.76C60.728 33.544 60.264 33.244 59.872 32.86C59.48 32.476 59.172 32.024 58.948 31.504C58.732 30.984 58.624 30.416 58.624 29.8C58.624 29.184 58.732 28.616 58.948 28.096C59.172 27.576 59.48 27.124 59.872 26.74C60.272 26.356 60.74 26.06 61.276 25.852C61.812 25.636 62.396 25.528 63.028 25.528C63.636 25.528 64.208 25.632 64.744 25.84C65.28 26.04 65.732 26.344 66.1 26.752L65.536 27.316C65.192 26.964 64.812 26.712 64.396 26.56C63.98 26.4 63.532 26.32 63.052 26.32C62.548 26.32 62.08 26.408 61.648 26.584C61.216 26.752 60.84 26.996 60.52 27.316C60.2 27.628 59.948 27.996 59.764 28.42C59.588 28.836 59.5 29.296 59.5 29.8C59.5 30.304 59.588 30.768 59.764 31.192C59.948 31.608 60.2 31.976 60.52 32.296C60.84 32.608 61.216 32.852 61.648 33.028C62.08 33.196 62.548 33.28 63.052 33.28C63.532 33.28 63.98 33.2 64.396 33.04C64.812 32.88 65.192 32.624 65.536 32.272L66.1 32.836C65.732 33.244 65.28 33.552 64.744 33.76C64.208 33.968 63.632 34.072 63.016 34.072ZM70.0998 34.06C69.4918 34.06 68.9438 33.924 68.4558 33.652C67.9758 33.372 67.5958 32.992 67.3158 32.512C67.0358 32.024 66.8958 31.468 66.8958 30.844C66.8958 30.212 67.0358 29.656 67.3158 29.176C67.5958 28.696 67.9758 28.32 68.4558 28.048C68.9358 27.776 69.4838 27.64 70.0998 27.64C70.7238 27.64 71.2758 27.776 71.7558 28.048C72.2438 28.32 72.6238 28.696 72.8958 29.176C73.1758 29.656 73.3158 30.212 73.3158 30.844C73.3158 31.468 73.1758 32.024 72.8958 32.512C72.6238 32.992 72.2438 33.372 71.7558 33.652C71.2678 33.924 70.7158 34.06 70.0998 34.06ZM70.0998 33.304C70.5558 33.304 70.9598 33.204 71.3118 33.004C71.6638 32.796 71.9398 32.508 72.1398 32.14C72.3478 31.764 72.4518 31.332 72.4518 30.844C72.4518 30.348 72.3478 29.916 72.1398 29.548C71.9398 29.18 71.6638 28.896 71.3118 28.696C70.9598 28.488 70.5598 28.384 70.1118 28.384C69.6638 28.384 69.2638 28.488 68.9118 28.696C68.5598 28.896 68.2798 29.18 68.0718 29.548C67.8638 29.916 67.7598 30.348 67.7598 30.844C67.7598 31.332 67.8638 31.764 68.0718 32.14C68.2798 32.508 68.5598 32.796 68.9118 33.004C69.2638 33.204 69.6598 33.304 70.0998 33.304ZM78.2712 27.64C78.7832 27.64 79.2312 27.74 79.6152 27.94C80.0072 28.132 80.3112 28.428 80.5272 28.828C80.7512 29.228 80.8632 29.732 80.8632 30.34V34H80.0112V30.424C80.0112 29.76 79.8432 29.26 79.5072 28.924C79.1792 28.58 78.7152 28.408 78.1152 28.408C77.6672 28.408 77.2752 28.5 76.9392 28.684C76.6112 28.86 76.3552 29.12 76.1712 29.464C75.9952 29.8 75.9072 30.208 75.9072 30.688V34H75.0552V27.7H75.8712V29.428L75.7392 29.104C75.9392 28.648 76.2592 28.292 76.6992 28.036C77.1392 27.772 77.6632 27.64 78.2712 27.64ZM85.1566 34.06C84.5646 34.06 84.1086 33.9 83.7886 33.58C83.4686 33.26 83.3086 32.808 83.3086 32.224V26.308H84.1606V32.176C84.1606 32.544 84.2526 32.828 84.4366 33.028C84.6286 33.228 84.9006 33.328 85.2526 33.328C85.6286 33.328 85.9406 33.22 86.1886 33.004L86.4886 33.616C86.3206 33.768 86.1166 33.88 85.8766 33.952C85.6446 34.024 85.4046 34.06 85.1566 34.06ZM82.1806 28.408V27.7H86.0806V28.408H82.1806ZM88.0396 34V27.7H88.8916V34H88.0396ZM88.4716 26.308C88.2956 26.308 88.1476 26.248 88.0276 26.128C87.9076 26.008 87.8476 25.864 87.8476 25.696C87.8476 25.528 87.9076 25.388 88.0276 25.276C88.1476 25.156 88.2956 25.096 88.4716 25.096C88.6476 25.096 88.7956 25.152 88.9156 25.264C89.0356 25.376 89.0956 25.516 89.0956 25.684C89.0956 25.86 89.0356 26.008 88.9156 26.128C88.8036 26.248 88.6556 26.308 88.4716 26.308ZM94.4782 27.64C94.9902 27.64 95.4382 27.74 95.8222 27.94C96.2142 28.132 96.5182 28.428 96.7342 28.828C96.9582 29.228 97.0702 29.732 97.0702 30.34V34H96.2182V30.424C96.2182 29.76 96.0502 29.26 95.7142 28.924C95.3862 28.58 94.9222 28.408 94.3222 28.408C93.8742 28.408 93.4822 28.5 93.1462 28.684C92.8182 28.86 92.5622 29.12 92.3782 29.464C92.2022 29.8 92.1142 30.208 92.1142 30.688V34H91.2622V27.7H92.0782V29.428L91.9462 29.104C92.1462 28.648 92.4662 28.292 92.9062 28.036C93.3462 27.772 93.8702 27.64 94.4782 27.64ZM101.976 34.06C101.44 34.06 100.972 33.96 100.572 33.76C100.172 33.56 99.8596 33.26 99.6356 32.86C99.4196 32.46 99.3116 31.96 99.3116 31.36V27.7H100.164V31.264C100.164 31.936 100.328 32.444 100.656 32.788C100.992 33.124 101.46 33.292 102.06 33.292C102.5 33.292 102.88 33.204 103.2 33.028C103.528 32.844 103.776 32.58 103.944 32.236C104.12 31.892 104.208 31.48 104.208 31V27.7H105.06V34H104.244V32.272L104.376 32.584C104.176 33.048 103.864 33.412 103.44 33.676C103.024 33.932 102.536 34.06 101.976 34.06ZM110.11 34.06C109.454 34.06 108.878 33.924 108.382 33.652C107.886 33.372 107.498 32.992 107.218 32.512C106.938 32.024 106.798 31.468 106.798 30.844C106.798 30.22 106.93 29.668 107.194 29.188C107.466 28.708 107.834 28.332 108.298 28.06C108.77 27.78 109.298 27.64 109.882 27.64C110.474 27.64 110.998 27.776 111.454 28.048C111.918 28.312 112.282 28.688 112.546 29.176C112.81 29.656 112.942 30.212 112.942 30.844C112.942 30.884 112.938 30.928 112.93 30.976C112.93 31.016 112.93 31.06 112.93 31.108H107.446V30.472H112.474L112.138 30.724C112.138 30.268 112.038 29.864 111.838 29.512C111.646 29.152 111.382 28.872 111.046 28.672C110.71 28.472 110.322 28.372 109.882 28.372C109.45 28.372 109.062 28.472 108.718 28.672C108.374 28.872 108.106 29.152 107.914 29.512C107.722 29.872 107.626 30.284 107.626 30.748V30.88C107.626 31.36 107.73 31.784 107.938 32.152C108.154 32.512 108.45 32.796 108.826 33.004C109.21 33.204 109.646 33.304 110.134 33.304C110.518 33.304 110.874 33.236 111.202 33.1C111.538 32.964 111.826 32.756 112.066 32.476L112.546 33.028C112.266 33.364 111.914 33.62 111.49 33.796C111.074 33.972 110.614 34.06 110.11 34.06ZM119.101 34L116.725 27.7H117.541L119.701 33.544H119.329L121.549 27.7H122.281L124.477 33.544H124.105L126.301 27.7H127.081L124.693 34H123.889L121.777 28.504H122.029L119.905 34H119.101ZM128.364 34V27.7H129.216V34H128.364ZM128.796 26.308C128.62 26.308 128.472 26.248 128.352 26.128C128.232 26.008 128.172 25.864 128.172 25.696C128.172 25.528 128.232 25.388 128.352 25.276C128.472 25.156 128.62 25.096 128.796 25.096C128.972 25.096 129.12 25.152 129.24 25.264C129.36 25.376 129.42 25.516 129.42 25.684C129.42 25.86 129.36 26.008 129.24 26.128C129.128 26.248 128.98 26.308 128.796 26.308ZM133.578 34.06C132.986 34.06 132.53 33.9 132.21 33.58C131.89 33.26 131.73 32.808 131.73 32.224V26.308H132.582V32.176C132.582 32.544 132.674 32.828 132.858 33.028C133.05 33.228 133.322 33.328 133.674 33.328C134.05 33.328 134.362 33.22 134.61 33.004L134.91 33.616C134.742 33.768 134.538 33.88 134.298 33.952C134.066 34.024 133.826 34.06 133.578 34.06ZM130.602 28.408V27.7H134.502V28.408H130.602ZM139.677 27.64C140.189 27.64 140.637 27.74 141.021 27.94C141.413 28.132 141.717 28.428 141.933 28.828C142.157 29.228 142.269 29.732 142.269 30.34V34H141.417V30.424C141.417 29.76 141.249 29.26 140.913 28.924C140.585 28.58 140.121 28.408 139.521 28.408C139.073 28.408 138.681 28.5 138.345 28.684C138.017 28.86 137.761 29.12 137.577 29.464C137.401 29.8 137.313 30.208 137.313 30.688V34H136.461V25.096H137.313V29.428L137.145 29.104C137.345 28.648 137.665 28.292 138.105 28.036C138.545 27.772 139.069 27.64 139.677 27.64ZM147.891 34V25.6H151.035C151.747 25.6 152.359 25.716 152.871 25.948C153.383 26.172 153.775 26.5 154.047 26.932C154.327 27.356 154.467 27.872 154.467 28.48C154.467 29.072 154.327 29.584 154.047 30.016C153.775 30.44 153.383 30.768 152.871 31C152.359 31.232 151.747 31.348 151.035 31.348H148.383L148.779 30.928V34H147.891ZM148.779 31L148.383 30.568H151.011C151.851 30.568 152.487 30.388 152.919 30.028C153.359 29.66 153.579 29.144 153.579 28.48C153.579 27.808 153.359 27.288 152.919 26.92C152.487 26.552 151.851 26.368 151.011 26.368H148.383L148.779 25.948V31ZM159.541 27.64C160.053 27.64 160.501 27.74 160.885 27.94C161.277 28.132 161.581 28.428 161.797 28.828C162.021 29.228 162.133 29.732 162.133 30.34V34H161.281V30.424C161.281 29.76 161.113 29.26 160.777 28.924C160.449 28.58 159.985 28.408 159.385 28.408C158.937 28.408 158.545 28.5 158.209 28.684C157.881 28.86 157.625 29.12 157.441 29.464C157.265 29.8 157.177 30.208 157.177 30.688V34H156.325V25.096H157.177V29.428L157.009 29.104C157.209 28.648 157.529 28.292 157.969 28.036C158.409 27.772 158.933 27.64 159.541 27.64ZM167.002 34.06C166.394 34.06 165.846 33.924 165.358 33.652C164.878 33.372 164.498 32.992 164.218 32.512C163.938 32.024 163.798 31.468 163.798 30.844C163.798 30.212 163.938 29.656 164.218 29.176C164.498 28.696 164.878 28.32 165.358 28.048C165.838 27.776 166.386 27.64 167.002 27.64C167.626 27.64 168.178 27.776 168.658 28.048C169.146 28.32 169.526 28.696 169.798 29.176C170.078 29.656 170.218 30.212 170.218 30.844C170.218 31.468 170.078 32.024 169.798 32.512C169.526 32.992 169.146 33.372 168.658 33.652C168.17 33.924 167.618 34.06 167.002 34.06ZM167.002 33.304C167.458 33.304 167.862 33.204 168.214 33.004C168.566 32.796 168.842 32.508 169.042 32.14C169.25 31.764 169.354 31.332 169.354 30.844C169.354 30.348 169.25 29.916 169.042 29.548C168.842 29.18 168.566 28.896 168.214 28.696C167.862 28.488 167.462 28.384 167.014 28.384C166.566 28.384 166.166 28.488 165.814 28.696C165.462 28.896 165.182 29.18 164.974 29.548C164.766 29.916 164.662 30.348 164.662 30.844C164.662 31.332 164.766 31.764 164.974 32.14C165.182 32.508 165.462 32.796 165.814 33.004C166.166 33.204 166.562 33.304 167.002 33.304ZM175.174 27.64C175.686 27.64 176.134 27.74 176.518 27.94C176.91 28.132 177.214 28.428 177.43 28.828C177.654 29.228 177.766 29.732 177.766 30.34V34H176.914V30.424C176.914 29.76 176.746 29.26 176.41 28.924C176.082 28.58 175.618 28.408 175.018 28.408C174.57 28.408 174.178 28.5 173.842 28.684C173.514 28.86 173.258 29.12 173.074 29.464C172.898 29.8 172.81 30.208 172.81 30.688V34H171.958V27.7H172.774V29.428L172.642 29.104C172.842 28.648 173.162 28.292 173.602 28.036C174.042 27.772 174.566 27.64 175.174 27.64ZM182.743 34.06C182.087 34.06 181.511 33.924 181.015 33.652C180.519 33.372 180.131 32.992 179.851 32.512C179.571 32.024 179.431 31.468 179.431 30.844C179.431 30.22 179.563 29.668 179.827 29.188C180.099 28.708 180.467 28.332 180.931 28.06C181.403 27.78 181.931 27.64 182.515 27.64C183.107 27.64 183.631 27.776 184.087 28.048C184.551 28.312 184.915 28.688 185.179 29.176C185.443 29.656 185.575 30.212 185.575 30.844C185.575 30.884 185.571 30.928 185.563 30.976C185.563 31.016 185.563 31.06 185.563 31.108H180.079V30.472H185.107L184.771 30.724C184.771 30.268 184.671 29.864 184.471 29.512C184.279 29.152 184.015 28.872 183.679 28.672C183.343 28.472 182.955 28.372 182.515 28.372C182.083 28.372 181.695 28.472 181.351 28.672C181.007 28.872 180.739 29.152 180.547 29.512C180.355 29.872 180.259 30.284 180.259 30.748V30.88C180.259 31.36 180.363 31.784 180.571 32.152C180.787 32.512 181.083 32.796 181.459 33.004C181.843 33.204 182.279 33.304 182.767 33.304C183.151 33.304 183.507 33.236 183.835 33.1C184.171 32.964 184.459 32.756 184.699 32.476L185.179 33.028C184.899 33.364 184.547 33.62 184.123 33.796C183.707 33.972 183.247 34.06 182.743 34.06Z" fill="#362C2C"/>
</g>
<defs>
<filter id="filter0_d_4049_5598" x="0.3" y="0.3" width="213.4" height="63.4" filterUnits="userSpaceOnUse" color-interpolation-filters="sRGB">
<feFlood flood-opacity="0" result="BackgroundImageFix"/>
<feColorMatrix in="SourceAlpha" type="matrix" values="0 0 0 0 0 0 0 0 0 0 0 0 0 0 0 0 0 0 127 0" result="hardAlpha"/>
<feOffset dy="2"/>
<feGaussianBlur stdDeviation="3.85"/>
<feComposite in2="hardAlpha" operator="out"/>
<feColorMatrix type="matrix" values="0 0 0 0 0 0 0 0 0 0 0 0 0 0 0 0 0 0 0.25 0"/>
<feBlend mode="normal" in2="BackgroundImageFix" result="effect1_dropShadow_4049_5598"/>
<feBlend mode="normal" in="SourceGraphic" in2="effect1_dropShadow_4049_5598" result="shape"/>
</filter>
</defs>
</svg>
