<svg width="23" height="18" viewBox="0 0 23 18" fill="none" xmlns="http://www.w3.org/2000/svg">
<path id="Arrow 2" d="M21 10.1C21.6075 10.1 22.1 9.60751 22.1 9C22.1 8.39249 21.6075 7.9 21 7.9V10.1ZM1.22218 8.22218C0.792606 8.65176 0.792606 9.34824 1.22218 9.77782L8.22254 16.7782C8.65212 17.2078 9.3486 17.2078 9.77817 16.7782C10.2078 16.3486 10.2078 15.6521 9.77817 15.2225L3.55564 9L9.77817 2.77746C10.2078 2.34788 10.2078 1.6514 9.77817 1.22183C9.3486 0.792249 8.65212 0.792249 8.22254 1.22183L1.22218 8.22218ZM21 7.9L2 7.9V10.1L21 10.1V7.9Z" fill="#EC5C29"/>
</svg>
