<svg width="14" height="14" viewBox="0 0 14 14" fill="none" xmlns="http://www.w3.org/2000/svg">
<g id="Group">
<g id="Group_2">
<g id="Group_3">
<path id="Vector" d="M7.10497 9.84529C7.23757 9.7127 7.31123 9.5359 7.31123 9.34437C7.31123 9.15284 7.23757 8.99078 7.10497 8.84345C6.82505 8.56353 6.38306 8.56353 6.11786 8.84345C5.47325 9.49348 4.36464 9.037 4.36464 8.12154L4.36464 0.710854C4.36464 0.327797 4.05525 0.0036726 3.65746 0.0036726C3.25967 0.0036726 2.95028 0.313064 2.95028 0.710854L2.95028 8.13197C2.95028 9.04695 1.84404 9.50517 1.19705 8.85818C0.917127 8.57826 0.475138 8.57826 0.209945 8.85818C-0.0699816 9.13811 -0.0699816 9.5801 0.209945 9.84529L3.15654 12.7919C3.43646 13.0718 3.87845 13.0718 4.14365 12.7919L7.10497 9.84529Z" fill="#EC5C29"/>
<path id="Vector_2" d="M6.89873 3.15653C6.6188 3.43645 6.6188 3.87844 6.89873 4.14363C7.17865 4.42356 7.62064 4.42356 7.88584 4.14363C8.53282 3.49665 9.63906 3.95487 9.63906 4.86984V12.3057C9.63906 12.6888 9.94845 13.0129 10.3462 13.0129C10.7293 13.0129 11.0534 12.7035 11.0534 12.3057V4.88458C11.0534 3.9696 12.1597 3.51138 12.8066 4.15837C13.0866 4.43829 13.5286 4.43829 13.7938 4.15837C13.9264 4.02577 14 3.84897 14 3.65745C14 3.46592 13.9264 3.30386 13.7938 3.15653L10.8324 0.209933C10.5525 -0.069993 10.1105 -0.069993 9.84532 0.209933L6.89873 3.15653Z" fill="#EC5C29"/>
</g>
</g>
</g>
</svg>
