<svg width="27" height="27" viewBox="0 0 27 27" fill="none" xmlns="http://www.w3.org/2000/svg">
<path d="M12.25 2.25C6.73 2.25 2.25 6.73 2.25 12.25C2.25 17.77 6.73 22.25 12.25 22.25C17.77 22.25 22.25 17.77 22.25 12.25C22.25 6.73 17.77 2.25 12.25 2.25ZM12.25 6.25C14.18 6.25 15.75 7.82 15.75 9.75C15.75 11.68 14.18 13.25 12.25 13.25C10.32 13.25 8.75 11.68 8.75 9.75C8.75 7.82 10.32 6.25 12.25 6.25ZM12.25 20.25C10.22 20.25 7.82 19.43 6.11 17.37C7.8616 15.9957 10.0236 15.2488 12.25 15.2488C14.4764 15.2488 16.6384 15.9957 18.39 17.37C16.68 19.43 14.28 20.25 12.25 20.25Z" fill="black"/>
</svg>
