<svg width="13" height="14" viewBox="0 0 13 14" fill="none" xmlns="http://www.w3.org/2000/svg">
<path id="Vector" d="M11.4545 1.27273C11.1031 1.27273 10.8182 0.987818 10.8182 0.636364C10.8182 0.28491 10.5333 0 10.1818 0C9.83036 0 9.54545 0.28491 9.54545 0.636364C9.54545 0.987818 9.26054 1.27273 8.90909 1.27273H3.81818C3.46673 1.27273 3.18182 0.987818 3.18182 0.636364C3.18182 0.28491 2.89691 0 2.54545 0C2.194 0 1.90909 0.28491 1.90909 0.636364C1.90909 0.987818 1.62418 1.27273 1.27273 1.27273C0.572727 1.27273 0 1.84545 0 2.54545V12.7273C0 13.4273 0.572727 14 1.27273 14H11.4545C12.1545 14 12.7273 13.4273 12.7273 12.7273V2.54545C12.7273 1.84545 12.1545 1.27273 11.4545 1.27273ZM11.4545 9.22727C11.4545 11.1603 9.88754 12.7273 7.95454 12.7273H4.77273C2.83973 12.7273 1.27273 11.1603 1.27273 9.22727C1.27273 7.29428 2.83973 5.72727 4.77273 5.72727H7.95455C9.88754 5.72727 11.4545 7.29428 11.4545 9.22727ZM11.4545 3.5C11.4545 4.02718 11.0272 4.45455 10.5 4.45455H2.22727C1.70009 4.45455 1.27273 4.02718 1.27273 3.5C1.27273 2.97282 1.70009 2.54545 2.22727 2.54545H10.5C11.0272 2.54545 11.4545 2.97282 11.4545 3.5Z" fill="#EC5C29"/>
</svg>
