<svg width="17" height="20" viewBox="0 0 17 20" fill="none" xmlns="http://www.w3.org/2000/svg">
<path d="M3.3138 8.26858L2.9032 14.614C1.8339 14.7348 1 15.6453 1 16.7479C1 17.7527 1.68482 18.6072 2.66526 18.8263L4.64354 19.2685C4.66966 19.2747 4.6965 19.2772 4.72262 19.2772H12.2774C12.3035 19.2772 12.3303 19.2743 12.3565 19.2685L14.3351 18.8263C15.3152 18.6072 16 17.7523 16 16.7479C16 15.6453 15.1661 14.7352 14.0968 14.614L13.6862 8.26822C13.5676 6.46731 12.256 4.96745 10.524 4.59058V3.80565H11.1751C11.2806 3.80565 11.3811 3.75959 11.45 3.67943C11.5189 3.59927 11.5494 3.49299 11.5338 3.38852L11.2204 1.30868C11.1936 1.13131 11.0412 1 10.8617 1H6.13832C5.95877 1 5.80643 1.13094 5.77959 1.30868L5.46619 3.38852C5.4506 3.49299 5.48107 3.59927 5.54998 3.67943C5.61854 3.75959 5.71937 3.80565 5.82493 3.80565H6.47601V4.59058C4.74148 4.96999 3.43205 6.46876 3.3138 8.26858ZM4.35989 18.4618L2.82377 18.1187C2.1774 17.9739 1.72581 17.4103 1.72581 16.7479C1.72581 15.8691 2.46286 15.325 3.1455 15.325C3.44946 15.325 3.73855 15.4302 3.98157 15.6289C4.10599 15.7309 4.23294 15.848 4.36026 15.9786L4.35989 18.4618ZM11.9147 18.5518H5.08534V16.1962H11.9147V18.5518ZM13.8549 15.325C14.5375 15.325 15.2746 15.8691 15.2746 16.7479C15.2746 17.4103 14.823 17.9739 14.177 18.1187L12.6405 18.4618V15.9786C12.7678 15.8484 12.8947 15.7309 13.0188 15.6289C13.2618 15.4302 13.5509 15.325 13.8549 15.325ZM6.24641 3.08021L6.45062 1.72581H10.5494L10.7536 3.08021H10.1685C10.166 3.08021 10.1638 3.07876 10.1616 3.07876H6.8391C6.83656 3.07876 6.83438 3.08021 6.83221 3.08021H6.24641ZM9.79855 3.80565V4.49918C9.75248 4.49773 9.70823 4.49446 9.66071 4.49446H7.33929C7.29141 4.49446 7.24752 4.49773 7.20146 4.49918V3.80565H9.79855ZM6.89387 5.25146C7.03315 5.2297 7.17897 5.21954 7.33929 5.21954H9.66071C9.82067 5.21954 9.96685 5.2297 10.1123 5.25255C11.6608 5.46329 12.8592 6.75168 12.9618 8.31501L13.3728 14.6645C13.0797 14.7366 12.803 14.8679 12.5589 15.0674C12.4152 15.185 12.2705 15.3228 12.1261 15.4704H4.87387C4.72951 15.3228 4.58442 15.1846 4.44078 15.0674C4.19703 14.8679 3.92027 14.7366 3.62719 14.6645L4.03816 8.31537C4.14045 6.75168 5.33924 5.46329 6.89387 5.25146Z" fill="#EC5C29" stroke="#EC5C29" stroke-width="0.4"/>
<path d="M5.13693 8.56382C5.15398 8.57434 6.83774 9.64437 6.83774 12.9698C6.83774 13.1704 6.99987 13.3325 7.20046 13.3325C7.40104 13.3325 7.56318 13.1704 7.56318 12.9698C7.56318 9.24248 5.5994 7.99616 5.51562 7.94502C5.34405 7.84019 5.12134 7.89424 5.01687 8.06472C4.91205 8.23592 4.96609 8.45936 5.13693 8.56382Z" fill="#EC5C29" stroke="#EC5C29" stroke-width="0.2"/>
<path d="M9.79973 13.3329C10.0003 13.3329 10.1625 13.1708 10.1625 12.9702C10.1625 9.68068 11.7922 8.60956 11.8651 8.56313C12.0345 8.45795 12.0874 8.2356 11.983 8.06548C11.8785 7.895 11.6558 7.84096 11.4842 7.94578C11.4008 7.99693 9.43665 9.24288 9.43665 12.9706C9.43701 13.1704 9.59914 13.3329 9.79973 13.3329Z" fill="#EC5C29" stroke="#EC5C29" stroke-width="0.2"/>
</svg>
