<svg width="13" height="16" viewBox="0 0 13 16" fill="none" xmlns="http://www.w3.org/2000/svg">
<path d="M9.06635 15.2982H7.23324C7.13601 15.2982 7.04276 15.2596 6.974 15.1908C6.90525 15.1221 6.86662 15.0288 6.86662 14.9316V10.8988H6.13338V14.9316C6.13338 15.0288 6.09475 15.1221 6.026 15.1908C5.95724 15.2596 5.86399 15.2982 5.76676 15.2982H3.93365C3.83642 15.2982 3.74316 15.2596 3.67441 15.1908C3.60566 15.1221 3.56703 15.0288 3.56703 14.9316V8.10878L1.09783 5.44344C1.06504 5.40808 1.03954 5.3666 1.0228 5.32137C1.00606 5.27615 0.998404 5.22806 1.00028 5.17987C1.00215 5.13168 1.01351 5.08433 1.03371 5.04054C1.05391 4.99675 1.08256 4.95737 1.118 4.92467L2.40117 3.74048C2.43696 3.70746 2.47897 3.6819 2.52474 3.6653C2.57051 3.64869 2.61914 3.64136 2.66777 3.64375C2.71641 3.64614 2.76408 3.6582 2.80801 3.67921C2.85193 3.70022 2.89123 3.72978 2.92361 3.76615L4.33143 5.34445C4.60399 5.65012 4.93809 5.89471 5.31182 6.06219C5.68555 6.22967 6.09046 6.31625 6.5 6.31625C6.90954 6.31625 7.31445 6.22967 7.68818 6.06219C8.06191 5.89471 8.39601 5.65012 8.66857 5.34445L10.0764 3.76615C10.1088 3.72961 10.1482 3.69992 10.1923 3.67883C10.2364 3.65774 10.2842 3.64567 10.333 3.64333C10.3816 3.6411 10.43 3.64855 10.4757 3.66523C10.5213 3.6819 10.5632 3.70749 10.5988 3.74048L11.882 4.92467C11.9174 4.95737 11.9461 4.99675 11.9663 5.04054C11.9865 5.08433 11.9979 5.13168 11.9997 5.17987C12.0016 5.22806 11.9939 5.27615 11.9772 5.32137C11.9605 5.3666 11.935 5.40808 11.9022 5.44344L9.43297 8.10878V14.9316C9.43297 15.0288 9.39435 15.1221 9.32559 15.1908C9.25684 15.2596 9.16358 15.2982 9.06635 15.2982ZM7.59986 14.565H8.69973V7.96579C8.69955 7.87342 8.73425 7.78439 8.79688 7.71649L11.1139 5.21613L10.3807 4.53422L9.22216 5.83389C8.88082 6.21667 8.46242 6.52297 7.99439 6.73269C7.52636 6.94242 7.01929 7.05084 6.50642 7.05084C5.99355 7.05084 5.48647 6.94242 5.01844 6.73269C4.55042 6.52297 4.13201 6.21667 3.79067 5.83389L2.63214 4.53422L1.8989 5.21613L4.20312 7.71649C4.26575 7.78439 4.30045 7.87342 4.30027 7.96579V14.565H5.40014V10.5321C5.40014 10.4349 5.43876 10.3417 5.50752 10.2729C5.57627 10.2041 5.66952 10.1655 5.76676 10.1655H7.23324C7.33048 10.1655 7.42373 10.2041 7.49248 10.2729C7.56124 10.3417 7.59986 10.4349 7.59986 10.5321V14.565Z" fill="#EC5C29" stroke="#EC5C29" stroke-width="0.2"/>
<path d="M6.50023 5.76608C6.02891 5.76608 5.56817 5.62632 5.17628 5.36446C4.78439 5.10261 4.47895 4.73043 4.29859 4.29499C4.11822 3.85955 4.07103 3.3804 4.16298 2.91813C4.25493 2.45587 4.48189 2.03125 4.81516 1.69798C5.14844 1.3647 5.57306 1.13774 6.03532 1.04579C6.49758 0.95384 6.97673 1.00103 7.41218 1.1814C7.84762 1.36177 8.2198 1.66721 8.48165 2.05909C8.7435 2.45098 8.88327 2.91172 8.88327 3.38304C8.88327 3.69598 8.82163 4.00587 8.70187 4.29499C8.58211 4.58411 8.40658 4.84682 8.18529 5.0681C7.964 5.28939 7.7013 5.46492 7.41218 5.58468C7.12305 5.70444 6.81317 5.76608 6.50023 5.76608ZM6.50023 1.73324C6.17393 1.73324 5.85496 1.83 5.58365 2.01128C5.31234 2.19257 5.10088 2.45023 4.97601 2.75169C4.85115 3.05315 4.81847 3.38487 4.88213 3.7049C4.94579 4.02493 5.10292 4.31889 5.33365 4.54962C5.56437 4.78035 5.85834 4.93748 6.17837 5.00114C6.4984 5.06479 6.83012 5.03212 7.13158 4.90725C7.43304 4.78238 7.6907 4.57092 7.87198 4.29962C8.05326 4.02831 8.15002 3.70934 8.15002 3.38304C8.15002 2.94549 7.97621 2.52585 7.66681 2.21646C7.35741 1.90706 6.93778 1.73324 6.50023 1.73324Z" fill="#EC5C29" stroke="#EC5C29" stroke-width="0.2"/>
</svg>
