<svg width="14" height="14" viewBox="0 0 14 14" fill="none" xmlns="http://www.w3.org/2000/svg">
<path d="M12.4491 11.6931V3.13459H13.6994V2.07799H10.3887V1.58491C10.3887 0.704402 9.68432 0 8.80382 0H5.56357C4.68306 0 3.97866 0.704402 3.97866 1.58491V2.07799H0.667969V3.13459H1.91828V11.7107C1.91828 12.9786 2.93967 14 4.20759 14H10.1598C11.4101 13.9824 12.4491 12.961 12.4491 11.6931ZM5.03526 1.58491C5.03526 1.28553 5.26419 1.0566 5.56357 1.0566H8.78621C9.08558 1.0566 9.31451 1.28553 9.31451 1.58491V2.07799H5.03526V1.58491ZM2.97489 11.6931V3.13459H11.3925V11.7107C11.3925 12.3975 10.8466 12.9434 10.1598 12.9434H4.20759C3.53841 12.9258 2.97489 12.3799 2.97489 11.6931Z" fill="#EC5C29"/>
<path d="M7.71285 4.80754H6.65625V11.1296H7.71285V4.80754Z" fill="#EC5C29"/>
<path d="M9.65035 4.80756H8.59375V11.1296H9.65035V4.80756Z" fill="#EC5C29"/>
<path d="M5.77535 4.80756H4.71875V11.1296H5.77535V4.80756Z" fill="#EC5C29"/>
</svg>
