<svg width="15" height="18" viewBox="0 0 15 18" fill="none" xmlns="http://www.w3.org/2000/svg">
<path d="M13.3691 13.8286L14.0691 13.8348L13.3691 13.8286ZM1.45508 3.5C1.06848 3.5 0.755078 3.8134 0.755078 4.2C0.755078 4.5866 1.06848 4.9 1.45508 4.9V3.5ZM14.2551 4.9C14.6417 4.9 14.9551 4.5866 14.9551 4.2C14.9551 3.8134 14.6417 3.5 14.2551 3.5V4.9ZM6.95508 7.4C6.95508 7.0134 6.64168 6.7 6.25508 6.7C5.86848 6.7 5.55508 7.0134 5.55508 7.4H6.95508ZM5.55508 13.8C5.55508 14.1866 5.86848 14.5 6.25508 14.5C6.64168 14.5 6.95508 14.1866 6.95508 13.8H5.55508ZM10.1551 7.4C10.1551 7.0134 9.84168 6.7 9.45508 6.7C9.06848 6.7 8.75508 7.0134 8.75508 7.4H10.1551ZM8.75508 13.8C8.75508 14.1866 9.06848 14.5 9.45508 14.5C9.84168 14.5 10.1551 14.1866 10.1551 13.8H8.75508ZM12.7551 4.19375L12.6691 13.8223L14.0691 13.8348L14.1551 4.20625L12.7551 4.19375ZM10.1692 16.3H5.45508V17.7H10.1692V16.3ZM1.55508 4.2V13.8H2.95508V4.2H1.55508ZM1.45508 4.9H2.25508V3.5H1.45508V4.9ZM2.25508 4.9H4.65508V3.5H2.25508V4.9ZM4.65508 4.9H11.0551V3.5H4.65508V4.9ZM11.0551 4.9H13.4551V3.5H11.0551V4.9ZM13.4551 4.9H14.2551V3.5H13.4551V4.9ZM5.35508 3.84444C5.35508 2.73533 6.39458 1.7 7.85508 1.7V0.3C5.78095 0.3 3.95508 1.81167 3.95508 3.84444H5.35508ZM7.85508 1.7C9.31558 1.7 10.3551 2.73533 10.3551 3.84444H11.7551C11.7551 1.81167 9.9292 0.3 7.85508 0.3V1.7ZM3.95508 3.84444V4.2H5.35508V3.84444H3.95508ZM10.3551 3.84444V4.2H11.7551V3.84444H10.3551ZM5.45508 16.3C4.07437 16.3 2.95508 15.1807 2.95508 13.8H1.55508C1.55508 15.9539 3.30117 17.7 5.45508 17.7V16.3ZM12.6691 13.8223C12.6569 15.1943 11.5412 16.3 10.1692 16.3V17.7C12.3096 17.7 14.05 15.9751 14.0691 13.8348L12.6691 13.8223ZM5.55508 7.4V13.8H6.95508V7.4H5.55508ZM8.75508 7.4V13.8H10.1551V7.4H8.75508Z" fill="#EC5C29"/>
</svg>
