<svg width="12" height="16" viewBox="0 0 12 16" fill="none" xmlns="http://www.w3.org/2000/svg">
<path id="destination" fill-rule="evenodd" clip-rule="evenodd" d="M9.61502 1.72198C8.80839 1.44469 7.64336 1.27929 6.22322 1.76748C4.51929 2.35322 3.08395 2.35757 2.06194 2.207C1.82135 2.17155 1.60402 2.12759 1.41176 2.08079V9.37593C1.62271 9.47551 1.93186 9.59907 2.32526 9.69567C3.14181 9.89616 4.32985 9.98313 5.77678 9.48573C7.50632 8.89119 8.96534 8.98621 10.0017 9.24069C10.2161 9.29332 10.412 9.35266 10.5882 9.4139V2.18544C10.576 2.17771 10.5634 2.16981 10.5504 2.16176C10.3386 2.03065 10.0214 1.86167 9.61502 1.72198ZM10.8451 2.36649C10.8455 2.36688 10.8456 2.36691 10.8451 2.36649V2.36649ZM11.2941 1.80484L11.746 1.24561C11.9069 1.38391 12 1.58879 12 1.80484V10.5403C12 10.8088 11.8567 11.0555 11.6272 11.1821C11.3989 11.3081 11.1221 11.2951 10.906 11.1484C10.9049 11.1476 10.9037 11.1468 10.9026 11.146L11.2941 10.5403C10.9026 11.146 10.9023 11.1458 10.9026 11.146L10.9037 11.1468L10.9046 11.1474L10.906 11.1484L10.898 11.1432C10.8887 11.1373 10.8718 11.1267 10.8474 11.1124C10.7987 11.0837 10.7205 11.0403 10.6151 10.9896C10.4039 10.8879 10.0852 10.7578 9.67474 10.657C8.85819 10.4565 7.67015 10.3695 6.22322 10.8669C4.49368 11.4615 3.03466 11.3665 1.99827 11.112C1.78392 11.0594 1.58801 11 1.41176 10.9388V15.272C1.41176 15.6741 1.09573 16 0.705882 16C0.316034 16 0 15.6741 0 15.272V1.07688C0 0.824586 0.126673 0.59028 0.334779 0.457642C0.541702 0.325757 0.799796 0.313087 1.01783 0.423864L1.0256 0.427614C1.03478 0.431972 1.05169 0.439807 1.07606 0.450349C1.12484 0.471443 1.20337 0.503309 1.30962 0.539834C1.52224 0.612923 1.84485 0.70432 2.26159 0.765718C3.09252 0.888135 4.30424 0.89248 5.77678 0.386279C7.53311 -0.217475 9.01514 -0.0189001 10.0615 0.340779C10.5816 0.519569 10.9923 0.737316 11.2768 0.913321C11.4192 1.00148 11.5309 1.07967 11.6095 1.13813C11.6489 1.16738 11.6801 1.19176 11.7029 1.21005C11.7143 1.2192 11.7237 1.22684 11.7308 1.23281L11.74 1.24051L11.7434 1.24339L11.7448 1.24458L11.7454 1.24511C11.7457 1.24536 11.746 1.24561 11.2941 1.80484Z" fill="#EC5C29"/>
</svg>
