<svg width="17" height="17" viewBox="0 0 17 17" fill="none" xmlns="http://www.w3.org/2000/svg">
<g id="Layer 2">
<path id="Vector" d="M16.0556 11.3333C15.8052 11.3337 15.5652 11.4334 15.3882 11.6104C15.2111 11.7874 15.1115 12.0274 15.1111 12.2778V14.5445C15.1107 14.6946 15.0509 14.8385 14.9447 14.9447C14.8385 15.0509 14.6946 15.1107 14.5444 15.1111H2.45556C2.30539 15.1107 2.16149 15.0509 2.0553 14.9447C1.94912 14.8385 1.88929 14.6946 1.88889 14.5445V12.2778C1.88889 12.0273 1.78939 11.7871 1.61227 11.61C1.43515 11.4328 1.19493 11.3333 0.944444 11.3333C0.693962 11.3333 0.453739 11.4328 0.276621 11.61C0.0995037 11.7871 0 12.0273 0 12.2778V14.5445C0.000799765 15.1955 0.259766 15.8196 0.720099 16.2799C1.18043 16.7402 1.80455 16.9992 2.45556 17H14.5444C15.1955 16.9992 15.8196 16.7402 16.2799 16.2799C16.7402 15.8196 16.9992 15.1955 17 14.5445V12.2778C16.9996 12.0274 16.9 11.7874 16.7229 11.6104C16.5459 11.4334 16.3059 11.3337 16.0556 11.3333Z" fill="#EC5C29"/>
<path id="Vector_2" d="M8.49986 0C8.2495 0.000399617 8.00951 0.100032 7.83247 0.277063C7.65544 0.454094 7.55581 0.694085 7.55541 0.944444V9.50564L4.57097 7.01911C4.37849 6.85907 4.13038 6.78191 3.88108 6.80457C3.63178 6.82724 3.40165 6.94787 3.24119 7.14C3.08114 7.33248 3.00399 7.58059 3.02665 7.82989C3.04931 8.07919 3.16995 8.30931 3.36208 8.46978L7.89541 12.2476C7.94301 12.2813 7.99359 12.3106 8.04652 12.3352C8.08105 12.3583 8.11715 12.3791 8.15457 12.3972C8.26351 12.443 8.38052 12.4666 8.49872 12.4666C8.61692 12.4666 8.73394 12.443 8.84288 12.3972C8.87937 12.379 8.9147 12.3585 8.94866 12.336C9.00157 12.3114 9.05215 12.282 9.09977 12.2483L13.6331 8.47053C13.7821 8.34659 13.8894 8.1798 13.9403 7.9928C13.9913 7.8058 13.9835 7.60765 13.918 7.42523C13.8525 7.24282 13.7325 7.08497 13.5742 6.97312C13.4159 6.86127 13.227 6.80083 13.0332 6.8C12.8123 6.80042 12.5986 6.87791 12.4287 7.01911L9.4443 9.50564V0.944444C9.4439 0.694085 9.34427 0.454094 9.16724 0.277063C8.99021 0.100032 8.75022 0.000399617 8.49986 0Z" fill="#EC5C29"/>
</g>
</svg>
