<svg width="17" height="17" viewBox="0 0 17 17" fill="none" xmlns="http://www.w3.org/2000/svg">
<g id="Layer 2">
<path id="Vector" d="M16.0556 11.3334C15.8052 11.3338 15.5652 11.4334 15.3882 11.6104C15.2111 11.7875 15.1115 12.0275 15.1111 12.2778V14.5445C15.1107 14.6947 15.0509 14.8386 14.9447 14.9447C14.8385 15.0509 14.6946 15.1108 14.5444 15.1112H2.45556C2.30539 15.1108 2.16149 15.0509 2.0553 14.9447C1.94912 14.8386 1.88929 14.6947 1.88889 14.5445V12.2778C1.88889 12.0273 1.78939 11.7871 1.61227 11.61C1.43515 11.4329 1.19493 11.3334 0.944444 11.3334C0.693962 11.3334 0.453739 11.4329 0.276621 11.61C0.0995037 11.7871 0 12.0273 0 12.2778V14.5445C0.000799765 15.1955 0.259766 15.8196 0.720099 16.2799C1.18043 16.7403 1.80455 16.9992 2.45556 17H14.5444C15.1955 16.9992 15.8196 16.7403 16.2799 16.2799C16.7402 15.8196 16.9992 15.1955 17 14.5445V12.2778C16.9996 12.0275 16.9 11.7875 16.7229 11.6104C16.5459 11.4334 16.3059 11.3338 16.0556 11.3334Z" fill="white"/>
<path id="Vector_2" d="M8.50004 0C8.24968 0.000399617 8.00969 0.100032 7.83266 0.277063C7.65563 0.454094 7.55599 0.694085 7.55559 0.944444V9.50564L4.57115 7.01911C4.37867 6.85907 4.13056 6.78191 3.88126 6.80457C3.63196 6.82724 3.40184 6.94787 3.24137 7.14C3.08133 7.33248 3.00417 7.58059 3.02683 7.82989C3.0495 8.07919 3.17013 8.30931 3.36226 8.46978L7.89559 12.2476C7.94319 12.2813 7.99377 12.3106 8.0467 12.3352C8.08123 12.3583 8.11733 12.3791 8.15475 12.3972C8.26369 12.443 8.3807 12.4666 8.49891 12.4666C8.61711 12.4666 8.73412 12.443 8.84306 12.3972C8.87956 12.379 8.91488 12.3585 8.94884 12.336C9.00175 12.3114 9.05233 12.282 9.09995 12.2483L13.6333 8.47053C13.7823 8.34659 13.8896 8.1798 13.9405 7.9928C13.9915 7.8058 13.9837 7.60765 13.9182 7.42523C13.8527 7.24282 13.7326 7.08497 13.5744 6.97312C13.4161 6.86127 13.2272 6.80083 13.0334 6.8C12.8125 6.80042 12.5987 6.87791 12.4289 7.01911L9.44448 9.50564V0.944444C9.44408 0.694085 9.34445 0.454094 9.16742 0.277063C8.99039 0.100032 8.7504 0.000399617 8.50004 0Z" fill="white"/>
</g>
</svg>
