<svg width="14" height="14" viewBox="0 0 14 14" fill="none" xmlns="http://www.w3.org/2000/svg">
<g id="Group 248">
<path id="Vector" d="M1 7.00015C1 7.78808 1.15519 8.5683 1.45672 9.29625C1.75825 10.0242 2.20021 10.6856 2.75736 11.2428C3.31451 11.7999 3.97595 12.2419 4.7039 12.5434C5.43185 12.845 6.21207 13.0002 7 13.0002C7.78793 13.0002 8.56815 12.845 9.2961 12.5434C10.0241 12.2419 10.6855 11.7999 11.2426 11.2428C11.7998 10.6856 12.2417 10.0242 12.5433 9.29625C12.8448 8.5683 13 7.78808 13 7.00015C13 6.21222 12.8448 5.43201 12.5433 4.70405C12.2417 3.9761 11.7998 3.31466 11.2426 2.75751C10.6855 2.20036 10.0241 1.7584 9.2961 1.45688C8.56815 1.15535 7.78793 1.00015 7 1.00015C6.21207 1.00015 5.43185 1.15535 4.7039 1.45688C3.97595 1.7584 3.31451 2.20036 2.75736 2.75751C2.20021 3.31466 1.75825 3.9761 1.45672 4.70405C1.15519 5.43201 1 6.21222 1 7.00015Z" stroke="#EC5C29" stroke-linecap="round" stroke-linejoin="round"/>
<path id="Vector_2" d="M5.66675 7.00014C5.66675 7.35376 5.80722 7.6929 6.05727 7.94295C6.30732 8.193 6.64646 8.33348 7.00008 8.33348C7.3537 8.33348 7.69284 8.193 7.94289 7.94295C8.19294 7.6929 8.33341 7.35376 8.33341 7.00014C8.33341 6.64652 8.19294 6.30738 7.94289 6.05733C7.69284 5.80729 7.3537 5.66681 7.00008 5.66681C6.64646 5.66681 6.30732 5.80729 6.05727 6.05733C5.80722 6.30738 5.66675 6.64652 5.66675 7.00014Z" stroke="#EC5C29" stroke-linecap="round" stroke-linejoin="round"/>
<path id="Vector_3" d="M7 8.3335V13.0002" stroke="#EC5C29" stroke-linecap="round" stroke-linejoin="round"/>
<path id="Vector_4" d="M5.66675 7.00014L1.16675 5.66681" stroke="#EC5C29" stroke-linecap="round" stroke-linejoin="round"/>
<path id="Vector_5" d="M8.33325 7.00014L12.8333 5.66681" stroke="#EC5C29" stroke-linecap="round" stroke-linejoin="round"/>
</g>
</svg>
