<svg width="23" height="25" viewBox="0 0 23 25" fill="none" xmlns="http://www.w3.org/2000/svg">
<g id="Group 1883">
<path id="Ellipse 103" d="M22.3 20.6875C22.3 21.0109 22.1277 21.4027 21.6319 21.8423C21.1368 22.2812 20.3806 22.7085 19.3859 23.0815C17.4019 23.8255 14.6139 24.3 11.5 24.3C8.38608 24.3 5.59814 23.8255 3.61406 23.0815C2.61944 22.7085 1.86316 22.2812 1.36811 21.8423C0.872251 21.4027 0.7 21.0109 0.7 20.6875C0.7 20.3641 0.872251 19.9723 1.36811 19.5327C1.86316 19.0938 2.61944 18.6665 3.61406 18.2935C5.59814 17.5495 8.38608 17.075 11.5 17.075C14.6139 17.075 17.4019 17.5495 19.3859 18.2935C20.3806 18.6665 21.1368 19.0938 21.6319 19.5327C22.1277 19.9723 22.3 20.3641 22.3 20.6875Z" stroke="url(#paint0_linear_1045_956)" stroke-width="1.4"/>
<path id="Vector" d="M11.5 19.9688L11.1637 20.5827C11.3732 20.6974 11.6268 20.6974 11.8363 20.5827L11.5 19.9688ZM11.5 19.9688C11.8363 20.5827 11.8365 20.5826 11.8368 20.5824L11.8375 20.582L11.8393 20.581L11.845 20.5778L11.8641 20.5672C11.8801 20.5582 11.9028 20.5453 11.9317 20.5285C11.9894 20.4951 12.072 20.4462 12.1759 20.3823C12.3835 20.2544 12.6767 20.0658 13.0269 19.8184C13.7263 19.3243 14.6594 18.5913 15.5945 17.6339C17.4559 15.7281 19.3875 12.8665 19.3875 9.1875C19.3875 7.0956 18.5565 5.08939 17.0773 3.6102C15.5981 2.131 13.5919 1.3 11.5 1.3C9.4081 1.3 7.40189 2.131 5.9227 3.6102C4.4435 5.08939 3.6125 7.0956 3.6125 9.1875C3.6125 12.8665 5.54408 15.7281 7.40547 17.6339C8.34059 18.5913 9.2737 19.3243 9.97306 19.8184C10.3233 20.0658 10.6165 20.2544 10.8241 20.3823C10.928 20.4462 11.0106 20.4951 11.0683 20.5285C11.0972 20.5453 11.1199 20.5582 11.1359 20.5672L11.155 20.5778L11.1607 20.581L11.1625 20.582L11.1632 20.5824C11.1635 20.5826 11.1637 20.5827 11.5 19.9688Z" fill="url(#paint1_linear_1045_956)" stroke="white" stroke-width="1.4" stroke-linecap="round" stroke-linejoin="round"/>
<path id="Vector_2" d="M14.375 9.1875C14.375 9.95 14.0721 10.6813 13.5329 11.2204C12.9938 11.7596 12.2625 12.0625 11.5 12.0625C10.7375 12.0625 10.0062 11.7596 9.46707 11.2204C8.9279 10.6813 8.625 9.95 8.625 9.1875C8.625 8.425 8.9279 7.69373 9.46707 7.15457C10.0062 6.6154 10.7375 6.3125 11.5 6.3125C12.2625 6.3125 12.9938 6.6154 13.5329 7.15457C14.0721 7.69373 14.375 8.425 14.375 9.1875Z" fill="white"/>
</g>
<defs>
<linearGradient id="paint0_linear_1045_956" x1="11.5" y1="16.375" x2="11.5" y2="25" gradientUnits="userSpaceOnUse">
<stop stop-color="#232323"/>
<stop offset="1" stop-color="#8F8F8F"/>
</linearGradient>
<linearGradient id="paint1_linear_1045_956" x1="11.5" y1="2" x2="11.5" y2="19.9688" gradientUnits="userSpaceOnUse">
<stop stop-color="#232323"/>
<stop offset="1" stop-color="#8F8F8F"/>
</linearGradient>
</defs>
</svg>
