<svg width="16" height="16" viewBox="0 0 16 16" fill="none" xmlns="http://www.w3.org/2000/svg">
<path d="M12.0295 1.29979L12.0295 1.2998C12.2583 1.08181 12.5622 0.960222 12.8783 0.960222C13.1943 0.960222 13.4982 1.08181 13.727 1.2998L13.7279 1.30064L13.7279 1.30065L14.6985 2.27131L14.6985 2.27134C14.9236 2.49683 15.05 2.8024 15.05 3.121C15.05 3.4396 14.9236 3.74517 14.6985 3.97066L14.6985 3.97069L7.7456 10.924L7.74526 10.9244C7.66273 11.0053 7.55544 11.0562 7.44055 11.069L12.0295 1.29979ZM12.0295 1.29979L12.0286 1.30065M12.0295 1.29979L12.0286 1.30065M12.0286 1.30065L5.07594 8.25375L12.0286 1.30065ZM5.25669 11.3163L7.44044 11.069L5.19973 11.2667V11.3167H5.19988C5.19993 11.3167 5.19998 11.3167 5.20004 11.3167L5.25106 11.3167V11.317L5.25669 11.3163ZM12.7572 2.03416L12.7578 2.0335C12.7731 2.01769 12.7915 2.00513 12.8118 1.99655C12.8321 1.98797 12.8539 1.98355 12.8759 1.98355C12.8979 1.98355 12.9197 1.98797 12.94 1.99655C12.9603 2.00513 12.9787 2.0177 12.994 2.0335L12.9946 2.03402L13.9652 3.00469L13.9651 3.00471L13.9665 3.006C13.9827 3.02098 13.9956 3.03913 14.0044 3.05932C14.0132 3.07951 14.0177 3.1013 14.0177 3.12333C14.0177 3.14536 14.0132 3.16716 14.0044 3.18735C13.9956 3.20754 13.9827 3.22569 13.9665 3.24067L13.9665 3.24064L13.965 3.24211L13.3844 3.82715L12.1721 2.6148L12.7571 2.03415L12.7572 2.03416ZM15.0491 12.6667V7.06667C15.0491 6.92964 14.9947 6.79822 14.8978 6.70133C14.8009 6.60443 14.6695 6.55 14.5325 6.55C14.3955 6.55 14.264 6.60444 14.1672 6.70133C14.0703 6.79822 14.0158 6.92964 14.0158 7.06667V12.6667C14.0158 13.0247 13.8736 13.3681 13.6205 13.6213C13.3673 13.8744 13.0239 14.0167 12.6659 14.0167H3.33319C2.97517 14.0167 2.63181 13.8744 2.37866 13.6213C2.1255 13.3681 1.98327 13.0247 1.98327 12.6667V3.33333C1.98327 2.97529 2.1255 2.63191 2.37866 2.37874C2.63181 2.12556 2.97517 1.98333 3.33319 1.98333H8.93283C9.06985 1.98333 9.20126 1.9289 9.29815 1.832C9.39504 1.73511 9.44947 1.60369 9.44947 1.46667C9.44947 1.32964 9.39504 1.19822 9.29815 1.10133C9.20126 1.00444 9.06985 0.95 8.93283 0.95H3.33319C2.70112 0.95 2.09495 1.2011 1.64802 1.64806C1.20108 2.09503 0.95 2.70124 0.95 3.33333V12.6667C0.95 13.2988 1.20108 13.905 1.64802 14.3519C1.86932 14.5732 2.13204 14.7488 2.42118 14.8686C2.71032 14.9884 3.02022 15.05 3.33319 15.05H12.6659C13.298 15.05 13.9042 14.7989 14.3511 14.3519C14.798 13.905 15.0491 13.2988 15.0491 12.6667ZM7.14134 10.0662L5.77909 10.2161L5.93341 8.85367L11.4433 3.34803L12.6512 4.556L7.14134 10.0662Z" fill="#EC5C29" stroke="#EC5C29" stroke-width="0.1"/>
</svg>
