<svg width="18" height="17" viewBox="0 0 18 17" fill="none" xmlns="http://www.w3.org/2000/svg">
<path fill-rule="evenodd" clip-rule="evenodd" d="M10.204 0.806497C11.2771 -0.268257 13.0177 -0.268916 14.0916 0.805025L16.0586 2.77196C17.1234 3.83674 17.1344 5.5605 16.0834 6.63887L7.98801 14.9448C7.28248 15.6686 6.31482 16.0768 5.30439 16.0768L3.10456 16.0767C1.82532 16.0766 0.803699 15.0102 0.8575 13.7312L0.952587 11.4706C0.992086 10.5315 1.38237 9.64152 2.0462 8.97668L10.204 0.806497ZM13.0318 1.86649C12.5436 1.37833 11.7525 1.37863 11.2647 1.86716L9.95903 3.17478L13.7096 6.92533L15.01 5.59111C15.4877 5.10094 15.4827 4.31741 14.9987 3.83342L13.0318 1.86649ZM3.10686 10.0373L8.89917 4.23625L12.6625 7.99961L6.91463 13.897C6.49131 14.3313 5.91071 14.5762 5.30445 14.5762L3.10463 14.5761C2.67821 14.5761 2.33767 14.2206 2.35561 13.7943L2.45069 11.5337C2.47439 10.9702 2.70856 10.4362 3.10686 10.0373ZM16.7051 16.0107C17.1191 16.0107 17.4548 15.6748 17.4548 15.2604C17.4548 14.8461 17.1191 14.5101 16.7051 14.5101H11.1893C10.7752 14.5101 10.4396 14.8461 10.4396 15.2604C10.4396 15.6748 10.7752 16.0107 11.1893 16.0107H16.7051Z" fill="#EC5C29"/>
</svg>
