<svg width="19" height="21" viewBox="0 0 19 21" fill="none" xmlns="http://www.w3.org/2000/svg">
<path d="M2.61909 18.3809H6.04766V11.5238H12.9048V18.3809H16.3334V8.09523L9.47623 2.95238L2.61909 8.09523V18.3809ZM2.61909 20.6667C1.99052 20.6667 1.45223 20.4427 1.00423 19.9947C0.556233 19.5467 0.332614 19.0088 0.333376 18.3809V8.09523C0.333376 7.73333 0.414519 7.39047 0.576804 7.06666C0.73909 6.74285 0.962709 6.47619 1.24766 6.26666L8.1048 1.12381C8.31433 0.971426 8.53338 0.85714 8.76195 0.78095C8.99052 0.704759 9.22861 0.666664 9.47623 0.666664C9.72385 0.666664 9.96195 0.704759 10.1905 0.78095C10.4191 0.85714 10.6381 0.971426 10.8477 1.12381L17.7048 6.26666C17.9905 6.47619 18.2145 6.74285 18.3768 7.06666C18.5391 7.39047 18.6199 7.73333 18.6191 8.09523V18.3809C18.6191 19.0095 18.3951 19.5478 17.9471 19.9958C17.4991 20.4438 16.9612 20.6674 16.3334 20.6667H10.6191V13.8095H8.33338V20.6667H2.61909Z" fill="black"/>
</svg>
