<svg width="13" height="12" viewBox="0 0 13 12" fill="none" xmlns="http://www.w3.org/2000/svg">
<path d="M10.7911 5.03919C10.3668 3.84228 9.44559 2.85253 8.22646 2.35708C8.13789 1.61599 7.50157 1.03479 6.70517 1.00119C5.78002 0.969906 5.19581 1.5606 4.62865 2.13832C4.36973 2.40227 4.1017 2.67525 3.79183 2.90606C3.04357 3.46385 2.50072 4.20471 2.20511 5.03966C1.52462 5.13954 1 5.7205 1 6.42266C1 7.10072 1.48863 7.66731 2.1343 7.79546C2.68744 9.66975 4.43353 11.0435 6.50023 11.0435C8.56647 11.0435 10.3123 9.66975 10.8657 7.79546C11.5118 7.66731 12 7.10072 12 6.42266C12.0002 5.71957 11.4735 5.13745 10.7911 5.03919ZM1.97189 6.97164C1.80808 6.84303 1.70129 6.64628 1.70129 6.42312C1.70129 6.18675 1.82117 5.98027 2.00227 5.85328C1.96839 6.07575 1.94923 6.30192 1.94923 6.53134C1.94923 6.68012 1.95764 6.82681 1.97189 6.97164ZM6.50047 10.3485C4.37768 10.3485 2.65028 8.6362 2.65028 6.53111C2.65005 5.32145 3.21977 4.20286 4.21316 3.462C4.56649 3.19874 4.85369 2.90629 5.13131 2.62311C5.63887 2.10634 6.04221 1.69478 6.62409 1.69478C6.64114 1.69478 6.65844 1.69501 6.6762 1.69594C7.1667 1.71633 7.53639 2.07714 7.53639 2.53482C7.53639 2.54316 7.53639 2.55151 7.53616 2.55962C7.53452 2.57398 7.53359 2.58812 7.53359 2.60226C7.499 3.03305 7.13422 3.37324 6.69115 3.37324C6.53692 3.37324 6.38853 3.2729 6.33245 3.20199C6.21304 3.05113 5.9929 3.02355 5.84054 3.1422C5.68795 3.26039 5.66084 3.47891 5.78025 3.63001C5.93962 3.83231 6.27356 4.06845 6.69115 4.06845C7.35131 4.06845 7.91613 3.65596 8.13766 3.07732C9.47574 3.70045 10.3502 5.0429 10.3502 6.53111C10.35 8.6362 8.62302 10.3485 6.50047 10.3485ZM11.0286 6.97211C11.0428 6.82681 11.051 6.68012 11.051 6.53134C11.051 6.301 11.0332 6.0732 10.9987 5.84981C11.1798 5.97773 11.2992 6.18652 11.2992 6.42312C11.2992 6.64652 11.1922 6.84303 11.0286 6.97211ZM5.89149 5.79071C5.75478 5.65538 5.53255 5.65515 5.39584 5.79095C5.10303 6.08154 4.59197 6.08154 4.29939 5.79095C4.16245 5.65515 3.94069 5.65538 3.80375 5.79071C3.66681 5.92651 3.66657 6.14643 3.80328 6.28269C4.08207 6.55915 4.45292 6.71187 4.84762 6.71187C5.24231 6.71187 5.61293 6.55938 5.89195 6.28269C6.02842 6.14689 6.02842 5.92651 5.89149 5.79071ZM8.70131 5.79095C8.55502 5.93624 8.36036 6.01643 8.15308 6.01643C7.94581 6.01643 7.75138 5.93624 7.60509 5.79118C7.46839 5.65492 7.24639 5.65492 7.10921 5.79071C6.97228 5.92628 6.97228 6.14643 7.10898 6.28223C7.38753 6.55915 7.75816 6.71187 8.15308 6.71187C8.54754 6.71187 8.9184 6.55938 9.19742 6.28269C9.33413 6.14643 9.33389 5.92651 9.19695 5.79071C9.06001 5.65538 8.83825 5.65515 8.70131 5.79095ZM7.03444 8.49044C6.68998 8.62578 6.31025 8.62578 5.96603 8.49044C5.78586 8.41976 5.58209 8.50713 5.51105 8.68556C5.43977 8.86423 5.52787 9.06631 5.70781 9.13675C5.96346 9.23733 6.23173 9.28738 6.50047 9.28738C6.7692 9.28738 7.03747 9.2371 7.29313 9.13675C7.47306 9.06607 7.56093 8.86423 7.48989 8.68556C7.41815 8.50736 7.21484 8.41907 7.03444 8.49044Z" fill="#EC5C29" stroke="#EC5C29" stroke-width="0.2"/>
</svg>
