<svg width="14" height="16" viewBox="0 0 14 16" fill="none" xmlns="http://www.w3.org/2000/svg">
<path id="Vector" fill-rule="evenodd" clip-rule="evenodd" d="M6.95 1C10.234 1 12.9 3.539 12.9 6.66666C12.9 8.147 12.053 9.80099 10.9792 11.2307C9.49653 13.2043 7.64302 14.7514 7.6423 14.752C7.64228 14.752 7.64229 14.752 7.64227 14.752C7.24608 15.0827 6.65392 15.0827 6.25773 14.752C6.25771 14.752 6.25772 14.752 6.2577 14.752C6.25698 14.7514 4.40347 13.2043 2.9208 11.2307C1.847 9.80099 1 8.147 1 6.66666C1 3.539 3.66595 1 6.95 1ZM6.95 4.33333C5.59795 4.33333 4.5 5.379 4.5 6.66666C4.5 7.95433 5.59795 9 6.95 9C8.30205 9 9.4 7.95433 9.4 6.66666C9.4 5.379 8.30205 4.33333 6.95 4.33333Z" stroke="#FF4E00" stroke-width="1.2"/>
</svg>
