<svg width="207" height="240" viewBox="0 0 207 240" fill="none" xmlns="http://www.w3.org/2000/svg">
<g clip-path="url(#clip0_3842_306)">
<path d="M193.731 86.4706C193.731 134.227 151.155 172.941 98.6346 172.941C46.1145 172.941 3.53845 134.227 3.53845 86.4706C3.53845 38.7142 46.1145 0 98.6346 0C151.155 0 193.731 38.7142 193.731 86.4706ZM54.7782 85.5034C54.7782 105.375 67.4676 138.098 106.057 131.678C127.911 131.678 142.423 106.342 142.423 86.4706C142.423 66.5991 132.053 40.8883 98.7893 39.4631C74.8523 35.2507 54.7782 65.6319 54.7782 85.5034Z" fill="black"/>
<path d="M0 187.059H182.231L207 240H25.2115L0 187.059Z" fill="#FF4E00"/>
<path d="M98.6346 137.353C125.763 137.353 146.538 113.874 146.538 86.4706C146.538 59.0669 125.763 35.5882 98.6346 35.5882C71.5058 35.5882 50.7308 59.0669 50.7308 86.4706C50.7308 113.874 71.5058 137.353 98.6346 137.353Z" stroke="black" stroke-width="10"/>
</g>
<defs>
<clipPath id="clip0_3842_306">
<rect width="207" height="240" fill="white"/>
</clipPath>
</defs>
</svg>
