<svg width="13" height="18" viewBox="0 0 13 18" fill="none" xmlns="http://www.w3.org/2000/svg">
<path d="M9.88889 3.66669H2.77778C1.79594 3.66669 1 4.46263 1 5.44446V14.3334C1 15.3152 1.79594 16.1111 2.77778 16.1111H9.88889C10.8707 16.1111 11.6667 15.3152 11.6667 14.3334V5.44446C11.6667 4.46263 10.8707 3.66669 9.88889 3.66669Z" stroke="#EC5C29" stroke-width="1.4" stroke-linecap="round" stroke-linejoin="round"/>
<path d="M3.66675 3.66667V2.77778C3.66675 2.30628 3.85405 1.8541 4.18745 1.5207C4.52085 1.1873 4.97303 1 5.44453 1H7.2223C7.6938 1 8.14598 1.1873 8.47938 1.5207C8.81278 1.8541 9.00008 2.30628 9.00008 2.77778V3.66667" stroke="#EC5C29" stroke-width="1.4" stroke-linecap="round" stroke-linejoin="round"/>
<path d="M1 7.22223H11.6667" stroke="#EC5C29" stroke-width="1.4" stroke-linecap="round" stroke-linejoin="round"/>
<path d="M1 12.5556H11.6667" stroke="#EC5C29" stroke-width="1.4" stroke-linecap="round" stroke-linejoin="round"/>
<path d="M3.66675 16.1111V17" stroke="#EC5C29" stroke-width="1.4" stroke-linecap="round" stroke-linejoin="round"/>
<path d="M9 16.1111V17" stroke="#EC5C29" stroke-width="1.4" stroke-linecap="round" stroke-linejoin="round"/>
</svg>
