<svg width="14" height="14" viewBox="0 0 14 14" fill="none" xmlns="http://www.w3.org/2000/svg">
<g id="Group">
<path id="Vector" d="M1.7883 0.38293C0.952882 1.34546 0.11746 2.18023 0 3.3503C0.0277472 5.56834 1.88811 7.84565 4.00088 9.95679C5.04504 11.0002 6.17998 12.0469 7.30993 12.8198C8.43989 13.5927 9.58248 14.1417 10.7299 13.9676C10.7343 13.9677 10.7387 13.9677 10.743 13.9676C11.804 13.7871 12.6932 13.0476 13.6148 12.1741C14.1389 11.5576 14.1157 10.6313 13.6213 10.1198L11.8525 8.35245C11.2536 7.86063 10.4523 7.82237 9.82925 8.14375C9.41284 8.44493 8.98392 8.75769 8.56307 9.06331C8.37313 9.01071 8.13127 8.87437 7.96261 8.75665C7.50489 8.4293 6.96328 7.89504 6.5202 7.45231C6.06503 6.99748 5.52484 6.48507 5.2018 6.05013C5.03506 5.8695 4.93477 5.58244 4.91462 5.40447C5.21825 4.98667 5.54153 4.55455 5.83489 4.13928C6.17427 3.4324 6.09474 2.62172 5.63256 2.14363L3.87686 0.38293C3.20519 -0.18382 2.41026 -0.0682047 1.7883 0.38293ZM2.98922 1.26988L4.74491 3.0242C4.82947 3.19216 4.78424 3.35274 4.73185 3.53942L3.90295 4.66115C3.46265 5.4365 3.74149 6.18279 4.19666 6.80028C4.6282 7.3813 5.2022 7.9094 5.63254 8.33941C6.07702 8.78355 6.64679 9.35781 7.23811 9.78067C7.85276 10.2191 8.71004 10.5065 9.30056 10.0676C9.68819 9.79957 10.1019 9.49034 10.4362 9.24586C10.6331 9.16464 10.7723 9.17555 10.9649 9.23938L12.7336 11.0067C12.7841 11.0901 12.75 11.2356 12.7467 11.2676C11.881 12.088 11.1119 12.6287 10.5406 12.7285C10.5388 12.7285 10.5361 12.7285 10.5341 12.7285C9.94397 12.8149 9.0263 12.4813 8.0148 11.7893C6.99996 11.0952 5.90741 10.0879 4.88849 9.06981C2.87629 7.05918 1.31254 4.83624 1.25963 3.38939C1.38048 2.82615 1.9054 2.07774 2.69552 1.24376C2.8018 1.19597 2.87957 1.23166 2.98922 1.26988Z" fill="#EC5C29"/>
</g>
</svg>
