<svg width="19" height="16" viewBox="0 0 19 16" fill="none" xmlns="http://www.w3.org/2000/svg">
<path d="M9.71698 0.85C9.0484 0.85 8.48428 1.29598 8.30538 1.9066H2.84841C1.74451 1.9066 0.85 2.80168 0.85 3.90574V13.1509C0.85 14.253 1.74457 15.15 2.84699 15.15H16.587C17.689 15.15 18.584 14.2542 18.584 13.1509V3.90574C18.584 2.80345 17.6886 1.9066 16.5856 1.9066H11.1286C10.9497 1.29598 10.3856 0.85 9.71698 0.85ZM10.3594 2.32075C10.3594 2.67557 10.0718 2.96321 9.71698 2.96321C9.36216 2.96321 9.07453 2.67557 9.07453 2.32075C9.07453 1.96594 9.36216 1.6783 9.71698 1.6783C10.0718 1.6783 10.3594 1.96594 10.3594 2.32075ZM2.84841 2.73491H8.30538C8.48428 3.34553 9.0484 3.79151 9.71698 3.79151C10.3856 3.79151 10.9497 3.34553 11.1286 2.73491H16.5856C17.2307 2.73491 17.7557 3.2605 17.7557 3.90574V13.1509C17.7557 13.7972 17.2312 14.3217 16.587 14.3217H2.84699C2.2028 14.3217 1.6783 13.7963 1.6783 13.1509V3.90574C1.6783 3.25893 2.20217 2.73491 2.84841 2.73491ZM11.3006 5.07642C10.7804 5.07642 10.3594 5.49836 10.3594 6.01837V7.07597C10.3594 7.59758 10.7801 8.01792 11.3006 8.01792H15.0013C15.5215 8.01792 15.9425 7.59598 15.9425 7.07597V6.01837C15.9425 5.49676 15.5218 5.07642 15.0013 5.07642H11.3006ZM11.1877 7.07597V6.01837C11.1877 5.95507 11.2386 5.90472 11.3006 5.90472H15.0013C15.0642 5.90472 15.1142 5.95407 15.1142 6.01837V7.07597C15.1142 7.13927 15.0633 7.18962 15.0013 7.18962H11.3006C11.2377 7.18962 11.1877 7.14027 11.1877 7.07597ZM4.01981 6.28302C4.01981 7.38707 4.91482 8.28208 6.01887 8.28208C7.12292 8.28208 8.01792 7.38707 8.01792 6.28302C8.01792 5.17897 7.12292 4.28396 6.01887 4.28396C4.91482 4.28396 4.01981 5.17897 4.01981 6.28302ZM7.18962 6.28302C7.18962 6.92961 6.66546 7.45377 6.01887 7.45377C5.37228 7.45377 4.84811 6.92961 4.84811 6.28302C4.84811 5.63643 5.37228 5.11226 6.01887 5.11226C6.66546 5.11226 7.18962 5.63643 7.18962 6.28302ZM3.90566 12.7726C4.13439 12.7726 4.31981 12.5872 4.31981 12.3585V11.0377C4.31981 10.5374 4.72618 10.1311 5.22554 10.1311H6.8122C7.31168 10.1311 7.71792 10.5378 7.71792 11.0377V12.3585C7.71792 12.5872 7.90335 12.7726 8.13208 12.7726C8.36081 12.7726 8.54623 12.5872 8.54623 12.3585V11.0377C8.54623 10.0807 7.76957 9.30283 6.8122 9.30283H5.22554C4.26858 9.30283 3.49151 10.08 3.49151 11.0377V12.3585C3.49151 12.5872 3.67693 12.7726 3.90566 12.7726ZM10.3594 9.45283C10.3594 9.68156 10.5449 9.86698 10.7736 9.86698H15C15.2287 9.86698 15.4142 9.68156 15.4142 9.45283C15.4142 9.2241 15.2287 9.03868 15 9.03868H10.7736C10.5449 9.03868 10.3594 9.2241 10.3594 9.45283ZM10.3594 11.3019C10.3594 11.5306 10.5449 11.716 10.7736 11.716H13.6792C13.908 11.716 14.0934 11.5306 14.0934 11.3019C14.0934 11.0732 13.908 10.8877 13.6792 10.8877H10.7736C10.5449 10.8877 10.3594 11.0732 10.3594 11.3019Z" fill="#EC5C29" stroke="#EC5C29" stroke-width="0.3"/>
</svg>
