<svg width="18" height="22" viewBox="0 0 18 22" fill="none" xmlns="http://www.w3.org/2000/svg">
<g id="Group 685">
<path id="Vector" d="M3 5.5C3 6.56087 3.42143 7.57828 4.17157 8.32843C4.92172 9.07857 5.93913 9.5 7 9.5C8.06087 9.5 9.07828 9.07857 9.82843 8.32843C10.5786 7.57828 11 6.56087 11 5.5C11 4.43913 10.5786 3.42172 9.82843 2.67157C9.07828 1.92143 8.06087 1.5 7 1.5C5.93913 1.5 4.92172 1.92143 4.17157 2.67157C3.42143 3.42172 3 4.43913 3 5.5Z" stroke="white" stroke-width="1.8" stroke-linecap="round" stroke-linejoin="round"/>
<path id="Vector_2" d="M11 17.5H17" stroke="white" stroke-width="1.8" stroke-linecap="round" stroke-linejoin="round"/>
<path id="Vector_3" d="M14 14.5V20.5" stroke="white" stroke-width="1.8" stroke-linecap="round" stroke-linejoin="round"/>
<path id="Vector_4" d="M1 19.5V17.5C1 16.4391 1.42143 15.4217 2.17157 14.6716C2.92172 13.9214 3.93913 13.5 5 13.5H9" stroke="white" stroke-width="1.8" stroke-linecap="round" stroke-linejoin="round"/>
</g>
</svg>
