<svg width="14" height="16" viewBox="0 0 14 16" fill="none" xmlns="http://www.w3.org/2000/svg">
<g id="Group">
<path id="Vector" d="M5.24346 0.890188C5.18079 0.916133 5.1239 0.954278 5.0761 1.0024C5.076 1.0025 5.0759 1.0026 5.07581 1.0027L1.00225 5.07625L1.00225 5.07625L1.00181 5.07669C0.905318 5.17399 0.850816 5.30524 0.85 5.44227V5.44316V13.1579C0.85 13.6862 1.05988 14.1929 1.43347 14.5665C1.80707 14.9401 2.31377 15.15 2.84211 15.15H10.9621C11.4904 15.15 11.9971 14.9401 12.3707 14.5665C12.7443 14.1929 12.9542 13.6862 12.9542 13.1579V2.84211C12.9542 2.31377 12.7443 1.80707 12.3707 1.43347C11.9971 1.05988 11.4904 0.85 10.9621 0.85L5.44316 0.849999L5.44251 0.850001C5.37417 0.850299 5.30656 0.863951 5.24346 0.890188ZM5.24346 0.890188C5.24352 0.890166 5.24357 0.890144 5.24362 0.890123L5.30095 1.02874L5.24331 0.890254C5.24336 0.890232 5.24341 0.89021 5.24346 0.890188ZM9.99947 9.51126L9.99947 9.51096C9.9992 9.37397 9.94468 9.24154 9.84727 9.14432C9.75007 9.04732 9.61837 8.99284 9.48105 8.99284H4.32316C4.18566 8.99284 4.0538 9.04746 3.95658 9.14468C3.85936 9.24191 3.80474 9.37377 3.80474 9.51126C3.80474 9.64876 3.85936 9.78062 3.95658 9.87784L4.06264 9.77178L3.95658 9.87784C4.0538 9.97507 4.18566 10.0297 4.32316 10.0297H9.48105C9.61855 10.0297 9.75041 9.97507 9.84763 9.87784C9.94485 9.78062 9.99947 9.64876 9.99947 9.51126ZM3.95658 12.1621L4.06264 12.056L3.95658 12.1621C4.0538 12.2593 4.18566 12.3139 4.32316 12.3139H9.48105C9.61855 12.3139 9.75041 12.2593 9.84763 12.1621C9.94485 12.0648 9.99947 11.933 9.99947 11.7955C9.99947 11.658 9.94485 11.5261 9.84763 11.4289C9.75041 11.3317 9.61855 11.2771 9.48105 11.2771H4.32316C4.18566 11.2771 4.0538 11.3317 3.95658 11.4289L4.06264 11.535L3.95658 11.4289C3.85936 11.5261 3.80474 11.658 3.80474 11.7955C3.80474 11.933 3.85936 12.0648 3.95658 12.1621ZM9.99947 7.22632L9.99947 7.22602C9.9992 7.0887 9.94446 6.95711 9.84727 6.86011C9.75007 6.76311 9.61837 6.70863 9.48105 6.70863H4.32316C4.18566 6.70863 4.0538 6.76325 3.95658 6.86047C3.85936 6.9577 3.80474 7.08956 3.80474 7.22705C3.80474 7.36455 3.85936 7.49641 3.95658 7.59363C4.0538 7.69085 4.18566 7.74547 4.32316 7.74547H9.48105C9.61855 7.74547 9.75041 7.69085 9.84763 7.59363C9.94485 7.49641 9.99947 7.36455 9.99947 7.22705L9.99947 7.22632ZM9.99948 4.94137L9.99947 4.94077C9.99892 4.80363 9.94406 4.6723 9.8469 4.57553C9.74974 4.47875 9.61819 4.42442 9.48105 4.42442H6.75474C6.61724 4.42442 6.48538 4.47904 6.38816 4.57626C6.29093 4.67349 6.23632 4.80535 6.23632 4.94284C6.23632 5.08034 6.29093 5.2122 6.38816 5.30942C6.48538 5.40664 6.61724 5.46126 6.75474 5.46126H9.48105C9.61855 5.46126 9.75041 5.40664 9.84763 5.30942C9.94485 5.2122 9.99947 5.08034 9.99947 4.94284L9.99948 4.94137ZM4.92474 2.62012V3.96947C4.92474 4.09492 4.90003 4.21914 4.85202 4.33504C4.80402 4.45094 4.73365 4.55624 4.64495 4.64495C4.55624 4.73365 4.45094 4.80402 4.33504 4.85202C4.21914 4.90003 4.09492 4.92474 3.96947 4.92474H2.62193L4.92474 2.62012ZM10.9621 14.1132H2.84211C2.58875 14.1132 2.34578 14.0125 2.16663 13.8334C1.98749 13.6542 1.88684 13.4112 1.88684 13.1579V5.96158H3.96947C4.23108 5.96158 4.49013 5.91005 4.73182 5.80994C4.97351 5.70983 5.19312 5.56309 5.37811 5.3781C5.56309 5.19312 5.70983 4.97351 5.80994 4.73182C5.91005 4.49013 5.96158 4.23108 5.96158 3.96947V1.88684H10.9621C11.2155 1.88684 11.4584 1.98749 11.6376 2.16663C11.8167 2.34578 11.9174 2.58875 11.9174 2.84211V13.1579C11.9174 13.4112 11.8167 13.6542 11.6376 13.8334C11.4584 14.0125 11.2155 14.1132 10.9621 14.1132Z" fill="#EC5C29" stroke="#EC5C29" stroke-width="0.3"/>
</g>
</svg>
