<svg width="28" height="28" viewBox="0 0 28 28" fill="none" xmlns="http://www.w3.org/2000/svg">
<path fill-rule="evenodd" clip-rule="evenodd" d="M25.4281 20.5137H24.2086V11.4326C24.2086 5.70076 19.5621 1.0542 13.8303 1.0542C8.09845 1.0542 3.45189 5.70076 3.45189 11.4326V20.5137H2.2973C1.58082 20.5137 1 21.0945 1 21.811C1 22.5274 1.58082 23.1083 2.2973 23.1083H9.93838C9.93838 25.2577 11.6808 27.0001 13.8303 27.0001C15.9797 27.0001 17.7222 25.2577 17.7222 23.1083H25.4281C26.1446 23.1083 26.7254 22.5274 26.7254 21.811C26.7254 21.0945 26.1446 20.5137 25.4281 20.5137ZM13.8308 24.4055C13.1143 24.4055 12.5335 23.8247 12.5335 23.1082H15.1281C15.1281 23.8247 14.5473 24.4055 13.8308 24.4055ZM6.04699 20.5137H16.4254H21.6146V11.4326C21.6146 7.13373 18.1296 3.64881 13.8308 3.64881C9.53191 3.64881 6.04699 7.13373 6.04699 11.4326V20.5137Z" fill="#797979"/>
<path d="M24.2086 20.5137H23.7086V21.0137H24.2086V20.5137ZM3.45189 20.5137V21.0137H3.95189V20.5137H3.45189ZM9.93838 23.1083H10.4384V22.6083H9.93838V23.1083ZM17.7222 23.1083V22.6083H17.2222V23.1083H17.7222ZM12.5335 23.1082V22.6082H12.0335V23.1082H12.5335ZM15.1281 23.1082H15.6281V22.6082H15.1281V23.1082ZM6.04699 20.5137H5.54699V21.0137H6.04699V20.5137ZM21.6146 20.5137V21.0137H22.1146V20.5137H21.6146ZM24.2086 21.0137H25.4281V20.0137H24.2086V21.0137ZM23.7086 11.4326V20.5137H24.7086V11.4326H23.7086ZM13.8303 1.5542C19.2859 1.5542 23.7086 5.9769 23.7086 11.4326H24.7086C24.7086 5.42462 19.8382 0.554199 13.8303 0.554199V1.5542ZM3.95189 11.4326C3.95189 5.9769 8.37459 1.5542 13.8303 1.5542V0.554199C7.82231 0.554199 2.95189 5.42462 2.95189 11.4326H3.95189ZM3.95189 20.5137V11.4326H2.95189V20.5137H3.95189ZM2.2973 21.0137H3.45189V20.0137H2.2973V21.0137ZM1.5 21.811C1.5 21.3706 1.85696 21.0137 2.2973 21.0137V20.0137C1.30468 20.0137 0.5 20.8183 0.5 21.811H1.5ZM2.2973 22.6083C1.85696 22.6083 1.5 22.2513 1.5 21.811H0.5C0.5 22.8036 1.30468 23.6083 2.2973 23.6083V22.6083ZM9.93838 22.6083H2.2973V23.6083H9.93838V22.6083ZM13.8303 26.5001C11.957 26.5001 10.4384 24.9815 10.4384 23.1083H9.43838C9.43838 25.5338 11.4047 27.5001 13.8303 27.5001V26.5001ZM17.2222 23.1083C17.2222 24.9815 15.7036 26.5001 13.8303 26.5001V27.5001C16.2558 27.5001 18.2222 25.5338 18.2222 23.1083H17.2222ZM25.4281 22.6083H17.7222V23.6083H25.4281V22.6083ZM26.2254 21.811C26.2254 22.2513 25.8684 22.6083 25.4281 22.6083V23.6083C26.4207 23.6083 27.2254 22.8036 27.2254 21.811H26.2254ZM25.4281 21.0137C25.8684 21.0137 26.2254 21.3706 26.2254 21.811H27.2254C27.2254 20.8183 26.4207 20.0137 25.4281 20.0137V21.0137ZM12.0335 23.1082C12.0335 24.1009 12.8382 24.9055 13.8308 24.9055V23.9055C13.3904 23.9055 13.0335 23.5486 13.0335 23.1082H12.0335ZM15.1281 22.6082H12.5335V23.6082H15.1281V22.6082ZM13.8308 24.9055C14.8234 24.9055 15.6281 24.1009 15.6281 23.1082H14.6281C14.6281 23.5486 14.2711 23.9055 13.8308 23.9055V24.9055ZM16.4254 20.0137H6.04699V21.0137H16.4254V20.0137ZM21.6146 20.0137H16.4254V21.0137H21.6146V20.0137ZM21.1146 11.4326V20.5137H22.1146V11.4326H21.1146ZM13.8308 4.14881C17.8535 4.14881 21.1146 7.40987 21.1146 11.4326H22.1146C22.1146 6.85759 18.4058 3.14881 13.8308 3.14881V4.14881ZM6.54699 11.4326C6.54699 7.40987 9.80805 4.14881 13.8308 4.14881V3.14881C9.25577 3.14881 5.54699 6.85759 5.54699 11.4326H6.54699ZM6.54699 20.5137V11.4326H5.54699V20.5137H6.54699Z" fill="#FEF8F4"/>
</svg>
