<svg width="18" height="20" viewBox="0 0 18 20" fill="none" xmlns="http://www.w3.org/2000/svg">
<path id="Vector" d="M9.24913 19.185L9.24908 19.1851C9.24905 19.1851 9.24901 19.1851 9.24898 19.1852C8.90563 19.4716 8.38341 19.4716 8.04007 19.1851C8.04004 19.1851 8.04001 19.1851 8.03999 19.1851L8.03993 19.185L8.03891 19.1842L8.03404 19.1801L8.0132 19.1625C7.99447 19.1466 7.96621 19.1225 7.9292 19.0906C7.85515 19.0269 7.74611 18.9318 7.60825 18.8087C7.33245 18.5624 6.94181 18.2041 6.48565 17.7587C5.57147 16.866 4.40276 15.6319 3.36825 14.2548C1.85633 12.2418 0.744531 10.0104 0.744531 8.09524C0.744531 3.98576 4.25648 0.6 8.64453 0.6C13.0326 0.6 16.5445 3.98576 16.5445 8.09524C16.5445 10.0104 15.4327 12.2418 13.9208 14.2548C12.8863 15.6319 11.7176 16.866 10.8034 17.7587C10.3472 18.2041 9.95661 18.5624 9.68081 18.8087C9.54295 18.9318 9.43391 19.0269 9.35987 19.0906C9.32285 19.1225 9.29459 19.1466 9.27586 19.1625L9.25502 19.1801L9.25015 19.1842L9.24913 19.185ZM8.64453 4.1619C6.40958 4.1619 4.54453 5.89709 4.54453 8.09524C4.54453 10.2934 6.40958 12.0286 8.64453 12.0286C10.8795 12.0286 12.7445 10.2934 12.7445 8.09524C12.7445 5.89709 10.8795 4.1619 8.64453 4.1619Z" fill="#FF4E00" stroke="#FF4E00" stroke-width="1.2"/>
</svg>
