<svg width="17" height="17" viewBox="0 0 17 17" fill="none" xmlns="http://www.w3.org/2000/svg">
<path id="Vector" d="M16.6016 15.3364L13.4219 12.1567C14.4488 10.8461 15.0047 9.22801 15 7.56299C15 6.07963 14.5601 4.62958 13.736 3.39621C12.9119 2.16285 11.7406 1.20155 10.3701 0.633895C8.99968 0.0662379 7.49168 -0.0822871 6.03683 0.207102C4.58197 0.496491 3.2456 1.2108 2.1967 2.25969C1.14781 3.30858 0.433503 4.64496 0.144114 6.09981C-0.145275 7.55467 0.00324965 9.06267 0.570907 10.4331C1.13856 11.8036 2.09986 12.9749 3.33323 13.799C4.5666 14.6231 6.01664 15.063 7.5 15.063C9.16502 15.0677 10.7831 14.5118 12.0938 13.4849L15.2734 16.6646C15.4504 16.8392 15.6889 16.9371 15.9375 16.9371C16.1861 16.9371 16.4247 16.8392 16.6016 16.6646C16.689 16.5775 16.7583 16.474 16.8056 16.36C16.8529 16.2461 16.8773 16.1239 16.8773 16.0005C16.8773 15.8771 16.8529 15.7549 16.8056 15.641C16.7583 15.527 16.689 15.4235 16.6016 15.3364ZM1.875 7.56299C1.875 6.45047 2.2049 5.36294 2.82299 4.43791C3.44107 3.51288 4.31957 2.79191 5.34741 2.36617C6.37524 1.94043 7.50624 1.82903 8.59739 2.04607C9.68853 2.26312 10.6908 2.79885 11.4775 3.58552C12.2641 4.37219 12.7999 5.37447 13.0169 6.46561C13.234 7.55675 13.1226 8.68775 12.6968 9.71559C12.2711 10.7434 11.5501 11.6219 10.6251 12.24C9.70006 12.8581 8.61252 13.188 7.5 13.188C6.0088 13.1859 4.57925 12.5926 3.52481 11.5382C2.47037 10.4837 1.87707 9.0542 1.875 7.56299Z" fill="#EC5C29"/>
</svg>
