<svg width="13" height="16" viewBox="0 0 13 16" fill="none" xmlns="http://www.w3.org/2000/svg">
<g id="Group">
<path id="Vector" d="M6.48758 9.43222L6.48799 9.43222C7.59713 9.42304 8.32605 8.65579 8.77508 7.72404C9.22423 6.792 9.40029 5.68311 9.40029 4.95945C9.40029 4.80167 9.27251 4.67367 9.11464 4.67367C8.95678 4.67367 8.829 4.80167 8.829 4.95945C8.829 5.56933 8.67928 6.54631 8.30782 7.37094C7.93565 8.19714 7.34956 8.85358 6.48363 8.86092C6.04215 8.85871 5.65026 8.69641 5.30905 8.35816C4.93191 7.98405 4.64173 7.41606 4.44588 6.79803C4.25025 6.18068 4.15029 5.51823 4.15029 4.95945C4.15029 4.80167 4.02251 4.67367 3.86464 4.67367C3.70678 4.67367 3.579 4.80167 3.579 4.95945C3.579 5.55869 3.68248 6.28234 3.89948 6.96904C4.11633 7.65525 4.44788 8.3088 4.90691 8.76392C5.35298 9.20661 5.87906 9.43249 6.46858 9.43249L6.47917 9.43234L6.48758 9.43222Z" fill="#EC5C29" stroke="#EC5C29" stroke-width="0.1"/>
<path id="Vector_2" d="M3.5819 10.0842L3.58192 10.0842C4.00972 10.0248 4.39194 9.96994 4.66266 9.70244C4.75545 9.60946 4.80346 9.46517 4.82193 9.27054L3.5819 10.0842ZM3.5819 10.0842L3.57442 10.0853C3.06503 10.1562 2.46531 10.2398 2.06198 10.781C1.35321 11.7257 0.95 13.1783 0.95 14.7641C0.95 14.9219 1.07782 15.0497 1.23565 15.0497C1.39347 15.0497 1.52129 14.9219 1.52129 14.7641C1.52129 13.292 1.88737 11.9662 2.51966 11.1234L2.51977 11.1233C2.77886 10.7753 3.17302 10.718 3.66035 10.6504L3.66038 10.6504L3.66582 10.6497C4.12182 10.5863 4.6568 10.5119 5.06564 10.1076L5.06585 10.1074C5.26659 9.90654 5.35363 9.64603 5.38652 9.37158C5.41918 9.09899 5.39897 8.80721 5.38038 8.53892L5.38015 8.53563L3.5819 10.0842ZM5.07464 8.27034C4.91754 8.28148 4.79922 8.41777 4.81019 8.57495L5.38015 8.53556C5.36955 8.37987 5.23364 8.25425 5.07464 8.27034Z" fill="#EC5C29" stroke="#EC5C29" stroke-width="0.1"/>
<path id="Vector_3" d="M10.4602 11.124L10.4601 11.1238C10.2002 10.7753 9.80544 10.718 9.31702 10.6502C9.31701 10.6502 9.317 10.6502 9.31699 10.6502L9.31258 10.6496C8.85578 10.5864 8.31937 10.5123 7.90779 10.1098L7.90739 10.1094L7.9074 10.1094C7.71325 9.91523 7.62647 9.66805 7.59185 9.39642C7.55747 9.12666 7.57401 8.82766 7.59069 8.52618L7.59084 8.5236L10.4602 11.124ZM10.4602 11.124C11.0919 11.9662 11.458 13.292 11.458 14.7641C11.458 14.9219 11.5858 15.0497 11.7436 15.0497C11.9015 15.0497 12.0293 14.9219 12.0293 14.7641C12.0293 13.1783 11.6261 11.7258 10.9179 10.7816C10.5132 10.2391 9.91169 10.1558 9.401 10.085L9.39542 10.0842L9.39542 10.0842M10.4602 11.124L9.39542 10.0842M9.39542 10.0842C8.96606 10.0248 8.58206 9.96967 8.30936 9.70345L9.39542 10.0842ZM7.88907 8.30392L7.89234 8.25402M7.88907 8.30392L7.89182 8.25399C8.04931 8.26267 8.1701 8.39745 8.16143 8.55497L7.89234 8.25402M7.88907 8.30392C8.01901 8.31107 8.11866 8.42229 8.1115 8.55223L8.11138 8.55445C8.0828 9.07408 8.05813 9.52265 8.2742 9.73899L7.94275 10.074C7.57552 9.70678 7.60718 9.13336 7.64076 8.52635C7.64792 8.39641 7.75886 8.29538 7.88907 8.30392ZM7.89234 8.25402C7.73363 8.24362 7.59949 8.36663 7.59084 8.52359L7.89234 8.25402Z" fill="#EC5C29" stroke="#EC5C29" stroke-width="0.1"/>
<path id="Vector_4" d="M1.23565 15.0497H11.7436C11.9015 15.0497 12.0293 14.9219 12.0293 14.7641C12.0293 14.6062 11.9015 14.4784 11.7436 14.4784H1.23565C1.07782 14.4784 0.95 14.6062 0.95 14.7641C0.95 14.9219 1.07782 15.0497 1.23565 15.0497Z" fill="#EC5C29" stroke="#EC5C29" stroke-width="0.1"/>
<path id="Vector_5" d="M3.58772 4.99001L3.58771 4.98998C3.54866 4.83695 3.64115 4.68147 3.79421 4.64246L3.79423 4.64245C5.5782 4.18823 7.39199 4.18797 9.18471 4.64243L3.58772 4.99001ZM3.58772 4.99001C3.62076 5.11915 3.73686 5.20518 3.86437 5.20518C3.88771 5.20518 3.91139 5.20234 3.93502 5.19635L3.93507 5.19634M3.58772 4.99001L3.93507 5.19634M3.93507 5.19634C5.62627 4.76566 7.34493 4.76564 9.04446 5.19633M3.93507 5.19634L9.04446 5.19633M9.04446 5.19633C9.19506 5.23509 9.35287 5.14271 9.39161 4.98961C9.4303 4.83669 9.33792 4.68117 9.18475 4.64244L9.04436 5.1963C9.04439 5.19631 9.04442 5.19632 9.04446 5.19633Z" fill="#EC5C29" stroke="#EC5C29" stroke-width="0.1"/>
<path id="Vector_6" d="M3.43064 4.34378C3.38663 4.1923 3.47373 4.03382 3.6252 3.98978L3.62523 3.98978C4.3632 3.7756 5.14816 3.64563 5.9588 3.6033C6.12586 3.5923 6.25121 3.71813 6.25945 3.87369C6.26779 4.03123 6.14666 4.1657 5.98915 4.17389L3.43064 4.34378ZM3.43064 4.34378C3.46675 4.46888 3.58095 4.55 3.70496 4.55C3.73139 4.55 3.75806 4.54631 3.78456 4.5387L3.78469 4.53866C4.48001 4.33677 5.22166 4.21403 5.98913 4.17389L3.43064 4.34378ZM9.19563 4.53887L9.19553 4.53884C8.49209 4.3369 7.75009 4.21403 6.99008 4.17389L6.99007 4.17389C6.8326 4.16555 6.71145 4.03111 6.7198 3.87356C6.72809 3.71706 6.86537 3.59136 7.02078 3.60332C7.82362 3.64567 8.60813 3.77564 9.35304 3.9896C9.35305 3.9896 9.35305 3.9896 9.35306 3.9896L9.33926 4.03766L9.19563 4.53887ZM9.19563 4.53887C9.22172 4.5463 9.24808 4.55 9.27429 4.55C9.39867 4.55 9.51283 4.4685 9.54889 4.34317M9.19563 4.53887L9.20932 4.49078C9.23107 4.49697 9.25282 4.5 9.27429 4.5C9.37697 4.5 9.47112 4.43269 9.50085 4.32932M9.50085 4.32932L9.54889 4.34317M9.50085 4.32932L9.5489 4.34314C9.5489 4.34315 9.5489 4.34316 9.54889 4.34317M9.50085 4.32932L9.54889 4.34317M5.98653 4.12396C5.21546 4.16429 4.46998 4.28762 3.77075 4.49064C3.74873 4.49697 3.72671 4.5 3.70496 4.5C3.60255 4.5 3.5084 4.43297 3.47867 4.32987C3.44233 4.20489 3.51418 4.07413 3.63916 4.03779L5.98653 4.12396Z" fill="#EC5C29" stroke="#EC5C29" stroke-width="0.1"/>
<path id="Vector_7" d="M3.73719 5.17899L3.73719 5.17899C4.63695 5.59325 5.56297 5.80077 6.4895 5.80077C7.4163 5.80077 8.34232 5.59325 9.24208 5.17899L9.22117 5.13357L9.24209 5.17899C9.38551 5.11295 9.44829 4.94327 9.3822 4.79991L9.38217 4.79985C9.3161 4.65704 9.14785 4.59429 9.00344 4.65968L9.00344 4.65967L9.00315 4.65981C7.35837 5.41721 5.62145 5.41748 3.97612 4.65981L3.97604 4.65977C3.83167 4.59359 3.66309 4.65688 3.59708 4.79989L3.59707 4.79991C3.53098 4.94327 3.59376 5.11295 3.73719 5.17899Z" fill="#EC5C29" stroke="#EC5C29" stroke-width="0.1"/>
<path id="Vector_8" d="M5.68853 3.87262C5.68853 4.31999 6.04493 4.68586 6.48565 4.68586C6.93029 4.68586 7.29077 4.3205 7.29077 3.87262C7.29077 3.42474 6.93028 3.05953 6.48565 3.05953C6.04494 3.05953 5.68853 3.42524 5.68853 3.87262ZM6.25982 3.87262C6.25982 3.73685 6.36386 3.63109 6.48565 3.63109C6.61591 3.63109 6.71948 3.73546 6.71948 3.87262C6.71948 4.00982 6.61588 4.11429 6.48565 4.11429C6.36388 4.11429 6.25982 4.00855 6.25982 3.87262Z" fill="#EC5C29" stroke="#EC5C29" stroke-width="0.1"/>
<path id="Vector_9" d="M9.35643 14.7641C9.35643 14.9219 9.48425 15.0497 9.64208 15.0497C9.7999 15.0497 9.92772 14.9219 9.92772 14.7641V14.2286C9.92772 14.0708 9.7999 13.943 9.64208 13.943C9.48425 13.943 9.35643 14.0708 9.35643 14.2286V14.7641Z" fill="#EC5C29" stroke="#EC5C29" stroke-width="0.1"/>
<path id="Vector_10" d="M3.05153 14.7641C3.05153 14.9219 3.17935 15.0497 3.33718 15.0497C3.495 15.0497 3.62282 14.9219 3.62282 14.7641V14.2286C3.62282 14.0708 3.495 13.943 3.33718 13.943C3.17935 13.943 3.05153 14.0708 3.05153 14.2286V14.7641Z" fill="#EC5C29" stroke="#EC5C29" stroke-width="0.1"/>
<path id="Vector_11" d="M3.86325 4.43902C3.9596 4.35162 3.96704 4.20255 3.87977 4.10607C3.36691 3.53952 3.19155 2.98578 3.38618 2.54698L3.86325 4.43902ZM3.86325 4.43902C3.81811 4.47977 3.7614 4.5 3.70496 4.5C3.64082 4.5 3.57668 4.47385 3.53016 4.42237L3.86325 4.43902ZM3.43189 2.56725L3.43189 2.56724C3.57537 2.24366 3.91835 1.98151 4.44099 1.80018C4.9626 1.61921 5.65568 1.52157 6.48564 1.52157C6.6435 1.52157 6.77128 1.39357 6.77128 1.23578C6.77128 1.078 6.6435 0.95 6.48564 0.95C5.5376 0.95 4.74531 1.07076 4.13964 1.30335C3.53395 1.53595 3.1106 1.88226 2.90966 2.3355C2.62332 2.98055 2.84077 3.73545 3.49309 4.45593C3.54949 4.51831 3.6273 4.55 3.70496 4.55C3.77335 4.55 3.8421 4.52546 3.89675 4.47614L3.89685 4.47606C4.01361 4.37014 4.02264 4.18949 3.91685 4.07253L3.91684 4.07251C3.40851 3.51098 3.24948 2.97851 3.43189 2.56725Z" fill="#EC5C29" stroke="#EC5C29" stroke-width="0.1"/>
<path id="Vector_12" d="M9.08242 4.47606L9.08252 4.47614C9.13716 4.52546 9.20592 4.55 9.2743 4.55C9.35196 4.55 9.42978 4.51831 9.48618 4.45593C10.1382 3.73573 10.3557 2.98125 10.0696 2.33648C9.86839 1.88293 9.44419 1.53639 8.83716 1.30362C8.23015 1.07086 7.43601 0.95 6.48564 0.95C6.32778 0.95 6.2 1.07799 6.2 1.23578C6.2 1.39357 6.32778 1.52157 6.48564 1.52157C7.31795 1.52157 8.01289 1.61932 8.53582 1.80047C9.05979 1.98197 9.40349 2.24437 9.5471 2.56821L9.54711 2.56822C9.72951 2.9792 9.57049 3.51124 9.06243 4.07251L9.06241 4.07253C8.95663 4.18949 8.96565 4.37014 9.08242 4.47606ZM9.2743 4.5C9.21787 4.5 9.16116 4.47977 9.11601 4.43902L9.44911 4.42237C9.40259 4.47385 9.33844 4.5 9.2743 4.5Z" fill="#EC5C29" stroke="#EC5C29" stroke-width="0.1"/>
<path id="Vector_13" d="M3.98259 4.19663L3.98259 4.19664L4.14225 4.8518C4.14225 4.85181 4.14225 4.85181 4.14226 4.85182C4.17963 5.00503 4.08552 5.15965 3.93237 5.19702L3.93231 5.19703C3.9097 5.20252 3.88674 5.20518 3.86436 5.20518C3.73589 5.20518 3.61875 5.1177 3.58701 4.98696L3.58702 4.98699L3.6356 4.97515L3.58701 4.98694L3.98259 4.19663ZM3.98259 4.19663C3.94525 4.04343 3.79025 3.94889 3.63717 3.98662M3.98259 4.19663L3.42736 4.33182M3.42736 4.33182L3.47593 4.31996L3.42735 4.3318M3.42736 4.33182C3.42736 4.33181 3.42736 4.33181 3.42735 4.3318M3.42736 4.33182L3.42735 4.3318M3.42735 4.3318C3.38998 4.17861 3.48406 4.02402 3.63717 3.98662M3.63717 3.98662C3.63715 3.98663 3.63713 3.98663 3.63711 3.98664L3.64909 4.03518L3.63724 3.98661C3.63722 3.98661 3.6372 3.98662 3.63717 3.98662Z" fill="#EC5C29" stroke="#EC5C29" stroke-width="0.1"/>
<path id="Vector_14" d="M9.34368 4.97515C9.31753 5.08292 9.2209 5.15519 9.11491 5.15519C9.09647 5.15519 9.07748 5.15298 9.05876 5.14844L9.39226 4.98699M9.34368 4.97515L9.39226 4.98699M9.34368 4.97515L9.50335 4.31996L9.34368 4.97515ZM9.39226 4.98699C9.36051 5.11772 9.24337 5.20519 9.11491 5.20519C9.09253 5.20519 9.06958 5.20252 9.04696 5.19703L9.0469 5.19701C8.89375 5.15964 8.79965 5.00503 8.83702 4.85182C8.83702 4.85181 8.83703 4.85181 8.83703 4.8518L8.99669 4.19663L8.99669 4.19663C9.03403 4.04343 9.18848 3.94888 9.34212 3.98662L9.33019 4.03518L9.34204 3.9866C9.49519 4.02397 9.5893 4.17859 9.55193 4.3318C9.55192 4.33181 9.55192 4.33181 9.55192 4.33182L9.39227 4.98694C9.39227 4.98695 9.39226 4.98697 9.39226 4.98699Z" fill="#EC5C29" stroke="#EC5C29" stroke-width="0.1"/>
<path id="Vector_15" d="M6.65053 11.1606C6.70421 11.1083 6.72954 11.0334 6.71908 10.9591C6.70834 10.8847 6.66292 10.82 6.59685 10.7845L4.01053 10.1839C3.90812 10.1035 3.75974 10.1214 3.67936 10.2232C3.59897 10.3256 3.61659 10.4737 3.71873 10.5544L5.52461 11.9768C5.56755 12.0107 5.61903 12.0272 5.67051 12.0272C5.73025 12.0272 5.78999 12.0046 5.83541 11.9597L6.65053 11.1606ZM6.65053 11.1606L6.68553 11.1963L6.68548 11.1963C6.68546 11.1963 6.68544 11.1964 6.68542 11.1964L5.87055 11.9953C5.87053 11.9953 5.87052 11.9953 5.87051 11.9953C5.8153 12.0499 5.74277 12.0772 5.67051 12.0772C5.60831 12.0772 5.54582 12.0572 5.49367 12.0161C5.49366 12.0161 5.49366 12.0161 5.49365 12.0161L3.68779 10.5937L3.68774 10.5936C3.56397 10.4959 3.54263 10.3164 3.64003 10.1923L3.64011 10.1922C3.73755 10.0688 3.9173 10.0471 4.0414 10.1445L4.04147 10.1446L5.64985 11.4115M6.65053 11.1606L5.64985 11.4115M5.64985 11.4115L6.00779 11.0608L4.64874 10.3334L4.64872 10.3334L4.67232 10.2893C4.55752 10.2279 4.5143 10.085 4.57569 9.97023L5.64985 11.4115Z" fill="#EC5C29" stroke="#EC5C29" stroke-width="0.1"/>
<path id="Vector_16" d="M5.51478 15.0317C5.54737 15.044 5.58111 15.05 5.61463 15.05L5.61478 15.05L5.53232 14.9849M5.51478 15.0317C5.51474 15.0317 5.5147 15.0316 5.51466 15.0316L5.53232 14.9849M5.51478 15.0317C5.51482 15.0317 5.51486 15.0317 5.51491 15.0317L5.53232 14.9849M5.51478 15.0317C5.36674 14.9766 5.29165 14.8121 5.34701 14.6643L5.39385 14.6818C5.34816 14.8037 5.4101 14.9394 5.53232 14.9849M6.16028 12.4858L5.34703 14.6642L5.83541 14.8464L5.88225 14.8639L5.88229 14.8638L6.75326 12.5305L6.75327 12.5305C6.78896 12.4348 6.77096 12.3274 6.70587 12.2486L6.70584 12.2485L6.05066 11.4574L6.05061 11.4573C5.94932 11.3354 5.76944 11.3189 5.64823 11.4194L5.64822 11.4194C5.52684 11.5201 5.50976 11.7002 5.61024 11.8217L5.61026 11.8218L6.16028 12.4858Z" fill="#EC5C29" stroke="#EC5C29" stroke-width="0.1"/>
<path id="Vector_17" d="M7.09734 14.8648L6.21839 12.5316L6.21836 12.5315L6.26515 12.5139L7.09734 14.8648ZM7.09734 14.8648C7.14041 14.9793 7.24922 15.05 7.36465 15.05M7.09734 14.8648L7.36465 15.05M7.36465 15.05C7.39818 15.05 7.43224 15.044 7.46544 15.0314L7.36465 15.05ZM6.26546 12.2485L6.26544 12.2486L6.92064 11.4574L6.26546 12.2485ZM7.63194 14.6633L6.81163 12.4852L7.44778 14.9846C7.56946 14.9389 7.63113 14.8029 7.58515 14.6809L7.63194 14.6633L7.63194 14.6633Z" fill="#EC5C29" stroke="#EC5C29" stroke-width="0.1"/>
<path id="Vector_18" d="M8.05287 9.82955L6.35083 10.7404L6.35075 10.7405C6.27076 10.7835 6.21572 10.8618 6.20271 10.9519L6.20268 10.9521C6.19003 11.042 6.22064 11.1328 6.2858 11.1963L6.28574 11.1963L6.32074 11.1606L6.28585 11.1964L8.05287 9.82955ZM8.05287 9.82955C8.1928 9.75441 8.36534 9.80798 8.43965 9.94661L8.43967 9.94665C8.51407 10.0858 8.46171 10.2589 8.32255 10.3334C8.32254 10.3334 8.32254 10.3334 8.32253 10.3334L6.96348 11.0608L7.32177 11.4118M8.05287 9.82955L7.32177 11.4118M7.10079 11.9954L7.10086 11.9954L7.13587 11.9597L7.10073 11.9953L7.10079 11.9954ZM7.10079 11.9954C7.15599 12.0499 7.22852 12.0772 7.30076 12.0772C7.36268 12.0772 7.42517 12.0572 7.47704 12.0164M7.10079 11.9954L8.93834 10.1443L8.96928 10.1836L8.93843 10.1442L8.93837 10.1443C9.06262 10.0464 9.24217 10.0686 9.33953 10.1929M7.47704 12.0164L7.47697 12.0164L7.44612 11.9771L7.47704 12.0164ZM7.47704 12.0164L9.2908 10.594M9.2908 10.594L9.29084 10.594L9.25998 10.5547L9.2908 10.594ZM9.2908 10.594C9.41523 10.4966 9.43696 10.3171 9.33953 10.1929M9.33953 10.1929C9.33953 10.1929 9.33954 10.1929 9.33955 10.1929L9.30018 10.2238L9.33951 10.1929C9.33951 10.1929 9.33952 10.1929 9.33953 10.1929ZM7.32177 11.4118L7.28726 11.4389L7.31811 11.4783L7.3531 11.4425L7.32177 11.4118Z" fill="#EC5C29" stroke="#EC5C29" stroke-width="0.1"/>
</g>
</svg>
