<svg width="16" height="18" viewBox="0 0 16 18" fill="none" xmlns="http://www.w3.org/2000/svg">
<path d="M15.6406 14.9548L15.641 14.9547L15.6389 14.9484L15.6387 14.948C14.9506 11.5354 11.9336 8.96255 8.31947 8.96255C4.70642 8.96255 1.68919 11.5351 0.984507 14.9431L0.984238 14.9441L0.982972 14.9488L0.982904 14.9488L0.982397 14.9514C0.881989 15.4681 1.01763 16.0024 1.35232 16.4088C1.68705 16.8151 2.18618 17.05 2.71227 17.05C5.31552 17.05 11.3268 17.05 13.9304 17.034C14.4484 17.0339 14.9429 16.8007 15.274 16.3985C15.6059 15.9961 15.7398 15.4663 15.6406 14.9548ZM2.30986 15.6195L2.30982 15.6195C2.21213 15.501 2.17199 15.345 2.19993 15.1936C2.78938 12.349 5.3059 10.2036 8.31947 10.2036C11.3326 10.2036 13.8484 12.3486 14.4224 15.1931C14.4509 15.341 14.412 15.4935 14.3165 15.6092C14.2205 15.7255 14.0777 15.793 13.9267 15.793L13.9232 15.793L13.9229 15.793C11.3215 15.8089 5.31399 15.8089 2.71227 15.8089C2.55651 15.8089 2.40869 15.7396 2.30986 15.6195ZM12.0905 4.72101C12.0905 2.63948 10.401 0.95 8.31947 0.95C6.23794 0.95 4.54845 2.63948 4.54845 4.72101C4.54845 6.80254 6.23794 8.49202 8.31947 8.49202C10.401 8.49202 12.0905 6.80254 12.0905 4.72101ZM5.78952 4.72101C5.78952 3.32457 6.92303 2.19106 8.31947 2.19106C9.7159 2.19106 10.8494 3.32457 10.8494 4.72101C10.8494 6.11744 9.7159 7.25095 8.31947 7.25095C6.92303 7.25095 5.78952 6.11744 5.78952 4.72101Z" fill="#EC5C29" stroke="#EC5C29" stroke-width="0.1"/>
</svg>
