<svg width="19" height="14" viewBox="0 0 19 14" fill="none" xmlns="http://www.w3.org/2000/svg">
<path d="M2.84607 11.1539C2.84607 11.6435 3.04057 12.1131 3.3868 12.4593C3.73302 12.8055 4.20259 13 4.69222 13C5.18185 13 5.65143 12.8055 5.99765 12.4593C6.34387 12.1131 6.53838 11.6435 6.53838 11.1539C6.53838 10.6642 6.34387 10.1947 5.99765 9.84844C5.65143 9.50221 5.18185 9.30771 4.69222 9.30771C4.20259 9.30771 3.73302 9.50221 3.3868 9.84844C3.04057 10.1947 2.84607 10.6642 2.84607 11.1539Z" stroke="#EC5C29" stroke-width="1.4" stroke-linecap="round" stroke-linejoin="round"/>
<path d="M12.0769 11.1539C12.0769 11.6435 12.2714 12.1131 12.6176 12.4593C12.9639 12.8055 13.4334 13 13.9231 13C14.4127 13 14.8823 12.8055 15.2285 12.4593C15.5747 12.1131 15.7692 11.6435 15.7692 11.1539C15.7692 10.6642 15.5747 10.1947 15.2285 9.84844C14.8823 9.50221 14.4127 9.30771 13.9231 9.30771C13.4334 9.30771 12.9639 9.50221 12.6176 9.84844C12.2714 10.1947 12.0769 10.6642 12.0769 11.1539Z" stroke="#EC5C29" stroke-width="1.4" stroke-linecap="round" stroke-linejoin="round"/>
<path d="M2.84615 11.1538H1V5.61538M1 5.61538L2.84615 1H11.1538L14.8462 5.61538M1 5.61538H14.8462M14.8462 5.61538H15.7692C16.2589 5.61538 16.7284 5.80989 17.0747 6.15611C17.4209 6.50233 17.6154 6.97191 17.6154 7.46154V11.1538H15.7692M12.0769 11.1538H6.53846M9.30769 5.61538V1" stroke="#EC5C29" stroke-width="1.4" stroke-linecap="round" stroke-linejoin="round"/>
</svg>
