<svg width="20" height="18" viewBox="0 0 20 18" fill="none" xmlns="http://www.w3.org/2000/svg">
    <g id="Group 750">
        <path id="Vector" d="M1 15.2469V14.3565C1 10.9141 3.79058 8.12354 7.23293 8.12354" stroke="#3B3B3B" stroke-width="1.5" stroke-linecap="round" stroke-linejoin="round"/>
        <path id="Vector_2" d="M13.2913 8.40274C13.8628 7.77526 14.8501 7.77526 15.4216 8.40274C15.7104 8.7199 16.1255 8.89184 16.554 8.87181C17.4018 8.83219 18.0999 9.53036 18.0603 10.3781C18.0403 10.8066 18.2122 11.2217 18.5294 11.5106C19.1569 12.082 19.1569 13.0693 18.5294 13.6408C18.2122 13.9297 18.0403 14.3448 18.0603 14.7732C18.0999 15.621 17.4018 16.3192 16.554 16.2796C16.1255 16.2595 15.7104 16.4315 15.4216 16.7486C14.8501 17.3761 13.8628 17.3761 13.2913 16.7486C13.0025 16.4315 12.5874 16.2595 12.1589 16.2796C11.3111 16.3192 10.6129 15.621 10.6526 14.7732C10.6726 14.3448 10.5007 13.9297 10.1835 13.6408C9.55602 13.0693 9.55602 12.082 10.1835 11.5106C10.5007 11.2217 10.6726 10.8066 10.6526 10.3781C10.6129 9.53036 11.3111 8.83219 12.1589 8.87181C12.5874 8.89184 13.0025 8.7199 13.2913 8.40274Z" stroke="#3B3B3B" stroke-width="1.5"/>
        <path id="Vector_3" d="M12.8994 12.5754L13.8709 13.5467L15.8136 11.604" stroke="#3B3B3B" stroke-width="1.5" stroke-linecap="round" stroke-linejoin="round"/>
        <path id="Vector_4" d="M7.23306 8.12335C9.20009 8.12335 10.7947 6.5287 10.7947 4.56168C10.7947 2.59462 9.20009 1 7.23306 1C5.266 1 3.67139 2.59462 3.67139 4.56168C3.67139 6.5287 5.266 8.12335 7.23306 8.12335Z" stroke="#3B3B3B" stroke-width="1.5" stroke-linecap="round" stroke-linejoin="round"/>
    </g>
</svg>
