<svg width="17" height="18" viewBox="0 0 17 18" fill="none" xmlns="http://www.w3.org/2000/svg">
<path id="Shape" fill-rule="evenodd" clip-rule="evenodd" d="M5.9 1C6.36024 1 6.73333 1.37052 6.73333 1.82759V2.10345H10.2667V1.82759C10.2667 1.37052 10.6398 1 11.1 1C11.5602 1 11.9333 1.37052 11.9333 1.82759V2.10359C12.4009 2.10434 12.8012 2.1089 13.1385 2.13626C13.5606 2.17051 13.9569 2.24457 14.3316 2.43419C14.9066 2.72511 15.374 3.18933 15.667 3.7603C15.8579 4.13246 15.9325 4.52601 15.967 4.94519C16 5.3471 16 5.83906 16 6.42847V12.675C16 13.2644 16 13.7563 15.967 14.1583C15.9325 14.5774 15.8579 14.971 15.667 15.3431C15.374 15.9141 14.9066 16.3783 14.3316 16.6693C13.9569 16.8589 13.5606 16.9329 13.1385 16.9672C12.7338 17 12.2384 17 11.6449 17H5.35505C4.76156 17 4.26618 17 3.86148 16.9672C3.43938 16.9329 3.0431 16.8589 2.66836 16.6693C2.09342 16.3783 1.62598 15.9141 1.33304 15.3431C1.1421 14.971 1.06753 14.5774 1.03304 14.1583C0.999979 13.7563 0.999989 13.2644 1 12.675V6.42849C0.999989 5.83908 0.999979 5.3471 1.03304 4.94519C1.06753 4.52601 1.1421 4.13246 1.33304 3.7603C1.62598 3.18933 2.09342 2.72511 2.66836 2.43419C3.0431 2.24457 3.43938 2.17051 3.86148 2.13626C4.19878 2.1089 4.59908 2.10434 5.06667 2.10359V1.82759C5.06667 1.37052 5.43976 1 5.9 1ZM5.06667 3.75883C4.6031 3.75969 4.26708 3.76404 3.9972 3.78594C3.67817 3.81183 3.52564 3.85804 3.42501 3.90896C3.16368 4.0412 2.9512 4.2522 2.81805 4.51174C2.76678 4.61167 2.72024 4.76315 2.69418 5.07998C2.66732 5.40646 2.66667 5.83042 2.66667 6.46207V7.06897H14.3333V6.46207C14.3333 5.83042 14.3327 5.40646 14.3058 5.07998C14.2798 4.76315 14.2332 4.61167 14.182 4.51174C14.0488 4.2522 13.8363 4.0412 13.575 3.90896C13.4744 3.85804 13.3218 3.81183 13.0028 3.78594C12.7329 3.76404 12.3969 3.75969 11.9333 3.75883V4.03448C11.9333 4.49155 11.5602 4.86207 11.1 4.86207C10.6398 4.86207 10.2667 4.49155 10.2667 4.03448V3.75862H6.73333V4.03448C6.73333 4.49155 6.36024 4.86207 5.9 4.86207C5.43976 4.86207 5.06667 4.49155 5.06667 4.03448V3.75883ZM14.3333 8.72414H2.66667V12.6414C2.66667 13.273 2.66732 13.697 2.69418 14.0235C2.72024 14.3403 2.76678 14.4918 2.81805 14.5917C2.9512 14.8512 3.16368 15.0623 3.42501 15.1945C3.52564 15.2454 3.67817 15.2916 3.9972 15.3175C4.32595 15.3442 4.75286 15.3448 5.38889 15.3448H11.6111C12.2471 15.3448 12.674 15.3442 13.0028 15.3175C13.3218 15.2916 13.4744 15.2454 13.575 15.1945C13.8363 15.0623 14.0488 14.8512 14.182 14.5917C14.2332 14.4918 14.2798 14.3403 14.3058 14.0235C14.3327 13.697 14.3333 13.273 14.3333 12.6414V8.72414Z" fill="#EC5C29" stroke="white" stroke-width="0.4" stroke-linecap="round" stroke-linejoin="round"/>
</svg>
