<svg width="13" height="14" viewBox="0 0 13 14" fill="none" xmlns="http://www.w3.org/2000/svg">
<path d="M11.5556 1.4H10.8333V0H9.38889V1.4H3.61111V0H2.16667V1.4H1.44444C0.642778 1.4 0.00722222 2.03 0.00722222 2.8L0 12.6C0 12.9713 0.152182 13.3274 0.423068 13.5899C0.693954 13.8525 1.06135 14 1.44444 14H11.5556C12.35 14 13 13.37 13 12.6V2.8C13 2.03 12.35 1.4 11.5556 1.4ZM11.5556 12.6H1.44444V5.6H11.5556V12.6ZM4.33333 8.4H2.88889V7H4.33333V8.4ZM7.22222 8.4H5.77778V7H7.22222V8.4ZM10.1111 8.4H8.66667V7H10.1111V8.4ZM4.33333 11.2H2.88889V9.8H4.33333V11.2ZM7.22222 11.2H5.77778V9.8H7.22222V11.2ZM10.1111 11.2H8.66667V9.8H10.1111V11.2Z" fill="#8B8585"/>
</svg>
