<svg width="193" height="194" viewBox="0 0 193 194" fill="none" xmlns="http://www.w3.org/2000/svg">
<path d="M188.903 158.526L129.405 192.871C128.465 193.415 127.403 193.711 126.317 193.732C125.232 193.752 124.159 193.496 123.199 192.987L3.4179 123.855C2.10162 123.092 0.0331857 121.383 0.0497775 119.27C0.0497775 118.131 0 116.969 0 116.389C0 114.469 1.52645 112.036 3.41238 110.946L62.6892 76.7231C63.7485 76.1858 64.9194 75.9058 66.1071 75.9058C67.2949 75.9058 68.4658 76.1858 69.525 76.7231L188.903 145.612C190.789 146.718 192.321 149.141 192.321 151.054C192.321 151.204 192.293 153.062 192.293 153.266C192.293 155.899 190.634 157.525 188.903 158.526Z" fill="#263238"/>
<path d="M129.405 192.871L188.903 158.526C190.446 157.636 192.293 156.203 192.293 153.25C192.293 152.752 192.321 151.414 192.321 151.038C192.321 149.124 190.789 146.685 188.903 145.596L126.169 109.398V193.728C127.305 193.74 128.423 193.443 129.405 192.871Z" fill="#37474F"/>
<path d="M127.989 184.73C127.054 185.199 126.023 185.443 124.977 185.443C123.932 185.443 122.901 185.199 121.966 184.73L3.40122 116.3C0.851613 114.829 0.851613 112.429 3.40122 110.952L62.6836 76.7231C63.7428 76.1858 64.9138 75.9058 66.1015 75.9058C67.2892 75.9058 68.4602 76.1858 69.5194 76.7231L188.897 145.612C190.778 146.718 190.778 148.471 188.897 149.555L127.989 184.73Z" fill="#455A64"/>
<path d="M122.231 177.833C121.226 178.346 120.114 178.614 118.985 178.614C117.856 178.614 116.744 178.346 115.739 177.833L13.7158 118.933C11.9238 117.898 11.9238 116.217 13.7158 115.183L69.5139 82.9838C70.5219 82.4766 71.6347 82.2124 72.7631 82.2124C73.8915 82.2124 75.0043 82.4766 76.0123 82.9838L178.002 141.89C179.788 142.919 179.788 144.606 178.002 145.64L122.231 177.833Z" fill="#37474F"/>
<path d="M72.5391 82.2261C71.4751 82.2273 70.4273 82.4873 69.4862 82.9838L13.7158 115.194C11.9238 116.228 11.9238 117.909 13.7158 118.944L24.7769 125.326L72.5446 94.8248L72.5391 82.2261Z" fill="#263238"/>
<path d="M76.0235 85.4228C75.0155 84.9156 73.9028 84.6514 72.7743 84.6514C71.6459 84.6514 70.5331 84.9156 69.5251 85.4228L13.7546 117.622C13.4355 117.798 13.1493 118.028 12.9084 118.302C13.145 118.551 13.4171 118.764 13.7159 118.933L115.739 177.833C116.744 178.346 117.857 178.614 118.985 178.614C120.114 178.614 121.226 178.346 122.232 177.833L178.002 145.64C178.319 145.462 178.605 145.234 178.848 144.965C178.615 144.711 178.342 144.497 178.041 144.329L76.0235 85.4228Z" fill="#FAFAFA"/>
<path d="M69.514 85.4228L13.7546 117.622C13.4365 117.8 13.1505 118.03 12.9084 118.302C13.145 118.551 13.4171 118.764 13.7159 118.933L19.0916 122.041L79.27 87.3032L76.018 85.4228C75.0102 84.9116 73.8961 84.6453 72.766 84.6453C71.636 84.6453 70.5219 84.9116 69.514 85.4228ZM178.046 144.329L163.219 135.773L103.04 170.5L115.761 177.828C116.768 178.338 117.881 178.604 119.01 178.604C120.139 178.604 121.252 178.338 122.259 177.828L178.03 145.629C178.344 145.45 178.628 145.222 178.87 144.954C178.63 144.704 178.352 144.493 178.046 144.329Z" fill="#BFBFBF"/>
<path d="M128.321 165.522C128.373 165.492 128.432 165.477 128.492 165.478C128.554 165.477 128.615 165.492 128.669 165.522L129.355 165.915C129.375 165.925 129.392 165.939 129.405 165.958C129.418 165.976 129.425 165.998 129.427 166.02C129.423 166.041 129.415 166.061 129.403 166.078C129.39 166.095 129.374 166.11 129.355 166.12L126.363 167.845C126.31 167.873 126.251 167.886 126.191 167.884C126.13 167.887 126.069 167.873 126.014 167.845L121.844 165.434C121.824 165.427 121.805 165.413 121.793 165.395C121.78 165.378 121.773 165.356 121.773 165.334C121.773 165.312 121.78 165.291 121.793 165.273C121.805 165.255 121.824 165.242 121.844 165.235L122.691 164.748C122.743 164.718 122.802 164.702 122.862 164.704C122.924 164.702 122.985 164.718 123.039 164.748L126.357 166.656L128.321 165.522Z" fill="white"/>
<path d="M131.457 162.707C131.529 162.74 131.612 162.79 131.711 162.845L131.955 162.995C132.131 163.096 132.281 163.238 132.391 163.41C132.487 163.551 132.53 163.721 132.513 163.891C132.49 164.076 132.411 164.249 132.286 164.388C132.119 164.585 131.917 164.748 131.689 164.87C131.429 165.02 131.15 165.135 130.86 165.213C130.578 165.289 130.288 165.333 129.997 165.345C129.718 165.353 129.44 165.328 129.167 165.273C128.915 165.224 128.672 165.14 128.443 165.024L128.188 164.881C128.083 164.825 128.006 164.776 127.945 164.737C127.765 164.636 127.612 164.494 127.497 164.322C127.406 164.179 127.365 164.01 127.381 163.841C127.406 163.655 127.485 163.48 127.608 163.338C127.773 163.139 127.976 162.976 128.205 162.857C128.464 162.704 128.743 162.588 129.034 162.514C129.32 162.437 129.613 162.393 129.908 162.381C130.187 162.371 130.465 162.395 130.738 162.453C130.989 162.502 131.231 162.588 131.457 162.707ZM129.571 164.333C129.742 164.419 129.933 164.459 130.124 164.449C130.319 164.444 130.509 164.389 130.677 164.289C130.848 164.189 130.942 164.084 130.954 163.968C130.965 163.852 130.898 163.747 130.749 163.647C130.684 163.597 130.615 163.551 130.544 163.509L130.312 163.393C130.14 163.308 129.95 163.266 129.759 163.271C129.564 163.28 129.375 163.335 129.206 163.432C129.138 163.461 129.078 163.505 129.029 163.561C128.98 163.616 128.944 163.682 128.924 163.752C128.924 163.869 128.985 163.974 129.134 164.079C129.198 164.129 129.266 164.174 129.339 164.212C129.412 164.256 129.488 164.297 129.565 164.333H129.571Z" fill="white"/>
<path d="M133.116 161.773C133.184 161.824 133.256 161.87 133.331 161.911C133.407 161.958 133.487 161.999 133.569 162.033C133.741 162.117 133.931 162.157 134.122 162.149C134.317 162.147 134.508 162.093 134.675 161.994C134.782 161.945 134.873 161.868 134.941 161.773C134.956 161.741 134.963 161.706 134.963 161.67C134.963 161.635 134.956 161.6 134.941 161.568C134.93 161.536 134.93 161.501 134.941 161.469C134.941 161.441 134.968 161.413 135.013 161.386L135.859 160.893C135.914 160.866 135.974 160.851 136.036 160.849C136.096 160.847 136.155 160.863 136.207 160.893C136.293 160.956 136.368 161.033 136.428 161.12C136.511 161.23 136.556 161.364 136.556 161.502C136.546 161.684 136.482 161.859 136.373 162.005C136.183 162.237 135.945 162.426 135.676 162.558C135.433 162.699 135.173 162.809 134.902 162.884C134.627 162.967 134.343 163.016 134.056 163.028C133.773 163.045 133.489 163.028 133.21 162.978C132.943 162.927 132.686 162.835 132.446 162.707C132.375 162.674 132.286 162.624 132.181 162.564C132.076 162.503 131.987 162.447 131.927 162.409C131.736 162.305 131.575 162.152 131.462 161.966C131.375 161.82 131.342 161.648 131.368 161.48C131.404 161.296 131.492 161.127 131.622 160.993C131.781 160.813 131.968 160.66 132.175 160.539C132.482 160.359 132.814 160.225 133.16 160.141C133.443 160.074 133.732 160.039 134.023 160.036C134.248 160.034 134.472 160.058 134.692 160.108C134.825 160.137 134.954 160.18 135.079 160.235C135.134 160.235 135.156 160.296 135.156 160.335C135.154 160.357 135.145 160.379 135.131 160.397C135.118 160.416 135.1 160.43 135.079 160.44L134.233 160.927C134.187 160.953 134.136 160.968 134.083 160.971H133.918C133.659 160.931 133.395 160.988 133.176 161.131C133.005 161.231 132.911 161.336 132.905 161.452C132.905 161.52 132.925 161.587 132.962 161.644C133 161.701 133.053 161.746 133.116 161.773Z" fill="white"/>
<path d="M136.694 160.799C136.412 160.633 136.285 160.434 136.318 160.202C136.433 159.854 136.663 159.555 136.971 159.356L137.601 158.841C137.495 158.784 137.378 158.752 137.258 158.747C137.121 158.742 136.986 158.779 136.871 158.852C136.796 158.89 136.732 158.945 136.683 159.013C136.662 159.047 136.647 159.084 136.639 159.123C136.636 159.161 136.62 159.196 136.594 159.223C136.56 159.253 136.523 159.279 136.484 159.3L135.66 159.776C135.616 159.801 135.566 159.814 135.516 159.815C135.467 159.817 135.418 159.804 135.378 159.776C135.29 159.714 135.226 159.625 135.195 159.522C135.16 159.406 135.16 159.283 135.195 159.168C135.255 159.016 135.343 158.877 135.455 158.758C135.605 158.595 135.781 158.456 135.975 158.349C136.223 158.208 136.487 158.094 136.76 158.012C137.003 157.94 137.254 157.899 137.507 157.89C137.738 157.882 137.969 157.907 138.193 157.962C138.408 158.016 138.615 158.1 138.807 158.211L140.759 159.317C140.779 159.325 140.796 159.339 140.809 159.356C140.822 159.374 140.829 159.395 140.831 159.416C140.83 159.439 140.823 159.461 140.81 159.479C140.797 159.498 140.78 159.512 140.759 159.522L139.946 159.986C139.894 160.016 139.835 160.032 139.775 160.03C139.713 160.032 139.652 160.016 139.598 159.986L139.421 159.887C139.446 160.024 139.419 160.167 139.343 160.285C139.212 160.458 139.044 160.6 138.851 160.7C138.677 160.8 138.491 160.88 138.298 160.937C138.118 160.989 137.932 161.019 137.745 161.026C137.559 161.029 137.373 161.008 137.192 160.965C137.019 160.932 136.852 160.876 136.694 160.799ZM138.315 160.03C138.4 159.988 138.476 159.928 138.536 159.853C138.578 159.795 138.605 159.726 138.613 159.654C138.619 159.584 138.599 159.513 138.558 159.455C138.509 159.386 138.444 159.329 138.37 159.289L137.867 159.682C137.787 159.738 137.727 159.817 137.695 159.909C137.695 159.981 137.695 160.036 137.789 160.086C137.863 160.132 137.952 160.149 138.038 160.135C138.137 160.121 138.231 160.085 138.315 160.03Z" fill="white"/>
<path d="M141.909 157.376C141.997 157.434 142.098 157.469 142.203 157.475C142.306 157.477 142.407 157.451 142.496 157.398L143.01 157.099C143.065 157.072 143.125 157.057 143.187 157.055C143.247 157.054 143.306 157.069 143.358 157.099L144.011 157.475C144.031 157.484 144.049 157.497 144.061 157.515C144.074 157.532 144.081 157.553 144.083 157.575C144.082 157.597 144.075 157.618 144.062 157.636C144.049 157.653 144.032 157.667 144.011 157.674L143.397 158.028C143.199 158.148 142.985 158.239 142.761 158.299C142.541 158.36 142.314 158.393 142.086 158.399C141.86 158.407 141.633 158.385 141.412 158.333C141.19 158.283 140.977 158.199 140.781 158.084L139.675 157.459L139.199 157.735C139.144 157.761 139.084 157.774 139.022 157.774C138.963 157.774 138.904 157.761 138.851 157.735L138.198 157.354C138.178 157.347 138.159 157.333 138.147 157.315C138.134 157.298 138.127 157.276 138.127 157.254C138.127 157.232 138.134 157.211 138.147 157.193C138.159 157.175 138.178 157.162 138.198 157.155L138.674 156.878L137.623 156.27C137.602 156.263 137.584 156.249 137.571 156.231C137.559 156.214 137.552 156.192 137.552 156.17C137.552 156.148 137.559 156.127 137.571 156.109C137.584 156.091 137.602 156.078 137.623 156.071L138.436 155.601C138.501 155.568 138.575 155.556 138.646 155.567C138.706 155.564 138.765 155.578 138.818 155.606L139.869 156.214L140.599 155.794C140.653 155.764 140.714 155.749 140.776 155.75C140.836 155.749 140.895 155.764 140.947 155.794L141.6 156.17C141.621 156.177 141.639 156.191 141.651 156.208C141.664 156.226 141.671 156.248 141.671 156.27C141.671 156.292 141.664 156.313 141.651 156.331C141.639 156.349 141.621 156.362 141.6 156.369L140.87 156.79L141.909 157.376Z" fill="white"/>
<path d="M142.009 154.345C142.03 154.352 142.048 154.365 142.061 154.383C142.074 154.401 142.081 154.423 142.081 154.445C142.081 154.466 142.074 154.488 142.061 154.506C142.048 154.524 142.03 154.537 142.009 154.544L141.196 155.014C141.144 155.044 141.085 155.06 141.025 155.058C140.967 155.055 140.91 155.04 140.859 155.014L140.206 154.638C140.185 154.631 140.167 154.618 140.154 154.6C140.142 154.582 140.135 154.561 140.135 154.539C140.135 154.517 140.142 154.495 140.154 154.477C140.167 154.459 140.185 154.446 140.206 154.439L141.019 153.969C141.073 153.939 141.134 153.923 141.196 153.925C141.256 153.923 141.316 153.939 141.368 153.969L142.009 154.345ZM145.726 156.485C145.745 156.495 145.762 156.51 145.773 156.529C145.785 156.547 145.792 156.569 145.792 156.59C145.791 156.611 145.784 156.632 145.773 156.649C145.761 156.667 145.745 156.681 145.726 156.69L144.907 157.16C144.855 157.188 144.795 157.202 144.736 157.199C144.674 157.202 144.613 157.188 144.559 157.16L141.55 155.423C141.53 155.415 141.512 155.401 141.5 155.383C141.488 155.364 141.482 155.343 141.482 155.321C141.482 155.299 141.488 155.278 141.5 155.26C141.512 155.241 141.53 155.227 141.55 155.219L142.363 154.749C142.418 154.721 142.479 154.708 142.54 154.71C142.6 154.707 142.659 154.72 142.712 154.749L145.726 156.485Z" fill="white"/>
<path d="M149.912 154.069C149.933 154.076 149.951 154.089 149.964 154.107C149.977 154.125 149.984 154.146 149.984 154.168C149.984 154.19 149.977 154.211 149.964 154.229C149.951 154.247 149.933 154.261 149.912 154.268L149.099 154.738C149.047 154.768 148.988 154.783 148.928 154.782C148.866 154.783 148.805 154.768 148.751 154.738L147.119 153.798C146.942 153.693 146.744 153.631 146.539 153.615C146.329 153.605 146.121 153.657 145.941 153.764C145.748 153.875 145.665 153.991 145.687 154.107C145.713 154.182 145.754 154.25 145.808 154.307C145.863 154.365 145.929 154.409 146.002 154.439L147.634 155.385C147.654 155.392 147.673 155.405 147.685 155.423C147.698 155.441 147.705 155.462 147.705 155.484C147.705 155.506 147.698 155.528 147.685 155.546C147.673 155.563 147.654 155.577 147.634 155.584L146.821 156.054C146.769 156.084 146.709 156.1 146.649 156.098C146.587 156.099 146.526 156.084 146.472 156.054L143.464 154.317C143.443 154.31 143.425 154.297 143.412 154.279C143.399 154.261 143.392 154.24 143.392 154.218C143.392 154.196 143.399 154.174 143.412 154.157C143.425 154.139 143.443 154.125 143.464 154.118L144.243 153.665C144.298 153.636 144.359 153.623 144.42 153.626C144.48 153.623 144.539 153.636 144.592 153.665L144.741 153.753C144.735 153.702 144.735 153.65 144.741 153.598C144.748 153.534 144.769 153.472 144.802 153.416C144.85 153.344 144.906 153.277 144.968 153.217C145.061 153.134 145.163 153.062 145.272 153.001C145.478 152.884 145.697 152.791 145.925 152.725C146.157 152.658 146.397 152.625 146.638 152.625C146.89 152.621 147.141 152.653 147.385 152.719C147.65 152.796 147.904 152.905 148.142 153.045L149.912 154.069Z" fill="white"/>
<path d="M152.854 153.095C152.99 153.026 153.101 152.916 153.17 152.78C153.219 152.664 153.17 152.564 153.02 152.476L152.567 152.216C152.572 152.265 152.572 152.315 152.567 152.365C152.565 152.425 152.549 152.483 152.523 152.536C152.48 152.609 152.426 152.675 152.362 152.73C152.264 152.817 152.156 152.893 152.041 152.957C151.628 153.192 151.162 153.319 150.686 153.327C150.43 153.331 150.174 153.305 149.923 153.25C149.653 153.188 149.392 153.09 149.149 152.957L148.911 152.83L148.69 152.691C148.49 152.58 148.317 152.427 148.181 152.243C148.084 152.117 148.035 151.96 148.043 151.801C148.06 151.647 148.124 151.503 148.225 151.386C148.357 151.238 148.512 151.113 148.684 151.016C148.814 150.942 148.949 150.88 149.088 150.828C149.207 150.786 149.329 150.754 149.453 150.733C149.553 150.713 149.655 150.702 149.757 150.7H150.001L149.851 150.612C149.83 150.605 149.812 150.591 149.8 150.574C149.787 150.556 149.78 150.534 149.78 150.512C149.78 150.49 149.787 150.469 149.8 150.451C149.812 150.433 149.83 150.42 149.851 150.413L150.603 149.981C150.655 149.951 150.715 149.936 150.775 149.937C150.837 149.936 150.898 149.951 150.952 149.981L154.093 151.795C154.296 151.898 154.469 152.05 154.597 152.238C154.643 152.307 154.676 152.384 154.692 152.466C154.708 152.548 154.708 152.632 154.691 152.713C154.649 152.898 154.552 153.065 154.414 153.195C154.228 153.376 154.018 153.53 153.789 153.654C153.495 153.833 153.176 153.969 152.843 154.057C152.58 154.13 152.309 154.169 152.036 154.174C151.827 154.178 151.619 154.154 151.416 154.102C151.272 154.07 151.133 154.019 151.002 153.952C150.952 153.952 150.924 153.897 150.93 153.853C150.932 153.831 150.94 153.811 150.953 153.794C150.965 153.776 150.982 153.762 151.002 153.753L151.842 153.267C151.942 153.213 152.059 153.199 152.169 153.228C152.264 153.242 152.361 153.242 152.456 153.228C152.596 153.21 152.732 153.165 152.854 153.095ZM149.929 152.061C149.974 152.098 150.022 152.131 150.072 152.16L150.244 152.243C150.416 152.328 150.605 152.371 150.797 152.371C150.992 152.367 151.183 152.312 151.35 152.21C151.527 152.111 151.61 152.006 151.604 151.895C151.602 151.837 151.586 151.781 151.558 151.73C151.53 151.679 151.491 151.635 151.444 151.602C151.32 151.507 151.185 151.429 151.04 151.37C150.882 151.305 150.713 151.273 150.543 151.275C150.348 151.275 150.156 151.329 149.99 151.43C149.807 151.535 149.713 151.646 149.719 151.757C149.725 151.821 149.748 151.882 149.785 151.935C149.822 151.989 149.871 152.032 149.929 152.061Z" fill="white"/>
<path d="M155.874 150.629C155.895 150.636 155.913 150.649 155.926 150.667C155.938 150.685 155.945 150.706 155.945 150.728C155.945 150.75 155.938 150.771 155.926 150.789C155.913 150.807 155.895 150.821 155.874 150.828L155.028 151.314C154.976 151.345 154.916 151.36 154.856 151.359C154.794 151.36 154.733 151.345 154.679 151.314L153.833 150.828C153.812 150.821 153.794 150.807 153.781 150.789C153.769 150.771 153.762 150.75 153.762 150.728C153.762 150.706 153.769 150.685 153.781 150.667C153.794 150.649 153.812 150.636 153.833 150.629L154.679 150.136C154.734 150.108 154.795 150.095 154.856 150.098C154.916 150.095 154.975 150.108 155.028 150.136L155.874 150.629Z" fill="white"/>
<path d="M157.727 149.555C157.747 149.564 157.765 149.577 157.777 149.595C157.79 149.613 157.797 149.633 157.799 149.655C157.798 149.678 157.791 149.7 157.779 149.718C157.766 149.737 157.748 149.751 157.727 149.76L156.881 150.247C156.828 150.275 156.769 150.288 156.709 150.285C156.648 150.288 156.587 150.275 156.532 150.247L155.686 149.76C155.666 149.752 155.649 149.738 155.636 149.719C155.624 149.701 155.618 149.68 155.618 149.658C155.618 149.636 155.624 149.614 155.636 149.596C155.649 149.578 155.666 149.564 155.686 149.555L156.532 149.069C156.587 149.041 156.648 149.026 156.709 149.024C156.77 149.023 156.829 149.038 156.881 149.069L157.727 149.555Z" fill="white"/>
<path d="M159.58 148.488C159.601 148.495 159.619 148.509 159.631 148.526C159.644 148.544 159.651 148.566 159.651 148.588C159.651 148.61 159.644 148.631 159.631 148.649C159.619 148.667 159.601 148.68 159.58 148.687L158.734 149.174C158.682 149.204 158.622 149.22 158.562 149.218C158.5 149.219 158.439 149.204 158.385 149.174L157.539 148.687C157.52 148.678 157.504 148.664 157.493 148.646C157.482 148.629 157.477 148.608 157.477 148.588C157.477 148.567 157.482 148.547 157.493 148.529C157.504 148.511 157.52 148.497 157.539 148.488L158.385 147.996C158.441 147.97 158.501 147.957 158.562 147.957C158.622 147.954 158.681 147.968 158.734 147.996L159.58 148.488Z" fill="white"/>
<path d="M67.3846 91.0419C67.4316 91.06 67.4719 91.0918 67.5004 91.1333C67.5289 91.1748 67.5441 91.2239 67.5441 91.2742C67.5441 91.3245 67.5289 91.3736 67.5004 91.4151C67.4719 91.4566 67.4316 91.4884 67.3846 91.5065C67.2603 91.5692 67.1229 91.6019 66.9837 91.6019C66.8444 91.6019 66.707 91.5692 66.5827 91.5065C66.5332 91.491 66.4899 91.4602 66.4592 91.4184C66.4284 91.3766 66.4119 91.3261 66.4119 91.2742C66.4119 91.2223 66.4284 91.1718 66.4592 91.13C66.4899 91.0882 66.5332 91.0574 66.5827 91.0419C66.707 90.9792 66.8444 90.9465 66.9837 90.9465C67.1229 90.9465 67.2603 90.9792 67.3846 91.0419Z" fill="#FAFAFA"/>
<path d="M65.9302 90.6657C65.5265 90.898 65.3771 91.2188 65.5596 91.5229C65.5877 91.5577 65.6246 91.5842 65.6664 91.5998C65.7083 91.6153 65.7535 91.6193 65.7975 91.6114C65.9302 91.6114 66.0187 91.5285 65.98 91.451C65.8694 91.2464 65.98 91.0086 66.2399 90.8482C66.5611 90.6806 66.9299 90.6279 67.2852 90.6989C67.4179 90.6989 67.5507 90.6989 67.5672 90.5883C67.5672 90.5274 67.5119 90.4721 67.4124 90.45C66.908 90.3567 66.387 90.4325 65.9302 90.6657Z" fill="#FAFAFA"/>
<path d="M65.2941 90.3063C64.6913 90.6548 64.4811 91.1359 64.647 91.5839C64.6744 91.623 64.7123 91.6536 64.7563 91.6722C64.8004 91.6908 64.8487 91.6966 64.8959 91.689C65.0286 91.689 65.1116 91.6116 65.0839 91.5341C64.9401 91.1746 65.1171 90.7764 65.6038 90.4944C66.1607 90.2084 66.7931 90.104 67.4123 90.1957C67.5395 90.1957 67.6612 90.1625 67.6778 90.0851C67.6778 90.0187 67.6169 89.9579 67.5008 89.9413C66.7452 89.8335 65.9747 89.961 65.2941 90.3063Z" fill="#FAFAFA"/>
<path d="M21.6578 117.804C21.666 117.809 21.6728 117.815 21.6775 117.823C21.6823 117.831 21.6848 117.839 21.6848 117.849C21.6848 117.858 21.6823 117.867 21.6775 117.875C21.6728 117.882 21.666 117.889 21.6578 117.893L21.5417 117.959C21.5163 117.966 21.4897 117.966 21.4643 117.959C21.4407 117.966 21.4159 117.966 21.3924 117.959L19.8493 117.069L19.7443 117.528C19.7443 117.528 19.7443 117.561 19.7056 117.572H19.6226H19.4733C19.4498 117.579 19.4248 117.579 19.4014 117.572C19.4014 117.572 19.4014 117.539 19.4014 117.522L19.5396 116.914C19.5418 116.907 19.5453 116.9 19.5501 116.895C19.5548 116.889 19.5607 116.884 19.5673 116.881L19.606 116.848L19.7221 116.787C19.7472 116.778 19.7745 116.778 19.7996 116.787C19.8227 116.778 19.8483 116.778 19.8715 116.787L21.6578 117.804Z" fill="#FAFAFA"/>
<path d="M21.077 116.709C21.1003 116.701 21.1256 116.701 21.1489 116.709C21.1743 116.703 21.2009 116.703 21.2263 116.709L21.4144 116.814C21.4174 116.821 21.419 116.829 21.419 116.837C21.419 116.844 21.4174 116.852 21.4144 116.859C21.4183 116.865 21.4203 116.873 21.4203 116.881C21.4203 116.889 21.4183 116.896 21.4144 116.903L21.2263 117.014C21.2027 117.019 21.1781 117.019 21.1544 117.014C21.1295 117.023 21.102 117.023 21.077 117.014L20.889 116.908C20.8772 116.908 20.866 116.904 20.8577 116.896C20.8494 116.887 20.8447 116.876 20.8447 116.864C20.8447 116.852 20.8494 116.841 20.8577 116.833C20.866 116.825 20.8772 116.82 20.889 116.82L21.077 116.709ZM22.0559 117.262C22.0791 117.253 22.1047 117.253 22.1278 117.262C22.1532 117.256 22.1798 117.256 22.2053 117.262L22.3878 117.368C22.397 117.371 22.4052 117.377 22.4111 117.385C22.417 117.392 22.4204 117.402 22.4209 117.412C22.424 117.419 22.4256 117.426 22.4256 117.434C22.4256 117.441 22.424 117.449 22.4209 117.456L22.2329 117.567C22.2074 117.572 22.181 117.572 22.1555 117.567C22.1323 117.576 22.1067 117.576 22.0836 117.567L21.8955 117.462C21.8863 117.458 21.8781 117.452 21.8722 117.444C21.8663 117.437 21.8629 117.427 21.8624 117.417C21.8624 117.417 21.8624 117.417 21.8955 117.373L22.0559 117.262Z" fill="#FAFAFA"/>
<path d="M23.7649 116.671C23.7416 116.679 23.7163 116.679 23.693 116.671C23.6676 116.677 23.641 116.677 23.6155 116.671L23.2284 116.444L22.3546 116.953C22.3291 116.958 22.3026 116.958 22.2771 116.953C22.2517 116.959 22.2251 116.959 22.1997 116.953L22.1002 116.892L22.0614 116.859C22.0583 116.844 22.0583 116.829 22.0614 116.814L21.7849 115.636C21.7794 115.618 21.7794 115.599 21.7849 115.581C21.7849 115.581 21.7849 115.581 21.8236 115.537L21.9342 115.471C21.9597 115.464 21.9863 115.464 22.0117 115.471C22.0372 115.465 22.0636 115.465 22.0891 115.471L23.2561 116.145L23.4939 116.007C23.5193 116.001 23.5459 116.001 23.5713 116.007C23.5948 116.001 23.6197 116.001 23.6432 116.007L23.7483 116.068C23.7517 116.075 23.7535 116.082 23.7535 116.09C23.7535 116.098 23.7517 116.105 23.7483 116.112C23.7483 116.112 23.7483 116.14 23.7483 116.151L23.5049 116.289L23.8921 116.516C23.9014 116.518 23.9094 116.524 23.9145 116.533C23.9196 116.541 23.9215 116.551 23.9197 116.56C23.9197 116.56 23.9197 116.56 23.8921 116.604L23.7649 116.671ZM22.9795 116.306L22.1887 115.852L22.3712 116.654L22.9795 116.306Z" fill="#FAFAFA"/>
<path d="M24.2683 115.841L24.3955 115.869H24.5503C24.6141 115.862 24.6771 115.849 24.7384 115.83C24.8213 115.799 24.901 115.76 24.9762 115.714C25.0295 115.687 25.078 115.651 25.12 115.609C25.1537 115.577 25.1784 115.537 25.1919 115.493C25.2025 115.455 25.2025 115.414 25.1919 115.376C25.1625 115.329 25.1203 115.291 25.0702 115.266C25.0131 115.229 24.9491 115.205 24.8822 115.194C24.8179 115.186 24.7528 115.186 24.6886 115.194C24.6241 115.203 24.5609 115.22 24.5005 115.244C24.4349 115.266 24.3718 115.296 24.3125 115.332L24.0802 115.465C24.0566 115.471 24.032 115.471 24.0083 115.465C23.9829 115.471 23.9563 115.471 23.9309 115.465L23.8313 115.404C23.8166 115.398 23.8048 115.386 23.7982 115.371C23.7982 115.371 23.7982 115.343 23.7982 115.332L23.7594 114.729L22.952 115.194C22.9266 115.2 22.9 115.2 22.8746 115.194C22.8509 115.2 22.8263 115.2 22.8027 115.194L22.7031 115.133C22.7031 115.133 22.6699 115.133 22.6699 115.089C22.6699 115.045 22.6699 115.061 22.7031 115.05L23.8092 114.414C23.8328 114.408 23.8576 114.408 23.8811 114.414H23.9585L24.0581 114.469C24.0735 114.478 24.0853 114.492 24.0913 114.508C24.0968 114.522 24.0968 114.538 24.0913 114.552L24.13 115.15C24.2239 115.097 24.3243 115.056 24.4286 115.028C24.5305 114.995 24.6369 114.979 24.7439 114.978C24.8448 114.964 24.9472 114.964 25.0481 114.978C25.1476 114.999 25.2429 115.037 25.3301 115.089C25.4109 115.132 25.4808 115.192 25.5348 115.266C25.5714 115.325 25.5852 115.396 25.5735 115.465C25.5598 115.538 25.5252 115.605 25.4739 115.659C25.406 115.731 25.3277 115.792 25.2416 115.841C25.1277 115.911 25.0049 115.964 24.8766 116.001C24.7666 116.034 24.6536 116.054 24.5393 116.062C24.4421 116.076 24.3433 116.076 24.2461 116.062C24.1687 116.046 24.0942 116.018 24.0249 115.979C24.022 115.974 24.0205 115.969 24.0205 115.963C24.0205 115.957 24.022 115.951 24.0249 115.946C24.0249 115.946 24.0249 115.918 24.0249 115.913L24.1521 115.836C24.1739 115.83 24.1967 115.83 24.2185 115.836L24.2683 115.841Z" fill="#FAFAFA"/>
<path d="M62.9658 93.9509L62.6173 94.1556C62.5981 94.1638 62.5774 94.168 62.5565 94.168C62.5356 94.168 62.5149 94.1638 62.4957 94.1556L61.9426 93.8237C61.9338 93.8237 61.9254 93.8203 61.9191 93.814C61.9129 93.8078 61.9094 93.7994 61.9094 93.7906C61.9094 93.7817 61.9129 93.7733 61.9191 93.7671C61.9254 93.7609 61.9338 93.7574 61.9426 93.7574L62.291 93.5527C62.3103 93.5445 62.331 93.5403 62.3519 93.5403C62.3728 93.5403 62.3935 93.5445 62.4127 93.5527L62.9658 93.8846C63.0045 93.9012 63.0045 93.9344 62.9658 93.9509Z" fill="#FAFAFA"/>
<path d="M63.6959 93.5361L63.3419 93.7352C63.3245 93.746 63.3044 93.7517 63.2838 93.7517C63.2633 93.7517 63.2432 93.746 63.2258 93.7352L62.3298 93.2209C62.2966 93.2209 62.2966 93.1711 62.3298 93.149L62.6782 92.9499C62.6967 92.9392 62.7177 92.9336 62.7391 92.9336C62.7604 92.9336 62.7814 92.9392 62.7999 92.9499L63.6959 93.4642C63.7291 93.4808 63.7291 93.514 63.6959 93.5361Z" fill="#FAFAFA"/>
<path d="M64.4203 93.1158L64.0719 93.315C64.0534 93.3256 64.0324 93.3313 64.011 93.3313C63.9897 93.3313 63.9687 93.3256 63.9502 93.315L62.7058 92.6015C62.6726 92.6015 62.6726 92.5517 62.7058 92.5296L63.0542 92.3305C63.0727 92.3198 63.0937 92.3142 63.1151 92.3142C63.1364 92.3142 63.1574 92.3198 63.1759 92.3305L64.4203 93.044C64.4535 93.0716 64.4535 93.0716 64.4203 93.1158Z" fill="#FAFAFA"/>
<path d="M65.1448 92.6956L64.7964 92.9002C64.7772 92.9084 64.7565 92.9126 64.7356 92.9126C64.7147 92.9126 64.694 92.9084 64.6747 92.9002L63.0764 91.9655C63.0432 91.9655 63.0432 91.9157 63.0764 91.8936L63.4248 91.6945C63.4433 91.6838 63.4643 91.6782 63.4857 91.6782C63.507 91.6782 63.528 91.6838 63.5465 91.6945L65.1448 92.6181C65.1551 92.6181 65.165 92.6222 65.1722 92.6295C65.1795 92.6367 65.1836 92.6466 65.1836 92.6568C65.1836 92.6671 65.1795 92.677 65.1722 92.6842C65.165 92.6915 65.1551 92.6956 65.1448 92.6956Z" fill="#FAFAFA"/>
<path d="M70.5428 87.5409L68.0983 88.9512C68.0546 88.9672 68.017 88.9962 67.9903 89.0343C67.9637 89.0724 67.9495 89.1177 67.9495 89.1642C67.9495 89.2106 67.9637 89.256 67.9903 89.294C68.017 89.3321 68.0546 89.3611 68.0983 89.3771L69.138 89.9799C69.2542 90.037 69.3819 90.0667 69.5113 90.0667C69.6408 90.0667 69.7685 90.037 69.8846 89.9799L72.3236 88.5696C72.5283 88.448 72.5283 88.2544 72.3236 88.1382L71.2894 87.5409C71.1741 87.4808 71.0461 87.4495 70.9161 87.4495C70.7861 87.4495 70.658 87.4808 70.5428 87.5409ZM72.2019 88.1991C72.3513 88.282 72.3513 88.4203 72.2019 88.5088L69.7574 89.9191C69.6721 89.9637 69.5772 89.987 69.4809 89.987C69.3846 89.987 69.2897 89.9637 69.2044 89.9191L68.1646 89.3163C68.1327 89.3056 68.105 89.2852 68.0854 89.2579C68.0657 89.2306 68.0551 89.1978 68.0551 89.1642C68.0551 89.1305 68.0657 89.0978 68.0854 89.0705C68.105 89.0432 68.1327 89.0228 68.1646 89.0121L70.6091 87.6018C70.6932 87.5532 70.7886 87.5277 70.8857 87.5277C70.9827 87.5277 71.0781 87.5532 71.1622 87.6018L72.2019 88.1991ZM69.4367 88.4811L68.3637 89.1006C68.3521 89.1067 68.3424 89.1158 68.3357 89.127C68.3289 89.1382 68.3253 89.1511 68.3253 89.1642C68.3253 89.1773 68.3289 89.1901 68.3357 89.2013C68.3424 89.2125 68.3521 89.2217 68.3637 89.2278L69.4035 89.8251C69.437 89.8417 69.4739 89.8503 69.5113 89.8503C69.5487 89.8503 69.5856 89.8417 69.6192 89.8251L70.6921 89.2057C70.7039 89.2005 70.714 89.192 70.7211 89.1812C70.7282 89.1704 70.7319 89.1577 70.7319 89.1448C70.7319 89.1319 70.7282 89.1193 70.7211 89.1085C70.714 89.0976 70.7039 89.0891 70.6921 89.084L69.6523 88.4811C69.6191 88.4641 69.5825 88.4547 69.5451 88.4538C69.5078 88.4528 69.4707 88.4603 69.4367 88.4756V88.4811ZM71.8037 87.5244L71.6489 87.6128L72.3015 87.9889L72.4508 87.9004C72.5338 87.8451 72.484 87.74 72.3457 87.6571L72.213 87.5797C72.152 87.543 72.0836 87.5205 72.0128 87.5138C71.9419 87.5071 71.8705 87.5164 71.8037 87.5409V87.5244Z" fill="#FAFAFA"/>
<path d="M34.1181 100.123L44.0013 94.4156C44.5931 94.0782 44.6207 93.5417 44.0677 93.221C43.7439 93.0651 43.3881 92.9873 43.0288 92.9941C42.6696 93.0008 42.3169 93.0918 41.9992 93.2597L32.1161 98.9673C31.5243 99.3101 31.4966 99.8411 32.0497 100.162C32.3729 100.32 32.729 100.398 33.0886 100.391C33.4481 100.385 33.801 100.293 34.1181 100.123Z" fill="#263238"/>
<path d="M51.075 90.3394C51.1967 90.2994 51.3027 90.222 51.3778 90.1182C51.453 90.0145 51.4934 89.8896 51.4934 89.7615C51.4934 89.6334 51.453 89.5085 51.3778 89.4047C51.3027 89.301 51.1967 89.2235 51.075 89.1835C50.7648 89.0261 50.4218 88.9441 50.074 88.9441C49.7261 88.9441 49.3832 89.0261 49.0729 89.1835C48.9512 89.2235 48.8453 89.301 48.7701 89.4047C48.695 89.5085 48.6545 89.6334 48.6545 89.7615C48.6545 89.8896 48.695 90.0145 48.7701 90.1182C48.8453 90.222 48.9512 90.2994 49.0729 90.3394C49.3832 90.4968 49.7261 90.5789 50.074 90.5789C50.4218 90.5789 50.7648 90.4968 51.075 90.3394Z" fill="#263238"/>
<path d="M55.0847 88.0222C55.2064 87.9822 55.3124 87.9048 55.3875 87.801C55.4627 87.6973 55.5031 87.5724 55.5031 87.4443C55.5031 87.3162 55.4627 87.1913 55.3875 87.0875C55.3124 86.9838 55.2064 86.9063 55.0847 86.8663C54.7738 86.708 54.4298 86.6255 54.0809 86.6255C53.732 86.6255 53.388 86.708 53.0771 86.8663C52.9554 86.9063 52.8494 86.9838 52.7743 87.0875C52.6991 87.1913 52.6587 87.3162 52.6587 87.4443C52.6587 87.5724 52.6991 87.6973 52.7743 87.801C52.8494 87.9048 52.9554 87.9822 53.0771 88.0222C53.388 88.1805 53.732 88.2631 54.0809 88.2631C54.4298 88.2631 54.7738 88.1805 55.0847 88.0222Z" fill="#263238"/>
<path d="M23.0571 106.528C23.1788 106.488 23.2848 106.41 23.3599 106.306C23.4351 106.203 23.4755 106.078 23.4755 105.95C23.4755 105.822 23.4351 105.697 23.3599 105.593C23.2848 105.489 23.1788 105.412 23.0571 105.372C22.7453 105.216 22.4017 105.135 22.0533 105.135C21.7049 105.135 21.3613 105.216 21.0495 105.372C20.9278 105.412 20.8218 105.489 20.7467 105.593C20.6716 105.697 20.6311 105.822 20.6311 105.95C20.6311 106.078 20.6716 106.203 20.7467 106.306C20.8218 106.41 20.9278 106.488 21.0495 106.528C21.3604 106.686 21.7044 106.768 22.0533 106.768C22.4022 106.768 22.7462 106.686 23.0571 106.528Z" fill="#263238"/>
<path d="M27.0335 104.216C27.1552 104.176 27.2612 104.098 27.3363 103.994C27.4115 103.891 27.4519 103.766 27.4519 103.638C27.4519 103.51 27.4115 103.385 27.3363 103.281C27.2612 103.177 27.1552 103.1 27.0335 103.06C26.7233 102.902 26.3803 102.82 26.0325 102.82C25.6846 102.82 25.3417 102.902 25.0314 103.06C24.9097 103.1 24.8037 103.177 24.7286 103.281C24.6535 103.385 24.613 103.51 24.613 103.638C24.613 103.766 24.6535 103.891 24.7286 103.994C24.8037 104.098 24.9097 104.176 25.0314 104.216C25.3417 104.373 25.6846 104.455 26.0325 104.455C26.3803 104.455 26.7233 104.373 27.0335 104.216Z" fill="#263238"/>
<path d="M116.568 123.274L135.013 124.043L113.206 111.422L104.689 116.333L111.724 121.532L116.568 123.274ZM68.2476 114.807L84.2863 105.538L67.6945 96.8435L51.6282 106.124L68.2476 114.807ZM93.7602 136.448L115.086 124.137L110.208 122.384L103.184 117.185L83.3738 128.633C83.6816 128.924 83.9155 129.284 84.0559 129.683C84.1964 130.082 84.2393 130.509 84.1812 130.929L88.8159 134.75L93.7602 136.448ZM85.7906 104.686L93.6441 100.151L77.81 91.0032L69.1767 95.9807L85.7906 104.686ZM102.051 114.265L110.07 109.636L96.1716 101.605L88.5117 106.03L96.8076 110.371L102.051 114.265ZM62.3243 118.247L66.7875 115.67L50.1958 106.976L38.2884 113.85L62.3243 118.247ZM147.8 142.294L157.24 136.846L143.32 128.81L132.259 135.182L142.009 138.666L147.8 142.294ZM113.549 143.24L140.931 127.433L138.646 126.111L117.536 125.005L96.2711 137.283L113.549 143.24ZM140.355 146.591L146.306 143.151L140.566 139.529L130.799 136.061L124.82 139.495L134.57 142.974L140.355 146.591ZM95.3917 160.373L100.922 153.278L92.0015 158.432L95.3917 160.373ZM89.6289 157.055L97.7201 152.404L87.3503 142.449L75.8411 149.085L89.6289 157.055ZM49.8916 134.114L57.5459 129.69L60.8034 119.099L36.7619 114.674L26.5193 120.586L49.8916 134.114ZM112.282 155.855L113.759 155.014L119.494 158.653L130.063 152.57C129.478 151.959 129.117 151.167 129.04 150.324L125.373 148.3L115.468 144.904L105.601 150.59L97.3828 161.524L105.939 166.463L118.017 159.494L112.282 155.855ZM129.427 148.892C129.712 148.468 130.09 148.116 130.533 147.863C132.413 146.757 135.511 146.807 138.276 147.786L138.829 147.454L133.116 143.837L123.365 140.358L116.944 144.058L126.85 147.459L129.427 148.892ZM99.1857 151.535L112.1 144.102L94.7668 138.146L88.8103 141.586L99.1857 151.535ZM81.3772 131.454C82.6161 130.74 82.2676 129.385 80.6085 128.434C78.9493 127.483 76.5988 127.284 75.3655 127.992C74.1321 128.7 74.4916 130.055 76.1508 131.011C77.81 131.968 80.1439 132.167 81.3772 131.454ZM58.7848 139.247L73.0647 130.995L71.483 129.612L68.4412 127.223L62.7391 126.427L61.0191 131.023L52.7785 135.784L58.7848 139.247ZM73.8446 147.946L92.3333 137.272L87.4664 135.524L83.501 132.018C83.3436 132.158 83.1711 132.281 82.9866 132.383C81.4436 133.273 78.8553 133.301 76.4937 132.604L61.8874 141.044L73.8446 147.946ZM84.5186 124.38L100.557 115.117L95.2922 111.245L86.9963 106.904L70.9576 116.173L79.2535 120.509L84.5186 124.38ZM72.6389 128.346C72.8501 127.796 73.2582 127.345 73.7837 127.079C75.3212 126.189 77.8985 126.145 80.26 126.841L83.0253 125.249L77.7657 121.377L69.4699 117.036L65.3772 119.397L63.165 125.221L69.5473 126.106L72.6389 128.346Z" fill="#F0F0F0"/>
<path d="M63.519 131.531L55.7374 136.028L58.3534 137.538L70.2552 130.68L69.1491 129.706L66.7488 127.826L64.9956 127.583L63.519 131.531ZM58.0326 119.453L38.1999 115.83L29.4727 120.863L49.4713 132.411L55.0295 129.203L58.0326 119.453ZM76.3278 125.481C77.1946 125.497 78.0592 125.571 78.9161 125.702L80.1771 124.972L75.5978 121.554L70.0672 118.651L67.9379 119.884L66.1073 124.756L73.3911 125.763C74.3568 125.563 75.3416 125.468 76.3278 125.481ZM63.7623 115.448L50.7101 108.613L41.9497 113.668L60.8643 117.13L63.7623 115.448ZM120.174 144.141L125.81 146.082L128.647 147.039C130.296 146.37 132.075 146.079 133.851 146.187C134.028 146.187 134.205 146.187 134.405 146.187L131.263 144.202L124.317 141.741L120.174 144.141ZM77.8653 133.766L64.8463 141.282L73.4298 146.259L89.1256 137.195L85.3537 135.84L83.0475 133.793C82.1982 133.939 81.3373 134.006 80.4758 133.992C79.5996 133.977 78.7256 133.901 77.8598 133.766H77.8653ZM116.469 146.281L108.051 151.143L100.143 161.651L105.513 164.754L115.097 159.223L109.334 155.595L113.444 153.222L119.184 156.861L127.309 152.166C126.947 151.709 126.683 151.181 126.535 150.617C126.535 150.518 126.49 150.413 126.474 150.308L123.598 148.743L116.469 146.281ZM91.6088 141.923L99.4401 149.445L108.842 144.019L95.7678 139.529L91.6088 141.923ZM81.3109 105.322L68.2421 98.4805L54.6258 106.345L67.7056 113.175L81.3109 105.322ZM92.7426 135.104L111.862 124.043L108.228 122.732L103.278 119.065L86.1059 129.02C86.3908 129.389 86.5995 129.81 86.7198 130.259C86.7887 130.524 86.8093 130.8 86.7806 131.072L90.8733 134.446L92.7426 135.104ZM144.055 138.384L147.479 140.557L154.265 136.642L143.757 130.558L135.505 135.32L144.055 138.384ZM85.2486 103.027L90.6907 99.8853L78.2414 92.6956L72.1909 96.1854L85.2486 103.027ZM101.957 112.346L107.122 109.387L96.614 103.303L91.5314 106.24L98.959 110.111L101.957 112.346ZM113.737 121.195L117.193 122.428L130.694 122.981L113.604 113.114L107.52 116.615L113.737 121.195ZM112.553 141.851L137.994 127.179L137.474 126.875L119.289 125.945L99.4899 137.372L112.553 141.851Z" fill="#E0E0E0"/>
<path d="M89.2085 155.352L94.905 152.061L87.0681 144.539L78.7722 149.329L89.2085 155.352ZM79.9834 130.68C80.6471 130.298 80.4535 129.574 79.5742 129.059C78.6948 128.545 77.4283 128.44 76.7591 128.821C76.0899 129.203 76.2835 129.927 77.1794 130.442C78.0754 130.956 79.3253 131.034 79.9834 130.68ZM84.4079 122.516L97.6813 114.851L93.0854 111.45L87.5548 108.552L73.9717 116.4L81.4048 120.271L84.4079 122.516ZM140.035 144.855L143.353 142.924L138.657 139.949L131.728 137.477L128.022 139.623L136.766 142.797L140.035 144.855Z" fill="#D96431"/>
<path d="M114.174 144.55C114.152 144.556 114.129 144.556 114.107 144.55L94.3353 137.626L87.1455 135.043C87.1166 135.032 87.0903 135.015 87.0681 134.993L82.8538 131.05C82.8168 131.01 82.7963 130.958 82.7963 130.904C82.7963 130.849 82.8168 130.797 82.8538 130.757C83.4068 130.06 82.0906 128.296 81.5928 127.737C81.5716 127.713 81.5562 127.685 81.5475 127.655C81.5389 127.624 81.5374 127.592 81.543 127.56C81.5472 127.529 81.5582 127.498 81.5754 127.472C81.5927 127.445 81.6156 127.422 81.6426 127.405L84.8061 125.542L79.093 121.372L69.0384 116.029C69.0052 116.01 68.9777 115.983 68.9583 115.95C68.9389 115.917 68.9284 115.879 68.9278 115.841C68.9273 115.803 68.9367 115.766 68.9551 115.733C68.9736 115.7 69.0004 115.672 69.0328 115.653L86.1777 105.847L76.9029 100.997C76.8777 100.984 76.8555 100.965 76.8374 100.943C76.8193 100.921 76.8058 100.896 76.7976 100.869C76.7894 100.841 76.7866 100.813 76.7895 100.785C76.7924 100.756 76.8008 100.729 76.8144 100.704C76.8272 100.679 76.8449 100.657 76.8663 100.639C76.8878 100.621 76.9127 100.607 76.9395 100.599C76.9663 100.591 76.9945 100.588 77.0224 100.591C77.0503 100.593 77.0773 100.602 77.102 100.615L86.7252 105.648C86.7583 105.668 86.7862 105.695 86.8064 105.728C86.8267 105.761 86.8386 105.798 86.8413 105.836C86.8407 105.874 86.8302 105.912 86.8108 105.945C86.7914 105.978 86.7638 106.005 86.7307 106.024L69.5859 115.83L79.3253 121.012L85.3259 125.387C85.3553 125.407 85.3789 125.434 85.3944 125.466C85.4099 125.498 85.4168 125.534 85.4144 125.569C85.4131 125.605 85.4027 125.64 85.3844 125.671C85.366 125.702 85.3402 125.728 85.3094 125.746L82.085 127.649C82.5717 128.235 83.794 129.861 83.3018 130.857L87.3557 134.651L94.4846 137.222L114.162 144.113L124.953 137.969C125.002 137.944 125.059 137.94 125.112 137.956C125.165 137.973 125.209 138.009 125.236 138.057C125.263 138.105 125.271 138.162 125.257 138.216C125.243 138.269 125.21 138.316 125.163 138.345L114.312 144.506C114.273 144.538 114.224 144.554 114.174 144.55Z" fill="#D96431"/>
<path d="M125.788 137.72C125.876 137.75 125.952 137.808 126.006 137.883C126.06 137.959 126.089 138.05 126.089 138.143C126.089 138.236 126.06 138.327 126.006 138.403C125.952 138.478 125.876 138.536 125.788 138.566C125.561 138.683 125.31 138.745 125.055 138.745C124.8 138.745 124.549 138.683 124.322 138.566C124.232 138.538 124.152 138.482 124.096 138.406C124.04 138.33 124.009 138.238 124.009 138.143C124.009 138.048 124.04 137.956 124.096 137.88C124.152 137.804 124.232 137.748 124.322 137.72C124.55 137.605 124.801 137.545 125.055 137.545C125.31 137.545 125.561 137.605 125.788 137.72Z" fill="#BA68C8"/>
<path d="M76.9802 101.389C77.5544 101.389 78.0199 101.122 78.0199 100.792C78.0199 100.462 77.5544 100.195 76.9802 100.195C76.4059 100.195 75.9404 100.462 75.9404 100.792C75.9404 101.122 76.4059 101.389 76.9802 101.389Z" fill="#BA68C8"/>
<path d="M127.746 129.612C127.746 127.782 126.54 126.996 125.052 127.854C124.253 128.396 123.593 129.12 123.126 129.966C122.659 130.811 122.398 131.755 122.364 132.72V133.135C122.364 134.546 123.957 136.183 124.693 136.857C124.734 136.893 124.782 136.918 124.834 136.932C124.887 136.946 124.941 136.948 124.995 136.938C125.048 136.928 125.098 136.906 125.141 136.874C125.185 136.842 125.221 136.8 125.246 136.752C125.882 135.453 127.729 131.548 127.729 130.033L127.746 129.612ZM125.052 132.61C124.261 133.069 123.625 132.698 123.625 131.786C123.651 131.29 123.794 130.808 124.042 130.378C124.29 129.949 124.636 129.584 125.052 129.314C125.843 128.855 126.479 129.225 126.479 130.138C126.453 130.633 126.311 131.116 126.063 131.545C125.815 131.975 125.468 132.34 125.052 132.61Z" fill="#455A64"/>
<path d="M79.4692 92.5627C79.4692 90.7321 78.2635 89.9468 76.7813 90.804C75.9815 91.3466 75.3209 92.07 74.8529 92.9156C74.3849 93.7612 74.1229 94.7051 74.0879 95.6709V96.0857C74.0879 97.496 75.6807 99.1331 76.4163 99.8078C76.4577 99.8422 76.5061 99.867 76.5582 99.8804C76.6103 99.8938 76.6647 99.8956 76.7176 99.8856C76.7704 99.8755 76.8204 99.8539 76.8639 99.8223C76.9074 99.7907 76.9434 99.7499 76.9693 99.7027C77.5998 98.403 79.447 94.4929 79.447 92.9775L79.4692 92.5627ZM76.7758 95.5603C75.9904 96.0138 75.3489 95.6488 75.3489 94.7363C75.3759 94.2411 75.5192 93.7593 75.7671 93.3298C76.0149 92.9003 76.3605 92.5352 76.7758 92.2641C77.5666 91.8051 78.2082 92.1756 78.2082 93.0882C78.1805 93.5838 78.0364 94.066 77.7875 94.4955C77.5387 94.925 77.192 95.2898 76.7758 95.5603Z" fill="#455A64"/>
<path opacity="0.2" d="M141.111 88.0758C141.111 88.0758 121.842 79.6306 119.132 77.9714C117.025 76.669 115.032 75.1888 113.176 73.5469C112.275 72.6731 112.501 75.5822 117.235 78.2314C123.612 81.8428 141.111 88.0758 141.111 88.0758Z" fill="white"/>
<path d="M112.07 67.856C112.07 68.6911 111.992 69.8415 111.915 71.3513C111.73 72.9801 112.132 74.6214 113.049 75.9804C113.849 77.1569 114.911 78.1319 116.151 78.8287C125.686 84.6966 147.891 91.0789 147.891 91.0789L146.879 91.632L120.366 88.6731L108.823 81.0907L108.53 68.6026L110.322 67.6514L112.07 67.856Z" fill="#37474F"/>
<path d="M108.53 68.6027V69.2387C108.735 69.9568 109.152 70.5965 109.725 71.0749C110.019 71.2563 110.358 71.3521 110.704 71.3514C111.34 71.3514 111.893 71.0251 111.926 70.5052C111.926 70.367 111.926 70.2287 111.926 70.0904C111.987 69.106 112.009 68.4313 112.009 67.8782L110.283 67.6736L108.53 68.6027Z" fill="#BA68C8"/>
<path opacity="0.3" d="M108.53 68.6027V69.2387C108.735 69.9568 109.152 70.5965 109.725 71.0749C110.019 71.2563 110.358 71.3521 110.704 71.3514C111.34 71.3514 111.893 71.0251 111.926 70.5052C111.926 70.367 111.926 70.2287 111.926 70.0904C111.987 69.106 112.009 68.4313 112.009 67.8782L110.283 67.6736L108.53 68.6027Z" fill="black"/>
<path d="M146.879 91.6376C147.248 91.5181 147.592 91.3305 147.891 91.0845C147.891 91.0845 136.919 86.0185 120.681 77.529C116.78 75.4272 113.112 72.917 109.741 70.0406C109.741 69.5871 109.741 69.1059 109.741 68.5805C111.008 69.1834 112.927 68.0772 111.766 67.4136C111.273 67.126 109.432 65.3119 103.182 62.9172C101.103 62.1208 98.6138 61.3299 96.0365 60.5943C94.5709 59.7426 93.3708 59.0568 92.497 58.5701C89.4853 56.8328 86.1443 55.7427 82.6875 55.3694C79.2307 54.9961 75.7341 55.3478 72.4209 56.4022C70.5737 56.8612 69.2077 57.995 68.2453 60.2736L38.1257 80.0067L95.218 125.595L107.629 116.304L146.946 91.6763H146.813L146.879 91.6376Z" fill="#D96431"/>
<path opacity="0.2" d="M101.009 64.1947C101.009 64.1947 73.8091 56.1256 71.6964 58.4042C70.2308 59.9638 95.9038 69.8802 95.9038 69.8802L101.009 64.1947Z" fill="#D96431"/>
<path d="M109.686 68.5363L105.085 65.4392L67.1504 86.1457L73.2009 89.6355L73.1898 113.024L109.686 91.9473V68.5363Z" fill="#BA68C8"/>
<path opacity="0.25" d="M109.686 68.5363L105.085 65.4392L66.0828 84.7742L56.4209 86.0462L58.9207 93.7558L73.1897 113.024L109.686 91.9473V68.5363Z" fill="black"/>
<path opacity="0.2" d="M99.0728 61.9329C102.109 62.8676 104.155 63.4483 103.398 63.8631C102.64 64.2779 83.1281 58.9519 79.3231 58.2496C75.5181 57.5472 72.5647 57.2541 77.2934 56.2032C81.5132 55.263 84.2232 55.5617 86.7396 56.4411C89.256 57.3204 94.0013 59.9143 94.0013 59.9143C94.0013 59.9143 81.834 56.9112 81.3528 56.8503C80.8717 56.7895 79.7434 56.8503 82.6083 57.6578C85.4731 58.4653 96.031 60.9706 99.0728 61.9329Z" fill="white"/>
<path opacity="0.3" d="M119.641 104.292C119.641 104.292 119.027 91.7316 118.562 82.2854C121.61 83.845 120.941 82.4126 127.45 84.9235C130.127 85.9577 141.691 90.2992 145.668 91.3887L146.879 91.6376L123.811 106.078L119.641 104.292Z" fill="black"/>
<path d="M32.1249 101.726L47.6051 92.7936L39.005 87.8271L30.6372 93.1144L32.1249 101.726Z" fill="#37474F"/>
<path d="M38.651 99.6072L36.4387 95.1827L41.726 92.1188C43.4128 91.1509 45.6527 91.2616 48.1083 92.6719C53.3347 95.686 57.5656 103.468 57.5656 110.043C57.5656 113.489 56.4042 115.922 54.5514 117.023L54.474 117.067L49.054 120.198L46.6869 115.58C42.2514 112.173 38.8445 105.475 38.651 99.6072Z" fill="#37474F"/>
<path d="M38.651 99.6072L36.4387 95.1827L41.726 92.1188C43.4128 91.1509 45.6527 91.2616 48.1083 92.6719C53.3347 95.686 57.5656 103.468 57.5656 110.043C57.5656 113.489 56.4042 115.922 54.5514 117.023L54.474 117.067L49.054 120.198L46.6869 115.58C42.2514 112.173 38.8445 105.475 38.651 99.6072Z" fill="#263238"/>
<path d="M33.137 102.306C33.137 107.98 36.2894 114.545 40.5037 118.173C41.1491 118.729 41.8433 119.225 42.5777 119.655C47.8041 122.675 52.0405 119.783 52.035 113.207C52.035 108.229 49.6181 102.577 46.1836 98.8273L46.156 98.7996C45.1194 97.6415 43.9128 96.6476 42.5777 95.8518C37.3734 92.8542 33.137 95.7412 33.137 102.306Z" fill="#37474F"/>
<path d="M42.5944 99.8394C39.2761 97.9203 36.5771 99.9223 36.5771 104.308C36.5771 108.694 39.2705 113.804 42.5944 115.723C45.9183 117.642 48.6172 115.646 48.6172 111.26C48.6172 106.874 45.9183 101.753 42.5944 99.8394Z" fill="#455A64"/>
<path d="M39.8843 106.548C40.1 108.76 41.4826 111.056 42.9814 111.736C43.238 111.886 43.5344 111.954 43.8309 111.932C44.1274 111.909 44.4099 111.796 44.6406 111.609C45.1937 111.161 45.4481 110.243 45.3264 109.015C45.1162 106.836 43.7336 104.513 42.2348 103.833C41.8951 103.655 41.5042 103.6 41.1287 103.678C40.2438 103.888 39.7294 104.961 39.8843 106.548Z" fill="#FAFAFA"/>
<path d="M40.4264 106.272C40.6365 108.484 42.0247 110.779 43.518 111.459C43.8594 111.632 44.2491 111.685 44.6241 111.609C45.1771 111.161 45.4316 110.243 45.3099 109.015C45.0997 106.836 43.7171 104.513 42.2183 103.833C41.8786 103.655 41.4877 103.6 41.1122 103.678C40.5812 104.131 40.3047 105.071 40.4264 106.272Z" fill="#E0E0E0"/>
<path d="M33.137 102.306C33.137 107.98 36.2894 114.545 40.5037 118.173C37.5781 114.855 35.5185 110.866 34.5086 106.559C33.7066 102.765 34.0053 97.3229 37.2738 95.9458C40.5424 94.5687 44.8231 97.4667 46.1836 98.7885C45.147 97.6304 43.9405 96.6364 42.6053 95.8407C37.3734 92.8542 33.137 95.7411 33.137 102.306Z" fill="#455A64"/>
<path d="M30.5487 80.2722C32.4679 75.7426 40.4651 71.0416 43.8719 72.745C44.9393 73.2981 47.959 75.1066 51.7641 77.2967C51.7641 77.2967 64.2798 84.8736 65.4357 85.5373C65.4357 85.5373 59.4516 85.4378 58.0966 85.93C57.8969 85.9775 57.7098 86.0673 57.5478 86.1935C57.3859 86.3196 57.253 86.4791 57.1581 86.661C57.0631 86.843 57.0084 87.0433 56.9976 87.2483C56.9869 87.4532 57.0203 87.6581 57.0956 87.8491L57.7758 90.0613C59.3355 97.6438 71.1212 100.735 73.6265 103.55C74.5114 104.546 75.2414 104.9 76.6794 105.729C78.1173 106.559 87.0714 111.559 88.3489 112.294C90.6497 113.627 94.3717 115.314 94.3717 115.314V137.575L55.0658 115.026C55.0658 114.429 55.0327 113.821 54.9718 113.201C54.2694 105.962 48.9656 97.5663 43.2746 94.2867C37.1025 90.7195 32.0973 94.0489 32.0973 101.725L31.1018 101.172C27.5456 98.9877 28.6573 84.7962 30.5487 80.2722Z" fill="#D96431"/>
<path d="M52.3834 85.6314C54.8003 85.6314 54.8998 86.8924 55.7017 89.3812C56.3212 91.339 57.278 93.0756 56.111 92.5004C54.944 91.9252 50.9233 87.628 50.1767 86.8813C48.6171 85.3438 51.2773 85.6314 52.3834 85.6314Z" fill="black"/>
<path d="M40.6199 72.5626C41.7133 72.2411 42.8837 72.3015 43.9382 72.734C45.0001 73.2871 48.0253 75.0956 51.8304 77.2857L56.9517 80.239L84.2562 64.51C84.2562 64.51 73.6651 59.1066 69.9043 57.6521C66.1435 56.1976 41.6817 69.7475 40.6199 72.5626Z" fill="#D96431"/>
<path opacity="0.2" d="M93.6749 116.752L72.5813 104.679C72.367 104.84 72.1965 105.053 72.0854 105.298C71.9743 105.542 71.9261 105.81 71.9452 106.078L93.6749 116.752Z" fill="white"/>
<path d="M75.7171 109.496C75.7372 109.506 75.7596 109.511 75.7822 109.511C75.8048 109.51 75.8269 109.503 75.8463 109.492C75.8657 109.48 75.8818 109.464 75.893 109.444C75.9043 109.424 75.9104 109.402 75.9107 109.38V108.777C75.9107 108.318 75.2304 107.555 74.3898 107.068L73.1343 106.354C72.2937 105.868 71.6134 105.846 71.6134 106.299V106.791C71.6111 106.893 71.6367 106.993 71.6875 107.081C71.7382 107.168 71.8121 107.24 71.901 107.289L75.7171 109.496Z" fill="#37474F"/>
<path opacity="0.2" d="M60.779 97.7213C61.8851 98.5343 68.0185 102.212 68.8813 102.754C68.3808 103.237 68.0099 103.838 67.8028 104.502C67.8028 104.502 45.9238 91.8699 40.5813 87.1413C35.2387 82.4126 32.313 78.0047 36.4278 75.7151C37.6832 75.0182 38.8557 74.0559 40.3656 74.6477C40.4772 74.6817 40.5807 74.7382 40.6698 74.8136C40.8046 74.9705 40.8928 75.1621 40.9242 75.3666C42.1354 80.0677 45.9847 83.5906 49.0929 87.1468C52.6487 91.0297 56.5612 94.57 60.779 97.7213Z" fill="white"/>
<path opacity="0.5" d="M93.3209 116.188C93.3209 116.188 93.3762 122.675 92.8452 126.547C92.3143 130.418 92.1263 132.409 91.1861 131.917L70.3136 121.221L91.1971 134.046C92.1041 134.715 92.9503 135.152 93.3209 130.628C93.6914 126.104 93.9569 119.091 93.3209 116.188ZM70.0924 103.08C69.5855 103.754 69.2228 104.525 69.0268 105.345C68.8308 106.166 68.8057 107.017 68.9531 107.848C69.3679 110.901 70.0592 120.618 70.0592 120.618C70.0592 120.618 70.0979 111.885 70.0979 108.207C70.0979 105.154 71.3036 103.744 71.3036 103.744L70.0924 103.08ZM48.8992 93.1253C48.147 94.1097 47.6105 96.7257 47.6105 96.7257C48.197 95.6449 48.88 94.6194 49.6513 93.6617C50.5196 92.7381 53.661 91.6541 53.661 91.6541C53.661 91.6541 49.6513 92.1298 48.8936 93.1142L48.8992 93.1253ZM31.0741 89.3368C30.2168 87.8325 29.8573 82.8218 29.8573 82.8218C29.8573 82.8218 29.5144 88.5625 30.51 89.9396C31.5055 91.3168 35.9299 93.1253 35.9299 93.1253C35.9299 93.1253 31.9313 90.8301 31.0685 89.3257L31.0741 89.3368Z" fill="#D96431"/>
<path d="M45.5311 81.3673C48.9158 78.1319 53.0527 75.7869 57.0181 73.3369C60.9836 70.8868 64.8992 68.5253 68.8923 66.2024C72.1775 64.2944 75.4848 62.3918 78.8916 60.6995C79.8005 60.2295 80.7348 59.8104 81.6901 59.444C81.8075 59.3951 81.9275 59.3527 82.0496 59.3168H82.0938C82.5639 59.1675 83.1612 58.996 83.847 58.8191C87.3534 57.9065 93.3431 56.7949 98.6026 57.1212C103.193 57.4088 126.344 68.481 128.899 71.4399C130.091 72.7831 131.213 74.186 132.262 75.6431C132.262 75.6431 129.104 73.2041 127.561 73.7683C126.311 74.2218 117.373 82.2909 111.34 85.471C104.15 89.265 94.2335 93.0202 91.7613 94.1374C89.2891 95.2546 90.8266 98.2411 90.8266 98.2411C89.6873 96.4326 89.1288 95.4094 87.7295 94.2314C85.1523 92.0634 74.7935 86.6766 74.6331 86.5937C73.1976 85.8507 71.6228 85.4156 70.0095 85.3161L59.2193 85.648L46.9027 83.0265C46.2502 83.0009 45.6147 82.8106 45.0555 82.4734C44.9283 82.0697 45.2269 81.6604 45.5311 81.3673Z" fill="#DC7A4F"/>
<path d="M53.1687 81.3395C56.2714 80.8363 59.8055 80.4546 62.1504 79.5532C64.1213 78.6831 66.0078 77.6333 67.7861 76.4173C75.2635 71.6002 83.2718 66.6005 87.4639 63.7357C92.1926 60.5058 95.4888 58.4429 92.9945 58.3489C91.5345 58.3489 88.4981 58.8522 86.8666 59.1066C85.25 59.3882 83.6537 59.7762 82.0882 60.268C80.4212 60.9194 78.8117 61.7093 77.2766 62.6295C70.7671 66.3903 66.2486 69.2663 56.8134 74.9572C50.5251 78.7568 48.0972 80.7035 47.7875 81.4612C47.4446 82.3461 50.0993 81.8428 53.1687 81.3395Z" fill="#37474F"/>
<path d="M57.1233 90.4152C57.798 92.9648 58.2958 93.9825 60.0545 95.426C63.5886 98.3295 72.8523 103.993 73.5658 104.441C74.2792 104.889 74.4451 104.994 75.0369 105.337L90.152 114.064C90.152 114.064 100.433 119.34 100.057 117.382C99.6812 115.425 92.8675 101.344 91.6342 98.8494C90.4009 96.3551 90.0469 94.5853 87.5637 93.1971C85.0804 91.8089 76.6242 86.8204 75.0369 85.8857L74.6332 85.6645C72.6587 84.6192 70.6401 84.1657 67.7033 84.2984C64.7666 84.4311 58.1188 84.5196 56.4818 85.5317C55.4365 86.1677 56.3214 87.3734 57.1233 90.4152ZM73.3611 101.449V88.38C73.3611 88.0869 73.3611 87.8269 73.3943 87.6389C73.4012 87.5442 73.4323 87.4529 73.4847 87.3738C73.5371 87.2946 73.609 87.2303 73.6934 87.187C73.7778 87.1436 73.872 87.1228 73.9669 87.1263C74.0617 87.1299 74.154 87.1579 74.2349 87.2075C75.8333 88.1588 84.1181 92.8155 86.7949 94.3143C88.0117 94.9946 88.9187 96.5265 89.8533 98.8051C90.788 101.084 95.8319 111.642 97.5962 116.044C97.5353 116.044 89.0127 112.062 83.2166 108.639C78.7203 105.973 75.7282 104.463 74.5723 103.744C74.1693 103.52 73.8402 103.184 73.6251 102.777C73.41 102.369 73.3183 101.908 73.3611 101.449ZM70.0815 85.8138C71.4475 86.0461 71.8734 86.7098 71.8181 88.38C71.8181 91.5324 71.8181 97.1404 71.8181 99.8117C71.8181 100.868 71.619 101.725 70.6456 101.084C68.1845 99.4578 61.5035 95.2932 60.3255 94.342C58.8101 93.1086 57.6985 88.026 57.4109 86.7982C57.0569 85.2552 68.3947 85.5207 70.0815 85.8138Z" fill="#263238"/>
<path d="M74.6221 103.75C75.778 104.469 78.7701 105.962 83.2664 108.644C89.0404 112.068 97.563 116.028 97.646 116.05C95.8651 111.625 90.8157 101.067 89.9031 98.8108C88.9906 96.5543 88.0614 95.0002 86.8447 94.3199C84.1679 92.8212 75.8831 88.1644 74.2847 87.2131C74.2038 87.1635 74.1115 87.1356 74.0167 87.132C73.9218 87.1284 73.8276 87.1493 73.7432 87.1926C73.6587 87.2359 73.5869 87.3003 73.5345 87.3794C73.4821 87.4586 73.451 87.5499 73.4441 87.6445C73.4441 87.8492 73.4109 88.0925 73.4109 88.3856V101.454C73.3681 101.913 73.4598 102.375 73.6749 102.782C73.89 103.19 74.2191 103.526 74.6221 103.75Z" fill="#263238"/>
<path d="M57.4163 86.8204C57.7039 88.0482 58.8156 93.1308 60.331 94.3641C61.509 95.3154 68.1899 99.4799 70.651 101.106C71.6244 101.747 71.8235 100.89 71.8235 99.8339C71.8235 97.1626 71.8235 91.538 71.8235 88.4022C71.8788 86.743 71.453 86.0683 70.0869 85.836C68.3945 85.5207 57.0568 85.2553 57.4163 86.8204Z" fill="#263238"/>
<path opacity="0.35" d="M74.6221 103.75C75.778 104.469 78.7701 105.962 83.2664 108.644C89.0404 112.068 97.563 116.028 97.646 116.05C95.8651 111.625 90.8157 101.067 89.9031 98.8108C88.9906 96.5543 88.0614 95.0002 86.8447 94.3199C84.1679 92.8212 75.8831 88.1644 74.2847 87.2131C74.2038 87.1635 74.1115 87.1356 74.0167 87.132C73.9218 87.1284 73.8276 87.1493 73.7432 87.1926C73.6587 87.2359 73.5869 87.3003 73.5345 87.3794C73.4821 87.4586 73.451 87.5499 73.4441 87.6445C73.4441 87.8492 73.4109 88.0925 73.4109 88.3856V101.454C73.3681 101.913 73.4598 102.375 73.6749 102.782C73.89 103.19 74.2191 103.526 74.6221 103.75Z" fill="black"/>
<path opacity="0.35" d="M57.4163 86.8204C57.7039 88.0482 58.8156 93.1308 60.331 94.3641C61.509 95.3154 68.1899 99.4799 70.651 101.106C71.6244 101.747 71.8235 100.89 71.8235 99.8339C71.8235 97.1626 71.8235 91.538 71.8235 88.4022C71.8788 86.743 71.453 86.0683 70.0869 85.836C68.3945 85.5207 57.0568 85.2553 57.4163 86.8204Z" fill="black"/>
<path d="M101.982 116.548C108.914 111.369 116.114 106.558 123.551 102.135C130.978 97.8997 138.791 94.3812 146.885 91.6267C146.558 92.849 144.628 94.7957 142.029 96.9084C140.182 98.4127 138.108 99.9447 135.702 101.56C130.033 105.52 124.641 108.252 122.71 109.413C112.954 114.7 103.033 118.815 101.396 116.863L101.982 116.548Z" fill="#455A64"/>
<path d="M101.39 116.874C101.854 116.586 117.274 107.079 124.403 102.793C131.189 98.7113 145.181 92.4064 146.879 91.6377C138.76 94.3269 130.94 97.8483 123.545 102.146C115.919 106.682 108.524 111.597 101.39 116.874Z" fill="#37474F"/>
<path d="M144.479 87.4788L144.827 88.9278C145.629 90.4266 147.399 92.318 148.029 92.1632C148.66 92.0083 148.948 91.1953 149.136 90.1777C149.22 89.6877 149.27 89.1924 149.285 88.6955C149.34 87.0916 148.621 83.3529 146.398 82.3574C146.175 82.2594 145.927 82.2349 145.689 82.2877C145.451 82.3404 145.237 82.4675 145.076 82.6506C144.778 82.9493 144.556 83.3154 144.429 83.718C144.07 84.8296 144.479 87.4235 144.479 87.4788Z" fill="#D96431"/>
<path d="M144.849 88.9278C145.651 90.4266 147.421 92.318 148.051 92.1632C148.682 92.0083 148.969 91.1953 149.157 90.1777C149.242 89.6877 149.292 89.1924 149.307 88.6955C149.362 87.0916 148.643 83.3529 146.42 82.3574C146.197 82.2594 145.949 82.2349 145.711 82.2877C145.473 82.3404 145.259 82.4675 145.098 82.6506L145.402 83.3419C146.962 84.0055 147.377 86.4114 147.233 88.242C147.089 90.0726 145.74 89.8735 144.849 88.9278Z" fill="#E1835A"/>
<path d="M144.446 83.7068C144.999 83.1095 146.409 83.0819 147.582 84.6968C148.754 86.3118 149.147 89.0881 149.147 90.161C149.234 89.6733 149.284 89.1797 149.296 88.6844C149.351 87.0805 148.638 83.3363 146.415 82.3463C145.48 81.9315 144.711 82.8828 144.446 83.7068Z" fill="#D96431"/>
<path d="M94.4214 137.575L109.902 128.643L101.301 123.676L94.4214 127.664V137.575Z" fill="#37474F"/>
<path d="M100.787 135.357L98.575 130.933L103.868 127.869C105.527 126.901 107.789 127.011 110.25 128.422C115.471 131.436 119.707 139.217 119.707 145.793C119.707 149.239 118.546 151.672 116.688 152.773L116.616 152.812L111.19 155.942L108.851 151.285C104.393 147.922 100.964 141.225 100.787 135.357Z" fill="#37474F"/>
<path d="M100.787 135.357L98.575 130.933L103.868 127.869C105.527 126.901 107.789 127.011 110.25 128.422C115.471 131.436 119.707 139.217 119.707 145.793C119.707 149.239 118.546 151.672 116.688 152.773L116.616 152.812L111.19 155.942L108.851 151.285C104.393 147.922 100.964 141.225 100.787 135.357Z" fill="#263238"/>
<path d="M95.2842 138.072C95.2842 143.747 98.4311 150.312 102.645 153.94C103.287 154.501 103.982 154.999 104.719 155.427C109.94 158.447 114.177 155.555 114.177 148.979C114.177 144.001 111.754 138.349 108.325 134.599L108.292 134.572C107.257 133.414 106.053 132.42 104.719 131.624C99.5151 128.604 95.2842 131.491 95.2842 138.072Z" fill="#37474F"/>
<path d="M104.742 135.589C101.423 133.67 98.7188 135.672 98.7188 140.058C98.7188 144.444 101.418 149.554 104.742 151.473C108.065 153.392 110.759 151.396 110.759 147.01C110.759 142.624 108.065 137.508 104.742 135.589Z" fill="#455A64"/>
<path d="M102.02 142.32C102.247 144.499 103.652 146.811 105.151 147.48C105.408 147.63 105.705 147.696 106.002 147.672C106.299 147.647 106.581 147.532 106.81 147.342C107.363 146.894 107.606 145.97 107.479 144.748C107.252 142.563 105.853 140.251 104.349 139.582C104.007 139.412 103.617 139.361 103.243 139.439C102.358 139.654 101.855 140.733 102.02 142.32Z" fill="#FAFAFA"/>
<path d="M102.557 142.038C102.784 144.217 104.189 146.529 105.687 147.198C106.028 147.372 106.419 147.423 106.793 147.342C107.347 146.894 107.59 145.97 107.463 144.748C107.236 142.563 105.837 140.251 104.332 139.582C103.99 139.412 103.601 139.361 103.226 139.439C102.695 139.914 102.446 140.816 102.557 142.038Z" fill="#E0E0E0"/>
<path d="M95.2842 138.073C95.2842 143.747 98.4311 150.312 102.645 153.94C99.7197 150.622 97.6602 146.632 96.6502 142.326C95.8483 138.532 96.1525 133.084 99.4155 131.712C102.679 130.341 106.97 133.233 108.325 134.555C107.291 133.397 106.086 132.403 104.753 131.607C99.5151 128.604 95.2842 131.491 95.2842 138.073Z" fill="#455A64"/>
<path d="M94.3937 115.32C94.3937 115.32 95.2952 115.154 95.085 114.368C95.085 114.368 100.356 116.785 101.462 117.134C103.873 117.93 112.949 114.7 122.705 109.391C124.652 108.23 130.022 105.52 135.696 101.538C138.102 99.9226 140.176 98.3851 142.023 96.8863C143.588 95.6249 145.022 94.2093 146.304 92.6609C146.614 92.2793 147.255 91.234 146.857 90.3823C166.214 104.142 176.805 109.839 174.51 125.529C174.51 125.529 174.432 126.68 174.018 128.997C173.376 132.536 171.485 138.559 166.623 141.994C162.154 145.146 161.845 145.373 155.789 148.631C149.733 151.888 141.575 154.283 133.622 154.028C124.663 153.741 116.826 150.323 116.577 148.249C116.472 147.317 116.305 146.393 116.079 145.484C115.496 143.126 114.605 140.856 113.43 138.731C111.78 135.595 109.441 132.875 106.589 130.772C106.24 130.529 105.886 130.302 105.532 130.097C99.775 126.779 95.0242 129.45 94.4213 136.048C94.3771 136.53 94.355 137.022 94.355 137.542L94.3937 115.32Z" fill="#E96A33"/>
<path d="M147.332 149.692C152.907 148.298 156.961 146.108 160.916 143.774C164.87 141.441 167.453 139.261 168.924 137.409C170.318 135.661 171.164 133.388 170.284 133.709C168.824 134.964 165.666 137.641 163.648 138.858C157.619 142.513 151.226 147.037 141.387 147.209C140.753 147.181 140.118 147.23 139.496 147.353C137.095 148.072 143.538 150.638 147.332 149.692Z" fill="#455A64"/>
<path d="M127.052 145.213C127.605 145.135 128.971 145.506 131.294 146.175C133.617 146.844 134.181 146.899 135.043 147.497C135.774 148 137.72 149.587 138.66 150.074C140.154 150.843 138.66 151.396 134.49 151.401C130.32 151.407 128.91 150.151 127.953 148.874C126.996 147.596 125.802 145.39 127.052 145.213Z" fill="#37474F"/>
<path d="M174.438 126.569C174.366 127.122 174.25 127.963 174.057 129.03C173.733 130.788 173.233 132.51 172.563 134.168C172.254 134.45 171.977 134.644 171.795 134.627C171.081 134.583 171.695 133.355 172.198 131.53C172.702 129.705 173.979 127.924 174.438 126.569Z" fill="#37474F"/>
<path opacity="0.85" d="M162.968 121.508C157.437 125.504 151.505 128.914 145.27 131.684C145.048 131.767 144.848 131.898 144.683 132.068C144.519 132.238 144.394 132.443 144.319 132.667C144.244 132.891 144.219 133.129 144.248 133.364C144.277 133.599 144.357 133.824 144.484 134.024C145.373 135.229 146.503 136.235 147.803 136.977C148.688 137.464 150.291 137.309 151.237 136.95C156.068 135.208 160.559 132.64 164.511 129.362C165.274 128.704 166.17 127.365 166.203 126.353C166.258 124.777 166.034 123.204 165.539 121.707C165.224 120.767 163.786 120.911 162.968 121.508Z" fill="white"/>
<path d="M149.351 136.187C149.876 136.187 150.398 136.099 150.894 135.927C155.602 134.225 159.98 131.724 163.836 128.532C164.501 127.956 164.963 127.18 165.152 126.32C165.209 124.908 165.022 123.498 164.599 122.15C164.422 121.79 163.847 122.233 163.631 122.393C158.043 126.432 152.051 129.879 145.751 132.68C145.658 132.721 145.574 132.781 145.505 132.856C145.437 132.932 145.385 133.02 145.353 133.117C145.338 133.16 145.335 133.205 145.342 133.25C145.35 133.294 145.369 133.336 145.397 133.371C146.188 134.455 147.193 135.364 148.35 136.043C148.669 136.164 149.011 136.213 149.351 136.187Z" fill="#939393"/>
<path d="M157.879 133.2L158.952 132.946C158.375 130.722 157.523 128.58 156.414 126.569L155.457 127.122C156.511 129.041 157.325 131.082 157.879 133.2Z" fill="#939393"/>
<path opacity="0.85" d="M157.879 133.2L158.952 132.946C158.375 130.722 157.523 128.58 156.414 126.569L155.457 127.122C156.511 129.041 157.325 131.082 157.879 133.2Z" fill="white"/>
<path d="M145.032 133.598C148.993 131.965 152.833 130.054 156.525 127.88C160.761 125.286 164.959 122.26 165.003 122.233L164.892 122.083C164.854 122.117 160.661 125.131 156.425 127.725C152.746 129.893 148.919 131.798 144.971 133.427L145.032 133.598Z" fill="#939393"/>
<path d="M145.585 134.113C149.485 132.512 153.266 130.636 156.9 128.499C161.142 125.9 165.047 123.051 165.086 123.024L164.975 122.875C164.936 122.902 161.037 125.745 156.806 128.344C153.183 130.476 149.413 132.346 145.524 133.941L145.585 134.113Z" fill="#939393"/>
<path d="M146.138 134.627C149.983 133.062 153.706 131.213 157.277 129.096C161.519 126.497 165.13 123.826 165.169 123.798L165.058 123.654C165.025 123.654 161.413 126.348 157.183 128.942C153.621 131.044 149.909 132.881 146.077 134.439L146.138 134.627Z" fill="#939393"/>
<path d="M146.691 135.147C150.48 133.625 154.147 131.815 157.658 129.732C161.895 127.133 165.219 124.633 165.252 124.605L165.141 124.462C165.108 124.462 161.795 126.978 157.559 129.572C154.06 131.649 150.406 133.453 146.63 134.97L146.691 135.147Z" fill="#939393"/>
<path d="M147.244 135.661C150.975 134.175 154.582 132.398 158.034 130.346C162.276 127.747 165.302 125.419 165.335 125.396L165.224 125.253C165.191 125.253 162.171 127.598 157.94 130.192C154.491 132.24 150.885 134.011 147.156 135.49L147.244 135.661Z" fill="#939393"/>
<path d="M147.764 136.175C151.436 134.727 154.985 132.984 158.377 130.966C160.796 129.499 163.135 127.904 165.384 126.187L165.268 126.043C163.035 127.755 160.71 129.345 158.305 130.805C154.923 132.818 151.385 134.557 147.725 136.004L147.764 136.175Z" fill="#939393"/>
<path d="M148.306 136.69C151.923 135.278 155.418 133.569 158.753 131.58C161.081 130.183 163.321 128.647 165.462 126.978L165.346 126.84C163.207 128.498 160.972 130.029 158.654 131.425C155.331 133.404 151.851 135.108 148.25 136.518L148.306 136.69Z" fill="#939393"/>
<g opacity="0.85">
<path d="M145.032 133.598C148.993 131.965 152.833 130.054 156.525 127.88C160.761 125.286 164.959 122.26 165.003 122.233L164.892 122.083C164.854 122.117 160.661 125.131 156.425 127.725C152.746 129.893 148.919 131.798 144.971 133.427L145.032 133.598Z" fill="white"/>
<path d="M145.585 134.112C149.485 132.512 153.267 130.636 156.901 128.499C161.143 125.899 165.047 123.051 165.086 123.024L164.975 122.874C164.937 122.902 161.038 125.745 156.807 128.344C153.184 130.476 149.414 132.346 145.524 133.941L145.585 134.112Z" fill="white"/>
<path d="M146.138 134.627C149.983 133.062 153.706 131.213 157.277 129.096C161.519 126.497 165.13 123.825 165.169 123.798L165.058 123.654C165.025 123.654 161.413 126.347 157.183 128.941C153.621 131.044 149.909 132.881 146.077 134.439L146.138 134.627Z" fill="white"/>
<path d="M146.691 135.147C150.48 133.625 154.147 131.815 157.658 129.732C161.895 127.133 165.219 124.633 165.252 124.605L165.141 124.462C165.108 124.462 161.795 126.978 157.559 129.572C154.06 131.649 150.406 133.453 146.63 134.97L146.691 135.147Z" fill="white"/>
<path d="M147.244 135.661C150.975 134.175 154.582 132.397 158.034 130.346C162.276 127.747 165.302 125.418 165.335 125.396L165.224 125.252C165.191 125.252 162.171 127.597 157.94 130.191C154.491 132.239 150.885 134.011 147.156 135.49L147.244 135.661Z" fill="white"/>
<path d="M147.764 136.175C151.436 134.727 154.985 132.984 158.378 130.966C160.797 129.499 163.136 127.904 165.385 126.187L165.269 126.043C163.035 127.755 160.711 129.345 158.306 130.805C154.924 132.818 151.386 134.557 147.726 136.004L147.764 136.175Z" fill="white"/>
<path d="M148.306 136.69C151.924 135.278 155.418 133.569 158.754 131.58C161.081 130.183 163.321 128.647 165.462 126.978L165.346 126.84C163.207 128.498 160.973 130.029 158.654 131.425C155.331 133.404 151.852 135.108 148.251 136.518L148.306 136.69Z" fill="white"/>
</g>
<path opacity="0.2" d="M148.903 94.5632C149.772 94.3752 162.857 104.081 164.561 105.779C166.264 107.477 165.528 107.438 164.085 110.242C162.326 113.677 164.373 116.697 163.128 116.453C162.514 116.337 159.854 110.851 155.966 105.514C151.967 100.039 147.399 94.8564 148.903 94.5632Z" fill="white"/>
<path opacity="0.85" d="M127.931 136.933C127.19 136.048 126.676 134.97 127.295 134.024C127.915 133.078 129.386 132.542 130.42 132.243C133.646 131.33 137.103 131.727 140.038 133.349C140.72 133.698 141.327 134.177 141.824 134.76C142.072 135.051 142.259 135.389 142.375 135.754C142.491 136.118 142.533 136.502 142.499 136.883C142.051 140.417 136.802 140.882 134.115 140.412C132.364 140.101 130.718 139.364 129.319 138.266C128.813 137.87 128.347 137.424 127.931 136.933Z" fill="white"/>
<path d="M132.494 133.416C131.338 133.416 128.772 133.416 128.987 135.169C129.175 136.734 131.576 138.012 132.975 138.239C134.728 138.521 135.464 136.303 134.949 134.893C134.741 134.424 134.394 134.031 133.955 133.766C133.515 133.502 133.005 133.38 132.494 133.416Z" fill="white"/>
<path d="M137.842 136.469C136.946 136.43 135.591 136.789 135.536 137.923C135.491 138.825 136.929 138.841 137.582 138.637C139.142 138.139 139.037 136.441 137.842 136.469Z" fill="white"/>
<path d="M139.313 134.539C139.445 134.563 139.57 134.617 139.679 134.695C139.788 134.774 139.878 134.875 139.944 134.992C140.171 135.39 140.137 135.976 139.623 136.098C138.864 136.021 138.144 135.721 137.555 135.235C137.123 134.522 138.661 134.433 139.037 134.478C139.13 134.492 139.223 134.512 139.313 134.539Z" fill="white"/>
<path opacity="0.85" d="M170.346 121.813C170.14 121.909 169.919 121.971 169.693 121.995C169.388 122.01 169.083 121.962 168.797 121.854C168.512 121.745 168.252 121.579 168.034 121.365C167.605 120.932 167.249 120.433 166.977 119.888C165.628 117.438 162.409 110.812 166.977 109.728C168.438 109.385 170.025 110.774 170.849 111.874C172.023 113.505 172.573 115.503 172.397 117.504C172.292 118.859 171.761 121.11 170.346 121.813Z" fill="white"/>
<path d="M168.814 111.022C168.122 110.696 166.95 110.436 166.297 110.962C164.726 112.234 167.956 114.695 168.963 115.176C170.589 115.939 171.33 114.8 170.622 113.284C170.229 112.444 169.704 111.459 168.841 111.039L168.814 111.022Z" fill="white"/>
<path d="M171.053 117.2C170.76 117.001 170.367 117.172 169.991 118.063C169.737 118.66 169.372 120.192 170.484 120.098C171.916 119.971 171.717 117.654 171.053 117.2Z" fill="white"/>
<path d="M166.938 116.642C166.984 116.951 167.118 117.24 167.325 117.474C167.533 117.708 167.804 117.876 168.105 117.958C169.505 118.113 168.526 114.639 167.243 115.679C167.11 115.797 167.011 115.949 166.958 116.118C166.904 116.288 166.898 116.469 166.938 116.642Z" fill="white"/>
<path opacity="0.2" d="M117.478 139.604C115.338 134.179 111.29 129.915 107.905 128.737C111.572 129.03 116.427 132.791 118.313 139.085C118.313 139.085 117.766 139.411 117.478 139.604Z" fill="white"/>
<path opacity="0.2" d="M118.657 140.401C119.133 142.617 119.24 144.897 118.972 147.148C118.976 144.984 118.625 142.833 117.932 140.782L118.657 140.401Z" fill="white"/>
<path opacity="0.2" d="M126.947 131.917C124.441 133.145 124.143 134.798 122.262 133.305C120.382 131.812 106.749 122.045 103.552 120.662C99.9188 119.103 103.226 118.898 111.472 121.459C119.718 124.019 134.048 127.896 134.651 128.737C135.254 129.578 131.786 129.533 126.947 131.917Z" fill="white"/>
<path d="M89.1287 94.3863L99.7308 117.488C101.821 121.11 124.016 109.872 137.289 100.525C143.677 96.0234 147.996 91.9584 146.984 90.2107C141.596 83.3587 135.54 77.0597 128.905 71.4067C128.226 72.0962 127.518 72.7857 126.781 73.4752C125.02 75.0921 123.174 76.6134 121.25 78.0324C112.722 84.4036 101.81 89.7683 89.1287 94.3863ZM91.9271 96.9802C91.8237 96.755 91.7674 96.5111 91.7618 96.2633C91.7563 96.0156 91.8015 95.7694 91.8948 95.5398C91.9881 95.3102 92.1274 95.1022 92.3042 94.9285C92.481 94.7549 92.6914 94.6193 92.9226 94.5301C104.93 89.9232 114.492 84.8958 122.146 79.2049C124.097 77.7553 125.971 76.2046 127.76 74.5592C128.091 74.2534 128.523 74.0813 128.974 74.0762C129.425 74.0711 129.861 74.2333 130.199 74.5315C135.811 79.5228 140.974 84.997 145.629 90.891C145.502 91.35 144.484 93.6563 136.432 99.3417C123.977 108.119 106.683 116.735 101.523 116.735C101.336 116.741 101.15 116.72 100.97 116.675L91.9271 96.9802Z" fill="#37474F"/>
<path d="M100.959 116.686C101.139 116.731 101.325 116.752 101.512 116.747C106.672 116.747 123.966 108.13 136.421 99.3529C144.473 93.6729 145.491 91.3612 145.618 90.9021C140.963 85.0081 135.8 79.5339 130.188 74.5426C129.85 74.2444 129.413 74.0822 128.963 74.0873C128.512 74.0924 128.08 74.2645 127.749 74.5703C125.96 76.2157 124.086 77.7664 122.135 79.216C114.503 84.907 104.918 89.9343 92.9115 94.5412C92.6803 94.6304 92.4698 94.766 92.2931 94.9396C92.1163 95.1133 91.977 95.3213 91.8837 95.5509C91.7904 95.7805 91.7451 96.0267 91.7507 96.2744C91.7563 96.5222 91.8125 96.7661 91.916 96.9913L100.959 116.686Z" fill="#263238"/>
<path opacity="0.2" d="M136.443 99.3307C134.435 100.741 132.3 102.151 130.116 103.523C125.625 96.228 118.972 86.4997 116.4 83.1316C118.424 81.8521 120.34 80.5432 122.146 79.2048C123.3 78.3421 124.406 77.4701 125.465 76.5889C132.101 82.761 138.213 92.0192 140.746 96.1119C139.584 97.041 138.179 98.1029 136.443 99.3307Z" fill="white"/>
<path opacity="0.2" d="M112.313 85.5651C113.126 85.1061 113.928 84.6415 114.708 84.1714C119.635 90.7306 124.188 97.5625 128.346 104.635C127.467 105.188 126.576 105.702 125.686 106.222C122.782 101.438 117.744 93.3743 112.313 85.5651Z" fill="white"/>
<path opacity="0.3" d="M114.387 111.647C108.099 114.656 101.534 116.724 101.008 115.314C100.483 113.904 95.8816 104.723 94.5709 101.084C93.2601 97.4447 92.9504 97.041 93.8076 95.9404C94.6649 94.8398 99.4433 93.059 107.186 89.4088C114.929 85.7586 122.146 79.2048 122.146 79.2048C114.514 84.8958 104.93 89.9231 92.9227 94.5301C92.6915 94.6193 92.4811 94.7549 92.3043 94.9285C92.1275 95.1022 91.9882 95.3102 91.8949 95.5398C91.8016 95.7693 91.7564 96.0156 91.7619 96.2633C91.7675 96.511 91.8238 96.755 91.9272 96.9802L100.959 116.686C101.139 116.731 101.325 116.752 101.512 116.746C106.672 116.746 123.966 108.13 136.421 99.3528C133.882 101.2 120.697 108.633 114.387 111.647Z" fill="white"/>
<path d="M89.0954 115.58C89.8088 118.986 93.5862 119.705 96.4124 119.622C97.4734 119.629 98.5267 119.441 99.5206 119.069C100.627 118.439 100.112 117.128 99.5206 116.371C98.5306 115.087 94.084 112.499 91.2966 112.427C89.6651 112.405 88.6198 113.201 89.0954 115.58Z" fill="#D96431"/>
<path d="M89.0955 115.58C89.8089 118.986 93.5863 119.705 96.4125 119.622C97.4735 119.629 98.5268 119.441 99.5207 119.069C100.627 118.439 100.112 117.128 99.5207 116.371C100.074 117.41 97.1591 118.057 94.5431 117.123C91.9272 116.188 90.0136 114.186 91.2745 112.427C89.6651 112.405 88.6199 113.201 89.0955 115.58Z" fill="#E1835A"/>
<path d="M89.0954 115.58C89.8088 118.986 93.5862 119.705 96.4123 119.622C93.5973 119.545 91.3574 117.919 90.5112 116.149C89.665 114.379 90.3066 112.67 91.3021 112.449C89.665 112.405 88.6197 113.201 89.0954 115.58Z" fill="#37474F"/>
<path d="M97.4974 75.9144C97.3788 76.0207 97.2502 76.1155 97.1135 76.1973L104.702 71.913C104.702 71.913 123.415 56.7565 123.415 42.8731V39.7003C123.415 25.7765 114.25 9.20535 102.944 2.66782L101.792 2.02114C101.408 1.83926 101.024 1.64728 100.65 1.48561C99.9231 1.16731 99.1774 0.893978 98.417 0.667158C98.0633 0.55601 97.6995 0.454966 97.3459 0.374131C97.0126 0.292904 96.6753 0.228827 96.3355 0.182149C96.0011 0.12351 95.6638 0.083034 95.325 0.0608977C94.9916 0.0608977 94.6581 0.0608977 94.3146 0.0608977C92.2201 0.0307846 90.1647 0.629105 88.4136 1.77864L81.3406 5.82038C84.9478 4.03191 89.6565 4.40578 94.8097 7.38656C102.893 12.0548 109.916 21.8964 113.24 32.2029C114.542 36.1388 115.224 40.2533 115.261 44.3989V47.5716C115.231 58.3126 103.085 70.7308 97.4974 75.9144ZM84.5133 25.1298C84.5133 31.6573 89.0906 39.5993 94.7389 42.8731C99.7911 45.7528 103.934 44.0149 104.843 39.0132H104.783C104.591 38.9425 104.389 38.8617 104.197 38.7707C103.988 38.6909 103.786 38.5964 103.59 38.4878C103.378 38.3868 103.186 38.2756 102.974 38.1544C97.3054 34.9008 92.7282 26.9486 92.7282 20.4313C92.7128 20.2194 92.7128 20.0066 92.7282 19.7947C92.7282 19.6634 92.7282 19.5421 92.7282 19.4209C92.7446 19.0644 92.7885 18.7096 92.8595 18.3599C88.1105 16.6017 84.5133 19.3501 84.5133 25.1298Z" fill="#D96431"/>
<path opacity="0.1" d="M115.231 47.6019V44.4595C115.194 40.3139 114.512 36.1994 113.21 32.2635C109.885 21.957 102.883 12.1154 94.7794 7.44716C89.6262 4.46637 84.9176 4.09251 81.3103 5.88099L88.3834 1.83924C90.1264 0.642962 92.1905 0.00189292 94.3045 0.000244141C94.6278 0.000244141 94.9613 0.000244141 95.3149 0.000244141C95.6537 0.0223805 95.991 0.0628562 96.3254 0.121495C96.6652 0.168174 97.0025 0.232255 97.3358 0.313481C97.6895 0.394316 98.0532 0.495357 98.4069 0.606505C99.1673 0.833324 99.913 1.10666 100.64 1.42496C101.014 1.58663 101.398 1.77861 101.782 1.96049L102.934 2.58696C114.24 9.12449 123.405 25.6956 123.405 39.6195V42.7922C123.405 56.7059 104.692 71.8322 104.692 71.8322L97.1034 76.1164C97.2401 76.0346 97.3687 75.9399 97.4874 75.8335C103.085 70.7308 115.231 58.3125 115.231 47.6019Z" fill="black"/>
<path d="M74.2676 23.9477C74.2676 35.4869 88.3227 65.224 93.1425 75.096C93.3302 75.4842 93.6065 75.8229 93.9493 76.0845C94.292 76.3462 94.6915 76.5235 95.1154 76.6022C95.5394 76.6809 95.9759 76.6588 96.3897 76.5375C96.8036 76.4163 97.183 76.1994 97.4975 75.9044C103.085 70.7511 115.221 58.3127 115.221 47.6121V44.4596C115.221 30.5358 106.056 13.9646 94.7491 7.42707C83.4423 0.889541 74.2676 6.89153 74.2676 20.8154V23.9477ZM84.5134 25.1299C84.5134 18.6025 89.0907 15.9552 94.7491 19.2189C100.408 22.4826 104.985 30.4246 104.985 36.952C104.985 43.4794 100.397 46.1369 94.7491 42.8631C89.1008 39.5893 84.5134 31.6674 84.5134 25.1299Z" fill="#E0E0E0"/>
<path d="M81.27 5.84072L88.3431 1.79897C90.1021 0.609183 92.1811 -0.0180456 94.3046 0.000395259C94.628 0.000395259 94.9614 0.000395259 95.3151 0.000395259C95.6538 0.0225316 95.9911 0.0630073 96.3255 0.121647C96.6654 0.168325 97.0026 0.232406 97.336 0.313632C97.6896 0.394467 98.0534 0.495508 98.407 0.606656C99.1674 0.833476 99.9132 1.10681 100.64 1.42511C101.014 1.58678 101.398 1.77876 101.782 1.96064L102.934 2.58711C110.583 7.00272 117.242 16.0158 120.758 25.6958L112.573 30.4246C109.057 20.8356 102.388 11.8225 94.7391 7.4069C89.5859 4.42611 84.8773 4.04214 81.27 5.84072Z" fill="#BA68C8"/>
<path d="M81.27 5.84072L88.3431 1.79897C90.1021 0.609183 92.1811 -0.0180456 94.3046 0.000395259C94.628 0.000395259 94.9614 0.000395259 95.3151 0.000395259C95.6538 0.0225316 95.9911 0.0630073 96.3255 0.121647C96.6654 0.168325 97.0026 0.232406 97.336 0.313632C97.6896 0.394467 98.0534 0.495508 98.407 0.606656C99.1674 0.833476 99.9132 1.10681 100.64 1.42511C101.014 1.58678 101.398 1.77876 101.782 1.96064L102.934 2.58711C110.583 7.00272 117.242 16.0158 120.758 25.6958L112.573 30.4246C109.057 20.8356 102.388 11.8225 94.7391 7.4069C89.5859 4.42611 84.8773 4.04214 81.27 5.84072Z" fill="#C35A2C"/>
<path d="M94.739 7.39697L95.9516 8.23564C96.3651 8.49881 96.7632 8.78557 97.1439 9.09451C97.9129 9.68664 98.6514 10.3173 99.3567 10.984C100.094 11.6189 100.795 12.2936 101.458 13.0049L102.469 14.076L103.409 15.1975C108.384 21.2555 111.965 28.3344 113.897 35.9317C114.16 36.8714 114.301 37.8414 114.513 38.8013C114.725 39.7613 114.776 40.7313 114.917 41.7013C115.059 42.6713 115.059 43.6514 115.109 44.6316L115.2 47.5719L115.281 44.6316C115.281 43.6211 115.281 42.6107 115.281 41.671C115.281 40.7313 115.109 39.7107 114.968 38.7306C114.827 37.7505 114.665 36.7805 114.432 35.8206C112.668 28.0776 109.032 20.8854 103.843 14.8742C101.273 11.8646 98.1908 9.33318 94.739 7.39697Z" fill="#C35A2C"/>
</svg>
