<svg width="30" height="30" viewBox="0 0 30 30" fill="none" xmlns="http://www.w3.org/2000/svg">
<g clip-path="url(#clip0_47_451)">
<path d="M11.6877 7.8125C11.6877 6.25918 12.9469 5 14.5002 5C16.0536 5 17.3127 6.25918 17.3127 7.8125C17.3127 9.36578 16.0536 10.625 14.5002 10.625C12.9469 10.625 11.6877 9.36578 11.6877 7.8125ZM21.6341 7.86613C21.146 7.37797 20.3545 7.37797 19.8664 7.86613L16.4825 11.25H12.518L9.1341 7.86613C8.64598 7.37797 7.85449 7.37797 7.36637 7.86613C6.8782 8.3543 6.8782 9.14574 7.36637 9.63391L11.0627 13.3302V23.75C11.0627 24.4404 11.6224 25 12.3127 25H12.9377C13.6281 25 14.1877 24.4404 14.1877 23.75V19.375H14.8127V23.75C14.8127 24.4404 15.3724 25 16.0627 25H16.6877C17.3781 25 17.9377 24.4404 17.9377 23.75V13.3302L21.6341 9.63387C22.1223 9.1457 22.1223 8.3543 21.6341 7.86613Z" fill="black"/>
</g>
<circle cx="15" cy="15" r="14.5" stroke="black"/>
<defs>
<clipPath id="clip0_47_451">
<rect width="15" height="20" fill="white" transform="translate(7 5)"/>
</clipPath>
</defs>
</svg>
