<svg width="18" height="18" viewBox="0 0 18 18" fill="none" xmlns="http://www.w3.org/2000/svg">
<path id="Union" d="M15.2774 16.3051C13.5402 18.0423 9.0914 16.41 5.34069 12.6593C1.58998 8.9086 -0.0423193 4.4598 1.69485 2.72262L2.83864 1.57883C3.62826 0.789205 4.92937 0.810078 5.74474 1.62545L7.51638 3.39708C8.33175 4.21246 8.35262 5.51356 7.563 6.30319L7.31732 6.54886C6.891 6.97519 6.84929 7.66295 7.24543 8.14299C7.62753 8.60603 8.03947 9.06724 8.48611 9.51389C8.93276 9.96053 9.39397 10.3725 9.857 10.7546C10.3371 11.1507 11.0248 11.109 11.4511 10.6827L11.6968 10.437C12.4864 9.64738 13.7875 9.66825 14.6029 10.4836L16.3745 12.2553C17.1899 13.0706 17.2108 14.3717 16.4212 15.1614L15.2774 16.3051Z" stroke="#EC5C29" stroke-width="1.4"/>
</svg>
