<svg width="89" height="89" viewBox="0 0 89 89" fill="none" xmlns="http://www.w3.org/2000/svg">
<g id="Group 337">
<path id="Vector" d="M81.5828 51.1971C77.4936 51.1971 74.1662 47.8698 74.1662 43.7805C74.1662 42.9613 73.5021 42.2972 72.6829 42.2972H16.3168C15.4977 42.2972 14.8335 42.9613 14.8335 43.7805C14.8335 47.8698 11.5062 51.1971 7.41691 51.1971C6.59775 51.1971 5.93359 51.8612 5.93359 52.6804V72.6835C5.93359 73.5026 6.59775 74.1668 7.41691 74.1668C11.5062 74.1668 14.8335 77.4941 14.8335 81.5834C14.8335 82.4025 15.4977 83.0667 16.3168 83.0667H44.4999C45.319 83.0667 45.9832 82.4025 45.9832 81.5834C45.9832 80.7642 45.319 80.1001 44.4999 80.1001H17.6944C17.0418 75.5596 13.4407 71.9585 8.90023 71.3059V54.058C13.4407 53.4054 17.0418 49.8043 17.6944 45.2638H71.3053C71.9579 49.8043 75.559 53.4054 80.0995 54.058V71.3059C75.559 71.9585 71.9579 75.5596 71.3053 80.1001H50.7272C49.908 80.1001 49.2439 80.7642 49.2439 81.5834C49.2439 82.4025 49.908 83.0667 50.7272 83.0667H72.6829C73.5021 83.0667 74.1662 82.4025 74.1662 81.5834C74.1662 77.4941 77.4936 74.1668 81.5828 74.1668C82.402 74.1668 83.0661 73.5026 83.0661 72.6835V52.6804C83.0661 51.8612 82.402 51.1971 81.5828 51.1971Z" fill="#EC5C29"/>
<path id="Vector_2" d="M57.8491 62.682C57.8491 55.3211 51.8601 49.3321 44.4993 49.3321C37.1385 49.3321 31.1494 55.3211 31.1494 62.682C31.1494 70.0428 37.1385 76.0318 44.4993 76.0318C51.8601 76.0318 57.8491 70.0428 57.8491 62.682ZM44.4993 73.0652C38.7739 73.0652 34.1161 68.4074 34.1161 62.682C34.1161 56.9566 38.7739 52.2987 44.4993 52.2987C50.2247 52.2987 54.8825 56.9566 54.8825 62.682C54.8825 68.4074 50.2247 73.0652 44.4993 73.0652Z" fill="#EC5C29"/>
<path id="Vector_3" d="M84.5492 36.3639H79.9354L64.4505 2.59743C63.9558 1.5168 63.0693 0.693309 61.9539 0.279745C60.8422 -0.133092 59.6326 -0.0874653 58.5506 0.406494L37.0982 10.2436C36.3537 10.5855 36.027 11.4662 36.3681 12.2108C36.7093 12.9546 37.5907 13.2791 38.3353 12.9408L59.7876 3.1037C60.1469 2.93713 60.5488 2.92191 60.9218 3.06097C61.2934 3.19857 61.5882 3.47308 61.7533 3.83378L76.6709 36.3639H74.1404L63.9153 14.0663C63.5734 13.3225 62.6941 12.9966 61.9481 13.3363C58.7324 14.8109 54.9147 13.3949 53.4386 10.1777C53.0982 9.43315 52.2182 9.10795 51.4722 9.44763L36.7798 16.1852L25.2628 9.57945C24.2322 8.98771 23.032 8.8349 21.8848 9.14343C20.7375 9.45487 19.78 10.1936 19.1883 11.225L4.76939 36.3639C2.20871 36.2053 -0.00972815 38.2337 3.20846e-05 40.8139V84.55C3.20846e-05 87.0039 1.99613 89 4.44999 89H84.5492C87.003 89 88.9991 87.0039 88.9991 84.55V40.8139C88.9991 38.36 87.003 36.3639 84.5492 36.3639ZM51.4671 12.7141C53.7088 16.074 57.8965 17.6291 61.7881 16.5448L70.4889 35.5198L39.9426 17.9993L51.4671 12.7141ZM21.7616 12.7011C21.9594 12.3571 22.2788 12.1108 22.6612 12.0072C23.0429 11.9058 23.4427 11.9558 23.7867 12.1528L65.9969 36.3639H61.375L31.4923 19.2239C31.1512 19.0291 30.7463 18.9798 30.366 19.0791C29.9865 19.1819 29.6635 19.4318 29.4672 19.7729C27.7065 22.8424 23.7744 23.9071 20.7064 22.1471C19.9937 21.7386 19.0883 21.9848 18.6813 22.6961L10.8417 36.3639H8.19005L21.7616 12.7011ZM55.4112 36.3639H14.2624L20.5753 25.3571C24.3531 26.7897 28.6654 25.6207 31.2011 22.4774L55.4112 36.3639ZM86.0325 84.55C86.0325 85.3677 85.3669 86.0334 84.5492 86.0334H4.44999C3.63228 86.0334 2.96667 85.3677 2.96667 84.55V40.8139C2.96667 39.9962 3.63228 39.3306 4.44999 39.3306H84.5492C85.3669 39.3306 86.0325 39.9962 86.0325 40.8139V84.55Z" fill="#EC5C29"/>
</g>
</svg>
