<svg width="19" height="18" viewBox="0 0 19 18" fill="none" xmlns="http://www.w3.org/2000/svg">
<path id="card-add" fill-rule="evenodd" clip-rule="evenodd" d="M5.55339 1H13.0513C13.6877 0.99999 14.2131 0.999982 14.641 1.03536C15.0854 1.0721 15.494 1.15095 15.8777 1.34878C16.4729 1.65557 16.9567 2.14511 17.2599 2.74723C17.4555 3.1355 17.5334 3.54886 17.5697 3.99854C17.6047 4.43149 17.6047 4.96297 17.6047 5.60694V7.8C17.6047 8.24183 17.2506 8.6 16.814 8.6C16.3773 8.6 16.0233 8.24183 16.0233 7.8V7H2.5814V10.76C2.5814 11.4453 2.58201 11.9111 2.61109 12.2712C2.63941 12.6219 2.69075 12.8013 2.75376 12.9264C2.90537 13.2274 3.14729 13.4722 3.44485 13.6256C3.56852 13.6894 3.7458 13.7413 4.09245 13.77C4.44833 13.7994 4.90875 13.8 5.58605 13.8H7.44419C7.88088 13.8 8.23489 14.1582 8.23489 14.6C8.23489 15.0418 7.88088 15.4 7.44419 15.4H5.55337C4.91689 15.4 4.39159 15.4 3.96367 15.3646C3.51922 15.3279 3.11067 15.2491 2.72691 15.0512C2.1318 14.7444 1.64795 14.2549 1.34472 13.6528C1.14919 13.2645 1.07126 12.8511 1.03494 12.4015C0.999982 11.9685 0.99999 11.437 1 10.793V5.60696C0.99999 4.96299 0.999982 4.4315 1.03494 3.99854C1.07126 3.54886 1.14919 3.1355 1.34472 2.74723C1.64795 2.14511 2.1318 1.65557 2.72691 1.34878C3.11067 1.15095 3.51922 1.0721 3.96367 1.03536C4.39159 0.999982 4.9169 0.99999 5.55339 1ZM2.58147 5.4H16.0232C16.0227 4.84323 16.0191 4.4452 15.9936 4.12883C15.9652 3.7781 15.9139 3.59874 15.8509 3.47362C15.6993 3.17256 15.4574 2.92779 15.1598 2.77439C15.0361 2.71064 14.8589 2.6587 14.5122 2.63004C14.1563 2.60062 13.6959 2.6 13.0186 2.6H5.58605C4.90875 2.6 4.44833 2.60062 4.09245 2.63004C3.7458 2.6587 3.56852 2.71064 3.44485 2.77439C3.14729 2.92779 2.90537 3.17256 2.75376 3.47362C2.69075 3.59874 2.63941 3.7781 2.61109 4.12883C2.58554 4.4452 2.58196 4.84323 2.58147 5.4ZM3.76744 9.4C3.76744 8.95817 4.12145 8.6 4.55814 8.6H7.72093C8.15762 8.6 8.51163 8.95817 8.51163 9.4C8.51163 9.84183 8.15762 10.2 7.72093 10.2H4.55814C4.12145 10.2 3.76744 9.84183 3.76744 9.4ZM14.4419 9.8C14.8786 9.8 15.2326 10.1582 15.2326 10.6V12.6H17.2093C17.646 12.6 18 12.9582 18 13.4C18 13.8418 17.646 14.2 17.2093 14.2H15.2326V16.2C15.2326 16.6418 14.8786 17 14.4419 17C14.0052 17 13.6512 16.6418 13.6512 16.2V14.2H11.6744C11.2377 14.2 10.8837 13.8418 10.8837 13.4C10.8837 12.9582 11.2377 12.6 11.6744 12.6H13.6512V10.6C13.6512 10.1582 14.0052 9.8 14.4419 9.8Z" fill="#EC5C29" stroke="white" stroke-width="0.2" stroke-linecap="round"/>
</svg>
