<svg width="21" height="18" viewBox="0 0 21 18" fill="none" xmlns="http://www.w3.org/2000/svg">
<g id="Drop-off flight">
<path id="Vector" d="M13.1417 6.75156L17.6273 5.54983C17.8645 5.48132 18.113 5.4608 18.3583 5.48947C18.6036 5.51815 18.8407 5.59545 19.0557 5.71685C19.2708 5.83824 19.4594 6.00131 19.6107 6.19649C19.762 6.39168 19.8728 6.61507 19.9367 6.8536C20.0006 7.09213 20.0163 7.34101 19.9829 7.58568C19.9495 7.83035 19.8676 8.0659 19.7421 8.27855C19.6165 8.4912 19.4498 8.67668 19.2518 8.82414C19.0537 8.97161 18.8282 9.07809 18.5885 9.13736L5.13267 12.7435L1 8.08144L3.69041 7.36078L5.9657 8.67395L8.65612 7.95328L5.18003 2.15454L7.87138 1.43295L13.1417 6.75156Z" stroke="#EC5C29" stroke-width="1.8" stroke-linecap="round" stroke-linejoin="round"/>
<path id="Vector_2" d="M2.33154 16.567H19.048" stroke="#EC5C29" stroke-width="1.8" stroke-linecap="round" stroke-linejoin="round"/>
</g>
</svg>
