<svg width="21" height="17" viewBox="0 0 21 17" fill="none" xmlns="http://www.w3.org/2000/svg">
<g id="Group 746">
<path id="Vector" d="M19.3838 8.06641V3.06641C19.3838 1.96184 18.4884 1.06641 17.3838 1.06641H3.38379C2.27922 1.06641 1.38379 1.96184 1.38379 3.06641V9.06641C1.38379 10.171 2.27922 11.0664 3.38379 11.0664H10.3838" stroke="white" stroke-width="1.7" stroke-linecap="round" stroke-linejoin="round"/>
<path id="Vector_2" fill-rule="evenodd" clip-rule="evenodd" d="M19.2625 11.9823C19.7563 12.286 19.7259 13.0253 19.2173 13.083L16.6507 13.3739L15.4995 15.6862C15.2714 16.1444 14.5663 15.9201 14.4497 15.3522L13.1944 9.23625C13.0959 8.75625 13.5273 8.45415 13.9446 8.71095L19.2625 11.9823Z" stroke="white" stroke-width="1.7"/>
<path id="Vector_3" d="M10.3838 6.07751L10.3938 6.06641" stroke="white" stroke-width="1.7" stroke-linecap="round" stroke-linejoin="round"/>
<path id="Vector_4" d="M14.3838 6.07751L14.3938 6.06641" stroke="white" stroke-width="1.7" stroke-linecap="round" stroke-linejoin="round"/>
<path id="Vector_5" d="M6.38379 6.07751L6.39379 6.06641" stroke="white" stroke-width="1.7" stroke-linecap="round" stroke-linejoin="round"/>
</g>
</svg>
