<svg width="16" height="15" viewBox="0 0 16 15" fill="none" xmlns="http://www.w3.org/2000/svg">
<g id="edit-3">
<mask id="path-1-outside-1_1944_352" maskUnits="userSpaceOnUse" x="-0.262207" y="-0.457031" width="16" height="16" fill="black">
<rect fill="white" x="-0.262207" y="-0.457031" width="16" height="16"/>
<path fill-rule="evenodd" clip-rule="evenodd" d="M8.67616 1.32014C9.71027 0.284466 11.3875 0.283832 12.4224 1.31872L13.7672 2.66354C14.7933 3.6896 14.8039 5.35068 13.7911 6.38983L7.04422 13.3122C6.3575 14.0168 5.41565 14.4141 4.43216 14.414L2.88692 14.414C1.66453 14.4139 0.688324 13.3949 0.739734 12.1727L0.807482 10.562C0.845927 9.64805 1.2258 8.78179 1.87193 8.13468L8.67616 1.32014ZM11.5039 2.23866C10.9767 1.71145 10.1222 1.71177 9.5954 2.23938L8.64186 3.19436L11.9075 6.45996L12.8609 5.48177C13.3768 4.95239 13.3714 4.10618 12.8487 3.58347L11.5039 2.23866ZM2.79117 9.05392L7.72332 4.11429L11 7.391L6.11395 12.4041C5.67182 12.8578 5.06542 13.1136 4.43221 13.1135L2.88698 13.1135C2.40371 13.1134 2.01777 12.7106 2.03809 12.2274L2.10584 10.6167C2.13059 10.0283 2.37517 9.47055 2.79117 9.05392ZM14.5126 14.4568C14.9267 14.4568 15.2623 14.1209 15.2623 13.7065C15.2623 13.2922 14.9267 12.9563 14.5126 12.9563H9.71495C9.30089 12.9563 8.96523 13.2922 8.96523 13.7065C8.96523 14.1209 9.30089 14.4568 9.71495 14.4568H14.5126Z"/>
</mask>
<path fill-rule="evenodd" clip-rule="evenodd" d="M8.67616 1.32014C9.71027 0.284466 11.3875 0.283832 12.4224 1.31872L13.7672 2.66354C14.7933 3.6896 14.8039 5.35068 13.7911 6.38983L7.04422 13.3122C6.3575 14.0168 5.41565 14.4141 4.43216 14.414L2.88692 14.414C1.66453 14.4139 0.688324 13.3949 0.739734 12.1727L0.807482 10.562C0.845927 9.64805 1.2258 8.78179 1.87193 8.13468L8.67616 1.32014ZM11.5039 2.23866C10.9767 1.71145 10.1222 1.71177 9.5954 2.23938L8.64186 3.19436L11.9075 6.45996L12.8609 5.48177C13.3768 4.95239 13.3714 4.10618 12.8487 3.58347L11.5039 2.23866ZM2.79117 9.05392L7.72332 4.11429L11 7.391L6.11395 12.4041C5.67182 12.8578 5.06542 13.1136 4.43221 13.1135L2.88698 13.1135C2.40371 13.1134 2.01777 12.7106 2.03809 12.2274L2.10584 10.6167C2.13059 10.0283 2.37517 9.47055 2.79117 9.05392ZM14.5126 14.4568C14.9267 14.4568 15.2623 14.1209 15.2623 13.7065C15.2623 13.2922 14.9267 12.9563 14.5126 12.9563H9.71495C9.30089 12.9563 8.96523 13.2922 8.96523 13.7065C8.96523 14.1209 9.30089 14.4568 9.71495 14.4568H14.5126Z" fill="white"/>
<path d="M12.4224 1.31872L12.281 1.46014L12.4224 1.31872ZM8.67616 1.32014L8.53463 1.17882L8.67616 1.32014ZM13.7672 2.66354L13.9086 2.52212L13.7672 2.66354ZM13.7911 6.38983L13.6479 6.25024L13.7911 6.38983ZM7.04422 13.3122L6.90099 13.1726L7.04422 13.3122ZM4.43216 14.414L4.43215 14.614L4.43216 14.414ZM2.88692 14.414L2.88693 14.214L2.88692 14.414ZM0.739734 12.1727L0.539911 12.1643L0.739734 12.1727ZM0.807482 10.562L1.00731 10.5705L0.807482 10.562ZM1.87193 8.13468L1.7304 7.99336L1.87193 8.13468ZM9.5954 2.23938L9.45387 2.09806V2.09806L9.5954 2.23938ZM11.5039 2.23866L11.3624 2.38008V2.38008L11.5039 2.23866ZM8.64186 3.19436L8.50033 3.05304C8.42233 3.13117 8.42238 3.25772 8.50044 3.33578L8.64186 3.19436ZM11.9075 6.45996L11.766 6.60138C11.8039 6.6392 11.8553 6.6603 11.9087 6.65996C11.9622 6.65961 12.0134 6.63786 12.0507 6.59955L11.9075 6.45996ZM12.8609 5.48177L13.0041 5.62137L12.8609 5.48177ZM12.8487 3.58347L12.9901 3.44205V3.44205L12.8487 3.58347ZM7.72332 4.11429L7.86474 3.97287C7.82722 3.93535 7.77631 3.91427 7.72324 3.91429C7.67017 3.91431 7.61929 3.93542 7.58179 3.97298L7.72332 4.11429ZM2.79117 9.05392L2.9327 9.19523L2.79117 9.05392ZM11 7.391L11.1432 7.53059C11.2196 7.45221 11.2188 7.32697 11.1414 7.24958L11 7.391ZM6.11395 12.4041L6.25718 12.5437L6.11395 12.4041ZM4.43221 13.1135L4.43221 13.3135L4.43221 13.1135ZM2.88698 13.1135L2.88699 12.9135L2.88698 13.1135ZM2.03809 12.2274L1.83827 12.219L2.03809 12.2274ZM2.10584 10.6167L2.30566 10.6251V10.6251L2.10584 10.6167ZM12.5638 1.1773C11.4508 0.0642637 9.64682 0.0649456 8.53463 1.17882L8.81769 1.46145C9.77371 0.503986 11.3242 0.5034 12.281 1.46014L12.5638 1.1773ZM13.9086 2.52212L12.5638 1.1773L12.281 1.46014L13.6258 2.80496L13.9086 2.52212ZM13.9343 6.52943C15.0236 5.41189 15.0121 3.62558 13.9086 2.52212L13.6258 2.80496C14.5745 3.75363 14.5843 5.28947 13.6479 6.25024L13.9343 6.52943ZM7.18744 13.4518L13.9343 6.52943L13.6479 6.25024L6.90099 13.1726L7.18744 13.4518ZM4.43215 14.614C5.4696 14.6141 6.4631 14.195 7.18744 13.4518L6.90099 13.1726C6.25191 13.8386 5.3617 14.2141 4.43217 14.214L4.43215 14.614ZM2.88692 14.614L4.43215 14.614L4.43217 14.214L2.88693 14.214L2.88692 14.614ZM0.539911 12.1643C0.483727 13.5 1.55062 14.6139 2.88692 14.614L2.88693 14.214C1.77845 14.2139 0.892922 13.2898 0.939558 12.1811L0.539911 12.1643ZM0.607659 10.5536L0.539911 12.1643L0.939558 12.1811L1.00731 10.5705L0.607659 10.5536ZM1.7304 7.99336C1.04887 8.67593 0.648208 9.58963 0.607659 10.5536L1.00731 10.5705C1.04365 9.70647 1.40273 8.88765 2.01346 8.27599L1.7304 7.99336ZM8.53463 1.17882L1.7304 7.99336L2.01346 8.27599L8.81769 1.46145L8.53463 1.17882ZM9.73693 2.38069C10.1856 1.93129 10.9134 1.93102 11.3624 2.38008L11.6453 2.09723C11.0399 1.49188 10.0588 1.49225 9.45387 2.09806L9.73693 2.38069ZM8.78339 3.33567L9.73693 2.38069L9.45387 2.09806L8.50033 3.05304L8.78339 3.33567ZM12.0489 6.31854L8.78328 3.05294L8.50044 3.33578L11.766 6.60138L12.0489 6.31854ZM12.7176 5.34218L11.7642 6.32037L12.0507 6.59955L13.0041 5.62137L12.7176 5.34218ZM12.7073 3.7249C13.1526 4.17021 13.1572 4.89118 12.7176 5.34218L13.0041 5.62137C13.5964 5.0136 13.5902 4.04216 12.9901 3.44205L12.7073 3.7249ZM11.3624 2.38008L12.7073 3.7249L12.9901 3.44205L11.6453 2.09723L11.3624 2.38008ZM7.58179 3.97298L2.64964 8.9126L2.9327 9.19523L7.86485 4.25561L7.58179 3.97298ZM11.1414 7.24958L7.86474 3.97287L7.5819 4.25571L10.8586 7.53242L11.1414 7.24958ZM6.25718 12.5437L11.1432 7.53059L10.8568 7.2514L5.97073 12.2645L6.25718 12.5437ZM4.43221 13.3135C5.11937 13.3136 5.77742 13.036 6.25718 12.5437L5.97073 12.2645C5.56622 12.6796 5.01147 12.9136 4.43222 12.9135L4.43221 13.3135ZM2.88697 13.3135L4.43221 13.3135L4.43222 12.9135L2.88699 12.9135L2.88697 13.3135ZM1.83827 12.219C1.81317 12.8157 2.2898 13.3134 2.88697 13.3135L2.88699 12.9135C2.51762 12.9135 2.22236 12.6055 2.23792 12.2358L1.83827 12.219ZM1.90602 10.6083L1.83827 12.219L2.23792 12.2358L2.30566 10.6251L1.90602 10.6083ZM2.64964 8.9126C2.19824 9.36469 1.93287 9.96986 1.90602 10.6083L2.30566 10.6251C2.32831 10.0867 2.5521 9.57641 2.9327 9.19523L2.64964 8.9126ZM15.0623 13.7065C15.0623 14.0106 14.8161 14.2568 14.5126 14.2568V14.6568C15.0373 14.6568 15.4623 14.2312 15.4623 13.7065H15.0623ZM14.5126 13.1563C14.8161 13.1563 15.0623 13.4025 15.0623 13.7065H15.4623C15.4623 13.1819 15.0373 12.7563 14.5126 12.7563V13.1563ZM9.71495 13.1563H14.5126V12.7563H9.71495V13.1563ZM9.16523 13.7065C9.16523 13.4025 9.41149 13.1563 9.71495 13.1563V12.7563C9.19029 12.7563 8.76523 13.1819 8.76523 13.7065H9.16523ZM9.71495 14.2568C9.41149 14.2568 9.16523 14.0106 9.16523 13.7065H8.76523C8.76523 14.2312 9.19029 14.6568 9.71495 14.6568V14.2568ZM14.5126 14.2568H9.71495V14.6568H14.5126V14.2568Z" fill="white" mask="url(#path-1-outside-1_1944_352)"/>
</g>
</svg>
