<svg width="18" height="15" viewBox="0 0 18 15" fill="none" xmlns="http://www.w3.org/2000/svg">
<path d="M14.715 14.625L13.77 13.7163L15.4125 12.1154H11.34V10.8173H15.4125L13.77 9.21635L14.715 8.30769L18 11.4663L14.715 14.625ZM1.35 12.1154C0.97875 12.1154 0.660938 11.9883 0.396563 11.7341C0.132188 11.4799 0 11.1743 0 10.8173V1.29808C0 0.941106 0.132188 0.635517 0.396563 0.38131C0.660938 0.127103 0.97875 0 1.35 0H13.95C14.3213 0 14.6391 0.127103 14.9034 0.38131C15.1678 0.635517 15.3 0.941106 15.3 1.29808V6.31731C15.1875 6.30288 15.075 6.29207 14.9625 6.28486C14.85 6.27764 14.7375 6.27404 14.625 6.27404C14.505 6.27404 14.3925 6.27764 14.2875 6.28486C14.1825 6.29207 14.07 6.30288 13.95 6.31731V2.3149L7.56 6.66346L1.35 2.33654V10.8173H9.2475C9.2325 10.9327 9.225 11.03 9.225 11.1094V11.4068C9.225 11.5258 9.22875 11.6448 9.23625 11.7638C9.24375 11.8828 9.2625 12 9.2925 12.1154H1.35ZM2.16 1.29808L7.56 5.0625L13.095 1.29808H2.16Z" fill="#EC5C29"/>
</svg>
