<svg width="29" height="18" viewBox="0 0 29 18" fill="none" xmlns="http://www.w3.org/2000/svg">
<path id="Vector" d="M2.57778 0C1.16082 0 0 1.15798 0 2.57143V15.4286C0 16.842 1.16082 18 2.57778 18H26.4222C27.8392 18 29 16.842 29 15.4286V2.57143C29 1.15798 27.8392 0 26.4222 0H2.57778ZM2.57778 1.28571H26.4222C26.4884 1.28571 26.5504 1.29665 26.6135 1.30565L15.1243 11.0791C14.8275 11.3314 14.1725 11.3314 13.8757 11.0791L2.38646 1.30565C2.44963 1.29665 2.51161 1.28571 2.57778 1.28571ZM1.36944 2.12946L9.85799 9.35158L1.37951 15.9107C1.32284 15.7641 1.28889 15.598 1.28889 15.4286V2.57143C1.28889 2.41345 1.31985 2.2679 1.36944 2.12946ZM27.6306 2.12946C27.6801 2.2679 27.7111 2.41345 27.7111 2.57143V15.4286C27.7111 15.598 27.6772 15.7641 27.6205 15.9107L19.142 9.35158L27.6306 2.12946ZM10.8649 10.2054L13.0399 12.0536C13.8758 12.7641 15.1242 12.7641 15.9601 12.0536L18.1351 10.2054L26.5431 16.7043C26.5023 16.7078 26.4641 16.7142 26.4222 16.7142H2.57778C2.53592 16.7142 2.49765 16.7078 2.45694 16.7043L10.8649 10.2054Z" fill="#EC5C29"/>
</svg>
