<svg width="67" height="102" viewBox="0 0 67 102" fill="none" xmlns="http://www.w3.org/2000/svg">
<path d="M59.5044 11.273C59.5044 5.87144 55.1255 1.4928 49.7242 1.4928H11.2724C5.87083 1.4928 1.49219 5.87164 1.49219 11.273V84.0133C1.49219 89.4149 5.87103 93.7935 11.2724 93.7935H49.0611C54.8287 93.7935 59.5042 89.1179 59.5042 83.3505V11.273H59.5044Z" fill="white"/>
<path d="M48.969 87.8224H11.2738C9.17028 87.8224 7.46484 86.1171 7.46484 84.0134V11.2731C7.46484 9.16955 9.17008 7.46431 11.2736 7.46431H19.0602C19.6509 7.46431 20.2073 7.74238 20.562 8.21472L21.6725 9.69364C22.1679 10.3535 22.9448 10.7416 23.7698 10.7416H37.2288C38.0539 10.7416 38.8309 10.3535 39.3262 9.69364L40.4367 8.21452C40.7914 7.74218 41.3477 7.46411 41.9385 7.46411H49.7248C51.8283 7.46411 53.5338 9.16935 53.5338 11.2731V83.257C53.5342 85.7785 51.4902 87.8224 48.969 87.8224Z" fill="white"/>
<path d="M49.7475 69.3151C49.7475 67.1773 51.4812 65.4436 53.6189 65.4436C54.6898 65.4436 55.6572 65.8775 56.3578 66.5782C57.0585 67.2788 57.4924 68.2462 57.4924 69.3151V72.0082C57.4924 69.8704 59.2261 68.1367 61.3639 68.1367C62.4328 68.1367 63.4001 68.5706 64.1008 69.2713C64.8014 69.9719 65.2354 70.9393 65.2354 72.0082V97.9472C65.2354 99.3207 64.1219 100.434 62.7485 100.434H31.4604C30.5024 100.434 29.6296 99.8838 29.2165 99.0195L27.7436 95.9373C26.2834 92.8813 25.5254 89.5375 25.5254 86.1507V76.065C25.5254 72.5297 28.3915 69.6636 31.9268 69.6636H34.2596V50.9281C34.2596 48.7939 35.9437 46.9855 38.0777 46.9567C39.1677 46.9419 40.1578 47.3786 40.87 48.0908C41.5706 48.7915 42.0045 49.7588 42.0045 50.8277V65.7065C42.0045 63.5688 43.7382 61.8351 45.876 61.8351C46.9449 61.8351 47.9123 62.269 48.6129 62.9696C49.3136 63.6703 49.7475 64.6377 49.7475 65.7065V69.3151Z" fill="white"/>
<path d="M30.4986 39.7905C36.108 39.7905 40.6554 35.2432 40.6554 29.6337C40.6554 24.0243 36.108 19.4769 30.4986 19.4769C24.8891 19.4769 20.3418 24.0243 20.3418 29.6337C20.3418 35.2432 24.8891 39.7905 30.4986 39.7905Z" fill="white"/>
<path d="M20.598 92.3007H11.2731C6.70332 92.3007 2.98571 88.5829 2.98571 84.0134V11.2733C2.98571 6.70352 6.70352 2.98571 11.2731 2.98571H49.7246C54.2944 2.98571 58.012 6.70352 58.012 11.2733V23.6023C58.012 24.4269 58.6804 25.0951 59.5048 25.0951C60.3293 25.0951 60.9977 24.4269 60.9977 23.6023V11.2733C60.9979 5.057 55.9407 0 49.7246 0H11.2731C5.057 0 0 5.057 0 11.2733V84.0134C0 90.2294 5.0572 95.2864 11.2731 95.2864H20.598C21.4225 95.2864 22.0909 94.6182 22.0909 93.7936C22.0909 92.9689 21.4225 92.3007 20.598 92.3007Z" fill="black"/>
<path d="M59.5046 28.4714C58.6801 28.4714 58.0117 29.1396 58.0117 29.9643V61.4367C58.0117 62.2613 58.6801 62.9295 59.5046 62.9295C60.329 62.9295 60.9974 62.2613 60.9974 61.4367V29.9643C60.9974 29.1396 60.329 28.4714 59.5046 28.4714Z" fill="black"/>
<path d="M7.46356 67.1318C6.6391 67.1318 5.9707 67.8 5.9707 68.6247V84.0135C5.9707 86.9369 8.34912 89.3153 11.2725 89.3153H19.6039C20.4283 89.3153 21.0967 88.6471 21.0967 87.8224C21.0967 86.9978 20.4283 86.3296 19.6039 86.3296H11.2725C9.99544 86.3296 8.95642 85.2905 8.95642 84.0135V68.6247C8.95642 67.8 8.28801 67.1318 7.46356 67.1318Z" fill="black"/>
<path d="M53.5329 60.6973C54.3573 60.6973 55.0258 60.0291 55.0258 59.2045V11.2733C55.0258 8.34985 52.6473 5.97144 49.7239 5.97144H41.9376C40.8828 5.97144 39.8751 6.47503 39.2419 7.31839L38.1312 8.79751C37.919 9.08036 37.5812 9.24915 37.2275 9.24915H23.7685C23.415 9.24915 23.0772 9.08036 22.8649 8.79731L21.7544 7.31859C21.1214 6.47503 20.1136 5.97144 19.0589 5.97144H11.2723C8.34892 5.97144 5.9707 8.34985 5.9707 11.2733V62.2629C5.9707 63.0875 6.6391 63.7557 7.46356 63.7557C8.28801 63.7557 8.95641 63.0875 8.95641 62.2629V11.2733C8.95641 9.99618 9.99544 8.95715 11.2723 8.95715H19.0589C19.1793 8.95715 19.2945 9.01467 19.367 9.11121L20.4775 10.5899C21.2506 11.6198 22.4809 12.2347 23.7689 12.2347H37.2279C38.5158 12.2347 39.7463 11.6198 40.5192 10.5901L41.6299 9.11101C41.7021 9.01467 41.8174 8.95715 41.9378 8.95715H49.7241C51.0012 8.95715 52.0402 9.99618 52.0402 11.2733V59.2047C52.04 60.0291 52.7084 60.6973 53.5329 60.6973Z" fill="black"/>
<path d="M61.3638 66.6439C60.3651 66.6439 59.4298 66.919 58.6282 67.3961C57.8544 65.3836 55.9017 63.9506 53.6198 63.9506C52.7169 63.9506 51.866 64.1757 51.1188 64.5715C50.5967 62.1564 48.4448 60.3413 45.8759 60.3413C45.0218 60.3413 44.2142 60.5429 43.4967 60.8994V50.8278C43.4967 47.8696 41.09 45.4629 38.1317 45.4629C35.1735 45.4629 32.7668 47.8696 32.7668 50.8278V68.1708H31.926C27.5739 68.1708 24.0332 71.7115 24.0332 76.0637V86.1506C24.0332 89.7384 24.8509 93.3457 26.3981 96.5831L28.546 101.077C28.8024 101.613 29.3368 101.927 29.894 101.927C30.1097 101.927 30.3291 101.88 30.5367 101.78C31.2805 101.425 31.5954 100.534 31.2399 99.7897L29.092 95.2956C27.7359 92.458 27.0189 89.2957 27.0189 86.1508V76.0639C27.0189 73.358 29.2204 71.1567 31.926 71.1567H32.7668V82.1597C32.7668 82.9843 33.4352 83.6525 34.2597 83.6525C35.0841 83.6525 35.7525 82.9843 35.7525 82.1597V50.8278C35.7525 49.5159 36.8198 48.4486 38.1317 48.4486C39.4437 48.4486 40.511 49.5159 40.511 50.8278V71.2598C40.511 72.0845 41.1794 72.7527 42.0038 72.7527C42.8283 72.7527 43.4967 72.0845 43.4967 71.2598V65.7062C43.4967 64.3943 44.564 63.327 45.8759 63.327C47.1878 63.327 48.2551 64.3943 48.2551 65.7062V73.0821C48.2551 73.9068 48.9235 74.575 49.7479 74.575C50.5724 74.575 51.2408 73.9068 51.2408 73.0821V69.3155C51.2408 68.0036 52.3081 66.9365 53.62 66.9365C54.9319 66.9365 55.9992 68.0036 55.9992 69.3155V74.6829C55.9992 75.5075 56.6676 76.1757 57.4921 76.1757C58.3165 76.1757 58.9849 75.5075 58.9849 74.6829V72.0089C58.9849 70.6969 60.0522 69.6296 61.3642 69.6296C62.6761 69.6296 63.7434 70.6969 63.7434 72.0089V83.2341C63.7434 84.0588 64.4118 84.727 65.2362 84.727C66.0607 84.727 66.7291 84.0588 66.7291 83.2341V72.0089C66.7285 69.0506 64.3218 66.6439 61.3638 66.6439Z" fill="black"/>
<path d="M65.235 88.1035C64.4106 88.1035 63.7422 88.7717 63.7422 89.5964V100.434C63.7422 101.258 64.4106 101.927 65.235 101.927C66.0595 101.927 66.7279 101.258 66.7279 100.434V89.5964C66.7279 88.7717 66.0595 88.1035 65.235 88.1035Z" fill="black"/>
<path d="M42.1487 29.6338C42.1487 27.4453 41.541 25.3965 40.4873 23.6455L44.4389 19.6938C45.022 19.1106 45.022 18.1655 44.4389 17.5825C43.8559 16.9997 42.9107 16.9997 42.3279 17.5825L38.6188 21.2915C36.5189 19.2471 33.6544 17.9844 30.4993 17.9844C24.0756 17.9844 18.8496 23.2104 18.8496 29.6338C18.8496 36.0575 24.0756 41.2835 30.4993 41.2835C36.9229 41.2835 42.1487 36.0575 42.1487 29.6338ZM21.8351 29.6338C21.8351 24.8565 25.7217 20.9701 30.4991 20.9701C32.8311 20.9701 34.9494 21.8978 36.5085 23.4016L29.7813 30.1289L28.511 29.1135C27.8669 28.5984 26.9274 28.7037 26.4128 29.3476C25.8981 29.9915 26.0028 30.931 26.6469 31.4458L28.9604 33.2949C29.2343 33.5139 29.5637 33.6217 29.8922 33.6217C30.2759 33.6217 30.6583 33.4742 30.9481 33.1846L38.2886 25.8442C38.8481 26.9897 39.1632 28.2755 39.1632 29.6338C39.1632 34.4112 35.2766 38.2978 30.4993 38.2978C25.7219 38.2978 21.8351 34.4112 21.8351 29.6338V29.6338Z" fill="black"/>
</svg>
