<svg width="99" height="99" viewBox="0 0 99 99" fill="none" xmlns="http://www.w3.org/2000/svg">
<path d="M49.1184 84.231C49.0322 84.0961 25.1834 46.6904 25.1714 46.6709C22.1187 42.1005 20.3379 36.6067 20.3379 30.6992C20.3379 14.8047 33.2239 1.9187 49.1184 1.9187C65.0129 1.9187 77.8989 14.8047 77.8989 30.6992C77.8989 36.6067 76.1181 42.1005 73.0655 46.6709C73.0535 46.6897 49.2024 84.0991 49.1184 84.231ZM63.4937 40.2695C65.3869 37.4417 66.3867 34.1297 66.3867 30.6992C66.3867 21.1769 58.6407 13.4309 49.1184 13.4309C39.5961 13.4309 31.8501 21.1769 31.8501 30.6992C31.8501 34.1297 32.8499 37.4417 34.7454 40.2732C37.9652 45.0917 43.3353 47.9675 49.1184 47.9675C54.9015 47.9675 60.2716 45.0917 63.4937 40.2695Z" fill="white"/>
<path d="M60.6316 49.8864C59.5726 49.8864 58.7129 50.746 58.7129 51.8051C58.7129 52.8641 59.5726 53.7238 60.6316 53.7238C61.6906 53.7238 62.5503 52.8641 62.5503 51.8051C62.5503 50.746 61.6906 49.8864 60.6316 49.8864Z" fill="black"/>
<path d="M19.6029 70.9507L0.415843 95.1264C-0.0420974 95.7027 -0.129039 96.4905 0.190995 97.153C0.511028 97.8163 1.18257 98.2375 1.91858 98.2375H96.3187C97.0547 98.2375 97.7262 97.8163 98.0463 97.153C98.3671 96.4905 98.2794 95.7027 97.8214 95.1264L78.6344 70.9507C78.2709 70.4921 77.717 70.2245 77.1317 70.2245H60.3243L74.6733 47.7187C78.0393 42.6724 79.8179 36.7874 79.8179 30.6992C79.8179 13.7719 66.0467 0 49.1186 0C32.1906 0 18.4194 13.7719 18.4194 30.6992C18.4194 36.7874 20.198 42.6716 23.5639 47.7187L37.913 70.2245H21.1056C20.5202 70.2245 19.9671 70.4921 19.6029 70.9507ZM12.4392 86.1497H24.0406L17.493 94.4001H5.89089L12.4392 86.1497ZM40.3601 74.0619L45.62 82.3123H31.9852L38.5336 74.0619H40.3601ZM57.878 74.0619H59.7045L66.252 82.3123H52.618L57.878 74.0619ZM69.298 86.1497L75.8456 94.4001H22.3917L28.94 86.1497H69.298ZM80.745 94.4001L74.1967 86.1497H85.7988L92.3464 94.4001H80.745ZM82.7529 82.3123H71.1515L64.6032 74.0619H76.2053L82.7529 82.3123ZM26.7673 45.6051C23.8165 41.1876 22.2568 36.0334 22.2568 30.6992C22.2568 15.8877 34.3072 3.8374 49.1186 3.8374C63.9301 3.8374 75.9805 15.8877 75.9805 30.6992C75.9805 36.0334 74.4208 41.1876 71.4708 45.6051C71.4625 45.6164 71.4558 45.6276 71.4483 45.6389C70.1884 47.6153 50.0892 79.1404 49.1186 80.6619C46.6775 76.8328 29.2751 49.5377 26.789 45.6389C26.7823 45.6276 26.7748 45.6164 26.7673 45.6051ZM33.6341 74.0619L27.0865 82.3123H15.4844L22.0327 74.0619H33.6341Z" fill="black"/>
<path d="M49.1187 49.8862C59.652 49.8862 68.3057 41.3563 68.3057 30.6992C68.3057 20.1194 59.6985 11.5122 49.1187 11.5122C38.5388 11.5122 29.9316 20.1194 29.9316 30.6992C29.9316 41.3593 38.5883 49.8862 49.1187 49.8862ZM49.1187 15.3496C57.5827 15.3496 64.4683 22.2352 64.4683 30.6992C64.4683 39.2419 57.5272 46.0488 49.1187 46.0488C40.7078 46.0488 33.769 39.2419 33.769 30.6992C33.769 22.2352 40.6546 15.3496 49.1187 15.3496Z" fill="black"/>
<path d="M57.2004 56.4339C56.2935 55.8867 55.1138 56.179 54.5667 57.0867L47.475 68.8522C46.9279 69.7598 47.2202 70.9388 48.1278 71.4859C49.0392 72.0353 50.2166 71.737 50.7615 70.8331L57.8532 59.0676C58.4003 58.1599 58.108 56.981 57.2004 56.4339Z" fill="black"/>
</svg>
