<svg width="119" height="76" viewBox="0 0 119 76" fill="none" xmlns="http://www.w3.org/2000/svg">
<path d="M38.5804 36.0983L29.5273 30.7344L40.072 25.0967L54.5587 25.9622L53.6833 33.4089L38.5804 36.0983Z" fill="white"/>
<path d="M115.62 10.2195C116.985 12.7724 116.652 16.1146 114.296 18.3268C107.845 24.3794 100.734 29.6919 93.069 34.1126C89.3132 36.2807 84.8325 38.6478 79.3155 41.1737L54.0092 50.9872C47.582 53.1294 40.3425 55.3264 32.157 57.5617L22.3142 59.73C19.685 59.8653 17.1111 58.7461 15.4166 56.6641L1.74414 39.8729L9.27415 35.8471L16.5554 40.9057C20.7339 43.8087 26.2456 43.925 30.5424 41.199L89.165 4.0046C93.2524 1.40882 98.3704 1.03031 102.797 2.99209L112.419 7.25931C113.871 7.90347 114.95 8.96606 115.62 10.2195Z" fill="white"/>
<path d="M54.1787 47.8593L83.7445 33.6016L63.3028 68.5483L52.7588 74.1857L54.1787 47.8593Z" fill="white"/>
<path d="M22.7013 57.3342L35.3756 51.333L26.8116 67.9202L20.4531 71.3199L22.7013 57.3342Z" fill="white"/>
<path d="M20.2873 61.3546L18.7299 71.043C18.6244 71.6976 18.8995 72.3553 19.4391 72.7403C19.7405 72.9552 20.0957 73.0646 20.4523 73.0646C20.7341 73.0646 21.0166 72.9965 21.2749 72.8585L27.6334 69.4588C27.9452 69.292 28.1988 69.0349 28.3611 68.7205L33.3583 59.0415C39.9921 57.2189 46.2917 55.3402 52.1302 53.4426L51.0162 74.0921C50.9822 74.721 51.2899 75.3197 51.8214 75.6578C52.1065 75.8392 52.4321 75.9306 52.7585 75.9306C53.0407 75.9306 53.3232 75.8623 53.581 75.7245L64.1255 70.0871C64.4098 69.9352 64.6462 69.7074 64.8089 69.4293L80.5451 42.5273C85.3453 40.313 89.7357 38.0523 93.9413 35.6243C101.637 31.1854 108.888 25.7938 115.491 19.5989C118.283 16.977 118.969 12.7818 117.16 9.39742C116.268 7.73037 114.874 6.43975 113.126 5.66496L103.504 1.39682C98.5303 -0.807533 92.8194 -0.383326 88.2305 2.53119L76.4739 9.99034C75.6601 10.5066 75.4191 11.5845 75.9354 12.3983C76.4517 13.212 77.5295 13.453 78.3433 12.9367L90.1006 5.47709C93.7034 3.18896 98.1857 2.85661 102.09 4.58667L103.487 5.20613L99.7782 7.18915C98.9722 7.62005 98.5817 8.59701 98.9409 9.43735C99.2298 10.1129 99.8774 10.5013 100.549 10.5013C100.826 10.5013 101.108 10.4349 101.37 10.295L107.533 7.00035L111.712 8.85389C112.742 9.31064 113.561 10.067 114.083 11.0416C115.15 13.0378 114.747 15.5103 113.104 17.0541C106.696 23.0655 99.6626 28.2963 92.1976 32.6014C89.4632 34.18 86.6472 35.6869 83.6861 37.1571L85.2172 34.5394C85.5689 33.9381 85.5763 33.1747 85.1768 32.6041C84.6773 31.8917 83.7491 31.6622 82.987 32.0299L53.4211 46.2874C52.8482 46.5637 52.4711 47.1298 52.437 47.765L52.3322 49.7046C47.0972 51.4289 41.4683 53.1407 35.5426 54.8113L36.8946 52.1926C37.205 51.5919 37.1858 50.854 36.7873 50.3077C36.285 49.6192 35.3775 49.4014 34.6286 49.7559L21.9546 55.7571C21.4348 56.0031 21.0699 56.4894 20.9788 57.0569L20.8417 57.9097C19.2598 57.6535 17.7991 56.8259 16.7709 55.562L4.43519 40.4125L9.15662 37.8882L15.561 42.3378C20.3291 45.65 26.5768 45.7811 31.4782 42.6713L71.8122 17.0807C72.626 16.5644 72.8669 15.4866 72.3506 14.6728C71.8344 13.859 70.7565 13.618 69.9427 14.1343L54.0989 24.1867L40.1761 23.3551C39.8546 23.3362 39.5335 23.4064 39.2494 23.5582L28.7497 29.1717C28.3068 29.4085 27.9618 29.8099 27.8378 30.2964C27.6414 31.0672 27.9823 31.8471 28.6378 32.2355L35.2441 36.1496L29.6081 39.7256C25.8955 42.0807 21.1627 41.9817 17.5512 39.4727L10.27 34.414C9.732 34.0399 9.02991 33.9993 8.45199 34.3081L0.921986 38.3339C0.462237 38.5797 0.136581 39.018 0.0341068 39.529C-0.0683674 40.04 0.0627257 40.5699 0.391612 40.9742L14.0638 57.7655C15.6356 59.697 17.8685 60.9625 20.2873 61.3546ZM55.8652 48.9832L79.3507 37.6577L62.0455 67.2423L54.6674 71.187L55.8652 48.9832ZM24.2773 58.5179L31.4565 55.1182L25.5096 66.6373L22.7335 68.1216L24.2773 58.5179ZM33.0818 30.8124L40.4602 26.8677L49.0636 27.3814L38.5501 34.0522L33.0818 30.8124Z" fill="black"/>
<path d="M41.1005 44.5917C40.6809 43.9778 39.9043 43.6782 39.1835 43.8804C38.4936 44.074 37.9856 44.6771 37.9129 45.3895C37.8405 46.1006 38.2294 46.7972 38.865 47.1175C39.5511 47.4633 40.4067 47.3098 40.9295 46.745C41.4707 46.1602 41.5383 45.2561 41.1005 44.5917Z" fill="black"/>
<path d="M69.918 27.3985C69.0666 27.8545 68.7455 28.9104 69.2016 29.7618C69.5157 30.348 70.1181 30.6829 70.7415 30.6829C71.0182 30.6829 71.2998 30.6179 71.5626 30.4759C72.4118 30.0224 72.7328 28.9663 72.2767 28.1148C71.823 27.266 70.7669 26.9449 69.918 27.3985Z" fill="black"/>
<path d="M64.7349 30.1716C63.8858 30.6251 63.5647 31.6813 64.0185 32.5304C64.3326 33.1189 64.9373 33.4538 65.5584 33.4538C65.8376 33.4538 66.119 33.3887 66.3795 33.2468C67.2309 32.7933 67.5497 31.7371 67.0959 30.8857C66.6424 30.0366 65.584 29.7156 64.7349 30.1716Z" fill="black"/>
<path d="M81.1048 25.142C81.3815 25.142 81.6631 25.077 81.9259 24.9373C82.775 24.4813 83.0961 23.4254 82.6423 22.574C82.1865 21.7248 81.1304 21.4038 80.2813 21.8599C79.4299 22.3134 79.1088 23.3695 79.5649 24.2209C79.879 24.8071 80.4814 25.142 81.1048 25.142Z" fill="black"/>
<path d="M86.2859 22.3715C86.5652 22.3715 86.8465 22.3064 87.1071 22.1644C87.9585 21.7109 88.2772 20.6548 87.8235 19.8057C87.3699 18.9543 86.3115 18.6332 85.4624 19.0893C84.6133 19.5428 84.2923 20.5989 84.746 21.4503C85.0599 22.0366 85.6648 22.3715 86.2859 22.3715Z" fill="black"/>
<path d="M75.9226 27.9128C76.2019 27.9128 76.4832 27.8477 76.7438 27.7058C77.5952 27.2522 77.9139 26.1961 77.4602 25.3447C77.0067 24.4956 75.9482 24.1746 75.0991 24.6306C74.25 25.0841 73.929 26.1403 74.3827 26.9917C74.6966 27.5777 75.3015 27.9128 75.9226 27.9128Z" fill="black"/>
<path d="M49.1892 38.4807C48.3401 38.9368 48.019 39.9927 48.4751 40.8418C48.7892 41.4303 49.3916 41.7652 50.015 41.7652C50.2917 41.7652 50.5733 41.6978 50.8362 41.5582C51.6853 41.1047 52.0063 40.0462 51.5502 39.1971C51.0967 38.3482 50.0406 38.0272 49.1892 38.4807Z" fill="black"/>
<path d="M59.5547 32.9396C58.7033 33.3957 58.3823 34.4516 58.8383 35.303C59.1524 35.8892 59.7548 36.2241 60.3782 36.2241C60.6549 36.2241 60.9365 36.1567 61.1994 36.0171C62.0485 35.5636 62.3695 34.5051 61.9135 33.656C61.4599 32.8069 60.4038 32.4859 59.5547 32.9396Z" fill="black"/>
<path d="M44.0083 41.2514C43.1592 41.7049 42.8382 42.7633 43.2919 43.6124C43.606 44.201 44.2084 44.5359 44.8318 44.5359C45.1111 44.5359 45.3924 44.4685 45.653 44.3288C46.5044 43.8753 46.8231 42.8169 46.3694 41.9678C45.9156 41.1187 44.8574 40.7976 44.0083 41.2514Z" fill="black"/>
<path d="M54.3716 35.7102C53.5225 36.1663 53.2014 37.2222 53.6552 38.0713C53.9693 38.6598 54.5717 38.9947 55.1951 38.9947C55.4743 38.9947 55.7557 38.9273 56.0163 38.7877C56.8677 38.3342 57.1864 37.2757 56.7326 36.4266C56.2791 35.5777 55.2207 35.2567 54.3716 35.7102Z" fill="black"/>
<path d="M90.0169 18.8262C90.4085 19.4212 91.1575 19.7136 91.8496 19.5588C92.5916 19.3926 93.1504 18.7422 93.2053 17.9845C93.3184 16.4215 91.3894 15.5182 90.258 16.5995C89.6522 17.1783 89.5585 18.1301 90.0169 18.8262Z" fill="black"/>
</svg>
