<svg width="85" height="98" viewBox="0 0 85 98" fill="none" xmlns="http://www.w3.org/2000/svg">
<path d="M14.5901 1.62109V95.6462H8.10558C4.5243 95.6462 1.62109 92.743 1.62109 89.1617V8.10558C1.62109 4.5243 4.5243 1.62109 8.10558 1.62109H14.5901Z" fill="white"/>
<path d="M76.1925 4.86334V92.4039C76.1871 94.1924 74.7387 95.6408 72.9502 95.6462H14.5898V1.62109H72.9502C74.7387 1.62644 76.1871 3.07491 76.1925 4.86334Z" fill="white"/>
<path d="M76.1924 9.72668H77.8135C80.4995 9.72668 82.6769 11.9041 82.6769 14.5901V21.0745C82.6769 23.7605 80.4995 25.9379 77.8135 25.9379H76.1924V9.72668Z" fill="white"/>
<path d="M76.1924 25.9379H77.8135C80.4995 25.9379 82.6769 28.1153 82.6769 30.8012V37.2857C82.6769 39.9717 80.4995 42.1491 77.8135 42.1491H76.1924V25.9379Z" fill="white"/>
<path d="M76.1924 42.1492H77.8135C80.4995 42.1492 82.6769 44.3266 82.6769 47.0125V53.497C82.6769 56.183 80.4995 58.3604 77.8135 58.3604H76.1924V42.1492Z" fill="white"/>
<path d="M76.1924 58.3604H77.8135C80.4995 58.3604 82.6769 60.5378 82.6769 63.2237V69.7082C82.6769 72.3942 80.4995 74.5716 77.8135 74.5716H76.1924V58.3604Z" fill="white"/>
<path d="M64.8445 9.72668H25.9376C24.1469 9.72668 22.6953 11.1783 22.6953 12.9689V51.8759C22.6953 53.6665 24.1469 55.1181 25.9376 55.1181H64.8445C66.6351 55.1181 68.0867 53.6665 68.0867 51.8759V12.9689C68.0867 11.1783 66.6351 9.72668 64.8445 9.72668Z" fill="white"/>
<path d="M60.9998 43.5108L57.2259 47.2864C53.46 51.0506 46.0531 46.4758 38.6835 39.1143C31.3139 31.7528 26.7277 24.3459 30.5065 20.5833L34.2708 16.8077C35.0339 16.0279 36.2836 16.0113 37.0672 16.7704L42.5985 22.2968C42.9677 22.6698 43.1727 23.1748 43.1678 23.6996C43.1629 24.2244 42.9486 24.7255 42.5726 25.0916L39.6124 28.0453C39.1418 28.5037 39.0783 29.2378 39.4632 29.7702C40.668 31.3998 41.9797 32.9475 43.3896 34.4033C44.8484 35.8056 46.3925 37.1164 48.013 38.3281C48.5466 38.7128 49.2814 38.6494 49.7412 38.1789L52.6981 35.2236C53.4612 34.4439 54.7109 34.4272 55.4945 35.1863L61.0258 40.7127C61.396 41.0859 61.6016 41.5916 61.5967 42.1172C61.5919 42.6428 61.3769 43.1446 60.9998 43.5108Z" fill="white"/>
<path d="M72.9505 0H8.10561C3.63123 0.00535962 0.00535962 3.63123 0 8.10561V89.1617C0.00535962 93.6361 3.63123 97.262 8.10561 97.2673H72.9505C75.6364 97.2673 77.8139 95.0899 77.8139 92.404V76.1927C81.3951 76.1927 84.2983 73.2895 84.2983 69.7082V63.2238C84.2923 61.3544 83.4748 59.5798 82.0579 58.3604C83.4748 57.141 84.2923 55.3664 84.2983 53.497V47.0125C84.2923 45.1432 83.4748 43.3686 82.0579 42.1492C83.4748 40.9298 84.2923 39.1552 84.2983 37.2858V30.8013C84.2923 28.932 83.4748 27.1574 82.0579 25.938C83.4748 24.7185 84.2923 22.9439 84.2983 21.0746V14.5901C84.2983 11.0088 81.3951 8.10561 77.8139 8.10561V4.86337C77.8139 2.1774 75.6364 0 72.9505 0ZM3.24224 89.1617V8.10561C3.24224 5.41965 5.41965 3.24224 8.10561 3.24224H12.969V94.0251H8.10561C5.41965 94.0251 3.24224 91.8477 3.24224 89.1617ZM74.5716 92.404C74.5716 93.2993 73.8458 94.0251 72.9505 94.0251H16.2112V3.24224H72.9505C73.8458 3.24224 74.5716 3.96804 74.5716 4.86337V92.404ZM81.0561 63.2238V69.7082C81.0561 71.4989 79.6045 72.9505 77.8139 72.9505V59.9815C79.6045 59.9815 81.0561 61.4331 81.0561 63.2238ZM81.0561 47.0125V53.497C81.0561 55.2877 79.6045 56.7393 77.8139 56.7393V43.7703C79.6045 43.7703 81.0561 45.2219 81.0561 47.0125ZM81.0561 30.8013V37.2858C81.0561 39.0764 79.6045 40.528 77.8139 40.528V27.5591C79.6045 27.5591 81.0561 29.0107 81.0561 30.8013ZM81.0561 14.5901V21.0746C81.0561 22.8652 79.6045 24.3168 77.8139 24.3168V11.3479C79.6045 11.3479 81.0561 12.7995 81.0561 14.5901Z" fill="black"/>
<path d="M64.8445 8.10559H25.9376C23.2516 8.10559 21.0742 10.283 21.0742 12.969V51.8759C21.0742 54.5618 23.2516 56.7393 25.9376 56.7393H64.8445C67.5305 56.7393 69.7079 54.5618 69.7079 51.8759V12.969C69.7079 10.283 67.5305 8.10559 64.8445 8.10559ZM66.4656 51.8759C66.4656 52.7712 65.7398 53.497 64.8445 53.497H25.9376C25.0423 53.497 24.3165 52.7712 24.3165 51.8759V12.969C24.3165 12.0736 25.0423 11.3478 25.9376 11.3478H64.8445C65.7398 11.3478 66.4656 12.0736 66.4656 12.969V51.8759Z" fill="black"/>
<path d="M59.981 61.6025H30.8008C29.9055 61.6025 29.1797 62.3283 29.1797 63.2237C29.1797 64.119 29.9055 64.8448 30.8008 64.8448H59.981C60.8763 64.8448 61.6021 64.119 61.6021 63.2237C61.6021 62.3283 60.8763 61.6025 59.981 61.6025Z" fill="black"/>
<path d="M53.4964 68.0872H37.2852C36.3899 68.0872 35.6641 68.813 35.6641 69.7083C35.6641 70.6036 36.3899 71.3294 37.2852 71.3294H53.4964C54.3917 71.3294 55.1175 70.6036 55.1175 69.7083C55.1175 68.813 54.3917 68.0872 53.4964 68.0872Z" fill="black"/>
<path d="M56.64 34.0435C55.2242 32.6513 52.9489 32.6673 51.5529 34.0792L48.7645 36.8659C47.2851 35.7488 45.8734 34.5449 44.5367 33.2605C43.2449 31.924 42.0391 30.507 40.9264 29.018L43.7083 26.2394C44.396 25.5665 44.7839 24.6451 44.7847 23.6829C44.7918 22.7305 44.4149 21.8154 43.7391 21.1443L38.2094 15.6227C36.7925 14.2299 34.5152 14.248 33.1207 15.6632L29.3565 19.434C28.1472 20.6303 27.485 22.2726 27.5262 23.9731C27.5262 29.185 32.9683 35.71 37.5334 40.2654C45.1527 47.8847 50.3403 50.2823 53.8419 50.2823C55.54 50.3155 57.177 49.6483 58.3681 48.4375L62.1453 44.6635C62.8356 43.9855 63.2241 43.0583 63.2233 42.0908C63.2268 41.1446 62.8507 40.2366 62.1793 39.5699L56.64 34.0435ZM59.853 42.3647L56.0758 46.1403C53.5469 48.666 47.4741 45.6118 39.8241 37.9666C34.0691 32.223 30.7668 27.1213 30.7685 23.9699C30.7313 23.1316 31.0511 22.3169 31.6487 21.7279L35.4146 17.9539C35.49 17.8774 35.5925 17.8337 35.6999 17.8323C35.7807 17.8302 35.859 17.8605 35.9172 17.9166L41.4468 23.4446C41.5089 23.5063 41.5434 23.5905 41.5424 23.6781C41.5415 23.7797 41.4987 23.8765 41.4241 23.9456L38.4656 26.9106C37.4195 27.9362 37.2908 29.5764 38.164 30.7526C39.4153 32.4447 40.7785 34.051 42.2444 35.5609C43.7607 37.0194 45.3654 38.3832 47.0494 39.6445C48.2265 40.5114 49.862 40.3808 50.8866 39.3381L53.8451 36.3812C53.9746 36.2336 54.1987 36.2177 54.3477 36.3455L59.879 41.8719C59.9406 41.9311 59.9747 42.0134 59.973 42.0989C59.9697 42.1999 59.9265 42.2954 59.853 42.3647Z" fill="black"/>
<path d="M8.1055 6.48438C7.21018 6.48438 6.48438 7.21018 6.48438 8.1055V11.3477C6.48438 12.2431 7.21018 12.9689 8.1055 12.9689C9.00082 12.9689 9.72662 12.2431 9.72662 11.3477V8.1055C9.72662 7.21018 9.00082 6.48438 8.1055 6.48438Z" fill="black"/>
<path d="M8.1055 16.2112C7.21018 16.2112 6.48438 16.937 6.48438 17.8323V79.4349C6.48438 80.3303 7.21018 81.0561 8.1055 81.0561C9.00082 81.0561 9.72662 80.3303 9.72662 79.4349V17.8323C9.72662 16.937 9.00082 16.2112 8.1055 16.2112Z" fill="black"/>
<path d="M8.1055 84.2983C7.21018 84.2983 6.48438 85.0241 6.48438 85.9195V89.1617C6.48438 90.057 7.21018 90.7828 8.1055 90.7828C9.00082 90.7828 9.72662 90.057 9.72662 89.1617V85.9195C9.72662 85.0241 9.00082 84.2983 8.1055 84.2983Z" fill="black"/>
</svg>
