<svg width="21" height="19" viewBox="0 0 21 19" fill="none" xmlns="http://www.w3.org/2000/svg">
<path d="M0 8.9312C0 9.30211 0.281525 9.65492 0.756598 9.65492C1.00293 9.65492 1.20528 9.51922 1.39003 9.36543L10.1965 1.76634C10.39 1.58541 10.6276 1.58541 10.8211 1.76634L19.6276 9.36543C19.8035 9.51922 20.0059 9.65492 20.2522 9.65492C20.6657 9.65492 21 9.39257 21 8.95834C21 8.68694 20.912 8.50601 20.7273 8.34317L18.2639 6.20819V2.58957C18.2639 2.19152 18.0176 1.93822 17.6305 1.93822H16.6891C16.3109 1.93822 16.0557 2.19152 16.0557 2.58957V4.29937L11.5689 0.427449C10.9179 -0.142483 10.1085 -0.142483 9.44868 0.427449L0.281525 8.34317C0.0879765 8.50601 0 8.72313 0 8.9312ZM2.74487 17.0098C2.74487 18.2582 3.48387 19 4.72434 19H16.2933C17.5337 19 18.2639 18.2582 18.2639 17.0098V9.83585L11.0323 3.60279C10.6979 3.3133 10.3021 3.32234 9.97654 3.60279L2.74487 9.83585V17.0098ZM12.7742 17.5435H8.2346V11.5637C8.2346 11.1476 8.50733 10.8762 8.91202 10.8762H12.1056C12.5103 10.8762 12.7742 11.1476 12.7742 11.5637V17.5435Z" fill="#EC5C29"/>
</svg>
