<svg width="30" height="30" viewBox="0 0 30 30" fill="none" xmlns="http://www.w3.org/2000/svg">
<path fill-rule="evenodd" clip-rule="evenodd" d="M12.2695 15.9592C12.3981 16.0557 12.5065 16.1765 12.5884 16.3149C12.6703 16.4533 12.7242 16.6064 12.7469 16.7656C12.7697 16.9248 12.7608 17.0869 12.7209 17.2427C12.681 17.3985 12.6108 17.5448 12.5143 17.6735L11.2899 19.3061C11.1758 19.4582 11.0279 19.5816 10.8579 19.6667C10.6878 19.7517 10.5004 19.7959 10.3103 19.7959H8.67761C8.35286 19.7959 8.04141 19.6669 7.81177 19.4373C7.58213 19.2076 7.45312 18.8962 7.45312 18.5714C7.45312 18.2467 7.58213 17.9352 7.81177 17.7056C8.04141 17.476 8.35286 17.3469 8.67761 17.3469H9.69802L10.5552 16.2041C10.6516 16.0754 10.7725 15.9671 10.9109 15.8851C11.0493 15.8032 11.2024 15.7493 11.3616 15.7266C11.5208 15.7039 11.6829 15.7127 11.8387 15.7526C11.9944 15.7925 12.1408 15.8627 12.2695 15.9592Z" fill="black"/>
<path d="M21.1159 17.5073H19.8081L19.5755 17.4004C18.9795 16.7384 18.0146 15.2992 17.2061 14.8049C16.8706 14.5976 16.4837 14.4885 16.0893 14.4898H13.7795L14.0187 19.7959H15.9489C16.2699 19.795 16.5867 19.7231 16.8767 19.5853C17.1752 19.4429 17.4408 19.2399 17.6567 18.9894L17.8893 18.722C18.1828 19.0482 18.4538 19.7959 18.8893 19.7959H21.1706C21.444 19.7959 21.6514 19.6755 21.8448 19.4608C22.0383 19.2461 22.1469 18.9551 22.1469 18.6518C22.1469 18.3482 22.0383 18.0571 21.8448 17.8429C21.6514 17.6282 21.3893 17.5073 21.1159 17.5073ZM21.3306 11.4286C21.3306 12.1322 21.051 12.807 20.5535 13.3046C20.056 13.8021 19.3811 14.0816 18.6775 14.0816C17.9739 14.0816 17.299 13.8021 16.8015 13.3046C16.304 12.807 16.0244 12.1322 16.0244 11.4286C16.0244 10.7249 16.304 10.0501 16.8015 9.55258C17.299 9.05503 17.9739 8.77551 18.6775 8.77551C19.3811 8.77551 20.056 9.05503 20.5535 9.55258C21.051 10.0501 21.3306 10.7249 21.3306 11.4286Z" fill="black"/>
<path fill-rule="evenodd" clip-rule="evenodd" d="M18.6777 13.2653C19.1649 13.2653 19.632 13.0718 19.9765 12.7273C20.3209 12.3829 20.5145 11.9157 20.5145 11.4286C20.5145 10.9414 20.3209 10.4743 19.9765 10.1298C19.632 9.78535 19.1649 9.59184 18.6777 9.59184C18.1906 9.59184 17.7234 9.78535 17.379 10.1298C17.0345 10.4743 16.841 10.9414 16.841 11.4286C16.841 11.9157 17.0345 12.3829 17.379 12.7273C17.7234 13.0718 18.1906 13.2653 18.6777 13.2653ZM18.6777 14.0816C19.3814 14.0816 20.0562 13.8021 20.5537 13.3046C21.0513 12.807 21.3308 12.1322 21.3308 11.4286C21.3308 10.7249 21.0513 10.0501 20.5537 9.55258C20.0562 9.05503 19.3814 8.77551 18.6777 8.77551C17.9741 8.77551 17.2993 9.05503 16.8017 9.55258C16.3042 10.0501 16.0247 10.7249 16.0247 11.4286C16.0247 12.1322 16.3042 12.807 16.8017 13.3046C17.2993 13.8021 17.9741 14.0816 18.6777 14.0816Z" fill="black"/>
<circle cx="15" cy="15" r="14.5" stroke="black"/>
</svg>
