<svg width="10" height="13" viewBox="0 0 10 13" fill="none" xmlns="http://www.w3.org/2000/svg">
<path d="M5 6.6242C5.34375 6.6242 5.63812 6.49437 5.88313 6.2347C6.12771 5.97547 6.25 5.66369 6.25 5.29936C6.25 4.93503 6.12771 4.62303 5.88313 4.36336C5.63812 4.10414 5.34375 3.97452 5 3.97452C4.65625 3.97452 4.36208 4.10414 4.1175 4.36336C3.8725 4.62303 3.75 4.93503 3.75 5.29936C3.75 5.66369 3.8725 5.97547 4.1175 6.2347C4.36208 6.49437 4.65625 6.6242 5 6.6242ZM5 13C4.91667 13 4.83333 12.9834 4.75 12.9503C4.66667 12.9172 4.59375 12.873 4.53125 12.8178C3.01042 11.3936 1.875 10.0717 1.125 8.85192C0.375 7.63175 0 6.49172 0 5.43185C0 3.7758 0.502708 2.45648 1.50813 1.47389C2.51313 0.491295 3.67708 0 5 0C6.32292 0 7.48688 0.491295 8.49187 1.47389C9.49729 2.45648 10 3.7758 10 5.43185C10 6.49172 9.625 7.63175 8.875 8.85192C8.125 10.0717 6.98958 11.3936 5.46875 12.8178C5.40625 12.873 5.33333 12.9172 5.25 12.9503C5.16667 12.9834 5.08333 13 5 13Z" fill="black"/>
</svg>
