<svg width="15" height="18" viewBox="0 0 15 18" fill="none" xmlns="http://www.w3.org/2000/svg">
<g id="Group 563">
<path id="Vector" d="M6.30938 16.9205L6.30981 16.9209C6.99367 17.5406 8.01732 17.5406 8.70118 16.9209L8.70196 16.9202C8.7018 16.9203 8.70181 16.9203 8.70235 16.9198L8.70321 16.9191L8.70775 16.9149L8.72472 16.8993C8.73945 16.8858 8.76089 16.8659 8.78852 16.8401C8.84376 16.7884 8.9237 16.7127 9.02398 16.6154C9.22452 16.4209 9.50647 16.1399 9.83492 15.7916C10.4915 15.0952 11.3353 14.1281 12.0861 13.0429C13.228 11.3925 14.1109 9.4589 14.1109 7.72674C14.1109 3.96224 11.1542 0.9 7.50545 0.9C3.85679 0.9 0.9 3.96224 0.9 7.72674C0.9 9.4589 1.78291 11.3925 2.92484 13.0429C3.6756 14.1281 4.51935 15.0952 5.17599 15.7916C5.50445 16.1399 5.7864 16.4209 5.98696 16.6154C6.08724 16.7127 6.16719 16.7884 6.22245 16.8401C6.25007 16.8659 6.27153 16.8858 6.28626 16.8993L6.30325 16.9149L6.30782 16.9191L6.30938 16.9205ZM7.50545 1.80808C10.6597 1.80808 13.2261 4.45684 13.2261 7.72674C13.2261 9.26831 12.4116 11.0043 11.3648 12.5174C10.6433 13.5601 9.83084 14.4912 9.19814 15.1619C8.88193 15.4972 8.61094 15.767 8.41915 15.953C8.32325 16.046 8.24718 16.118 8.19516 16.1666C8.16915 16.1909 8.14916 16.2094 8.13571 16.2218L8.12052 16.2357L8.11673 16.2392L8.11581 16.24L8.1156 16.2402L8.11555 16.2403C7.76613 16.5569 7.24486 16.5569 6.89534 16.2402L6.8953 16.2402L6.89509 16.24L6.89417 16.2392L6.89038 16.2357L6.87519 16.2218C6.86175 16.2094 6.84176 16.1909 6.81575 16.1666C6.76373 16.118 6.68766 16.046 6.59177 15.953C6.39998 15.7671 6.129 15.4972 5.8128 15.1619C5.18011 14.4912 4.36763 13.5601 3.64608 12.5174C2.59939 11.0043 1.78478 9.26831 1.78478 7.72674C1.78478 4.45684 4.35115 1.80808 7.50545 1.80808Z" fill="#EC5C29" stroke="#EC5C29" stroke-width="0.2"/>
<path id="Vector_2" d="M7.50532 4.44016C5.74649 4.44016 4.32383 5.91606 4.32383 7.72651C4.32383 9.53694 5.74649 11.0128 7.50532 11.0128C9.26423 11.0128 10.6869 9.53694 10.6869 7.72651C10.6869 5.91606 9.26423 4.44016 7.50532 4.44016ZM7.50532 5.34824C8.76996 5.34824 9.80212 6.41055 9.80212 7.72651C9.80212 9.04245 8.76996 10.1048 7.50532 10.1048C6.24067 10.1048 5.2086 9.04246 5.2086 7.72651C5.2086 6.41054 6.24067 5.34824 7.50532 5.34824Z" fill="#EC5C29" stroke="#EC5C29" stroke-width="0.2"/>
</g>
</svg>
