<svg width="12" height="15" viewBox="0 0 12 15" fill="none" xmlns="http://www.w3.org/2000/svg">
<path d="M6 7.64331C6.4125 7.64331 6.76575 7.4935 7.05975 7.19389C7.35325 6.89478 7.5 6.53503 7.5 6.11465C7.5 5.69427 7.35325 5.33427 7.05975 5.03465C6.76575 4.73554 6.4125 4.58599 6 4.58599C5.5875 4.58599 5.2345 4.73554 4.941 5.03465C4.647 5.33427 4.5 5.69427 4.5 6.11465C4.5 6.53503 4.647 6.89478 4.941 7.19389C5.2345 7.4935 5.5875 7.64331 6 7.64331ZM6 15C5.9 15 5.8 14.9809 5.7 14.9427C5.6 14.9045 5.5125 14.8535 5.4375 14.7898C3.6125 13.1465 2.25 11.6211 1.35 10.2138C0.45 8.80586 0 7.49045 0 6.26752C0 4.35669 0.60325 2.83439 1.80975 1.70064C3.01575 0.566879 4.4125 0 6 0C7.5875 0 8.98425 0.566879 10.1902 1.70064C11.3967 2.83439 12 4.35669 12 6.26752C12 7.49045 11.55 8.80586 10.65 10.2138C9.75 11.6211 8.3875 13.1465 6.5625 14.7898C6.4875 14.8535 6.4 14.9045 6.3 14.9427C6.2 14.9809 6.1 15 6 15Z" fill="#8B8585"/>
</svg>
