<svg width="15" height="19" viewBox="0 0 15 19" fill="none" xmlns="http://www.w3.org/2000/svg">
<path d="M7.5 9.68153C8.01562 9.68153 8.45719 9.49177 8.82469 9.11225C9.19156 8.73338 9.375 8.27771 9.375 7.74522C9.375 7.21274 9.19156 6.75674 8.82469 6.37722C8.45719 5.99835 8.01562 5.80892 7.5 5.80892C6.98438 5.80892 6.54313 5.99835 6.17625 6.37722C5.80875 6.75674 5.625 7.21274 5.625 7.74522C5.625 8.27771 5.80875 8.73338 6.17625 9.11225C6.54313 9.49177 6.98438 9.68153 7.5 9.68153ZM7.5 19C7.375 19 7.25 18.9758 7.125 18.9274C7 18.879 6.89062 18.8144 6.79688 18.7338C4.51562 16.6522 2.8125 14.7201 1.6875 12.9374C0.5625 11.1541 0 9.4879 0 7.93885C0 5.51847 0.754063 3.59023 2.26219 2.15414C3.76969 0.718047 5.51562 0 7.5 0C9.48438 0 11.2303 0.718047 12.7378 2.15414C14.2459 3.59023 15 5.51847 15 7.93885C15 9.4879 14.4375 11.1541 13.3125 12.9374C12.1875 14.7201 10.4844 16.6522 8.20312 18.7338C8.10938 18.8144 8 18.879 7.875 18.9274C7.75 18.9758 7.625 19 7.5 19Z" fill="#EC5C29"/>
</svg>
