<svg width="10" height="14" viewBox="0 0 10 14" fill="none" xmlns="http://www.w3.org/2000/svg">
<path id="Vector" d="M2.22222 4.71429C2.22222 4.60062 2.26612 4.49161 2.34426 4.41124C2.4224 4.33087 2.52838 4.28571 2.63889 4.28571H7.36111C7.47162 4.28571 7.5776 4.33087 7.65574 4.41124C7.73388 4.49161 7.77778 4.60062 7.77778 4.71429C7.77778 4.82795 7.73388 4.93696 7.65574 5.01733C7.5776 5.0977 7.47162 5.14286 7.36111 5.14286H2.63889C2.52838 5.14286 2.4224 5.0977 2.34426 5.01733C2.26612 4.93696 2.22222 4.82795 2.22222 4.71429ZM2.63889 0C2.52838 0 2.4224 0.0451529 2.34426 0.125526C2.26612 0.205898 2.22222 0.314907 2.22222 0.428571C2.22222 0.542236 2.26612 0.651245 2.34426 0.731617C2.4224 0.81199 2.52838 0.857143 2.63889 0.857143H2.77778V1.42857H1.94444C1.42875 1.42857 0.934169 1.63929 0.569515 2.01436C0.204861 2.38943 6.41163e-08 2.89814 6.41163e-08 3.42857V11.1429C-0.000119973 11.6239 0.168311 12.0888 0.474419 12.4525C0.780528 12.8161 1.20381 13.0541 1.66667 13.1229V13.5714C1.66667 13.6851 1.71057 13.7941 1.78871 13.8745C1.86685 13.9548 1.97283 14 2.08333 14C2.19384 14 2.29982 13.9548 2.37796 13.8745C2.4561 13.7941 2.5 13.6851 2.5 13.5714V13.1429H7.5V13.5714C7.5 13.6851 7.5439 13.7941 7.62204 13.8745C7.70018 13.9548 7.80616 14 7.91667 14C8.02717 14 8.13315 13.9548 8.2113 13.8745C8.28944 13.7941 8.33333 13.6851 8.33333 13.5714V13.1229C8.79615 13.054 9.21936 12.816 9.52545 12.4524C9.83153 12.0887 10 11.6238 10 11.1429V3.42857C10 2.89814 9.79514 2.38943 9.43049 2.01436C9.06583 1.63929 8.57125 1.42857 8.05556 1.42857H7.22222V0.857143H7.36111C7.47162 0.857143 7.5776 0.81199 7.65574 0.731617C7.73388 0.651245 7.77778 0.542236 7.77778 0.428571C7.77778 0.314907 7.73388 0.205898 7.65574 0.125526C7.5776 0.0451529 7.47162 0 7.36111 0H2.63889ZM6.38889 0.857143V1.42857H3.61111V0.857143H6.38889ZM1.94444 2.28571H8.05556C8.35024 2.28571 8.63286 2.40612 8.84123 2.62045C9.0496 2.83478 9.16667 3.12547 9.16667 3.42857V11.1429C9.16667 11.446 9.0496 11.7367 8.84123 11.951C8.63286 12.1653 8.35024 12.2857 8.05556 12.2857H1.94444C1.64976 12.2857 1.36714 12.1653 1.15877 11.951C0.950396 11.7367 0.833333 11.446 0.833333 11.1429V3.42857C0.833333 3.12547 0.950396 2.83478 1.15877 2.62045C1.36714 2.40612 1.64976 2.28571 1.94444 2.28571Z" fill="black"/>
</svg>
