<svg width="30" height="30" viewBox="0 0 30 30" fill="none" xmlns="http://www.w3.org/2000/svg">
<path d="M11.4583 6.45831C11.4583 6.29255 11.5241 6.13358 11.6413 6.01637C11.7585 5.89916 11.9175 5.83331 12.0833 5.83331H18.3333C18.499 5.83331 18.658 5.89916 18.7752 6.01637C18.8924 6.13358 18.9583 6.29255 18.9583 6.45831C18.9583 6.62407 18.8924 6.78304 18.7752 6.90025C18.658 7.01746 18.499 7.08331 18.3333 7.08331H18.0208V8.33331H19.2708C20.0167 8.33331 20.732 8.62963 21.2595 9.15708C21.7869 9.68452 22.0833 10.3999 22.0833 11.1458V20.5208C22.0834 21.2127 21.8285 21.8804 21.3672 22.3962C20.906 22.9119 20.2709 23.2396 19.5833 23.3164V23.9583C19.5833 24.1241 19.5174 24.283 19.4002 24.4003C19.283 24.5175 19.124 24.5833 18.9583 24.5833C18.7925 24.5833 18.6335 24.5175 18.5163 24.4003C18.3991 24.283 18.3333 24.1241 18.3333 23.9583V23.3333H12.0833V23.9583C12.0833 24.1241 12.0174 24.283 11.9002 24.4003C11.783 24.5175 11.624 24.5833 11.4583 24.5833C11.2925 24.5833 11.1335 24.5175 11.0163 24.4003C10.8991 24.283 10.8333 24.1241 10.8333 23.9583V23.3164C10.1456 23.2396 9.51048 22.9119 9.04926 22.3962C8.58804 21.8804 8.33312 21.2127 8.33325 20.5208V11.1458C8.33325 10.3999 8.62957 9.68452 9.15701 9.15708C9.68446 8.62963 10.3998 8.33331 11.1458 8.33331H12.7083V7.08331H12.0833C11.9175 7.08331 11.7585 7.01746 11.6413 6.90025C11.5241 6.78304 11.4583 6.62407 11.4583 6.45831ZM13.9583 7.08331V8.33331H16.7708V7.08331H13.9583ZM12.0833 12.0833C11.9175 12.0833 11.7585 12.1492 11.6413 12.2664C11.5241 12.3836 11.4583 12.5426 11.4583 12.7083C11.4583 12.8741 11.5241 13.033 11.6413 13.1503C11.7585 13.2675 11.9175 13.3333 12.0833 13.3333H18.3333C18.499 13.3333 18.658 13.2675 18.7752 13.1503C18.8924 13.033 18.9583 12.8741 18.9583 12.7083C18.9583 12.5426 18.8924 12.3836 18.7752 12.2664C18.658 12.1492 18.499 12.0833 18.3333 12.0833H12.0833Z" fill="black"/>
<circle cx="15" cy="15" r="14.5" stroke="black"/>
</svg>
