<svg width="149" height="192" viewBox="0 0 149 192" fill="none" xmlns="http://www.w3.org/2000/svg">
<path d="M7.5748 152.137C6.43957 147.8 7.6465 142.548 10.377 138.993C10.5802 138.73 10.849 138.449 11.1776 138.479C11.6795 138.527 11.811 139.196 11.7751 139.704C11.5665 144.162 10.1067 148.471 7.56285 152.137" fill="#E0E0E0"/>
<path d="M8.96692 153.063C14.2308 154.432 20.2714 153.099 24.6569 149.867C22.024 148.566 19.0216 148.217 16.1607 148.881C13.3226 149.532 10.7295 150.799 8.99082 153.117" fill="#E0E0E0"/>
<path d="M10.132 150.196C13.0835 145.416 18.7417 142.249 24.3761 141.962C23.7248 144.257 21.8427 146.037 19.7157 147.112C17.5886 148.188 15.2166 148.66 12.8804 149.114C11.9722 149.287 10.7235 149.485 10.132 150.196Z" fill="#E0E0E0"/>
<path d="M7.86756 136.19C8.75548 133.472 9.35624 130.669 9.66002 127.825C9.88109 124.981 9.4748 122.018 7.99901 119.58C5.24459 124.91 4.96377 131.141 7.76001 136.453" fill="#E0E0E0"/>
<path d="M17.1465 131.5C20.3729 125.645 26.9453 120.966 33.5953 120.309C31.0321 126.702 24.0355 131.661 17.1465 131.5Z" fill="#E0E0E0"/>
<path d="M15.1211 132.647C19.901 133.382 24.0177 136.453 28.5108 138.311C29.4507 138.773 30.4954 138.979 31.54 138.909C32.0171 138.89 32.4774 138.728 32.8617 138.444C33.246 138.161 33.5365 137.769 33.696 137.319C33.8554 136.869 33.8764 136.382 33.7563 135.919C33.6361 135.457 33.3803 135.042 33.0218 134.727C32.3849 134.14 31.6374 133.687 30.8231 133.394C25.9296 131.357 20.6658 131.309 15.5334 132.54" fill="#E0E0E0"/>
<path d="M12.3368 136.023C13.4242 136.334 13.8006 136.895 14.661 137.63C17.601 140.126 21.0767 141.911 24.8183 142.846C25.2007 142.942 25.7145 142.978 25.9057 142.631C26.0969 142.285 25.8579 141.95 25.6428 141.681C24.0139 139.76 21.8957 138.315 19.5126 137.499C17.1645 136.626 15.139 135.575 12.3428 135.802" fill="#E0E0E0"/>
<path d="M9.20007 115.661C11.1736 117.482 13.5073 118.87 16.0504 119.733C18.5934 120.597 21.2894 120.917 23.964 120.674C24.2088 120.679 24.447 120.594 24.6332 120.435C25.0036 120.028 24.5615 119.407 24.1313 119.072C19.7995 115.697 14.5715 114.293 9.22994 115.661" fill="#E0E0E0"/>
<path d="M18.2519 112.661C18.0024 112.788 17.74 112.888 17.4692 112.96L15.3123 113.683C13.5198 114.28 10.9924 115.2 8.27984 116.312C5.56725 117.423 3.05183 118.409 1.61786 119.652C1.04026 120.139 0.582351 120.752 0.279489 121.444C0.0763437 121.934 0.0345215 122.239 0.010622 122.233C-0.0132775 122.227 0.010622 122.155 0.010622 122.012C0.0431873 121.808 0.0952043 121.608 0.165965 121.414C0.439553 120.687 0.8891 120.038 1.47446 119.526C2.34428 118.792 3.31644 118.188 4.36033 117.734C5.51945 117.196 6.79807 116.628 8.16034 116.073C10.8789 114.955 13.4003 114.089 15.2406 113.522C16.1607 113.229 16.9135 113.02 17.4333 112.882C17.6991 112.784 17.973 112.71 18.2519 112.661Z" fill="#E0E0E0"/>
<path d="M16.5013 145.415C16.2218 145.593 15.9325 145.754 15.6349 145.899C14.8531 146.338 14.1043 146.834 13.3943 147.381C12.3464 148.202 11.3636 149.103 10.4547 150.076C9.42703 151.169 8.36351 152.436 7.27608 153.792C5.1072 156.511 3.09367 158.919 1.86285 160.843C1.26536 161.799 0.79932 162.599 0.506551 163.167C0.368175 163.467 0.208437 163.756 0.0285645 164.033C0.0442798 163.948 0.072464 163.865 0.112212 163.788C0.171961 163.633 0.261581 163.4 0.399004 163.113C0.777056 162.29 1.20609 161.492 1.6836 160.723C2.87858 158.757 4.87418 156.314 7.06098 153.595C8.14841 152.239 9.22389 150.966 10.2755 149.879C11.1947 148.91 12.1941 148.02 13.2629 147.22C13.9987 146.679 14.7804 146.203 15.5991 145.798C15.8859 145.648 16.1189 145.565 16.2742 145.499C16.4296 145.433 16.4953 145.403 16.5013 145.415Z" fill="#E0E0E0"/>
<path d="M16.8239 151.45C16.2211 151.579 15.6102 151.667 14.9956 151.713C13.5303 151.863 12.0822 152.15 10.6697 152.567C9.27352 153.02 7.96436 153.707 6.79803 154.599C5.9018 155.286 5.48356 155.859 5.44173 155.824C5.39991 155.788 5.51343 155.662 5.7106 155.405C5.98697 155.051 6.29713 154.725 6.63671 154.431C7.79354 153.47 9.12412 152.74 10.5562 152.28C11.9872 151.853 13.4628 151.592 14.9537 151.504C15.5739 151.426 16.2002 151.408 16.8239 151.45Z" fill="#E0E0E0"/>
<path d="M5.97356 155.167C5.87796 155.107 6.70249 153.852 7.33582 152.179C7.96916 150.506 8.07671 148.977 8.18426 148.995C8.23691 149.319 8.23691 149.65 8.18426 149.974C8.09405 150.761 7.91568 151.534 7.65249 152.281C7.37217 153.02 7.01785 153.728 6.59494 154.396C6.43086 154.685 6.22101 154.945 5.97356 155.167Z" fill="#E0E0E0"/>
<path d="M21.8308 129.212C21.742 129.279 21.6431 129.331 21.538 129.367L20.6836 129.761C20.3072 129.923 19.8531 130.126 19.3392 130.395C18.8254 130.664 18.2219 130.932 17.5946 131.309L16.5968 131.906C16.2562 132.104 15.9156 132.343 15.5512 132.57C14.8163 133.012 14.0814 133.561 13.2987 134.123C9.94069 136.623 7.00904 139.65 4.61717 143.085C4.08541 143.892 3.56559 144.645 3.14138 145.392C2.93225 145.762 2.70521 146.115 2.54389 146.467L2.01212 147.477C1.65961 148.116 1.41464 148.726 1.15772 149.269C0.900799 149.813 0.715578 150.255 0.560231 150.638C0.404885 151.02 0.297338 151.277 0.20174 151.504C0.16618 151.61 0.115899 151.711 0.0523682 151.803C0.0735516 151.695 0.103522 151.589 0.141988 151.486C0.225636 151.253 0.327211 150.954 0.452683 150.596C0.578156 150.237 0.757399 149.735 0.996394 149.204C1.23539 148.672 1.46841 148.05 1.81495 147.411L2.33477 146.383C2.51401 146.025 2.73508 145.672 2.93226 145.296C3.3505 144.537 3.86433 143.772 4.3961 142.96C6.77628 139.471 9.73211 136.412 13.1373 133.914C13.932 133.358 14.6788 132.815 15.4197 132.372C15.7902 132.151 16.1367 131.918 16.4892 131.721L17.499 131.171C18.1323 130.807 18.7477 130.574 19.2914 130.293C19.7372 130.071 20.1939 129.872 20.6597 129.696L21.544 129.355L21.8308 129.212Z" fill="#E0E0E0"/>
<path d="M8.79968 137.947C8.92025 137.524 9.17113 137.15 9.51667 136.877C10.3185 136.181 11.3404 135.789 12.4025 135.772C13.4459 135.767 14.4797 135.97 15.4437 136.37C15.8513 136.5 16.2378 136.689 16.5909 136.931C16.1829 136.847 15.7831 136.727 15.3959 136.573C14.4343 136.244 13.4249 136.076 12.4085 136.077C11.4092 136.1 10.4429 136.439 9.64811 137.045C9.34389 137.325 9.06034 137.626 8.79968 137.947Z" fill="#E0E0E0"/>
<path d="M6.85181 139.954C7.72512 138.278 7.95057 136.338 7.48514 134.505C7.66061 134.732 7.77757 134.999 7.82571 135.282C8.004 135.948 8.05268 136.641 7.96911 137.326C7.89463 138.009 7.69192 138.671 7.37162 139.279C7.10275 139.739 6.88168 139.978 6.85181 139.954Z" fill="#E0E0E0"/>
<path d="M1.03829 172.237C1.23745 174.788 1.23745 177.351 1.03829 179.903C0.839126 177.351 0.839126 174.788 1.03829 172.237Z" fill="#FAFAFA"/>
<path d="M9.11629 172.183C9.31545 174.784 9.31545 177.397 9.11629 179.998C8.91713 177.397 8.91713 174.784 9.11629 172.183Z" fill="#FAFAFA"/>
<path d="M35.7702 116.617H17.2481C16.703 116.617 16.1802 116.4 15.7948 116.015C15.4093 115.629 15.1928 115.106 15.1928 114.561C15.192 114.291 15.2446 114.023 15.3475 113.773C15.4504 113.523 15.6017 113.296 15.7926 113.104C15.9836 112.913 16.2104 112.761 16.4602 112.657C16.7099 112.553 16.9777 112.5 17.2481 112.5H35.7702C36.0406 112.5 36.3084 112.553 36.5581 112.657C36.8079 112.761 37.0347 112.913 37.2257 113.104C37.4166 113.296 37.5679 113.523 37.6708 113.773C37.7738 114.023 37.8264 114.291 37.8256 114.561C37.8256 115.106 37.609 115.629 37.2236 116.015C36.8381 116.4 36.3153 116.617 35.7702 116.617Z" fill="#263238"/>
<path d="M38.7517 115.523H6.52328C3.56664 115.523 1.1698 117.92 1.1698 120.877V178.582C1.1698 181.539 3.56664 183.935 6.52328 183.935H38.7517C41.7084 183.935 44.1052 181.539 44.1052 178.582V120.877C44.1052 117.92 41.7084 115.523 38.7517 115.523Z" fill="#FF725E"/>
<path d="M38.7517 115.523H6.52328C3.56664 115.523 1.1698 117.92 1.1698 120.877V178.582C1.1698 181.539 3.56664 183.935 6.52328 183.935H38.7517C41.7084 183.935 44.1052 181.539 44.1052 178.582V120.877C44.1052 117.92 41.7084 115.523 38.7517 115.523Z" fill="black"/>
<path d="M48.9448 115.523H16.7164C13.7598 115.523 11.3629 117.92 11.3629 120.877V178.582C11.3629 181.539 13.7598 183.935 16.7164 183.935H48.9448C51.9015 183.935 54.2983 181.539 54.2983 178.582V120.877C54.2983 117.92 51.9015 115.523 48.9448 115.523Z" fill="#D96431"/>
<path d="M53.9338 172.5C53.9338 172.583 44.374 172.655 32.5677 172.655C20.7613 172.655 11.1956 172.583 11.1956 172.5C11.1956 172.416 20.7554 172.344 32.5677 172.344C44.38 172.344 53.9338 172.416 53.9338 172.5Z" fill="#263238"/>
<path d="M53.9338 163.071C53.9338 163.155 44.374 163.227 32.5677 163.227C20.7613 163.227 11.1956 163.155 11.1956 163.071C11.1956 162.988 20.7554 162.916 32.5677 162.916C44.38 162.916 53.9338 162.988 53.9338 163.071Z" fill="#263238"/>
<path d="M53.9338 153.661C53.9338 153.745 44.374 153.816 32.5677 153.816C20.7613 153.816 11.1956 153.745 11.1956 153.661C11.1956 153.577 20.7554 153.506 32.5677 153.506C44.38 153.506 53.9338 153.553 53.9338 153.661Z" fill="#263238"/>
<path d="M53.9338 144.215C53.9338 144.298 44.374 144.37 32.5677 144.37C20.7613 144.37 11.1956 144.298 11.1956 144.215C11.1956 144.131 20.7554 144.059 32.5677 144.059C44.38 144.059 53.9338 144.101 53.9338 144.215Z" fill="#263238"/>
<path d="M53.9338 134.78C53.9338 134.87 44.374 134.936 32.5677 134.936C20.7613 134.936 11.1956 134.87 11.1956 134.78C11.1956 134.691 20.7554 134.625 32.5677 134.625C44.38 134.625 53.9338 134.697 53.9338 134.78Z" fill="#263238"/>
<path d="M53.9338 125.352C53.9338 125.442 44.374 125.507 32.5677 125.507C20.7613 125.507 11.1956 125.442 11.1956 125.352C11.1956 125.262 20.7554 125.197 32.5677 125.197C44.38 125.197 53.9338 125.268 53.9338 125.352Z" fill="#263238"/>
<path d="M47.1762 187.64C47.1762 188.373 46.9589 189.089 46.5519 189.698C46.1448 190.307 45.5663 190.782 44.8894 191.062C44.2125 191.343 43.4676 191.416 42.7491 191.273C42.0305 191.13 41.3704 190.777 40.8523 190.259C40.3343 189.741 39.9815 189.081 39.8385 188.363C39.6956 187.644 39.7689 186.899 40.0493 186.222C40.3297 185.545 40.8045 184.967 41.4137 184.56C42.0229 184.153 42.7391 183.936 43.4717 183.936C43.9584 183.935 44.4405 184.03 44.8903 184.216C45.3401 184.402 45.7488 184.675 46.0929 185.019C46.4371 185.363 46.7099 185.772 46.8958 186.221C47.0817 186.671 47.177 187.153 47.1762 187.64Z" fill="#263238"/>
<path d="M49.7574 187.64C49.7574 188.373 49.5401 189.089 49.133 189.698C48.726 190.307 48.1474 190.782 47.4706 191.062C46.7937 191.343 46.0488 191.416 45.3302 191.273C44.6116 191.13 43.9516 190.777 43.4335 190.259C42.9154 189.741 42.5626 189.081 42.4197 188.363C42.2768 187.644 42.3501 186.899 42.6305 186.222C42.9109 185.545 43.3857 184.967 43.9949 184.56C44.6041 184.153 45.3203 183.936 46.0529 183.936C47.0354 183.936 47.9776 184.326 48.6724 185.021C49.3671 185.715 49.7574 186.657 49.7574 187.64Z" fill="#455A64"/>
<path d="M17.7141 187.64C17.7141 188.373 17.4969 189.089 17.0898 189.698C16.6828 190.307 16.1042 190.782 15.4273 191.062C14.7504 191.343 14.0056 191.416 13.287 191.273C12.5684 191.13 11.9084 190.777 11.3903 190.259C10.8722 189.741 10.5194 189.081 10.3765 188.363C10.2335 187.644 10.3069 186.899 10.5873 186.222C10.8677 185.545 11.3425 184.967 11.9517 184.56C12.5608 184.153 13.2771 183.936 14.0097 183.936C14.4964 183.935 14.9785 184.03 15.4283 184.216C15.8781 184.402 16.2867 184.675 16.6309 185.019C16.975 185.363 17.2479 185.772 17.4338 186.221C17.6196 186.671 17.7149 187.153 17.7141 187.64Z" fill="#263238"/>
<path d="M20.2953 187.64C20.2953 188.373 20.0781 189.089 19.671 189.698C19.264 190.307 18.6854 190.782 18.0085 191.062C17.3316 191.343 16.5868 191.416 15.8682 191.273C15.1496 191.13 14.4895 190.777 13.9715 190.259C13.4534 189.741 13.1006 189.081 12.9577 188.363C12.8147 187.644 12.8881 186.899 13.1685 186.222C13.4488 185.545 13.9236 184.967 14.5328 184.56C15.142 184.153 15.8582 183.936 16.5909 183.936C17.5734 183.936 18.5156 184.326 19.2103 185.021C19.905 185.715 20.2953 186.657 20.2953 187.64Z" fill="#455A64"/>
<path d="M5.99149 134.78H5.98551C4.71838 134.78 3.69116 135.807 3.69116 137.075V156.923C3.69116 158.19 4.71838 159.217 5.98551 159.217H5.99149C7.25862 159.217 8.28584 158.19 8.28584 156.923V137.075C8.28584 135.807 7.25862 134.78 5.99149 134.78Z" fill="#263238"/>
<path d="M6.87568 183.32C6.82133 183.291 6.7711 183.255 6.72631 183.213L6.31405 182.872C5.81366 182.395 5.38501 181.847 5.0414 181.247C4.10335 179.687 3.54768 177.064 3.56561 173.862C3.67315 167.463 3.9241 158.638 4.16309 148.887C4.40209 139.136 4.70083 130.323 4.88605 123.912C4.87359 122.467 5.00166 121.024 5.26844 119.604C5.48808 118.522 5.99119 117.518 6.72631 116.694C7.19104 116.175 7.7756 115.777 8.42915 115.535C8.65613 115.452 8.89327 115.4 9.13419 115.38C9.13419 115.38 8.88922 115.428 8.45305 115.595C7.81927 115.856 7.25772 116.266 6.81594 116.79C6.11282 117.609 5.6369 118.598 5.43574 119.658C5.19322 121.069 5.0832 122.499 5.10712 123.93C4.9458 130.341 4.72473 139.16 4.47378 148.905C4.22284 158.65 3.948 167.463 3.76875 173.874C3.72095 177.058 4.24077 179.652 5.13102 181.199C5.58577 182.002 6.17604 182.719 6.87568 183.32Z" fill="#263238"/>
<path d="M80.4563 69.7915L72.2946 75.0793L71.5537 83.3246C71.5537 83.3246 73.9437 84.4419 77.4748 81.2394C81.006 78.0368 85.5827 71.5481 85.5827 71.5481L80.4563 69.7915Z" fill="#FFBE9D"/>
<path d="M80.0919 73.1733L77.4211 59.6223L70.2871 62.4424L72.1094 80.2954L80.0919 73.1733Z" fill="#FFBE9D"/>
<path d="M99.4145 56.0193C99.3622 55.8773 99.2743 55.7511 99.1592 55.6527C99.0442 55.5544 98.9058 55.4872 98.7573 55.4577L93.6309 54.4778C93.4075 54.4377 93.1781 54.4451 92.9577 54.4997C92.7374 54.5543 92.5311 54.6547 92.3522 54.7945L76.8773 66.9713L77.5107 67.6763L82.9836 69.3433L99.5042 56.2703L99.4145 56.0193Z" fill="#263238"/>
<path d="M95.256 56.8679C95.2745 56.9431 95.3162 57.0106 95.3751 57.0609C95.4341 57.1112 95.5073 57.1418 95.5845 57.1483C95.6617 57.1548 95.739 57.1369 95.8055 57.0972C95.8721 57.0575 95.9245 56.9979 95.9553 56.9268C95.9862 56.8558 95.9941 56.7768 95.9777 56.7011C95.9614 56.6254 95.9218 56.5566 95.8644 56.5046C95.8069 56.4526 95.7346 56.4199 95.6577 56.4111C95.5807 56.4023 95.5029 56.4179 95.4352 56.4556C95.3585 56.4887 95.2974 56.5497 95.2641 56.6263C95.2308 56.7029 95.2279 56.7892 95.256 56.8679Z" fill="white"/>
<path d="M99.5041 56.2703C99.1646 56.249 98.8272 56.2031 98.4944 56.1329L95.7639 55.6549L93.8758 55.3083C93.7202 55.2695 93.5579 55.266 93.4007 55.2981C93.2436 55.3301 93.0956 55.3969 92.9676 55.4935L92.0774 56.1926L88.122 59.3115C85.3078 61.5222 82.7446 63.4939 80.8924 64.9279L78.6817 66.6068C78.4193 66.828 78.1395 67.0278 77.8452 67.2043C78.0775 66.9571 78.3315 66.7311 78.604 66.5291L80.755 64.7725C82.5833 63.3087 85.1166 61.2952 87.9248 59.0845L91.8981 55.9835L92.7943 55.2904C92.9524 55.1726 93.1345 55.0912 93.3276 55.052C93.5208 55.0127 93.7202 55.0166 93.9116 55.0634L95.7878 55.4517L98.5063 56.0492C98.8447 56.0938 99.1786 56.1677 99.5041 56.2703Z" fill="#455A64"/>
<path d="M92.173 60.0047C92.173 60.0047 91.7667 59.7777 91.1214 60.889C90.4761 62.0003 88.5403 65.167 88.5403 65.167L86.7 63.1774L83.7126 62.5799C83.7126 62.5799 82.888 62.9443 83.2406 63.4163C83.8676 63.9614 84.5552 64.4326 85.2899 64.8204L85.977 67.2104L82.7446 64.0377C82.7446 64.0377 81.3525 63.9362 81.46 64.8443C81.5676 65.7525 83.3242 69.0686 83.3242 69.0686L81.4541 68.2679L79.6616 66.111C79.6616 66.111 78.9506 65.9079 79.0044 66.589C79.0581 67.2701 80.7072 70.2337 80.7072 70.2337L83.0972 72.6236C83.0972 72.6236 84.7044 73.0299 85.0151 72.6236C85.2398 72.2913 85.43 71.937 85.5827 71.5661C85.5827 71.5661 86.4909 71.6258 86.7777 71.2733C86.9854 70.9655 87.1259 70.6174 87.1899 70.2516C87.1899 70.2516 88.4208 70.9268 88.8271 70.2516C89.2532 69.3815 89.5318 68.4467 89.6516 67.4852C89.7054 66.8877 92.167 61.9047 92.167 61.7255C92.167 61.5462 93.111 59.939 92.173 60.0047Z" fill="#FFBE9D"/>
<path d="M85.1107 72.6475C84.8379 72.7141 84.553 72.7141 84.2802 72.6475C83.6183 72.5247 82.9857 72.2774 82.4161 71.9186C81.844 71.5617 81.3468 71.097 80.9522 70.5503C80.7668 70.3402 80.6355 70.0879 80.5698 69.8154C81.161 70.511 81.8375 71.1293 82.5834 71.6557C83.3834 72.0856 84.2318 72.4185 85.1107 72.6475Z" fill="#EB996E"/>
<path d="M84.7821 71.3808C84.7164 71.4346 84.2981 70.9924 83.9038 70.3591C83.5094 69.7258 83.3063 69.1641 83.378 69.1223C83.4497 69.0805 83.7843 69.5824 84.1667 70.1978C84.5491 70.8132 84.8538 71.327 84.7821 71.3808Z" fill="#EB996E"/>
<path d="M87.1362 69.415C87.0705 69.4688 86.6522 69.0326 86.3057 68.3873C86.0489 68.0182 85.9056 67.5821 85.8934 67.1326C85.9771 67.1027 86.24 67.6166 86.5746 68.2379C86.9092 68.8593 87.2079 69.3612 87.1362 69.415Z" fill="#EB996E"/>
<path d="M89.4066 67.9572C89.2131 67.5141 89.0611 67.0541 88.9525 66.583C88.7594 66.1474 88.6054 65.6955 88.4924 65.2327C88.8429 65.5898 89.1085 66.0212 89.2699 66.4949C89.4312 66.9685 89.4841 67.4723 89.4245 67.9691L89.4066 67.9572Z" fill="#EB996E"/>
<path d="M53.3005 5.70509C53.673 4.22425 54.4861 2.89127 55.6322 1.88225C56.7783 0.873236 58.2036 0.235653 59.7197 0.0537444C61.2358 -0.128164 62.7715 0.154158 64.1237 0.86341C65.476 1.57266 66.5813 2.67547 67.2936 4.02615C68.626 6.54755 68.6021 9.90543 70.8188 11.7098C72.3364 12.9466 74.5411 13.0841 76.0229 14.3627C79.1597 17.0753 77.3434 23.092 80.6714 25.5656C78.5853 27.263 76.1292 28.4461 73.5015 29.019C73.3175 28.1122 72.8683 27.2804 72.2109 26.6291C72.7726 28.1527 71.9301 29.9093 70.6336 30.8892C69.337 31.8691 67.688 32.2275 66.0927 32.5084C62.2449 33.2014 58.2596 33.5838 54.4417 32.7474C50.6237 31.9109 46.9611 29.6703 45.1627 26.175C44.7026 25.2967 44.3501 24.3228 43.6152 23.6596C42.8803 22.9964 41.7092 22.7036 40.7234 22.2674C39.3796 21.6412 38.2512 20.6314 37.4804 19.3651C36.7095 18.0987 36.3307 16.6326 36.3916 15.1514C38.919 14.99 40.6577 12.5523 41.6734 10.234C42.6891 7.91579 43.5196 5.29283 45.5989 3.84691C46.2918 3.36527 47.0854 3.0478 47.9194 2.91859C48.7533 2.78938 49.6058 2.85182 50.412 3.10118C51.2182 3.35053 51.9571 3.78025 52.5725 4.35773C53.1879 4.9352 53.6636 5.64526 53.9637 6.43403" fill="#263238"/>
<path d="M47.3316 11.2557L47.224 9.12866L59.9266 6.30254C63.8521 5.7648 68.2376 9.58275 68.6081 13.5262C69.0203 17.9117 69.3549 23.2831 68.9367 26.5753C68.0942 33.2014 63.0694 34.1932 63.0694 34.1932L63.2426 42.2533L48.6878 41.7335L47.3316 11.2557Z" fill="#FFBE9D"/>
<path d="M66.8575 18.4197C66.8673 18.6402 66.7902 18.8558 66.6427 19.02C66.4952 19.1843 66.2891 19.2841 66.0688 19.298C65.9614 19.3103 65.8526 19.301 65.7489 19.2705C65.6452 19.24 65.5486 19.1889 65.465 19.1204C65.3814 19.0518 65.3124 18.9672 65.2622 18.8714C65.212 18.7757 65.1815 18.6708 65.1726 18.5631C65.1628 18.3425 65.2399 18.1269 65.3874 17.9627C65.5349 17.7984 65.7409 17.6986 65.9613 17.6847C66.0687 17.6724 66.1775 17.6817 66.2812 17.7122C66.3849 17.7427 66.4815 17.7938 66.5651 17.8623C66.6487 17.9309 66.7177 18.0155 66.7679 18.1113C66.8181 18.207 66.8486 18.3119 66.8575 18.4197Z" fill="#263238"/>
<path d="M67.2997 16.3703C67.1981 16.4838 66.5468 16.0297 65.6387 16.0596C64.7305 16.0895 64.0732 16.5674 63.9717 16.4599C63.8701 16.3524 64.0195 16.209 64.3063 15.9879C64.6898 15.7011 65.1538 15.5423 65.6327 15.5338C66.1062 15.516 66.5731 15.65 66.9651 15.9162C67.2519 16.1253 67.3534 16.3225 67.2997 16.3703Z" fill="#263238"/>
<path d="M58.3852 18.8079C58.395 19.0285 58.3179 19.2441 58.1704 19.4083C58.0229 19.5726 57.8168 19.6724 57.5965 19.6862C57.4891 19.6986 57.3803 19.6893 57.2765 19.6588C57.1728 19.6283 57.0763 19.5772 56.9927 19.5087C56.9091 19.4401 56.8401 19.3554 56.7898 19.2597C56.7396 19.1639 56.7091 19.0591 56.7002 18.9513C56.6934 18.7316 56.7716 18.5177 56.9185 18.3541C57.0654 18.1905 57.2697 18.0898 57.4889 18.073C57.5962 18.0615 57.7047 18.0714 57.8081 18.1022C57.9115 18.1331 58.0077 18.1842 58.0911 18.2526C58.1745 18.321 58.2435 18.4053 58.294 18.5007C58.3445 18.596 58.3755 18.7005 58.3852 18.8079Z" fill="#263238"/>
<path d="M58.3672 16.8363C58.2656 16.9499 57.6084 16.4958 56.7002 16.5256C55.792 16.5555 55.1408 17.0335 55.0332 16.926C54.9257 16.8184 55.087 16.675 55.3678 16.4539C55.7536 16.1671 56.2195 16.0083 56.7002 15.9999C57.1719 15.9821 57.6368 16.1161 58.0266 16.3823C58.3134 16.5734 58.415 16.7646 58.3672 16.8363Z" fill="#263238"/>
<path d="M61.8745 23.4624C62.3492 23.2967 62.8431 23.1923 63.3443 23.1517C63.5773 23.1158 63.7984 23.0621 63.8283 22.9067C63.8437 22.6652 63.7831 22.4249 63.655 22.2196C63.416 21.6639 63.171 21.0844 62.9141 20.4749C61.8805 17.9834 61.1217 15.934 61.2232 15.8982C61.3248 15.8623 62.2449 17.84 63.2786 20.3256C63.5236 20.9231 63.7626 21.5205 63.9896 22.0882C64.1447 22.3639 64.1976 22.6855 64.139 22.9963C64.1064 23.0777 64.0564 23.151 63.9924 23.2109C63.9283 23.2708 63.8519 23.3158 63.7685 23.3429C63.6408 23.3839 63.5082 23.408 63.3742 23.4146C62.8781 23.4913 62.3745 23.5074 61.8745 23.4624Z" fill="#263238"/>
<path d="M63.0634 34.2112C59.8891 34.3597 56.7345 33.6387 53.9398 32.126C53.9398 32.126 56.3298 36.6729 63.1112 35.8543L63.0634 34.2112Z" fill="#EB996E"/>
<path d="M61.5577 25.6672C61.3785 25.4538 61.1478 25.2896 60.8875 25.1903C60.6271 25.091 60.3458 25.0597 60.07 25.0996C59.8696 25.127 59.6766 25.194 59.5022 25.2966C59.3279 25.3991 59.1756 25.5352 59.0542 25.6971C58.9381 25.8519 58.8724 26.0387 58.866 26.2321C58.8596 26.4256 58.9128 26.6163 59.0184 26.7785C59.168 26.9375 59.3617 27.0481 59.5747 27.096C59.7877 27.1439 60.0101 27.127 60.2134 27.0474C60.6375 26.8808 61.0251 26.6332 61.3546 26.3184C61.4549 26.2412 61.54 26.146 61.6055 26.0376C61.6394 25.9873 61.6575 25.928 61.6575 25.8673C61.6575 25.8067 61.6394 25.7474 61.6055 25.6971" fill="#EB996E"/>
<path d="M59.2156 24.1734C59.359 24.1734 59.3949 25.1473 60.2612 25.8225C61.1276 26.4977 62.1732 26.3543 62.1851 26.4917C62.1971 26.6291 61.9581 26.6948 61.5159 26.7187C60.9367 26.747 60.3665 26.5668 59.9087 26.2109C59.4664 25.876 59.1743 25.3799 59.0961 24.8307C59.0483 24.4184 59.1499 24.1675 59.2156 24.1734Z" fill="#263238"/>
<path d="M58.4926 14.2432C58.4089 14.4942 57.4948 14.4046 56.4313 14.5659C55.3677 14.7272 54.5133 15.0439 54.3699 14.8288C54.2982 14.7212 54.4416 14.4882 54.7822 14.2313C55.235 13.9131 55.7575 13.7082 56.3058 13.6338C56.8488 13.552 57.4035 13.5991 57.925 13.7712C58.3193 13.9385 58.5225 14.1237 58.4926 14.2432Z" fill="#263238"/>
<path d="M67.1801 13.2512C67.0248 13.4603 66.3915 13.2512 65.6386 13.2811C64.8858 13.3109 64.2525 13.4663 64.0971 13.2512C64.0314 13.1496 64.0971 12.9405 64.3958 12.7374C64.7612 12.4879 65.1933 12.3545 65.6356 12.3545C66.078 12.3545 66.5101 12.4879 66.8754 12.7374C67.1503 12.9405 67.2459 13.1496 67.1801 13.2512Z" fill="#263238"/>
<path d="M59.7295 6.5833C59.6354 7.97175 59.1307 9.30092 58.2797 10.402C57.4286 11.503 56.2695 12.3263 54.9496 12.7673C53.898 13.1019 52.5596 13.3648 52.231 14.3984C51.9024 15.4321 52.8882 16.4896 53.3722 17.5293C53.6558 18.1753 53.7425 18.8907 53.6213 19.5858C53.5001 20.2809 53.1765 20.9248 52.6911 21.4368C52.1354 22.0343 51.3886 22.3809 50.8628 22.9783C50.5224 23.3884 50.2795 23.8702 50.1522 24.3877C50.0249 24.9051 50.0166 25.4447 50.1278 25.9658C50.3533 27.0094 50.9034 27.9548 51.6992 28.6664C49.2077 28.8098 46.4712 27.5431 45.6586 25.1831C45.1747 23.773 45.4256 22.2375 45.6228 20.7617C46.0715 17.3957 46.2095 13.9956 46.0351 10.6044C45.9425 10.0343 46.0368 9.4495 46.3039 8.9374C46.6789 8.50667 47.1847 8.21074 47.7439 8.09494C51.2681 7.00043 54.8609 6.14016 58.4986 5.51978" fill="#263238"/>
<path d="M58.2537 5.62752C58.8819 6.92462 59.7084 8.11594 60.7034 9.15866C61.2063 9.67737 61.8222 10.0729 62.5031 10.3144C63.184 10.5559 63.9115 10.6368 64.6288 10.5508C64.3719 10.1206 64.115 9.69044 63.8641 9.26025C65.8733 11.331 68.293 12.9591 70.9682 14.0401C69.6537 11.5665 68.2914 9.03319 66.1883 7.18098C64.0851 5.32877 61.038 4.2772 58.421 5.26306" fill="#263238"/>
<path d="M64.0553 39.6484L47.8156 38.3997L50.5401 47.0035L64.4376 51.634L66.2839 48.5151L64.0553 39.6484Z" fill="#FFBE9D"/>
<path d="M33.2249 53.6175C31.2782 52.9899 29.2161 52.8036 27.1884 53.0721C25.1607 53.3407 23.2182 54.0573 21.502 55.17C19.7857 56.2827 18.3387 57.7636 17.266 59.5052C16.1933 61.2467 15.5218 63.2053 15.3003 65.2386C14.8701 69.1821 16.1487 73.1972 15.4736 77.1047C14.9777 79.9846 13.4541 82.5837 12.7789 85.4277C11.321 91.552 14.2368 98.3095 19.3513 101.954C24.4658 105.599 31.4623 106.202 37.3894 104.087L43.4838 94.5274L39.4448 57.7939L33.213 53.6115" fill="#455A64"/>
<path d="M42.9579 79.6322C42.9579 79.6322 41.5658 87.0949 42.4023 88.2241C42.9502 88.9164 43.7444 89.3702 44.619 89.4908L71.5537 87.4055L72.4499 72.5819C72.4499 72.5819 75.1625 62.4246 73.9138 58.1167C72.665 53.8088 67.3055 40.6223 67.3055 40.6223L63.1769 39.3855C63.1769 39.3855 63.1769 43.6934 61.6593 43.9682C60.1417 44.2431 52.7986 44.2909 49.2017 39.6484L47.8155 38.3997L40.1318 43.9981L43.6809 74.3564L42.9579 79.6322Z" fill="#D96431"/>
<path d="M30.811 53.0858C30.811 53.0858 35.8299 45.5515 37.8375 43.4244C40.9982 40.0785 45.4614 38.7163 46.5309 39.3376C48.0007 40.1861 55.3319 47.816 55.9174 52.9663C56.503 58.1167 55.9174 70.8909 55.9174 70.8909L49.7215 72.7611L49.6558 66.589L48.6281 51.4069C48.6281 51.4069 46.0888 44.237 40.1378 43.998C40.1378 43.998 33.918 49.226 33.6969 54.2569L30.811 53.0858Z" fill="#455A64"/>
<path d="M45.2523 81.5203L32.8306 92.8726L36.1108 97.2522C36.1108 97.2522 51.2212 87.6207 52.7986 78.019L45.2523 81.5203Z" fill="#455A64"/>
<path d="M29.5383 105.3C28.9009 104.949 28.3004 104.535 27.7459 104.063C26.2134 102.787 24.957 101.211 24.0534 99.4329C23.4245 98.2095 22.9489 96.9131 22.6374 95.5732C22.3115 94.0288 22.1433 92.4553 22.1355 90.8769C22.0757 87.5489 22.6194 83.9222 23.2588 80.158C23.9532 76.6429 24.3727 73.0791 24.5135 69.4988C24.5362 67.9389 24.4263 66.3798 24.1849 64.8384C23.9459 63.3925 23.6411 62.0482 23.4918 60.7994C23.3241 59.6744 23.3241 58.5307 23.4918 57.4057C23.6186 56.5558 23.8936 55.7347 24.3044 54.9799C24.5639 54.5014 24.9011 54.0693 25.3022 53.7013C25.4378 53.5715 25.5859 53.4554 25.7443 53.3547C25.2047 53.8314 24.7536 54.3998 24.4119 55.0337C24.0293 55.7827 23.7749 56.5905 23.6591 57.4236C23.5201 58.5319 23.5382 59.6543 23.7128 60.7576C23.8801 61.9944 24.1908 63.3268 24.4418 64.7847C24.7016 66.3383 24.8236 67.9118 24.8062 69.4869C24.6851 73.0852 24.2735 76.6678 23.5754 80.1998C22.8782 83.7139 22.4943 87.283 22.4282 90.865C22.4298 92.4221 22.5859 93.9752 22.8943 95.5015C23.1903 96.827 23.6478 98.1112 24.2566 99.3254C25.1371 101.09 26.355 102.665 27.8415 103.962C28.0984 104.195 28.3493 104.386 28.5585 104.559C28.7676 104.733 28.9528 104.864 29.1022 104.966L29.4427 105.211C29.4768 105.238 29.5087 105.268 29.5383 105.3Z" fill="#263238"/>
<path d="M23.7608 76.7045C22.3346 76.8618 20.8987 76.9137 19.4649 76.8598C18.033 76.9138 16.5991 76.8619 15.1749 76.7045C16.5994 76.5507 18.033 76.4987 19.4649 76.5491C20.8987 76.4989 22.3343 76.5508 23.7608 76.7045Z" fill="#263238"/>
<path d="M67.3055 40.6223C67.3055 40.6223 72.1452 42.7912 73.8062 45.5277C75.4672 48.2642 79.9723 63.9482 79.9723 63.9482L73.6389 65.197L67.3055 40.6223Z" fill="#D96431"/>
<path d="M70.8129 63.2491C70.8129 63.2491 69.355 48.9095 68.7456 47.9893C68.1361 47.0692 67.1503 40.0786 64.0553 39.6245C64.0553 39.6245 67.3176 40.3773 69.1997 41.5843C71.0817 42.7912 73.1251 49.3038 73.1251 49.3038L74.3201 60.6561L70.8129 63.2491Z" fill="#455A64"/>
<path d="M32.2092 50.6958C31.9658 50.3467 31.6647 50.0417 31.3189 49.7936C30.9312 49.555 30.4891 49.4193 30.0344 49.3992C29.4752 49.3845 28.923 49.5251 28.4391 49.8055C27.5584 50.3451 26.8721 51.1507 26.4793 52.1059C26.1507 52.8408 26.0252 53.3307 25.9774 53.3008C25.9916 52.8533 26.093 52.4129 26.2762 52.0043C26.6332 50.9627 27.3462 50.0804 28.2897 49.5128C28.8225 49.2065 29.4326 49.0612 30.0463 49.0945C30.5469 49.1299 31.0282 49.3014 31.4384 49.5904C31.6368 49.7109 31.8078 49.8714 31.9405 50.0618C32.0732 50.2521 32.1647 50.468 32.2092 50.6958Z" fill="#263238"/>
<path d="M48.6222 51.4069C48.4784 51.1461 48.3507 50.8767 48.2399 50.6002L48.0427 50.1581C47.959 49.9968 47.8694 49.8295 47.7678 49.6502C47.6663 49.471 47.5587 49.2738 47.4512 49.0528L47.0329 48.4553C46.3264 47.4288 45.4446 46.5349 44.4279 45.8144C43.1563 44.908 41.6767 44.3367 40.126 44.1534C38.9675 44.1169 37.8293 44.4634 36.8876 45.1392H36.9234C36.8816 45.181 36.8458 45.2288 36.804 45.2766C34.422 48.0797 32.2795 51.0776 30.3989 54.2389C29.6819 55.4339 29.1262 56.4556 28.7498 57.1487L28.3196 57.9493C28.2747 58.0484 28.2164 58.1409 28.1464 58.2242C28.1731 58.1207 28.2112 58.0206 28.2599 57.9254C28.3435 57.7342 28.469 57.4475 28.6423 57.0949C28.9888 56.378 29.5086 55.3562 30.2137 54.1075C32.0438 50.8935 34.1723 47.8589 36.5709 45.0436L36.6844 44.9062C37.2093 44.5724 37.7706 44.2997 38.3574 44.0936C38.9304 43.8851 39.5438 43.8115 40.1499 43.8785C41.7562 44.068 43.2859 44.6712 44.5892 45.6292C45.6233 46.374 46.5106 47.3038 47.2062 48.3716L47.6125 49.0109C47.72 49.2201 47.8156 49.4232 47.9112 49.6084L48.1741 50.1282L48.3474 50.5823C48.4606 50.8495 48.5525 51.1252 48.6222 51.4069Z" fill="#263238"/>
<path d="M43.3881 87.0291C42.956 87.4432 42.479 87.8079 41.9661 88.1165C39.5445 89.7021 36.8596 90.8432 34.0375 91.4863C33.4528 91.6467 32.851 91.737 32.245 91.7552C32.8067 91.5605 33.3792 91.3989 33.9598 91.2712C36.7274 90.5217 39.3806 89.4002 41.8466 87.9372C42.3409 87.6025 42.8557 87.2991 43.3881 87.0291Z" fill="#263238"/>
<path d="M114.973 149.676L111.191 186.373L99.6417 186.218L98.8112 147.435L114.973 149.676Z" fill="#FFBE9D"/>
<path d="M111.526 182.878V183.649C111.526 183.649 124.533 188.912 124.67 191.38L98.817 191.183L99.2353 182.579C101.143 183.507 103.227 184.015 105.348 184.066C107.469 184.118 109.575 183.712 111.526 182.878Z" fill="#455A64"/>
<path d="M101.828 185.328C101.58 185.401 101.367 185.564 101.231 185.784C101.094 186.004 101.043 186.267 101.088 186.523C101.153 186.776 101.313 186.995 101.536 187.133C101.759 187.271 102.026 187.318 102.283 187.263C102.546 187.184 102.771 187.01 102.914 186.776C103.058 186.541 103.109 186.261 103.059 185.991C102.965 185.736 102.775 185.527 102.53 185.408C102.285 185.288 102.004 185.268 101.745 185.352" fill="white"/>
<path d="M98.8112 191.183L98.9127 189.11L123.655 190.06C123.655 190.06 124.802 190.574 124.664 191.38L98.8112 191.183Z" fill="white"/>
<path d="M111.615 183.721C111.615 183.846 110.982 183.9 110.354 184.318C109.727 184.736 109.398 185.244 109.279 185.196C109.16 185.148 109.357 184.414 110.121 183.942C110.886 183.47 111.645 183.601 111.615 183.721Z" fill="#263238"/>
<path d="M114.322 184.861C114.322 184.987 113.802 185.196 113.366 185.728C112.93 186.26 112.804 186.821 112.679 186.815C112.553 186.809 112.482 186.092 113.031 185.441C113.581 184.79 114.322 184.73 114.322 184.861Z" fill="#263238"/>
<path d="M115.834 188.118C115.72 188.148 115.553 187.52 115.881 186.827C116.21 186.134 116.801 185.865 116.855 185.973C116.909 186.08 116.539 186.445 116.258 187.012C115.977 187.58 115.977 188.106 115.834 188.118Z" fill="#263238"/>
<path d="M118.385 158.901L135.951 178.905L127.7 186.989L106.859 168.783L118.385 158.901Z" fill="#FFBE9D"/>
<path d="M133.704 176.204L134.254 176.748C134.254 176.748 147.154 171.227 149 172.87L130.639 191.075L124.832 184.73C128.817 183.278 131.81 180.589 133.704 176.204Z" fill="#455A64"/>
<path d="M128.626 184.832C128.503 185.06 128.469 185.326 128.529 185.578C128.59 185.831 128.741 186.052 128.954 186.2C129.179 186.332 129.445 186.372 129.699 186.313C129.952 186.255 130.173 186.101 130.317 185.883C130.446 185.641 130.482 185.359 130.415 185.091C130.349 184.824 130.186 184.591 129.958 184.437C129.711 184.324 129.429 184.31 129.173 184.401C128.916 184.491 128.705 184.678 128.584 184.921" fill="white"/>
<path d="M130.639 191.076L129.241 189.546L147.351 172.661C147.351 172.661 148.546 172.207 149 172.87L130.639 191.076Z" fill="white"/>
<path d="M134.367 176.736C134.451 176.826 134.045 177.333 133.889 178.038C133.734 178.743 133.889 179.371 133.758 179.419C133.627 179.466 133.256 178.821 133.459 177.937C133.662 177.053 134.308 176.634 134.367 176.736Z" fill="#263238"/>
<path d="M137.08 175.618C137.188 175.684 136.955 176.216 137.026 176.903C137.098 177.59 137.403 178.098 137.313 178.158C137.223 178.217 136.656 177.793 136.584 176.963C136.512 176.132 136.996 175.535 137.08 175.618Z" fill="#263238"/>
<path d="M140.474 176.843C140.408 176.939 139.84 176.616 139.584 175.899C139.327 175.182 139.554 174.567 139.667 174.603C139.781 174.638 139.781 175.158 140.002 175.75C140.223 176.341 140.54 176.742 140.474 176.843Z" fill="#263238"/>
<path d="M43.5794 44.4104C42.9482 43.9044 42.1529 43.6484 41.3451 43.6914C40.5373 43.7344 39.7737 44.0733 39.1998 44.6434C37.001 46.8421 33.8224 50.5346 33.7149 53.528C33.5655 58.1108 32.8306 70.2577 32.8306 70.2577L49.6797 69.6602C49.6797 69.6602 49.6797 53.528 48.2039 49.8535C47.3674 47.7444 45.2583 45.7487 43.5794 44.4104Z" fill="#D96431"/>
<path d="M34.7724 70.2337C34.7724 70.2337 33.8104 79.5007 34.8799 83.7548C35.9853 88.1583 38.1661 88.0926 40.0004 88.224C41.8347 88.3554 70.7949 73.1733 70.7949 73.1733L67.5804 67.4673L45.7781 74.0396L45.9752 69.7796L34.7724 70.2337Z" fill="#FFBE9D"/>
<path d="M67.4011 67.6227L72.6291 61.0802L77.3493 59.9868L83.0971 60.6202C83.1488 60.8855 83.1091 61.1606 82.9843 61.4004C82.8595 61.6403 82.657 61.8307 82.41 61.9406L84.4235 62.0541C84.4775 62.2014 84.5008 62.3581 84.4921 62.5146C84.4834 62.6712 84.4428 62.8244 84.3729 62.9648C84.303 63.1051 84.2052 63.2297 84.0855 63.331C83.9658 63.4323 83.8267 63.5081 83.6767 63.5538L85.1106 63.8047C84.9241 64.2254 84.6022 64.5717 84.1962 64.7882C83.7902 65.0048 83.3233 65.0792 82.8701 64.9997C81.4582 64.8076 80.0349 64.7118 78.61 64.7129L75.7958 66.2664L79.9782 66.0931L83.0314 66.6906C83.0314 66.6906 83.4317 67.4673 82.7446 67.6526C81.6333 67.7475 80.5159 67.7475 79.4046 67.6526L75.3776 68.7042C75.3776 68.7042 74.5172 71.2913 73.9974 71.8649C73.4776 72.4384 70.6037 73.1853 70.6037 73.1853L67.4011 67.6227Z" fill="#FFBE9D"/>
<path d="M84.4235 62.0719C83.9013 62.1089 83.3766 62.0908 82.8581 62.0181C81.8962 61.9405 80.5697 61.815 79.1059 61.6597L77.7018 61.4983H77.7616C76.6682 61.8031 75.7241 62.06 75.049 62.2273C74.6946 62.3433 74.3274 62.4155 73.9556 62.4424C74.2862 62.2709 74.6349 62.1366 74.9952 62.0421C75.6584 61.827 76.5905 61.5342 77.6779 61.2056H77.7377L79.1477 61.3549C80.6056 61.5103 81.932 61.6716 82.888 61.8031C83.4074 61.8425 83.9217 61.9326 84.4235 62.0719Z" fill="#EB996E"/>
<path d="M84.7701 63.7629C84.296 63.7811 83.8214 63.7491 83.3541 63.6673C82.4817 63.5658 81.2808 63.4104 79.9603 63.2133L78.6459 63.0161H78.7235C77.6502 63.4933 76.544 63.8926 75.4135 64.2111C76.4411 63.6494 77.5097 63.1661 78.61 62.7651H78.6459H78.6877L80.0081 62.9504C81.3286 63.1416 82.5235 63.3327 83.3839 63.4881C83.8546 63.529 84.3194 63.6211 84.7701 63.7629Z" fill="#EB996E"/>
<path d="M70.6157 73.1732C70.7663 73.1137 70.9199 73.0618 71.0758 73.0179C71.3805 72.9223 71.8346 72.7848 72.4082 72.5757C72.689 72.4682 73.0056 72.3487 73.3462 72.1874C73.5195 72.1124 73.6838 72.0182 73.8362 71.9065C73.99 71.7761 74.1125 71.6127 74.1946 71.4285C74.6271 70.532 74.9945 69.6055 75.294 68.6562V68.6084H75.3478L79.3689 67.5389H79.4107C80.0918 67.5807 80.8208 67.6106 81.5736 67.6106C81.9476 67.6181 82.3215 67.5921 82.6909 67.5329C82.7642 67.5226 82.8326 67.4902 82.8871 67.44C82.9415 67.3899 82.9794 67.3243 82.9956 67.2521C83.016 67.0809 82.9826 66.9076 82.9 66.7562L82.9956 66.8279L79.9484 66.2603H79.9783L75.7959 66.4395H75.1506L75.7182 66.1288L78.5324 64.5754H78.5682H78.6041C79.6736 64.5754 80.7909 64.6232 81.9321 64.7367C82.2488 64.7726 82.5595 64.8084 82.8702 64.8622C83.1518 64.922 83.4429 64.922 83.7246 64.8622C83.9948 64.7804 84.245 64.643 84.459 64.4588C84.673 64.2746 84.8462 64.0477 84.9673 63.7927L85.0809 64.0018L83.6409 63.7508L83.1151 63.6552L83.611 63.4581C83.8664 63.3626 84.0786 63.178 84.2085 62.9383C84.2668 62.8181 84.3006 62.6875 84.3077 62.5541C84.3149 62.4207 84.2954 62.2873 84.2503 62.1615L84.3818 62.2571L82.3683 62.1376L81.8186 62.1078L82.3145 61.8568C82.5328 61.7519 82.7141 61.5831 82.8343 61.3728C82.9421 61.1674 82.9759 60.9311 82.9299 60.7037L83.0554 60.8112L77.3016 60.1599H77.3494L72.6233 61.2294L72.683 61.1936L68.8173 65.9735L67.7597 67.2521L67.4789 67.5807C67.4132 67.6524 67.3773 67.6883 67.3713 67.6823L67.455 67.5568L67.7119 67.2103L68.7754 65.8301C69.6896 64.6769 70.9742 63.0339 72.5695 61.0024H72.6053L77.3195 59.8552H77.3613L83.1151 60.4527H83.2167V60.5543C83.2847 60.8512 83.2444 61.1627 83.1032 61.4326C82.9531 61.6943 82.7256 61.9031 82.4519 62.0301L82.3922 61.7493L84.4057 61.8628H84.5073V61.9524C84.5678 62.1183 84.5948 62.2946 84.5866 62.471C84.5784 62.6475 84.5352 62.8205 84.4595 62.9801C84.2891 63.2913 84.0107 63.5293 83.6768 63.6493L83.7126 63.4401L85.1526 63.6971L85.3497 63.7269L85.2661 63.9062C85.1286 64.2058 84.9284 64.4723 84.6789 64.6878C84.4294 64.9032 84.1366 65.0625 83.8202 65.1549C83.4951 65.2234 83.1594 65.2234 82.8343 65.1549C82.5356 65.1071 82.2368 65.0653 81.9202 65.0354C80.7969 64.9219 79.6796 64.8861 78.622 64.8741H78.6997L75.8676 66.4276L75.7899 66.1468L79.9723 65.9795H80.0082L83.0554 66.577H83.1271V66.6367C83.232 66.8453 83.2735 67.08 83.2466 67.3119C83.2183 67.4333 83.1552 67.5437 83.065 67.6297C82.9747 67.7157 82.8613 67.7735 82.7387 67.7958C82.3443 67.8648 81.9439 67.8929 81.5437 67.8795C80.7789 67.8795 80.056 67.8317 79.3629 67.7839H79.3988L75.4195 68.8175L75.4852 68.7518C75.1758 69.7092 74.7902 70.6403 74.3321 71.5361C74.2369 71.7374 74.0981 71.915 73.9258 72.0559C73.7597 72.1674 73.5837 72.2634 73.4 72.3427C73.0877 72.4803 72.7686 72.602 72.444 72.7072C71.8465 72.8984 71.4044 73.0238 71.0937 73.1015L70.7412 73.1852C70.6575 73.1732 70.6217 73.1792 70.6157 73.1732Z" fill="#EB996E"/>
<path d="M32.5378 70.2337C32.6289 70.2067 32.7237 70.1946 32.8187 70.1979L33.6372 70.1441L36.6844 70.0007L47.1344 69.6004L46.991 69.7438C47.0269 68.28 46.9911 66.7205 46.9194 65.1133C46.7879 62.4604 46.5549 59.939 46.4115 57.6387C46.3278 56.4856 46.298 55.3922 46.2024 54.3764C46.1282 53.435 45.9844 52.5004 45.7722 51.5802C45.4737 50.2429 44.9177 48.9766 44.1351 47.8519C43.5675 47.0692 43.1492 46.7167 43.1731 46.6987C43.2859 46.7653 43.3886 46.8478 43.4778 46.9437C43.7533 47.2013 44.0071 47.481 44.2366 47.7802C45.0654 48.8982 45.6589 50.1726 45.9813 51.5264C46.2134 52.4547 46.3732 53.3996 46.4593 54.3525C46.5668 55.3742 46.6087 56.4676 46.6923 57.6148C46.8596 59.9151 47.0986 62.4365 47.2301 65.0954C47.3137 66.7086 47.3376 68.28 47.2898 69.7558V69.8992H47.1524L36.6964 70.1919L33.6432 70.2457H32.8246L32.5378 70.2337Z" fill="#263238"/>
<path d="M44.6189 89.4908C44.6189 89.4908 36.989 99.8871 36.989 104.07C36.989 108.252 37.1503 114.472 42.1155 118.953C47.0806 123.434 107.767 175.864 107.767 175.864L122.549 162.802L67.5445 107.236C67.5445 107.236 70.1077 102.594 68.9844 100.664C68.3238 99.523 67.3143 98.6245 66.1046 98.1006L65.9432 87.8059L44.6189 89.4908Z" fill="#263238"/>
<path d="M71.5537 87.4055L72.8443 98.3814C72.8443 98.3814 111.914 118.624 115.063 124.605C116.491 127.318 117.877 151.856 117.877 151.856L98.6139 152.293L96.1224 132.844L85.7858 127.258L67.3056 108.479L61.0081 88.2241L71.5537 87.4055Z" fill="#263238"/>
<path d="M53.9338 89.0784C54.0216 89.2868 54.0819 89.5057 54.1131 89.7296C54.2291 90.3312 54.303 90.9401 54.3341 91.552C54.3825 92.4668 54.3163 93.3841 54.137 94.2825C53.9128 95.3925 53.4656 96.4454 52.8225 97.3775C52.1762 98.3162 51.2943 99.0683 50.2653 99.5583C49.4162 99.9389 48.4873 100.107 47.5586 100.048C46.9349 100.004 46.3259 99.8373 45.7662 99.5583C45.6175 99.4831 45.4755 99.3951 45.342 99.2954C45.2464 99.2297 45.2045 99.1878 45.2105 99.1759C45.9397 99.5586 46.7424 99.7807 47.5646 99.8272C48.4511 99.8561 49.3317 99.6739 50.1338 99.2954C51.1089 98.816 51.9443 98.0938 52.5596 97.1982C53.6545 95.5293 54.196 93.558 54.1071 91.5639C54.0832 90.0284 53.8801 89.0843 53.9338 89.0784Z" fill="#263238"/>
<path d="M68.9128 96.5171C68.6245 96.835 68.2827 97.0999 67.903 97.2998C67.0223 97.8443 66.0715 98.2664 65.0769 98.5545C64.0829 98.8459 63.0535 98.9987 62.0178 99.0086C61.5899 99.0392 61.1598 98.9989 60.7451 98.8891C62.1763 98.8153 63.597 98.6032 64.9873 98.2558C66.3499 97.807 67.6647 97.2246 68.9128 96.5171Z" fill="#455A64"/>
<path d="M67.7298 89.1621C67.7298 89.1322 68.1002 89.0306 68.5603 89.3772C68.695 89.4814 68.8035 89.6156 68.8771 89.7691C68.9508 89.9226 68.9875 90.0912 68.9845 90.2615C68.9831 90.475 68.9212 90.6838 68.8059 90.8636C68.6906 91.0434 68.5267 91.1868 68.3332 91.2772C68.1306 91.361 67.9071 91.3802 67.6932 91.3321C67.4793 91.2839 67.2854 91.1709 67.1383 91.0083C67.0428 90.9007 66.9748 90.7716 66.9401 90.6319C66.9054 90.4923 66.9051 90.3463 66.9391 90.2066C66.9732 90.0668 67.0406 89.9373 67.1357 89.8293C67.2307 89.7213 67.3505 89.6379 67.4848 89.5863C67.6342 89.5385 67.7238 89.5863 67.7238 89.5863C67.7238 89.5863 67.3713 89.6759 67.204 90.124C67.1573 90.2419 67.1459 90.3708 67.1714 90.495C67.1969 90.6191 67.258 90.7332 67.3474 90.8231C67.4574 90.93 67.5955 91.0036 67.7457 91.0354C67.8958 91.0671 68.0519 91.0556 68.1958 91.0024C68.3372 90.9336 68.4574 90.8279 68.5436 90.6964C68.6299 90.5649 68.679 90.4126 68.6858 90.2555C68.6926 90.1247 68.671 89.9939 68.6225 89.8722C68.574 89.7505 68.4998 89.6408 68.4049 89.5505C68.0703 89.2099 67.7238 89.2159 67.7298 89.1621Z" fill="#455A64"/>
<path d="M68.9904 109.381C68.533 109.061 68.1015 108.705 67.6999 108.317C66.6803 107.45 65.6131 106.64 64.5033 105.892C63.3928 105.147 62.2284 104.486 61.02 103.914C60.504 103.703 60.0011 103.462 59.5143 103.191C60.0664 103.294 60.6027 103.469 61.1096 103.711C62.3651 104.23 63.566 104.872 64.6945 105.629C65.8183 106.382 66.8775 107.227 67.8612 108.156C68.2812 108.522 68.6598 108.933 68.9904 109.381Z" fill="#455A64"/>
<path d="M71.4581 102.02C71.4196 101.333 71.5575 100.648 71.8587 100.03C72.16 99.4122 72.6144 98.8815 73.1789 98.4888C73.2446 98.5605 72.5814 99.1938 72.1392 100.168C71.6971 101.142 71.5537 102.032 71.4581 102.02Z" fill="#455A64"/>
<path d="M115.379 178.755C115.002 178.448 114.662 178.099 114.364 177.716C113.766 177.046 112.954 176.108 112.075 175.063C111.887 174.808 111.659 174.586 111.4 174.406C111.159 174.264 110.877 174.207 110.599 174.244C110.102 174.325 109.63 174.519 109.219 174.812C108.843 175.132 108.394 175.353 107.911 175.457C107.911 175.427 108.389 175.188 109.106 174.633C109.523 174.3 110.015 174.075 110.54 173.975C110.882 173.925 111.231 173.991 111.532 174.161C111.822 174.357 112.076 174.602 112.284 174.883C113.163 175.929 113.945 176.885 114.501 177.59C114.835 177.946 115.129 178.336 115.379 178.755Z" fill="#455A64"/>
<path d="M107.767 175.851C107.767 175.851 107.851 175.762 108.018 175.606L108.777 174.919L111.699 172.296L122.483 162.737V162.91L94.5749 135.085L74.5292 115.033L72.3603 112.816L71.3027 111.753C70.9562 111.4 70.6097 111.054 70.2392 110.743C69.4569 110.171 68.8237 109.419 68.393 108.55C68.2137 108.103 68.1741 107.611 68.2795 107.14C68.387 106.674 68.5842 106.286 68.7097 105.868C68.9827 105.067 69.1827 104.243 69.3071 103.406C69.4427 102.632 69.381 101.837 69.1279 101.094C68.7772 100.45 68.323 99.869 67.7836 99.373C67.2961 98.9011 66.7351 98.5116 66.1225 98.2199H66.0688V98.1661C66.0329 95.0353 66.009 92.5617 65.9911 90.8529C65.9911 90.0164 65.9911 89.3651 65.9911 88.911C65.9911 88.7019 65.9911 88.5406 65.9911 88.4151C65.9911 88.2896 65.9911 88.2478 65.9911 88.2478C65.9989 88.3033 65.9989 88.3596 65.9911 88.4151C65.9911 88.5406 65.9911 88.7019 65.9911 88.911C65.9911 89.3651 65.9911 90.0164 66.0449 90.8529C66.0807 92.5557 66.1345 95.0353 66.2002 98.1601L66.1464 98.0825C66.7856 98.3832 67.3709 98.7869 67.8792 99.2774C68.4432 99.7915 68.916 100.398 69.2773 101.07C69.5542 101.845 69.6262 102.679 69.4864 103.49C69.3656 104.341 69.1656 105.179 68.8889 105.993C68.7634 106.411 68.5663 106.83 68.4707 107.242C68.3775 107.669 68.4149 108.115 68.5782 108.521C69.0036 109.347 69.6177 110.061 70.3707 110.606C70.7444 110.924 71.1014 111.261 71.4402 111.616L72.5037 112.679L74.7025 114.86C80.6773 120.805 87.5006 127.634 94.778 134.888L122.639 162.772L122.722 162.862L122.633 162.94L111.794 172.392L108.807 174.967L108.03 175.63L107.767 175.851Z" fill="#455A64"/>
<path d="M116.431 176.574C115.704 175.758 115.1 174.841 114.639 173.85C114.094 172.908 113.692 171.892 113.444 170.832C113.527 170.797 114.101 172.129 114.919 173.706C115.738 175.284 116.509 176.527 116.431 176.574Z" fill="#455A64"/>
<path d="M120.237 173.874C118.387 172.476 116.93 170.624 116.007 168.497C116.084 168.455 116.849 169.787 118.02 171.263C119.191 172.739 120.297 173.808 120.237 173.874Z" fill="#455A64"/>
<path d="M122.639 171.221C121.916 170.453 121.25 169.634 120.643 168.771C119.955 167.97 119.326 167.119 118.761 166.226C119.564 166.921 120.279 167.711 120.888 168.58C121.58 169.384 122.168 170.271 122.639 171.221Z" fill="#455A64"/>
<path d="M125.148 166.806C124.429 166.494 123.753 166.092 123.135 165.611C122.464 165.207 121.85 164.717 121.307 164.153C122.026 164.46 122.701 164.862 123.314 165.348C123.986 165.753 124.602 166.243 125.148 166.806Z" fill="#455A64"/>
<path d="M89.9623 131.942C90.022 132.002 87.3632 134.446 84.0352 137.391C80.7072 140.337 77.9528 142.679 77.899 142.613C77.8452 142.548 80.4981 140.11 83.8261 137.158C87.1541 134.207 89.9085 131.877 89.9623 131.942Z" fill="#455A64"/>
<path d="M89.4544 132.976C89.2754 133.403 89.0404 133.805 88.7554 134.171C88.1305 135.072 87.4437 135.928 86.7 136.734C85.9554 137.542 85.157 138.299 84.3101 138.998C83.9761 139.309 83.6024 139.575 83.1988 139.787C83.139 139.715 84.7463 138.401 86.467 136.525C88.1878 134.649 89.3708 132.922 89.4544 132.976Z" fill="#455A64"/>
<path d="M55.0751 90.0763C55.0751 90.0763 55.0751 90.2555 54.9914 90.5722C54.8785 91.0181 54.7286 91.4537 54.5433 91.8747C54.2699 92.5021 53.9378 93.1023 53.5515 93.6672C53.0697 94.3565 52.5192 94.9951 51.9084 95.5732C51.2901 96.1387 50.6154 96.6393 49.8948 97.0669C49.302 97.4101 48.6778 97.6962 48.0307 97.9213C47.5979 98.0768 47.152 98.1928 46.6983 98.2678C46.5344 98.3093 46.3654 98.3274 46.1964 98.3216C46.1964 98.2619 46.8895 98.1364 47.953 97.7241C48.5752 97.4776 49.1749 97.1777 49.7455 96.8279C50.4427 96.4 51.097 95.9057 51.6993 95.3521C52.2944 94.7919 52.8364 94.1778 53.3185 93.5178C53.7036 92.9719 54.0452 92.3965 54.3402 91.797C54.842 90.7514 55.0332 90.0583 55.0751 90.0763Z" fill="#455A64"/>
<path d="M101.237 125.471C100.11 126.521 99.0767 127.667 98.1479 128.895C97.3085 130.185 96.5809 131.544 95.973 132.958C96.0238 132.501 96.1468 132.056 96.3375 131.638C96.7356 130.603 97.2593 129.622 97.8969 128.716C98.5323 127.808 99.279 126.983 100.12 126.26C100.448 125.939 100.825 125.673 101.237 125.471Z" fill="#455A64"/>
<path d="M105.168 127.646C105.168 127.742 103.047 128.13 100.604 129.164C98.1598 130.198 96.3793 131.452 96.3256 131.369C96.6581 131.028 97.0361 130.734 97.4488 130.496C98.4092 129.865 99.4251 129.323 100.484 128.877C101.542 128.433 102.638 128.085 103.758 127.837C104.218 127.712 104.692 127.648 105.168 127.646Z" fill="#455A64"/>
</svg>
