<svg width="13" height="23" viewBox="0 0 13 23" fill="none" xmlns="http://www.w3.org/2000/svg">
<path d="M10.6667 2.33332V1.49999C10.6667 1.27898 10.5789 1.06701 10.4226 0.910734C10.2663 0.754454 10.0544 0.666656 9.83335 0.666656C9.61234 0.666656 9.40038 0.754454 9.2441 0.910734C9.08782 1.06701 9.00002 1.27898 9.00002 1.49999V2.33332H2.33335C1.89133 2.33332 1.4674 2.50892 1.15484 2.82148C0.842282 3.13404 0.666687 3.55796 0.666687 3.99999V20.6667C0.666687 21.1087 0.842282 21.5326 1.15484 21.8452C1.4674 22.1577 1.89133 22.3333 2.33335 22.3333H10.6667C11.1087 22.3333 11.5326 22.1577 11.8452 21.8452C12.1578 21.5326 12.3334 21.1087 12.3334 20.6667V3.99999C12.3334 3.55796 12.1578 3.13404 11.8452 2.82148C11.5326 2.50892 11.1087 2.33332 10.6667 2.33332ZM4.00002 20.6667H2.33335V19H4.00002V20.6667ZM4.00002 17.3333H2.33335V15.6667H4.00002V17.3333ZM4.00002 14H2.33335V12.3333H4.00002V14ZM7.33335 20.6667H5.66669V19H7.33335V20.6667ZM7.33335 17.3333H5.66669V15.6667H7.33335V17.3333ZM7.33335 14H5.66669V12.3333H7.33335V14ZM10.6667 20.6667H9.00002V19H10.6667V20.6667ZM10.6667 17.3333H9.00002V15.6667H10.6667V17.3333ZM10.6667 14H9.00002V12.3333H10.6667V14ZM10.6667 9.83332C10.6667 10.0543 10.5789 10.2663 10.4226 10.4226C10.2663 10.5789 10.0544 10.6667 9.83335 10.6667H3.16669C2.94567 10.6667 2.73371 10.5789 2.57743 10.4226C2.42115 10.2663 2.33335 10.0543 2.33335 9.83332V4.83332C2.33335 4.61231 2.42115 4.40035 2.57743 4.24407C2.73371 4.08779 2.94567 3.99999 3.16669 3.99999H9.83335C10.0544 3.99999 10.2663 4.08779 10.4226 4.24407C10.5789 4.40035 10.6667 4.61231 10.6667 4.83332V9.83332Z" fill="#EC5C29"/>
</svg>
