<svg width="373" height="385" viewBox="0 0 373 385" fill="none" xmlns="http://www.w3.org/2000/svg">
<path d="M240.463 264.356C237.138 264.356 234.453 261.671 234.453 258.346V218.213C234.453 214.888 237.138 212.203 240.463 212.203C243.785 212.203 246.473 214.888 246.473 218.213V258.346C246.473 261.671 243.785 264.356 240.463 264.356Z" fill="black"/>
<path d="M204.426 264.395C201.101 264.395 198.416 261.706 198.416 258.385V218.189C198.416 214.865 201.101 212.179 204.426 212.179C207.748 212.179 210.436 214.865 210.436 218.189V258.385C210.436 261.706 207.748 264.395 204.426 264.395Z" fill="black"/>
<path d="M252.548 294.457C249.226 294.457 246.538 291.768 246.538 288.447C246.538 285.122 249.226 282.436 252.548 282.436C257.519 282.436 261.563 278.384 261.563 273.41C261.563 268.444 257.519 264.406 252.548 264.406C249.226 264.406 246.538 261.718 246.538 258.396C246.538 255.071 249.226 252.386 252.548 252.386C264.149 252.386 273.583 261.815 273.583 273.41C273.583 285.013 264.143 294.457 252.548 294.457Z" fill="black"/>
<path d="M252.548 324.577C249.226 324.577 246.538 321.892 246.538 318.567C246.538 315.245 249.226 312.557 252.548 312.557C257.519 312.557 261.563 308.507 261.563 303.53C261.563 298.559 257.519 294.515 252.548 294.515C249.226 294.515 246.538 291.83 246.538 288.505C246.538 285.183 249.226 282.495 252.548 282.495C264.149 282.495 273.583 291.933 273.583 303.53C273.583 315.137 264.143 324.577 252.548 324.577Z" fill="black"/>
<path d="M252.548 354.519C249.226 354.519 246.538 351.834 246.538 348.509C246.538 345.187 249.226 342.499 252.548 342.499C257.519 342.499 261.563 338.449 261.563 333.472C261.563 328.504 257.519 324.457 252.548 324.457C249.226 324.457 246.538 321.772 246.538 318.447C246.538 315.125 249.226 312.437 252.548 312.437C264.149 312.437 273.583 321.874 273.583 333.472C273.583 345.078 264.143 354.519 252.548 354.519Z" fill="black"/>
<path d="M231.428 354.507C219.83 354.507 210.393 345.066 210.393 333.46C210.393 321.863 219.83 312.425 231.428 312.425C234.753 312.425 237.438 315.113 237.438 318.435C237.438 321.76 234.753 324.445 231.428 324.445C226.459 324.445 222.413 328.492 222.413 333.46C222.413 338.437 226.459 342.487 231.428 342.487C234.753 342.487 237.438 345.175 237.438 348.497C237.438 351.822 234.753 354.507 231.428 354.507Z" fill="black"/>
<path d="M231.428 384.584C219.83 384.584 210.393 375.14 210.393 363.534C210.393 351.936 219.83 342.499 231.428 342.499C234.753 342.499 237.438 345.187 237.438 348.509C237.438 351.834 234.753 354.519 231.428 354.519C226.459 354.519 222.413 358.566 222.413 363.534C222.413 368.511 226.459 372.564 231.428 372.564C234.753 372.564 237.438 375.249 237.438 378.574C237.438 381.895 234.753 384.584 231.428 384.584Z" fill="black"/>
<path d="M252.548 384.584C249.226 384.584 246.538 381.895 246.538 378.574C246.538 375.249 249.226 372.564 252.548 372.564C257.519 372.564 261.563 368.511 261.563 363.534C261.563 358.566 257.519 354.519 252.548 354.519C249.226 354.519 246.538 351.834 246.538 348.509C246.538 345.187 249.226 342.499 252.548 342.499C264.149 342.499 273.583 351.936 273.583 363.534C273.583 375.14 264.143 384.584 252.548 384.584Z" fill="black"/>
<path d="M231.434 324.542C219.83 324.542 210.393 315.107 210.393 303.507C210.393 300.182 213.081 297.497 216.403 297.497C219.728 297.497 222.413 300.182 222.413 303.507C222.413 308.478 226.465 312.522 231.434 312.522C236.399 312.522 240.443 308.478 240.443 303.507C240.443 300.182 243.131 297.497 246.453 297.497C249.778 297.497 252.463 300.182 252.463 303.507C252.463 315.107 243.034 324.542 231.434 324.542Z" fill="black"/>
<path d="M252.536 324.507L231.428 324.495C228.112 324.495 225.424 321.801 225.424 318.479C225.424 315.16 228.118 312.475 231.434 312.475H231.443L252.542 312.487C255.861 312.487 258.547 315.178 258.547 318.502C258.547 321.819 255.847 324.507 252.536 324.507Z" fill="black"/>
<path d="M252.536 354.545L231.421 354.533C228.105 354.533 225.417 351.839 225.417 348.515C225.417 345.198 228.111 342.513 231.427 342.513H231.433L252.541 342.525C255.86 342.525 258.546 345.216 258.546 348.541C258.546 351.857 255.846 354.545 252.536 354.545Z" fill="black"/>
<path d="M252.56 264.395H192.377C189.052 264.395 186.367 261.707 186.367 258.385C186.367 255.06 189.052 252.375 192.377 252.375H252.56C255.885 252.375 258.57 255.06 258.57 258.385C258.57 261.707 255.879 264.395 252.56 264.395Z" fill="black"/>
<path d="M252.548 384.666H192.377C189.052 384.666 186.367 381.981 186.367 378.656C186.367 375.334 189.052 372.646 192.377 372.646H252.548C255.873 372.646 258.558 375.334 258.558 378.656C258.558 381.981 255.867 384.666 252.548 384.666Z" fill="black"/>
<path d="M246.429 309.517C243.107 309.517 240.419 306.832 240.419 303.507V258.346C240.419 255.025 243.107 252.336 246.429 252.336C249.754 252.336 252.439 255.025 252.439 258.346V303.507C252.439 306.832 249.754 309.517 246.429 309.517Z" fill="black"/>
<path d="M216.361 294.456H198.393C195.068 294.456 192.383 291.768 192.383 288.446C192.383 285.122 195.068 282.436 198.393 282.436H216.361C219.686 282.436 222.371 285.122 222.371 288.446C222.371 291.768 219.686 294.456 216.361 294.456Z" fill="black"/>
<path d="M252.547 294.456H246.514C243.189 294.456 240.504 291.768 240.504 288.446C240.504 285.122 243.189 282.436 246.514 282.436H252.547C255.872 282.436 258.557 285.122 258.557 288.446C258.557 291.768 255.866 294.456 252.547 294.456Z" fill="black"/>
<path d="M216.362 309.517C213.04 309.517 210.352 306.832 210.352 303.507V288.446C210.352 285.122 213.04 282.436 216.362 282.436C219.686 282.436 222.372 285.122 222.372 288.446V303.507C222.372 306.832 219.686 309.517 216.362 309.517Z" fill="black"/>
<path d="M108.289 354.627C104.97 354.627 102.279 351.942 102.279 348.617C102.279 345.301 104.964 342.607 108.289 342.607L140.444 342.595C143.76 342.595 146.454 345.284 146.454 348.605C146.454 351.925 143.766 354.616 140.444 354.616L108.289 354.627Z" fill="black"/>
<path d="M108.289 294.468C104.97 294.468 102.279 291.78 102.279 288.458C102.279 285.139 104.964 282.448 108.289 282.448L140.444 282.436C143.76 282.436 146.454 285.122 146.454 288.446C146.454 291.763 143.766 294.456 140.444 294.456L108.289 294.468Z" fill="black"/>
<path d="M108.193 366.636C104.871 366.636 102.183 363.951 102.183 360.626V276.497C102.183 273.175 104.871 270.487 108.193 270.487C111.518 270.487 114.203 273.175 114.203 276.497V360.626C114.203 363.951 111.518 366.636 108.193 366.636Z" fill="black"/>
<path d="M108.193 366.636H84.1468C80.8248 366.636 78.1367 363.95 78.1367 360.626C78.1367 357.304 80.8248 354.615 84.1468 354.615H108.193C111.518 354.615 114.203 357.304 114.203 360.626C114.203 363.95 111.518 366.636 108.193 366.636Z" fill="black"/>
<path d="M108.193 282.507H84.1468C80.8248 282.507 78.1367 279.822 78.1367 276.497C78.1367 273.175 80.8248 270.487 84.1468 270.487H108.193C111.518 270.487 114.203 273.175 114.203 276.497C114.203 279.822 111.518 282.507 108.193 282.507Z" fill="black"/>
<path d="M84.1468 378.656C80.8248 378.656 78.1367 375.971 78.1367 372.646V264.488C78.1367 261.167 80.8248 258.478 84.1468 258.478C87.4716 258.478 90.1568 261.167 90.1568 264.488V372.646C90.1568 375.971 87.4716 378.656 84.1468 378.656Z" fill="black"/>
<path d="M84.1464 270.499H6.01004C2.68808 270.499 0 267.813 0 264.488C0 261.167 2.68808 258.478 6.01004 258.478H84.1464C87.4713 258.478 90.1564 261.167 90.1564 264.488C90.1564 267.813 87.4713 270.499 84.1464 270.499Z" fill="black"/>
<path d="M84.1464 378.656H6.01004C2.68808 378.656 0 375.971 0 372.646C0 369.324 2.68808 366.636 6.01004 366.636H84.1464C87.4713 366.636 90.1564 369.324 90.1564 372.646C90.1564 375.971 87.4713 378.656 84.1464 378.656Z" fill="black"/>
<path d="M366.66 222.43H78.1927C74.8678 222.43 72.1826 219.745 72.1826 216.42V6.01004C72.1826 2.68515 74.8678 0 78.1927 0H366.66C369.985 0 372.67 2.68515 372.67 6.01004V216.42C372.67 219.745 369.985 222.43 366.66 222.43ZM84.2027 210.41H360.65V12.0201H84.2027V210.41Z" fill="black"/>
<path d="M306.567 86.0201H138.286C134.962 86.0201 132.276 83.3349 132.276 80.01C132.276 76.6881 134.962 74 138.286 74H306.567C309.889 74 312.577 76.6881 312.577 80.01C312.577 83.3349 309.889 86.0201 306.567 86.0201Z" fill="black"/>
<path d="M306.567 110.06H138.286C134.962 110.06 132.276 107.375 132.276 104.05C132.276 100.728 134.962 98.0402 138.286 98.0402H306.567C309.889 98.0402 312.577 100.728 312.577 104.05C312.577 107.375 309.889 110.06 306.567 110.06Z" fill="black"/>
<path d="M270.508 134.1H174.347C171.022 134.1 168.337 131.415 168.337 128.09C168.337 124.768 171.022 122.08 174.347 122.08H270.508C273.829 122.08 276.518 124.768 276.518 128.09C276.518 131.415 273.829 134.1 270.508 134.1Z" fill="black"/>
<path d="M192.447 384.584C163.462 384.584 138.122 366.022 129.41 338.402C128.406 335.238 130.161 331.861 133.327 330.863C136.476 329.842 139.871 331.623 140.863 334.784C148.003 357.374 168.733 372.555 192.447 372.555C195.772 372.555 198.457 375.243 198.457 378.565C198.457 381.89 195.766 384.584 192.447 384.584Z" fill="black"/>
<path d="M135.081 306.535C134.486 306.535 133.884 306.444 133.285 306.259C130.122 305.273 128.355 301.896 129.347 298.729C138.013 271.003 163.377 252.375 192.447 252.375C195.772 252.375 198.457 255.06 198.457 258.385C198.457 261.707 195.772 264.395 192.447 264.395C168.659 264.395 147.911 279.634 140.816 302.324C140.009 304.895 137.635 306.535 135.081 306.535Z" fill="black"/>
</svg>
