<svg width="60" height="60" viewBox="0 0 60 60" fill="none" xmlns="http://www.w3.org/2000/svg">
<circle cx="30" cy="30" r="30" fill="#E8E8E8"/>
<path d="M25.6329 18.6512C25.4322 18.8562 25.2731 19.0998 25.1645 19.3679C25.0559 19.6361 25 19.9235 25 20.2138C25 20.5042 25.0559 20.7916 25.1645 21.0598C25.2731 21.3279 25.4322 21.5715 25.6329 21.7765L34.0294 30.3769L25.6329 38.9773C25.2282 39.3918 25.0009 39.9539 25.0009 40.54C25.0009 41.1261 25.2282 41.6883 25.6329 42.1027C26.0375 42.5172 26.5863 42.75 27.1585 42.75C27.7307 42.75 28.2795 42.5172 28.6842 42.1027L38.6171 31.9285C38.8178 31.7235 38.9769 31.4799 39.0855 31.2118C39.1941 30.9436 39.25 30.6562 39.25 30.3658C39.25 30.0755 39.1941 29.7881 39.0855 29.5199C38.9769 29.2518 38.8178 29.0082 38.6171 28.8031L28.6842 18.629C27.8618 17.7867 26.4768 17.7867 25.6329 18.6512Z" fill="#EC5C29"/>
</svg>
