<svg width="52" height="52" viewBox="0 0 52 52" fill="none" xmlns="http://www.w3.org/2000/svg">
<g filter="url(#filter0_d_69_2328)">
<rect x="8" y="6" width="36" height="36" rx="18" fill="white" shape-rendering="crispEdges"/>
<g clip-path="url(#clip0_69_2328)">
<g clip-path="url(#clip1_69_2328)">
<path d="M24.3 20C24.4333 20 24.56 20.052 24.6533 20.1467L27.9867 23.48C28.1253 23.6174 28.202 23.8047 28.2 24C28.2004 24.0965 28.1817 24.192 28.1451 24.2813C28.1085 24.3705 28.0547 24.4516 27.9867 24.52L24.6533 27.8534C24.5596 27.947 24.4325 27.9996 24.3 27.9996C24.1675 27.9996 24.0404 27.947 23.9467 27.8534C23.8995 27.8074 23.862 27.7525 23.8364 27.6918C23.8108 27.6311 23.7976 27.5659 23.7976 27.5C23.7976 27.4342 23.8108 27.369 23.8364 27.3083C23.862 27.2476 23.8995 27.1927 23.9467 27.1467L27.0933 24L23.9467 20.8534C23.8995 20.8074 23.862 20.7525 23.8364 20.6918C23.8108 20.6311 23.7976 20.5659 23.7976 20.5C23.7976 20.4342 23.8108 20.369 23.8364 20.3083C23.862 20.2476 23.8995 20.1927 23.9467 20.1467C23.9926 20.0996 24.0476 20.0624 24.1083 20.0372C24.169 20.012 24.2342 19.9993 24.3 20Z" fill="#262626"/>
</g>
</g>
</g>
<defs>
<filter id="filter0_d_69_2328" x="0" y="0" width="52" height="52" filterUnits="userSpaceOnUse" color-interpolation-filters="sRGB">
<feFlood flood-opacity="0" result="BackgroundImageFix"/>
<feColorMatrix in="SourceAlpha" type="matrix" values="0 0 0 0 0 0 0 0 0 0 0 0 0 0 0 0 0 0 127 0" result="hardAlpha"/>
<feOffset dy="2"/>
<feGaussianBlur stdDeviation="4"/>
<feComposite in2="hardAlpha" operator="out"/>
<feColorMatrix type="matrix" values="0 0 0 0 0 0 0 0 0 0 0 0 0 0 0 0 0 0 0.16 0"/>
<feBlend mode="normal" in2="BackgroundImageFix" result="effect1_dropShadow_69_2328"/>
<feBlend mode="normal" in="SourceGraphic" in2="effect1_dropShadow_69_2328" result="shape"/>
</filter>
<clipPath id="clip0_69_2328">
<rect width="16" height="16" fill="white" transform="translate(18 16)"/>
</clipPath>
<clipPath id="clip1_69_2328">
<rect width="16" height="16" fill="white" transform="translate(18 16)"/>
</clipPath>
</defs>
</svg>
