<svg width="12" height="14" viewBox="0 0 12 14" fill="none" xmlns="http://www.w3.org/2000/svg">
<path fill-rule="evenodd" clip-rule="evenodd" d="M6.00783 1.33337C6.52874 1.33337 6.68054 1.33766 6.81615 1.37021C6.95219 1.40287 7.08225 1.45675 7.20155 1.52985C7.32046 1.60272 7.43082 1.70703 7.79916 2.07537L9.92464 4.20084C10.293 4.56918 10.3973 4.67955 10.4702 4.79846C10.5433 4.91775 10.5971 5.04781 10.6298 5.18386C10.6624 5.31946 10.6666 5.47126 10.6666 5.99217V10.1333C10.6666 10.7044 10.6661 11.0926 10.6416 11.3926C10.6177 11.6849 10.5744 11.8344 10.5213 11.9387C10.3935 12.1895 10.1895 12.3935 9.93862 12.5213C9.83436 12.5745 9.68489 12.6178 9.39261 12.6416C9.09256 12.6662 8.70436 12.6667 8.13331 12.6667H3.86666C3.2956 12.6667 2.90741 12.6662 2.60735 12.6416C2.31508 12.6178 2.16561 12.5745 2.06134 12.5213C1.81046 12.3935 1.60649 12.1895 1.47865 11.9387C1.42553 11.8344 1.38224 11.6849 1.35836 11.3926C1.33385 11.0926 1.33333 10.7044 1.33333 10.1333V3.8667C1.33333 3.29565 1.33385 2.90745 1.35836 2.60739C1.38224 2.31512 1.42553 2.16565 1.47865 2.06138C1.60649 1.8105 1.81046 1.60653 2.06134 1.4787C2.16561 1.42557 2.31508 1.38229 2.60735 1.35841C2.90741 1.33389 3.2956 1.33337 3.86666 1.33337H6.00783ZM7.12741 0.073722C6.81894 -0.00033306 6.49908 -0.00018079 6.07575 2.05937e-05L6.00783 4.20513e-05H3.86666L3.83912 4.17334e-05C3.30248 3.32298e-05 2.85957 2.62359e-05 2.49878 0.0295044C2.12405 0.0601211 1.77958 0.12583 1.45602 0.29069C0.954258 0.546352 0.546311 0.954299 0.290649 1.45606C0.125789 1.77962 0.0600799 2.12409 0.0294632 2.49882C-1.46701e-05 2.85961 -7.91419e-06 3.30251 2.71606e-07 3.83915V3.83916V3.8667V10.1333V10.1609V10.1609C-7.91419e-06 10.6975 -1.46701e-05 11.1404 0.0294632 11.5012C0.0600799 11.876 0.125789 12.2204 0.290649 12.544C0.546311 13.0457 0.954258 13.4537 1.45602 13.7094C1.77958 13.8742 2.12405 13.9399 2.49878 13.9705C2.85957 14 3.30247 14 3.83911 14H3.86666H8.13331H8.16086C8.6975 14 9.1404 14 9.50119 13.9705C9.87592 13.9399 10.2204 13.8742 10.5439 13.7094C11.0457 13.4537 11.4537 13.0457 11.7093 12.544C11.8742 12.2204 11.9399 11.876 11.9705 11.5012C12 11.1404 12 10.6975 12 10.1609V10.1333V5.99217L12 5.92426C12.0002 5.50093 12.0003 5.18106 11.9263 4.8726C11.861 4.6005 11.7532 4.34039 11.607 4.10179C11.4413 3.83132 11.215 3.60525 10.9155 3.30605L10.8674 3.25804L8.74197 1.13256L8.69396 1.08452C8.39476 0.785035 8.16869 0.558751 7.89821 0.393C7.65962 0.246791 7.3995 0.139046 7.12741 0.073722ZM3.33332 7.00002C2.96514 7.00002 2.66666 7.2985 2.66666 7.66669C2.66666 8.03487 2.96514 8.33335 3.33332 8.33335H7.33331C7.7015 8.33335 7.99998 8.03487 7.99998 7.66669C7.99998 7.2985 7.7015 7.00002 7.33331 7.00002H3.33332ZM3.33332 9.66668C2.96514 9.66668 2.66666 9.96516 2.66666 10.3333C2.66666 10.7015 2.96514 11 3.33332 11H8.66664C9.03483 11 9.33331 10.7015 9.33331 10.3333C9.33331 9.96516 9.03483 9.66668 8.66664 9.66668H3.33332Z" fill="#EC5C29"/>
</svg>
