<svg width="9" height="5" viewBox="0 0 9 5" fill="none" xmlns="http://www.w3.org/2000/svg">
<path id="Vector" d="M0.236782 0.222053C0.311352 0.151662 0.399926 0.0958164 0.497434 0.0577129C0.594943 0.0196094 0.699471 -3.8147e-06 0.805036 -3.8147e-06C0.910601 -3.8147e-06 1.01513 0.0196094 1.11264 0.0577129C1.21015 0.0958164 1.29872 0.151662 1.37329 0.222053L4.5007 3.16819L7.62811 0.222053C7.77882 0.0800785 7.98323 0.000317703 8.19637 0.000317703C8.4095 0.000317703 8.61391 0.0800785 8.76462 0.222053C8.91533 0.364028 9 0.556587 9 0.75737C9 0.958153 8.91533 1.15071 8.76462 1.29269L5.06493 4.77794C4.99036 4.84833 4.90178 4.90418 4.80427 4.94228C4.70677 4.98038 4.60224 5 4.49667 5C4.39111 5 4.28658 4.98038 4.18907 4.94228C4.09156 4.90418 4.00299 4.84833 3.92842 4.77794L0.228722 1.29269C-0.077571 1.00415 -0.0775709 0.518186 0.236782 0.222053Z" fill="#EC5C29"/>
</svg>
