<svg width="21" height="15" viewBox="0 0 21 15" fill="none" xmlns="http://www.w3.org/2000/svg">
<path fill-rule="evenodd" clip-rule="evenodd" d="M14.4287 8.40674C15.6902 9.2631 16.5742 10.4233 16.5742 11.9703V14.7328H20.2575V11.9703C20.2575 9.96292 16.9702 8.77507 14.4287 8.40674Z" fill="#8B8585"/>
<path d="M7.3659 7.36656C9.40012 7.36656 11.0492 5.7175 11.0492 3.68328C11.0492 1.64906 9.40012 0 7.3659 0C5.33168 0 3.68262 1.64906 3.68262 3.68328C3.68262 5.7175 5.33168 7.36656 7.3659 7.36656Z" fill="#8B8585"/>
<path fill-rule="evenodd" clip-rule="evenodd" d="M12.8915 7.36656C14.9265 7.36656 16.5748 5.71829 16.5748 3.68328C16.5748 1.64827 14.9265 0 12.8915 0C12.4587 0 12.0535 0.0920818 11.6668 0.220997C12.4592 1.20095 12.8914 2.42305 12.8914 3.68328C12.8914 4.94351 12.4592 6.16561 11.6668 7.14556C12.0535 7.27448 12.4587 7.36656 12.8915 7.36656ZM7.36656 8.28738C4.90797 8.28738 0 9.52128 0 11.9707V14.7331H14.7331V11.9707C14.7331 9.52128 9.82515 8.28738 7.36656 8.28738Z" fill="#8B8585"/>
</svg>
