<svg width="15" height="18" viewBox="0 0 15 18" fill="none" xmlns="http://www.w3.org/2000/svg">
<g id="Group 750">
<path id="Vector" d="M1 15.2469V14.3565C1 10.9141 3.79058 8.12354 7.23293 8.12354" stroke="#797979" stroke-width="1.5" stroke-linecap="round" stroke-linejoin="round"/>
<path id="Vector_2" d="M7.23306 8.12335C9.20009 8.12335 10.7947 6.5287 10.7947 4.56168C10.7947 2.59462 9.20009 1 7.23306 1C5.266 1 3.67139 2.59462 3.67139 4.56168C3.67139 6.5287 5.266 8.12335 7.23306 8.12335Z" stroke="#797979" stroke-width="1.5" stroke-linecap="round" stroke-linejoin="round"/>
<path id="Icon" d="M11.971 13.5C11.971 14.2732 11.3124 14.9 10.5 14.9C9.68755 14.9 9.02893 14.2732 9.02893 13.5C9.02893 12.7268 9.68755 12.1 10.5 12.1C11.3124 12.1 11.971 12.7268 11.971 13.5Z" stroke="#797979"/>
</g>
</svg>
