<svg width="60" height="60" viewBox="0 0 60 60" fill="none" xmlns="http://www.w3.org/2000/svg">
<circle cx="30" cy="30" r="30" transform="rotate(-180 30 30)" fill="#E8E8E8"/>
<path d="M34.3671 41.3488C34.5678 41.1438 34.7269 40.9002 34.8355 40.6321C34.9441 40.3639 35 40.0765 35 39.7862C35 39.4958 34.9441 39.2084 34.8355 38.9402C34.7269 38.6721 34.5678 38.4285 34.3671 38.2235L25.9706 29.6231L34.3671 21.0227C34.7718 20.6082 34.9991 20.0461 34.9991 19.46C34.9991 18.8739 34.7718 18.3117 34.3671 17.8973C33.9625 17.4828 33.4137 17.25 32.8415 17.25C32.2693 17.25 31.7205 17.4828 31.3158 17.8973L21.3829 28.0715C21.1822 28.2765 21.0231 28.5201 20.9145 28.7882C20.8059 29.0564 20.75 29.3438 20.75 29.6342C20.75 29.9245 20.8059 30.2119 20.9145 30.4801C21.0231 30.7482 21.1822 30.9918 21.3829 31.1968L31.3158 41.371C32.1382 42.2133 33.5232 42.2133 34.3671 41.3488Z" fill="#EC5C29"/>
</svg>
