<svg width="90" height="89" viewBox="0 0 90 89" fill="none" xmlns="http://www.w3.org/2000/svg">
<g id="Group">
<g id="Group_2">
<path id="Vector" d="M89.2586 33.7362C89.2586 32.002 88.5179 30.3333 87.2279 29.1593C85.9399 27.9873 84.1958 27.4132 82.4764 27.5728C79.3352 27.8693 76.8752 30.6833 76.8752 33.9792L76.8762 45.4127C76.0611 45.6814 75.3145 46.1077 74.7176 46.7066C74.5946 46.8197 71.6904 49.4889 71.0181 50.1731C70.5521 50.647 70.0792 51.1388 69.5973 51.6396C67.2404 54.0926 64.8022 56.629 62.01 58.267C61.3595 58.6468 60.722 58.9978 60.1003 59.3389C56.8966 61.0999 53.8704 62.7637 51.8833 66.8528C50.164 70.3698 49.4223 74.5918 49.5482 80.1355L49.2032 87.232C49.1566 88.1938 49.923 88.999 50.8858 88.999C51.7842 88.999 52.5259 88.294 52.5695 87.3956L52.9165 80.2387C52.9165 80.202 52.9175 80.1643 52.9175 80.1276C52.7965 75.1084 53.4292 71.3614 54.9115 68.3292C56.4325 65.1999 58.7666 63.9169 61.7224 62.2917C62.3699 61.9367 63.0332 61.5709 63.7115 61.1742C66.9082 59.2992 69.627 56.4704 72.0266 53.9736C72.4985 53.4828 72.9626 53 73.4207 52.5339C73.9293 52.0154 76.1742 49.942 77.0477 49.1379C77.9074 48.2792 79.4215 48.2792 80.2821 49.1379C80.7125 49.5682 80.9495 50.1443 80.9505 50.7601C80.9505 51.3748 80.7155 51.9499 80.2881 52.3773L67.4575 65.2078C66.9032 65.7621 66.8041 66.6258 67.2186 67.2911C67.3118 67.4408 67.4387 67.6312 67.6231 67.8325C68.1238 68.3788 68.8972 68.5682 69.5745 68.2687C70.1991 67.9931 70.5254 67.4388 70.567 66.8627L71.2938 66.1359L82.4417 54.988C84.2037 53.226 84.7986 50.529 83.7288 48.2782C82.9881 46.7205 81.705 45.7775 80.2445 45.3532L80.2435 33.9802C80.2435 32.4036 81.3629 31.063 82.7908 30.9282C82.883 30.9193 82.9742 30.9153 83.0654 30.9153C83.7674 30.9153 84.4308 31.1721 84.9583 31.652C85.5482 32.1894 85.8873 32.9489 85.8873 33.7372V60.0954C85.8873 60.7647 85.6692 61.4965 85.1526 61.8465L84.3227 62.6764L70.6701 76.331C70.1505 76.8496 69.6806 77.3067 69.2016 77.617C68.7584 77.9046 68.4322 78.3399 68.3628 78.8634L67.2711 87.0932C67.1372 88.1026 67.9226 88.999 68.9409 88.999C69.7857 88.999 70.4996 88.3733 70.6106 87.5354L71.6061 80.0334C72.1763 79.5872 72.6651 79.0984 73.0518 78.7127L87.5512 64.2133C87.9567 63.8078 88.3761 63.3874 88.7688 62.9035C89.1247 62.4642 89.3597 62.4067 89.2189 61.9C89.325 61.4816 89.2586 60.5446 89.2586 60.0944V33.7362Z" fill="#EC5C29"/>
<path id="Vector_2" d="M0.510361 62.9046C0.911936 63.3993 1.35416 63.8406 1.74285 64.2293L16.2273 78.7147C16.613 79.1004 17.1029 79.5893 17.673 80.0345L18.6675 87.5365C18.7786 88.3744 19.4925 89 20.3373 89C21.3556 89 22.1409 88.1037 22.007 87.0943L20.9153 78.8645C20.8459 78.3409 20.5197 77.9056 20.0765 77.6181C19.5976 77.3067 19.1276 76.8506 18.608 76.332L4.95446 62.6765L4.12454 61.8456C3.60794 61.4956 3.3898 60.7648 3.3898 60.0955V33.7363C3.3898 32.948 3.72891 32.1885 4.31888 31.6511C4.84638 31.1712 5.50973 30.9144 6.21075 30.9144C6.30197 30.9144 6.39319 30.9183 6.48541 30.9273C7.91422 31.0621 9.03367 32.4027 9.03367 33.9792V45.3522C7.57313 45.7756 6.28908 46.7196 5.54939 48.2773C4.47951 50.5281 5.07444 53.2251 6.8374 54.9871L17.9843 66.134L18.6705 66.8202C18.6943 67.3457 18.966 67.8623 19.4776 68.1885C20.1568 68.6218 21.0254 68.478 21.5886 67.9019C21.8067 67.6788 21.9555 67.4587 22.0606 67.2892C22.475 66.6238 22.3769 65.7602 21.8216 65.2059L8.99104 52.3783C8.56269 51.95 8.32869 51.3759 8.32869 50.7611C8.32968 50.1454 8.56765 49.5693 8.99699 49.139C9.85666 48.2803 11.3202 48.2307 12.282 49.1875C13.104 49.9431 15.3488 52.0174 15.8595 52.536C16.3166 53.001 16.7806 53.4839 17.2536 53.9757C19.6521 56.4714 22.3699 59.2993 25.5687 61.1753C26.2449 61.5709 26.9092 61.9358 27.5557 62.2908C30.5105 63.9159 32.8456 65.199 34.3676 68.3313C35.849 71.3595 36.4816 75.1075 36.3606 80.1267C36.3606 80.1634 36.3616 80.2011 36.3616 80.2377L36.7087 87.3947C36.7523 88.2921 37.493 88.998 38.3913 88.998C39.3541 88.998 40.1206 88.1929 40.074 87.2321L39.7289 80.1346C39.8558 74.5909 39.1132 70.3689 37.3948 66.8549C35.4068 62.7618 32.3806 61.099 29.1769 59.338C28.5552 58.9959 27.9176 58.6459 27.2692 58.2671C24.475 56.6281 22.0378 54.0917 19.6809 51.6396C19.199 51.1379 18.726 50.6451 18.26 50.1721C17.5857 49.486 14.6835 46.8187 14.6111 46.7543C13.9825 46.1257 13.2229 45.6874 12.401 45.4147V33.9802C12.401 30.6843 9.94094 27.8703 6.79973 27.5739C3.99465 27.3111 1.2213 28.9769 0.273382 31.9555C0.092921 32.5286 0.0205382 33.1344 0.0205382 33.7363V60.0945C0.0205382 60.5447 -0.0458953 61.4827 0.0601999 61.9001C-0.0796078 62.4078 0.154397 62.4653 0.510361 62.9046Z" fill="#EC5C29"/>
<path id="Vector_3" d="M65.1598 21.4411C67.8241 19.9023 68.7402 16.4834 67.2024 13.8182L65.834 11.4474C64.8405 9.72606 62.9873 8.65618 60.9993 8.65618C60.0236 8.65618 59.0598 8.91497 58.212 9.4038L57.3077 9.92536C57.278 9.94221 57.2522 9.94618 57.2354 9.94618C55.52 8.56397 53.6489 7.48417 51.6301 6.72366C51.6202 6.71969 51.5895 6.68202 51.5895 6.62252V5.58041C51.5895 2.50365 49.0858 0 46.0091 0H43.2714C40.1947 0 37.691 2.50365 37.691 5.58041V6.62351C37.691 6.684 37.6603 6.72069 37.6504 6.72465C35.6316 7.48517 33.7605 8.56496 32.0888 9.93428C32.064 9.93924 32.0452 9.94122 32.0303 9.94122C32.0035 9.94122 31.9877 9.93527 31.9728 9.92635L31.0695 9.40479C30.2217 8.91596 29.2579 8.65717 28.2823 8.65717C26.2932 8.65717 24.44 9.72606 23.4465 11.4484L22.0782 13.8191C20.5403 16.4834 21.4565 19.9033 24.1208 21.4411L25.0141 21.9577C25.0617 21.9855 25.0835 22.0272 25.0796 22.0519C24.9031 23.1139 24.8138 24.1947 24.8138 25.2645C24.8138 26.3344 24.9031 27.4152 25.0796 28.4771C25.0835 28.5019 25.0627 28.5446 25.0141 28.5713L24.1208 29.0879C21.4565 30.6268 20.5403 34.0457 22.0782 36.7099L23.4465 39.0807C24.44 40.802 26.2932 41.8719 28.2813 41.8719C29.2569 41.8719 30.2207 41.6131 31.0685 41.1243L31.9728 40.6027C32.0025 40.5859 32.0283 40.5819 32.0452 40.5819C33.7605 41.9641 35.6316 43.0439 37.6504 43.8044C37.6603 43.8084 37.691 43.8461 37.691 43.9056V44.9477C37.691 48.0244 40.1947 50.5281 43.2714 50.5281H46.0091C49.0858 50.5281 51.5895 48.0244 51.5895 44.9477V43.9056C51.5895 43.8451 51.6202 43.8084 51.6301 43.8044C53.6479 43.0439 55.519 41.9641 57.1917 40.5948C57.2165 40.5908 57.2354 40.5889 57.2502 40.5889C57.277 40.5889 57.2929 40.5948 57.3077 40.6037L58.211 41.1253C59.0588 41.6141 60.0226 41.8729 60.9983 41.8729C62.9873 41.8729 64.8405 40.803 65.834 39.0817L67.2024 36.7109C68.7402 34.0466 67.8241 30.6268 65.1598 29.0889L64.2664 28.5723C64.2188 28.5446 64.197 28.5029 64.2009 28.4781C64.3774 27.4162 64.4667 26.3354 64.4667 25.2655C64.4667 24.1957 64.3774 23.1149 64.2009 22.0529C64.197 22.0272 64.2178 21.9855 64.2664 21.9577L65.1598 21.4411ZM63.6516 18.8284L62.7583 19.345C61.6329 19.9945 61.0131 21.2637 61.2263 22.5457C61.3731 23.4302 61.4514 24.3384 61.4514 25.2645C61.4514 26.1906 61.3731 27.0989 61.2263 27.9834C61.0141 29.2644 61.6338 30.5336 62.7583 31.1841L63.6516 31.7007C64.8782 32.4086 65.2986 33.9772 64.5906 35.2038L63.2223 37.5746C62.7473 38.3975 61.8857 38.8576 60.9993 38.8576C60.564 38.8576 60.1237 38.7466 59.7192 38.5136L58.8159 37.992C58.3241 37.7084 57.7787 37.5676 57.2354 37.5676C56.5373 37.5676 55.8442 37.8006 55.28 38.2627C53.88 39.4099 52.2915 40.334 50.5672 40.9835C49.3575 41.4396 48.5742 42.6146 48.5742 43.9076V44.9497C48.5742 46.3656 47.426 47.5138 46.0101 47.5138H43.2724C41.8565 47.5138 40.7083 46.3656 40.7083 44.9497V43.9076C40.7083 42.6146 39.925 41.4396 38.7153 40.9835C36.991 40.334 35.4025 39.4099 34.0025 38.2627C33.4383 37.8006 32.7452 37.5676 32.0472 37.5676C31.5048 37.5676 30.9584 37.7084 30.4666 37.992L29.5623 38.5136C29.1588 38.7466 28.7176 38.8576 28.2833 38.8576C27.3968 38.8576 26.5352 38.3975 26.0602 37.5756L24.6909 35.2038C23.9829 33.9772 24.4033 32.4096 25.6289 31.7007L26.5223 31.1841C27.6477 30.5346 28.2674 29.2654 28.0542 27.9834C27.9075 27.0989 27.8291 26.1906 27.8291 25.2645C27.8291 24.3384 27.9075 23.4302 28.0542 22.5457C28.2674 21.2647 27.6467 19.9955 26.5223 19.345L25.6289 18.8284C24.4023 18.1205 23.9829 16.5518 24.6909 15.3253L26.0592 12.9545C26.5342 12.1315 27.3958 11.6715 28.2823 11.6715C28.7175 11.6715 29.1578 11.7825 29.5623 12.0155L30.4656 12.5371C30.9575 12.8207 31.5028 12.9615 32.0462 12.9615C32.7442 12.9615 33.4373 12.7285 34.0015 12.2664C35.4015 11.1192 36.99 10.1951 38.7143 9.54559C39.924 9.08948 40.7073 7.91451 40.7073 6.62153V5.57942C40.7073 4.16349 41.8555 3.01529 43.2714 3.01529H46.0091C47.425 3.01529 48.5732 4.16349 48.5732 5.57942V6.62351C48.5732 7.91649 49.3565 9.09147 50.5662 9.54758C52.2905 10.197 53.879 11.1212 55.279 12.2684C55.8432 12.7304 56.5363 12.9634 57.2344 12.9634C57.7767 12.9634 58.3231 12.8226 58.8149 12.5391L59.7192 12.0175C60.1227 11.7845 60.564 11.6734 60.9983 11.6734C61.8847 11.6734 62.7464 12.1335 63.2213 12.9555L64.5906 15.3273C65.2986 16.5528 64.8782 18.1205 63.6516 18.8284Z" fill="#EC5C29"/>
<path id="Vector_4" d="M44.6393 15.4641C39.2354 15.4641 34.8398 19.8606 34.8398 25.2645C34.8398 30.6684 39.2354 35.0639 44.6393 35.0639C50.0432 35.0639 54.4397 30.6674 54.4397 25.2635C54.4397 19.8596 50.0432 15.4641 44.6393 15.4641ZM44.6393 32.0476C40.8922 32.0476 37.8551 29.0105 37.8551 25.2635C37.8551 21.5164 40.8922 18.4793 44.6393 18.4793C48.3863 18.4793 51.4234 21.5164 51.4234 25.2635C51.4234 29.0105 48.3863 32.0476 44.6393 32.0476Z" fill="#EC5C29"/>
</g>
</g>
</svg>
