<svg width="52" height="47" viewBox="0 0 52 47" fill="none" xmlns="http://www.w3.org/2000/svg">
<path d="M51.9718 24.198C52.7107 36.1109 38.7333 44.363 31.6522 47C29.6508 45.4488 26.8488 41.4158 31.6522 37.6931C36.4556 33.9703 38.887 24.3531 39.5023 20.0099H31.6522V0H51.9718C51.664 3.10231 51.2329 12.2851 51.9718 24.198Z" fill="#D2D2D2"/>
<path d="M22.9718 24.198C23.7107 36.1109 9.73327 44.363 2.65219 47C0.650784 45.4488 -2.15118 41.4158 2.65219 37.6931C7.45556 33.9703 9.88698 24.3531 10.5023 20.0099H2.65219V0H22.9718C22.664 3.10231 22.2329 12.2851 22.9718 24.198Z" fill="#D2D2D2"/>
</svg>
