<svg width="72" height="89" viewBox="0 0 72 89" fill="none" xmlns="http://www.w3.org/2000/svg">
<path id="Vector" d="M71.0753 14.6243C71.053 14.2228 70.9145 13.8363 70.6765 13.5114C70.4384 13.1865 70.1111 12.9369 69.7338 12.7929L36.6172 0.138889C36.1335 -0.0462963 35.5979 -0.0462963 35.1142 0.138889L1.99756 12.796C1.62028 12.94 1.29291 13.1895 1.0549 13.5145C0.816884 13.8394 0.678382 14.2259 0.656084 14.6274C-0.300942 31.223 -0.763097 46.0158 3.28893 58.9476C8.05464 74.1727 18.5196 83.9768 35.2696 88.9145C35.6587 89.0285 36.0726 89.0285 36.4618 88.9145C53.2118 83.9768 63.6767 74.1727 68.4424 58.9476C72.4944 46.0158 72.0323 31.223 71.0753 14.6243ZM64.4395 57.7093C60.1155 71.5121 51.0268 80.1105 35.8657 84.7359C20.7046 80.1105 11.6159 71.5121 7.29188 57.7093C3.55477 45.7838 3.88605 31.8457 4.76537 16.2075L35.8657 4.31959L66.966 16.2075C67.8453 31.8457 68.1756 45.7838 64.4395 57.7093ZM55.5829 30.0418C55.9757 30.4332 56.1964 30.9638 56.1964 31.5171C56.1964 32.0703 55.9757 32.6009 55.5829 32.9924L34.1694 54.2998C33.9749 54.4939 33.7438 54.6479 33.4894 54.7529C33.235 54.858 32.9623 54.912 32.6868 54.912C32.4114 54.912 32.1387 54.858 31.8843 54.7529C31.6299 54.6479 31.3988 54.4939 31.2043 54.2998L19.8549 43.0061C19.4617 42.6149 19.2408 42.0842 19.2408 41.5308C19.2408 40.9775 19.4617 40.4468 19.8549 40.0555C20.2481 39.6642 20.7814 39.4444 21.3375 39.4444C21.8935 39.4444 22.4268 39.6642 22.8201 40.0555L32.6899 49.877L52.6177 30.0418C53.0111 29.6508 53.5444 29.4313 54.1003 29.4313C54.6563 29.4313 55.1895 29.6508 55.5829 30.0418Z" fill="#EC5C29"/>
</svg>
