<svg width="80" height="93" viewBox="0 0 80 93" fill="none" xmlns="http://www.w3.org/2000/svg">
<path d="M24.25 50.95V13.125C24.25 11.3547 24.9533 9.65688 26.2051 8.40507C27.4569 7.15327 29.1547 6.45001 30.925 6.45001C32.6953 6.45001 34.3931 7.15327 35.6449 8.40507C36.8967 9.65688 37.6 11.3547 37.6 13.125V46.5" stroke="#EC5C29" stroke-width="4" stroke-linecap="round" stroke-linejoin="round"/>
<path d="M37.5996 44.275V35.375C37.5996 33.6047 38.3029 31.9069 39.5547 30.6551C40.8065 29.4033 42.5043 28.7 44.2746 28.7C46.0449 28.7 47.7427 29.4033 48.9945 30.6551C50.2464 31.9069 50.9496 33.6047 50.9496 35.375V46.5" stroke="#EC5C29" stroke-width="4" stroke-linecap="round" stroke-linejoin="round"/>
<path d="M50.9492 39.825C50.9492 38.0547 51.6525 36.3569 52.9043 35.1051C54.1561 33.8533 55.8539 33.15 57.6242 33.15C59.3945 33.15 61.0923 33.8533 62.3442 35.1051C63.596 36.3569 64.2992 38.0547 64.2992 39.825V46.5" stroke="#EC5C29" stroke-width="4" stroke-linecap="round" stroke-linejoin="round"/>
<path d="M64.3005 44.275C64.3005 42.5047 65.0038 40.8068 66.2556 39.555C67.5074 38.3032 69.2052 37.6 70.9755 37.6C72.7458 37.6 74.4437 38.3032 75.6955 39.555C76.9473 40.8068 77.6505 42.5047 77.6505 44.275V64.3C77.6505 71.3813 74.8375 78.1725 69.8303 83.1797C64.8231 88.187 58.0318 91 50.9505 91H42.0505H42.9761C38.5543 91.0007 34.2016 89.9033 30.3087 87.8062C26.4158 85.709 23.1047 82.6779 20.6727 78.985L19.8005 77.65C18.4121 75.5184 13.5394 67.0234 5.17782 52.1604C4.32543 50.6453 4.09773 48.8574 4.54317 47.1771C4.98861 45.4967 6.07204 44.0564 7.56302 43.1625C9.15113 42.2096 11.0121 41.8146 12.8503 42.0404C14.6886 42.2661 16.3987 43.0996 17.709 44.4085L24.2505 50.95" stroke="#EC5C29" stroke-width="4" stroke-linecap="round" stroke-linejoin="round"/>
<path d="M10.8992 6.45L6.44922 2" stroke="#EC5C29" stroke-width="4" stroke-linecap="round" stroke-linejoin="round"/>
<path d="M6.45 24.25H2" stroke="#EC5C29" stroke-width="4" stroke-linecap="round" stroke-linejoin="round"/>
<path d="M50.9492 6.45L55.3992 2" stroke="#EC5C29" stroke-width="4" stroke-linecap="round" stroke-linejoin="round"/>
<path d="M55.4004 19.8H59.8504" stroke="#EC5C29" stroke-width="4" stroke-linecap="round" stroke-linejoin="round"/>
</svg>
