<svg width="20" height="20" viewBox="0 0 20 20" fill="none" xmlns="http://www.w3.org/2000/svg">
<path d="M18.5194 7.89375L18.7257 8.8125C18.7569 8.95188 18.7569 9.09 18.7307 9.22C18.7543 9.31231 18.7565 9.40881 18.7371 9.50211C18.7177 9.5954 18.6773 9.68304 18.6188 9.7583C18.5604 9.83357 18.4855 9.89447 18.3999 9.93637C18.3144 9.97826 18.2203 10 18.125 10H16.7157L15.7888 8.76437V8.76312C15.6405 8.56469 15.4478 8.40365 15.2263 8.29286C15.0047 8.18207 14.7603 8.12459 14.5125 8.125H14.375V7.06875C14.375 6.6175 14.0075 6.25 13.5563 6.25H12.6938C12.2425 6.25 11.875 6.6175 11.875 7.06875V8.11875H8.12503V7.06875C8.12503 6.6175 7.75753 6.25 7.30628 6.25H6.44378C5.99253 6.25 5.62503 6.6175 5.62503 7.06875V8.125H5.48753C4.98253 8.125 4.51065 8.36312 4.20628 8.76875L3.28378 10H1.87503C1.77974 10 1.6857 9.97826 1.60012 9.93637C1.51453 9.89447 1.43965 9.83357 1.38121 9.7583C1.32277 9.68304 1.28232 9.5954 1.26294 9.50211C1.24356 9.40881 1.24577 9.31231 1.2694 9.22C1.24204 9.08536 1.24375 8.94643 1.2744 8.8125L1.4744 7.89375C1.69721 6.89604 2.25312 6.00395 3.05061 5.36437C3.8481 4.72479 4.83962 4.37584 5.8619 4.375H14.1382C15.1599 4.3751 16.1511 4.72389 16.9477 5.36371C17.7444 6.00354 18.2988 6.89607 18.5194 7.89375Z" fill="#EC5C29"/>
<path d="M15.2875 9.1375L17.575 12.1875C18.3378 13.202 18.7502 14.437 18.75 15.7062V17.775C18.75 18.3125 18.3125 18.75 17.775 18.75H2.225C1.6875 18.75 1.25 18.3125 1.25 17.775V15.7062C1.25 14.4375 1.6625 13.2 2.425 12.1875L4.70625 9.14375C4.89375 8.89375 5.18125 8.75 5.4875 8.75H6.05625C6.1625 8.75 6.25 8.6625 6.25 8.55625V7.06875C6.25 6.9625 6.3375 6.875 6.44375 6.875H7.30625C7.4125 6.875 7.5 6.9625 7.5 7.06875V8.55625C7.5 8.6625 7.5875 8.75 7.69375 8.75H12.3063C12.4125 8.75 12.5 8.6625 12.5 8.55625V7.06875C12.5 6.9625 12.5875 6.875 12.6937 6.875H13.5563C13.6625 6.875 13.75 6.9625 13.75 7.06875V8.55625C13.75 8.6625 13.8375 8.75 13.9437 8.75H14.5125C14.8187 8.75 15.1062 8.89375 15.2875 9.1375ZM8.56125 11.875C8.6675 11.875 8.75562 11.7875 8.74937 11.68V10.82C8.74921 10.7684 8.7287 10.719 8.6923 10.6825C8.6559 10.646 8.60656 10.6253 8.555 10.625H7.69437C7.58812 10.625 7.5 10.7125 7.5 10.82V11.68C7.5 11.7869 7.5875 11.875 7.70125 11.875H8.56125ZM10.4362 11.875C10.4616 11.8752 10.4868 11.8702 10.5102 11.8604C10.5336 11.8506 10.5547 11.8361 10.5724 11.8179C10.59 11.7997 10.6038 11.7781 10.6128 11.7544C10.6219 11.7306 10.626 11.7054 10.625 11.68V10.82C10.6247 10.7684 10.604 10.719 10.5675 10.6825C10.531 10.646 10.4816 10.6253 10.43 10.625H9.57C9.51833 10.6252 9.46883 10.6458 9.4323 10.6823C9.39576 10.7188 9.37516 10.7683 9.375 10.82V11.68C9.375 11.7869 9.4625 11.875 9.57625 11.875H10.4362ZM11.4506 11.875H12.3112C12.3366 11.8752 12.3618 11.8702 12.3852 11.8604C12.4086 11.8506 12.4297 11.8361 12.4474 11.8179C12.465 11.7997 12.4788 11.7781 12.4878 11.7544C12.4969 11.7306 12.501 11.7054 12.5 11.68V10.82C12.4997 10.7684 12.479 10.719 12.4425 10.6825C12.406 10.646 12.3566 10.6253 12.305 10.625H11.4444C11.3381 10.625 11.25 10.7125 11.25 10.82V11.68C11.25 11.7869 11.3375 11.875 11.4513 11.875H11.4506ZM8.56125 13.75C8.6675 13.75 8.75562 13.6625 8.74937 13.555V12.695C8.74921 12.6434 8.7287 12.594 8.6923 12.5575C8.6559 12.521 8.60656 12.5003 8.555 12.5H7.69437C7.58812 12.5 7.5 12.5875 7.5 12.695V13.555C7.5 13.6619 7.5875 13.75 7.70125 13.75H8.56125ZM9.57563 13.75H10.4362C10.4616 13.7502 10.4868 13.7452 10.5102 13.7354C10.5336 13.7256 10.5547 13.7111 10.5724 13.6929C10.59 13.6747 10.6038 13.6531 10.6128 13.6294C10.6219 13.6056 10.626 13.5804 10.625 13.555V12.695C10.6247 12.6434 10.604 12.594 10.5675 12.5575C10.531 12.521 10.4816 12.5003 10.43 12.5H9.57C9.51833 12.5002 9.46883 12.5208 9.4323 12.5573C9.39576 12.5938 9.37516 12.6433 9.375 12.695V13.555C9.375 13.6619 9.46188 13.75 9.57563 13.75ZM12.3112 13.75C12.3366 13.7502 12.3618 13.7452 12.3852 13.7354C12.4086 13.7256 12.4297 13.7111 12.4474 13.6929C12.465 13.6747 12.4788 13.6531 12.4878 13.6294C12.4969 13.6056 12.501 13.5804 12.5 13.555V12.695C12.4997 12.6434 12.479 12.594 12.4425 12.5575C12.406 12.521 12.3566 12.5003 12.305 12.5H11.4444C11.3381 12.5 11.25 12.5875 11.25 12.695V13.555C11.25 13.6619 11.3375 13.75 11.4513 13.75H12.3112ZM7.70063 15.625H8.56125C8.6675 15.625 8.75562 15.5375 8.74937 15.43V14.57C8.74921 14.5184 8.7287 14.469 8.6923 14.4325C8.6559 14.396 8.60656 14.3753 8.555 14.375H7.69437C7.58812 14.375 7.5 14.4625 7.5 14.57V15.43C7.5 15.5369 7.58688 15.625 7.70063 15.625ZM10.4362 15.625C10.4616 15.6252 10.4868 15.6202 10.5102 15.6104C10.5336 15.6006 10.5547 15.5861 10.5724 15.5679C10.59 15.5497 10.6038 15.5281 10.6128 15.5044C10.6219 15.4806 10.626 15.4554 10.625 15.43V14.57C10.6247 14.5184 10.604 14.469 10.5675 14.4325C10.531 14.396 10.4816 14.3753 10.43 14.375H9.57C9.51833 14.3752 9.46883 14.3958 9.4323 14.4323C9.39576 14.4688 9.37516 14.5183 9.375 14.57V15.43C9.375 15.5369 9.4625 15.625 9.57625 15.625H10.4362ZM11.4506 15.625H12.3112C12.3366 15.6252 12.3618 15.6202 12.3852 15.6104C12.4086 15.6006 12.4297 15.5861 12.4474 15.5679C12.465 15.5497 12.4788 15.5281 12.4878 15.5044C12.4969 15.4806 12.501 15.4554 12.5 15.43V14.57C12.4997 14.5184 12.479 14.469 12.4425 14.4325C12.406 14.396 12.3566 14.3753 12.305 14.375H11.4444C11.3381 14.375 11.25 14.4625 11.25 14.57V15.43C11.25 15.5369 11.3375 15.625 11.4513 15.625H11.4506Z" fill="#EC5C29"/>
</svg>
