<svg width="86" height="86" viewBox="0 0 86 86" fill="none" xmlns="http://www.w3.org/2000/svg">
<g filter="url(#filter0_d_302_18)">
<circle cx="43" cy="43" r="30" fill="white"/>
<circle cx="43" cy="43" r="29.25" stroke="#F1F1F1" stroke-width="1.5"/>
</g>
<path fill-rule="evenodd" clip-rule="evenodd" d="M40.506 32.5125C40.6361 32.661 40.7355 32.8338 40.7987 33.0208C40.8619 33.2078 40.8875 33.4055 40.8741 33.6024C40.8607 33.7993 40.8086 33.9917 40.7207 34.1685C40.6329 34.3452 40.5109 34.5029 40.362 34.6325L36.5 38.0003H52.5C52.8978 38.0003 53.2794 38.1584 53.5607 38.4396C53.842 38.7209 54 39.1025 54 39.5003C54 39.8981 53.842 40.2796 53.5607 40.5609C53.2794 40.8422 52.8978 41.0002 52.5 41.0002H32.5C32.1947 41.0001 31.8967 40.9069 31.6458 40.7329C31.3949 40.559 31.2031 40.3127 31.0959 40.0268C30.9888 39.741 30.9714 39.4292 31.0461 39.1332C31.1208 38.8372 31.284 38.5711 31.514 38.3703L38.388 32.3706C38.5365 32.2408 38.709 32.1416 38.8959 32.0786C39.0827 32.0156 39.2801 31.9901 39.4769 32.0035C39.6736 32.0168 39.8657 32.0689 40.0423 32.1566C40.2189 32.2442 40.3765 32.3639 40.506 32.5125ZM48.5 48.9999H32.5C32.1022 48.9999 31.7206 48.8419 31.4393 48.5606C31.158 48.2793 31 47.8978 31 47.4999C31 47.1021 31.158 46.7206 31.4393 46.4393C31.7206 46.158 32.1022 46 32.5 46H52.5C52.8053 46.0001 53.1033 46.0933 53.3542 46.2673C53.6051 46.4412 53.7969 46.6875 53.9041 46.9734C54.0112 47.2592 54.0286 47.571 53.9539 47.867C53.8792 48.163 53.716 48.4291 53.486 48.6299L46.612 54.6297C46.3123 54.8914 45.9209 55.0234 45.5239 54.9966C45.1269 54.9698 44.7568 54.7863 44.495 54.4867C44.2332 54.187 44.1012 53.7956 44.1281 53.3986C44.1549 53.0016 44.3383 52.6315 44.638 52.3697L48.5 48.9999Z" fill="#8B8585"/>
<defs>
<filter id="filter0_d_302_18" x="0" y="0" width="86" height="86" filterUnits="userSpaceOnUse" color-interpolation-filters="sRGB">
<feFlood flood-opacity="0" result="BackgroundImageFix"/>
<feColorMatrix in="SourceAlpha" type="matrix" values="0 0 0 0 0 0 0 0 0 0 0 0 0 0 0 0 0 0 127 0" result="hardAlpha"/>
<feMorphology radius="4" operator="erode" in="SourceAlpha" result="effect1_dropShadow_302_18"/>
<feOffset/>
<feGaussianBlur stdDeviation="8.5"/>
<feComposite in2="hardAlpha" operator="out"/>
<feColorMatrix type="matrix" values="0 0 0 0 0 0 0 0 0 0 0 0 0 0 0 0 0 0 0.19 0"/>
<feBlend mode="normal" in2="BackgroundImageFix" result="effect1_dropShadow_302_18"/>
<feBlend mode="normal" in="SourceGraphic" in2="effect1_dropShadow_302_18" result="shape"/>
</filter>
</defs>
</svg>
