<svg width="15" height="10" viewBox="0 0 15 10" fill="none" xmlns="http://www.w3.org/2000/svg">
<path id="Vector" d="M14.0625 10C14.0625 10 15 10 15 9.16667C15 8.33333 14.0625 5.83333 10.3125 5.83333C6.5625 5.83333 5.625 8.33333 5.625 9.16667C5.625 10 6.5625 10 6.5625 10H14.0625ZM6.58312 9.16667C6.5762 9.16582 6.56932 9.16471 6.5625 9.16333C6.56344 8.94333 6.71906 8.305 7.275 7.73C7.7925 7.19083 8.70187 6.66667 10.3125 6.66667C11.9222 6.66667 12.8316 7.19167 13.35 7.73C13.9059 8.305 14.0606 8.94417 14.0625 9.16333L14.055 9.165C14.0506 9.16566 14.0463 9.16621 14.0419 9.16667H6.58312ZM10.3125 4.16667C10.8098 4.16667 11.2867 3.99107 11.6383 3.67851C11.99 3.36595 12.1875 2.94203 12.1875 2.5C12.1875 2.05797 11.99 1.63405 11.6383 1.32149C11.2867 1.00893 10.8098 0.833333 10.3125 0.833333C9.81522 0.833333 9.33831 1.00893 8.98668 1.32149C8.63504 1.63405 8.4375 2.05797 8.4375 2.5C8.4375 2.94203 8.63504 3.36595 8.98668 3.67851C9.33831 3.99107 9.81522 4.16667 10.3125 4.16667ZM13.125 2.5C13.125 2.8283 13.0523 3.15339 12.9109 3.45671C12.7696 3.76002 12.5624 4.03562 12.3012 4.26777C12.0401 4.49991 11.73 4.68406 11.3888 4.8097C11.0476 4.93534 10.6818 5 10.3125 5C9.94316 5 9.57743 4.93534 9.2362 4.8097C8.89497 4.68406 8.58493 4.49991 8.32376 4.26777C8.0626 4.03562 7.85543 3.76002 7.71409 3.45671C7.57275 3.15339 7.5 2.8283 7.5 2.5C7.5 1.83696 7.79632 1.20107 8.32376 0.732233C8.85121 0.263392 9.56658 0 10.3125 0C11.0584 0 11.7738 0.263392 12.3012 0.732233C12.8287 1.20107 13.125 1.83696 13.125 2.5ZM6.5025 6.06667C6.12748 5.9617 5.74091 5.89269 5.34937 5.86083C5.12937 5.84224 4.90849 5.83306 4.6875 5.83333C0.9375 5.83333 0 8.33333 0 9.16667C0 9.7225 0.312187 10 0.9375 10H4.89C4.75102 9.73985 4.68171 9.45462 4.6875 9.16667C4.6875 8.325 5.04094 7.465 5.70938 6.74667C5.93719 6.50167 6.2025 6.2725 6.5025 6.06667ZM4.6125 6.66667C4.05764 7.40773 3.75791 8.27651 3.75 9.16667H0.9375C0.9375 8.95 1.09125 8.30833 1.65 7.73C2.16094 7.2 3.04875 6.68333 4.6125 6.6675V6.66667ZM1.40625 2.91667C1.40625 2.25363 1.70257 1.61774 2.23001 1.1489C2.75746 0.680059 3.47283 0.416667 4.21875 0.416667C4.96467 0.416667 5.68004 0.680059 6.20749 1.1489C6.73493 1.61774 7.03125 2.25363 7.03125 2.91667C7.03125 3.57971 6.73493 4.21559 6.20749 4.68443C5.68004 5.15327 4.96467 5.41667 4.21875 5.41667C3.47283 5.41667 2.75746 5.15327 2.23001 4.68443C1.70257 4.21559 1.40625 3.57971 1.40625 2.91667ZM4.21875 1.25C3.72147 1.25 3.24456 1.42559 2.89292 1.73816C2.54129 2.05072 2.34375 2.47464 2.34375 2.91667C2.34375 3.35869 2.54129 3.78262 2.89292 4.09518C3.24456 4.40774 3.72147 4.58333 4.21875 4.58333C4.71603 4.58333 5.19294 4.40774 5.54458 4.09518C5.89621 3.78262 6.09375 3.35869 6.09375 2.91667C6.09375 2.47464 5.89621 2.05072 5.54458 1.73816C5.19294 1.42559 4.71603 1.25 4.21875 1.25Z" fill="black"/>
</svg>
