<svg width="30" height="30" viewBox="0 0 30 30" fill="none" xmlns="http://www.w3.org/2000/svg">
<path d="M15 7.58334C15.7735 7.58334 16.5154 7.89063 17.0624 8.43762C17.6094 8.9846 17.9167 9.72646 17.9167 10.5C17.9167 11.2736 17.6094 12.0154 17.0624 12.5624C16.5154 13.1094 15.7735 13.4167 15 13.4167C14.2265 13.4167 13.4846 13.1094 12.9376 12.5624C12.3906 12.0154 12.0833 11.2736 12.0833 10.5C12.0833 9.72646 12.3906 8.9846 12.9376 8.43762C13.4846 7.89063 14.2265 7.58334 15 7.58334ZM9.16667 9.66668C9.63333 9.66668 10.0667 9.79168 10.4417 10.0167C10.3167 11.2083 10.6667 12.3917 11.3833 13.3167C10.9667 14.1167 10.1333 14.6667 9.16667 14.6667C8.50363 14.6667 7.86774 14.4033 7.3989 13.9344C6.93006 13.4656 6.66667 12.8297 6.66667 12.1667C6.66667 11.5036 6.93006 10.8678 7.3989 10.3989C7.86774 9.93007 8.50363 9.66668 9.16667 9.66668ZM20.8333 9.66668C21.4964 9.66668 22.1323 9.93007 22.6011 10.3989C23.0699 10.8678 23.3333 11.5036 23.3333 12.1667C23.3333 12.8297 23.0699 13.4656 22.6011 13.9344C22.1323 14.4033 21.4964 14.6667 20.8333 14.6667C19.8667 14.6667 19.0333 14.1167 18.6167 13.3167C19.3432 12.3787 19.6805 11.1968 19.5583 10.0167C19.9333 9.79168 20.3667 9.66668 20.8333 9.66668ZM9.58333 18.2083C9.58333 16.4833 12.0083 15.0833 15 15.0833C17.9917 15.0833 20.4167 16.4833 20.4167 18.2083V19.6667H9.58333V18.2083ZM5 19.6667V18.4167C5 17.2583 6.575 16.2833 8.70833 16C8.21667 16.5667 7.91667 17.35 7.91667 18.2083V19.6667H5ZM25 19.6667H22.0833V18.2083C22.0833 17.35 21.7833 16.5667 21.2917 16C23.425 16.2833 25 17.2583 25 18.4167V19.6667Z" fill="black"/>
<circle cx="15" cy="15" r="14.5" stroke="black"/>
</svg>
