<svg width="163" height="209" viewBox="0 0 163 209" fill="none" xmlns="http://www.w3.org/2000/svg">
<path d="M8.23761 165.999C7.00304 161.282 8.31559 155.571 11.2851 151.704C11.506 151.418 11.7984 151.113 12.1558 151.146C12.7016 151.198 12.8445 151.925 12.8055 152.478C12.5786 157.326 10.9911 162.012 8.22462 165.999" fill="#E0E0E0"/>
<path d="M9.75153 167.007C15.476 168.495 22.0453 167.046 26.8146 163.53C23.9512 162.116 20.6861 161.737 17.5748 162.458C14.4884 163.167 11.6684 164.544 9.77752 167.065" fill="#E0E0E0"/>
<path d="M11.0187 163.888C14.2286 158.69 20.3819 155.246 26.5093 154.934C25.8011 157.429 23.7543 159.365 21.4411 160.535C19.1279 161.704 16.5483 162.218 14.0076 162.712C13.02 162.9 11.662 163.115 11.0187 163.888Z" fill="#E0E0E0"/>
<path d="M8.55609 148.657C9.52172 145.701 10.1751 142.652 10.5054 139.56C10.7458 136.467 10.304 133.244 8.69904 130.593C5.70358 136.389 5.39818 143.166 8.43913 148.943" fill="#E0E0E0"/>
<path d="M18.6471 143.556C22.1559 137.188 29.3034 132.101 36.5354 131.386C33.7479 138.338 26.139 143.732 18.6471 143.556Z" fill="#E0E0E0"/>
<path d="M16.4445 144.804C21.6427 145.603 26.1196 148.943 31.0059 150.964C32.0282 151.465 33.1642 151.689 34.3003 151.613C34.8191 151.592 35.3197 151.417 35.7376 151.108C36.1555 150.8 36.4715 150.374 36.6449 149.884C36.8183 149.395 36.8411 148.865 36.7105 148.362C36.5798 147.86 36.3016 147.408 35.9117 147.065C35.2191 146.428 34.4061 145.935 33.5206 145.616C28.1989 143.4 22.4744 143.348 16.8928 144.687" fill="#E0E0E0"/>
<path d="M13.4167 148.475C14.5993 148.813 15.0086 149.424 15.9443 150.223C19.1416 152.937 22.9215 154.878 26.9905 155.895C27.4064 155.999 27.9652 156.038 28.1731 155.661C28.381 155.285 28.1211 154.921 27.8872 154.628C26.1157 152.539 23.8122 150.967 21.2205 150.08C18.6669 149.131 16.4641 147.988 13.4232 148.235" fill="#E0E0E0"/>
<path d="M10.005 126.331C12.1513 128.312 14.6892 129.82 17.4548 130.759C20.2204 131.698 23.1523 132.047 26.061 131.782C26.3272 131.788 26.5862 131.695 26.7887 131.522C27.1916 131.08 26.7107 130.405 26.2429 130.041C21.532 126.37 15.8465 124.843 10.0375 126.331" fill="#E0E0E0"/>
<path d="M19.8492 123.069C19.5778 123.207 19.2925 123.316 18.998 123.394L16.6523 124.18C14.703 124.83 11.9544 125.83 9.00444 127.039C6.05446 128.248 3.31891 129.32 1.75944 130.671C1.1313 131.201 0.633314 131.868 0.303949 132.621C0.0830249 133.153 0.0375426 133.485 0.0115516 133.478C-0.0144395 133.472 0.0115516 133.394 0.0115516 133.238C0.0469668 133.016 0.103536 132.799 0.18049 132.588C0.478021 131.797 0.966909 131.091 1.6035 130.535C2.54944 129.736 3.60668 129.079 4.74192 128.585C6.00248 128.001 7.393 127.383 8.87449 126.779C11.831 125.564 14.573 124.622 16.5743 124.005C17.575 123.686 18.3937 123.459 18.959 123.309C19.248 123.203 19.5459 123.122 19.8492 123.069Z" fill="#E0E0E0"/>
<path d="M17.9453 158.689C17.6413 158.882 17.3267 159.058 17.0031 159.216C16.1528 159.693 15.3385 160.232 14.5664 160.827C13.4268 161.72 12.358 162.7 11.3695 163.758C10.2519 164.947 9.09531 166.324 7.91272 167.799C5.55404 170.756 3.36429 173.374 2.02576 175.467C1.37598 176.506 0.869152 177.377 0.550762 177.994C0.400276 178.32 0.226558 178.635 0.0309448 178.936C0.0480355 178.844 0.0786863 178.754 0.121913 178.67C0.186891 178.501 0.284354 178.248 0.433803 177.936C0.84494 177.041 1.31152 176.173 1.83082 175.337C3.13037 173.199 5.30062 170.541 7.6788 167.585C8.86139 166.11 10.031 164.726 11.1746 163.543C12.1743 162.49 13.2611 161.522 14.4235 160.652C15.2237 160.063 16.0738 159.546 16.9641 159.105C17.276 158.943 17.5294 158.852 17.6983 158.78C17.8673 158.709 17.9388 158.676 17.9453 158.689Z" fill="#E0E0E0"/>
<path d="M18.2962 165.252C17.6407 165.392 16.9764 165.488 16.3079 165.538C14.7144 165.702 13.1396 166.013 11.6035 166.467C10.0851 166.96 8.66134 167.707 7.39294 168.677C6.41828 169.424 5.96344 170.048 5.91795 170.009C5.87247 169.97 5.99592 169.833 6.21035 169.554C6.5109 169.169 6.84821 168.814 7.2175 168.495C8.47558 167.449 9.9226 166.655 11.48 166.155C13.0362 165.69 14.641 165.407 16.2624 165.311C16.9369 165.226 17.6179 165.206 18.2962 165.252Z" fill="#E0E0E0"/>
<path d="M6.49632 169.294C6.39235 169.229 7.28904 167.864 7.9778 166.045C8.66657 164.226 8.78352 162.562 8.90048 162.582C8.95774 162.935 8.95774 163.294 8.90048 163.647C8.80239 164.502 8.6084 165.344 8.32218 166.155C8.01733 166.959 7.632 167.73 7.17208 168.456C6.99364 168.77 6.76542 169.053 6.49632 169.294Z" fill="#E0E0E0"/>
<path d="M23.7413 141.068C23.6447 141.14 23.5373 141.197 23.4229 141.236L22.4938 141.665C22.0844 141.841 21.5906 142.062 21.0318 142.354C20.473 142.646 19.8167 142.939 19.1344 143.348L18.0493 143.998C17.6789 144.212 17.3085 144.472 16.9122 144.719C16.113 145.2 15.3137 145.798 14.4625 146.409C10.8107 149.127 7.62248 152.419 5.02129 156.155C4.44299 157.032 3.87769 157.851 3.41635 158.663C3.18892 159.066 2.94201 159.45 2.76657 159.833L2.18827 160.931C1.8049 161.626 1.53849 162.289 1.25909 162.88C0.979687 163.472 0.778257 163.953 0.609315 164.368C0.440373 164.784 0.323415 165.064 0.219451 165.311C0.180779 165.426 0.126097 165.535 0.0570068 165.636C0.0800441 165.518 0.112638 165.403 0.154469 165.291C0.245438 165.038 0.355902 164.713 0.492355 164.323C0.628808 163.933 0.823738 163.387 1.08365 162.809C1.34356 162.231 1.59697 161.555 1.97384 160.86L2.53915 159.742C2.73408 159.352 2.9745 158.969 3.18892 158.559C3.64377 157.734 4.20257 156.903 4.78087 156.019C7.36935 152.225 10.5839 148.898 14.2871 146.181C15.1513 145.577 15.9635 144.986 16.7692 144.505C17.1721 144.264 17.549 144.011 17.9323 143.797L19.0305 143.199C19.7192 142.802 20.3885 142.549 20.9798 142.244C21.4645 142.002 21.9612 141.785 22.4678 141.594L23.4294 141.223L23.7413 141.068Z" fill="#E0E0E0"/>
<path d="M9.56958 150.567C9.70069 150.107 9.97354 149.7 10.3493 149.404C11.2213 148.646 12.3327 148.221 13.4877 148.202C14.6224 148.197 15.7467 148.418 16.7951 148.852C17.2383 148.994 17.6586 149.2 18.0427 149.463C17.599 149.371 17.1641 149.24 16.7431 149.073C15.6973 148.715 14.5995 148.533 13.4942 148.534C12.4075 148.559 11.3566 148.927 10.4923 149.586C10.1614 149.89 9.85305 150.218 9.56958 150.567Z" fill="#E0E0E0"/>
<path d="M7.45129 152.751C8.40103 150.927 8.64621 148.817 8.14005 146.825C8.33088 147.072 8.45807 147.362 8.51043 147.669C8.70432 148.393 8.75727 149.148 8.66638 149.892C8.58538 150.634 8.36493 151.355 8.0166 152.016C7.7242 152.517 7.48378 152.777 7.45129 152.751Z" fill="#E0E0E0"/>
<path d="M1.12918 187.858C1.34577 190.633 1.34577 193.42 1.12918 196.195C0.912588 193.42 0.912588 190.633 1.12918 187.858Z" fill="#FAFAFA"/>
<path d="M9.91397 187.799C10.1306 190.628 10.1306 193.469 9.91397 196.298C9.69738 193.469 9.69738 190.628 9.91397 187.799Z" fill="#FAFAFA"/>
<path d="M38.9006 127.37H18.7576C18.1648 127.37 17.5962 127.135 17.177 126.716C16.7578 126.297 16.5223 125.728 16.5223 125.135C16.5215 124.841 16.5787 124.55 16.6906 124.278C16.8026 124.006 16.9671 123.759 17.1747 123.55C17.3824 123.342 17.6291 123.177 17.9007 123.064C18.1723 122.951 18.4635 122.893 18.7576 122.893H38.9006C39.1947 122.893 39.4859 122.951 39.7575 123.064C40.0291 123.177 40.2758 123.342 40.4835 123.55C40.6911 123.759 40.8556 124.006 40.9676 124.278C41.0795 124.55 41.1367 124.841 41.1358 125.135C41.1358 125.728 40.9004 126.297 40.4812 126.716C40.062 127.135 39.4934 127.37 38.9006 127.37Z" fill="#263238"/>
<path d="M42.1429 126.181H7.09396C3.87857 126.181 1.27197 128.788 1.27197 132.003V194.759C1.27197 197.974 3.87857 200.581 7.09396 200.581H42.1429C45.3583 200.581 47.9649 197.974 47.9649 194.759V132.003C47.9649 128.788 45.3583 126.181 42.1429 126.181Z" fill="#FF725E"/>
<path d="M42.1429 126.181H7.09396C3.87857 126.181 1.27197 128.788 1.27197 132.003V194.759C1.27197 197.974 3.87857 200.581 7.09396 200.581H42.1429C45.3583 200.581 47.9649 197.974 47.9649 194.759V132.003C47.9649 128.788 45.3583 126.181 42.1429 126.181Z" fill="black"/>
<path d="M53.2281 126.181H18.1792C14.9638 126.181 12.3572 128.788 12.3572 132.003V194.759C12.3572 197.974 14.9638 200.581 18.1792 200.581H53.2281C56.4435 200.581 59.0501 197.974 59.0501 194.759V132.003C59.0501 128.788 56.4435 126.181 53.2281 126.181Z" fill="#D96431"/>
<path d="M58.6537 188.144C58.6537 188.235 48.2573 188.313 35.4177 188.313C22.5781 188.313 12.1752 188.235 12.1752 188.144C12.1752 188.053 22.5716 187.975 35.4177 187.975C48.2638 187.975 58.6537 188.053 58.6537 188.144Z" fill="#263238"/>
<path d="M58.6537 177.89C58.6537 177.981 48.2573 178.059 35.4177 178.059C22.5781 178.059 12.1752 177.981 12.1752 177.89C12.1752 177.799 22.5716 177.721 35.4177 177.721C48.2638 177.721 58.6537 177.799 58.6537 177.89Z" fill="#263238"/>
<path d="M58.6537 167.656C58.6537 167.747 48.2573 167.825 35.4177 167.825C22.5781 167.825 12.1752 167.747 12.1752 167.656C12.1752 167.565 22.5716 167.487 35.4177 167.487C48.2638 167.487 58.6537 167.539 58.6537 167.656Z" fill="#263238"/>
<path d="M58.6537 157.384C58.6537 157.475 48.2573 157.553 35.4177 157.553C22.5781 157.553 12.1752 157.475 12.1752 157.384C12.1752 157.293 22.5716 157.215 35.4177 157.215C48.2638 157.215 58.6537 157.26 58.6537 157.384Z" fill="#263238"/>
<path d="M58.6537 147.123C58.6537 147.221 48.2573 147.292 35.4177 147.292C22.5781 147.292 12.1752 147.221 12.1752 147.123C12.1752 147.026 22.5716 146.954 35.4177 146.954C48.2638 146.954 58.6537 147.032 58.6537 147.123Z" fill="#263238"/>
<path d="M58.6537 136.87C58.6537 136.967 48.2573 137.039 35.4177 137.039C22.5781 137.039 12.1752 136.967 12.1752 136.87C12.1752 136.773 22.5716 136.701 35.4177 136.701C48.2638 136.701 58.6537 136.779 58.6537 136.87Z" fill="#263238"/>
<path d="M51.3047 204.609C51.3047 205.406 51.0684 206.185 50.6257 206.847C50.183 207.51 49.5539 208.026 48.8177 208.331C48.0816 208.636 47.2716 208.716 46.4901 208.56C45.7086 208.405 44.9908 208.021 44.4274 207.458C43.864 206.894 43.4803 206.177 43.3248 205.395C43.1694 204.614 43.2492 203.804 43.5541 203.067C43.859 202.331 44.3754 201.702 45.0379 201.259C45.7004 200.817 46.4793 200.581 47.276 200.581C47.8053 200.58 48.3296 200.683 48.8187 200.885C49.3079 201.088 49.7523 201.384 50.1266 201.759C50.5009 202.133 50.7976 202.577 50.9997 203.066C51.2019 203.556 51.3055 204.08 51.3047 204.609Z" fill="#263238"/>
<path d="M54.1118 204.609C54.1118 205.406 53.8756 206.185 53.4329 206.847C52.9902 207.51 52.3611 208.026 51.6249 208.331C50.8888 208.636 50.0788 208.716 49.2973 208.56C48.5158 208.405 47.798 208.021 47.2346 207.458C46.6712 206.894 46.2875 206.177 46.132 205.395C45.9766 204.614 46.0564 203.804 46.3613 203.067C46.6662 202.331 47.1826 201.702 47.8451 201.259C48.5076 200.817 49.2865 200.581 50.0832 200.581C51.1517 200.581 52.1764 201.005 52.9319 201.761C53.6874 202.516 54.1118 203.541 54.1118 204.609Z" fill="#455A64"/>
<path d="M19.2645 204.609C19.2645 205.406 19.0282 206.185 18.5856 206.847C18.1429 207.51 17.5137 208.026 16.7776 208.331C16.0414 208.636 15.2314 208.716 14.4499 208.56C13.6685 208.405 12.9506 208.021 12.3872 207.458C11.8238 206.894 11.4401 206.177 11.2847 205.395C11.1292 204.614 11.209 203.804 11.5139 203.067C11.8189 202.331 12.3352 201.702 12.9977 201.259C13.6602 200.817 14.4391 200.581 15.2359 200.581C15.7652 200.58 16.2894 200.683 16.7786 200.885C17.2677 201.088 17.7122 201.384 18.0864 201.759C18.4607 202.133 18.7574 202.577 18.9596 203.066C19.1617 203.556 19.2654 204.08 19.2645 204.609Z" fill="#263238"/>
<path d="M22.0715 204.609C22.0715 205.406 21.8352 206.185 21.3926 206.847C20.9499 207.51 20.3207 208.026 19.5846 208.331C18.8484 208.636 18.0384 208.716 17.2569 208.56C16.4755 208.405 15.7576 208.021 15.1942 207.458C14.6308 206.894 14.2471 206.177 14.0917 205.395C13.9362 204.614 14.016 203.804 14.3209 203.067C14.6259 202.331 15.1422 201.702 15.8047 201.259C16.4672 200.817 17.2461 200.581 18.0429 200.581C19.1113 200.581 20.136 201.005 20.8915 201.761C21.6471 202.516 22.0715 203.541 22.0715 204.609Z" fill="#455A64"/>
<path d="M6.51592 147.124H6.50942C5.1314 147.124 4.01428 148.241 4.01428 149.619V171.204C4.01428 172.582 5.1314 173.699 6.50942 173.699H6.51592C7.89394 173.699 9.01106 172.582 9.01106 171.204V149.619C9.01106 148.241 7.89394 147.124 6.51592 147.124Z" fill="#263238"/>
<path d="M7.47753 199.911C7.41843 199.88 7.3638 199.84 7.31509 199.794L6.86674 199.424C6.32257 198.905 5.8564 198.309 5.48272 197.657C4.46258 195.961 3.85828 193.108 3.87778 189.625C3.99474 182.666 4.26764 173.069 4.52755 162.465C4.78746 151.86 5.11235 142.276 5.31378 135.304C5.30023 133.733 5.43951 132.164 5.72964 130.619C5.96849 129.443 6.51564 128.351 7.31509 127.455C7.82049 126.89 8.45621 126.457 9.16695 126.194C9.41379 126.104 9.67169 126.047 9.93369 126.025C9.93369 126.025 9.66728 126.077 9.19294 126.259C8.5037 126.543 7.893 126.989 7.41256 127.559C6.64791 128.449 6.13034 129.525 5.91157 130.678C5.64783 132.212 5.52818 133.767 5.5542 135.324C5.37876 142.296 5.13834 151.886 4.86543 162.484C4.59253 173.082 4.29363 182.666 4.0987 189.638C4.04672 193.102 4.61203 195.922 5.58019 197.605C6.07473 198.477 6.71666 199.258 7.47753 199.911Z" fill="#263238"/>
<path d="M87.4975 76.4474L78.6215 82.1979L77.8158 91.1648C77.8158 91.1648 80.4149 92.3799 84.2551 88.8971C88.0952 85.4143 93.0725 78.3577 93.0725 78.3577L87.4975 76.4474Z" fill="#FFBE9D"/>
<path d="M87.1011 80.1252L84.1966 65.3883L76.4383 68.4552L78.4201 87.8705L87.1011 80.1252Z" fill="#FFBE9D"/>
<path d="M108.115 61.4701C108.058 61.3156 107.962 61.1783 107.837 61.0714C107.712 60.9644 107.562 60.8914 107.4 60.8593L101.825 59.7936C101.582 59.75 101.333 59.7581 101.093 59.8174C100.853 59.8768 100.629 59.986 100.435 60.138L83.6053 73.3805L84.2941 74.1472L90.2461 75.9601L108.212 61.743L108.115 61.4701Z" fill="#263238"/>
<path d="M103.592 62.3927C103.612 62.4745 103.658 62.5479 103.722 62.6026C103.786 62.6573 103.865 62.6905 103.949 62.6976C104.033 62.7047 104.117 62.6853 104.19 62.6421C104.262 62.5989 104.319 62.5341 104.353 62.4568C104.386 62.3795 104.395 62.2937 104.377 62.2113C104.359 62.1289 104.316 62.0542 104.254 61.9976C104.191 61.941 104.113 61.9055 104.029 61.8959C103.945 61.8864 103.861 61.9033 103.787 61.9443C103.704 61.9803 103.637 62.0467 103.601 62.1299C103.565 62.2132 103.562 62.3072 103.592 62.3927Z" fill="white"/>
<path d="M108.212 61.743C107.843 61.7199 107.476 61.6699 107.114 61.5936L104.145 61.0738L102.091 60.6969C101.922 60.6547 101.746 60.6509 101.575 60.6857C101.404 60.7206 101.243 60.7932 101.104 60.8983L100.135 61.6585L95.834 65.0504C92.7735 67.4545 89.986 69.5988 87.9717 71.1583L85.5675 72.9841C85.2821 73.2247 84.9779 73.4419 84.6578 73.6339C84.9105 73.365 85.1866 73.1193 85.4831 72.8997L87.8223 70.9893C89.8106 69.3974 92.5656 67.2076 95.6196 64.8035L99.9406 61.4311L100.915 60.6774C101.087 60.5493 101.285 60.4607 101.495 60.4181C101.705 60.3754 101.922 60.3796 102.13 60.4305L104.171 60.8528L107.127 61.5026C107.495 61.5511 107.858 61.6315 108.212 61.743Z" fill="#455A64"/>
<path d="M100.24 65.804C100.24 65.804 99.7976 65.5571 99.0959 66.7656C98.3941 67.9742 96.2889 71.4181 96.2889 71.4181L94.2876 69.2543L91.0387 68.6045C91.0387 68.6045 90.142 69.0009 90.5254 69.5142C91.2073 70.107 91.9551 70.6193 92.7541 71.0412L93.5013 73.6403L89.986 70.19C89.986 70.19 88.4721 70.0795 88.589 71.0672C88.706 72.0548 90.6163 75.6611 90.6163 75.6611L88.5825 74.7904L86.6332 72.4447C86.6332 72.4447 85.86 72.2238 85.9184 72.9645C85.9769 73.7052 87.7703 76.9281 87.7703 76.9281L90.3694 79.5272C90.3694 79.5272 92.1173 79.9691 92.4552 79.5272C92.6996 79.1659 92.9064 78.7805 93.0725 78.3771C93.0725 78.3771 94.0601 78.4421 94.372 78.0587C94.5979 77.724 94.7507 77.3454 94.8204 76.9476C94.8204 76.9476 96.1589 77.6819 96.6008 76.9476C97.0642 76.0014 97.3672 74.9847 97.4974 73.9392C97.5559 73.2894 100.233 67.8703 100.233 67.6753C100.233 67.4804 101.26 65.7325 100.24 65.804Z" fill="#FFBE9D"/>
<path d="M92.559 79.5533C92.2623 79.6258 91.9525 79.6258 91.6558 79.5533C90.936 79.4198 90.248 79.1508 89.6285 78.7606C89.0064 78.3725 88.4657 77.8671 88.0366 77.2726C87.8349 77.044 87.6922 76.7697 87.6207 76.4734C88.2636 77.2299 88.9994 77.9023 89.8105 78.4747C90.6805 78.9422 91.6032 79.3043 92.559 79.5533Z" fill="#EB996E"/>
<path d="M92.2017 78.1758C92.1303 78.2343 91.6754 77.7535 91.2466 77.0647C90.8177 76.376 90.5968 75.7652 90.6748 75.7197C90.7527 75.6742 91.1166 76.22 91.5325 76.8893C91.9483 77.5585 92.2797 78.1174 92.2017 78.1758Z" fill="#EB996E"/>
<path d="M94.7616 76.0379C94.6902 76.0964 94.2353 75.6221 93.8584 74.9203C93.5792 74.5189 93.4233 74.0446 93.4101 73.5558C93.5011 73.5233 93.787 74.0821 94.1508 74.7579C94.5147 75.4336 94.8396 75.9795 94.7616 76.0379Z" fill="#EB996E"/>
<path d="M97.2309 74.4525C97.0204 73.9706 96.8551 73.4703 96.737 72.958C96.527 72.4843 96.3596 71.9929 96.2367 71.4895C96.6178 71.8779 96.9067 72.347 97.0822 72.8621C97.2576 73.3772 97.3151 73.9252 97.2503 74.4655L97.2309 74.4525Z" fill="#EB996E"/>
<path d="M57.9651 6.75246C58.3702 5.14202 59.2544 3.69239 60.5009 2.59507C61.7473 1.49775 63.2973 0.804371 64.9461 0.606544C66.5949 0.408716 68.2649 0.715744 69.7355 1.48707C71.2061 2.25839 72.4082 3.45771 73.1828 4.9266C74.6318 7.66865 74.6058 11.3204 77.0165 13.2827C78.6669 14.6277 81.0646 14.7772 82.676 16.1677C86.0874 19.1177 84.112 25.6609 87.7313 28.351C85.4627 30.197 82.7916 31.4836 79.934 32.1067C79.7338 31.1205 79.2454 30.2159 78.5305 29.5076C79.1413 31.1645 78.2251 33.0749 76.8151 34.1405C75.405 35.2061 73.6117 35.596 71.8768 35.9014C67.6922 36.6551 63.3582 37.071 59.2061 36.1613C55.0541 35.2516 51.0709 32.815 49.1151 29.0138C48.6148 28.0586 48.2314 26.9995 47.4322 26.2782C46.633 25.557 45.3594 25.2386 44.2873 24.7642C42.8259 24.0833 41.5988 22.985 40.7605 21.6079C39.9222 20.2307 39.5102 18.6363 39.5764 17.0254C42.325 16.85 44.2158 14.1989 45.3204 11.6778C46.425 9.15663 47.3282 6.30412 49.5895 4.73166C50.3431 4.20787 51.2061 3.86263 52.113 3.72211C53.02 3.58159 53.947 3.64949 54.8238 3.92067C55.7006 4.19185 56.5041 4.65917 57.1733 5.28719C57.8426 5.9152 58.36 6.6874 58.6863 7.54519" fill="#263238"/>
<path d="M51.4739 12.7889L51.3569 10.4757L65.1712 7.40221C69.4402 6.81741 74.2095 10.9695 74.6124 15.258C75.0608 20.0274 75.4246 25.8688 74.9698 29.4491C74.0536 36.6551 68.589 37.7337 68.589 37.7337L68.7774 46.4992L52.9489 45.9339L51.4739 12.7889Z" fill="#FFBE9D"/>
<path d="M72.7084 20.5796C72.7191 20.8195 72.6352 21.0539 72.4748 21.2326C72.3144 21.4112 72.0903 21.5197 71.8507 21.5348C71.7339 21.5483 71.6156 21.5381 71.5028 21.505C71.3899 21.4718 71.285 21.4163 71.194 21.3417C71.1031 21.2671 71.0281 21.1751 70.9735 21.0709C70.9188 20.9668 70.8857 20.8528 70.876 20.7356C70.8653 20.4958 70.9492 20.2613 71.1096 20.0827C71.27 19.904 71.4941 19.7955 71.7337 19.7804C71.8505 19.767 71.9689 19.7771 72.0817 19.8103C72.1945 19.8435 72.2995 19.899 72.3904 19.9735C72.4813 20.0481 72.5563 20.1402 72.611 20.2443C72.6656 20.3484 72.6987 20.4625 72.7084 20.5796Z" fill="#263238"/>
<path d="M73.1892 18.351C73.0788 18.4744 72.3705 17.9806 71.3828 18.0131C70.3952 18.0456 69.6804 18.5654 69.57 18.4484C69.4595 18.3315 69.622 18.1755 69.9338 17.9351C70.351 17.6232 70.8556 17.4505 71.3763 17.4413C71.8913 17.4219 72.399 17.5676 72.8253 17.8571C73.1372 18.0846 73.2477 18.299 73.1892 18.351Z" fill="#263238"/>
<path d="M63.4945 21.0022C63.5052 21.242 63.4213 21.4765 63.2609 21.6551C63.1005 21.8337 62.8764 21.9423 62.6368 21.9573C62.52 21.9708 62.4017 21.9606 62.2888 21.9275C62.176 21.8943 62.0711 21.8388 61.9801 21.7642C61.8892 21.6897 61.8142 21.5976 61.7596 21.4935C61.7049 21.3893 61.6718 21.2753 61.6621 21.1581C61.6547 20.9191 61.7398 20.6865 61.8995 20.5086C62.0593 20.3307 62.2814 20.2212 62.5198 20.2029C62.6365 20.1904 62.7545 20.2012 62.8669 20.2347C62.9793 20.2683 63.084 20.3238 63.1747 20.3982C63.2654 20.4726 63.3404 20.5644 63.3953 20.668C63.4502 20.7717 63.484 20.8853 63.4945 21.0022Z" fill="#263238"/>
<path d="M63.4752 18.8577C63.3647 18.9811 62.65 18.4873 61.6623 18.5198C60.6746 18.5523 59.9664 19.0721 59.8494 18.9551C59.7325 18.8382 59.9079 18.6822 60.2133 18.4418C60.6328 18.1298 61.1396 17.9571 61.6623 17.948C62.1753 17.9286 62.6809 18.0744 63.1048 18.3639C63.4167 18.5718 63.5272 18.7797 63.4752 18.8577Z" fill="#263238"/>
<path d="M67.2893 26.064C67.8056 25.8838 68.3428 25.7703 68.8878 25.7261C69.1412 25.6871 69.3816 25.6286 69.4141 25.4597C69.4308 25.197 69.3649 24.9357 69.2257 24.7124C68.9658 24.1081 68.6994 23.4779 68.4199 22.8151C67.2958 20.1055 66.4706 17.8768 66.5811 17.8378C66.6915 17.7988 67.6922 19.9496 68.8163 22.6526C69.0827 23.3024 69.3426 23.9522 69.5895 24.5695C69.7582 24.8693 69.8157 25.2191 69.752 25.5571C69.7166 25.6457 69.6622 25.7253 69.5925 25.7905C69.5229 25.8556 69.4398 25.9046 69.3491 25.934C69.2102 25.9786 69.066 26.0048 68.9203 26.012C68.3808 26.0954 67.8331 26.1129 67.2893 26.064Z" fill="#263238"/>
<path d="M68.5824 37.7533C65.1302 37.9148 61.6995 37.1307 58.6603 35.4856C58.6603 35.4856 61.2594 40.4304 68.6343 39.5402L68.5824 37.7533Z" fill="#EB996E"/>
<path d="M66.9449 28.4615C66.7501 28.2294 66.4992 28.0509 66.2161 27.9429C65.9329 27.8349 65.6269 27.8009 65.327 27.8442C65.109 27.8741 64.8992 27.9469 64.7096 28.0584C64.52 28.17 64.3544 28.318 64.2224 28.494C64.0961 28.6624 64.0246 28.8655 64.0177 29.0759C64.0107 29.2863 64.0685 29.4937 64.1834 29.6701C64.3461 29.843 64.5568 29.9632 64.7884 30.0153C65.02 30.0674 65.2619 30.049 65.4829 29.9625C65.9442 29.7814 66.3657 29.5121 66.724 29.1697C66.8331 29.0857 66.9257 28.9822 66.9969 28.8643C67.0338 28.8096 67.0535 28.7452 67.0535 28.6792C67.0535 28.6132 67.0338 28.5487 66.9969 28.494" fill="#EB996E"/>
<path d="M64.3978 26.837C64.5537 26.837 64.5927 27.8962 65.5349 28.6304C66.4771 29.3647 67.6142 29.2087 67.6272 29.3582C67.6402 29.5076 67.3803 29.5791 66.8994 29.6051C66.2695 29.6358 65.6494 29.4399 65.1515 29.0528C64.6705 28.6886 64.3529 28.1491 64.2679 27.5518C64.2159 27.1034 64.3263 26.8305 64.3978 26.837Z" fill="#263238"/>
<path d="M63.6117 16.0379C63.5208 16.3108 62.5266 16.2133 61.37 16.3888C60.2134 16.5642 59.2842 16.9086 59.1283 16.6747C59.0503 16.5577 59.2063 16.3043 59.5766 16.0249C60.069 15.6789 60.6372 15.4561 61.2336 15.3751C61.8241 15.2862 62.4273 15.3374 62.9945 15.5246C63.4233 15.7065 63.6442 15.9079 63.6117 16.0379Z" fill="#263238"/>
<path d="M73.0593 14.9591C72.8903 15.1865 72.2016 14.9591 71.3829 14.9916C70.5641 15.024 69.8754 15.193 69.7064 14.9591C69.635 14.8486 69.7064 14.6212 70.0313 14.4003C70.4286 14.129 70.8985 13.9839 71.3796 13.9839C71.8607 13.9839 72.3306 14.129 72.7279 14.4003C73.0268 14.6212 73.1308 14.8486 73.0593 14.9591Z" fill="#263238"/>
<path d="M64.9566 7.70763C64.8542 9.21759 64.3054 10.6631 63.3799 11.8605C62.4543 13.0579 61.1938 13.9533 59.7584 14.4328C58.6148 14.7967 57.1593 15.0826 56.8019 16.2067C56.4445 17.3308 57.5166 18.4809 58.043 19.6115C58.3514 20.3141 58.4456 21.0921 58.3138 21.8481C58.1821 22.604 57.8302 23.3042 57.3022 23.861C56.6979 24.5108 55.8857 24.8877 55.3139 25.5375C54.9438 25.9834 54.6796 26.5074 54.5412 27.0701C54.4027 27.6328 54.3937 28.2196 54.5147 28.7864C54.7598 29.9213 55.3581 30.9494 56.2236 31.7233C53.514 31.8793 50.538 30.5018 49.6543 27.9351C49.128 26.4017 49.4009 24.7318 49.6154 23.1268C50.1033 19.4663 50.2534 15.7686 50.0637 12.0806C49.963 11.4606 50.0656 10.8247 50.3561 10.2677C50.7639 9.79932 51.3139 9.47749 51.9221 9.35156C55.7547 8.16126 59.6619 7.22571 63.618 6.55103" fill="#263238"/>
<path d="M63.3517 6.66792C64.0349 8.07854 64.9337 9.37411 66.0158 10.5081C66.5627 11.0722 67.2325 11.5023 67.973 11.7649C68.7135 12.0276 69.5047 12.1156 70.2848 12.0221C70.0054 11.5542 69.726 11.0864 69.4531 10.6186C71.6381 12.8706 74.2696 14.6412 77.1789 15.8168C75.7494 13.1267 74.2679 10.3716 71.9807 8.35734C69.6935 6.34303 66.3796 5.19943 63.5336 6.27156" fill="#263238"/>
<path d="M69.661 43.6661L52.0001 42.3081L54.963 51.6649L70.0768 56.7006L72.0846 53.3088L69.661 43.6661Z" fill="#FFBE9D"/>
<path d="M36.1323 58.8579C34.0152 58.1754 31.7727 57.9728 29.5676 58.2648C27.3624 58.5569 25.2499 59.3362 23.3835 60.5463C21.517 61.7564 19.9434 63.3669 18.7768 65.2608C17.6102 67.1548 16.88 69.2847 16.6391 71.4961C16.1712 75.7846 17.5617 80.1511 16.8275 84.4006C16.2882 87.5325 14.6313 90.359 13.897 93.452C12.3116 100.112 15.4825 107.461 21.0445 111.425C26.6066 115.388 34.2155 116.045 40.6613 113.744L47.289 103.348L42.8965 63.3999L36.1193 58.8514" fill="#455A64"/>
<path d="M46.7173 87.1491C46.7173 87.1491 45.2033 95.2648 46.113 96.4929C46.7089 97.2457 47.5726 97.7393 48.5237 97.8704L77.8156 95.6027L78.7902 79.4818C78.7902 79.4818 81.7402 68.4356 80.3822 63.7507C79.0241 59.0658 73.1957 44.7253 73.1957 44.7253L68.7057 43.3802C68.7057 43.3802 68.7057 48.0651 67.0553 48.364C65.4048 48.6629 57.4191 48.7149 53.5075 43.6661L52 42.3081L43.6439 48.3965L47.5035 81.4116L46.7173 87.1491Z" fill="#D96431"/>
<path d="M33.5073 58.2797C33.5073 58.2797 38.9654 50.086 41.1486 47.7728C44.5859 44.134 49.4398 42.6526 50.6029 43.3283C52.2013 44.251 60.1741 52.5486 60.8108 58.1497C61.4476 63.7508 60.8108 77.643 60.8108 77.643L54.0727 79.6768L54.0012 72.9646L52.8836 56.4538C52.8836 56.4538 50.122 48.6565 43.6503 48.3966C43.6503 48.3966 36.8861 54.0821 36.6457 59.5532L33.5073 58.2797Z" fill="#455A64"/>
<path d="M49.2126 89.2025L35.7037 101.548L39.271 106.311C39.271 106.311 55.7038 95.8367 57.4192 85.3948L49.2126 89.2025Z" fill="#455A64"/>
<path d="M32.1237 115.064C31.4305 114.682 30.7774 114.231 30.1743 113.719C28.5077 112.33 27.1414 110.617 26.1587 108.683C25.4748 107.352 24.9575 105.942 24.6188 104.485C24.2643 102.806 24.0814 101.095 24.0729 99.3781C24.008 95.7588 24.5993 91.8147 25.2945 87.7211C26.0497 83.8984 26.506 80.0227 26.6591 76.1291C26.6838 74.4326 26.5642 72.7371 26.3017 71.0608C26.0418 69.4884 25.7104 68.0264 25.5479 66.6684C25.3656 65.4449 25.3656 64.2011 25.5479 62.9776C25.6859 62.0533 25.985 61.1604 26.4316 60.3395C26.7139 59.8192 27.0806 59.3493 27.5168 58.949C27.6642 58.8079 27.8253 58.6816 27.9976 58.5721C27.4107 59.0906 26.9202 59.7087 26.5486 60.398C26.1325 61.2126 25.8558 62.0911 25.7299 62.9971C25.5788 64.2024 25.5985 65.423 25.7884 66.6229C25.9703 67.9679 26.3082 69.4169 26.5811 71.0024C26.8637 72.6919 26.9963 74.4032 26.9774 76.1161C26.8457 80.0293 26.3981 83.9255 25.6389 87.7666C24.8806 91.5882 24.4631 95.4696 24.3913 99.3651C24.393 101.058 24.5628 102.747 24.8982 104.407C25.2201 105.849 25.7177 107.245 26.3796 108.566C27.3372 110.485 28.6618 112.198 30.2783 113.608C30.5577 113.862 30.8306 114.069 31.058 114.258C31.2855 114.446 31.4869 114.589 31.6493 114.7L32.0197 114.966C32.0567 114.996 32.0914 115.029 32.1237 115.064Z" fill="#263238"/>
<path d="M25.84 83.9653C24.289 84.1364 22.7275 84.1928 21.1681 84.1343C19.611 84.193 18.0516 84.1365 16.5027 83.9653C18.0519 83.798 19.611 83.7416 21.1681 83.7964C22.7275 83.7417 24.2887 83.7982 25.84 83.9653Z" fill="#263238"/>
<path d="M73.196 44.7253C73.196 44.7253 78.4592 47.084 80.2655 50.06C82.0719 53.036 86.9712 70.0926 86.9712 70.0926L80.0836 71.4506L73.196 44.7253Z" fill="#D96431"/>
<path d="M77.01 69.3325C77.01 69.3325 75.4245 53.7379 74.7617 52.7372C74.099 51.7366 73.0268 44.1342 69.661 43.6404C69.661 43.6404 73.2088 44.4591 75.2556 45.7716C77.3024 47.0842 79.5246 54.1667 79.5246 54.1667L80.8242 66.5125L77.01 69.3325Z" fill="#455A64"/>
<path d="M35.0281 55.6806C34.7634 55.301 34.436 54.9692 34.06 54.6994C33.6383 54.44 33.1575 54.2924 32.663 54.2706C32.0549 54.2545 31.4543 54.4075 30.928 54.7124C29.9703 55.2992 29.2239 56.1752 28.7968 57.214C28.4394 58.0133 28.303 58.5461 28.251 58.5136C28.2664 58.0269 28.3767 57.5479 28.5759 57.1036C28.9642 55.9708 29.7396 55.0114 30.7656 54.394C31.345 54.0609 32.0086 53.9029 32.6759 53.9392C33.2203 53.9777 33.7438 54.1642 34.1899 54.4785C34.4056 54.6095 34.5916 54.7841 34.7359 54.9911C34.8802 55.198 34.9798 55.4329 35.0281 55.6806Z" fill="#263238"/>
<path d="M52.8772 56.4538C52.7208 56.1702 52.5819 55.8772 52.4614 55.5766L52.247 55.0958C52.156 54.9203 52.0585 54.7384 51.9481 54.5434C51.8376 54.3485 51.7206 54.1341 51.6037 53.8937L51.1488 53.2439C50.3805 52.1276 49.4215 51.1555 48.3158 50.3719C46.9329 49.3862 45.3239 48.7649 43.6374 48.5655C42.3776 48.5259 41.1397 48.9027 40.1157 49.6376H40.1546C40.1092 49.6831 40.0702 49.7351 40.0247 49.7871C37.4343 52.8354 35.1042 56.0957 33.0591 59.5337C32.2794 60.8333 31.6751 61.9444 31.2657 62.6981L30.7979 63.5688C30.749 63.6766 30.6856 63.7771 30.6094 63.8677C30.6386 63.7552 30.68 63.6463 30.7329 63.5428C30.8239 63.3349 30.9603 63.023 31.1488 62.6397C31.5256 61.8599 32.0909 60.7488 32.8577 59.3908C34.848 55.8955 37.1627 52.5953 39.7713 49.5337L39.8947 49.3842C40.4655 49.0212 41.0759 48.7247 41.7141 48.5005C42.3373 48.2738 43.0043 48.1937 43.6634 48.2666C45.4104 48.4727 47.0739 49.1287 48.4913 50.1705C49.6159 50.9804 50.5808 51.9916 51.3373 53.1529L51.7791 53.8482C51.8961 54.0756 52.0001 54.2965 52.104 54.498L52.3899 55.0633L52.5783 55.5571C52.7015 55.8476 52.8014 56.1475 52.8772 56.4538Z" fill="#263238"/>
<path d="M47.1854 95.1935C46.7154 95.6439 46.1967 96.0405 45.6389 96.3761C43.0054 98.1005 40.0856 99.3415 37.0164 100.041C36.3805 100.215 35.7262 100.313 35.0671 100.333C35.6779 100.122 36.3006 99.9458 36.9319 99.8069C39.9418 98.9918 42.8271 97.7721 45.509 96.1811C46.0465 95.8171 46.6064 95.4872 47.1854 95.1935Z" fill="#263238"/>
<path d="M125.035 163.322L120.922 203.232L108.362 203.063L107.458 160.886L125.035 163.322Z" fill="#FFBE9D"/>
<path d="M121.286 199.43V200.269C121.286 200.269 135.431 205.993 135.581 208.677L107.465 208.462L107.92 199.106C109.994 200.115 112.261 200.667 114.568 200.723C116.874 200.779 119.165 200.338 121.286 199.43Z" fill="#455A64"/>
<path d="M110.74 202.094C110.469 202.175 110.238 202.351 110.09 202.591C109.941 202.831 109.886 203.116 109.934 203.394C110.005 203.67 110.18 203.908 110.422 204.058C110.664 204.208 110.955 204.259 111.233 204.2C111.52 204.114 111.765 203.925 111.92 203.669C112.076 203.414 112.132 203.11 112.078 202.816C111.975 202.538 111.769 202.311 111.503 202.181C111.237 202.052 110.931 202.03 110.649 202.12" fill="white"/>
<path d="M107.458 208.462L107.569 206.208L134.476 207.241C134.476 207.241 135.724 207.8 135.574 208.677L107.458 208.462Z" fill="white"/>
<path d="M121.383 200.347C121.383 200.483 120.694 200.542 120.012 200.996C119.33 201.451 118.973 202.004 118.843 201.952C118.713 201.9 118.927 201.1 119.759 200.587C120.59 200.074 121.416 200.217 121.383 200.347Z" fill="#263238"/>
<path d="M124.327 201.588C124.327 201.724 123.761 201.952 123.287 202.53C122.813 203.108 122.676 203.719 122.54 203.712C122.403 203.706 122.325 202.926 122.923 202.218C123.521 201.51 124.327 201.445 124.327 201.588Z" fill="#263238"/>
<path d="M125.971 205.129C125.847 205.161 125.665 204.479 126.022 203.725C126.38 202.972 127.023 202.679 127.082 202.796C127.14 202.913 126.737 203.31 126.432 203.927C126.126 204.544 126.126 205.116 125.971 205.129Z" fill="#263238"/>
<path d="M128.745 173.355L147.849 195.11L138.875 203.901L116.211 184.102L128.745 173.355Z" fill="#FFBE9D"/>
<path d="M145.405 192.172L146.003 192.764C146.003 192.764 160.032 186.76 162.039 188.547L142.072 208.345L135.756 201.445C140.09 199.866 143.345 196.942 145.405 192.172Z" fill="#455A64"/>
<path d="M139.882 201.555C139.749 201.804 139.712 202.093 139.778 202.367C139.843 202.642 140.008 202.882 140.24 203.043C140.484 203.187 140.773 203.231 141.049 203.167C141.325 203.103 141.565 202.935 141.721 202.699C141.862 202.435 141.901 202.128 141.829 201.838C141.757 201.547 141.579 201.294 141.331 201.126C141.063 201.003 140.756 200.988 140.477 201.086C140.198 201.185 139.968 201.388 139.837 201.653" fill="white"/>
<path d="M142.072 208.345L140.552 206.682L160.246 188.319C160.246 188.319 161.546 187.825 162.04 188.547L142.072 208.345Z" fill="white"/>
<path d="M146.127 192.751C146.218 192.848 145.776 193.401 145.607 194.167C145.438 194.934 145.607 195.616 145.464 195.668C145.321 195.72 144.918 195.018 145.139 194.057C145.36 193.095 146.062 192.64 146.127 192.751Z" fill="#263238"/>
<path d="M149.076 191.535C149.193 191.607 148.94 192.185 149.018 192.932C149.096 193.68 149.427 194.232 149.33 194.297C149.232 194.362 148.615 193.901 148.537 192.997C148.459 192.094 148.986 191.445 149.076 191.535Z" fill="#263238"/>
<path d="M152.767 192.868C152.696 192.972 152.079 192.621 151.799 191.841C151.52 191.061 151.767 190.392 151.89 190.431C152.014 190.47 152.014 191.035 152.254 191.679C152.494 192.322 152.839 192.757 152.767 192.868Z" fill="#263238"/>
<path d="M47.3932 48.8449C46.7068 48.2946 45.8419 48.0163 44.9634 48.063C44.085 48.1098 43.2544 48.4783 42.6303 49.0983C40.2392 51.4895 36.7824 55.5051 36.6654 58.7605C36.503 63.7443 35.7037 76.9542 35.7037 76.9542L54.0274 76.3044C54.0274 76.3044 54.0274 58.7605 52.4225 54.7644C51.5128 52.4707 49.2191 50.3004 47.3932 48.8449Z" fill="#D96431"/>
<path d="M37.8156 76.9281C37.8156 76.9281 36.7695 87.0062 37.9326 91.6326C39.1347 96.4214 41.5063 96.35 43.5012 96.4929C45.496 96.6359 76.9906 80.125 76.9906 80.125L73.4948 73.9197L49.7845 81.0672L49.9989 76.4343L37.8156 76.9281Z" fill="#FFBE9D"/>
<path d="M73.2997 74.0887L78.9852 66.9736L84.1185 65.7845L90.3693 66.4733C90.4256 66.7619 90.3823 67.061 90.2466 67.3219C90.1108 67.5827 89.8907 67.7898 89.6221 67.9093L91.8118 68.0328C91.8704 68.1929 91.8958 68.3633 91.8864 68.5336C91.8769 68.7039 91.8328 68.8704 91.7568 69.0231C91.6808 69.1757 91.5744 69.3113 91.4442 69.4214C91.314 69.5316 91.1627 69.614 90.9996 69.6637L92.559 69.9366C92.3562 70.3941 92.0061 70.7706 91.5646 71.0061C91.123 71.2416 90.6153 71.3226 90.1224 71.2362C88.5869 71.0273 87.0391 70.9231 85.4895 70.9243L82.429 72.6137L86.9775 72.4253L90.2978 73.075C90.2978 73.075 90.7332 73.9197 89.9859 74.1212C88.7774 74.2244 87.5622 74.2244 86.3537 74.1212L81.9742 75.2648C81.9742 75.2648 81.0385 78.0783 80.4732 78.7021C79.9079 79.3259 76.7825 80.1381 76.7825 80.1381L73.2997 74.0887Z" fill="#FFBE9D"/>
<path d="M91.8118 68.0523C91.2439 68.0925 90.6733 68.0729 90.1094 67.9938C89.0633 67.9093 87.6207 67.7729 86.0288 67.6039L84.5018 67.4285H84.5668C83.3777 67.7599 82.3511 68.0393 81.6168 68.2212C81.2315 68.3474 80.8322 68.426 80.4277 68.4551C80.7873 68.2687 81.1665 68.1227 81.5583 68.0198C82.2796 67.7859 83.2932 67.4675 84.4758 67.1101H84.5408L86.0743 67.2726C87.6597 67.4415 89.1022 67.6169 90.1419 67.7599C90.7067 67.8028 91.266 67.9007 91.8118 68.0523Z" fill="#EB996E"/>
<path d="M92.1888 69.8913C91.6732 69.9111 91.157 69.8762 90.6488 69.7873C89.7001 69.6769 88.3941 69.5079 86.9581 69.2935L85.5286 69.0791H85.6131C84.4458 69.598 83.2428 70.0323 82.0133 70.3786C83.1309 69.7679 84.293 69.2422 85.4896 68.8062H85.5286H85.5741L87.0101 69.0076C88.4461 69.2155 89.7456 69.4234 90.6813 69.5924C91.1932 69.6368 91.6987 69.7371 92.1888 69.8913Z" fill="#EB996E"/>
<path d="M76.7954 80.1252C76.9592 80.0605 77.1262 80.0041 77.2958 79.9563C77.6272 79.8523 78.121 79.7029 78.7448 79.4755C79.0502 79.3585 79.3945 79.2285 79.7649 79.0531C79.9534 78.9715 80.1321 78.8691 80.2977 78.7477C80.465 78.6059 80.5983 78.4282 80.6876 78.2279C81.1579 77.2528 81.5574 76.2453 81.8832 75.2129V75.1609H81.9417L86.3146 73.9978H86.3601C87.1009 74.0433 87.8936 74.0758 88.7123 74.0758C89.1191 74.0839 89.5257 74.0557 89.9274 73.9913C90.0071 73.9801 90.0815 73.9449 90.1407 73.8903C90.1999 73.8358 90.2411 73.7645 90.2588 73.6859C90.281 73.4997 90.2446 73.3112 90.1548 73.1466L90.2588 73.2246L86.9449 72.6073H86.9774L82.429 72.8022H81.7272L82.3445 72.4644L85.405 70.7749H85.4439H85.4829C86.646 70.7749 87.8611 70.8269 89.1022 70.9504C89.4466 70.9894 89.7844 71.0284 90.1223 71.0868C90.4286 71.1519 90.7452 71.1519 91.0515 71.0868C91.3454 70.9979 91.6175 70.8485 91.8502 70.6482C92.083 70.4479 92.2713 70.2011 92.4031 69.9237L92.5265 70.1512L90.9605 69.8783L90.3887 69.7743L90.9281 69.5599C91.2058 69.4561 91.4366 69.2553 91.5778 68.9946C91.6412 68.8639 91.6779 68.7218 91.6857 68.5768C91.6935 68.4318 91.6723 68.2866 91.6233 68.1499L91.7663 68.2538L89.5765 68.1239L88.9787 68.0914L89.518 67.8185C89.7555 67.7044 89.9526 67.5208 90.0833 67.2921C90.2006 67.0687 90.2373 66.8117 90.1873 66.5644L90.3238 66.6814L84.0664 65.9731H84.1184L78.9787 67.1362L79.0437 67.0972L74.8396 72.2954L73.6895 73.6859L73.3841 74.0433C73.3126 74.1213 73.2736 74.1603 73.2672 74.1538L73.3581 74.0173L73.6375 73.6405L74.7941 72.1395C75.7883 70.8854 77.1853 69.0985 78.9202 66.8893H78.9592L84.0859 65.6417H84.1314L90.3887 66.2915H90.4992V66.402C90.5731 66.7249 90.5294 67.0636 90.3757 67.3571C90.2126 67.6418 89.9651 67.8688 89.6675 68.0069L89.6025 67.7015L91.7923 67.825H91.9027V67.9224C91.9686 68.1029 91.9979 68.2946 91.989 68.4865C91.98 68.6783 91.933 68.8665 91.8507 69.0401C91.6654 69.3785 91.3627 69.6374 90.9995 69.7678L91.0385 69.5404L92.6045 69.8198L92.8189 69.8523L92.7279 70.0472C92.5784 70.373 92.3607 70.6629 92.0894 70.8972C91.8181 71.1315 91.4996 71.3047 91.1555 71.4052C90.802 71.4797 90.4368 71.4797 90.0833 71.4052C89.7585 71.3532 89.4336 71.3078 89.0892 71.2753C87.8676 71.1518 86.6525 71.1128 85.5024 71.0998H85.5869L82.507 72.7893L82.4225 72.4839L86.9709 72.3019H87.0099L90.3238 72.9517H90.4017V73.0167C90.5159 73.2435 90.561 73.4987 90.5317 73.7509C90.501 73.8829 90.4323 74.0031 90.3342 74.0966C90.2361 74.1901 90.1127 74.2529 89.9794 74.2772C89.5505 74.3523 89.115 74.3828 88.6798 74.3682C87.8481 74.3682 87.0619 74.3162 86.3082 74.2642H86.3471L82.0196 75.3884L82.0911 75.3169C81.7546 76.3581 81.3352 77.3706 80.837 78.3448C80.7335 78.5637 80.5826 78.7569 80.3952 78.9102C80.2146 79.0314 80.0232 79.1358 79.8234 79.222C79.4838 79.3717 79.1368 79.504 78.7837 79.6184C78.134 79.8263 77.6531 79.9628 77.3153 80.0473L76.9319 80.1382C76.8409 80.1252 76.8019 80.1317 76.7954 80.1252Z" fill="#EB996E"/>
<path d="M35.3853 76.9283C35.4843 76.8989 35.5875 76.8857 35.6907 76.8893L36.5809 76.8308L39.8948 76.6749L51.2593 76.2395L51.1034 76.3955C51.1424 74.8035 51.1034 73.1076 51.0254 71.3597C50.8825 68.4747 50.6291 65.7326 50.4731 63.231C50.3821 61.9769 50.3496 60.7879 50.2457 59.6832C50.1651 58.6594 50.0087 57.643 49.7778 56.6423C49.4533 55.188 48.8485 53.8108 47.9975 52.5877C47.3802 51.7365 46.9253 51.3531 46.9513 51.3336C47.074 51.406 47.1856 51.4958 47.2827 51.6C47.5823 51.8801 47.8583 52.1844 48.1079 52.5097C49.0092 53.7255 49.6547 55.1115 50.0053 56.5838C50.2577 57.5933 50.4315 58.6209 50.5251 59.6572C50.642 60.7684 50.6875 61.9575 50.7785 63.205C50.9604 65.7067 51.2203 68.4487 51.3633 71.3402C51.4543 73.0946 51.4803 74.8035 51.4283 76.4085V76.5644H51.2788L39.9078 76.8828L36.5874 76.9413H35.6972L35.3853 76.9283Z" fill="#263238"/>
<path d="M48.5236 97.8705C48.5236 97.8705 40.226 109.177 40.226 113.725C40.226 118.273 40.4014 125.038 45.801 129.911C51.2007 134.784 117.198 191.802 117.198 191.802L133.274 177.598L73.4555 117.169C73.4555 117.169 76.243 112.12 75.0214 110.021C74.303 108.781 73.2051 107.803 71.8895 107.234L71.7141 96.0381L48.5236 97.8705Z" fill="#263238"/>
<path d="M77.8157 95.6028L79.2192 107.539C79.2192 107.539 121.708 129.554 125.132 136.058C126.685 139.008 128.193 165.694 128.193 165.694L107.244 166.168L104.534 145.018L93.2934 138.943L73.1958 118.52L66.3472 96.493L77.8157 95.6028Z" fill="#263238"/>
<path d="M58.6538 97.4221C58.7492 97.6487 58.8147 97.8868 58.8487 98.1304C58.9749 98.7846 59.0553 99.4468 59.0891 100.112C59.1417 101.107 59.0697 102.105 58.8747 103.082C58.6309 104.289 58.1446 105.434 57.4452 106.447C56.7423 107.468 55.7832 108.286 54.6642 108.819C53.7408 109.233 52.7305 109.416 51.7207 109.352C51.0423 109.304 50.38 109.123 49.7713 108.819C49.6096 108.737 49.4553 108.642 49.31 108.533C49.206 108.462 49.1606 108.416 49.1671 108.403C49.9601 108.82 50.833 109.061 51.7272 109.112C52.6912 109.143 53.6489 108.945 54.5212 108.533C55.5817 108.012 56.4901 107.227 57.1593 106.253C58.35 104.438 58.9389 102.294 58.8422 100.125C58.8162 98.4553 58.5953 97.4286 58.6538 97.4221Z" fill="#263238"/>
<path d="M74.9435 105.512C74.63 105.858 74.2583 106.146 73.8454 106.363C72.8876 106.955 71.8536 107.414 70.772 107.728C69.691 108.045 68.5715 108.211 67.4451 108.222C66.9798 108.255 66.5121 108.211 66.0611 108.092C67.6175 108.011 69.1625 107.781 70.6745 107.403C72.1563 106.915 73.5863 106.281 74.9435 105.512Z" fill="#455A64"/>
<path d="M73.6571 97.5132C73.6571 97.4807 74.0599 97.3703 74.5603 97.7472C74.7067 97.8605 74.8247 98.0064 74.9048 98.1734C74.9849 98.3403 75.0249 98.5237 75.0216 98.7088C75.0201 98.9411 74.9527 99.1681 74.8274 99.3637C74.702 99.5592 74.5238 99.7151 74.3134 99.8134C74.093 99.9046 73.8499 99.9254 73.6173 99.8731C73.3846 99.8208 73.1739 99.6978 73.0138 99.5211C72.9099 99.404 72.836 99.2636 72.7983 99.1117C72.7605 98.9599 72.7602 98.8011 72.7972 98.6491C72.8343 98.4971 72.9076 98.3563 73.011 98.2389C73.1143 98.1214 73.2446 98.0307 73.3907 97.9746C73.5531 97.9226 73.6506 97.9746 73.6506 97.9746C73.6506 97.9746 73.2672 98.072 73.0853 98.5594C73.0345 98.6875 73.0222 98.8277 73.0499 98.9628C73.0776 99.0978 73.1441 99.2218 73.2412 99.3196C73.3609 99.4359 73.5111 99.5159 73.6744 99.5504C73.8377 99.5849 74.0074 99.5725 74.1639 99.5145C74.3177 99.4398 74.4484 99.3248 74.5422 99.1818C74.6359 99.0388 74.6894 98.8732 74.6967 98.7023C74.7041 98.5601 74.6807 98.4179 74.6279 98.2855C74.5752 98.1532 74.4945 98.0338 74.3913 97.9356C74.0275 97.5652 73.6506 97.5717 73.6571 97.5132Z" fill="#455A64"/>
<path d="M75.0282 119.501C74.5308 119.153 74.0615 118.767 73.6247 118.345C72.5159 117.402 71.3553 116.521 70.1484 115.707C68.9407 114.897 67.6745 114.178 66.3602 113.556C65.7991 113.327 65.2523 113.065 64.7228 112.77C65.3232 112.882 65.9064 113.072 66.4577 113.335C67.8231 113.899 69.1291 114.598 70.3563 115.421C71.5785 116.24 72.7304 117.159 73.8001 118.169C74.2569 118.567 74.6687 119.014 75.0282 119.501Z" fill="#455A64"/>
<path d="M77.7118 111.496C77.6699 110.75 77.8199 110.005 78.1475 109.333C78.475 108.66 78.9693 108.083 79.5831 107.656C79.6546 107.734 78.9333 108.423 78.4525 109.482C77.9717 110.541 77.8157 111.509 77.7118 111.496Z" fill="#455A64"/>
<path d="M125.477 194.947C125.067 194.613 124.696 194.234 124.372 193.816C123.722 193.089 122.839 192.068 121.884 190.931C121.679 190.655 121.431 190.413 121.149 190.217C120.887 190.062 120.58 190 120.279 190.041C119.738 190.129 119.224 190.34 118.778 190.658C118.369 191.006 117.88 191.247 117.355 191.36C117.355 191.328 117.874 191.068 118.654 190.463C119.108 190.102 119.643 189.857 120.214 189.749C120.586 189.694 120.965 189.765 121.292 189.95C121.608 190.164 121.885 190.43 122.111 190.736C123.066 191.873 123.917 192.913 124.522 193.68C124.885 194.067 125.205 194.492 125.477 194.947Z" fill="#455A64"/>
<path d="M117.199 191.789C117.199 191.789 117.29 191.692 117.472 191.523L118.297 190.775L121.474 187.923L133.203 177.526V177.715L102.852 147.455L81.0516 125.648L78.6929 123.238L77.5428 122.081C77.1659 121.698 76.7891 121.321 76.3862 120.983C75.5355 120.361 74.8469 119.543 74.3784 118.598C74.1834 118.111 74.1404 117.577 74.2549 117.065C74.3719 116.558 74.5863 116.136 74.7228 115.681C75.0197 114.81 75.2372 113.914 75.3726 113.004C75.5199 112.162 75.4529 111.298 75.1776 110.489C74.7962 109.789 74.3023 109.157 73.7156 108.618C73.1855 108.105 72.5754 107.681 71.9092 107.364H71.8508V107.305C71.8118 103.9 71.7858 101.21 71.7663 99.352C71.7663 98.4423 71.7663 97.734 71.7663 97.2402C71.7663 97.0128 71.7663 96.8373 71.7663 96.7009C71.7663 96.5644 71.7663 96.5189 71.7663 96.5189C71.7748 96.5793 71.7748 96.6405 71.7663 96.7009C71.7663 96.8373 71.7663 97.0128 71.7663 97.2402C71.7663 97.734 71.7663 98.4423 71.8248 99.352C71.8638 101.204 71.9222 103.9 71.9937 107.299L71.9352 107.214C72.6303 107.541 73.2669 107.98 73.8196 108.514C74.433 109.073 74.9472 109.732 75.3401 110.463C75.6412 111.306 75.7195 112.213 75.5675 113.095C75.4361 114.02 75.2186 114.932 74.9177 115.817C74.7813 116.272 74.5668 116.727 74.4629 117.175C74.3615 117.64 74.4023 118.125 74.5798 118.566C75.0424 119.464 75.7103 120.241 76.5292 120.834C76.9356 121.179 77.3238 121.546 77.6923 121.932L78.8489 123.088L81.24 125.46C87.7378 131.925 95.1582 139.352 103.072 147.24L133.372 177.565L133.463 177.663L133.365 177.747L121.578 188.027L118.329 190.827L117.485 191.549L117.199 191.789Z" fill="#455A64"/>
<path d="M126.62 192.575C125.83 191.688 125.173 190.69 124.671 189.612C124.079 188.588 123.641 187.483 123.372 186.331C123.463 186.292 124.086 187.741 124.977 189.456C125.867 191.172 126.705 192.523 126.62 192.575Z" fill="#455A64"/>
<path d="M130.76 189.638C128.748 188.118 127.163 186.104 126.159 183.79C126.244 183.745 127.075 185.194 128.349 186.799C129.623 188.404 130.825 189.567 130.76 189.638Z" fill="#455A64"/>
<path d="M133.371 186.753C132.586 185.918 131.861 185.028 131.201 184.089C130.453 183.218 129.769 182.292 129.154 181.321C130.028 182.077 130.805 182.936 131.468 183.881C132.22 184.755 132.859 185.72 133.371 186.753Z" fill="#455A64"/>
<path d="M136.1 181.952C135.319 181.612 134.583 181.176 133.911 180.652C133.182 180.213 132.513 179.68 131.922 179.067C132.705 179.4 133.439 179.837 134.106 180.366C134.836 180.806 135.507 181.339 136.1 181.952Z" fill="#455A64"/>
<path d="M97.8352 144.037C97.9002 144.102 95.0086 146.76 91.3894 149.963C87.7701 153.166 84.7747 155.713 84.7162 155.642C84.6577 155.571 87.5427 152.919 91.162 149.71C94.7812 146.5 97.7767 143.966 97.8352 144.037Z" fill="#455A64"/>
<path d="M97.2828 145.161C97.0881 145.626 96.8325 146.063 96.5226 146.461C95.843 147.441 95.0961 148.372 94.2873 149.248C93.4776 150.127 92.6092 150.95 91.6882 151.711C91.3251 152.049 90.9187 152.337 90.4797 152.569C90.4147 152.491 92.1626 151.061 94.0339 149.021C95.9053 146.981 97.1918 145.103 97.2828 145.161Z" fill="#455A64"/>
<path d="M59.8949 98.5073C59.8949 98.5073 59.8949 98.7023 59.8039 99.0467C59.6811 99.5315 59.5181 100.005 59.3166 100.463C59.0193 101.145 58.6581 101.798 58.2379 102.412C57.714 103.162 57.1153 103.857 56.4511 104.485C55.7787 105.1 55.0449 105.645 54.2613 106.11C53.6165 106.483 52.9377 106.794 52.234 107.039C51.7634 107.208 51.2784 107.334 50.785 107.416C50.6067 107.461 50.423 107.481 50.2392 107.474C50.2392 107.409 50.9929 107.273 52.1495 106.824C52.8262 106.556 53.4784 106.23 54.0989 105.85C54.8571 105.384 55.5687 104.847 56.2236 104.245C56.8708 103.636 57.4603 102.968 57.9845 102.25C58.4033 101.656 58.7749 101.031 59.0956 100.379C59.6414 99.2416 59.8494 98.4878 59.8949 98.5073Z" fill="#455A64"/>
<path d="M110.097 137C108.871 138.142 107.747 139.387 106.737 140.723C105.824 142.126 105.033 143.604 104.372 145.142C104.427 144.645 104.561 144.16 104.768 143.706C105.201 142.581 105.771 141.514 106.464 140.528C107.155 139.541 107.967 138.643 108.882 137.858C109.238 137.509 109.648 137.219 110.097 137Z" fill="#455A64"/>
<path d="M114.372 139.365C114.372 139.469 112.065 139.891 109.408 141.016C106.75 142.14 104.814 143.504 104.755 143.413C105.117 143.042 105.528 142.723 105.977 142.465C107.021 141.778 108.126 141.189 109.278 140.704C110.428 140.221 111.62 139.843 112.838 139.573C113.338 139.437 113.854 139.367 114.372 139.365Z" fill="#455A64"/>
</svg>
