<?xml version="1.0" encoding="utf-8"?>
<!-- Generator: Adobe Illustrator 25.0.1, SVG Export Plug-In . SVG Version: 6.00 Build 0)  -->
<svg version="1.1" id="Livello_1" xmlns="http://www.w3.org/2000/svg" xmlns:xlink="http://www.w3.org/1999/xlink" x="0px" y="0px"
	 viewBox="0 0 600 600" style="enable-background:new 0 0 600 600;" xml:space="preserve">
<style type="text/css">
	.st0{fill:#FEFEFE;}
	.st1{fill:#454B54;}
	.st2{fill:#F6EADD;}
	.st3{fill:#B4AEA9;}
	.st4{fill:#F9B442;}
	.st5{fill:#FDFDFD;}
	.st6{fill:#F5E9DC;}
</style>
<g>
	<path class="st0" d="M544.7,308.1c0,85.1-0.1,170.3,0.2,255.4c0,6.9-1.4,8.3-8.3,8.3c-161.8-0.2-323.5-0.2-485.3,0
		c-6.9,0-8.3-1.4-8.3-8.3c0.2-170.3,0.2-340.6,0-510.8c0-6.9,1.4-8.3,8.3-8.3c161.8,0.2,323.5,0.2,485.3,0c6.9,0,8.3,1.4,8.3,8.3
		C544.6,137.8,544.7,223,544.7,308.1z"/>
	<path class="st1" d="M249.3,476.8c-24.8-13.6-41.2-35.2-55.7-58.6c-3.7-5.9-1.7-11,2.2-15.8c8.8-6.1,15-5.5,21.4,2.9
		c5.3,7,10.4,14.3,15.9,21.3c37.3,47.6,81.9,50.5,123.1,6.5c21.2-22.7,38-48.4,40.7-80.9c0.8-9.9,3.2-19.7,4.5-29.7
		c0.8-5.9-0.7-8.8-7.1-8.5c-37.5,1.6-70.8-11.7-103.2-28.6c-18.1-9.4-35.9-19.3-55.3-26.1c-14.4-5.1-27.6-5.2-39.2,7.2
		c-7.2,7.7-10,15.6-8.1,26.1c4.3,23.9,8.4,47.7,12.6,71.6c3.1,17.5-0.3,22.5-17.2,24.7c-8.7,1.3-17.5,2.5-26.2,4
		c-21.1,3.7-40.7-8.9-44.8-30.1c-5.1-25.7-9.6-51.4-13.8-77.2c-3.3-20.4,4.3-34.7,23.4-44.1c4.7-2.3,5.8-5,6.3-9.6
		c10.3-88,81.8-152.3,168.9-152.2c86.2,0.1,158.8,65.4,168.2,151.8c0.6,5.9,2.9,8.3,8,10.8c17,8.1,25,24.3,21.8,42.9
		c-4.4,25.4-8.9,50.8-13.6,76.1c-4.1,22-22.3,35-44.7,32c-4.2-0.6-8.5-1-12.5-2.2c-6.5-2-9.3,0.7-12.2,6.5
		c-15.8,31.7-35.6,60.3-66.4,79.6c-2.6,2.8-5.9,4.7-8.6,7.4c-0.9,0.8-1.9,1.4-3,1.9c-25,10.6-50,10.5-75.1,0.1
		C254.7,484.8,251.6,481.1,249.3,476.8z"/>
	<path class="st2" d="M183.9,388.8c15.9-5.3,17-7,14.2-24.1c-4-23.9-8.1-47.7-12.5-71.5c-4.6-24.9,16.3-45.2,41.5-39.7
		c13.6,3,26,9.2,38.3,15.5c26.6,13.8,52.9,28.2,82,36.3c16.8,4.7,33.8,7,51.3,5.7c3.8-0.3,8-1.5,7.2,5.2
		c-4.9,39.5-12.4,77.5-38.9,110c-43.6,53.5-95.8,54.3-138.3,0c-4.3-5.4-8.4-11-11.9-17c-5.1-8.7-11.6-11.9-21-6.9
		C195.3,394.8,193,388.8,183.9,388.8z"/>
	<path class="st1" d="M336.7,483.8c0.1-0.9,0.1-1.8,0.2-2.7c4.6-2,9.3-1.6,13.9-0.2c28.8,11.7,57.6,23.4,86.4,35
		c7.9,3.2,14.3,7.6,10.5,17.1c-4,9.9-12,8.8-20.3,5.4c-21.6-9-43.4-17.6-64.9-26.8c-6.2-2.7-9.6-2.3-14.1,3.6
		c-26.4,35.1-76,34.6-102.3-1c-3.9-5.2-6.6-5.7-12.2-3.3c-22.3,9.4-44.8,18.2-67.1,27.5c-8.2,3.4-15.6,3.9-19.2-5.4
		c-3.4-9,1.8-14.1,10.2-17.4c28.5-11.3,56.9-23.1,85.3-34.8c2.2-0.9,5.6-0.5,6.1-4.1c5.1-0.2,5.8,5.1,9.2,7.1
		c4.9,2.5,6.1,7.6,8.5,11.9c12.9,23.3,46.9,24.1,60.8,1.3C330.6,492.5,332.4,487.3,336.7,483.8z"/>
	<path class="st3" d="M350.8,481c-4.6,0.1-9.3,0.1-13.9,0.2c2.8-2.1,5.4-4.6,9.3-4.1C347.7,478.4,349.3,479.7,350.8,481z"/>
	<path class="st4" d="M174.7,225.1c9,0.5,14-3.8,17.1-12.2c29.9-81.4,134.1-88.1,182.3-42.7c28.9,27.3,42.9,62.1,38.6,102.8
		c-1.1,10.2-5.6,14.4-16.3,14.3c-27.5-0.3-53.1-7.7-77.7-19.2c-23.7-11.1-46.1-24.7-70.6-34.2c-24.7-9.5-48.1-9.7-69,10.5
		c-2.9-3.4-5.7-6.7-8.5-10C170,230.4,170.5,227,174.7,225.1z"/>
	<path class="st5" d="M174.7,225.1c-1.4,3.1-2.7,6.2-4.1,9.3c-0.4-0.1-0.7-0.2-1.1-0.2c-17.3-1.5-17.3-1.5-12.8-19.6
		c16.3-66.4,77-111.8,146.9-109.7c66.1,1.9,124.1,52.1,136.6,118.3c0.4,2.3,0.6,4.6,0.8,6.9c0.1,1.9,0.2,4.2-2.5,4
		c-1.2-0.1-3-1.3-3.4-2.5c-1.5-4.4-2.4-8.9-3.8-13.3C401.1,119.6,280,84,204.5,151.6c-16.1,14.4-27.1,32.2-35.8,51.8
		C164.7,212.5,165.8,219.7,174.7,225.1z"/>
	<path class="st0" d="M151.6,368.8c-9,0.5-13.7-4.6-15.1-12.7c-4.7-25.3-9.1-50.6-13.4-76c-1.5-8.9,2.6-14.6,11.5-17.1
		c20.5-5.8,20.8-5.6,24.3,15.2c3.9,23.5,8.4,46.8,12.3,70.3c3.3,19.5,5.9,15.4-13.9,19.5C155.4,368.5,153.5,368.6,151.6,368.8z"/>
	<path class="st0" d="M442.2,368.7c-2.7-0.3-5.3-0.9-8-1c-8.8-0.4-11.1-4.5-9.6-13.2c5.1-29.2,9.5-58.5,13.9-87.7c0.8-5,2-8,8-6.3
		c4.8,1.4,9.8,1.7,14.7,3c8.4,2.2,12.1,8.2,10.7,16.5c-4.2,25.4-8.7,50.8-13.4,76.1C456.9,364.7,451.7,369.7,442.2,368.7z"/>
	<path class="st6" d="M336.7,483.8c-9.3,25.5-23,35.4-45.3,32.4c-19-2.5-27.3-16.2-33-32.4c15.5,4,30.7,8.9,47.2,7.3
		C316.4,490.1,326.1,485.1,336.7,483.8z"/>
</g>
</svg>
