<svg id="Livello_1" data-name="Livello 1" xmlns="http://www.w3.org/2000/svg" viewBox="0 0 485.94 501.09"><defs><style>.cls-1{fill:#f9b442;}.cls-2{fill:#444b54;}</style></defs><path class="cls-1" d="M86.57,270.11c.33,4.37,1.59,7.51,7.06,7.12s11.05-.2,16.58-.18c17.49.09,24.43,9.95,18,26.31-2.29,5.8-6.19,10.95-9.16,16.5-6.73,12.59-3.9,23.35,8.21,31.76,10,6.95,24.43,5.75,32.2-3.74,12.36-15.1,21.76-31.86,24.89-51.52,2.92-18.41,9.84-34.06,28.47-41.76,16.71-6.91,31.48-2.68,42.68,12.3,8,10.67,6.33,30.13-4.23,41.6-8,8.7-16.92,16.56-25.18,25.05-12.8,13.15-12,20.17,3.53,29.21,35.52,20.63,38.37,50.11,20.71,83.93-14.87,28.45-39.54,43.77-71.77,46.46-1.88.16-3.69,1.24-5.53,1.88.92-7.47-2.65-12.23-8.33-16.92C100,424.7,75.11,355.71,85.06,273.24,85.19,272.15,86.05,271.15,86.57,270.11Z" transform="translate(-55.61 -52.77)"/><path class="cls-1" d="M376.43,102.54c4.89-1,8.31-4.34,11.81-7.55,10.07,2.54,19,7.81,27.6,13.13,7.85,4.85,7.88,1.54,8.2-5.07.69-14.41-2.45-29,1.72-43.25,4.54,2.85,3.72,7.58,3.68,11.73-.43,52.51,5.41,39.1-29.15,74.36a102.86,102.86,0,0,0-8.12,8.59c-3.58,4.61-6.51,9.81-1.46,14.78s10.14,2.26,14.61-1.78c3.8-3.44,7.13-7.37,11.17-10.55,5.79-4.55,9.29-3.19,10.28,4.15.69,5.1.36,10.24.5,15.36.24,8.87,4.06,15.9,10.61,21.63,4.37,3.82,9.33,7.23,14.76,3,5.66-4.38,3.46-10.1-.15-14.67-6.25-7.91-5.95-16.88-4.94-26,.74-6.61,4.21-8,9.64-4a14.17,14.17,0,0,1,2.7,2.29c7.25,9,16.55,14.14,28.13,15L500,194.9c-4,11.18,0,20.92,4,31.35,3.58,9.37,11,18.72,5.6,30-22.34-8.58-46.37-5.08-69.25-9.75.34-2.29.29-4.73,1.09-6.84,2.52-6.6,1.57-12.3-4.15-16.58-6.58-4.91-12.33-2.11-17.66,2.59-5.34-2.55-7.46-8-10.84-12.26-8.13-10.29-11.06-10.21-17.36,1.63-5.75,10.81-11,21.9-18.22,31.86-3.28,4.49-6.64,8.84-11.13,12.21-13.93,10.44-28,9.65-40.48-2.55-15.26-14.92-21.45-34.15-22.85-54.53-1-14.42,6.71-25.62,19.87-32.5,8.87-4.65,18.61-6.48,28.13-9.07,19.56-5.32,26.4-14.56,26.92-34.88C373.86,117.88,371.48,109.73,376.43,102.54Z" transform="translate(-55.61 -52.77)"/><path class="cls-2" d="M440.34,248.34a826.9,826.9,0,0,1-31,83.54c-6.62,22.08-17.28,41.91-32.85,59-30.28,42.76-65.1,81.29-106.82,113.21-27.09,20.73-55.83,38.56-89.57,46.64-8.48,2-17.09,3.4-25.79,3.06-33.06-1.29-55.22-22.65-57.52-55.81-.68-9.8-1.72-20.23.77-29.45,3.91-14.45-.77-25.08-8-37.12C1.72,284.38,93,92.56,262.18,68.15c38.5-5.56,76.26-2.78,113.34,9.54,10,3.3,14.6,8.68,12.72,19.13-1.49,6.64-6.14,9.21-12.43,9.7-18-4.21-35.6-9.72-54.22-11.81-40-4.49-78.09,2.27-114,19.38-66.18,31.57-105.55,84.51-120.38,156C76,341.08,93.58,403.3,143.53,455.64c7.05,7.39,14.07,14.87,22.24,21.1,5.85,4.46,8.42,10.2,7.1,17.54-7.23,13.57-13.65,15.17-26.3,6.89-7.61-5-13.24-12.26-20.47-18.1-7.59,21.7,7.19,42.22,30.24,42.34,14,.07,27.29-3.91,40-9.67,32.72-14.83,61.27-35.69,87.07-60.5,26-24.95,50.6-51,69.76-81.73,7.27-10.81,14.32-21.75,19.58-33.74,17.87-32.77,30.53-67.62,41.15-103.27,1.14-3.79,2.18-7.6,4.65-10.84,6.84-7.07,14.24-7.73,21.72-1.31C447.2,230.3,447.05,237.76,440.34,248.34Z" transform="translate(-55.61 -52.77)"/><path class="cls-2" d="M509.59,258.1c-1.48-13.93-6.82-26.71-12.7-39.13-4.06-8.58-4.39-15.71,3.07-22.24,10.32-2.32,15.76,2.42,20,11.69,66.44,144-27.88,317.25-184.88,339.53a317.88,317.88,0,0,1-33,2.58c-8.38.32-15.4-1.66-15.78-11.59-.41-10.5,6.49-12.89,15.56-13.19,64-2.15,118.26-26.21,160.23-74.74,47.75-55.21,63.14-119.46,48.7-190.92A6.77,6.77,0,0,0,509.59,258.1Z" transform="translate(-55.61 -52.77)"/><path class="cls-2" d="M488,175.63c-7.67,4.53-14.29,2.93-20-3.49-4.89-5.46-9.74-11-16-15.46-.74,12.08-5.34,23.64,5.86,33.17,4.78,4.07,3.75,11.11-1.17,15.88s-10.87,4.92-16.1.81c-9.49-7.45-17.63-15.7-15.76-29.58.84-6.17.14-12.54.14-20-8.32,3.57-12.53,10.27-17.92,15.4-6.29,6-12.92,8.44-19.65,1.86-6.91-6.76-4-13.57,1.93-19.56,9.74-9.77,19.28-19.74,29.35-29.16,5.36-5,7.44-10.57,7.27-17.77-.35-15.36-.15-30.73-.18-46.1,2.79-6.66,7.65-10.17,14.91-8.39,7.95,1.94,9.71,8,9.67,15.48-.08,16.58-4.19,35,1.68,49.21s21.68,24.42,33.53,36C492.59,160.77,494.54,167.55,488,175.63Z" transform="translate(-55.61 -52.77)"/><path class="cls-1" d="M376.52,390.9l32.85-59c9.53-3.52,18.95-7.39,28.62-10.47,8.93-2.83,18-3,25.61,3.67,7.22,6.26,10.14,13.71,5.59,23.09a109.62,109.62,0,0,1-53.5,52.67C400.83,407.77,388.57,398.33,376.52,390.9Z" transform="translate(-55.61 -52.77)"/><path class="cls-1" d="M351.7,374.52c-3.68-5-7.92-9.79-10.91-15.22-5.81-10.55-.49-19.87,11.64-20.13,6.14-.14,12.33,1.59,18.49,2.48A161.76,161.76,0,0,1,351.7,374.52Z" transform="translate(-55.61 -52.77)"/></svg>