<?xml version="1.0" encoding="utf-8"?>
<!-- Generator: Adobe Illustrator 25.0.1, SVG Export Plug-In . SVG Version: 6.00 Build 0)  -->
<svg version="1.1" id="Livello_1" xmlns="http://www.w3.org/2000/svg" xmlns:xlink="http://www.w3.org/1999/xlink" x="0px" y="0px"
	 viewBox="0 0 600 600" style="enable-background:new 0 0 600 600;" xml:space="preserve">
<style type="text/css">
	.st0{fill:#F9B442;}
	.st1{fill:#444B54;}
</style>
<g>
	<path class="st0" d="M311,151.6c-91.2,0.1-158.8,59.6-169.5,139.9c-6.8,50.9,8.9,94.6,43.1,132.2c0.9,1,1.8,1.8,2.7,2.8
		c4.9,5.2,6.3,10.8,0.6,16c-5.4,5-10.7,2.9-15.3-1.7c-17.1-17.1-30.3-36.9-39.5-59.1c-28-67.4-12.6-146.1,39.4-197.4
		c32.1-31.7,70.8-49.3,116.2-52.5c89.4-6.3,170.2,54.7,189.1,143.3c6.9,32,5,64-5.8,95.2c-2.2,6.4-5.1,12.8-13.4,10.2
		c-8.6-2.6-8.1-9.4-5.9-16.6c18.2-59.3,7.5-113.1-33.6-159.4C387.9,169.1,347.3,152.3,311,151.6z"/>
	<path class="st1" d="M491,472.1c-17.8,10.3-34.1,19.9-51.7,26.9C318.5,546.7,204.1,534.8,96.4,462c-11-7.4-13.6-13.3-8.7-19
		c7.9-9,14.2-1.9,20.8,2.5c116.8,76.7,236.7,82.1,359.8,15.9c3.3-1.8,7-3.1,9.6-7.2c-7.2-1.5-14-2.8-20.7-4.2
		c-6.3-1.3-10-5.3-8.9-11.6c1-6.3,5.7-9.3,12.1-8.2c15.6,2.6,31.1,5.4,46.6,8.5c6.8,1.4,9.6,6.4,8.5,13.1
		c-2.6,15.6-5.4,31.1-8.5,46.6c-1.3,6.3-5.8,9.3-12.3,7.8c-6.4-1.5-8.8-6.2-7.8-12.5C488,486.9,489.4,480.4,491,472.1z"/>
	<path class="st0" d="M310.4,283.5c7.5,23.5-5.5,43.4-26.9,60.5c-10,8-18.4,18-27.5,27.2c-5.2,5.3-10.9,9-17.3,2.4
		c-5.9-6.2-2.4-11.6,2.6-16.6c14.4-14.3,28.5-28.8,43.2-42.9c4.6-4.4,6.3-9,6.2-15.3c-0.3-17.4,0-34.8-0.2-52.2
		c-0.1-7.2,2.5-12.6,9.9-12.7c7.4-0.1,10.2,5.2,10.1,12.5C310.2,257,310.4,267.7,310.4,283.5z"/>
</g>
</svg>
