<svg version="1.2" xmlns="http://www.w3.org/2000/svg" viewBox="0 0 512 512" width="512" height="512">
	<title>image</title>
	<style>
		.s0 { fill: #000000 } 
	</style>
	<path id="Layer" fill-rule="evenodd" class="s0" d="m416 256h-80c-26.5 0-48 21.5-48 48 0 26.5 21.5 48 48 48h96c44.2 0 80 35.8 80 80 0 44.2-35.8 80-80 80h-292.4c7.7-8.8 16.9-19.7 25.5-32h266.9c26.5 0 48-21.5 48-48 0-26.5-21.5-48-48-48h-96c-44.2 0-80.9-35.8-80.9-80 0-44.2 36.7-80 80.9-80h51.1c-28.3-33.7-67.1-87.3-67.1-128 0-53 42.1-96 96-96 53 0 96 43 96 96 0 44.3-46 103.9-74.3 136.4-12.6 14.5-21.7 23.6-21.7 23.6zm52.4-122.3c8.1-16.2 11.6-29 11.6-37.7 0-35.4-28.7-64-64-64-35.3 0-64 28.6-64 64 0 8.7 3.5 21.5 11.6 37.7 7.9 15.7 18.6 32 30 47.1 7.7 10.3 15.5 19.8 22.4 27.8 6.9-8 14.7-17.5 22.4-27.8 11.4-15.1 22.1-31.4 30-47.1zm-28.4-37.7c0 13.3-10.7 24-24 24-13.3 0-24-10.7-24-24 0-13.3 10.7-24 24-24 13.3 0 24 10.7 24 24zm-322.3 392.4c-2 2.3-3.9 4.4-5.6 6.4h-0.1c-9.5 10.7-16 17.2-16 17.2 0 0-9.1-9.1-21.7-23.6-28.3-32.5-74.3-92.1-74.3-136.4 0-53.9 43-96 96-96 53 0 96 42.1 96 96 0 40.8-39.1 94.7-67.4 128.4-2.4 2.8-4.7 5.5-6.9 8zm30.7-98.7c8.1-16.2 10.7-29 10.7-37.7 0-35.3-27.8-64-64-64-34.5 0-64 28.7-64 64 0 8.7 4.4 21.5 12.5 37.7 7.9 15.7 18.6 32 30 47.1 7.7 10.3 15.5 19.8 21.5 27.8 7.8-8 15.6-17.5 23.3-27.8 11.3-15.1 22.1-31.4 30-47.1zm-77.3-37.7c0-13.3 11.6-24 24-24 14.2 0 24 10.7 24 24 0 13.3-9.8 24-24 24-12.4 0-24-10.7-24-24z"/>
</svg>