<?xml version="1.0" encoding="utf-8"?>
<!-- Generator: Adobe Illustrator 25.0.1, SVG Export Plug-In . SVG Version: 6.00 Build 0)  -->
<svg version="1.1" id="Livello_1" xmlns="http://www.w3.org/2000/svg" xmlns:xlink="http://www.w3.org/1999/xlink" x="0px" y="0px"
	 viewBox="0 0 600 600" style="enable-background:new 0 0 600 600;" xml:space="preserve">
<style type="text/css">
	.st0{fill:#444B54;}
	.st1{fill:#F9B442;}
	.st2{fill:#FBFBFB;}
	.st3{fill:#FEFEFE;}
	.st4{fill:#444B54;stroke:#444B54;stroke-width:13;stroke-miterlimit:10;}
	.st5{fill:none;stroke:#444B54;stroke-width:13;stroke-miterlimit:10;}
</style>
<g>
	<path class="st0" d="M246.7,176c18.2,0,36.4-0.2,54.6,0c54.6,0.6,95.2,41.7,95,96.3c0,17.1,1.4,34.3-1.5,51.4
		c-8.3,48.4-52.4,83.2-101.6,79.9c-48.6-3.2-88.4-44.5-89.6-93.4c-0.5-22.8-0.3-45.6,0-68.3c0.1-5.7-1.4-9.7-5.8-13.6
		c-10-8.8-18.3-19.3-26.1-30.1c-3.6-5-6.6-10.1-3.5-16.4c3-6.2,8.9-5.8,14.6-5.8C204,176,225.3,176,246.7,176z"/>
	<path class="st0" d="M308.6,424C361,425.8,409,451.7,443,503.1c1.2,1.7,2.3,3.5,3.3,5.4c3.7,6.5,2.9,12.6-3.7,16.3
		c-6.1,3.4-11.6,1.3-15.2-4.7c-5.7-9.3-11.9-18.1-19.3-26.1C343,423.4,229.8,432.6,177,512.8c-1.2,1.8-2.3,3.5-3.3,5.4
		c-3.9,7.1-9.5,11-17.1,6.3c-7.7-4.8-5.9-11.5-1.8-18.3c10.8-17.9,24.3-33.4,40.8-46.2C226.2,436.3,260.9,424.2,308.6,424z"/>
	<path class="st1" d="M403.6,410.6c-8.2,0.4-16.1-1-23.8-3.6c-7.4-2.5-13-7-10.3-15.4c2.7-8.5,9.6-8.4,17.2-6.2
		c37.6,10.9,72.6-15.8,70.4-54.1c-1.2-22.3-13.4-37.7-33.5-46.9c-2.2-1-4.6-1.5-6.9-2.4c-6.3-2.3-10.2-6.4-8.2-13.5
		c2-7,7.5-9.1,14.1-7.5c17.3,4.2,31.7,13.4,42,27.8c18,25.2,20.7,52.6,6.7,80.2C457.5,396.3,434.3,410.1,403.6,410.6z"/>
	<path class="st1" d="M197.5,410.5c-37.6,0-69.5-25.8-75.9-60.3c-6.9-37.4,12.5-73,47.1-86.4c4.2-1.6,8.5-3.9,13.1-2.5
		c4.7,1.4,8.2,4.6,8.5,9.6c0.4,6.5-3.4,10.5-9.3,12.4c-12.4,4-22.5,10.9-29.8,22c-11.9,18.2-12,41.2,0,59.4
		c11.7,17.7,33.5,26.8,54.7,22.8c4.1-0.8,8.1-2,12.3-2.6c5.8-0.8,10.6,1.1,12.1,7.3c1.5,6.1-0.2,11.3-6.6,13.6
		C214.8,409.1,205.7,411.1,197.5,410.5z"/>
	<path class="st1" d="M158,439.5c6.5,0.1,10.5,2.5,11.5,8.1c1.2,6.8-1.5,11.4-8.4,13.5c-15.2,4.6-29.1,11.7-41.8,21.3
		c-12.7,9.6-23.1,21.3-31.5,34.8c-4.3,7-9.6,12-17.8,6.9c-7.9-4.9-5.5-11.8-1.5-18.3c20-32.3,48-54.1,84.3-65.3
		C154.7,440,156.8,439.8,158,439.5z"/>
	<path class="st1" d="M430,450.5c-0.2-9.1,6.5-13,17.2-9.8c22.4,6.8,42.2,18.4,59.2,34.6c9.9,9.4,18.5,20,25.5,31.8
		c3.9,6.5,4.8,12.9-2.5,17.3c-7.2,4.3-12.7,0.9-16.6-5.7c-17-28.7-41.9-47.4-73.5-57.3C433.8,459.7,430.1,456.8,430,450.5z"/>
	<path class="st2" d="M555.2,65.3c-2.1-0.7-4.2-1.4-6.3-2.1c1.1-8.9-2.7-15.9-9.4-22c15.6-2.3,15.7-2.3,15.7,11.6
		C555.2,56.9,555.2,61.1,555.2,65.3z"/>
	<path class="st3" d="M226,251.4c22.3,13.8,44.3,23.9,68.3,29.3c23.4,5.3,46.9,7.4,70.7,3.9c6.6-1,9.5,0,9,7.6
		c-0.7,12.5,0.6,25.2-3.3,37.4c-11.1,35-45.7,56.4-82.7,51.1c-34.2-4.9-61.2-35.8-62-71.5C225.6,290.5,226,271.8,226,251.4z"/>
	<line class="st4" x1="264.2" y1="439.6" x2="290.8" y2="483.3"/>
	<line class="st5" x1="319.1" y1="483" x2="290.8" y2="483.3"/>
	<line class="st5" x1="339.4" y1="439.6" x2="319.1" y2="483"/>
	<line class="st5" x1="290.8" y1="483.3" x2="272.3" y2="542.7"/>
	<line class="st5" x1="319.1" y1="483" x2="338.5" y2="542.5"/>
</g>
</svg>
