<?xml version="1.0" encoding="utf-8"?>
<!-- Generator: Adobe Illustrator 25.0.1, SVG Export Plug-In . SVG Version: 6.00 Build 0)  -->
<svg version="1.1" id="Livello_1" xmlns="http://www.w3.org/2000/svg" xmlns:xlink="http://www.w3.org/1999/xlink" x="0px" y="0px"
	 viewBox="0 0 600 600" style="enable-background:new 0 0 600 600;" xml:space="preserve">
<style type="text/css">
	.st0{fill:#F9B442;}
	.st1{fill:#444B54;}
	.st2{fill:#1FD3AE;}
</style>
<g>
	<path class="st0" d="M286.1,438.5c0-89.7-0.1-176.1,0.2-262.5c0-10.2-4.1-9.7-11.1-7.1c-32,11.8-64,23.6-95.9,35.4
		c-8.7,3.2-17.6,6.1-22-5.6c-4.3-11.3,5.3-14.8,12.7-17.6c35.7-13.6,71.6-26.6,107.5-39.8c7.2-2.6,14.1-1.3,21.1,1.3
		c34.8,13.1,69.7,25.9,104.5,38.9c9.3,3.4,13.3,9.5,13.6,20c2,77.5-17.2,148.3-66,209.5c-15.5,19.4-33.3,36.9-53.4,51.6
		c-8.2,6-15.9,5-24-1.3c-59.8-46.9-96.8-107.7-111.5-182.2c-0.8-4-1.8-8-2.6-12.1c-1.5-8,0.4-15.1,8.7-17.5
		c8.7-2.5,13.8,2.7,15.7,10.8c2.3,9.5,3.7,19.2,6.1,28.7C205.2,348.2,235.3,397.9,286.1,438.5z"/>
	<path class="st1" d="M106.3,207.5c0-16.9,0.3-29.8-0.1-42.8c-0.3-9.8,4.1-15.1,13.1-18.4c52.4-19.1,104.6-38.5,156.9-58
		c7.2-2.7,13.9-2.4,21.1,0.3c51.7,19.3,103.5,38.5,155.4,57.6c7.3,2.7,13.1,6.5,13.2,15.2c0.5,51.2,1.9,102.5-12.1,152.6
		c-1.4,5-2.8,10-7.9,12.7c-4.7,2.5-9.1,2-13.1-1.1c-6-4.5-5.3-11-3.6-17.1c11.3-40.4,11-81.7,11.5-123.2c0.2-12.3-3.2-18-15.1-22.2
		c-42.8-15.1-85.2-31.5-127.7-47.6c-7.6-2.9-14.2-3.6-22.2-0.5c-44.4,16.9-89,33.2-133.5,49.8c-5.1,1.9-10.8,2.4-11,10.5
		c-1.5,63,2.3,125,29.5,183.5c25.8,55.3,63.8,99.8,113.7,134.7c8.3,5.8,14.8,7.7,23,0.3c6.1-5.5,13.3-9.8,20-14.7
		c6.3-4.6,12.8-5,17.9,1.3c5.8,7,3.5,13.9-3.2,18.7c-12.5,9.1-25.5,17.6-38.2,26.5c-6.1,4.3-11.5,2.6-17.2-1
		C179.4,463,122.5,375.7,108.7,260.9C106.5,241.8,106,222.7,106.3,207.5z"/>
	<path class="st2" d="M452,531.9c-35.5-0.3-67.3-23.8-78.2-57.9c-10.9-34.1,1.1-71,30.1-92.7c28.1-21,68.7-21.3,97.5-1.4
		c6.9,4.8,9,8.2,2.3,15.2c-14.6,15.4-28.7,31.3-42.5,47.4c-5.8,6.8-9.5,6-14.1-0.8c-3.7-5.6-8.1-10.8-12.4-15.9
		c-4.9-5.8-10.8-8.4-17.6-3.3c-6.6,5-6.9,11.6-2.3,17.7c9.3,12.5,18.7,24.8,28.8,36.6c7.6,9,15.3,6,22.2-1.9
		c17.1-19.4,34.7-38.4,51.4-58.2c8.2-9.7,11.1-6.8,14.8,3.2C552.1,473.7,510.3,532.3,452,531.9z"/>
</g>
</svg>
