<svg width="12" height="15" viewBox="0 0 12 15" fill="none" xmlns="http://www.w3.org/2000/svg">
<path d="M1.33333 14.1666C0.966668 14.1666 0.652668 14.0359 0.391334 13.7746C0.130001 13.5133 -0.000443313 13.1995 1.13186e-06 12.8333V3.49992C1.13186e-06 3.13325 0.130668 2.81925 0.392001 2.55792C0.653334 2.29659 0.967112 2.16614 1.33333 2.16659H2V0.833252H3.33333V2.16659H8.66667V0.833252H10V2.16659H10.6667C11.0333 2.16659 11.3473 2.29725 11.6087 2.55859C11.87 2.81992 12.0004 3.1337 12 3.49992V12.8333C12 13.1999 11.8693 13.5139 11.608 13.7753C11.3467 14.0366 11.0329 14.167 10.6667 14.1666H1.33333ZM1.33333 12.8333H10.6667V6.16659H1.33333V12.8333ZM1.33333 4.83325H10.6667V3.49992H1.33333V4.83325ZM6 8.83325C5.81111 8.83325 5.65267 8.76925 5.52467 8.64125C5.39667 8.51325 5.33289 8.35503 5.33333 8.16659C5.33333 7.9777 5.39734 7.81925 5.52533 7.69125C5.65333 7.56325 5.81156 7.49947 6 7.49992C6.18889 7.49992 6.34733 7.56392 6.47534 7.69192C6.60333 7.81992 6.66711 7.97814 6.66667 8.16659C6.66667 8.35547 6.60267 8.51392 6.47467 8.64192C6.34667 8.76992 6.18845 8.8337 6 8.83325ZM3.33333 8.83325C3.14445 8.83325 2.986 8.76925 2.858 8.64125C2.73 8.51325 2.66622 8.35503 2.66667 8.16659C2.66667 7.9777 2.73067 7.81925 2.85867 7.69125C2.98667 7.56325 3.14489 7.49947 3.33333 7.49992C3.52222 7.49992 3.68067 7.56392 3.80867 7.69192C3.93667 7.81992 4.00045 7.97814 4 8.16659C4 8.35547 3.936 8.51392 3.808 8.64192C3.68 8.76992 3.52178 8.8337 3.33333 8.83325ZM8.66667 8.83325C8.47778 8.83325 8.31933 8.76925 8.19133 8.64125C8.06333 8.51325 7.99956 8.35503 8 8.16659C8 7.9777 8.064 7.81925 8.192 7.69125C8.32 7.56325 8.47822 7.49947 8.66667 7.49992C8.85556 7.49992 9.014 7.56392 9.142 7.69192C9.27 7.81992 9.33378 7.97814 9.33333 8.16659C9.33333 8.35547 9.26933 8.51392 9.14133 8.64192C9.01334 8.76992 8.85511 8.8337 8.66667 8.83325ZM6 11.4999C5.81111 11.4999 5.65267 11.4359 5.52467 11.3079C5.39667 11.1799 5.33289 11.0217 5.33333 10.8333C5.33333 10.6444 5.39734 10.4859 5.52533 10.3579C5.65333 10.2299 5.81156 10.1661 6 10.1666C6.18889 10.1666 6.34733 10.2306 6.47534 10.3586C6.60333 10.4866 6.66711 10.6448 6.66667 10.8333C6.66667 11.0221 6.60267 11.1806 6.47467 11.3086C6.34667 11.4366 6.18845 11.5004 6 11.4999ZM3.33333 11.4999C3.14445 11.4999 2.986 11.4359 2.858 11.3079C2.73 11.1799 2.66622 11.0217 2.66667 10.8333C2.66667 10.6444 2.73067 10.4859 2.85867 10.3579C2.98667 10.2299 3.14489 10.1661 3.33333 10.1666C3.52222 10.1666 3.68067 10.2306 3.80867 10.3586C3.93667 10.4866 4.00045 10.6448 4 10.8333C4 11.0221 3.936 11.1806 3.808 11.3086C3.68 11.4366 3.52178 11.5004 3.33333 11.4999ZM8.66667 11.4999C8.47778 11.4999 8.31933 11.4359 8.19133 11.3079C8.06333 11.1799 7.99956 11.0217 8 10.8333C8 10.6444 8.064 10.4859 8.192 10.3579C8.32 10.2299 8.47822 10.1661 8.66667 10.1666C8.85556 10.1666 9.014 10.2306 9.142 10.3586C9.27 10.4866 9.33378 10.6448 9.33333 10.8333C9.33333 11.0221 9.26933 11.1806 9.14133 11.3086C9.01334 11.4366 8.85511 11.5004 8.66667 11.4999Z" fill="#EC5C29"/>
</svg>
