<svg width="13" height="13" viewBox="0 0 13 13" fill="none" xmlns="http://www.w3.org/2000/svg">
<path d="M1.33334 11.1666H2.26667L8.01667 5.41659L7.08334 4.48325L1.33334 10.2333V11.1666ZM10.8667 4.44992L8.03334 1.64992L8.96667 0.716585C9.22223 0.46103 9.53622 0.333252 9.90867 0.333252C10.2811 0.333252 10.5949 0.46103 10.85 0.716585L11.7833 1.64992C12.0389 1.90547 12.1722 2.21392 12.1833 2.57525C12.1944 2.93659 12.0722 3.24481 11.8167 3.49992L10.8667 4.44992ZM0.666669 12.4999C0.47778 12.4999 0.319336 12.4359 0.191336 12.3079C0.0633356 12.1799 -0.000442138 12.0217 2.30681e-06 11.8333V9.94992C2.30681e-06 9.86103 0.016669 9.77481 0.0500023 9.69125C0.0833357 9.6077 0.133336 9.53281 0.200002 9.46659L7.06667 2.59992L9.9 5.43325L3.03334 12.2999C2.96667 12.3666 2.89178 12.4166 2.80867 12.4499C2.72556 12.4833 2.63934 12.4999 2.55 12.4999H0.666669ZM7.55 4.94992L7.08334 4.48325L8.01667 5.41659L7.55 4.94992Z" fill="#EC5C29"/>
</svg>
