<svg width="8" height="11" viewBox="0 0 8 11" fill="none" xmlns="http://www.w3.org/2000/svg">
<path d="M1.77778 3.70408C1.77778 3.61477 1.8129 3.52912 1.87541 3.46597C1.93792 3.40282 2.02271 3.36735 2.11111 3.36735H5.88889C5.97729 3.36735 6.06208 3.40282 6.12459 3.46597C6.1871 3.52912 6.22222 3.61477 6.22222 3.70408C6.22222 3.79339 6.1871 3.87904 6.12459 3.94219C6.06208 4.00534 5.97729 4.04082 5.88889 4.04082H2.11111C2.02271 4.04082 1.93792 4.00534 1.87541 3.94219C1.8129 3.87904 1.77778 3.79339 1.77778 3.70408ZM2.11111 0C2.02271 0 1.93792 0.0354773 1.87541 0.0986273C1.8129 0.161777 1.77778 0.247427 1.77778 0.336735C1.77778 0.426042 1.8129 0.511692 1.87541 0.574842C1.93792 0.637992 2.02271 0.673469 2.11111 0.673469H2.22222V1.12245H1.55556C1.143 1.12245 0.747335 1.28801 0.455612 1.58271C0.163889 1.87741 5.1293e-08 2.27711 5.1293e-08 2.69388V8.7551C-9.59782e-05 9.13305 0.134649 9.49836 0.379536 9.78409C0.624422 10.0698 0.963044 10.2568 1.33333 10.3108V10.6633C1.33333 10.7526 1.36845 10.8382 1.43096 10.9014C1.49348 10.9645 1.57826 11 1.66667 11C1.75507 11 1.83986 10.9645 1.90237 10.9014C1.96488 10.8382 2 10.7526 2 10.6633V10.3265H6V10.6633C6 10.7526 6.03512 10.8382 6.09763 10.9014C6.16014 10.9645 6.24493 11 6.33333 11C6.42174 11 6.50652 10.9645 6.56904 10.9014C6.63155 10.8382 6.66667 10.7526 6.66667 10.6633V10.3108C7.03692 10.2567 7.37549 10.0697 7.62036 9.784C7.86523 9.49829 8 9.13302 8 8.7551V2.69388C8 2.27711 7.83611 1.87741 7.54439 1.58271C7.25267 1.28801 6.857 1.12245 6.44444 1.12245H5.77778V0.673469H5.88889C5.97729 0.673469 6.06208 0.637992 6.12459 0.574842C6.1871 0.511692 6.22222 0.426042 6.22222 0.336735C6.22222 0.247427 6.1871 0.161777 6.12459 0.0986273C6.06208 0.0354773 5.97729 0 5.88889 0H2.11111ZM5.11111 0.673469V1.12245H2.88889V0.673469H5.11111ZM1.55556 1.79592H6.44444C6.68019 1.79592 6.90628 1.89052 7.07298 2.05892C7.23968 2.22732 7.33333 2.45572 7.33333 2.69388V8.7551C7.33333 8.99326 7.23968 9.22165 7.07298 9.39005C6.90628 9.55845 6.68019 9.65306 6.44444 9.65306H1.55556C1.31981 9.65306 1.09372 9.55845 0.927016 9.39005C0.760317 9.22165 0.666667 8.99326 0.666667 8.7551V2.69388C0.666667 2.45572 0.760317 2.22732 0.927016 2.05892C1.09372 1.89052 1.31981 1.79592 1.55556 1.79592Z" fill="black"/>
</svg>
