<svg width="12" height="15" viewBox="0 0 12 15" fill="none" xmlns="http://www.w3.org/2000/svg">
<path d="M7.32623 6.87499H10.3751C10.7387 6.87499 11.0669 7.10194 11.1708 7.44101C11.3211 7.7828 11.2254 8.16835 10.952 8.40898L3.95201 14.534C3.64302 14.8019 3.19103 14.8238 2.86072 14.5832C2.53013 14.3426 2.40982 13.9051 2.57088 13.5305L4.67388 8.62499H1.60045C1.26056 8.62499 0.934161 8.39804 0.805946 8.05897C0.677731 7.71718 0.774512 7.33163 1.04892 7.09101L8.0481 0.966499C8.35709 0.697491 8.80826 0.677011 9.13912 0.917171C9.46998 1.15741 9.59029 1.59409 9.42896 1.9698L7.32623 6.87499Z" fill="#EC5C29"/>
</svg>
