<svg width="181" height="20" viewBox="0 0 181 20" fill="none" xmlns="http://www.w3.org/2000/svg">
<path d="M3 4.16667C3 3.24619 3.74619 2.5 4.66667 2.5H7.39937C7.75806 2.5 8.07651 2.72953 8.18994 3.06981L9.43811 6.81434C9.56926 7.20777 9.39115 7.63776 9.02022 7.82322L7.13917 8.76375C8.05771 10.801 9.69898 12.4423 11.7363 13.3608L12.6768 11.4798C12.8622 11.1088 13.2922 10.9307 13.6857 11.0619L17.4302 12.3101C17.7705 12.4235 18 12.7419 18 13.1006V15.8333C18 16.7538 17.2538 17.5 16.3333 17.5H15.5C8.59644 17.5 3 11.9036 3 5V4.16667Z" stroke="#FDC65C" stroke-width="2" stroke-linecap="round" stroke-linejoin="round"/>
<path d="M32.484 7.404H34.116V10.636H37.332V12.268H34.116V15.5H32.484V12.268H29.268V10.636H32.484V7.404ZM39.8858 11.404H43.2778V6.476H43.2458L39.8858 11.404ZM46.4458 12.844H45.0058V15.5H43.2778V12.844H38.4778V11.036L43.2778 4.3H45.0058V11.404H46.4458V12.844ZM48.7764 11.404H52.1684V6.476H52.1364L48.7764 11.404ZM55.3364 12.844H53.8964V15.5H52.1684V12.844H47.3684V11.036L52.1684 4.3H53.8964V11.404H55.3364V12.844ZM63.4161 18.556C63.0961 18.044 62.7921 17.516 62.5041 16.972C62.2268 16.428 61.9815 15.8573 61.7681 15.26C61.5655 14.652 61.4055 14.012 61.2881 13.34C61.1708 12.668 61.1121 11.948 61.1121 11.18C61.1121 9.88933 61.3095 8.62 61.7041 7.372C62.1095 6.124 62.6801 4.93467 63.4161 3.804H64.9041C64.2641 4.956 63.7735 6.14 63.4321 7.356C63.1015 8.56133 62.9361 9.836 62.9361 11.18C62.9361 12.524 63.0961 13.804 63.4161 15.02C63.7361 16.236 64.2321 17.4147 64.9041 18.556H63.4161ZM69.2293 4.076C70.0293 4.076 70.6799 4.26267 71.1813 4.636C71.6933 4.99867 72.0879 5.468 72.3653 6.044C72.6533 6.60933 72.8453 7.23333 72.9413 7.916C73.0479 8.59867 73.1013 9.26 73.1013 9.9C73.1013 10.54 73.0479 11.2013 72.9413 11.884C72.8453 12.5667 72.6533 13.196 72.3653 13.772C72.0879 14.3373 71.6933 14.8067 71.1813 15.18C70.6799 15.5427 70.0293 15.724 69.2293 15.724C68.4293 15.724 67.7733 15.5427 67.2613 15.18C66.7599 14.8067 66.3653 14.3373 66.0773 13.772C65.7999 13.196 65.6079 12.5667 65.5013 11.884C65.4053 11.2013 65.3573 10.54 65.3573 9.9C65.3573 9.26 65.4053 8.59867 65.5013 7.916C65.6079 7.23333 65.7999 6.60933 66.0773 6.044C66.3653 5.468 66.7599 4.99867 67.2613 4.636C67.7733 4.26267 68.4293 4.076 69.2293 4.076ZM69.2293 14.204C69.6239 14.204 69.9546 14.092 70.2213 13.868C70.4879 13.6333 70.6959 13.324 70.8453 12.94C71.0053 12.5453 71.1173 12.0867 71.1813 11.564C71.2453 11.0413 71.2773 10.4867 71.2773 9.9C71.2773 9.31333 71.2453 8.764 71.1813 8.252C71.1173 7.72933 71.0053 7.27067 70.8453 6.876C70.6959 6.48133 70.4879 6.172 70.2213 5.948C69.9546 5.71333 69.6239 5.596 69.2293 5.596C68.8239 5.596 68.4879 5.71333 68.2213 5.948C67.9653 6.172 67.7573 6.48133 67.5973 6.876C67.4479 7.27067 67.3413 7.72933 67.2773 8.252C67.2133 8.764 67.1813 9.31333 67.1813 9.9C67.1813 10.4867 67.2133 11.0413 67.2773 11.564C67.3413 12.0867 67.4479 12.5453 67.5973 12.94C67.7573 13.324 67.9653 13.6333 68.2213 13.868C68.4879 14.092 68.8239 14.204 69.2293 14.204ZM75.0319 3.804C75.3519 4.316 75.6505 4.84933 75.9279 5.404C76.2052 5.948 76.4452 6.524 76.6479 7.132C76.8612 7.72933 77.0265 8.364 77.1439 9.036C77.2719 9.708 77.3359 10.428 77.3359 11.196C77.3359 12.4867 77.1332 13.756 76.7279 15.004C76.3332 16.252 75.7679 17.436 75.0319 18.556H73.5439C74.1839 17.4147 74.6692 16.2413 74.9999 15.036C75.3412 13.82 75.5119 12.54 75.5119 11.196C75.5119 9.852 75.3519 8.572 75.0319 7.356C74.7119 6.14 74.2159 4.956 73.5439 3.804H75.0319ZM90.8501 15.5H83.2021C83.2128 14.572 83.4368 13.7613 83.8741 13.068C84.3115 12.3747 84.9088 11.772 85.6661 11.26C86.0288 10.9933 86.4075 10.7373 86.8021 10.492C87.1968 10.236 87.5595 9.964 87.8901 9.676C88.2208 9.388 88.4928 9.07867 88.7061 8.748C88.9195 8.40667 89.0315 8.01733 89.0421 7.58C89.0421 7.37733 89.0155 7.164 88.9621 6.94C88.9195 6.70533 88.8288 6.492 88.6901 6.3C88.5515 6.09733 88.3595 5.932 88.1141 5.804C87.8688 5.66533 87.5488 5.596 87.1541 5.596C86.7915 5.596 86.4875 5.67067 86.2421 5.82C86.0075 5.95867 85.8155 6.156 85.6661 6.412C85.5275 6.65733 85.4208 6.95067 85.3461 7.292C85.2821 7.63333 85.2448 8.00133 85.2341 8.396H83.4101C83.4101 7.77733 83.4901 7.20667 83.6501 6.684C83.8208 6.15067 84.0715 5.692 84.4021 5.308C84.7328 4.924 85.1328 4.62533 85.6021 4.412C86.0821 4.188 86.6368 4.076 87.2661 4.076C87.9488 4.076 88.5195 4.188 88.9781 4.412C89.4368 4.636 89.8048 4.91867 90.0821 5.26C90.3701 5.60133 90.5728 5.97467 90.6901 6.38C90.8075 6.77467 90.8661 7.15333 90.8661 7.516C90.8661 7.964 90.7968 8.36933 90.6581 8.732C90.5195 9.09467 90.3328 9.43067 90.0981 9.74C89.8635 10.0387 89.5968 10.316 89.2981 10.572C88.9995 10.828 88.6901 11.068 88.3701 11.292C88.0501 11.516 87.7301 11.7293 87.4101 11.932C87.0901 12.1347 86.7915 12.3373 86.5141 12.54C86.2475 12.7427 86.0128 12.956 85.8101 13.18C85.6075 13.3933 85.4688 13.6227 85.3941 13.868H90.8501V15.5ZM95.9168 4.076C96.7168 4.076 97.3674 4.26267 97.8688 4.636C98.3808 4.99867 98.7754 5.468 99.0528 6.044C99.3408 6.60933 99.5328 7.23333 99.6288 7.916C99.7354 8.59867 99.7888 9.26 99.7888 9.9C99.7888 10.54 99.7354 11.2013 99.6288 11.884C99.5328 12.5667 99.3408 13.196 99.0528 13.772C98.7754 14.3373 98.3808 14.8067 97.8688 15.18C97.3674 15.5427 96.7168 15.724 95.9168 15.724C95.1168 15.724 94.4608 15.5427 93.9488 15.18C93.4474 14.8067 93.0528 14.3373 92.7648 13.772C92.4874 13.196 92.2954 12.5667 92.1888 11.884C92.0928 11.2013 92.0448 10.54 92.0448 9.9C92.0448 9.26 92.0928 8.59867 92.1888 7.916C92.2954 7.23333 92.4874 6.60933 92.7648 6.044C93.0528 5.468 93.4474 4.99867 93.9488 4.636C94.4608 4.26267 95.1168 4.076 95.9168 4.076ZM95.9168 14.204C96.3114 14.204 96.6421 14.092 96.9088 13.868C97.1754 13.6333 97.3834 13.324 97.5328 12.94C97.6928 12.5453 97.8048 12.0867 97.8688 11.564C97.9328 11.0413 97.9648 10.4867 97.9648 9.9C97.9648 9.31333 97.9328 8.764 97.8688 8.252C97.8048 7.72933 97.6928 7.27067 97.5328 6.876C97.3834 6.48133 97.1754 6.172 96.9088 5.948C96.6421 5.71333 96.3114 5.596 95.9168 5.596C95.5114 5.596 95.1754 5.71333 94.9088 5.948C94.6528 6.172 94.4448 6.48133 94.2848 6.876C94.1354 7.27067 94.0288 7.72933 93.9648 8.252C93.9008 8.764 93.8688 9.31333 93.8688 9.9C93.8688 10.4867 93.9008 11.0413 93.9648 11.564C94.0288 12.0867 94.1354 12.5453 94.2848 12.94C94.4448 13.324 94.6528 13.6333 94.9088 13.868C95.1754 14.092 95.5114 14.204 95.9168 14.204ZM100.919 4.3H108.583V5.82C107.997 6.48133 107.463 7.16933 106.983 7.884C106.503 8.588 106.082 9.34 105.719 10.14C105.367 10.9293 105.079 11.7667 104.855 12.652C104.631 13.5373 104.482 14.4867 104.407 15.5H102.407C102.471 14.6147 102.621 13.74 102.855 12.876C103.101 12.012 103.41 11.1747 103.783 10.364C104.167 9.55333 104.61 8.77467 105.111 8.028C105.613 7.28133 106.151 6.58267 106.727 5.932H100.919V4.3ZM114.551 6.156C114.935 6.156 115.308 6.124 115.671 6.06C116.034 5.996 116.359 5.88933 116.647 5.74C116.946 5.59067 117.196 5.39867 117.399 5.164C117.612 4.92933 117.751 4.64133 117.815 4.3H119.303V15.5H117.303V7.596H114.551V6.156ZM123.442 6.156C123.826 6.156 124.199 6.124 124.562 6.06C124.924 5.996 125.25 5.88933 125.538 5.74C125.836 5.59067 126.087 5.39867 126.29 5.164C126.503 4.92933 126.642 4.64133 126.706 4.3H128.194V15.5H126.194V7.596H123.442V6.156ZM139.756 15.5H132.108C132.119 14.572 132.343 13.7613 132.78 13.068C133.218 12.3747 133.815 11.772 134.572 11.26C134.935 10.9933 135.314 10.7373 135.708 10.492C136.103 10.236 136.466 9.964 136.796 9.676C137.127 9.388 137.399 9.07867 137.612 8.748C137.826 8.40667 137.938 8.01733 137.948 7.58C137.948 7.37733 137.922 7.164 137.868 6.94C137.826 6.70533 137.735 6.492 137.596 6.3C137.458 6.09733 137.266 5.932 137.02 5.804C136.775 5.66533 136.455 5.596 136.06 5.596C135.698 5.596 135.394 5.67067 135.148 5.82C134.914 5.95867 134.722 6.156 134.572 6.412C134.434 6.65733 134.327 6.95067 134.252 7.292C134.188 7.63333 134.151 8.00133 134.14 8.396H132.316C132.316 7.77733 132.396 7.20667 132.556 6.684C132.727 6.15067 132.978 5.692 133.308 5.308C133.639 4.924 134.039 4.62533 134.508 4.412C134.988 4.188 135.543 4.076 136.172 4.076C136.855 4.076 137.426 4.188 137.884 4.412C138.343 4.636 138.711 4.91867 138.988 5.26C139.276 5.60133 139.479 5.97467 139.596 6.38C139.714 6.77467 139.772 7.15333 139.772 7.516C139.772 7.964 139.703 8.36933 139.564 8.732C139.426 9.09467 139.239 9.43067 139.004 9.74C138.77 10.0387 138.503 10.316 138.204 10.572C137.906 10.828 137.596 11.068 137.276 11.292C136.956 11.516 136.636 11.7293 136.316 11.932C135.996 12.1347 135.698 12.3373 135.42 12.54C135.154 12.7427 134.919 12.956 134.716 13.18C134.514 13.3933 134.375 13.6227 134.3 13.868H139.756V15.5ZM149.276 5.516C148.785 5.516 148.369 5.66533 148.028 5.964C147.687 6.252 147.516 6.67333 147.516 7.228C147.516 7.76133 147.681 8.172 148.012 8.46C148.343 8.73733 148.764 8.876 149.276 8.876C149.788 8.876 150.209 8.73733 150.54 8.46C150.871 8.172 151.036 7.76133 151.036 7.228C151.036 6.67333 150.865 6.252 150.524 5.964C150.183 5.66533 149.767 5.516 149.276 5.516ZM149.276 15.724C148.711 15.724 148.183 15.644 147.692 15.484C147.212 15.324 146.796 15.0947 146.444 14.796C146.092 14.4867 145.815 14.1133 145.612 13.676C145.42 13.2387 145.324 12.748 145.324 12.204C145.324 11.5 145.505 10.908 145.868 10.428C146.241 9.948 146.743 9.628 147.372 9.468V9.436C146.86 9.244 146.465 8.95067 146.188 8.556C145.921 8.15067 145.788 7.676 145.788 7.132C145.788 6.172 146.087 5.42533 146.684 4.892C147.292 4.348 148.156 4.076 149.276 4.076C150.396 4.076 151.255 4.348 151.852 4.892C152.46 5.42533 152.764 6.172 152.764 7.132C152.764 7.676 152.625 8.15067 152.348 8.556C152.081 8.95067 151.692 9.244 151.18 9.436V9.468C151.809 9.628 152.305 9.948 152.668 10.428C153.041 10.908 153.228 11.5 153.228 12.204C153.228 12.748 153.127 13.2387 152.924 13.676C152.732 14.1133 152.46 14.4867 152.108 14.796C151.756 15.0947 151.335 15.324 150.844 15.484C150.364 15.644 149.841 15.724 149.276 15.724ZM149.276 14.284C149.884 14.284 150.391 14.1027 150.796 13.74C151.201 13.3773 151.404 12.8653 151.404 12.204C151.404 11.5853 151.201 11.1053 150.796 10.764C150.391 10.412 149.884 10.236 149.276 10.236C148.668 10.236 148.161 10.412 147.756 10.764C147.351 11.1053 147.148 11.5853 147.148 12.204C147.148 12.8653 147.351 13.3773 147.756 13.74C148.161 14.1027 148.668 14.284 149.276 14.284ZM154.567 6.156C154.951 6.156 155.324 6.124 155.687 6.06C156.049 5.996 156.375 5.88933 156.663 5.74C156.961 5.59067 157.212 5.39867 157.415 5.164C157.628 4.92933 157.767 4.64133 157.831 4.3H159.319V15.5H157.319V7.596H154.567V6.156ZM167.057 4.076C167.857 4.076 168.508 4.26267 169.009 4.636C169.521 4.99867 169.916 5.468 170.193 6.044C170.481 6.60933 170.673 7.23333 170.769 7.916C170.876 8.59867 170.929 9.26 170.929 9.9C170.929 10.54 170.876 11.2013 170.769 11.884C170.673 12.5667 170.481 13.196 170.193 13.772C169.916 14.3373 169.521 14.8067 169.009 15.18C168.508 15.5427 167.857 15.724 167.057 15.724C166.257 15.724 165.601 15.5427 165.089 15.18C164.588 14.8067 164.193 14.3373 163.905 13.772C163.628 13.196 163.436 12.5667 163.329 11.884C163.233 11.2013 163.185 10.54 163.185 9.9C163.185 9.26 163.233 8.59867 163.329 7.916C163.436 7.23333 163.628 6.60933 163.905 6.044C164.193 5.468 164.588 4.99867 165.089 4.636C165.601 4.26267 166.257 4.076 167.057 4.076ZM167.057 14.204C167.452 14.204 167.783 14.092 168.049 13.868C168.316 13.6333 168.524 13.324 168.673 12.94C168.833 12.5453 168.945 12.0867 169.009 11.564C169.073 11.0413 169.105 10.4867 169.105 9.9C169.105 9.31333 169.073 8.764 169.009 8.252C168.945 7.72933 168.833 7.27067 168.673 6.876C168.524 6.48133 168.316 6.172 168.049 5.948C167.783 5.71333 167.452 5.596 167.057 5.596C166.652 5.596 166.316 5.71333 166.049 5.948C165.793 6.172 165.585 6.48133 165.425 6.876C165.276 7.27067 165.169 7.72933 165.105 8.252C165.041 8.764 165.009 9.31333 165.009 9.9C165.009 10.4867 165.041 11.0413 165.105 11.564C165.169 12.0867 165.276 12.5453 165.425 12.94C165.585 13.324 165.793 13.6333 166.049 13.868C166.316 14.092 166.652 14.204 167.057 14.204ZM172.348 6.156C172.732 6.156 173.105 6.124 173.468 6.06C173.831 5.996 174.156 5.88933 174.444 5.74C174.743 5.59067 174.993 5.39867 175.196 5.164C175.409 4.92933 175.548 4.64133 175.612 4.3H177.1V15.5H175.1V7.596H172.348V6.156Z" fill="#FDC65C"/>
</svg>
