<svg width="194" height="20" viewBox="0 0 194 20" fill="none" xmlns="http://www.w3.org/2000/svg">
<path d="M3 6.66675L9.5755 11.0504C10.1353 11.4236 10.8647 11.4236 11.4245 11.0504L18 6.66675M4.66667 15.8334H16.3333C17.2538 15.8334 18 15.0872 18 14.1667V5.83341C18 4.91294 17.2538 4.16675 16.3333 4.16675H4.66667C3.74619 4.16675 3 4.91294 3 5.83341V14.1667C3 15.0872 3.74619 15.8334 4.66667 15.8334Z" stroke="#FDC65C" stroke-width="2" stroke-linecap="round" stroke-linejoin="round"/>
<path d="M29.508 4.076H31.332V8.3H31.364C31.492 8.09733 31.6467 7.916 31.828 7.756C32.0093 7.596 32.2067 7.46267 32.42 7.356C32.644 7.23867 32.8733 7.15333 33.108 7.1C33.3533 7.036 33.5933 7.004 33.828 7.004C34.4787 7.004 35.044 7.12133 35.524 7.356C36.0147 7.58 36.42 7.89467 36.74 8.3C37.06 8.69467 37.3 9.15867 37.46 9.692C37.62 10.2253 37.7 10.796 37.7 11.404C37.7 11.9587 37.6253 12.4973 37.476 13.02C37.3373 13.5427 37.1187 14.0067 36.82 14.412C36.532 14.8067 36.164 15.1267 35.716 15.372C35.268 15.6067 34.74 15.724 34.132 15.724C33.8547 15.724 33.572 15.7027 33.284 15.66C33.0067 15.628 32.74 15.5587 32.484 15.452C32.228 15.3453 31.9933 15.2067 31.78 15.036C31.5773 14.8653 31.4067 14.6413 31.268 14.364H31.236V15.5H29.508V4.076ZM35.876 11.372C35.876 10.9987 35.828 10.636 35.732 10.284C35.636 9.932 35.492 9.62267 35.3 9.356C35.108 9.07867 34.868 8.86 34.58 8.7C34.292 8.52933 33.9613 8.444 33.588 8.444C32.82 8.444 32.2387 8.71067 31.844 9.244C31.46 9.77733 31.268 10.4867 31.268 11.372C31.268 11.788 31.316 12.1773 31.412 12.54C31.5187 12.892 31.6733 13.196 31.876 13.452C32.0787 13.708 32.3187 13.9107 32.596 14.06C32.884 14.2093 33.2147 14.284 33.588 14.284C34.004 14.284 34.356 14.1987 34.644 14.028C34.932 13.8573 35.1667 13.6387 35.348 13.372C35.54 13.0947 35.6733 12.7853 35.748 12.444C35.8333 12.092 35.876 11.7347 35.876 11.372ZM43.0333 15.724C42.3719 15.724 41.7799 15.6173 41.2573 15.404C40.7453 15.18 40.3079 14.876 39.9453 14.492C39.5933 14.108 39.3213 13.6493 39.1293 13.116C38.9479 12.5827 38.8573 11.996 38.8573 11.356C38.8573 10.7267 38.9479 10.1453 39.1293 9.612C39.3213 9.07867 39.5933 8.62 39.9453 8.236C40.3079 7.852 40.7453 7.55333 41.2573 7.34C41.7799 7.116 42.3719 7.004 43.0333 7.004C43.6946 7.004 44.2813 7.116 44.7933 7.34C45.3159 7.55333 45.7533 7.852 46.1053 8.236C46.4679 8.62 46.7399 9.07867 46.9213 9.612C47.1133 10.1453 47.2093 10.7267 47.2093 11.356C47.2093 11.996 47.1133 12.5827 46.9213 13.116C46.7399 13.6493 46.4679 14.108 46.1053 14.492C45.7533 14.876 45.3159 15.18 44.7933 15.404C44.2813 15.6173 43.6946 15.724 43.0333 15.724ZM43.0333 14.284C43.4386 14.284 43.7906 14.1987 44.0893 14.028C44.3879 13.8573 44.6333 13.6333 44.8253 13.356C45.0173 13.0787 45.1559 12.7693 45.2413 12.428C45.3373 12.076 45.3853 11.7187 45.3853 11.356C45.3853 11.004 45.3373 10.652 45.2413 10.3C45.1559 9.948 45.0173 9.63867 44.8253 9.372C44.6333 9.09467 44.3879 8.87067 44.0893 8.7C43.7906 8.52933 43.4386 8.444 43.0333 8.444C42.6279 8.444 42.2759 8.52933 41.9773 8.7C41.6786 8.87067 41.4333 9.09467 41.2413 9.372C41.0493 9.63867 40.9053 9.948 40.8093 10.3C40.7239 10.652 40.6813 11.004 40.6813 11.356C40.6813 11.7187 40.7239 12.076 40.8093 12.428C40.9053 12.7693 41.0493 13.0787 41.2413 13.356C41.4333 13.6333 41.6786 13.8573 41.9773 14.028C42.2759 14.1987 42.6279 14.284 43.0333 14.284ZM52.5176 15.724C51.8563 15.724 51.2643 15.6173 50.7416 15.404C50.2296 15.18 49.7923 14.876 49.4296 14.492C49.0776 14.108 48.8056 13.6493 48.6136 13.116C48.4323 12.5827 48.3416 11.996 48.3416 11.356C48.3416 10.7267 48.4323 10.1453 48.6136 9.612C48.8056 9.07867 49.0776 8.62 49.4296 8.236C49.7923 7.852 50.2296 7.55333 50.7416 7.34C51.2643 7.116 51.8563 7.004 52.5176 7.004C53.179 7.004 53.7656 7.116 54.2776 7.34C54.8003 7.55333 55.2376 7.852 55.5896 8.236C55.9523 8.62 56.2243 9.07867 56.4056 9.612C56.5976 10.1453 56.6936 10.7267 56.6936 11.356C56.6936 11.996 56.5976 12.5827 56.4056 13.116C56.2243 13.6493 55.9523 14.108 55.5896 14.492C55.2376 14.876 54.8003 15.18 54.2776 15.404C53.7656 15.6173 53.179 15.724 52.5176 15.724ZM52.5176 14.284C52.923 14.284 53.275 14.1987 53.5736 14.028C53.8723 13.8573 54.1176 13.6333 54.3096 13.356C54.5016 13.0787 54.6403 12.7693 54.7256 12.428C54.8216 12.076 54.8696 11.7187 54.8696 11.356C54.8696 11.004 54.8216 10.652 54.7256 10.3C54.6403 9.948 54.5016 9.63867 54.3096 9.372C54.1176 9.09467 53.8723 8.87067 53.5736 8.7C53.275 8.52933 52.923 8.444 52.5176 8.444C52.1123 8.444 51.7603 8.52933 51.4616 8.7C51.163 8.87067 50.9176 9.09467 50.7256 9.372C50.5336 9.63867 50.3896 9.948 50.2936 10.3C50.2083 10.652 50.1656 11.004 50.1656 11.356C50.1656 11.7187 50.2083 12.076 50.2936 12.428C50.3896 12.7693 50.5336 13.0787 50.7256 13.356C50.9176 13.6333 51.163 13.8573 51.4616 14.028C51.7603 14.1987 52.1123 14.284 52.5176 14.284ZM58.258 4.076H60.082V10.572L63.378 7.228H65.618L62.45 10.268L65.922 15.5H63.698L61.17 11.484L60.082 12.54V15.5H58.258V4.076ZM66.8518 4.076H68.6758V5.804H66.8518V4.076ZM66.8518 7.228H68.6758V15.5H66.8518V7.228ZM70.6631 7.228H72.3911V8.444L72.4231 8.476C72.7005 8.01733 73.0631 7.66 73.5111 7.404C73.9591 7.13733 74.4551 7.004 74.9991 7.004C75.9058 7.004 76.6205 7.23867 77.1431 7.708C77.6658 8.17733 77.9271 8.88133 77.9271 9.82V15.5H76.1031V10.3C76.0818 9.64933 75.9431 9.18 75.6871 8.892C75.4311 8.59333 75.0311 8.444 74.4871 8.444C74.1778 8.444 73.9005 8.50267 73.6551 8.62C73.4098 8.72667 73.2018 8.88133 73.0311 9.084C72.8605 9.276 72.7271 9.50533 72.6311 9.772C72.5351 10.0387 72.4871 10.3213 72.4871 10.62V15.5H70.6631V7.228ZM87.4986 15.068C87.4986 16.316 87.1466 17.244 86.4426 17.852C85.7493 18.4707 84.7466 18.78 83.4346 18.78C83.0186 18.78 82.5973 18.7373 82.1706 18.652C81.7546 18.5667 81.3706 18.4227 81.0186 18.22C80.6773 18.0173 80.3893 17.7507 80.1546 17.42C79.92 17.0893 79.7813 16.684 79.7386 16.204H81.5626C81.616 16.46 81.7066 16.668 81.8346 16.828C81.9626 16.988 82.112 17.1107 82.2826 17.196C82.464 17.292 82.6613 17.3507 82.8746 17.372C83.088 17.404 83.312 17.42 83.5466 17.42C84.2826 17.42 84.8213 17.2387 85.1626 16.876C85.504 16.5133 85.6746 15.9907 85.6746 15.308V14.044H85.6426C85.3866 14.5027 85.0346 14.86 84.5866 15.116C84.1493 15.372 83.6746 15.5 83.1626 15.5C82.5013 15.5 81.936 15.388 81.4666 15.164C81.008 14.9293 80.624 14.6147 80.3146 14.22C80.016 13.8147 79.7973 13.3507 79.6586 12.828C79.52 12.3053 79.4506 11.7453 79.4506 11.148C79.4506 10.5933 79.536 10.0653 79.7066 9.564C79.8773 9.06267 80.1226 8.62533 80.4426 8.252C80.7626 7.868 81.152 7.564 81.6106 7.34C82.08 7.116 82.608 7.004 83.1946 7.004C83.7173 7.004 84.1973 7.116 84.6346 7.34C85.072 7.55333 85.408 7.89467 85.6426 8.364H85.6746V7.228H87.4986V15.068ZM83.4506 14.06C83.856 14.06 84.1973 13.98 84.4746 13.82C84.7626 13.6493 84.992 13.4307 85.1626 13.164C85.344 12.8867 85.472 12.5773 85.5466 12.236C85.632 11.884 85.6746 11.532 85.6746 11.18C85.6746 10.828 85.632 10.4867 85.5466 10.156C85.4613 9.82533 85.328 9.532 85.1466 9.276C84.976 9.02 84.7466 8.81733 84.4586 8.668C84.1813 8.51867 83.8453 8.444 83.4506 8.444C83.0453 8.444 82.704 8.52933 82.4266 8.7C82.1493 8.87067 81.9253 9.09467 81.7546 9.372C81.584 9.63867 81.4613 9.948 81.3866 10.3C81.312 10.6413 81.2746 10.9827 81.2746 11.324C81.2746 11.6653 81.3173 12.0013 81.4026 12.332C81.488 12.652 81.616 12.94 81.7866 13.196C81.968 13.452 82.192 13.66 82.4586 13.82C82.736 13.98 83.0666 14.06 83.4506 14.06ZM97.063 11.036C97.0203 11.164 96.983 11.292 96.951 11.42C96.9297 11.548 96.919 11.6653 96.919 11.772C96.919 11.8787 96.9403 11.9693 96.983 12.044C97.0363 12.108 97.1163 12.14 97.223 12.14C97.4683 12.14 97.7137 12.0547 97.959 11.884C98.215 11.7027 98.439 11.4573 98.631 11.148C98.8337 10.8387 98.9937 10.476 99.111 10.06C99.239 9.63333 99.303 9.17467 99.303 8.684C99.303 8.08667 99.191 7.55333 98.967 7.084C98.743 6.604 98.4337 6.19867 98.039 5.868C97.655 5.53733 97.2017 5.28667 96.679 5.116C96.167 4.93467 95.6177 4.844 95.031 4.844C94.3483 4.844 93.7243 4.972 93.159 5.228C92.6043 5.47333 92.1243 5.81467 91.719 6.252C91.3137 6.67867 90.999 7.18533 90.775 7.772C90.551 8.348 90.439 8.972 90.439 9.644C90.439 10.4227 90.5563 11.1267 90.791 11.756C91.0363 12.3853 91.367 12.9187 91.783 13.356C92.2097 13.7933 92.711 14.1347 93.287 14.38C93.8737 14.6147 94.503 14.732 95.175 14.732C95.879 14.732 96.5457 14.5933 97.175 14.316C97.8043 14.0387 98.3377 13.6493 98.775 13.148H99.895C99.383 13.98 98.7057 14.6253 97.863 15.084C97.0203 15.5427 96.103 15.772 95.111 15.772C94.2897 15.772 93.5163 15.6227 92.791 15.324C92.0657 15.0147 91.431 14.588 90.887 14.044C90.3537 13.5 89.9323 12.8493 89.623 12.092C89.3137 11.3347 89.159 10.4973 89.159 9.58C89.159 8.76933 89.3137 8.01733 89.623 7.324C89.943 6.62 90.3697 6.00667 90.903 5.484C91.4363 4.96133 92.055 4.55067 92.759 4.252C93.4737 3.95333 94.231 3.804 95.031 3.804C95.7457 3.804 96.423 3.92133 97.063 4.156C97.7137 4.38 98.2843 4.7 98.775 5.116C99.2657 5.532 99.655 6.028 99.943 6.604C100.242 7.18 100.391 7.80933 100.391 8.492C100.391 9.292 100.252 9.99067 99.975 10.588C99.7083 11.1853 99.3777 11.6813 98.983 12.076C98.599 12.4707 98.1883 12.7693 97.751 12.972C97.3137 13.164 96.935 13.26 96.615 13.26C96.3697 13.26 96.1563 13.1853 95.975 13.036C95.7937 12.876 95.6923 12.6413 95.671 12.332H95.639C95.4257 12.5773 95.159 12.7907 94.839 12.972C94.519 13.1533 94.1883 13.244 93.847 13.244C93.5163 13.244 93.207 13.18 92.919 13.052C92.631 12.9133 92.3803 12.732 92.167 12.508C91.9643 12.2733 91.8043 12.0067 91.687 11.708C91.5697 11.3987 91.511 11.0733 91.511 10.732C91.511 10.22 91.5963 9.71867 91.767 9.228C91.9377 8.73733 92.1723 8.29467 92.471 7.9C92.7803 7.50533 93.1483 7.19067 93.575 6.956C94.0123 6.71067 94.4923 6.588 95.015 6.588C95.3883 6.588 95.7297 6.67867 96.039 6.86C96.3483 7.04133 96.6043 7.33467 96.807 7.74L97.095 6.828H98.215L97.063 11.036ZM94.151 12.044C94.471 12.044 94.7643 11.9533 95.031 11.772C95.2977 11.58 95.527 11.3453 95.719 11.068C95.911 10.78 96.0603 10.4707 96.167 10.14C96.2843 9.79867 96.343 9.484 96.343 9.196C96.343 9.004 96.3057 8.82267 96.231 8.652C96.167 8.48133 96.0763 8.332 95.959 8.204C95.8523 8.076 95.719 7.97467 95.559 7.9C95.4097 7.82533 95.2497 7.788 95.079 7.788C94.7483 7.788 94.4443 7.87867 94.167 8.06C93.9003 8.24133 93.671 8.47067 93.479 8.748C93.287 9.01467 93.1377 9.31333 93.031 9.644C92.9243 9.97467 92.871 10.2893 92.871 10.588C92.871 11.0147 92.983 11.3667 93.207 11.644C93.4417 11.9107 93.7563 12.044 94.151 12.044ZM102.132 7.228H103.844V8.828H103.876C103.929 8.604 104.031 8.38533 104.18 8.172C104.34 7.95867 104.527 7.76667 104.74 7.596C104.964 7.41467 105.209 7.27067 105.476 7.164C105.743 7.05733 106.015 7.004 106.292 7.004C106.505 7.004 106.649 7.00933 106.724 7.02C106.809 7.03067 106.895 7.04133 106.98 7.052V8.812C106.852 8.79067 106.719 8.77467 106.58 8.764C106.452 8.74267 106.324 8.732 106.196 8.732C105.887 8.732 105.593 8.796 105.316 8.924C105.049 9.04133 104.815 9.22267 104.612 9.468C104.409 9.70267 104.249 9.996 104.132 10.348C104.015 10.7 103.956 11.1053 103.956 11.564V15.5H102.132V7.228ZM111.268 15.724C110.606 15.724 110.014 15.6173 109.492 15.404C108.98 15.18 108.542 14.876 108.18 14.492C107.828 14.108 107.556 13.6493 107.364 13.116C107.182 12.5827 107.092 11.996 107.092 11.356C107.092 10.7267 107.182 10.1453 107.364 9.612C107.556 9.07867 107.828 8.62 108.18 8.236C108.542 7.852 108.98 7.55333 109.492 7.34C110.014 7.116 110.606 7.004 111.268 7.004C111.929 7.004 112.516 7.116 113.028 7.34C113.55 7.55333 113.988 7.852 114.34 8.236C114.702 8.62 114.974 9.07867 115.156 9.612C115.348 10.1453 115.444 10.7267 115.444 11.356C115.444 11.996 115.348 12.5827 115.156 13.116C114.974 13.6493 114.702 14.108 114.34 14.492C113.988 14.876 113.55 15.18 113.028 15.404C112.516 15.6173 111.929 15.724 111.268 15.724ZM111.268 14.284C111.673 14.284 112.025 14.1987 112.324 14.028C112.622 13.8573 112.868 13.6333 113.06 13.356C113.252 13.0787 113.39 12.7693 113.476 12.428C113.572 12.076 113.62 11.7187 113.62 11.356C113.62 11.004 113.572 10.652 113.476 10.3C113.39 9.948 113.252 9.63867 113.06 9.372C112.868 9.09467 112.622 8.87067 112.324 8.7C112.025 8.52933 111.673 8.444 111.268 8.444C110.862 8.444 110.51 8.52933 110.212 8.7C109.913 8.87067 109.668 9.09467 109.476 9.372C109.284 9.63867 109.14 9.948 109.044 10.3C108.958 10.652 108.916 11.004 108.916 11.356C108.916 11.7187 108.958 12.076 109.044 12.428C109.14 12.7693 109.284 13.0787 109.476 13.356C109.668 13.6333 109.913 13.8573 110.212 14.028C110.51 14.1987 110.862 14.284 111.268 14.284ZM117.008 4.076H118.832V15.5H117.008V4.076ZM128.611 15.5H126.883V14.38H126.851C126.606 14.86 126.249 15.2067 125.779 15.42C125.31 15.6227 124.814 15.724 124.291 15.724C123.641 15.724 123.07 15.612 122.579 15.388C122.099 15.1533 121.699 14.8387 121.379 14.444C121.059 14.0493 120.819 13.5853 120.659 13.052C120.499 12.508 120.419 11.9267 120.419 11.308C120.419 10.5613 120.521 9.916 120.723 9.372C120.926 8.828 121.193 8.38 121.523 8.028C121.865 7.676 122.249 7.42 122.675 7.26C123.113 7.08933 123.555 7.004 124.003 7.004C124.259 7.004 124.521 7.03067 124.787 7.084C125.054 7.12667 125.31 7.20133 125.555 7.308C125.801 7.41467 126.025 7.55333 126.227 7.724C126.441 7.884 126.617 8.076 126.755 8.3H126.787V4.076H128.611V15.5ZM122.243 11.452C122.243 11.804 122.286 12.1507 122.371 12.492C122.467 12.8333 122.606 13.1373 122.787 13.404C122.979 13.6707 123.219 13.884 123.507 14.044C123.795 14.204 124.137 14.284 124.531 14.284C124.937 14.284 125.283 14.1987 125.571 14.028C125.87 13.8573 126.11 13.6333 126.291 13.356C126.483 13.0787 126.622 12.7693 126.707 12.428C126.803 12.076 126.851 11.7187 126.851 11.356C126.851 10.4387 126.643 9.724 126.227 9.212C125.822 8.7 125.267 8.444 124.563 8.444C124.137 8.444 123.774 8.53467 123.475 8.716C123.187 8.88667 122.947 9.116 122.755 9.404C122.574 9.68133 122.441 10.0013 122.355 10.364C122.281 10.716 122.243 11.0787 122.243 11.452ZM130.601 7.228H132.313V8.828H132.345C132.398 8.604 132.499 8.38533 132.649 8.172C132.809 7.95867 132.995 7.76667 133.209 7.596C133.433 7.41467 133.678 7.27067 133.945 7.164C134.211 7.05733 134.483 7.004 134.761 7.004C134.974 7.004 135.118 7.00933 135.193 7.02C135.278 7.03067 135.363 7.04133 135.449 7.052V8.812C135.321 8.79067 135.187 8.77467 135.049 8.764C134.921 8.74267 134.793 8.732 134.665 8.732C134.355 8.732 134.062 8.796 133.785 8.924C133.518 9.04133 133.283 9.22267 133.081 9.468C132.878 9.70267 132.718 9.996 132.601 10.348C132.483 10.7 132.425 11.1053 132.425 11.564V15.5H130.601V7.228ZM136.274 4.076H138.098V5.804H136.274V4.076ZM136.274 7.228H138.098V15.5H136.274V7.228ZM139.269 7.228H141.253L143.349 13.58H143.381L145.397 7.228H147.285L144.325 15.5H142.277L139.269 7.228ZM154.062 10.636C154.041 10.348 153.977 10.0707 153.87 9.804C153.774 9.53733 153.635 9.308 153.454 9.116C153.283 8.91333 153.07 8.75333 152.814 8.636C152.569 8.508 152.291 8.444 151.982 8.444C151.662 8.444 151.369 8.50267 151.102 8.62C150.846 8.72667 150.622 8.88133 150.43 9.084C150.249 9.276 150.099 9.50533 149.982 9.772C149.875 10.0387 149.817 10.3267 149.806 10.636H154.062ZM149.806 11.836C149.806 12.156 149.849 12.4653 149.934 12.764C150.03 13.0627 150.169 13.324 150.35 13.548C150.531 13.772 150.761 13.9533 151.038 14.092C151.315 14.22 151.646 14.284 152.03 14.284C152.563 14.284 152.99 14.172 153.31 13.948C153.641 13.7133 153.886 13.3667 154.046 12.908H155.774C155.678 13.356 155.513 13.756 155.278 14.108C155.043 14.46 154.761 14.7587 154.43 15.004C154.099 15.2387 153.726 15.4147 153.31 15.532C152.905 15.66 152.478 15.724 152.03 15.724C151.379 15.724 150.803 15.6173 150.302 15.404C149.801 15.1907 149.374 14.892 149.022 14.508C148.681 14.124 148.419 13.6653 148.238 13.132C148.067 12.5987 147.982 12.012 147.982 11.372C147.982 10.7853 148.073 10.2307 148.254 9.708C148.446 9.17467 148.713 8.71067 149.054 8.316C149.406 7.91067 149.827 7.59067 150.318 7.356C150.809 7.12133 151.363 7.004 151.982 7.004C152.633 7.004 153.214 7.14267 153.726 7.42C154.249 7.68667 154.681 8.044 155.022 8.492C155.363 8.94 155.609 9.45733 155.758 10.044C155.918 10.62 155.961 11.2173 155.886 11.836H149.806ZM157.417 13.34H159.641V15.5H157.417V13.34ZM167.31 9.996C167.235 9.484 167.027 9.1 166.686 8.844C166.355 8.57733 165.934 8.444 165.422 8.444C165.187 8.444 164.936 8.48667 164.67 8.572C164.403 8.64667 164.158 8.796 163.934 9.02C163.71 9.23333 163.523 9.53733 163.374 9.932C163.224 10.316 163.15 10.8227 163.15 11.452C163.15 11.7933 163.187 12.1347 163.262 12.476C163.347 12.8173 163.475 13.1213 163.646 13.388C163.827 13.6547 164.056 13.8733 164.334 14.044C164.611 14.204 164.947 14.284 165.342 14.284C165.875 14.284 166.312 14.1187 166.654 13.788C167.006 13.4573 167.224 12.9933 167.31 12.396H169.134C168.963 13.4733 168.552 14.3 167.902 14.876C167.262 15.4413 166.408 15.724 165.342 15.724C164.691 15.724 164.115 15.6173 163.614 15.404C163.123 15.18 162.707 14.8813 162.366 14.508C162.024 14.124 161.763 13.6707 161.582 13.148C161.411 12.6253 161.326 12.06 161.326 11.452C161.326 10.8333 161.411 10.252 161.582 9.708C161.752 9.164 162.008 8.69467 162.35 8.3C162.691 7.89467 163.112 7.58 163.614 7.356C164.126 7.12133 164.723 7.004 165.406 7.004C165.886 7.004 166.339 7.068 166.766 7.196C167.203 7.31333 167.587 7.49467 167.918 7.74C168.259 7.98533 168.536 8.29467 168.75 8.668C168.963 9.04133 169.091 9.484 169.134 9.996H167.31ZM174.408 15.724C173.747 15.724 173.155 15.6173 172.632 15.404C172.12 15.18 171.683 14.876 171.32 14.492C170.968 14.108 170.696 13.6493 170.504 13.116C170.323 12.5827 170.232 11.996 170.232 11.356C170.232 10.7267 170.323 10.1453 170.504 9.612C170.696 9.07867 170.968 8.62 171.32 8.236C171.683 7.852 172.12 7.55333 172.632 7.34C173.155 7.116 173.747 7.004 174.408 7.004C175.07 7.004 175.656 7.116 176.168 7.34C176.691 7.55333 177.128 7.852 177.48 8.236C177.843 8.62 178.115 9.07867 178.296 9.612C178.488 10.1453 178.584 10.7267 178.584 11.356C178.584 11.996 178.488 12.5827 178.296 13.116C178.115 13.6493 177.843 14.108 177.48 14.492C177.128 14.876 176.691 15.18 176.168 15.404C175.656 15.6173 175.07 15.724 174.408 15.724ZM174.408 14.284C174.814 14.284 175.166 14.1987 175.464 14.028C175.763 13.8573 176.008 13.6333 176.2 13.356C176.392 13.0787 176.531 12.7693 176.616 12.428C176.712 12.076 176.76 11.7187 176.76 11.356C176.76 11.004 176.712 10.652 176.616 10.3C176.531 9.948 176.392 9.63867 176.2 9.372C176.008 9.09467 175.763 8.87067 175.464 8.7C175.166 8.52933 174.814 8.444 174.408 8.444C174.003 8.444 173.651 8.52933 173.352 8.7C173.054 8.87067 172.808 9.09467 172.616 9.372C172.424 9.63867 172.28 9.948 172.184 10.3C172.099 10.652 172.056 11.004 172.056 11.356C172.056 11.7187 172.099 12.076 172.184 12.428C172.28 12.7693 172.424 13.0787 172.616 13.356C172.808 13.6333 173.054 13.8573 173.352 14.028C173.651 14.1987 174.003 14.284 174.408 14.284ZM180.101 7.228H181.829V8.38H181.877C182.015 8.17733 182.165 7.99067 182.325 7.82C182.485 7.64933 182.661 7.50533 182.853 7.388C183.055 7.27067 183.285 7.18 183.541 7.116C183.797 7.04133 184.09 7.004 184.421 7.004C184.922 7.004 185.386 7.116 185.813 7.34C186.25 7.564 186.559 7.91067 186.741 8.38C187.05 7.95333 187.407 7.61733 187.813 7.372C188.218 7.12667 188.725 7.004 189.333 7.004C190.207 7.004 190.885 7.21733 191.365 7.644C191.855 8.07067 192.101 8.78533 192.101 9.788V15.5H190.277V10.668C190.277 10.3373 190.266 10.0387 190.245 9.772C190.223 9.49467 190.159 9.26 190.053 9.068C189.957 8.86533 189.807 8.71067 189.605 8.604C189.402 8.49733 189.125 8.444 188.773 8.444C188.154 8.444 187.706 8.636 187.429 9.02C187.151 9.404 187.013 9.948 187.013 10.652V15.5H185.189V10.188C185.189 9.612 185.082 9.18 184.869 8.892C184.666 8.59333 184.287 8.444 183.733 8.444C183.498 8.444 183.269 8.492 183.045 8.588C182.831 8.684 182.639 8.82267 182.469 9.004C182.309 9.18533 182.175 9.40933 182.069 9.676C181.973 9.94267 181.925 10.2467 181.925 10.588V15.5H180.101V7.228Z" fill="#FDC65C"/>
<a href="mailto:booking@roldrive.com">
<rect fill="black" fill-opacity="0" y="-4.408" width="164.561" height="19.536"/>
</a>
</svg>
